*
G04 Mass Parameters ***
*
G04 Image ***
*
%INE:\00.LAVORI IN CORSO\METALTRONICA\25-334-1 (PFC )\25-334-1.SMT*%
%ICAS*%
%MOIN*%
%IPPOS*%
%ASAXBY*%
G74*%FSLAN2X34Y34*%
*
G04 Aperture Definitions ***
*
%ADD10C,0.1378*%
%ADD11C,0.1968*%
%ADD12C,0.0800*%
%ADD13C,0.5118*%
%ADD14R,0.0800X0.0800*%
%ADD15R,0.1500X0.1500*%
%ADD16R,0.2756X0.2756*%
%ADD17C,0.2756*%
%ADD18C,0.1200*%
%ADD19R,0.1200X0.1200*%
%ADD20C,0.0787*%
%ADD21R,0.0787X0.0787*%
%ADD22O,0.1181X0.0787*%
%ADD23C,0.0669*%
%ADD24R,0.0669X0.0669*%
%ADD25C,0.0866*%
%ADD26C,0.1500*%
%ADD27R,0.1736X0.0787*%
%ADD28R,0.0236X0.0787*%
%ADD29C,0.0276*%
%ADD30C,0.0590*%
%ADD31C,0.0100*%
%ADD32C,0.0050*%
%ADD33C,0.0276*%
%ADD34C,0.0276*%
%ADD35C,0.0250*%
%ADD36C,0.0150*%
%ADD37C,0.0276*%
%ADD38C,0.0500*%
%ADD39C,0.0590*%
%ADD40C,0.0060*%
%ADD41R,0.1024X0.0510*%
%ADD42R,0.0380X0.0320*%
%ADD43R,0.0905X0.0886*%
%ADD44R,0.0886X0.0905*%
%ADD45R,0.0320X0.0380*%
%ADD46R,0.0404X0.0501*%
%ADD47R,0.0710X0.0400*%
%ADD48R,0.0400X0.0710*%
%ADD49R,0.0570X0.0590*%
%ADD50R,0.0590X0.0570*%
%ADD51R,0.0315X0.0197*%
%ADD52R,0.0500X0.0400*%
%ADD53R,0.0501X0.0404*%
%ADD54C,0.0187*%
%ADD55R,0.0413X0.0236*%
%ADD56R,0.0500X0.0270*%
%ADD57R,0.1000X0.0600*%
%ADD58R,0.2760X0.2760*%
%ADD59R,0.0400X0.0500*%
%ADD60R,0.1080X0.0850*%
%ADD61R,0.0320X0.0640*%
%ADD62R,0.0320X0.0940*%
%ADD63R,0.0680X0.1580*%
%ADD64R,0.0680X0.0550*%
%ADD65O,0.0650X0.0256*%
%ADD66O,0.0110X0.0700*%
%ADD67R,0.0110X0.0700*%
%ADD68O,0.0700X0.0110*%
%ADD69R,0.0700X0.0110*%
%ADD70O,0.0120X0.0600*%
%ADD71R,0.0120X0.0600*%
%ADD72R,0.0571X0.0256*%
%ADD73O,0.0590X0.0118*%
%ADD74C,0.0039*%
%ADD75C,0.0590*%
%ADD76C,0.1968*%
*
G04 Plot Data ***
*
G54D76*
G01X0055200Y0059400D02*
X0040100D01*
X0055100Y0061950D02*
X0038100D01*
X0050500Y0013150D02*
X0029800D01*
X0055150Y0064400D02*
X0049550D01*
X0044600Y0053900D02*
X0035350D01*
X0032250Y0057000D01*
Y0059600D01*
X0003300Y0003800D02*
Y0011200D01*
X0007250Y0064450D02*
Y-0000650D01*
X0046900Y0005400D02*
X0033300D01*
X0033150Y0002150D02*
X0047200D01*
X0052050Y-0000650D02*
X0003950D01*
X-0000200Y0003500D01*
Y0060500D01*
X0003700Y0064400D01*
X0049750D01*
Y0059600D01*
G54D10*
X-0003937Y0000000D03*
Y0030472D03*
Y0033504D03*
Y0061457D03*
X0059055Y0000000D03*
X0000000D03*
X0059055Y0064173D03*
X0000000D03*
G54D12*
X0048000Y0045500D03*
Y0046500D03*
X0038500Y0064413D03*
Y0053587D03*
X0036750Y0018250D03*
X0040000Y0002087D03*
Y0012913D03*
G54D13*
X0050500Y0013120D03*
Y0004380D03*
X0029750Y0013120D03*
Y0004380D03*
G54D14*
X0036750Y0020250D03*
G54D15*
X0010500Y0010660D03*
Y0006340D03*
X0004000Y0014590D03*
Y0018910D03*
G54D16*
X0027250Y0054500D03*
X0018000Y0005750D03*
X0044750Y0054500D03*
G54D17*
X0032250Y0059620D03*
X0013000Y0000630D03*
X0049750Y0059620D03*
G54D18*
X0018750Y0008000D03*
Y0017000D03*
X0017250Y0008000D03*
Y0017000D03*
X0058750Y0046333D03*
G54D19*
Y0044167D03*
G54D20*
X0042000Y0046250D03*
X0041000D03*
X0038000D03*
X0037000D03*
X0036000D03*
X0057500Y0036750D03*
X0058500D03*
Y0035750D03*
X0057500D03*
X0056500D03*
G54D21*
X0043000Y0046250D03*
X0048000Y0044500D03*
X0056500Y0036750D03*
G54D22*
X0058378Y0041846D03*
Y0039153D03*
X0053878Y0041846D03*
Y0039153D03*
G54D23*
X0057508Y0040008D03*
Y0040992D03*
X0058492Y0040008D03*
X0053008D03*
Y0040992D03*
X0053992Y0040008D03*
G54D24*
X0058492Y0040992D03*
X0053992D03*
G54D25*
X0042000Y0029500D03*
X0040750Y0030250D03*
X0042000Y0031000D03*
X0040750Y0031750D03*
X0042000Y0032500D03*
X0047000Y0038000D03*
X0033500Y0037500D03*
X0060000Y0026000D03*
X0033500Y0035250D03*
X0054500Y0049000D03*
X0033750Y0040000D03*
X0053000Y0027500D03*
X0053250Y0022750D03*
X0030500Y0046000D03*
Y0044500D03*
X0021500Y0043750D03*
X0025500Y0021500D03*
X0043250Y0042000D03*
X0033500Y0048000D03*
X0010500Y0015000D03*
Y0017000D03*
Y0018098D03*
Y0019098D03*
X0004000Y0028500D03*
Y0026500D03*
Y0025401D03*
Y0024401D03*
X0010500Y0035500D03*
Y0037500D03*
Y0038598D03*
Y0039598D03*
Y0024500D03*
Y0026500D03*
Y0027598D03*
Y0028598D03*
X0004000Y0039500D03*
Y0037500D03*
Y0036401D03*
Y0035401D03*
Y0049500D03*
Y0047500D03*
Y0046401D03*
Y0045401D03*
X0010500Y0055500D03*
Y0057500D03*
Y0058598D03*
Y0059598D03*
Y0045500D03*
Y0047500D03*
Y0048598D03*
Y0049598D03*
X0004000Y0059500D03*
Y0057500D03*
Y0056401D03*
Y0055401D03*
G54D26*
X0027750Y0025750D03*
X0037750D03*
X0040000Y0025000D03*
Y0015000D03*
G54D27*
X0026750Y0052331D03*
X0024750D03*
G54D28*
X0024000Y0048669D03*
X0024500D03*
X0025000D03*
X0025500D03*
X0026000D03*
X0026500D03*
X0027000D03*
X0027500D03*
M02*
