*
G04 Mass Parameters ***
*
G04 Image ***
*
%INE:\00.CAD\00.PROGETTI\METALTRONICA\25-334-X (PFC )\25-334-1 (PFC )\25-334-1.SMT*%
%ICAS*%
%MOIN*%
%IPPOS*%
%ASAXBY*%
G74*%FSLAN2X34Y34*%
*
G04 Aperture Definitions ***
*
%ADD10C,0.1378*%
%ADD11C,0.1968*%
%ADD12R,0.0510X0.1024*%
%ADD13R,0.0320X0.0380*%
%ADD14R,0.0886X0.0905*%
%ADD15C,0.0800*%
%ADD16C,0.5118*%
%ADD17R,0.0800X0.0800*%
%ADD18R,0.1457X0.0709*%
%ADD19R,0.1500X0.1500*%
%ADD20R,0.0501X0.0404*%
%ADD21R,0.2756X0.2756*%
%ADD22C,0.2756*%
%ADD23C,0.1200*%
%ADD24R,0.1200X0.1200*%
%ADD25C,0.0787*%
%ADD26R,0.0787X0.0787*%
%ADD27O,0.1181X0.0787*%
%ADD28C,0.0669*%
%ADD29R,0.0669X0.0669*%
%ADD30C,0.0866*%
%ADD31R,0.0380X0.0320*%
%ADD32C,0.1500*%
%ADD33R,0.0640X0.0320*%
%ADD34R,0.0940X0.0320*%
%ADD35R,0.1736X0.0787*%
%ADD36R,0.0236X0.0787*%
%ADD37C,0.0276*%
%ADD38C,0.0590*%
%ADD39C,0.0394*%
%ADD40C,0.0000*%
%ADD41C,0.0079*%
%ADD42C,0.0100*%
%ADD43C,0.0050*%
%ADD44C,0.0276*%
%ADD45C,0.0276*%
%ADD46C,0.0250*%
%ADD47C,0.0500*%
%ADD48C,0.0276*%
%ADD49C,0.0150*%
%ADD50C,0.0590*%
%ADD51C,0.0060*%
%ADD52R,0.1024X0.0510*%
%ADD53R,0.0404X0.0501*%
%ADD54R,0.0710X0.0400*%
%ADD55R,0.0400X0.0710*%
%ADD56R,0.0570X0.0590*%
%ADD57R,0.0590X0.0570*%
%ADD58R,0.0315X0.0197*%
%ADD59R,0.0500X0.0400*%
%ADD60C,0.0187*%
%ADD61R,0.0413X0.0236*%
%ADD62R,0.0500X0.0270*%
%ADD63R,0.1000X0.0600*%
%ADD64R,0.2760X0.2760*%
%ADD65R,0.0400X0.0500*%
%ADD66R,0.1080X0.0850*%
%ADD67R,0.0680X0.1580*%
%ADD68R,0.0680X0.0550*%
%ADD69O,0.0650X0.0256*%
%ADD70O,0.0110X0.0700*%
%ADD71R,0.0110X0.0700*%
%ADD72O,0.0700X0.0110*%
%ADD73R,0.0700X0.0110*%
%ADD74O,0.0120X0.0600*%
%ADD75R,0.0120X0.0600*%
%ADD76R,0.0571X0.0256*%
%ADD77O,0.0590X0.0118*%
%ADD78C,0.0590*%
%ADD79C,0.1968*%
*
G04 Plot Data ***
*
G54D41*
G01X0031697Y0046308D02*
Y0045873D01*
X0032807Y0046474D02*
X0031953D01*
X0032972Y0046404D02*
X0031788D01*
X0033045Y0046333D02*
X0031715D01*
X0033090Y0046262D02*
X0031670D01*
X0033117Y0046191D02*
X0031643D01*
X0033129Y0046120D02*
X0031631D01*
X0033128Y0046050D02*
X0031632D01*
X0033114Y0045979D02*
X0031646D01*
X0033085Y0045908D02*
X0031675D01*
X0033037Y0045837D02*
X0031723D01*
X0032546Y0046480D02*
Y0045700D01*
X0032475Y0046480D02*
Y0045700D01*
X0032404Y0046480D02*
Y0045700D01*
X0032334Y0046480D02*
Y0045700D01*
X0032263Y0046480D02*
Y0045700D01*
X0032192Y0046480D02*
Y0045700D01*
X0032121Y0046480D02*
Y0045700D01*
X0032050Y0046480D02*
Y0045700D01*
X0031980Y0046478D02*
Y0045702D01*
X0031909Y0046464D02*
Y0045716D01*
X0031838Y0046435D02*
Y0045745D01*
X0031767Y0046387D02*
Y0045793D01*
X0032740Y0046480D02*
X0032020D01*
X0033112Y0046207D02*
Y0045974D01*
X0033042Y0046338D02*
Y0045843D01*
X0032971Y0046405D02*
Y0045776D01*
X0032900Y0046446D02*
Y0045734D01*
X0032829Y0046470D02*
Y0045710D01*
X0032758Y0046480D02*
Y0045701D01*
X0032688Y0046480D02*
Y0045700D01*
X0032617Y0046480D02*
Y0045700D01*
X0032958Y0045767D02*
X0031803D01*
X0032740Y0045700D02*
X0032020D01*
G01X0033130Y0046090D02*
G03X0032740Y0046480I0000390J0000000D01*
G01X0032020D02*
G03X0031630Y0046090I0000000J0000390D01*
G03X0032020Y0045700I0000390J0000000D01*
G01X0032740D02*
G03X0033130Y0046090I0000000J0000390D01*
G54D79*
G01X0040100Y0059400D02*
X0051400D01*
X0038100Y0061950D02*
X0051350D01*
X0050500Y0013150D02*
X0029800D01*
X0049550Y0064400D02*
X0051350D01*
X0044600Y0053900D02*
X0035350D01*
X0032250Y0057000D01*
Y0059600D01*
X0003300Y0003800D02*
Y0011200D01*
X0007250Y0064450D02*
Y-0000650D01*
X0046900Y0005400D02*
X0033300D01*
X0033150Y0002150D02*
X0047200D01*
X0052050Y-0000650D02*
X0003950D01*
X-0000200Y0003500D01*
Y0060500D01*
X0003700Y0064400D01*
X0049750D01*
Y0059600D01*
G54D10*
X-0003937Y0000000D03*
Y0030472D03*
Y0033504D03*
Y0061457D03*
X0059055Y0000000D03*
X0000000D03*
X0059055Y0064173D03*
X0000000D03*
G54D12*
X0033350Y0044250D03*
X0034650D03*
G54D13*
X0033780Y0047500D03*
X0033220D03*
X0034030Y0043000D03*
X0033470D03*
G54D14*
X0037000Y0043285D03*
Y0045214D03*
G54D15*
X0048000Y0045500D03*
Y0046500D03*
X0038500Y0064413D03*
Y0053587D03*
X0035500Y0019500D03*
X0040000Y0002087D03*
Y0012913D03*
G54D16*
X0050500Y0013120D03*
Y0004380D03*
X0029750Y0013120D03*
Y0004380D03*
G54D17*
X0037500Y0019500D03*
G54D18*
X0036000Y0040037D03*
Y0038463D03*
G54D19*
X0010500Y0010660D03*
Y0006340D03*
X0004000Y0014590D03*
Y0018910D03*
G54D20*
X0039000Y0045400D03*
Y0044600D03*
X0035750Y0042600D03*
Y0043400D03*
G54D21*
X0027250Y0054500D03*
X0018000Y0005750D03*
X0044750Y0054500D03*
G54D22*
X0032250Y0059620D03*
X0013000Y0000630D03*
X0049750Y0059620D03*
G54D23*
X0018750Y0008000D03*
Y0017000D03*
X0017250Y0008000D03*
Y0017000D03*
X0058750Y0046333D03*
G54D24*
Y0044167D03*
G54D25*
X0042000Y0046250D03*
X0041000D03*
X0038000D03*
X0037000D03*
X0036000D03*
X0057500Y0036750D03*
X0058500D03*
Y0035750D03*
X0057500D03*
X0056500D03*
G54D26*
X0043000Y0046250D03*
X0048000Y0044500D03*
X0056500Y0036750D03*
G54D27*
X0058378Y0041846D03*
Y0039153D03*
X0053878Y0041846D03*
Y0039153D03*
G54D28*
X0057508Y0040008D03*
Y0040992D03*
X0058492Y0040008D03*
X0053008D03*
Y0040992D03*
X0053992Y0040008D03*
G54D29*
X0058492Y0040992D03*
X0053992D03*
G54D30*
X0042000Y0029500D03*
X0040750Y0030250D03*
X0042000Y0031000D03*
X0040750Y0031750D03*
X0042000Y0032500D03*
X0047000Y0038000D03*
X0033500Y0037500D03*
X0060000Y0026000D03*
X0033500Y0035250D03*
X0054500Y0049000D03*
X0039000Y0048250D03*
X0053000Y0027500D03*
X0053250Y0022750D03*
X0029750Y0046000D03*
Y0044500D03*
X0021500Y0043750D03*
X0025500Y0021500D03*
X0052250Y0049000D03*
X0032250Y0048000D03*
X0010500Y0015000D03*
Y0017000D03*
Y0018098D03*
Y0019098D03*
X0004000Y0028500D03*
Y0026500D03*
Y0025401D03*
Y0024401D03*
X0010500Y0035500D03*
Y0037500D03*
Y0038598D03*
Y0039598D03*
Y0024500D03*
Y0026500D03*
Y0027598D03*
Y0028598D03*
X0004000Y0039500D03*
Y0037500D03*
Y0036401D03*
Y0035401D03*
Y0049500D03*
Y0047500D03*
Y0046401D03*
Y0045401D03*
X0010500Y0055500D03*
Y0057500D03*
Y0058598D03*
Y0059598D03*
Y0045500D03*
Y0047500D03*
Y0048598D03*
Y0049598D03*
X0004000Y0059500D03*
Y0057500D03*
Y0056401D03*
Y0055401D03*
G54D31*
X0039000Y0046220D03*
Y0046780D03*
X0035750Y0041780D03*
Y0041220D03*
G54D32*
X0027750Y0025750D03*
X0037750D03*
X0040000Y0025000D03*
Y0015000D03*
G54D33*
X0033430Y0045500D03*
Y0046680D03*
X0032249Y0046091D03*
G54D34*
X0033280Y0046090D03*
G54D35*
X0026750Y0052331D03*
X0024750D03*
G54D36*
X0024000Y0048669D03*
X0024500D03*
X0025000D03*
X0025500D03*
X0026000D03*
X0026500D03*
X0027000D03*
X0027500D03*
G54D38*
X-0001500Y-0001500D03*
X0060500Y0002000D03*
X0059250Y0061250D03*
M02*
