*
G04 Mass Parameters ***
*
G04 Image ***
*
%INE:\00.LAVORI IN CORSO\METALTRONICA\25-334-1 (PFC )\25-334-1.DRL*%
%ICAS*%
%MOIN*%
%IPPOS*%
%ASAXBY*%
G74*%FSLAN2X34Y34*%
*
G04 Aperture Definitions ***
*
%ADD10C,0.1378*%
%ADD11C,0.1968*%
%ADD12C,0.0800*%
%ADD13C,0.5118*%
%ADD14R,0.0800X0.0800*%
%ADD15R,0.1500X0.1500*%
%ADD16R,0.2756X0.2756*%
%ADD17C,0.2756*%
%ADD18C,0.1200*%
%ADD19R,0.1200X0.1200*%
%ADD20C,0.0787*%
%ADD21R,0.0787X0.0787*%
%ADD22O,0.1181X0.0787*%
%ADD23C,0.0669*%
%ADD24R,0.0669X0.0669*%
%ADD25C,0.0866*%
%ADD26C,0.1500*%
%ADD27R,0.1736X0.0787*%
%ADD28R,0.0236X0.0787*%
%ADD29C,0.0276*%
%ADD30C,0.0590*%
%ADD31C,0.0100*%
%ADD32C,0.0050*%
%ADD33C,0.0276*%
%ADD34C,0.0276*%
%ADD35C,0.0250*%
%ADD36C,0.0150*%
%ADD37C,0.0276*%
%ADD38C,0.0500*%
%ADD39C,0.0590*%
%ADD40C,0.0060*%
%ADD41R,0.1024X0.0510*%
%ADD42R,0.0380X0.0320*%
%ADD43R,0.0905X0.0886*%
%ADD44R,0.0886X0.0905*%
%ADD45R,0.0320X0.0380*%
%ADD46R,0.0404X0.0501*%
%ADD47R,0.0710X0.0400*%
%ADD48R,0.0400X0.0710*%
%ADD49R,0.0570X0.0590*%
%ADD50R,0.0590X0.0570*%
%ADD51R,0.0315X0.0197*%
%ADD52R,0.0500X0.0400*%
%ADD53R,0.0501X0.0404*%
%ADD54C,0.0187*%
%ADD55R,0.0413X0.0236*%
%ADD56R,0.0500X0.0270*%
%ADD57R,0.1000X0.0600*%
%ADD58R,0.2760X0.2760*%
%ADD59R,0.0400X0.0500*%
%ADD60R,0.1080X0.0850*%
%ADD61R,0.0320X0.0640*%
%ADD62R,0.0320X0.0940*%
%ADD63R,0.0680X0.1580*%
%ADD64R,0.0680X0.0550*%
%ADD65O,0.0650X0.0256*%
%ADD66O,0.0110X0.0700*%
%ADD67R,0.0110X0.0700*%
%ADD68O,0.0700X0.0110*%
%ADD69R,0.0700X0.0110*%
%ADD70O,0.0120X0.0600*%
%ADD71R,0.0120X0.0600*%
%ADD72R,0.0571X0.0256*%
%ADD73O,0.0590X0.0118*%
%ADD74C,0.0039*%
%ADD75C,0.0590*%
%ADD76C,0.1968*%
%ADD77C,0.0080*%
%ADD78C,0.0394*%
%ADD79C,0.0079*%
%ADD80C,0.0010*%
%ADD81C,0.0157*%
%ADD82C,0.1063*%
%ADD83C,0.0433*%
%ADD84C,0.2362*%
%ADD85C,0.1575*%
%ADD86C,0.0591*%
%ADD87C,0.0630*%
%ADD88C,0.0472*%
%ADD89C,0.0394*%
%ADD90C,0.0079*%
%ADD91C,0.0787*%
%ADD92C,0.0079*%
%ADD93C,0.0079*%
*
G04 Plot Data ***
*
G54D31*
G01X0011400Y-0004792D02*
Y-0004292D01*
X0011567D02*
X0011233D01*
X0010992D02*
Y-0004708D01*
X0010950Y-0004792D01*
X0010700D01*
X0010658Y-0004708D01*
Y-0004292D01*
X0010417Y-0004708D02*
X0010375Y-0004792D01*
X0010125D01*
X0010083Y-0004708D01*
Y-0004375D01*
X0010125Y-0004292D01*
X0010375D01*
X0010417Y-0004375D01*
X0009842Y-0004292D02*
Y-0004458D01*
X0009675Y-0004792D01*
X0009508Y-0004458D01*
Y-0004292D01*
X0008337Y-0004542D02*
X0008504D01*
Y-0004708D01*
X0008462Y-0004792D01*
X0008212D01*
X0008171Y-0004708D01*
Y-0004375D01*
X0008212Y-0004292D01*
X0008462D01*
X0008504Y-0004375D01*
X0007929Y-0004292D02*
Y-0004792D01*
X0007846Y-0004708D01*
X0007679Y-0004375D01*
X0007596Y-0004292D01*
Y-0004792D01*
X0007354D02*
X0007187D01*
X0007271D02*
Y-0004292D01*
X0007354D02*
X0007187D01*
X0006737Y-0004542D02*
X0006862Y-0004792D01*
X0006529Y-0004542D02*
X0006779D01*
X0006862Y-0004458D01*
Y-0004375D01*
X0006779Y-0004292D01*
X0006529D01*
Y-0004792D01*
X0005996D02*
X0005954Y-0004708D01*
Y-0004375D01*
X0005996Y-0004292D01*
X0006246D01*
X0006287Y-0004375D01*
Y-0004708D01*
X0006246Y-0004792D01*
X0005996D01*
X0005712Y-0004708D02*
X0005671Y-0004792D01*
X0005421D01*
X0005379Y-0004708D01*
Y-0004375D01*
X0005421Y-0004292D01*
X0005671D01*
X0005712Y-0004375D01*
X0005137D02*
X0005096Y-0004292D01*
X0004846D01*
X0004804Y-0004375D01*
Y-0004458D01*
X0004846Y-0004542D01*
X0005096D01*
X0005137Y-0004625D01*
Y-0004708D01*
X0005096Y-0004792D01*
X0004846D01*
X0004804Y-0004708D01*
X0003800Y-0004625D02*
X0003467D01*
X0003800Y-0004792D02*
Y-0004542D01*
X0003675Y-0004292D01*
X0003592D01*
X0003467Y-0004542D01*
Y-0004792D01*
X0003142Y-0004542D02*
X0002892D01*
X0003225Y-0004792D02*
X0002892D01*
Y-0004292D01*
X0003225D01*
X0002650D02*
Y-0004792D01*
X0002567Y-0004708D01*
X0002400Y-0004375D01*
X0002317Y-0004292D01*
Y-0004792D01*
X0002075D02*
X0001908D01*
X0001992D02*
Y-0004292D01*
X0002075D02*
X0001908D01*
X0001583Y-0004792D02*
X0001292D01*
Y-0004292D01*
X-0002000Y-0002250D02*
Y-0003000D01*
X-0000500Y-0004500D01*
X0001000D01*
X-0005905Y0066142D02*
Y-0001968D01*
X0061024D01*
Y0066142D01*
X-0005905D01*
X-0001968Y-0001968D02*
Y0066142D01*
G54D78*
G01X0056150Y0056250D02*
X0057900D01*
X0054700Y0055500D02*
X0052950D01*
X0056150Y0059500D02*
X0057900D01*
X0052950Y0058500D02*
X0054700D01*
X0054650Y0061250D02*
X0052900D01*
X0041400Y0019250D02*
X0043100D01*
X0045650Y0018250D02*
X0047400D01*
X0045650Y0016250D02*
X0047400D01*
X0041450D02*
X0043200D01*
G54D91*
G01X0027000Y0017250D02*
X0026400Y0016650D01*
X0020650D01*
X0020400Y0016900D01*
Y0019050D01*
X0019950Y0019500D01*
X0015750D01*
X0020300Y0052350D02*
X0022100Y0050550D01*
X0029200D01*
X0021000Y0003250D02*
X0010100D01*
X0008350Y0005000D01*
X0026750Y0008500D02*
X0054500D01*
X0041700Y0024400D02*
X0040900Y0023600D01*
X0039100D01*
X0038750Y0023950D01*
X0037300D01*
X0036200Y0025050D01*
Y0026550D01*
X0036950Y0027300D01*
G54D10*
X-0003937Y0000000D03*
Y0030472D03*
Y0033504D03*
Y0061457D03*
X0059055Y0000000D03*
X0000000D03*
X0059055Y0064173D03*
X0000000D03*
G54D23*
X0010500Y0010660D03*
Y0006340D03*
X0004000Y0014590D03*
Y0018910D03*
G54D29*
X0008500Y0013500D03*
Y0014500D03*
Y0015500D03*
Y0016500D03*
Y0017500D03*
Y0018500D03*
Y0019500D03*
X-0001000Y0006000D03*
X0000000D03*
Y0005000D03*
X-0001000D03*
Y0004000D03*
X0000000D03*
Y0003000D03*
X-0001000D03*
Y0002000D03*
X0000000D03*
X0001000D03*
Y0003000D03*
Y0004000D03*
Y0005000D03*
Y0006000D03*
X0002000D03*
Y0005000D03*
Y0004000D03*
Y0003000D03*
X0003000D03*
Y0004000D03*
Y0005000D03*
Y0006000D03*
X0004000Y0003000D03*
Y0004000D03*
Y0005000D03*
Y0006000D03*
X0005000D03*
Y0005000D03*
Y0004000D03*
Y0003000D03*
X0002000Y0002000D03*
X0003000D03*
X0004000D03*
X0005000D03*
X0009000D03*
X0002000Y-0001000D03*
Y0000000D03*
Y0001000D03*
X0003000Y-0001000D03*
Y0000000D03*
Y0001000D03*
X0004000Y-0001000D03*
Y0000000D03*
Y0001000D03*
X0005000Y-0001000D03*
Y0000000D03*
Y0001000D03*
X0006000Y-0001000D03*
Y0000000D03*
Y0001000D03*
X0007000Y-0001000D03*
Y0000000D03*
Y0001000D03*
X0008000Y-0001000D03*
Y0000000D03*
Y0001000D03*
X0009000Y-0001000D03*
Y0000000D03*
Y0001000D03*
X0010000Y-0001000D03*
Y0000000D03*
Y0001000D03*
X0011000D03*
Y0000000D03*
Y-0001000D03*
X0012250D03*
X0014000D03*
X0015000D03*
Y0000000D03*
Y0001000D03*
X0016000Y-0001000D03*
Y0000000D03*
Y0001000D03*
X0017000Y-0001000D03*
Y0000000D03*
Y0001000D03*
X0018000Y-0001000D03*
Y0000000D03*
Y0001000D03*
X0019000Y-0001000D03*
Y0000000D03*
Y0001000D03*
X0020000Y-0001000D03*
Y0000000D03*
Y0001000D03*
X0021000Y-0001000D03*
Y0000000D03*
Y0001000D03*
X0022000Y-0001000D03*
Y0000000D03*
Y0001000D03*
X0023000Y-0001000D03*
Y0000000D03*
Y0001000D03*
X0024000Y-0001000D03*
Y0000000D03*
Y0001000D03*
X0025000Y-0001000D03*
Y0000000D03*
Y0001000D03*
X0026000Y-0001000D03*
Y0000000D03*
X0027000Y-0001000D03*
Y0000000D03*
X0026000Y0001000D03*
X0027000D03*
X0028000Y0002000D03*
Y-0001000D03*
Y0000000D03*
Y0001000D03*
X0029000Y-0001000D03*
Y0000000D03*
Y0001000D03*
X0030000Y-0001000D03*
Y0000000D03*
Y0001000D03*
X0031000Y-0001000D03*
Y0000000D03*
Y0001000D03*
X0032000Y0002000D03*
Y0001000D03*
Y0000000D03*
Y-0001000D03*
X0033000Y0004000D03*
Y0003000D03*
Y0002000D03*
Y0001000D03*
Y0000000D03*
Y-0001000D03*
X0034000D03*
Y0000000D03*
Y0001000D03*
Y0002000D03*
Y0003000D03*
Y0004000D03*
X0035000Y-0001000D03*
Y0000000D03*
Y0001000D03*
Y0002000D03*
Y0003000D03*
Y0004000D03*
Y0005000D03*
X0034000D03*
X0033000D03*
Y0006000D03*
X0034000D03*
X0035000D03*
X0036000Y-0001000D03*
Y0000000D03*
Y0001000D03*
Y0002000D03*
Y0003000D03*
Y0004000D03*
Y0005000D03*
Y0006000D03*
X0037000D03*
Y0005000D03*
Y0004000D03*
Y0003000D03*
Y0002000D03*
Y0001000D03*
Y0000000D03*
Y-0001000D03*
X0038000D03*
Y0000000D03*
Y0001000D03*
Y0002000D03*
Y0003000D03*
Y0004000D03*
Y0005000D03*
Y0006000D03*
X0039000D03*
Y0005000D03*
Y0004000D03*
Y0003000D03*
Y0002000D03*
Y0001000D03*
Y0000000D03*
Y-0001000D03*
X0040000D03*
Y0000000D03*
Y0001000D03*
Y0003000D03*
Y0004000D03*
Y0005000D03*
Y0006000D03*
X0041000D03*
Y0005000D03*
Y0004000D03*
Y0003000D03*
Y0002000D03*
Y0001000D03*
Y0000000D03*
Y-0001000D03*
X0042000D03*
Y0000000D03*
Y0001000D03*
Y0002000D03*
Y0003000D03*
Y0004000D03*
Y0005000D03*
Y0006000D03*
X0043000D03*
Y0005000D03*
Y0004000D03*
Y0003000D03*
Y0002000D03*
Y0001000D03*
Y0000000D03*
Y-0001000D03*
X0044000D03*
Y0000000D03*
Y0001000D03*
Y0002000D03*
Y0003000D03*
Y0004000D03*
Y0005000D03*
Y0006000D03*
X0045000D03*
Y0005000D03*
Y0004000D03*
Y0003000D03*
Y0002000D03*
Y0001000D03*
Y0000000D03*
Y-0001000D03*
X0046000D03*
Y0000000D03*
Y0001000D03*
Y0002000D03*
Y0003000D03*
Y0004000D03*
Y0005000D03*
Y0006000D03*
X0048000D03*
X0047000D03*
Y0005000D03*
Y0004000D03*
Y0003000D03*
Y-0001000D03*
Y0000000D03*
Y0001000D03*
Y0002000D03*
X0048000D03*
Y-0001000D03*
Y0000000D03*
Y0001000D03*
X0049000Y-0001000D03*
Y0000000D03*
Y0001000D03*
X0050000D03*
Y0000000D03*
Y-0001000D03*
X0051000D03*
Y0000000D03*
Y0001000D03*
X0052000D03*
Y0000000D03*
Y-0001000D03*
X0053000D03*
Y0000000D03*
Y0001000D03*
Y0002000D03*
X0012000Y0013000D03*
Y0012000D03*
Y0011000D03*
Y0010000D03*
Y0009000D03*
X0023000Y0013000D03*
X0022000D03*
X0021000D03*
X0020000D03*
X0019000D03*
X0018000D03*
X0017000D03*
X0016000D03*
X0015000D03*
X0014000D03*
X0013000D03*
X0010000Y0008000D03*
X0011000D03*
X0012000D03*
Y0007000D03*
Y0006000D03*
X0013000D03*
Y0007000D03*
Y0008000D03*
Y0009000D03*
Y0010000D03*
Y0011000D03*
Y0012000D03*
X0014000Y0011000D03*
Y0012000D03*
X0015000Y0011000D03*
Y0012000D03*
X0016000Y0011000D03*
Y0012000D03*
X0017000Y0011000D03*
Y0012000D03*
X0018000Y0011000D03*
Y0012000D03*
X0019000Y0011000D03*
X0020000D03*
X0021000D03*
X0022000D03*
X0019000Y0012000D03*
X0020000D03*
X0021000D03*
X0022000D03*
X0023000Y0011000D03*
Y0012000D03*
X0025000Y0011000D03*
X0024000D03*
Y0012000D03*
X0030500Y0063000D03*
Y0064000D03*
X0029500Y0063000D03*
Y0064000D03*
X0028500Y0063000D03*
Y0064000D03*
Y0065000D03*
X0029500D03*
X0030500D03*
X0031500Y0063000D03*
X0032500D03*
X0033500D03*
X0034500D03*
X0035500D03*
Y0064000D03*
X0034500D03*
X0033500D03*
X0032500D03*
X0031500D03*
Y0065000D03*
X0032500D03*
X0033500D03*
X0034500D03*
X0035500D03*
X0036500Y0062000D03*
Y0063000D03*
Y0064000D03*
Y0065000D03*
X0037500Y0061000D03*
X0038500Y0060000D03*
Y0061000D03*
Y0062000D03*
Y0063000D03*
X0037500Y0062000D03*
Y0063000D03*
Y0064000D03*
Y0065000D03*
X0039500Y0059000D03*
Y0060000D03*
Y0061000D03*
Y0062000D03*
Y0063000D03*
Y0064000D03*
X0040500D03*
Y0063000D03*
Y0062000D03*
Y0061000D03*
Y0060000D03*
Y0059000D03*
X0041500D03*
Y0060000D03*
Y0061000D03*
Y0062000D03*
Y0063000D03*
Y0064000D03*
X0042500D03*
Y0063000D03*
Y0062000D03*
Y0061000D03*
Y0060000D03*
Y0059000D03*
X0043500D03*
Y0060000D03*
Y0061000D03*
Y0062000D03*
Y0063000D03*
Y0064000D03*
X0039500Y0065000D03*
X0040500D03*
X0041500D03*
X0042500D03*
X0043500D03*
X0044500Y0059000D03*
Y0060000D03*
Y0061000D03*
Y0062000D03*
Y0063000D03*
Y0064000D03*
Y0065000D03*
X0045500Y0059000D03*
Y0060000D03*
Y0061000D03*
Y0062000D03*
Y0063000D03*
Y0064000D03*
Y0065000D03*
X0046500D03*
Y0064000D03*
Y0063000D03*
Y0062000D03*
Y0061000D03*
Y0060000D03*
Y0059000D03*
X0049500Y0062000D03*
Y0063000D03*
X0048500Y0062000D03*
Y0063000D03*
Y0064000D03*
X0049500D03*
X0050500Y0062000D03*
Y0063000D03*
Y0064000D03*
Y0065000D03*
X0049500D03*
X0048500D03*
X0047500D03*
Y0064000D03*
Y0063000D03*
Y0062000D03*
Y0061000D03*
Y0060000D03*
Y0059000D03*
X0032500Y0057500D03*
X0031500D03*
X0032500Y0056500D03*
X0031500D03*
X0033500Y0052750D03*
X0032500Y0053500D03*
X0037500Y0056500D03*
X0036500Y0057500D03*
X0033500D03*
Y0056500D03*
Y0053500D03*
Y0054500D03*
X0032500D03*
X0031500Y0055500D03*
X0032500D03*
X0033500D03*
X0036500Y0052750D03*
X0035500D03*
X0034500D03*
Y0053500D03*
X0035500D03*
X0036500D03*
X0037500Y0052750D03*
Y0053500D03*
X0039500Y0052750D03*
Y0053500D03*
X0040500Y0052750D03*
Y0053500D03*
X0034500Y0054500D03*
X0035500D03*
X0036500D03*
X0037500D03*
X0038500D03*
X0039500D03*
X0040500D03*
X0042500Y0052750D03*
Y0053500D03*
X0041500Y0052750D03*
Y0053500D03*
Y0054500D03*
X0042500D03*
Y0055500D03*
X0041500D03*
X0040500D03*
X0039500D03*
X0038500D03*
X0037500D03*
X0036500Y0056500D03*
Y0055500D03*
X0035500D03*
Y0056500D03*
Y0057500D03*
Y0058500D03*
X0034500Y0055500D03*
Y0056500D03*
Y0057500D03*
Y0058500D03*
Y0059500D03*
X0044500Y0011000D03*
X0043500D03*
X0042500D03*
X0041500D03*
X0040500D03*
X0039500D03*
X0032500Y0012000D03*
Y0011000D03*
X0038500D03*
X0037500D03*
X0038500Y0012000D03*
X0037500D03*
X0036500Y0011000D03*
Y0012000D03*
X0035500Y0011000D03*
Y0012000D03*
X0034500Y0011000D03*
Y0012000D03*
X0038500Y0013000D03*
X0037500D03*
X0036500D03*
X0035500D03*
X0034500D03*
X0038500Y0014000D03*
X0037500D03*
X0036500D03*
X0035500D03*
X0034500D03*
X0033500Y0011000D03*
Y0012000D03*
Y0013000D03*
Y0014000D03*
X0038500Y0015000D03*
X0037500D03*
X0036500D03*
X0035500D03*
X0034500D03*
X0033500D03*
X0032500D03*
X0026000Y0011000D03*
X0027000D03*
Y0012000D03*
X0025000D03*
X0026000D03*
X0025000Y0013000D03*
X0024000D03*
X0026000D03*
Y0014000D03*
X0027000D03*
Y0015000D03*
X0026000D03*
X0025000D03*
X0024000D03*
X0026500Y0051500D03*
X0027500D03*
X0028500D03*
Y0052500D03*
Y0057250D03*
X0027500D03*
X0026500D03*
X0028500Y0056500D03*
X0027500D03*
X0026500D03*
X0020000Y0005000D03*
Y0006000D03*
Y0007000D03*
Y0008000D03*
X0016000Y0005000D03*
Y0006000D03*
Y0007000D03*
Y0008000D03*
X0010500Y0014000D03*
X0011500D03*
X0012500D03*
X0013500D03*
X0014500D03*
X0015500D03*
X0016500D03*
X0017500D03*
X0018500D03*
X0019500D03*
X0020500D03*
X0022250Y0015000D03*
X0021500D03*
X0020500D03*
X0019500D03*
X0018500D03*
X0017500D03*
X0016500D03*
X0015500D03*
X0014500D03*
X0013500D03*
X0012500D03*
X0011500D03*
X0019000Y0018000D03*
X0018000D03*
X0017000D03*
X0016000Y0017000D03*
X0015000D03*
X0014000D03*
X0013000D03*
X0012000D03*
X0022250Y0054750D03*
X0023250D03*
X0024250Y0053250D03*
Y0054750D03*
X0025250Y0053250D03*
Y0054000D03*
Y0054750D03*
Y0055500D03*
X0023250Y0052000D03*
Y0053000D03*
Y0054000D03*
X0024250D03*
Y0055500D03*
X0023250D03*
X0022250D03*
Y0054000D03*
Y0053000D03*
Y0052000D03*
G54D30*
X0018750Y0008000D03*
Y0017000D03*
X0017250Y0008000D03*
Y0017000D03*
G54D37*
X0055700Y0065350D03*
G54D82*
X0007250Y0002524D03*
Y0030476D03*
Y0033524D03*
Y0061476D03*
G54D83*
X0048000Y0044500D03*
Y0045500D03*
Y0046500D03*
X0027750Y0025750D03*
X0037750D03*
X0040000Y0025000D03*
Y0015000D03*
X0056500Y0036750D03*
X0057500D03*
X0058500D03*
Y0035750D03*
X0057500D03*
X0056500D03*
X0038500Y0064413D03*
Y0053587D03*
X0036750Y0020250D03*
Y0018250D03*
X0040000Y0002087D03*
Y0012913D03*
G54D84*
X0050500Y0013120D03*
Y0004380D03*
X0029750Y0013120D03*
Y0004380D03*
G54D85*
X0032250Y0059620D03*
X0027250Y0054500D03*
X0013000Y0000630D03*
X0018000Y0005750D03*
X0049750Y0059620D03*
X0044750Y0054500D03*
G54D86*
X0010500Y0015000D03*
Y0017000D03*
Y0018098D03*
Y0019098D03*
X0004000Y0028500D03*
Y0026500D03*
Y0025401D03*
Y0024401D03*
X0010500Y0035500D03*
Y0037500D03*
Y0038598D03*
Y0039598D03*
Y0024500D03*
Y0026500D03*
Y0027598D03*
Y0028598D03*
X0004000Y0039500D03*
Y0037500D03*
Y0036401D03*
Y0035401D03*
Y0049500D03*
Y0047500D03*
Y0046401D03*
Y0045401D03*
X0010500Y0055500D03*
Y0057500D03*
Y0058598D03*
Y0059598D03*
Y0045500D03*
Y0047500D03*
Y0048598D03*
Y0049598D03*
X0004000Y0059500D03*
Y0057500D03*
Y0056401D03*
Y0055401D03*
X0058750Y0044167D03*
Y0046333D03*
G54D87*
X0058378Y0041846D03*
Y0039153D03*
X0053878Y0041846D03*
Y0039153D03*
G54D88*
X0057508Y0040008D03*
Y0040992D03*
X0058492D03*
Y0040008D03*
X0053008D03*
Y0040992D03*
X0053992D03*
Y0040008D03*
G54D89*
X0043000Y0046250D03*
X0042000D03*
X0041000D03*
X0038000D03*
X0037000D03*
X0036000D03*
X0042000Y0029500D03*
X0040750Y0030250D03*
X0042000Y0031000D03*
X0040750Y0031750D03*
X0042000Y0032500D03*
X0047000Y0038000D03*
X0033500Y0037500D03*
X0060000Y0026000D03*
X0033500Y0035250D03*
X0054500Y0049000D03*
X0033750Y0040000D03*
X0053000Y0027500D03*
X0053250Y0022750D03*
X0030500Y0046000D03*
Y0044500D03*
X0021500Y0043750D03*
X0025500Y0021500D03*
X0043250Y0042000D03*
X0033500Y0048000D03*
G54D90*
X0050235Y0028585D03*
X0020600Y0036000D03*
G54D92*
X0013000Y0024500D03*
X0027550Y0033300D03*
X0047550Y0034300D03*
X0013000Y0052750D03*
X0025250Y0047700D03*
X0053000Y0035300D03*
Y0034000D03*
X0013000Y0043750D03*
X0040950Y0029250D03*
X0017500Y0025000D03*
X0018500Y0038300D03*
X0021800Y0037900D03*
X0050826Y0030176D03*
X0026750Y0031500D03*
X0051650Y0034450D03*
X0032550Y0033350D03*
X0024000Y0047850D03*
X0021850Y0038550D03*
X0023400D03*
Y0032250D03*
X0021750D03*
X0050629Y0028900D03*
X0047241D03*
X0019550Y0033750D03*
X0018400D03*
X0047150Y0034750D03*
X0027850Y0033550D03*
X0043800Y0039750D03*
X0045850D03*
X0058950Y0050750D03*
X0052500Y0040500D03*
X0017000Y0050000D03*
X0018000D03*
Y0047500D03*
X0019800D03*
X0016100Y0057250D03*
X0017900D03*
X0016200Y0029750D03*
X0019500Y0029000D03*
X0019900Y0032300D03*
X0020500D03*
X0018000Y0034750D03*
X0016200D03*
X0020500Y0049500D03*
X0016000Y0050000D03*
X0018500Y0025500D03*
X0017500D03*
X0026010Y0048050D03*
X0052744Y0032856D03*
X0032900Y0033150D03*
X0016200Y0039250D03*
X0018000D03*
X0028500Y0039150D03*
X0031000D03*
X0019450Y0043500D03*
X0016150D03*
X0025500Y0048050D03*
X0052230Y0023280D03*
G54D93*
X0055050Y0032600D03*
X0055100Y0034650D03*
X0051500Y0036800D03*
X0052250D03*
X0049644Y0033406D03*
X0049500Y0028550D03*
X0050432Y0030482D03*
X0048192Y0030492D03*
X0047450Y0036400D03*
X0047250Y0033700D03*
X0046950Y0033450D03*
X0020450Y0030250D03*
X0018000D03*
X0023450Y0042500D03*
X0020500D03*
Y0038000D03*
X0041800Y0037800D03*
X0036914Y0037214D03*
X0016200Y0043000D03*
X0045400Y0034000D03*
X0047000Y0029800D03*
X0054100Y0031800D03*
X0054900Y0028150D03*
X0054100Y0030200D03*
X0045500Y0033400D03*
X0016050Y0020750D03*
X0024900Y0018500D03*
X0025480Y0018970D03*
X0022600Y0020000D03*
X0022900Y0020900D03*
X0056250Y0049750D03*
X0018540Y0020840D03*
X0022000Y0020000D03*
X0056100Y0030050D03*
X0043500Y0038050D03*
X0044500Y0043500D03*
X0043800Y0040450D03*
X0045550Y0029500D03*
X0047000Y0029350D03*
X0049640Y0035400D03*
X0042800Y0032900D03*
X0042750Y0036550D03*
X0046450Y0026800D03*
X0057750Y0048150D03*
X0056000Y0047150D03*
X0049985Y0025615D03*
X0049550Y0025600D03*
X0049030Y0027470D03*
X0051500Y0047160D03*
X0022150Y0044350D03*
X0021500Y0044700D03*
X0022750Y0046300D03*
X0023950Y0046150D03*
X0026350Y0044400D03*
X0035214Y0037214D03*
X0035250Y0038900D03*
X0034750Y0036350D03*
X0023300Y0029750D03*
X0028500Y0042950D03*
X0024750Y0040300D03*
X0024200Y0041500D03*
X0024150Y0039350D03*
X0024350Y0036000D03*
X0031530Y0036620D03*
X0029600Y0034700D03*
X0031750Y0035950D03*
X0029000Y0036000D03*
X0028500Y0038350D03*
X0027530Y0041970D03*
X0028500Y0040350D03*
X0025180Y0043470D03*
X0050750Y0036750D03*
X0050000Y0036700D03*
X0026500Y0044950D03*
X0048450Y0037050D03*
X0028080Y0047280D03*
X0027000Y0047900D03*
X0049000Y0037150D03*
X0048480Y0038970D03*
X0056150Y0031900D03*
X0053550Y0033950D03*
X0016200Y0034250D03*
Y0038750D03*
X0016220Y0040270D03*
X0016200Y0042500D03*
X0016220Y0044520D03*
X0014526Y0046376D03*
X0016220Y0058220D03*
X0016150Y0056800D03*
X0021750Y0031750D03*
X0019300D03*
X0035550Y0034140D03*
X0035500Y0028500D03*
X0048250Y0027950D03*
X0018000Y0045000D03*
X0023000Y0022000D03*
X0018600Y0022200D03*
X0022200Y0034150D03*
X0050250Y0024600D03*
X0051450D03*
X0035750Y0040350D03*
X0013220Y0027570D03*
X0012850Y0027000D03*
X0014526Y0023926D03*
X0012970Y0059320D03*
X0031000Y0034140D03*
X0041800Y0034700D03*
X0016220Y0053480D03*
X0016150Y0056250D03*
X0016200Y0052000D03*
X0013220Y0054570D03*
X0012850Y0049500D03*
X0013220Y0050070D03*
X0014526Y0051024D03*
X0013000Y0054000D03*
X0014526Y0055776D03*
X0012950Y0058750D03*
X0056000Y0051400D03*
X0058000Y0051950D03*
X0056750D03*
X0050250Y0022250D03*
X0042990Y0022160D03*
X0046500Y0021950D03*
X0049000Y0022200D03*
X0048000Y0022050D03*
X0059000Y0048000D03*
X0024750Y0047800D03*
Y0045780D03*
X0022200Y0045800D03*
X0045250Y0035350D03*
X0044000D03*
X0020450Y0029750D03*
X0017500D03*
X0048250Y0026530D03*
X0013220Y0032020D03*
X0027970Y0044030D03*
X0025170D03*
X0013220Y0041070D03*
X0012900Y0040500D03*
X0012970Y0036570D03*
X0014526Y0037574D03*
X0012898Y0038598D03*
X0025500Y0019500D03*
X0023100Y0020000D03*
X0022000Y0047000D03*
X0019700D03*
X0014526Y0033124D03*
X0012850Y0036000D03*
X0016200Y0051500D03*
Y0047250D03*
Y0046750D03*
X0016220Y0035820D03*
X0016200Y0038250D03*
X0018750Y0033200D03*
X0014526Y0042076D03*
X0045450Y0028800D03*
X0039200Y0028700D03*
X0028520Y0037030D03*
X0027230D03*
X0022000Y0048500D03*
X0019550D03*
X0036900Y0034700D03*
X0037600Y0041750D03*
X0059000Y0054850D03*
X0058120Y0057120D03*
X0060000Y0053700D03*
X0040750Y0042050D03*
X0055250Y0051450D03*
X0038750Y0041000D03*
X0034650D03*
X0034200Y0020400D03*
X0013220Y0045580D03*
X0012850Y0045000D03*
X0036500Y0038000D03*
X0038200Y0022350D03*
X0026750Y0032100D03*
X0048226Y0031674D03*
X0016220Y0030780D03*
X0016200Y0033750D03*
X0036800Y0043000D03*
X0016200Y0029250D03*
X0016220Y0048830D03*
X0019000Y0050050D03*
X0012800Y0031500D03*
X0014526Y0028224D03*
X0052000Y0040500D03*
X0053000Y0036750D03*
X0055550Y0033950D03*
X0016200Y0028750D03*
X0022750Y0044900D03*
X0025600Y0044400D03*
X0016220Y0026470D03*
X0016200Y0025000D03*
X0016220Y0023730D03*
X0016200Y0024500D03*
X0047485Y0029865D03*
X0026000Y0046000D03*
X0060550Y0030900D03*
X0051350D03*
X0056000Y0038000D03*
X0024350Y0046150D03*
X0025250Y0046100D03*
X0023500Y0047900D03*
X0028500Y0035250D03*
X0022600Y0030750D03*
X0020450D03*
X0032000Y0028750D03*
X0051000Y0028550D03*
X0039200Y0034700D03*
X0024750Y0043000D03*
X0026850Y0044750D03*
X0019300Y0037350D03*
X0022780Y0034820D03*
X0013050Y0033500D03*
M02*
