%
T1C0.0079F200S100
X012800Y031500
X012850Y027000
X012850Y036000
X012850Y045000
X012850Y049500
X012898Y038598
X012900Y040500
X012950Y058750
X012970Y036570
X012970Y059320
X013000Y024500
X013050Y033500
X013000Y043750
X013000Y052750
X013000Y054000
X013220Y027570
X014526Y023926
X014526Y028224
X013220Y032020
X014526Y033124
X014526Y037574
X013220Y041070
X014526Y042076
X013220Y045580
X014526Y046376
X013220Y050070
X014526Y051024
X013220Y054570
X014526Y055776
X016000Y050000
X016050Y020750
X016100Y057250
X016150Y043500
X016150Y056250
X016150Y056800
X016200Y024500
X016200Y025000
X016220Y023730
X016220Y026470
X016200Y028750
X016200Y029250
X016200Y029750
X016220Y030780
X016200Y033750
X016200Y034250
X016200Y034750
X016220Y035820
X016200Y038250
X016200Y038750
X016200Y039250
X016220Y040270
X016200Y042500
X016200Y043000
X016220Y044520
X016200Y046750
X016200Y047250
X016220Y048830
X016200Y051500
X016200Y052000
X016220Y053480
X016220Y058220
X017000Y050000
X017500Y025000
X017500Y025500
X017500Y029750
X017900Y057250
X018000Y030250
X018000Y034750
X018000Y039250
X018000Y045000
X018000Y047500
X018000Y050000
X018400Y033750
X018500Y025500
X018500Y038300
X018540Y020840
X018600Y022200
X018750Y033200
X019000Y050050
X019300Y031750
X019300Y037350
X019450Y043500
X019500Y029000
X019550Y033750
X019550Y048500
X019700Y047000
X019800Y047500
X019900Y032300
X020450Y029750
X020450Y030250
X020450Y030750
X020500Y032300
X020600Y036000
X020500Y038000
X020500Y042500
X020500Y049500
X021500Y044700
X021750Y031750
X021750Y032250
X021800Y037900
X021850Y038550
X022000Y020000
X022150Y044350
X022000Y047000
X022000Y048500
X022200Y034150
X022200Y045800
X022600Y020000
X022600Y030750
X022750Y044900
X022750Y046300
X022780Y034820
X022900Y020900
X023000Y022000
X023100Y020000
X023300Y029750
X023400Y032250
X023400Y038550
X023450Y042500
X023500Y047900
X023950Y046150
X024000Y047850
X024150Y039350
X024200Y041500
X024350Y036000
X024350Y046150
X024750Y040300
X024750Y043000
X024750Y045780
X024750Y047800
X024900Y018500
X025170Y044030
X025180Y043470
X025250Y046100
X025250Y047700
X025480Y018970
X025500Y048050
X025500Y019500
X025600Y044400
X026000Y046000
X026010Y048050
X026350Y044400
X026500Y044950
X026750Y031500
X026750Y032100
X026850Y044750
X027000Y047900
X027230Y037030
X027530Y041970
X027550Y033300
X027850Y033550
X027970Y044030
X028080Y047280
X028500Y035250
X028520Y037030
X028500Y038350
X028500Y039150
X028500Y040350
X028500Y042950
X029000Y036000
X029600Y034700
X031000Y034140
X031530Y036620
X031000Y039150
X031750Y035950
X032000Y028750
X032550Y033350
X032900Y033150
X034200Y020400
X034650Y041000
X034750Y036350
X035214Y037214
X035250Y038900
X035500Y028500
X035550Y034140
X035750Y040350
X036500Y038000
X036800Y043000
X036900Y034700
X036914Y037214
X037600Y041750
X038200Y022350
X038750Y041000
X039200Y028700
X039200Y034700
X040750Y042050
X040950Y029250
X041800Y034700
X042750Y036550
X041800Y037800
X042800Y032900
X042990Y022160
X043500Y038050
X043800Y039750
X043800Y040450
X044000Y035350
X044500Y043500
X045250Y035350
X045400Y034000
X045450Y028800
X045500Y033400
X045550Y029500
X045850Y039750
X046450Y026800
X046500Y021950
X046950Y033450
X047000Y029350
X047000Y029800
X047150Y034750
X047241Y028900
X047250Y033700
X047450Y036400
X047485Y029865
X047550Y034300
X048000Y022050
X048192Y030492
X048226Y031674
X048250Y026530
X048250Y027950
X048450Y037050
X048480Y038970
X049000Y022200
X049030Y027470
X049000Y037150
X049500Y028550
X049550Y025600
X049640Y035400
X049644Y033406
X049985Y025615
X050000Y036700
X050235Y028585
X050250Y022250
X050250Y024600
X050432Y030482
X050629Y028900
X050750Y036750
X050826Y030176
X051000Y028550
X051350Y030900
X051450Y024600
X051500Y036800
X051500Y047160
X051650Y034450
X052000Y040500
X052230Y023280
X052250Y036800
X052500Y040500
X052744Y032856
X053000Y034000
X053550Y033950
X053000Y035300
X053000Y036750
X054100Y030200
X054100Y031800
X054900Y028150
X055050Y032600
X055100Y034650
X055250Y051450
X055550Y033950
X056000Y038000
X056100Y030050
X056000Y047150
X056000Y051400
X056150Y031900
X056250Y049750
X056750Y051950
X057750Y048150
X058000Y051950
X058120Y057120
X058950Y050750
X059000Y048000
X059000Y054850
X060000Y053700
X060550Y030900
T2C0.0276F200S100
X-001000Y002000
X-001000Y003000
X-001000Y004000
X-001000Y005000
X-001000Y006000
X000000Y002000
X000000Y003000
X000000Y004000
X000000Y005000
X000000Y006000
X001000Y002000
X001000Y003000
X001000Y004000
X001000Y005000
X001000Y006000
X002000Y-001000
X002000Y000000
X002000Y001000
X002000Y002000
X002000Y003000
X002000Y004000
X002000Y005000
X002000Y006000
X003000Y-001000
X003000Y000000
X003000Y001000
X003000Y002000
X003000Y003000
X003000Y004000
X003000Y005000
X003000Y006000
X004000Y-001000
X004000Y000000
X004000Y001000
X004000Y002000
X004000Y003000
X004000Y004000
X004000Y005000
X004000Y006000
X005000Y-001000
X005000Y000000
X005000Y001000
X005000Y002000
X005000Y003000
X005000Y004000
X005000Y005000
X005000Y006000
X006000Y-001000
X006000Y000000
X006000Y001000
X007000Y-001000
X007000Y000000
X007000Y001000
X008000Y-001000
X008000Y000000
X008000Y001000
X008500Y013500
X008500Y014500
X008500Y015500
X008500Y016500
X008500Y017500
X008500Y018500
X008500Y019500
X009000Y-001000
X009000Y000000
X009000Y001000
X009000Y002000
X010000Y-001000
X010000Y000000
X010000Y001000
X010000Y008000
X010500Y014000
X011000Y-001000
X011000Y000000
X011000Y001000
X011000Y008000
X011500Y014000
X011500Y015000
X012000Y006000
X012000Y007000
X012000Y008000
X012000Y009000
X012000Y010000
X012000Y011000
X012000Y012000
X012000Y013000
X012000Y017000
X012250Y-001000
X012500Y014000
X012500Y015000
X013000Y006000
X013000Y007000
X013000Y008000
X013000Y009000
X013000Y010000
X013000Y011000
X013000Y012000
X013000Y013000
X013000Y017000
X013500Y014000
X013500Y015000
X014000Y-001000
X014000Y011000
X014000Y012000
X014000Y013000
X014000Y017000
X014500Y014000
X014500Y015000
X015000Y-001000
X015000Y000000
X015000Y001000
X015000Y011000
X015000Y012000
X015000Y013000
X015000Y017000
X015500Y014000
X015500Y015000
X016000Y-001000
X016000Y000000
X016000Y001000
X016000Y005000
X016000Y006000
X016000Y007000
X016000Y008000
X016000Y011000
X016000Y012000
X016000Y013000
X016000Y017000
X016500Y014000
X016500Y015000
X017000Y-001000
X017000Y000000
X017000Y001000
X017000Y011000
X017000Y012000
X017000Y013000
X017000Y018000
X017500Y014000
X017500Y015000
X018000Y-001000
X018000Y000000
X018000Y001000
X018000Y011000
X018000Y012000
X018000Y013000
X018000Y018000
X018500Y014000
X018500Y015000
X019000Y-001000
X019000Y000000
X019000Y001000
X019000Y011000
X019000Y012000
X019000Y013000
X019000Y018000
X019500Y014000
X019500Y015000
X020000Y-001000
X020000Y000000
X020000Y001000
X020000Y005000
X020000Y006000
X020000Y007000
X020000Y008000
X020000Y011000
X020000Y012000
X020000Y013000
X020500Y014000
X020500Y015000
X021000Y-001000
X021000Y000000
X021000Y001000
X021000Y011000
X021000Y012000
X021000Y013000
X021500Y015000
X022000Y-001000
X022000Y000000
X022000Y001000
X022000Y011000
X022000Y012000
X022000Y013000
X022250Y015000
X023000Y-001000
X023000Y000000
X023000Y001000
X023000Y011000
X023000Y012000
X023000Y013000
X022250Y052000
X022250Y053000
X022250Y054000
X022250Y054750
X022250Y055500
X023250Y052000
X023250Y053000
X023250Y054000
X023250Y054750
X023250Y055500
X024000Y-001000
X024000Y000000
X024000Y001000
X024000Y011000
X024000Y012000
X024000Y013000
X024000Y015000
X024250Y053250
X024250Y054000
X024250Y054750
X024250Y055500
X025000Y-001000
X025000Y000000
X025000Y001000
X025000Y011000
X025000Y012000
X025000Y013000
X025000Y015000
X025250Y053250
X025250Y054000
X025250Y054750
X025250Y055500
X026000Y-001000
X026000Y000000
X026000Y001000
X026000Y011000
X026000Y012000
X026000Y013000
X026000Y014000
X026000Y015000
X026500Y051500
X026500Y056500
X026500Y057250
X027000Y-001000
X027000Y000000
X027000Y001000
X027000Y011000
X027000Y012000
X027000Y014000
X027000Y015000
X027500Y051500
X027500Y056500
X027500Y057250
X028000Y-001000
X028000Y000000
X028000Y001000
X028000Y002000
X028500Y051500
X028500Y052500
X028500Y056500
X028500Y057250
X028500Y063000
X028500Y064000
X028500Y065000
X029000Y-001000
X029000Y000000
X029000Y001000
X029500Y063000
X029500Y064000
X029500Y065000
X030000Y-001000
X030000Y000000
X030000Y001000
X030500Y063000
X030500Y064000
X030500Y065000
X031000Y-001000
X031000Y000000
X031000Y001000
X031500Y055500
X031500Y056500
X031500Y057500
X031500Y063000
X031500Y064000
X031500Y065000
X032000Y-001000
X032000Y000000
X032000Y001000
X032000Y002000
X032500Y011000
X032500Y012000
X032500Y015000
X033000Y-001000
X033000Y000000
X033000Y001000
X033000Y002000
X033000Y003000
X033000Y004000
X033000Y005000
X033000Y006000
X032500Y053500
X032500Y054500
X032500Y055500
X032500Y056500
X032500Y057500
X032500Y063000
X032500Y064000
X032500Y065000
X033500Y011000
X033500Y012000
X033500Y013000
X033500Y014000
X033500Y015000
X034000Y-001000
X034000Y000000
X034000Y001000
X034000Y002000
X034000Y003000
X034000Y004000
X034000Y005000
X034000Y006000
X033500Y052750
X033500Y053500
X033500Y054500
X033500Y055500
X033500Y056500
X033500Y057500
X033500Y063000
X033500Y064000
X033500Y065000
X034500Y011000
X034500Y012000
X034500Y013000
X034500Y014000
X034500Y015000
X035000Y-001000
X035000Y000000
X035000Y001000
X035000Y002000
X035000Y003000
X035000Y004000
X035000Y005000
X035000Y006000
X034500Y052750
X034500Y053500
X034500Y054500
X034500Y055500
X034500Y056500
X034500Y057500
X034500Y058500
X034500Y059500
X034500Y063000
X034500Y064000
X034500Y065000
X035500Y011000
X035500Y012000
X035500Y013000
X035500Y014000
X035500Y015000
X036000Y-001000
X036000Y000000
X036000Y001000
X036000Y002000
X036000Y003000
X036000Y004000
X036000Y005000
X036000Y006000
X035500Y052750
X035500Y053500
X035500Y054500
X035500Y055500
X035500Y056500
X035500Y057500
X035500Y058500
X035500Y063000
X035500Y064000
X035500Y065000
X036500Y011000
X036500Y012000
X036500Y013000
X036500Y014000
X036500Y015000
X037000Y-001000
X037000Y000000
X037000Y001000
X037000Y002000
X037000Y003000
X037000Y004000
X037000Y005000
X037000Y006000
X036500Y052750
X036500Y053500
X036500Y054500
X036500Y055500
X036500Y056500
X036500Y057500
X036500Y062000
X036500Y063000
X036500Y064000
X036500Y065000
X037500Y011000
X037500Y012000
X037500Y013000
X037500Y014000
X037500Y015000
X038000Y-001000
X038000Y000000
X038000Y001000
X038000Y002000
X038000Y003000
X038000Y004000
X038000Y005000
X038000Y006000
X037500Y052750
X037500Y053500
X037500Y054500
X037500Y055500
X037500Y056500
X037500Y061000
X037500Y062000
X037500Y063000
X037500Y064000
X037500Y065000
X038500Y011000
X038500Y012000
X038500Y013000
X038500Y014000
X038500Y015000
X039000Y-001000
X039000Y000000
X039000Y001000
X039000Y002000
X039000Y003000
X039000Y004000
X039000Y005000
X039000Y006000
X038500Y054500
X038500Y055500
X038500Y060000
X038500Y061000
X038500Y062000
X038500Y063000
X039500Y011000
X040000Y-001000
X040000Y000000
X040000Y001000
X040000Y003000
X040000Y004000
X040000Y005000
X040000Y006000
X039500Y052750
X039500Y053500
X039500Y054500
X039500Y055500
X039500Y059000
X039500Y060000
X039500Y061000
X039500Y062000
X039500Y063000
X039500Y064000
X039500Y065000
X040500Y011000
X041000Y-001000
X041000Y000000
X041000Y001000
X041000Y002000
X041000Y003000
X041000Y004000
X041000Y005000
X041000Y006000
X040500Y052750
X040500Y053500
X040500Y054500
X040500Y055500
X040500Y059000
X040500Y060000
X040500Y061000
X040500Y062000
X040500Y063000
X040500Y064000
X040500Y065000
X041500Y011000
X042000Y-001000
X042000Y000000
X042000Y001000
X042000Y002000
X042000Y003000
X042000Y004000
X042000Y005000
X042000Y006000
X041500Y052750
X041500Y053500
X041500Y054500
X041500Y055500
X041500Y059000
X041500Y060000
X041500Y061000
X041500Y062000
X041500Y063000
X041500Y064000
X041500Y065000
X042500Y011000
X043000Y-001000
X043000Y000000
X043000Y001000
X043000Y002000
X043000Y003000
X043000Y004000
X043000Y005000
X043000Y006000
X042500Y052750
X042500Y053500
X042500Y054500
X042500Y055500
X042500Y059000
X042500Y060000
X042500Y061000
X042500Y062000
X042500Y063000
X042500Y064000
X042500Y065000
X043500Y011000
X044000Y-001000
X044000Y000000
X044000Y001000
X044000Y002000
X044000Y003000
X044000Y004000
X044000Y005000
X044000Y006000
X043500Y059000
X043500Y060000
X043500Y061000
X043500Y062000
X043500Y063000
X043500Y064000
X043500Y065000
X044500Y011000
X045000Y-001000
X045000Y000000
X045000Y001000
X045000Y002000
X045000Y003000
X045000Y004000
X045000Y005000
X045000Y006000
X044500Y059000
X044500Y060000
X044500Y061000
X044500Y062000
X044500Y063000
X044500Y064000
X044500Y065000
X045500Y059000
X045500Y060000
X045500Y061000
X045500Y062000
X045500Y063000
X045500Y064000
X045500Y065000
X046000Y-001000
X046000Y000000
X046000Y001000
X046000Y002000
X046000Y003000
X046000Y004000
X046000Y005000
X046000Y006000
X046500Y059000
X046500Y060000
X046500Y061000
X046500Y062000
X046500Y063000
X046500Y064000
X046500Y065000
X047000Y-001000
X047000Y000000
X047000Y001000
X047000Y002000
X047000Y003000
X047000Y004000
X047000Y005000
X047000Y006000
X047500Y059000
X047500Y060000
X047500Y061000
X047500Y062000
X047500Y063000
X047500Y064000
X047500Y065000
X048000Y-001000
X048000Y000000
X048000Y001000
X048000Y002000
X048000Y006000
X048500Y062000
X048500Y063000
X048500Y064000
X048500Y065000
X049000Y-001000
X049000Y000000
X049000Y001000
X049500Y062000
X049500Y063000
X049500Y064000
X049500Y065000
X050000Y-001000
X050000Y000000
X050000Y001000
X050500Y062000
X050500Y063000
X050500Y064000
X050500Y065000
X051000Y-001000
X051000Y000000
X051000Y001000
X052000Y-001000
X052000Y000000
X052000Y001000
X053000Y-001000
X053000Y000000
X053000Y001000
X053000Y002000
X055700Y065350
T3C0.0394F200S100
X021500Y043750
X025500Y021500
X030500Y044500
X030500Y046000
X033500Y035250
X033500Y037500
X033500Y048000
X033750Y040000
X036000Y046250
X037000Y046250
X038000Y046250
X040750Y030250
X040750Y031750
X041000Y046250
X042000Y029500
X042000Y031000
X042000Y032500
X042000Y046250
X043000Y046250
X043250Y042000
X047000Y038000
X053000Y027500
X053250Y022750
X054500Y049000
X060000Y026000
T7C0.0591F200S100
X004000Y024401
X004000Y025401
X004000Y026500
X004000Y028500
X004000Y035401
X004000Y036401
X004000Y037500
X004000Y039500
X004000Y045401
X004000Y046401
X004000Y047500
X004000Y049500
X004000Y055401
X004000Y056401
X004000Y057500
X004000Y059500
X010500Y015000
X010500Y017000
X010500Y018098
X010500Y019098
X010500Y024500
X010500Y026500
X010500Y027598
X010500Y028598
X010500Y035500
X010500Y037500
X010500Y038598
X010500Y039598
X010500Y045500
X010500Y047500
X010500Y048598
X010500Y049598
X010500Y055500
X010500Y057500
X010500Y058598
X010500Y059598
X058750Y044167
X058750Y046333
T12C0.1575F200S100
X013000Y000630
X018000Y005750
X027250Y054500
X032250Y059620
X044750Y054500
X049750Y059620
T5C0.0472F200S100
X053008Y040008
X053008Y040992
X053992Y040008
X053992Y040992
X057508Y040008
X057508Y040992
X058492Y040008
X058492Y040992
T8C0.0630F200S100
X053878Y039153
X053878Y041846
X058378Y039153
X058378Y041846
T13C0.2362F200S100
X029750Y004380
X029750Y013120
X050500Y004380
X050500Y013120
T9C0.0669F200S100
X004000Y014590
X004000Y018910
X010500Y006340
X010500Y010660
T4C0.0433F200S100
X027750Y025750
X036750Y018250
X036750Y020250
X037750Y025750
X038500Y053587
X038500Y064413
X040000Y002087
X040000Y012913
X040000Y015000
X040000Y025000
X048000Y044500
X048000Y045500
X048000Y046500
X056500Y035750
X056500Y036750
X057500Y035750
X057500Y036750
X058500Y035750
X058500Y036750
T10C0.1063F200S100
X007250Y002524
X007250Y030476
X007250Y033524
X007250Y061476
T6C0.0590F200S100
X017250Y008000
X018750Y008000
X018750Y017000
X017250Y017000
M30
