*
G04 Mass Parameters ***
*
G04 Image ***
*
%IND:\00.LAVORI IN CORSO\METALTRONICA\25-334-0 (PFC )\25-334-0.DRL*%
%ICAS*%
%MOIN*%
%IPPOS*%
%ASAXBY*%
G74*%FSLAN2X34Y34*%
*
G04 Aperture Definitions ***
*
%ADD10C,0.1378*%
%ADD11C,0.1968*%
%ADD12C,0.0394*%
%ADD13R,0.1024X0.0510*%
%ADD14R,0.0380X0.0320*%
%ADD15R,0.0886X0.0905*%
%ADD16C,0.0800*%
%ADD17C,0.5118*%
%ADD18R,0.0800X0.0800*%
%ADD19R,0.0710X0.0400*%
%ADD20R,0.0501X0.0404*%
%ADD21C,0.1500*%
%ADD22R,0.0197X0.0315*%
%ADD23R,0.0500X0.0400*%
%ADD24R,0.0472X0.0472*%
%ADD25R,0.0404X0.0501*%
%ADD26C,0.0984*%
%ADD27C,0.2756*%
%ADD28C,0.1181*%
%ADD29R,0.1181X0.1181*%
%ADD30C,0.1200*%
%ADD31R,0.1200X0.1200*%
%ADD32C,0.0512*%
%ADD33C,0.0866*%
%ADD34R,0.0669X0.0669*%
%ADD35C,0.0669*%
%ADD36C,0.0787*%
%ADD37R,0.0787X0.0787*%
%ADD38R,0.0630X0.0630*%
%ADD39C,0.0630*%
%ADD40C,0.0187*%
%ADD41R,0.0270X0.0500*%
%ADD42R,0.1000X0.0600*%
%ADD43R,0.2760X0.2760*%
%ADD44C,0.0709*%
%ADD45R,0.0400X0.0500*%
%ADD46R,0.0680X0.1580*%
%ADD47R,0.0680X0.0550*%
%ADD48R,0.0510X0.1024*%
%ADD49R,0.0320X0.0380*%
%ADD50R,0.1080X0.0850*%
%ADD51R,0.0984X0.0984*%
%ADD52R,0.0236X0.0512*%
%ADD53R,0.1736X0.0787*%
%ADD54R,0.0236X0.0787*%
%ADD55O,0.0256X0.0650*%
%ADD56R,0.0787X0.1736*%
%ADD57R,0.0787X0.0236*%
%ADD58O,0.0118X0.0590*%
%ADD59O,0.0110X0.0700*%
%ADD60R,0.0110X0.0700*%
%ADD61O,0.0700X0.0110*%
%ADD62R,0.0700X0.0110*%
%ADD63O,0.0984X0.0590*%
%ADD64O,0.0630X0.0236*%
%ADD65R,0.0630X0.0236*%
%ADD66O,0.0650X0.0256*%
%ADD67R,0.0320X0.0640*%
%ADD68R,0.0600X0.0700*%
%ADD69C,0.0276*%
%ADD70C,0.0100*%
%ADD71C,0.0050*%
%ADD72C,0.0276*%
%ADD73C,0.0080*%
%ADD74C,0.0250*%
%ADD75C,0.0276*%
%ADD76C,0.0500*%
%ADD77C,0.0120*%
%ADD78C,0.0276*%
%ADD79C,0.0060*%
%ADD80C,0.1000*%
%ADD81C,0.0590*%
%ADD82C,0.0787*%
%ADD83R,0.0433X0.0433*%
%ADD84C,0.0079*%
%ADD85C,0.0157*%
%ADD86C,0.0010*%
%ADD87C,0.0394*%
%ADD88C,0.1063*%
%ADD89C,0.0433*%
%ADD90C,0.2362*%
%ADD91C,0.1575*%
%ADD92C,0.0472*%
%ADD93C,0.0079*%
%ADD94C,0.0590*%
%ADD95C,0.0079*%
%ADD96C,0.0079*%
*
G04 Plot Data ***
*
G54D70*
G01X0003150Y-0006042D02*
Y-0005542D01*
X0003317D02*
X0002983D01*
X0002742D02*
Y-0005958D01*
X0002700Y-0006042D01*
X0002450D01*
X0002408Y-0005958D01*
Y-0005542D01*
X0002167Y-0005958D02*
X0002125Y-0006042D01*
X0001875D01*
X0001833Y-0005958D01*
Y-0005625D01*
X0001875Y-0005542D01*
X0002125D01*
X0002167Y-0005625D01*
X0001592Y-0005542D02*
Y-0005708D01*
X0001425Y-0006042D01*
X0001258Y-0005708D01*
Y-0005542D01*
X0000087Y-0005792D02*
X0000254D01*
Y-0005958D01*
X0000212Y-0006042D01*
X-0000037D01*
X-0000079Y-0005958D01*
Y-0005625D01*
X-0000037Y-0005542D01*
X0000212D01*
X0000254Y-0005625D01*
X-0000321Y-0005542D02*
Y-0006042D01*
X-0000404Y-0005958D01*
X-0000571Y-0005625D01*
X-0000654Y-0005542D01*
Y-0006042D01*
X-0000896D02*
X-0001062D01*
X-0000979D02*
Y-0005542D01*
X-0000896D02*
X-0001062D01*
X-0001512Y-0005792D02*
X-0001387Y-0006042D01*
X-0001721Y-0005792D02*
X-0001471D01*
X-0001387Y-0005708D01*
Y-0005625D01*
X-0001471Y-0005542D01*
X-0001721D01*
Y-0006042D01*
X-0002254D02*
X-0002296Y-0005958D01*
Y-0005625D01*
X-0002254Y-0005542D01*
X-0002004D01*
X-0001962Y-0005625D01*
Y-0005958D01*
X-0002004Y-0006042D01*
X-0002254D01*
X-0002537Y-0005958D02*
X-0002579Y-0006042D01*
X-0002829D01*
X-0002871Y-0005958D01*
Y-0005625D01*
X-0002829Y-0005542D01*
X-0002579D01*
X-0002537Y-0005625D01*
X-0003112D02*
X-0003154Y-0005542D01*
X-0003404D01*
X-0003446Y-0005625D01*
Y-0005708D01*
X-0003404Y-0005792D01*
X-0003154D01*
X-0003112Y-0005875D01*
Y-0005958D01*
X-0003154Y-0006042D01*
X-0003404D01*
X-0003446Y-0005958D01*
X-0004450Y-0005875D02*
X-0004783D01*
X-0004450Y-0006042D02*
Y-0005792D01*
X-0004575Y-0005542D01*
X-0004658D01*
X-0004783Y-0005792D01*
Y-0006042D01*
X-0005108Y-0005792D02*
X-0005358D01*
X-0005025Y-0006042D02*
X-0005358D01*
Y-0005542D01*
X-0005025D01*
X-0005600D02*
Y-0006042D01*
X-0005683Y-0005958D01*
X-0005850Y-0005625D01*
X-0005933Y-0005542D01*
Y-0006042D01*
X-0006175D02*
X-0006342D01*
X-0006258D02*
Y-0005542D01*
X-0006175D02*
X-0006342D01*
X-0006667Y-0006042D02*
X-0006958D01*
Y-0005542D01*
X-0002000Y-0004000D02*
X-0000750Y-0005250D01*
X-0003250D01*
X-0002000Y-0004000D01*
X-0006299Y-0001968D02*
X0061024D01*
Y0084646D01*
X-0001968D01*
Y0074551D01*
X-0006299D01*
Y-0001968D01*
X-0001968D02*
Y0074551D01*
G54D82*
G01X0011650Y0013000D02*
Y0008650D01*
X0010650Y0007650D01*
X0009200D01*
X0004400Y0007750D02*
X0002200D01*
Y0010850D01*
X0003400Y0012050D01*
X0035500Y0017400D02*
X0041000D01*
X0025200Y0008200D02*
Y0005950D01*
X0022300Y0003050D01*
Y0000150D01*
X0017500Y0060500D02*
Y0067350D01*
X0015000Y0069850D01*
X0042800Y0033250D02*
X0040812D01*
X0039562Y0032000D01*
Y0030200D01*
X0055825Y0039025D02*
X0040250D01*
X0023862Y0029512D02*
Y0031900D01*
X0028312Y0036350D01*
X0008050Y0080400D02*
Y0074700D01*
X0009750Y0073000D01*
X0032200Y-0000100D02*
Y0002775D01*
X0033600Y0004175D01*
X0040450D01*
X0013500Y0075100D02*
Y0080550D01*
X0047100Y0052450D02*
Y0060900D01*
G54D87*
G01X0002600Y0052000D02*
X0003900D01*
X0010650Y0064900D02*
X0009350D01*
X0002850Y0066850D02*
X0004150D01*
X0002850Y0021750D02*
X0004150D01*
X0009600Y0019750D02*
X0010900D01*
X0009600Y0035500D02*
X0010900D01*
X0002850Y0037500D02*
X0004150D01*
X0010900Y0050000D02*
X0009600D01*
X0008250Y0081950D02*
Y0083450D01*
X0056500Y0028750D02*
X0058000D01*
X0056500Y0031500D02*
X0058000D01*
X0050000Y0003750D02*
X0051500D01*
Y0006000D02*
X0050000D01*
X0006000Y0081950D02*
Y0083450D01*
G54D94*
G01X0026050Y0074400D02*
X0024200D01*
X0023250Y0075350D01*
Y0076150D01*
X0018200Y0081250D01*
X0019800Y0082050D02*
X0022200D01*
X0023500Y0080750D01*
Y0079400D01*
X0023900Y0079000D01*
X0025550D01*
G54D10*
X-0004134Y0003425D03*
Y0011693D03*
Y0014331D03*
Y0042283D03*
Y0045039D03*
Y0072992D03*
X0059055Y0000000D03*
X0000000D03*
X0059055Y0082677D03*
X0000000D03*
G54D12*
X0023000Y0072750D03*
X0021000Y0066500D03*
X0018250Y0070500D03*
X0015500Y0066500D03*
X0040750Y0001250D03*
X0027500Y0066000D03*
X0047500Y0080000D03*
X0052250Y0083750D03*
X0058750Y0052963D03*
Y0053750D03*
G54D32*
X0058992Y0061476D03*
Y0060492D03*
Y0059508D03*
Y0058524D03*
X0058008D03*
X0057480Y0060000D03*
X0058008Y0061476D03*
Y0060492D03*
Y0059508D03*
X0059020Y0067976D03*
Y0066992D03*
Y0066008D03*
Y0065024D03*
X0058035D03*
X0057508Y0066500D03*
X0058035Y0067976D03*
Y0066992D03*
Y0066008D03*
X0055527Y0081500D03*
G54D35*
X0003594Y0005404D03*
Y0009724D03*
X0010094D03*
Y0005404D03*
G54D39*
X0055000Y0080153D03*
Y0082846D03*
G54D44*
X0020750Y0081000D03*
Y0083000D03*
G54D81*
X0024980Y0075858D03*
X0040138D03*
Y0079008D03*
X0024980Y0080090D03*
X0010000Y0063901D03*
Y0065901D03*
X0010250Y0049000D03*
Y0051000D03*
X0003500Y0067848D03*
Y0065848D03*
X0003250Y0053000D03*
Y0051000D03*
X0010250Y0034500D03*
Y0036500D03*
Y0018750D03*
Y0020750D03*
X0003500Y0038500D03*
Y0036500D03*
Y0022750D03*
Y0020750D03*
X0056417Y0076250D03*
X0058583D03*
X0010250Y0077000D03*
X0015500Y0064000D03*
G54D88*
X0006844Y0011698D03*
Y0003430D03*
Y0042290D03*
Y0014337D03*
X0006750Y0072976D03*
Y0045024D03*
G54D89*
X0010250Y0027185D03*
Y0027842D03*
Y0028500D03*
Y0029157D03*
Y0029815D03*
X0045750Y0080750D03*
Y0081750D03*
Y0082750D03*
X0052000Y0074250D03*
X0053000D03*
X0056000D03*
X0059000D03*
X0051250Y0031500D03*
X0041250D03*
X0038250Y0019250D03*
Y0009250D03*
X0010000Y0067000D03*
Y0068000D03*
X0010250Y0052098D03*
Y0053098D03*
X0003500Y0064750D03*
Y0063750D03*
X0003250Y0049901D03*
Y0048901D03*
X0010250Y0037598D03*
Y0038598D03*
Y0021848D03*
Y0022848D03*
X0003500Y0035401D03*
Y0034401D03*
Y0019651D03*
Y0018651D03*
X0031250Y0047000D03*
X0032250D03*
X0033250D03*
Y0046000D03*
X0032250D03*
X0031250D03*
X0051500Y0035000D03*
Y0037000D03*
X0027087Y0032250D03*
X0037913D03*
G54D90*
X0026000Y0013380D03*
Y0022120D03*
X0050250Y0013380D03*
Y0022120D03*
G54D91*
X0025750Y0000880D03*
X0015750D03*
X0020750Y0006000D03*
X0030750D03*
X0011000Y0081370D03*
X0006000Y0076250D03*
G54D92*
X0055000Y0081008D03*
Y0081992D03*
G54D93*
X0011000Y0077500D03*
X0010500Y0075500D03*
X0011500D03*
X0012000Y0075000D03*
X0011000D03*
Y0076000D03*
X0010000D03*
Y0075000D03*
X0009500Y0083500D03*
X0011500D03*
X0010500D03*
Y0079500D03*
X0009500D03*
X0010000Y0078500D03*
X0011000D03*
Y0079000D03*
X0010000Y0080000D03*
Y0079000D03*
X0009000D03*
Y0080000D03*
Y0081000D03*
Y0082000D03*
X0010000Y0083000D03*
X0011000D03*
X0012000D03*
Y0084000D03*
X0011000D03*
X0010000D03*
X0009000D03*
X0030000Y0013000D03*
X0031000D03*
Y0014000D03*
X0030000D03*
X0029000Y0013000D03*
Y0014000D03*
Y0015000D03*
X0030000D03*
X0031000D03*
X0032000Y0013000D03*
Y0014000D03*
Y0015000D03*
X0033000Y0013000D03*
Y0014000D03*
Y0015000D03*
X0034000D03*
Y0014000D03*
Y0013000D03*
X0035000D03*
Y0014000D03*
Y0015000D03*
X0036000D03*
Y0014000D03*
Y0013000D03*
X0037000D03*
Y0014000D03*
Y0015000D03*
X0043000Y0013000D03*
Y0014000D03*
X0042000Y0013000D03*
Y0014000D03*
X0041000Y0013000D03*
Y0014000D03*
X0040000Y0013000D03*
Y0014000D03*
X0039000Y0013000D03*
Y0014000D03*
X0038000Y0013000D03*
Y0014000D03*
Y0015000D03*
X0039000D03*
X0040000D03*
X0041000D03*
X0042000D03*
X0043000D03*
X0044000Y0013000D03*
Y0014000D03*
X0045000Y0013000D03*
Y0014000D03*
X0044000Y0015000D03*
X0045000D03*
X0046000D03*
X0047000D03*
X0046000Y0013000D03*
Y0014000D03*
X0047000D03*
Y0013000D03*
Y0012000D03*
X0046000D03*
X0045000D03*
X0044000D03*
X0043000D03*
X0042000D03*
X0041000D03*
X0040000D03*
X0039000D03*
X0038000D03*
X0037000D03*
X0036000D03*
X0035000D03*
X0034000D03*
X0032000D03*
X0033000D03*
X0031000D03*
X0030000D03*
X0029000D03*
X0026000Y0010000D03*
X0028000Y0011000D03*
X0029000D03*
X0030000D03*
X0031000D03*
X0032000D03*
X0033000D03*
X0034000D03*
X0035000D03*
X0036000D03*
X0037000D03*
X0038000D03*
X0039000D03*
X0040000D03*
X0041000D03*
X0042000D03*
X0043000D03*
X0044000D03*
X0045000D03*
X0046000D03*
X0047000D03*
Y0010000D03*
X0046000D03*
X0045000D03*
X0044000D03*
X0043000D03*
X0042000D03*
X0041000D03*
X0040000D03*
X0039000D03*
X0037000D03*
X0036000D03*
X0035000D03*
X0034000D03*
X0033000D03*
X0032000D03*
X0031000D03*
X0030000D03*
X0029000D03*
X0028000D03*
X0027000D03*
Y0009000D03*
X0028000D03*
X0029000D03*
X0030000D03*
X0031000D03*
X0032000D03*
X0033000D03*
X0034000D03*
X0035000D03*
X0036000D03*
X0037000D03*
X0039000Y0006000D03*
Y0007000D03*
X0038000Y0006000D03*
Y0007000D03*
X0037000D03*
X0036000D03*
Y0008000D03*
X0037000D03*
X0038000D03*
X0039000D03*
X0040000Y0006000D03*
Y0007000D03*
X0041000Y0006000D03*
Y0007000D03*
Y0008000D03*
X0042000Y0006000D03*
Y0007000D03*
Y0008000D03*
X0043000Y0006000D03*
Y0007000D03*
Y0008000D03*
X0040000D03*
Y0009000D03*
X0041000D03*
X0042000D03*
X0043000D03*
X0044000Y0006000D03*
Y0007000D03*
Y0008000D03*
Y0009000D03*
X0046000Y0007000D03*
X0045000Y0006000D03*
Y0007000D03*
X0047000Y0008000D03*
X0046000D03*
X0045000D03*
Y0009000D03*
X0046000D03*
X0047000D03*
X0048000Y0011000D03*
X0052000D03*
X0048000Y0010000D03*
X0049000D03*
X0050000D03*
X0051000D03*
X0052000D03*
X0051000Y0009000D03*
X0050000D03*
X0049000D03*
X0048000D03*
X0025000Y0025000D03*
X0024000D03*
X0023000Y0024000D03*
Y0023000D03*
Y0022000D03*
Y0021000D03*
Y0020000D03*
X0024000D03*
X0028000D03*
X0027000Y0025000D03*
X0026000D03*
Y0026000D03*
X0027000D03*
X0028000Y0025000D03*
Y0026000D03*
X0045000Y0020000D03*
Y0021000D03*
Y0022000D03*
Y0023000D03*
Y0024000D03*
Y0025000D03*
Y0026000D03*
X0053000Y0020000D03*
Y0021000D03*
X0048000Y0024000D03*
X0047000D03*
Y0023000D03*
Y0022000D03*
Y0021000D03*
X0048000Y0020000D03*
X0047000D03*
X0046000D03*
Y0021000D03*
Y0022000D03*
Y0023000D03*
Y0024000D03*
X0052000Y0025000D03*
X0051000D03*
X0050000D03*
X0049000D03*
X0048000D03*
X0047000D03*
X0046000D03*
Y0026000D03*
X0047000D03*
X0048000D03*
X0049000D03*
X0050000D03*
X0051000D03*
X0052000D03*
X0053000Y0023000D03*
Y0024000D03*
Y0025000D03*
Y0026000D03*
X0000000Y0015000D03*
X0001000D03*
Y0014000D03*
X0000000D03*
X-0001000D03*
Y0013000D03*
X0000000D03*
X0001000D03*
Y0012000D03*
Y0011000D03*
Y0010000D03*
Y0009000D03*
Y0008000D03*
X0000000D03*
Y0009000D03*
Y0010000D03*
Y0011000D03*
Y0012000D03*
X-0001000D03*
Y0011000D03*
Y0010000D03*
Y0009000D03*
Y0008000D03*
X0002000Y0005000D03*
Y0006000D03*
X0001000D03*
Y0007000D03*
X0000000Y0006000D03*
Y0007000D03*
X-0001000D03*
Y0006000D03*
Y0005000D03*
X0000000D03*
X0001000D03*
X0032000D03*
X0033000Y0006000D03*
X0032000Y0007000D03*
X0033000D03*
X0034000D03*
X0035000D03*
Y0008000D03*
X0034000D03*
X0033000D03*
X0032000D03*
X0031000D03*
X0030000D03*
X0029000Y0007000D03*
X0028000Y0006000D03*
X0029000D03*
X0031000Y0004000D03*
X0030000D03*
Y0003000D03*
X0029000Y0002000D03*
Y0003000D03*
Y0004000D03*
Y0005000D03*
X0027000D03*
X0028000D03*
Y0004000D03*
X0027000D03*
X0026000D03*
X0027000Y0002000D03*
X0025000Y0003000D03*
X0026000D03*
X0027000D03*
X0028000D03*
Y0002000D03*
Y0001000D03*
Y0000000D03*
Y-0001000D03*
X0027000D03*
X0026000D03*
X0025000D03*
X0019000Y0006000D03*
Y0005000D03*
X0018000D03*
X0020000Y0004000D03*
X0019000D03*
X0018000D03*
X0017000D03*
Y0002000D03*
Y0003000D03*
X0018000D03*
X0019000D03*
X0020000D03*
Y0002000D03*
X0019000D03*
X0018000D03*
Y0001000D03*
X0019000D03*
X0020000D03*
Y0000000D03*
X0019000D03*
X0018000D03*
X0014000D03*
X0013000D03*
X0020000Y-0001000D03*
X0019000D03*
X0018000D03*
X0017000D03*
X0016000D03*
X0015000D03*
X0014000D03*
X0013000D03*
X0041250Y0034750D03*
X0042000D03*
X0042700D03*
X0043450D03*
Y0035350D03*
X0042700D03*
X0042000D03*
X0041250D03*
Y0036050D03*
X0042000D03*
X0042700D03*
X0043450D03*
Y0036850D03*
X0042700D03*
X0042000D03*
X0041250D03*
X0043450Y0037550D03*
X0042700D03*
X0042000D03*
X0041250D03*
X0053300Y0051750D03*
X0052700D03*
X0053300Y0052400D03*
X0052700D03*
Y0053050D03*
X0053300D03*
Y0054450D03*
X0052650D03*
X0053300Y0053750D03*
X0052650D03*
X0047750Y0076700D03*
Y0077350D03*
X0048350Y0076050D03*
X0047750D03*
X0047150D03*
X0046600D03*
X0047150Y0076700D03*
X0046600D03*
X0047700Y0078600D03*
X0047150D03*
X0046600D03*
X0047150Y0077350D03*
X0046600D03*
X0047750Y0078000D03*
X0047150D03*
X0046600D03*
X0040750Y0045750D03*
X0047750D03*
X0023000Y0037500D03*
Y0033250D03*
G54D95*
X0021500Y0044800D03*
X0020000D03*
X0021500Y0056800D03*
X0020000D03*
X0021500Y0059200D03*
X0020000D03*
X0022550Y0068500D03*
X0016700Y0074500D03*
X0018200D03*
X0035000Y0049000D03*
X0033590Y-0000770D03*
X0059000Y0045600D03*
X0041300Y0055200D03*
X0034000Y0055000D03*
X0030200Y0055550D03*
X0036200D03*
X0034600Y0058350D03*
X0025800D03*
X0022550Y0035950D03*
X0019010D03*
X0019450Y0055200D03*
X0020950D03*
X0038031Y0056068D03*
X0024731D03*
X0002050Y0079750D03*
X0004650Y0080400D03*
X0031100Y0056450D03*
X0040300Y0054750D03*
X0038000D03*
X0054500Y0001500D03*
X0059300Y0045300D03*
X0042050Y0057000D03*
X0035800Y0056450D03*
X0028100Y0068500D03*
X0027450Y0070900D03*
X0021600Y0075950D03*
X0017950D03*
X0041900Y0053350D03*
X0033901Y0053351D03*
X0019300Y0072400D03*
X0016160D03*
X0025548Y0053901D03*
X0036451D03*
X0019790Y0050280D03*
X0020570D03*
X0054750Y0042000D03*
Y0040750D03*
X0020000Y0034000D03*
X0020900Y0053150D03*
X0040500Y0056500D03*
X0018500Y0036000D03*
X0022850Y0036250D03*
X0025800Y0058800D03*
X0034250D03*
X0021000Y0033950D03*
X0019250Y0052400D03*
X0020950D03*
X0021000Y0038450D03*
X0020100Y0053450D03*
X0044800Y0070250D03*
X0035050D03*
X0020500Y0043400D03*
X0022250D03*
X0019217Y0046733D03*
X0020067D03*
X0021000Y0062300D03*
X0022450Y0059500D03*
X0020550D03*
X0019750Y0040750D03*
X0021000D03*
X0034500Y0055250D03*
X0039050Y0055500D03*
X0024130Y0057550D03*
X0020550D03*
X0020323Y0045473D03*
X0022023D03*
X0020000Y0038800D03*
Y0061900D03*
X0049700Y0059500D03*
Y0057950D03*
X0031170Y0053470D03*
G54D96*
X0055000Y0063964D03*
Y0060900D03*
X0054000Y0006500D03*
X0035250Y-0000200D03*
X0049820Y-0000120D03*
X0038250Y0001550D03*
X0004000Y0078950D03*
X0005250Y0079000D03*
X0017250Y0077500D03*
X0017970Y0079530D03*
X0020000Y0077050D03*
X0019150Y0073950D03*
X0020250D03*
X0053750Y0040600D03*
X0018750Y0047750D03*
X0019000Y0045850D03*
X0021650Y0046750D03*
X0018750Y0057250D03*
X0022500Y0056750D03*
X0049500Y0045750D03*
X0022500Y0042500D03*
X0046000Y0045750D03*
X0036750Y0044750D03*
X0038250D03*
X0042500Y0045750D03*
X0044250D03*
X0056250Y0046100D03*
X0042820Y0052030D03*
X0060600Y0005100D03*
Y0041000D03*
X0018520Y0044720D03*
X0047500Y0081750D03*
X0042820Y0059280D03*
Y0048520D03*
X0012480Y0029780D03*
X0056250Y0044500D03*
X0053850Y-0001500D03*
X0040220Y0067400D03*
X0042820D03*
X0037250Y0048750D03*
X0035750D03*
X0044750Y0058700D03*
X0044500Y0057500D03*
X0042300Y0053400D03*
X0040250Y0057550D03*
Y0054200D03*
X0035477Y0056600D03*
X0036350Y0054600D03*
X0031750Y0054500D03*
Y0057250D03*
X0034950Y0054304D03*
X0035250Y0051400D03*
X0034300Y0051800D03*
X0018750Y0049250D03*
X0023500Y0066500D03*
X0018750Y0058850D03*
X0019550Y0072000D03*
X0030750Y0067550D03*
X0031500Y0071950D03*
X0044250Y0056600D03*
X0050500Y0079050D03*
X0037210Y0083410D03*
Y0063980D03*
X0033000Y0067400D03*
X0032000D03*
X0033250Y0050250D03*
X0023000Y0039350D03*
X0050500Y0052500D03*
Y0056500D03*
X0036050Y0042100D03*
X0023500Y0035450D03*
X0023800Y0062050D03*
X0023150Y0055250D03*
X0021750Y0072500D03*
X0020650Y0070450D03*
X0021750Y0070250D03*
X0026900Y0069650D03*
X0030250Y0070000D03*
X0031600Y0068450D03*
X0031500Y0069500D03*
X0023027Y0048023D03*
X0020323D03*
X0023880Y0061470D03*
X0022900Y0069650D03*
X0022000Y0054600D03*
X0020600Y0054850D03*
X0037250Y0050250D03*
X0039000Y0045750D03*
X0052500Y0076050D03*
X0050000Y0076800D03*
X0053500Y0077450D03*
X0052750Y0081000D03*
X0048750Y0073250D03*
X0045000D03*
X0042500D03*
X0043750Y0075000D03*
X0033000Y0069250D03*
X0022000Y0040050D03*
X0020350Y0040100D03*
X0020500Y0035600D03*
X0022050D03*
X0023000Y0052250D03*
X0029750Y0050250D03*
X0035674Y0057924D03*
X0033992Y0050107D03*
X0031242D03*
X0022350Y0073550D03*
X0022150Y0070450D03*
X0022000Y0068150D03*
X0042950D03*
X0035950Y0058450D03*
X0040800Y0057620D03*
X0059600Y0045000D03*
X0038670Y-0000820D03*
X0019750Y0064470D03*
Y0068500D03*
M02*
