*
G04 Mass Parameters ***
*
G04 Image ***
*
%IND:\00.LAVORI IN CORSO\METALTRONICA\25-334-0 (PFC )\25-334-0.SMB*%
%ICAS*%
%MOIN*%
%IPPOS*%
%ASAXBY*%
G74*%FSLAN2X34Y34*%
*
G04 Aperture Definitions ***
*
%ADD10C,0.1378*%
%ADD11C,0.1968*%
%ADD12C,0.0394*%
%ADD13R,0.1024X0.0510*%
%ADD14R,0.0380X0.0320*%
%ADD15R,0.0886X0.0905*%
%ADD16C,0.0800*%
%ADD17C,0.5118*%
%ADD18R,0.0800X0.0800*%
%ADD19R,0.0710X0.0400*%
%ADD20R,0.0501X0.0404*%
%ADD21C,0.1500*%
%ADD22R,0.0197X0.0315*%
%ADD23R,0.0500X0.0400*%
%ADD24R,0.0472X0.0472*%
%ADD25R,0.0404X0.0501*%
%ADD26C,0.0984*%
%ADD27C,0.2756*%
%ADD28C,0.1181*%
%ADD29R,0.1181X0.1181*%
%ADD30C,0.1200*%
%ADD31R,0.1200X0.1200*%
%ADD32C,0.0512*%
%ADD33C,0.0866*%
%ADD34R,0.0669X0.0669*%
%ADD35C,0.0669*%
%ADD36C,0.0787*%
%ADD37R,0.0787X0.0787*%
%ADD38R,0.0630X0.0630*%
%ADD39C,0.0630*%
%ADD40C,0.0187*%
%ADD41R,0.0270X0.0500*%
%ADD42R,0.1000X0.0600*%
%ADD43R,0.2760X0.2760*%
%ADD44C,0.0709*%
%ADD45R,0.0400X0.0500*%
%ADD46R,0.0680X0.1580*%
%ADD47R,0.0680X0.0550*%
%ADD48R,0.0510X0.1024*%
%ADD49R,0.0320X0.0380*%
%ADD50R,0.1080X0.0850*%
%ADD51R,0.0984X0.0984*%
%ADD52R,0.0236X0.0512*%
%ADD53R,0.1736X0.0787*%
%ADD54R,0.0236X0.0787*%
%ADD55O,0.0256X0.0650*%
%ADD56R,0.0787X0.1736*%
%ADD57R,0.0787X0.0236*%
%ADD58O,0.0118X0.0590*%
%ADD59O,0.0110X0.0700*%
%ADD60R,0.0110X0.0700*%
%ADD61O,0.0700X0.0110*%
%ADD62R,0.0700X0.0110*%
%ADD63O,0.0984X0.0590*%
%ADD64O,0.0630X0.0236*%
%ADD65R,0.0630X0.0236*%
%ADD66O,0.0650X0.0256*%
%ADD67R,0.0320X0.0640*%
%ADD68R,0.0600X0.0700*%
%ADD69C,0.0276*%
%ADD70C,0.0100*%
%ADD71C,0.0050*%
%ADD72C,0.0276*%
%ADD73C,0.0080*%
%ADD74C,0.0250*%
%ADD75C,0.0276*%
%ADD76C,0.0500*%
%ADD77C,0.0120*%
%ADD78C,0.0276*%
%ADD79C,0.0060*%
%ADD80C,0.1000*%
%ADD81C,0.0590*%
%ADD82C,0.0787*%
*
G04 Plot Data ***
*
G54D70*
G01X0041000Y0037800D02*
Y0034750D01*
X0046170Y0037800D02*
Y0034650D01*
X0046080Y0037800D02*
Y0034650D01*
X0045990Y0037800D02*
Y0034650D01*
X0045900Y0037800D02*
Y0034650D01*
X0045810Y0037800D02*
Y0034650D01*
X0045720Y0037800D02*
Y0034650D01*
X0045630Y0037800D02*
Y0034650D01*
X0045540Y0037800D02*
Y0034650D01*
X0045450Y0037800D02*
Y0034650D01*
X0045360Y0037800D02*
Y0034650D01*
X0045270Y0037800D02*
Y0034650D01*
X0045180Y0037800D02*
Y0034650D01*
X0045090Y0037800D02*
Y0034650D01*
X0045000Y0037800D02*
Y0034650D01*
X0044910Y0037800D02*
Y0034650D01*
X0044820Y0037800D02*
Y0034650D01*
X0044730Y0037800D02*
Y0034650D01*
X0044640Y0037800D02*
Y0034650D01*
X0044550Y0037800D02*
Y0034650D01*
X0044460Y0037800D02*
Y0034650D01*
X0044370Y0037800D02*
Y0034650D01*
X0044280Y0037800D02*
Y0034650D01*
X0044190Y0037800D02*
Y0034650D01*
X0044100Y0037800D02*
Y0034650D01*
X0044010Y0037800D02*
Y0034650D01*
X0043920Y0037800D02*
Y0034650D01*
X0043830Y0037800D02*
Y0034650D01*
X0043740Y0037800D02*
Y0034650D01*
X0043650Y0037800D02*
Y0034650D01*
X0043560Y0037800D02*
Y0034650D01*
X0043470Y0037800D02*
Y0034650D01*
X0043380Y0037800D02*
Y0034650D01*
X0043290Y0037800D02*
Y0034650D01*
X0043200Y0037800D02*
Y0034650D01*
X0043110Y0037800D02*
Y0034650D01*
X0043020Y0037800D02*
Y0034650D01*
X0042930Y0037800D02*
Y0034650D01*
X0042840Y0037800D02*
Y0034650D01*
X0042750Y0037800D02*
Y0034650D01*
X0042660Y0037800D02*
Y0034650D01*
X0042570Y0037800D02*
Y0034650D01*
X0042480Y0037800D02*
Y0034650D01*
X0042390Y0037800D02*
Y0034650D01*
X0042300Y0037800D02*
Y0034650D01*
X0042210Y0037800D02*
Y0034650D01*
X0042120Y0037800D02*
Y0034650D01*
X0042030Y0037800D02*
Y0034650D01*
X0041940Y0037800D02*
Y0034650D01*
X0041850Y0037800D02*
Y0034650D01*
X0041760Y0037800D02*
Y0034650D01*
X0041670Y0037800D02*
Y0034650D01*
X0041580Y0037800D02*
Y0034650D01*
X0041490Y0037800D02*
Y0034650D01*
X0041400Y0037800D02*
Y0034650D01*
X0041310Y0037800D02*
Y0034650D01*
X0041220Y0037800D02*
Y0034650D01*
X0041130Y0037800D02*
Y0034650D01*
X0041040Y0037800D02*
Y0034650D01*
X0046250Y0037750D02*
X0041000D01*
X0046250Y0037660D02*
X0041000D01*
X0046250Y0037570D02*
X0041000D01*
X0046250Y0037480D02*
X0041000D01*
X0046250Y0037390D02*
X0041000D01*
X0046250Y0037300D02*
X0041000D01*
X0046250Y0037210D02*
X0041000D01*
X0046250Y0037120D02*
X0041000D01*
X0046250Y0037030D02*
X0041000D01*
X0046250Y0036940D02*
X0041000D01*
X0046250Y0036850D02*
X0041000D01*
X0046250Y0036760D02*
X0041000D01*
X0046250Y0036670D02*
X0041000D01*
X0046250Y0036580D02*
X0041000D01*
X0046250Y0036490D02*
X0041000D01*
X0046250Y0036400D02*
X0041000D01*
X0046250Y0036310D02*
X0041000D01*
X0046250Y0036220D02*
X0041000D01*
X0046250Y0036130D02*
X0041000D01*
X0046250Y0036040D02*
X0041000D01*
X0046250Y0035950D02*
X0041000D01*
X0046250Y0035860D02*
X0041000D01*
X0046250Y0035770D02*
X0041000D01*
X0046250Y0035680D02*
X0041000D01*
X0046250Y0035590D02*
X0041000D01*
X0046250Y0035500D02*
X0041000D01*
X0046250Y0035410D02*
X0041000D01*
X0046250Y0035320D02*
X0041000D01*
X0046250Y0035230D02*
X0041000D01*
X0046250Y0035140D02*
X0041000D01*
X0046250Y0035050D02*
X0041000D01*
X0046250Y0034960D02*
X0041000D01*
X0046250Y0034870D02*
X0041000D01*
X0046250Y0034780D02*
X0041000D01*
X0046250Y0034690D02*
X0041000D01*
Y0034750D02*
Y0034650D01*
X0046250D02*
X0041000D01*
X0046250Y0037800D02*
Y0034650D01*
Y0037800D02*
X0041000D01*
X0059000Y0050790D02*
X0053210D01*
X0052500Y0051500D02*
X0053250Y0050750D01*
X0059000D02*
X0053250D01*
X0059000Y0052000D02*
Y0050750D01*
Y0052000D02*
X0054500D01*
Y0054500D02*
Y0052000D01*
Y0054500D02*
X0052500D01*
Y0051500D01*
X0058930Y0052000D02*
Y0050750D01*
X0058840Y0052000D02*
Y0050750D01*
X0058750Y0052000D02*
Y0050750D01*
X0058660Y0052000D02*
Y0050750D01*
X0058570Y0052000D02*
Y0050750D01*
X0058480Y0052000D02*
Y0050750D01*
X0058390Y0052000D02*
Y0050750D01*
X0058300Y0052000D02*
Y0050750D01*
X0058210Y0052000D02*
Y0050750D01*
X0058120Y0052000D02*
Y0050750D01*
X0058030Y0052000D02*
Y0050750D01*
X0057940Y0052000D02*
Y0050750D01*
X0057850Y0052000D02*
Y0050750D01*
X0057760Y0052000D02*
Y0050750D01*
X0057670Y0052000D02*
Y0050750D01*
X0057580Y0052000D02*
Y0050750D01*
X0057490Y0052000D02*
Y0050750D01*
X0057400Y0052000D02*
Y0050750D01*
X0057310Y0052000D02*
Y0050750D01*
X0057220Y0052000D02*
Y0050750D01*
X0057130Y0052000D02*
Y0050750D01*
X0057040Y0052000D02*
Y0050750D01*
X0056950Y0052000D02*
Y0050750D01*
X0056860Y0052000D02*
Y0050750D01*
X0056770Y0052000D02*
Y0050750D01*
X0056680Y0052000D02*
Y0050750D01*
X0056590Y0052000D02*
Y0050750D01*
X0056500Y0052000D02*
Y0050750D01*
X0056410Y0052000D02*
Y0050750D01*
X0056320Y0052000D02*
Y0050750D01*
X0056230Y0052000D02*
Y0050750D01*
X0056140Y0052000D02*
Y0050750D01*
X0056050Y0052000D02*
Y0050750D01*
X0055960Y0052000D02*
Y0050750D01*
X0055870Y0052000D02*
Y0050750D01*
X0055780Y0052000D02*
Y0050750D01*
X0055690Y0052000D02*
Y0050750D01*
X0055600Y0052000D02*
Y0050750D01*
X0055510Y0052000D02*
Y0050750D01*
X0055420Y0052000D02*
Y0050750D01*
X0055330Y0052000D02*
Y0050750D01*
X0055240Y0052000D02*
Y0050750D01*
X0055150Y0052000D02*
Y0050750D01*
X0055060Y0052000D02*
Y0050750D01*
X0054970Y0052000D02*
Y0050750D01*
X0054880Y0052000D02*
Y0050750D01*
X0054790Y0052000D02*
Y0050750D01*
X0054700Y0052000D02*
Y0050750D01*
X0054610Y0052000D02*
Y0050750D01*
X0054520Y0052000D02*
Y0050750D01*
X0054430Y0054500D02*
Y0050750D01*
X0054340Y0054500D02*
Y0050750D01*
X0054250Y0054500D02*
Y0050750D01*
X0054160Y0054500D02*
Y0050750D01*
X0054070Y0054500D02*
Y0050750D01*
X0053980Y0054500D02*
Y0050750D01*
X0053890Y0054500D02*
Y0050750D01*
X0053800Y0054500D02*
Y0050750D01*
X0053710Y0054500D02*
Y0050750D01*
X0053620Y0054500D02*
Y0050750D01*
X0053530Y0054500D02*
Y0050750D01*
X0053440Y0054500D02*
Y0050750D01*
X0053350Y0054500D02*
Y0050750D01*
X0053260Y0054500D02*
Y0050750D01*
X0053170Y0054500D02*
Y0050830D01*
X0053080Y0054500D02*
Y0050920D01*
X0052990Y0054500D02*
Y0051010D01*
X0052900Y0054500D02*
Y0051100D01*
X0052810Y0054500D02*
Y0051190D01*
X0052720Y0054500D02*
Y0051280D01*
X0052630Y0054500D02*
Y0051370D01*
X0052540Y0054500D02*
Y0051460D01*
X0054500Y0054480D02*
X0052500D01*
X0054500Y0054390D02*
X0052500D01*
X0054500Y0054300D02*
X0052500D01*
X0054500Y0054210D02*
X0052500D01*
X0054500Y0054120D02*
X0052500D01*
X0054500Y0054030D02*
X0052500D01*
X0054500Y0053940D02*
X0052500D01*
X0054500Y0053850D02*
X0052500D01*
X0054500Y0053760D02*
X0052500D01*
X0054500Y0053670D02*
X0052500D01*
X0054500Y0053580D02*
X0052500D01*
X0054500Y0053490D02*
X0052500D01*
X0054500Y0053400D02*
X0052500D01*
X0054500Y0053310D02*
X0052500D01*
X0054500Y0053220D02*
X0052500D01*
X0054500Y0053130D02*
X0052500D01*
X0054500Y0053040D02*
X0052500D01*
X0054500Y0052950D02*
X0052500D01*
X0054500Y0052860D02*
X0052500D01*
X0054500Y0052770D02*
X0052500D01*
X0054500Y0052680D02*
X0052500D01*
X0054500Y0052590D02*
X0052500D01*
X0054500Y0052500D02*
X0052500D01*
X0054500Y0052410D02*
X0052500D01*
X0054500Y0052320D02*
X0052500D01*
X0054500Y0052230D02*
X0052500D01*
X0054500Y0052140D02*
X0052500D01*
X0054500Y0052050D02*
X0052500D01*
X0059000Y0051960D02*
X0052500D01*
X0059000Y0051870D02*
X0052500D01*
X0059000Y0051780D02*
X0052500D01*
X0059000Y0051690D02*
X0052500D01*
X0059000Y0051600D02*
X0052500D01*
X0059000Y0051510D02*
X0052500D01*
X0059000Y0051420D02*
X0052580D01*
X0059000Y0051330D02*
X0052670D01*
X0059000Y0051240D02*
X0052760D01*
X0059000Y0051150D02*
X0052850D01*
X0059000Y0051060D02*
X0052940D01*
X0059000Y0050970D02*
X0053030D01*
X0059000Y0050880D02*
X0053120D01*
X0048560Y0078750D02*
Y0075060D01*
X0048470Y0078750D02*
Y0074970D01*
X0048380Y0078750D02*
Y0074880D01*
X0048290Y0078750D02*
Y0074790D01*
X0048200Y0078750D02*
Y0074700D01*
X0048110Y0078750D02*
Y0074610D01*
X0048020Y0078750D02*
Y0074520D01*
X0047930Y0078750D02*
Y0074430D01*
X0047840Y0078750D02*
Y0074340D01*
X0047750Y0078750D02*
Y0074250D01*
X0047660Y0078750D02*
Y0074250D01*
X0047570Y0078750D02*
Y0074250D01*
X0047480Y0078750D02*
Y0074250D01*
X0047390Y0078750D02*
Y0074250D01*
X0047300Y0078750D02*
Y0074250D01*
X0047210Y0078750D02*
Y0074250D01*
X0047120Y0078750D02*
Y0074250D01*
X0047030Y0078750D02*
Y0074250D01*
X0046940Y0078750D02*
Y0074250D01*
X0046850Y0078750D02*
Y0074250D01*
X0046760Y0078750D02*
Y0074250D01*
X0046670Y0078750D02*
Y0074250D01*
X0046580Y0078750D02*
Y0074250D01*
X0046490Y0078750D02*
Y0074250D01*
X0046400Y0078750D02*
Y0074250D01*
X0046310Y0078750D02*
Y0074250D01*
X0046220Y0078750D02*
Y0074250D01*
X0046130Y0078750D02*
Y0074250D01*
X0046040Y0078750D02*
Y0074250D01*
X0049000Y0078700D02*
X0046000D01*
X0049000Y0078610D02*
X0046000D01*
X0049000Y0078520D02*
X0046000D01*
X0049000Y0078430D02*
X0046000D01*
X0049000Y0078340D02*
X0046000D01*
X0049000Y0078250D02*
X0046000D01*
X0049000Y0078160D02*
X0046000D01*
X0049000Y0078070D02*
X0046000D01*
X0049000Y0077980D02*
X0046000D01*
X0049000Y0077890D02*
X0046000D01*
X0049000Y0077800D02*
X0046000D01*
X0049000Y0077710D02*
X0046000D01*
X0049000Y0077620D02*
X0046000D01*
X0049000Y0077530D02*
X0046000D01*
X0049000Y0077440D02*
X0046000D01*
X0049000Y0077350D02*
X0046000D01*
X0049000Y0077260D02*
X0046000D01*
X0049000Y0077170D02*
X0046000D01*
X0049000Y0077080D02*
X0046000D01*
X0049000Y0076990D02*
X0046000D01*
X0049000Y0076900D02*
X0046000D01*
X0049000Y0076810D02*
X0046000D01*
X0049000Y0076720D02*
X0046000D01*
X0049000Y0076630D02*
X0046000D01*
X0049000Y0076540D02*
X0046000D01*
X0049000Y0076450D02*
X0046000D01*
X0049000Y0076360D02*
X0046000D01*
X0049000Y0076270D02*
X0046000D01*
X0049000Y0076180D02*
X0046000D01*
X0049000Y0076090D02*
X0046000D01*
X0049000Y0076000D02*
X0046000D01*
X0049000Y0075910D02*
X0046000D01*
X0049000Y0075820D02*
X0046000D01*
X0049000Y0075730D02*
X0046000D01*
X0049000Y0075640D02*
X0046000D01*
X0049000Y0075550D02*
X0046000D01*
X0048960Y0075460D02*
X0046000D01*
X0048870Y0075370D02*
X0046000D01*
X0048780Y0075280D02*
X0046000D01*
X0048690Y0075190D02*
X0046000D01*
X0048600Y0075100D02*
X0046000D01*
X0048510Y0075010D02*
X0046000D01*
X0048420Y0074920D02*
X0046000D01*
X0048330Y0074830D02*
X0046000D01*
X0048240Y0074740D02*
X0046000D01*
X0048150Y0074650D02*
X0046000D01*
X0048060Y0074560D02*
X0046000D01*
X0047970Y0074470D02*
X0046000D01*
X0047880Y0074380D02*
X0046000D01*
X0047790Y0074290D02*
X0046000D01*
Y0075500D02*
Y0074250D01*
X0047750D02*
X0046000D01*
X0049000Y0075500D02*
X0047750Y0074250D01*
X0049000Y0078750D02*
Y0075500D01*
Y0078750D02*
X0046000D01*
Y0075500D01*
X0048920Y0078750D02*
Y0075420D01*
X0048830Y0078750D02*
Y0075330D01*
X0048740Y0078750D02*
Y0075240D01*
X0048650Y0078750D02*
Y0075150D01*
G54D82*
G01X0010450Y0077250D02*
Y0075000D01*
X0011650D02*
Y0077250D01*
X0011800Y0083500D02*
Y0079300D01*
X0010600Y0083550D02*
Y0079350D01*
X0009350Y0083600D02*
Y0079400D01*
X0005500Y0050700D02*
Y0047800D01*
X0009050Y0070300D02*
Y0066100D01*
X0007900Y0070250D02*
Y0066050D01*
X0005400Y0020600D02*
Y0018400D01*
X0008000Y0024800D02*
Y0020950D01*
X0010200Y0009750D02*
X0009000D01*
X0004700Y0005450D01*
X0002500D01*
X0009250Y0054500D02*
Y0060700D01*
X0008000Y0051300D02*
Y0060700D01*
X0006750Y0018400D02*
Y0039750D01*
Y0047750D02*
Y0070250D01*
X0005500Y0065600D02*
Y0056150D01*
X0004250Y0033250D02*
Y0025900D01*
X0003000Y0033250D02*
Y0025900D01*
X0004250Y0041500D02*
Y0050700D01*
X0003000Y0047750D02*
Y0041500D01*
X0004250Y0062500D02*
Y0056150D01*
X0003000Y0062500D02*
Y0056200D01*
X0005500Y0036250D02*
Y0025850D01*
X0004250Y0056050D02*
Y0062500D01*
X0003000D02*
Y0056050D01*
X0004250Y0076950D02*
Y0070900D01*
X0003000Y0076950D02*
Y0070950D01*
X0001750Y0018400D02*
Y0020600D01*
X0000500Y0018400D02*
Y0076950D01*
X-0000750Y0018450D02*
Y0076950D01*
X0035000Y0006000D02*
Y0007750D01*
X0033750D02*
Y0006000D01*
X0032500Y0005750D02*
Y0007750D01*
X0031250Y0004250D02*
Y0007750D01*
X0025000Y0002500D02*
Y-0001000D01*
X0026250Y0003750D02*
Y-0001000D01*
X0030000Y0003250D02*
Y0007250D01*
X0028750Y0001750D02*
Y0006000D01*
X0027500Y-0001000D02*
Y0004750D01*
X0011150Y0066000D02*
Y0070200D01*
X0001800Y0076950D02*
Y0070900D01*
Y0065550D02*
Y0056100D01*
X0001750Y0041500D02*
Y0050650D01*
Y0036250D02*
Y0025900D01*
X0009200Y0024800D02*
Y0020950D01*
X0013000Y-0000900D02*
Y-0000250D01*
X0014250Y-0000900D02*
Y0000850D01*
X0015500Y0001250D02*
Y-0000900D01*
X0027250Y0032250D02*
Y0023000D01*
X0053250Y0020000D02*
Y0025500D01*
X0052050D02*
X0048050D01*
X0040500D02*
Y0022750D01*
X0039250Y0025500D02*
Y0023250D01*
X0038000Y0025500D02*
Y0023250D01*
X0036750Y0025500D02*
Y0023250D01*
X0035500Y0025500D02*
Y0022000D01*
X0041750Y0025500D02*
Y0021750D01*
X0046750Y0020000D02*
Y0025500D01*
X0045500Y0020000D02*
Y0025500D01*
X0044250Y0020000D02*
Y0025500D01*
X0043000D02*
Y0020250D01*
X0034250Y0025500D02*
Y0020750D01*
X0033000Y0020000D02*
Y0025500D01*
X0031750Y0020000D02*
Y0025500D01*
X0030500Y0020000D02*
Y0025500D01*
X0029250Y0020000D02*
Y0025500D01*
X0023000Y0020000D02*
Y0025500D01*
X0021750Y0020000D02*
Y0025500D01*
X0020500Y0020000D02*
Y0025500D01*
X0019250D02*
Y-0000850D01*
X0018000Y0025500D02*
Y-0000900D01*
X0016750Y0025500D02*
Y-0000900D01*
X0015500Y0001750D02*
Y0025500D01*
X0014250D02*
Y0018350D01*
X0013000Y0025500D02*
Y0018350D01*
X0011750Y0024800D02*
Y0020950D01*
X0008000Y0039750D02*
Y0036800D01*
X0011100Y0045900D02*
Y0039650D01*
X0009850D02*
Y0045900D01*
X0010500Y0054500D02*
Y0060700D01*
G54D10*
X-0004134Y0003425D03*
Y0011693D03*
Y0014331D03*
Y0042283D03*
Y0045039D03*
Y0072992D03*
X0059055Y0000000D03*
X0000000D03*
X0059055Y0082677D03*
X0000000D03*
G54D11*
X0006844Y0011698D03*
Y0003430D03*
G54D16*
X0045750Y0081750D03*
Y0082750D03*
X0051500Y0037000D03*
X0027087Y0032250D03*
X0037913D03*
G54D17*
X0026000Y0013380D03*
Y0022120D03*
X0050250Y0013380D03*
Y0022120D03*
G54D18*
X0051500Y0035000D03*
G54D21*
X0051250Y0031500D03*
X0041250D03*
X0038250Y0019250D03*
Y0009250D03*
X0003594Y0005404D03*
Y0009724D03*
X0010094D03*
Y0005404D03*
G54D26*
X0024980Y0075858D03*
X0040138D03*
Y0079008D03*
X0010250Y0077000D03*
X0015500Y0064000D03*
G54D27*
X0025750Y0000880D03*
X0015750D03*
X0020750Y0006000D03*
X0030750D03*
X0011000Y0081370D03*
X0006000Y0076250D03*
G54D28*
X0020750Y0083000D03*
G54D29*
Y0081000D03*
G54D30*
X0058583Y0076250D03*
G54D31*
X0056417D03*
G54D33*
X0023000Y0072750D03*
X0021000Y0066500D03*
X0018250Y0070500D03*
X0015500Y0066500D03*
X0040750Y0001250D03*
X0027500Y0066000D03*
X0047500Y0080000D03*
X0052250Y0083750D03*
X0010000Y0063901D03*
Y0065901D03*
X0010250Y0049000D03*
Y0051000D03*
X0003500Y0067848D03*
Y0065848D03*
X0003250Y0053000D03*
Y0051000D03*
X0010250Y0034500D03*
Y0036500D03*
Y0018750D03*
Y0020750D03*
X0003500Y0038500D03*
Y0036500D03*
Y0022750D03*
Y0020750D03*
X0055000Y0080153D03*
Y0082846D03*
G54D34*
Y0081992D03*
G54D35*
Y0081008D03*
G54D36*
X0052000Y0074250D03*
X0053000D03*
X0056000D03*
X0059000D03*
X0058992Y0061476D03*
Y0060492D03*
Y0059508D03*
Y0058524D03*
X0058008Y0061476D03*
Y0060492D03*
Y0059508D03*
X0059020Y0067976D03*
Y0066992D03*
Y0066008D03*
Y0065024D03*
X0058035Y0067976D03*
Y0066992D03*
Y0066008D03*
X0032250Y0047000D03*
X0033250D03*
Y0046000D03*
X0032250D03*
X0031250D03*
G54D37*
X0045750Y0080750D03*
X0058008Y0058524D03*
X0058035Y0065024D03*
X0031250Y0047000D03*
G54D38*
X0058750Y0053750D03*
G54D39*
Y0052963D03*
G54D44*
X0010000Y0067000D03*
Y0068000D03*
X0010250Y0052098D03*
Y0053098D03*
X0003500Y0064750D03*
Y0063750D03*
X0003250Y0049901D03*
Y0048901D03*
X0010250Y0037598D03*
Y0038598D03*
Y0021848D03*
Y0022848D03*
X0003500Y0035401D03*
Y0034401D03*
Y0019651D03*
Y0018651D03*
G54D51*
X0024980Y0080090D03*
G54D63*
X0010250Y0027185D03*
Y0027842D03*
Y0028500D03*
Y0029157D03*
Y0029815D03*
M02*
