*
G04 Mass Parameters ***
*
G04 Image ***
*
%IND:\00.LAVORI IN CORSO\METALTRONICA\25-334-0 (PFC )\25-334-0.IN2*%
%ICAS*%
%MOIN*%
%IPPOS*%
%ASAXBY*%
G74*%FSLAN2X34Y34*%
*
G04 Aperture Definitions ***
*
%ADD10C,0.1378*%
%ADD11C,0.1968*%
%ADD12C,0.0394*%
%ADD13R,0.1024X0.0510*%
%ADD14R,0.0380X0.0320*%
%ADD15R,0.0886X0.0905*%
%ADD16C,0.0800*%
%ADD17C,0.5118*%
%ADD18R,0.0800X0.0800*%
%ADD19R,0.0710X0.0400*%
%ADD20R,0.0501X0.0404*%
%ADD21C,0.1500*%
%ADD22R,0.0197X0.0315*%
%ADD23R,0.0500X0.0400*%
%ADD24R,0.0472X0.0472*%
%ADD25R,0.0404X0.0501*%
%ADD26C,0.0984*%
%ADD27C,0.2756*%
%ADD28C,0.1181*%
%ADD29R,0.1181X0.1181*%
%ADD30C,0.1200*%
%ADD31R,0.1200X0.1200*%
%ADD32C,0.0512*%
%ADD33C,0.0866*%
%ADD34R,0.0669X0.0669*%
%ADD35C,0.0669*%
%ADD36C,0.0787*%
%ADD37R,0.0787X0.0787*%
%ADD38R,0.0630X0.0630*%
%ADD39C,0.0630*%
%ADD40C,0.0187*%
%ADD41R,0.0270X0.0500*%
%ADD42R,0.1000X0.0600*%
%ADD43R,0.2760X0.2760*%
%ADD44C,0.0709*%
%ADD45R,0.0400X0.0500*%
%ADD46R,0.0680X0.1580*%
%ADD47R,0.0680X0.0550*%
%ADD48R,0.0510X0.1024*%
%ADD49R,0.0320X0.0380*%
%ADD50R,0.1080X0.0850*%
%ADD51R,0.0984X0.0984*%
%ADD52R,0.0236X0.0512*%
%ADD53R,0.1736X0.0787*%
%ADD54R,0.0236X0.0787*%
%ADD55O,0.0256X0.0650*%
%ADD56R,0.0787X0.1736*%
%ADD57R,0.0787X0.0236*%
%ADD58O,0.0118X0.0590*%
%ADD59O,0.0110X0.0700*%
%ADD60R,0.0110X0.0700*%
%ADD61O,0.0700X0.0110*%
%ADD62R,0.0700X0.0110*%
%ADD63O,0.0984X0.0590*%
%ADD64O,0.0630X0.0236*%
%ADD65R,0.0630X0.0236*%
%ADD66O,0.0650X0.0256*%
%ADD67R,0.0320X0.0640*%
%ADD68R,0.0600X0.0700*%
%ADD69C,0.0276*%
%ADD70C,0.0100*%
%ADD71C,0.0050*%
%ADD72C,0.0276*%
%ADD73C,0.0080*%
%ADD74C,0.0250*%
%ADD75C,0.0276*%
%ADD76C,0.0500*%
%ADD77C,0.0120*%
%ADD78C,0.0276*%
%ADD79C,0.0060*%
%ADD80C,0.1000*%
*
G04 Plot Data ***
*
G54D70*
G01X0059108Y0001908D02*
X0059442D01*
X0059108Y0002242D01*
Y0002325D01*
X0059150Y0002408D01*
X0059400D01*
X0059442Y0002325D01*
X0059683Y0002408D02*
Y0001908D01*
X0059767Y0001992D01*
X0059933Y0002325D01*
X0060017Y0002408D01*
Y0001908D01*
X0060258D02*
X0060425D01*
X0060342D02*
Y0002408D01*
X0060258D02*
X0060425D01*
X0044649Y0026200D02*
Y0019500D01*
X0044559Y0026200D02*
Y0019500D01*
X0044469Y0026200D02*
Y0019500D01*
X0044379Y0026200D02*
Y0019500D01*
X0019989Y0026200D02*
Y0017494D01*
X0044289Y0026200D02*
Y0019500D01*
X0043659Y0026200D02*
Y0019500D01*
X0043479Y0026200D02*
Y0019500D01*
X0043389Y0026200D02*
Y0019500D01*
X0043299Y0026200D02*
Y0019500D01*
X0042669Y0026200D02*
Y0019500D01*
X0042579Y0026200D02*
Y0019760D01*
X0042489Y0026200D02*
Y0020218D01*
X0042399Y0026200D02*
Y0020497D01*
X0042309Y0026200D02*
Y0020714D01*
X0041679Y0026200D02*
Y0021631D01*
X0041589Y0026200D02*
Y0021719D01*
X0041499Y0026200D02*
Y0021801D01*
X0041409Y0026200D02*
Y0021877D01*
X0040689Y0026200D02*
Y0022320D01*
X0040599Y0026200D02*
Y0022359D01*
X0040419Y0026200D02*
Y0022427D01*
X0040329Y0026200D02*
Y0022456D01*
X0039699Y0026200D02*
Y0022585D01*
X0039609Y0026200D02*
Y0022593D01*
X0039519Y0026200D02*
Y0022599D01*
X0039429Y0026200D02*
Y0022600D01*
X0033754Y0020190D02*
X0015000D01*
X0027750Y0030900D02*
X0026450D01*
X0039339Y0026200D02*
Y0022600D01*
X0019900Y0010920D02*
X0015000D01*
X0037359Y0026200D02*
Y0022600D01*
X0037269Y0026200D02*
Y0022600D01*
X0036729Y0026200D02*
Y0022602D01*
X0036639Y0026200D02*
Y0022602D01*
X0036549Y0026200D02*
Y0022599D01*
X0036459Y0026200D02*
Y0022593D01*
X0036369Y0026200D02*
Y0022585D01*
X0036279Y0026200D02*
Y0022574D01*
X0033399Y0026200D02*
Y0019500D01*
X0022150Y0007410D02*
X0015000D01*
X0032499Y0026200D02*
Y0019500D01*
X0019900Y0011550D02*
X0015000D01*
X0020062Y-0001050D02*
X0012200D01*
X0023229Y0026200D02*
Y0019500D01*
X0023139Y0026200D02*
Y0019500D01*
X0023049Y0026200D02*
Y0019500D01*
X0022959Y0026200D02*
Y0019500D01*
X0022869Y0026200D02*
Y0019500D01*
X0022779Y0026200D02*
Y0019500D01*
X0022599Y0026200D02*
Y0019502D01*
X0022509Y0026200D02*
Y0019500D01*
X0022419Y0026200D02*
Y0019496D01*
X0022329Y0026200D02*
Y0019488D01*
X0022239Y0026200D02*
Y0019477D01*
X0022149Y0007488D02*
Y0005438D01*
X0022059Y0008039D02*
Y0005020D01*
X0021969Y0008292D02*
Y0004791D01*
X0021879Y0008481D02*
Y0004618D01*
X0021789Y0008634D02*
Y0004477D01*
X0021699Y0008765D02*
Y0004358D01*
X0021609Y0008879D02*
Y0004254D01*
X0021519Y0008980D02*
Y0004162D01*
X0021429Y0009070D02*
Y0004081D01*
X0021339Y0009151D02*
Y0004009D01*
X0021249Y0009224D02*
Y0003945D01*
X0021159Y0009289D02*
Y0003887D01*
X0021069Y0009349D02*
Y0003836D01*
X0020979Y0009402D02*
Y0003790D01*
X0020889Y0009450D02*
Y0003750D01*
X0020799Y0009494D02*
Y0003715D01*
X0020709Y0009532D02*
Y0003684D01*
X0020619Y0009567D02*
Y0003658D01*
X0020529Y0009597D02*
Y0003636D01*
X0020439Y0009623D02*
Y0003619D01*
X0020349Y0009645D02*
Y0003605D01*
X0020259Y0009663D02*
Y-0000674D01*
X0020169Y0009678D02*
Y-0000891D01*
X0020079Y0009689D02*
Y-0001028D01*
X0019989Y0009696D02*
Y-0001132D01*
X0019899Y0009700D02*
Y-0001213D01*
X0019809Y0026200D02*
Y-0001278D01*
X0019719Y0026200D02*
Y-0001330D01*
X0019629Y0026200D02*
Y-0001372D01*
X0019539Y0026200D02*
Y-0001404D01*
X0019449Y0026200D02*
Y-0001428D01*
X0019359Y0026200D02*
Y-0001443D01*
X0019269Y0026200D02*
Y-0001451D01*
X0019179Y0026200D02*
Y-0001451D01*
X0019089Y0026200D02*
Y-0001500D01*
X0018999Y0026200D02*
Y-0001500D01*
X0018909Y0026200D02*
Y-0001500D01*
X0018819Y0026200D02*
Y-0001500D01*
X0018729Y0026200D02*
Y-0001500D01*
X0018639Y0026200D02*
Y-0001500D01*
X0018549Y0026200D02*
Y-0001500D01*
X0018459Y0026200D02*
Y-0001500D01*
X0018369Y0026200D02*
Y-0001500D01*
X0018279Y0026200D02*
Y-0001500D01*
X0018189Y0026200D02*
Y-0001500D01*
X0018099Y0026200D02*
Y-0001500D01*
X0018009Y0026200D02*
Y-0001500D01*
X0017919Y0026200D02*
Y-0001500D01*
X0017829Y0026200D02*
Y-0001500D01*
X0017739Y0026200D02*
Y-0001500D01*
X0017649Y0026200D02*
Y-0001500D01*
X0017559Y0026200D02*
Y-0001500D01*
X0017469Y0026200D02*
Y-0001500D01*
X0017379Y0026200D02*
Y-0001500D01*
X0017289Y0026200D02*
Y-0001500D01*
X0017199Y0026200D02*
Y-0001500D01*
X0017109Y0026200D02*
Y-0001500D01*
X0017019Y0026200D02*
Y-0001500D01*
X0016929Y0026200D02*
Y-0001500D01*
X0016839Y0026200D02*
Y-0001500D01*
X0016749Y0026200D02*
Y-0001500D01*
X0016659Y0026200D02*
Y-0001500D01*
X0016569Y0026200D02*
Y-0001500D01*
X0016479Y0026200D02*
Y-0001500D01*
X0016389Y0026200D02*
Y-0001500D01*
X0016299Y0026200D02*
Y-0001500D01*
X0016209Y0026204D02*
Y-0001500D01*
X0016119Y0026201D02*
Y-0001500D01*
X0016029Y0026191D02*
Y-0001500D01*
X0015939Y0026174D02*
Y-0001500D01*
X0015849Y0026150D02*
Y-0001500D01*
X0015759Y0026119D02*
Y-0001500D01*
X0015669Y0026079D02*
Y-0001500D01*
X0015579Y0026029D02*
Y-0001500D01*
X0015489Y0025969D02*
Y-0001500D01*
X0015399Y0025896D02*
Y-0001500D01*
X0015309Y0025807D02*
Y-0001500D01*
X0015219Y0025695D02*
Y-0001500D01*
X0015129Y0025546D02*
Y-0001500D01*
X0015039Y0025315D02*
Y-0001500D01*
X0014949Y0002499D02*
Y-0001500D01*
X0014859Y0002409D02*
Y-0001500D01*
X0014769Y0002319D02*
Y-0001500D01*
X0014679Y0002229D02*
Y-0001500D01*
X0014589Y0002139D02*
Y-0001500D01*
X0014499Y0002049D02*
Y-0001500D01*
X0014409Y0001959D02*
Y-0001500D01*
X0014319Y0001869D02*
Y-0001500D01*
X0014229Y0001779D02*
Y-0001500D01*
X0014139Y0001689D02*
Y-0001500D01*
X0014049Y0001599D02*
Y-0001500D01*
X0013959Y0001509D02*
Y-0001500D01*
X0013869Y0001419D02*
Y-0001500D01*
X0013779Y0001329D02*
Y-0001500D01*
X0013689Y0001239D02*
Y-0001500D01*
X0013599Y0001149D02*
Y-0001500D01*
X0013509Y0001059D02*
Y-0001500D01*
X0013419Y0000969D02*
Y-0001500D01*
X0013329Y0000879D02*
Y-0001500D01*
X0013239Y0000789D02*
Y-0001500D01*
X0013149Y0000699D02*
Y-0001500D01*
X0033738Y0020100D02*
X0015000D01*
X0013059Y0000609D02*
Y-0001500D01*
X0012879Y0000429D02*
Y-0001500D01*
X0012789Y0000339D02*
Y-0001500D01*
X0012699Y0000249D02*
Y-0001500D01*
X0012609Y0000159D02*
Y-0001500D01*
X0012519Y0000069D02*
Y-0001500D01*
X0012969Y0000519D02*
Y-0001500D01*
X0027750Y0030000D02*
X0026450D01*
X0027615Y0032790D02*
X0026585D01*
X0027700Y0032700D02*
X0026500D01*
X0027740Y0032610D02*
X0026460D01*
X0027750Y0032520D02*
X0026450D01*
X0027750Y0032430D02*
X0026450D01*
X0027750Y0032340D02*
X0026450D01*
X0027750Y0032250D02*
X0026450D01*
X0027750Y0032160D02*
X0026450D01*
X0027750Y0032070D02*
X0026450D01*
X0027750Y0031890D02*
X0026450D01*
X0027750Y0031800D02*
X0026450D01*
X0027750Y0031620D02*
X0026450D01*
X0027750Y0031530D02*
X0026450D01*
X0027750Y0031440D02*
X0026450D01*
X0027750Y0031350D02*
X0026450D01*
X0027750Y0031260D02*
X0026450D01*
X0027750Y0031170D02*
X0026450D01*
X0027750Y0031080D02*
X0026450D01*
X0027750Y0030990D02*
X0026450D01*
X0027750Y0030720D02*
X0026450D01*
X0027750Y0030630D02*
X0026450D01*
X0027750Y0030540D02*
X0026450D01*
X0027750Y0030450D02*
X0026450D01*
X0027750Y0030360D02*
X0026450D01*
X0027750Y0030270D02*
X0026450D01*
X0012429Y-0000024D02*
Y-0001476D01*
X0027750Y0031710D02*
X0026450D01*
X0027750Y0029910D02*
X0026450D01*
X0027750Y0030090D02*
X0026450D01*
X0027750Y0029730D02*
X0026450D01*
X0027750Y0029550D02*
X0026450D01*
X0027750Y0029460D02*
X0026450D01*
X0027750Y0029370D02*
X0026450D01*
X0027750Y0029280D02*
X0026450D01*
X0027750Y0029190D02*
X0026450D01*
X0027750Y0029100D02*
X0026450D01*
X0027750Y0029010D02*
X0026450D01*
X0027750Y0028920D02*
X0026450D01*
X0027750Y0028830D02*
X0026450D01*
X0053950Y0024600D02*
X0015000D01*
X0027753Y0028560D02*
X0026448D01*
X0027760Y0028470D02*
X0026442D01*
X0027770Y0028380D02*
X0026433D01*
X0027783Y0028290D02*
X0026421D01*
X0027800Y0028200D02*
X0026405D01*
X0027820Y0028110D02*
X0026386D01*
X0027844Y0028020D02*
X0026363D01*
X0027871Y0027930D02*
X0026337D01*
X0027902Y0027840D02*
X0026306D01*
X0027937Y0027750D02*
X0026272D01*
X0027976Y0027660D02*
X0026234D01*
X0028020Y0027570D02*
X0026192D01*
X0028068Y0027480D02*
X0026145D01*
X0028121Y0027390D02*
X0026093D01*
X0028179Y0027300D02*
X0026035D01*
X0028242Y0027210D02*
X0025972D01*
X0028312Y0027120D02*
X0025903D01*
X0028389Y0027030D02*
X0025827D01*
X0028474Y0026940D02*
X0025743D01*
X0028568Y0026850D02*
X0025650D01*
X0028673Y0026760D02*
X0025546D01*
X0028791Y0026670D02*
X0025430D01*
X0028925Y0026580D02*
X0025297D01*
X0029081Y0026490D02*
X0025142D01*
X0053950Y0024330D02*
X0015000D01*
X0029516Y0026310D02*
X0024710D01*
X0029931Y0026220D02*
X0024297D01*
X0053517Y0026130D02*
X0015788D01*
X0053663Y0026040D02*
X0015596D01*
X0053759Y0025950D02*
X0015463D01*
X0053828Y0025860D02*
X0015360D01*
X0053878Y0025770D02*
X0015276D01*
X0053914Y0025680D02*
X0015208D01*
X0053950Y0025410D02*
X0015069D01*
X0053950Y0025320D02*
X0015040D01*
X0053950Y0025230D02*
X0015019D01*
X0053950Y0025140D02*
X0015004D01*
X0053950Y0025050D02*
X0014997D01*
X0053950Y0024960D02*
X0014996D01*
X0053950Y0024870D02*
X0015000D01*
X0053950Y0024780D02*
X0015000D01*
X0029270Y0026400D02*
X0024954D01*
X0053950Y0024510D02*
X0015000D01*
X0053950Y0024420D02*
X0015000D01*
X0024669Y0026297D02*
Y0019500D01*
X0053950Y0024240D02*
X0015000D01*
X0053950Y0024150D02*
X0015000D01*
X0053950Y0024060D02*
X0015000D01*
X0053950Y0023970D02*
X0015000D01*
X0053950Y0023880D02*
X0015000D01*
X0053950Y0023790D02*
X0015000D01*
X0053950Y0023700D02*
X0015000D01*
X0053950Y0023610D02*
X0015000D01*
X0053950Y0023520D02*
X0015000D01*
X0053950Y0023430D02*
X0015000D01*
X0053950Y0023340D02*
X0015000D01*
X0053950Y0023250D02*
X0015000D01*
X0053950Y0023160D02*
X0015000D01*
X0053950Y0023070D02*
X0015000D01*
X0053950Y0022980D02*
X0015000D01*
X0053950Y0022890D02*
X0015000D01*
X0053950Y0022800D02*
X0015000D01*
X0053950Y0022710D02*
X0015000D01*
X0053950Y0022620D02*
X0015000D01*
X0036035Y0022530D02*
X0015000D01*
X0035717Y0022440D02*
X0015000D01*
X0035486Y0022350D02*
X0015000D01*
X0035299Y0022260D02*
X0015000D01*
X0035140Y0022170D02*
X0015000D01*
X0035000Y0022080D02*
X0015000D01*
X0034875Y0021990D02*
X0015000D01*
X0034763Y0021900D02*
X0015000D01*
X0034661Y0021810D02*
X0015000D01*
X0034567Y0021720D02*
X0015000D01*
X0034481Y0021630D02*
X0015000D01*
X0034402Y0021540D02*
X0015000D01*
X0034329Y0021450D02*
X0015000D01*
X0034262Y0021360D02*
X0015000D01*
X0034200Y0021270D02*
X0015000D01*
X0034142Y0021180D02*
X0015000D01*
X0034089Y0021090D02*
X0015000D01*
X0034039Y0021000D02*
X0015000D01*
X0033994Y0020910D02*
X0015000D01*
X0033953Y0020820D02*
X0015000D01*
X0033915Y0020730D02*
X0015000D01*
X0033880Y0020640D02*
X0015000D01*
X0033849Y0020550D02*
X0015000D01*
X0033821Y0020460D02*
X0015000D01*
X0033795Y0020370D02*
X0015000D01*
X0021822Y0008580D02*
X0015000D01*
X0033773Y0020280D02*
X0015000D01*
X0012249Y-0000312D02*
Y-0001188D01*
X0053883Y0020280D02*
X0042471D01*
X0033714Y0019920D02*
X0015000D01*
X0033706Y0019830D02*
X0015000D01*
X0033700Y0019740D02*
X0015000D01*
X0033698Y0019650D02*
X0015000D01*
X0033698Y0019560D02*
X0015000D01*
X0022186Y0019470D02*
X0015000D01*
X0021798Y0019380D02*
X0015000D01*
X0021359Y0019200D02*
X0015000D01*
X0021198Y0019110D02*
X0015000D01*
X0021060Y0019020D02*
X0015000D01*
X0020938Y0018930D02*
X0015000D01*
X0020828Y0018840D02*
X0015000D01*
X0020730Y0018750D02*
X0015000D01*
X0020640Y0018660D02*
X0015000D01*
X0020559Y0018570D02*
X0015000D01*
X0020415Y0018390D02*
X0015000D01*
X0020353Y0018300D02*
X0015000D01*
X0020295Y0018210D02*
X0015000D01*
X0020242Y0018120D02*
X0015000D01*
X0020194Y0018030D02*
X0015000D01*
X0020150Y0017940D02*
X0015000D01*
X0020110Y0017850D02*
X0015000D01*
X0020074Y0017760D02*
X0015000D01*
X0020042Y0017670D02*
X0015000D01*
X0020013Y0017580D02*
X0015000D01*
X0019988Y0017490D02*
X0015000D01*
X0019965Y0017400D02*
X0015000D01*
X0019947Y0017310D02*
X0015000D01*
X0019931Y0017220D02*
X0015000D01*
X0019918Y0017130D02*
X0015000D01*
X0019909Y0017040D02*
X0015000D01*
X0019902Y0016950D02*
X0015000D01*
X0019899Y0016860D02*
X0015000D01*
X0019898Y0016770D02*
X0015000D01*
X0019900Y0016680D02*
X0015000D01*
X0019900Y0016590D02*
X0015000D01*
X0019900Y0016500D02*
X0015000D01*
X0019900Y0016410D02*
X0015000D01*
X0019900Y0016320D02*
X0015000D01*
X0019900Y0016230D02*
X0015000D01*
X0019900Y0010830D02*
X0015000D01*
X0019900Y0016140D02*
X0015000D01*
X0019900Y0016050D02*
X0015000D01*
X0019900Y0015960D02*
X0015000D01*
X0019900Y0015870D02*
X0015000D01*
X0019900Y0015780D02*
X0015000D01*
X0019900Y0015600D02*
X0015000D01*
X0019900Y0015510D02*
X0015000D01*
X0019900Y0015420D02*
X0015000D01*
X0019900Y0015330D02*
X0015000D01*
X0019900Y0015240D02*
X0015000D01*
X0019900Y0015150D02*
X0015000D01*
X0019900Y0015060D02*
X0015000D01*
X0019900Y0014970D02*
X0015000D01*
X0019900Y0014880D02*
X0015000D01*
X0019900Y0014790D02*
X0015000D01*
X0019900Y0014700D02*
X0015000D01*
X0019900Y0014610D02*
X0015000D01*
X0019900Y0014520D02*
X0015000D01*
X0019900Y0014430D02*
X0015000D01*
X0019900Y0014340D02*
X0015000D01*
X0019900Y0014250D02*
X0015000D01*
X0019900Y0014160D02*
X0015000D01*
X0019900Y0014070D02*
X0015000D01*
X0019900Y0013980D02*
X0015000D01*
X0019900Y0013890D02*
X0015000D01*
X0019900Y0013800D02*
X0015000D01*
X0019900Y0013710D02*
X0015000D01*
X0019900Y0013620D02*
X0015000D01*
X0019900Y0013530D02*
X0015000D01*
X0019900Y0013440D02*
X0015000D01*
X0019900Y0013350D02*
X0015000D01*
X0019900Y0013260D02*
X0015000D01*
X0019900Y0013170D02*
X0015000D01*
X0019900Y0013080D02*
X0015000D01*
X0019900Y0012990D02*
X0015000D01*
X0019900Y0012900D02*
X0015000D01*
X0019900Y0012810D02*
X0015000D01*
X0019900Y0012720D02*
X0015000D01*
X0019900Y0012630D02*
X0015000D01*
X0019900Y0012540D02*
X0015000D01*
X0019900Y0012450D02*
X0015000D01*
X0019900Y0012360D02*
X0015000D01*
X0019900Y0012270D02*
X0015000D01*
X0019900Y0012180D02*
X0015000D01*
X0019900Y0012090D02*
X0015000D01*
X0019900Y0012000D02*
X0015000D01*
X0019900Y0011910D02*
X0015000D01*
X0019900Y0011820D02*
X0015000D01*
X0019900Y0011730D02*
X0015000D01*
X0019900Y0011460D02*
X0015000D01*
X0019900Y0011370D02*
X0015000D01*
X0019900Y0011280D02*
X0015000D01*
X0019900Y0011190D02*
X0015000D01*
X0019900Y0011100D02*
X0015000D01*
X0019900Y0011010D02*
X0015000D01*
X0019900Y0010740D02*
X0015000D01*
X0019900Y0010650D02*
X0015000D01*
X0019900Y0010560D02*
X0015000D01*
X0019900Y0010470D02*
X0015000D01*
X0019900Y0010380D02*
X0015000D01*
X0019900Y0010290D02*
X0015000D01*
X0019900Y0010200D02*
X0015000D01*
X0019900Y0010110D02*
X0015000D01*
X0019900Y0010020D02*
X0015000D01*
X0019900Y0009750D02*
X0015000D01*
X0020275Y0009660D02*
X0015000D01*
X0020609Y0009570D02*
X0015000D01*
X0020829Y0009480D02*
X0015000D01*
X0021000Y0009390D02*
X0015000D01*
X0021703Y0008760D02*
X0015000D01*
X0021766Y0008670D02*
X0015000D01*
X0021874Y0008490D02*
X0015000D01*
X0021920Y0008400D02*
X0015000D01*
X0021961Y0008310D02*
X0015000D01*
X0021998Y0008220D02*
X0015000D01*
X0022030Y0008130D02*
X0015000D01*
X0022058Y0008040D02*
X0015000D01*
X0022103Y0007860D02*
X0015000D01*
X0022120Y0007770D02*
X0015000D01*
X0020484Y0018480D02*
X0015000D01*
X0022133Y0007680D02*
X0015000D01*
X0022142Y0007590D02*
X0015000D01*
X0022148Y0007500D02*
X0015000D01*
X0022150Y0007320D02*
X0015000D01*
X0022689Y0026200D02*
Y0019500D01*
X0022150Y0007050D02*
X0015000D01*
X0022150Y0006870D02*
X0015000D01*
X0022150Y0006780D02*
X0015000D01*
X0022150Y0006690D02*
X0015000D01*
X0022150Y0006600D02*
X0015000D01*
X0022150Y0006510D02*
X0015000D01*
X0022150Y0006420D02*
X0015000D01*
X0022150Y0006330D02*
X0015000D01*
X0022150Y0006240D02*
X0015000D01*
X0022150Y0006150D02*
X0015000D01*
X0022150Y0005880D02*
X0015000D01*
X0022150Y0005790D02*
X0015000D01*
X0022150Y0005700D02*
X0015000D01*
X0022150Y0005610D02*
X0015000D01*
X0022150Y0005520D02*
X0015000D01*
X0022148Y0005430D02*
X0015000D01*
X0022135Y0005340D02*
X0015000D01*
X0022119Y0005250D02*
X0015000D01*
X0022099Y0005160D02*
X0015000D01*
X0022011Y0004890D02*
X0015000D01*
X0021973Y0004800D02*
X0015000D01*
X0021879Y0004620D02*
X0015000D01*
X0021824Y0004530D02*
X0015000D01*
X0021762Y0004440D02*
X0015000D01*
X0021692Y0004350D02*
X0015000D01*
X0021614Y0004260D02*
X0015000D01*
X0021526Y0004170D02*
X0015000D01*
X0021427Y0004080D02*
X0015000D01*
X0021179Y0003900D02*
X0015000D01*
X0021019Y0003810D02*
X0015000D01*
X0020813Y0003720D02*
X0015000D01*
X0020498Y0003630D02*
X0015000D01*
X0020300Y0003540D02*
X0015000D01*
X0020300Y0003450D02*
X0015000D01*
X0020300Y0003360D02*
X0015000D01*
X0019899Y0016856D02*
Y0016744D01*
X0020300Y0002730D02*
X0015000D01*
X0020300Y0002640D02*
X0015000D01*
X0020300Y0002550D02*
X0015000D01*
X0020300Y0002460D02*
X0014910D01*
X0020300Y0002370D02*
X0014820D01*
X0020300Y0002280D02*
X0014730D01*
X0020300Y0002190D02*
X0014640D01*
X0020300Y0002100D02*
X0014550D01*
X0020300Y0002010D02*
X0014460D01*
X0020300Y0001920D02*
X0014370D01*
X0020300Y0001830D02*
X0014280D01*
X0020300Y0001740D02*
X0014190D01*
X0020300Y0001650D02*
X0014100D01*
X0020300Y0001560D02*
X0014010D01*
X0020300Y0001470D02*
X0013920D01*
X0020300Y0001380D02*
X0013830D01*
X0020300Y0001290D02*
X0013740D01*
X0020300Y0001200D02*
X0013650D01*
X0020300Y0001110D02*
X0013560D01*
X0020300Y0001020D02*
X0013470D01*
X0020300Y0000930D02*
X0013380D01*
X0020300Y0000840D02*
X0013290D01*
X0020300Y0000750D02*
X0013200D01*
X0020300Y0000660D02*
X0013110D01*
X0020300Y0000570D02*
X0013020D01*
X0020300Y0000480D02*
X0012930D01*
X0020300Y0000390D02*
X0012840D01*
X0020300Y0000300D02*
X0012750D01*
X0020300Y0000210D02*
X0012660D01*
X0020300Y0000120D02*
X0012570D01*
X0020300Y0000030D02*
X0012480D01*
X0020300Y-0000060D02*
X0012399D01*
X0020300Y-0000150D02*
X0012334D01*
X0020300Y-0000240D02*
X0012283D01*
X0020301Y-0000330D02*
X0012241D01*
X0020277Y-0000600D02*
X0012169D01*
X0020254Y-0000690D02*
X0012160D01*
X0020221Y-0000780D02*
X0012159D01*
X0020180Y-0000870D02*
X0012165D01*
X0020127Y-0000960D02*
X0012179D01*
X0053829Y0025859D02*
Y0020154D01*
X0019980Y-0001140D02*
X0012229D01*
X0021929Y0004710D02*
X0015000D01*
X0020301Y-0000420D02*
X0012209D01*
X0037449Y0026200D02*
Y0022600D01*
X0023319Y0026200D02*
Y0019500D01*
X0048789Y0026200D02*
Y0019500D01*
X0019150Y-0001500D02*
X0012600D01*
X0019150Y-0001450D02*
Y-0001500D01*
X0020300Y0003600D02*
Y-0000300D01*
X0022150Y0007450D02*
Y0005450D01*
X0019900Y0016700D02*
Y0009700D01*
X0033700Y0019500D02*
X0022700D01*
X0039500Y0022600D02*
X0036800D01*
X0052850Y0019500D02*
X0042600D01*
X0053950Y0025400D02*
Y0020600D01*
X0053150Y0026200D02*
X0030200D01*
X0027750Y0032550D02*
Y0028650D01*
X0027450Y0032850D02*
X0026750D01*
X0026450Y0032550D02*
Y0028700D01*
Y0028670D01*
X0023950Y0026200D02*
X0016300D01*
X0015000Y0024900D02*
Y0002550D01*
X0012450Y0000000D01*
X0012600Y-0001500D02*
X0012450D01*
X0053559Y0026109D02*
Y0019799D01*
X0053469Y0026150D02*
Y0019726D01*
X0053379Y0026179D02*
Y0019666D01*
X0053289Y0026196D02*
Y0019617D01*
X0053199Y0026201D02*
Y0019578D01*
X0053109Y0026200D02*
Y0019547D01*
X0019900Y0011640D02*
X0015000D01*
X0053019Y0026200D02*
Y0019524D01*
X0047529Y0026200D02*
Y0019500D01*
X0047439Y0026200D02*
Y0019500D01*
X0047349Y0026200D02*
Y0019500D01*
X0046719Y0026200D02*
Y0019500D01*
X0046629Y0026200D02*
Y0019500D01*
X0046539Y0026200D02*
Y0019500D01*
X0046449Y0026200D02*
Y0019500D01*
X0046359Y0026200D02*
Y0019500D01*
X0046269Y0026200D02*
Y0019500D01*
X0045729Y0026200D02*
Y0019500D01*
X0045639Y0026200D02*
Y0019500D01*
X0045549Y0026200D02*
Y0019500D01*
X0045459Y0026200D02*
Y0019500D01*
X0045369Y0026200D02*
Y0019500D01*
X0045279Y0026200D02*
Y0019500D01*
X0020300Y0003180D02*
X0015000D01*
X0020300Y0003090D02*
X0015000D01*
X0020300Y0003000D02*
X0015000D01*
X0053949Y0025500D02*
X0015106D01*
X0045099Y0026200D02*
Y0019500D01*
X0044739Y0026200D02*
Y0019500D01*
X0043749Y0026200D02*
Y0019500D01*
X0036819Y0026200D02*
Y0022600D01*
X0044109Y0026200D02*
Y0019500D01*
X0039159Y0026200D02*
Y0022600D01*
X0028629Y0026797D02*
Y0019500D01*
X0028539Y0026877D02*
Y0019500D01*
X0028449Y0026966D02*
Y0019500D01*
X0028359Y0027065D02*
Y0019500D01*
X0028269Y0027175D02*
Y0019500D01*
X0028179Y0027300D02*
Y0019500D01*
X0028089Y0027443D02*
Y0019500D01*
X0027999Y0027613D02*
Y0019500D01*
X0027819Y0028117D02*
Y0019500D01*
X0027729Y0032643D02*
Y0019500D01*
X0027639Y0032771D02*
Y0019500D01*
X0027549Y0032826D02*
Y0019500D01*
X0027369Y0032850D02*
Y0019500D01*
X0027279Y0032850D02*
Y0019500D01*
X0027189Y0032850D02*
Y0019500D01*
X0027099Y0032850D02*
Y0019500D01*
X0027009Y0032850D02*
Y0019500D01*
X0026919Y0032850D02*
Y0019500D01*
X0026829Y0032850D02*
Y0019500D01*
X0026739Y0032849D02*
Y0019500D01*
X0026649Y0032825D02*
Y0019500D01*
X0026559Y0032769D02*
Y0019500D01*
X0026469Y0032636D02*
Y0019500D01*
X0026379Y0028080D02*
Y0019500D01*
X0026289Y0027791D02*
Y0019500D01*
X0026199Y0027584D02*
Y0019500D01*
X0026109Y0027417D02*
Y0019500D01*
X0026019Y0027275D02*
Y0019500D01*
X0025929Y0027152D02*
Y0019500D01*
X0025839Y0027043D02*
Y0019500D01*
X0025749Y0026945D02*
Y0019500D01*
X0025659Y0026858D02*
Y0019500D01*
X0025569Y0026778D02*
Y0019500D01*
X0025479Y0026706D02*
Y0019500D01*
X0025389Y0026641D02*
Y0019500D01*
X0025299Y0026581D02*
Y0019500D01*
X0025209Y0026527D02*
Y0019500D01*
X0025119Y0026478D02*
Y0019500D01*
X0025029Y0026433D02*
Y0019500D01*
X0024939Y0026393D02*
Y0019500D01*
X0024849Y0026357D02*
Y0019500D01*
X0024759Y0026325D02*
Y0019500D01*
X0027459Y0032849D02*
Y0019500D01*
X0024579Y0026273D02*
Y0019500D01*
X0024489Y0026252D02*
Y0019500D01*
X0024399Y0026235D02*
Y0019500D01*
X0024309Y0026221D02*
Y0019500D01*
X0024219Y0026211D02*
Y0019500D01*
X0024129Y0026204D02*
Y0019500D01*
X0024039Y0026200D02*
Y0019500D01*
X0023949Y0026200D02*
Y0019500D01*
X0023859Y0026200D02*
Y0019500D01*
X0023769Y0026200D02*
Y0019500D01*
X0023679Y0026200D02*
Y0019500D01*
X0023589Y0026200D02*
Y0019500D01*
X0023499Y0026200D02*
Y0019500D01*
X0023409Y0026200D02*
Y0019500D01*
X0019900Y0015690D02*
X0015000D01*
X0053911Y0020370D02*
X0042443D01*
X0053932Y0020460D02*
X0042412D01*
X0053945Y0020550D02*
X0042378D01*
X0053950Y0020640D02*
X0042342D01*
X0053950Y0020730D02*
X0042301D01*
X0053950Y0020820D02*
X0042258D01*
X0053950Y0020910D02*
X0042211D01*
X0053950Y0021000D02*
X0042160D01*
X0053950Y0021090D02*
X0042106D01*
X0053950Y0021180D02*
X0042047D01*
X0053950Y0021270D02*
X0041984D01*
X0053950Y0021360D02*
X0041916D01*
X0053950Y0021450D02*
X0041843D01*
X0053950Y0021540D02*
X0041764D01*
X0053950Y0021630D02*
X0041679D01*
X0053950Y0021720D02*
X0041588D01*
X0053950Y0021810D02*
X0041488D01*
X0053950Y0021900D02*
X0041380D01*
X0053950Y0021990D02*
X0041261D01*
X0053950Y0022080D02*
X0041130D01*
X0053950Y0022170D02*
X0040983D01*
X0053950Y0022260D02*
X0040816D01*
X0053950Y0022350D02*
X0040620D01*
X0053950Y0022440D02*
X0040380D01*
X0053950Y0022530D02*
X0040049D01*
X0052929Y0026200D02*
Y0019508D01*
X0052839Y0026200D02*
Y0019500D01*
X0052749Y0026200D02*
Y0019500D01*
X0052659Y0026200D02*
Y0019500D01*
X0052569Y0026200D02*
Y0019500D01*
X0052479Y0026200D02*
Y0019500D01*
X0052389Y0026200D02*
Y0019500D01*
X0052299Y0026200D02*
Y0019500D01*
X0052209Y0026200D02*
Y0019500D01*
X0052119Y0026200D02*
Y0019500D01*
X0052029Y0026200D02*
Y0019500D01*
X0051939Y0026200D02*
Y0019500D01*
X0051849Y0026200D02*
Y0019500D01*
X0051759Y0026200D02*
Y0019500D01*
X0051579Y0026200D02*
Y0019500D01*
X0051489Y0026200D02*
Y0019500D01*
X0051399Y0026200D02*
Y0019500D01*
X0051309Y0026200D02*
Y0019500D01*
X0051219Y0026200D02*
Y0019500D01*
X0051129Y0026200D02*
Y0019500D01*
X0051039Y0026200D02*
Y0019500D01*
X0050949Y0026200D02*
Y0019500D01*
X0050859Y0026200D02*
Y0019500D01*
X0050769Y0026200D02*
Y0019500D01*
X0050679Y0026200D02*
Y0019500D01*
X0050589Y0026200D02*
Y0019500D01*
X0050409Y0026200D02*
Y0019500D01*
X0050319Y0026200D02*
Y0019500D01*
X0050229Y0026200D02*
Y0019500D01*
X0050139Y0026200D02*
Y0019500D01*
X0050049Y0026200D02*
Y0019500D01*
X0049959Y0026200D02*
Y0019500D01*
X0049869Y0026200D02*
Y0019500D01*
X0049779Y0026200D02*
Y0019500D01*
X0049689Y0026200D02*
Y0019500D01*
X0049599Y0026200D02*
Y0019500D01*
X0049509Y0026200D02*
Y0019500D01*
X0049419Y0026200D02*
Y0019500D01*
X0049329Y0026200D02*
Y0019500D01*
X0049239Y0026200D02*
Y0019500D01*
X0049149Y0026200D02*
Y0019500D01*
X0049059Y0026200D02*
Y0019500D01*
X0048969Y0026200D02*
Y0019500D01*
X0051669Y0026200D02*
Y0019500D01*
X0048699Y0026200D02*
Y0019500D01*
X0048609Y0026200D02*
Y0019500D01*
X0048519Y0026200D02*
Y0019500D01*
X0048429Y0026200D02*
Y0019500D01*
X0048339Y0026200D02*
Y0019500D01*
X0048249Y0026200D02*
Y0019500D01*
X0048159Y0026200D02*
Y0019500D01*
X0048069Y0026200D02*
Y0019500D01*
X0047979Y0026200D02*
Y0019500D01*
X0047889Y0026200D02*
Y0019500D01*
X0047799Y0026200D02*
Y0019500D01*
X0047709Y0026200D02*
Y0019500D01*
X0050499Y0026200D02*
Y0019500D01*
X0027750Y0030810D02*
X0026450D01*
X0040509Y0026200D02*
Y0022394D01*
X0027750Y0031980D02*
X0026450D01*
X0019519Y-0001410D02*
X0012376D01*
X0030339Y0026200D02*
Y0019500D01*
X0053950Y0024690D02*
X0015000D01*
X0033724Y0020010D02*
X0015000D01*
X0053846Y0020190D02*
X0042496D01*
X0027750Y0029820D02*
X0026450D01*
X0019877Y-0001230D02*
X0012268D01*
X0053739Y0025971D02*
Y0020002D01*
X0027750Y0030180D02*
X0026450D01*
X0019738Y-0001320D02*
X0012316D01*
X0027909Y0027823D02*
Y0019500D01*
X0047619Y0026200D02*
Y0019500D01*
X0022150Y0007230D02*
X0015000D01*
X0033489Y0026200D02*
Y0019500D01*
X0020079Y0026200D02*
Y0017771D01*
X0020169Y0026200D02*
Y0017978D01*
X0020259Y0026200D02*
Y0018148D01*
X0020349Y0026200D02*
Y0018294D01*
X0020439Y0026200D02*
Y0018421D01*
X0020529Y0026200D02*
Y0018535D01*
X0020619Y0026200D02*
Y0018637D01*
X0020709Y0026200D02*
Y0018729D01*
X0020799Y0026200D02*
Y0018814D01*
X0020889Y0026200D02*
Y0018891D01*
X0020979Y0026200D02*
Y0018961D01*
X0021069Y0026200D02*
Y0019026D01*
X0021159Y0026200D02*
Y0019085D01*
X0021249Y0026200D02*
Y0019139D01*
X0021339Y0026200D02*
Y0019189D01*
X0021429Y0026200D02*
Y0019235D01*
X0021519Y0026200D02*
Y0019276D01*
X0020300Y0002910D02*
X0015000D01*
X0021789Y0026200D02*
Y0019377D01*
X0021609Y0026200D02*
Y0019313D01*
X0021699Y0026200D02*
Y0019347D01*
X0021879Y0026200D02*
Y0019404D01*
X0022149Y0026200D02*
Y0019464D01*
X0021969Y0026200D02*
Y0019427D01*
X0022059Y0026200D02*
Y0019447D01*
X0021143Y0009300D02*
X0015000D01*
X0034659Y0026200D02*
Y0021808D01*
X0021266Y0009210D02*
X0015000D01*
X0031419Y0026200D02*
Y0019500D01*
X0033579Y0026200D02*
Y0019500D01*
X0021374Y0009120D02*
X0015000D01*
X0030429Y0026200D02*
Y0019500D01*
X0021470Y0009030D02*
X0015000D01*
X0021556Y0008940D02*
X0015000D01*
X0021633Y0008850D02*
X0015000D01*
X0022150Y0006960D02*
X0015000D01*
X0022150Y0006060D02*
X0015000D01*
X0029439Y0026335D02*
Y0019500D01*
X0022150Y0007140D02*
X0015000D01*
X0022150Y0005970D02*
X0015000D01*
X0032409Y0026200D02*
Y0019500D01*
X0022074Y0005070D02*
X0015000D01*
X0022045Y0004980D02*
X0015000D01*
X0020300Y0002820D02*
X0015000D01*
X0021313Y0003990D02*
X0015000D01*
X0032589Y0026200D02*
Y0019500D01*
X0020300Y0003270D02*
X0015000D01*
X0020293Y-0000510D02*
X0012185D01*
X0032319Y0026200D02*
Y0019500D01*
X0029349Y0026368D02*
Y0019500D01*
X0028719Y0026724D02*
Y0019500D01*
X0032679Y0026200D02*
Y0019500D01*
X0041319Y0026200D02*
Y0021947D01*
X0048879Y0026200D02*
Y0019500D01*
X0053800Y0020100D02*
X0042518D01*
X0037809Y0026200D02*
Y0022600D01*
X0039069Y0026200D02*
Y0022600D01*
X0038979Y0026200D02*
Y0022600D01*
X0038889Y0026200D02*
Y0022600D01*
X0053744Y0020010D02*
X0042538D01*
X0038709Y0026200D02*
Y0022600D01*
X0038619Y0026200D02*
Y0022600D01*
X0038529Y0026200D02*
Y0022600D01*
X0038439Y0026200D02*
Y0022600D01*
X0038349Y0026200D02*
Y0022600D01*
X0038259Y0026200D02*
Y0022600D01*
X0038169Y0026200D02*
Y0022600D01*
X0038079Y0026200D02*
Y0022600D01*
X0037989Y0026200D02*
Y0022600D01*
X0037899Y0026200D02*
Y0022600D01*
X0037719Y0026200D02*
Y0022600D01*
X0037629Y0026200D02*
Y0022600D01*
X0037539Y0026200D02*
Y0022600D01*
X0038799Y0026200D02*
Y0022600D01*
X0053675Y0019920D02*
X0042555D01*
X0053592Y0019830D02*
X0042569D01*
X0053487Y0019740D02*
X0042581D01*
X0053350Y0019650D02*
X0042590D01*
X0053149Y0019560D02*
X0042597D01*
X0033309Y0026200D02*
Y0019500D01*
X0034299Y0026200D02*
Y0021410D01*
X0034569Y0026200D02*
Y0021721D01*
X0031689Y0026200D02*
Y0019500D01*
X0031599Y0026200D02*
Y0019500D01*
X0031509Y0026200D02*
Y0019500D01*
X0031329Y0026200D02*
Y0019500D01*
X0030609Y0026200D02*
Y0019500D01*
X0030519Y0026200D02*
Y0019500D01*
X0022083Y0007950D02*
X0015000D01*
X0029709Y0026259D02*
Y0019500D01*
X0029619Y0026281D02*
Y0019500D01*
X0029529Y0026306D02*
Y0019500D01*
X0019900Y0009840D02*
X0015000D01*
X0030699Y0026200D02*
Y0019500D01*
X0019900Y0009930D02*
X0015000D01*
X0035649Y0026200D02*
Y0022416D01*
X0034389Y0026200D02*
Y0021523D01*
X0035379Y0026200D02*
Y0022300D01*
X0043569Y0026200D02*
Y0019500D01*
X0033669Y0026200D02*
Y0019500D01*
X0035559Y0026200D02*
Y0022380D01*
X0035469Y0026200D02*
Y0022342D01*
X0034479Y0026200D02*
Y0021627D01*
X0043929Y0026200D02*
Y0019500D01*
X0044199Y0026200D02*
Y0019500D01*
X0044019Y0026200D02*
Y0019500D01*
X0043839Y0026200D02*
Y0019500D01*
X0044919Y0026200D02*
Y0019500D01*
X0045189Y0026200D02*
Y0019500D01*
X0045009Y0026200D02*
Y0019500D01*
X0044829Y0026200D02*
Y0019500D01*
X0045999Y0026200D02*
Y0019500D01*
X0045909Y0026200D02*
Y0019500D01*
X0045819Y0026200D02*
Y0019500D01*
X0046179Y0026200D02*
Y0019500D01*
X0046089Y0026200D02*
Y0019500D01*
X0047259Y0026200D02*
Y0019500D01*
X0047169Y0026200D02*
Y0019500D01*
X0047079Y0026200D02*
Y0019500D01*
X0046989Y0026200D02*
Y0019500D01*
X0046899Y0026200D02*
Y0019500D01*
X0046809Y0026200D02*
Y0019500D01*
X0034749Y0026200D02*
Y0021888D01*
X0032949Y0026200D02*
Y0019500D01*
X0037179Y0026200D02*
Y0022600D01*
X0035109Y0026200D02*
Y0022151D01*
X0035739Y0026200D02*
Y0022447D01*
X0033759Y0026200D02*
Y0020212D01*
X0030879Y0026200D02*
Y0019500D01*
X0028899Y0026596D02*
Y0019500D01*
X0032139Y0026200D02*
Y0019500D01*
X0028989Y0026541D02*
Y0019500D01*
X0035289Y0026200D02*
Y0022254D01*
X0027750Y0028650D02*
X0026450D01*
X0053937Y0025590D02*
X0015152D01*
X0027750Y0028740D02*
X0026450D01*
X0021551Y0019290D02*
X0015000D01*
X0053919Y0025666D02*
Y0020399D01*
X0012339Y-0000143D02*
Y-0001356D01*
X0027750Y0029640D02*
X0026450D01*
X0053649Y0026051D02*
Y0019889D01*
X0031059Y0026200D02*
Y0019500D01*
X0031779Y0026200D02*
Y0019500D01*
X0031149Y0026200D02*
Y0019500D01*
X0030789Y0026200D02*
Y0019500D01*
X0029799Y0026241D02*
Y0019500D01*
X0031239Y0026200D02*
Y0019500D01*
X0030159Y0026201D02*
Y0019500D01*
X0030249Y0026200D02*
Y0019500D01*
X0028809Y0026657D02*
Y0019500D01*
X0029259Y0026405D02*
Y0019500D01*
X0031959Y0026200D02*
Y0019500D01*
X0029889Y0026226D02*
Y0019500D01*
X0029169Y0026446D02*
Y0019500D01*
X0029079Y0026491D02*
Y0019500D01*
X0030069Y0026206D02*
Y0019500D01*
X0029979Y0026214D02*
Y0019500D01*
X0032229Y0026200D02*
Y0019500D01*
X0032049Y0026200D02*
Y0019500D01*
X0031869Y0026200D02*
Y0019500D01*
X0030969Y0026200D02*
Y0019500D01*
X0032769Y0026200D02*
Y0019500D01*
X0033039Y0026200D02*
Y0019500D01*
X0032859Y0026200D02*
Y0019500D01*
X0033219Y0026200D02*
Y0019500D01*
X0033129Y0026200D02*
Y0019500D01*
X0034209Y0026200D02*
Y0021283D01*
X0034119Y0026200D02*
Y0021141D01*
X0034029Y0026200D02*
Y0020979D01*
X0033939Y0026200D02*
Y0020788D01*
X0033849Y0026200D02*
Y0020550D01*
X0034929Y0026200D02*
Y0022030D01*
X0035199Y0026200D02*
Y0022205D01*
X0035019Y0026200D02*
Y0022093D01*
X0034839Y0026200D02*
Y0021961D01*
X0036189Y0026200D02*
Y0022560D01*
X0036099Y0026200D02*
Y0022543D01*
X0036009Y0026200D02*
Y0022524D01*
X0035919Y0026200D02*
Y0022501D01*
X0035829Y0026200D02*
Y0022476D01*
X0037089Y0026200D02*
Y0022600D01*
X0036909Y0026200D02*
Y0022600D01*
X0042939Y0026200D02*
Y0019500D01*
X0043209Y0026200D02*
Y0019500D01*
X0043029Y0026200D02*
Y0019500D01*
X0042849Y0026200D02*
Y0019500D01*
X0041949Y0026200D02*
Y0021317D01*
X0042759Y0026200D02*
Y0019500D01*
X0042219Y0026200D02*
Y0020895D01*
X0042039Y0026200D02*
Y0021192D01*
X0041859Y0026200D02*
Y0021431D01*
X0043119Y0026200D02*
Y0019500D01*
X0040959Y0026200D02*
Y0022184D01*
X0041769Y0026200D02*
Y0021535D01*
X0041229Y0026200D02*
Y0022013D01*
X0041049Y0026200D02*
Y0022131D01*
X0040869Y0026200D02*
Y0022233D01*
X0042129Y0026200D02*
Y0021053D01*
X0039969Y0026200D02*
Y0022546D01*
X0040779Y0026200D02*
Y0022278D01*
X0040239Y0026200D02*
Y0022483D01*
X0040059Y0026200D02*
Y0022528D01*
X0039879Y0026200D02*
Y0022562D01*
X0041139Y0026200D02*
Y0022074D01*
X0039789Y0026200D02*
Y0022575D01*
X0039249Y0026200D02*
Y0022600D01*
X0040149Y0026200D02*
Y0022507D01*
X0036999Y0026200D02*
Y0022600D01*
X0031234Y0003384D02*
X0025034D01*
X0033930Y0008400D02*
Y0005400D01*
X0028200Y-0000305D02*
X0024300D01*
X0035460Y0008015D02*
Y0005780D01*
X0035370Y0008129D02*
Y0005666D01*
X0035280Y0008213D02*
Y0005583D01*
X0035190Y0008276D02*
Y0005521D01*
X0035100Y0008324D02*
Y0005474D01*
X0029970Y0008320D02*
Y0002120D01*
X0024390Y0002740D02*
Y-0001047D01*
X0024300Y0002650D02*
Y-0000700D01*
X0030050Y0008400D02*
X0024300Y0002650D01*
X0034650Y0008400D02*
X0030050D01*
X0035600Y0007450D02*
Y0006300D01*
X0034700Y0005400D02*
X0033250D01*
X0028200Y0000350D01*
Y-0000800D01*
X0027350Y-0001650D02*
X0025250D01*
X0028200Y-0000215D02*
X0024300D01*
X0035550Y0007838D02*
Y0005958D01*
X0034920Y0008384D02*
Y0005416D01*
X0034830Y0008399D02*
Y0005402D01*
X0034740Y0008404D02*
Y0005398D01*
X0034650Y0008400D02*
Y0005400D01*
X0034560Y0008400D02*
Y0005400D01*
X0034470Y0008400D02*
Y0005400D01*
X0034380Y0008400D02*
Y0005400D01*
X0034290Y0008400D02*
Y0005400D01*
X0034200Y0008400D02*
Y0005400D01*
X0034110Y0008400D02*
Y0005400D01*
X0034020Y0008400D02*
Y0005400D01*
X0028203Y-0000935D02*
X0024346D01*
X0033840Y0008400D02*
Y0005400D01*
X0033750Y0008400D02*
Y0005400D01*
X0033660Y0008400D02*
Y0005400D01*
X0033570Y0008400D02*
Y0005400D01*
X0033480Y0008400D02*
Y0005400D01*
X0033300Y0008400D02*
Y0005400D01*
X0033210Y0008400D02*
Y0005360D01*
X0033120Y0008400D02*
Y0005270D01*
X0033030Y0008400D02*
Y0005180D01*
X0032940Y0008400D02*
Y0005090D01*
X0032850Y0008400D02*
Y0005000D01*
X0032760Y0008400D02*
Y0004910D01*
X0032670Y0008400D02*
Y0004820D01*
X0032580Y0008400D02*
Y0004730D01*
X0032490Y0008400D02*
Y0004640D01*
X0032400Y0008400D02*
Y0004550D01*
X0032310Y0008400D02*
Y0004460D01*
X0032220Y0008400D02*
Y0004370D01*
X0032130Y0008400D02*
Y0004280D01*
X0032040Y0008400D02*
Y0004190D01*
X0031950Y0008400D02*
Y0004100D01*
X0031860Y0008400D02*
Y0004010D01*
X0031770Y0008400D02*
Y0003920D01*
X0031680Y0008400D02*
Y0003830D01*
X0031590Y0008400D02*
Y0003740D01*
X0031500Y0008400D02*
Y0003650D01*
X0031410Y0008400D02*
Y0003560D01*
X0031320Y0008400D02*
Y0003470D01*
X0031230Y0008400D02*
Y0003380D01*
X0031140Y0008400D02*
Y0003290D01*
X0031050Y0008400D02*
Y0003200D01*
X0030960Y0008400D02*
Y0003110D01*
X0030870Y0008400D02*
Y0003020D01*
X0030780Y0008400D02*
Y0002930D01*
X0030690Y0008400D02*
Y0002840D01*
X0030600Y0008400D02*
Y0002750D01*
X0030510Y0008400D02*
Y0002660D01*
X0030420Y0008400D02*
Y0002570D01*
X0030330Y0008400D02*
Y0002480D01*
X0030240Y0008400D02*
Y0002390D01*
X0030150Y0008400D02*
Y0002300D01*
X0030060Y0008400D02*
Y0002210D01*
X0029880Y0008230D02*
Y0002030D01*
X0029790Y0008140D02*
Y0001940D01*
X0029700Y0008050D02*
Y0001850D01*
X0029610Y0007960D02*
Y0001760D01*
X0029520Y0007870D02*
Y0001670D01*
X0029430Y0007780D02*
Y0001580D01*
X0029340Y0007690D02*
Y0001490D01*
X0029250Y0007600D02*
Y0001400D01*
X0029160Y0007510D02*
Y0001310D01*
X0029070Y0007420D02*
Y0001220D01*
X0028980Y0007330D02*
Y0001130D01*
X0028890Y0007240D02*
Y0001040D01*
X0028800Y0007150D02*
Y0000950D01*
X0028710Y0007060D02*
Y0000860D01*
X0028620Y0006970D02*
Y0000770D01*
X0028530Y0006880D02*
Y0000680D01*
X0028440Y0006790D02*
Y0000590D01*
X0028350Y0006700D02*
Y0000500D01*
X0028260Y0006610D02*
Y0000410D01*
X0028170Y0006520D02*
Y-0001117D01*
X0028080Y0006430D02*
Y-0001307D01*
X0027990Y0006340D02*
Y-0001420D01*
X0027900Y0006250D02*
Y-0001500D01*
X0027810Y0006160D02*
Y-0001559D01*
X0027720Y0006070D02*
Y-0001601D01*
X0027630Y0005980D02*
Y-0001631D01*
X0027540Y0005890D02*
Y-0001648D01*
X0027450Y0005800D02*
Y-0001655D01*
X0027360Y0005710D02*
Y-0001651D01*
X0027270Y0005620D02*
Y-0001650D01*
X0027180Y0005530D02*
Y-0001650D01*
X0027090Y0005440D02*
Y-0001650D01*
X0027000Y0005350D02*
Y-0001650D01*
X0026910Y0005260D02*
Y-0001650D01*
X0026820Y0005170D02*
Y-0001650D01*
X0026730Y0005080D02*
Y-0001650D01*
X0026640Y0004990D02*
Y-0001650D01*
X0026550Y0004900D02*
Y-0001650D01*
X0026460Y0004810D02*
Y-0001650D01*
X0026370Y0004720D02*
Y-0001650D01*
X0026280Y0004630D02*
Y-0001650D01*
X0026190Y0004540D02*
Y-0001650D01*
X0026100Y0004450D02*
Y-0001650D01*
X0026010Y0004360D02*
Y-0001650D01*
X0025920Y0004270D02*
Y-0001650D01*
X0025830Y0004180D02*
Y-0001650D01*
X0025740Y0004090D02*
Y-0001650D01*
X0025650Y0004000D02*
Y-0001650D01*
X0025560Y0003910D02*
Y-0001650D01*
X0025470Y0003820D02*
Y-0001650D01*
X0025380Y0003730D02*
Y-0001650D01*
X0025290Y0003640D02*
Y-0001650D01*
X0025200Y0003550D02*
Y-0001645D01*
X0025110Y0003460D02*
Y-0001629D01*
X0025020Y0003370D02*
Y-0001605D01*
X0024930Y0003280D02*
Y-0001572D01*
X0024840Y0003190D02*
Y-0001529D01*
X0024750Y0003100D02*
Y-0001474D01*
X0024660Y0003010D02*
Y-0001405D01*
X0024570Y0002920D02*
Y-0001319D01*
X0024480Y0002830D02*
Y-0001206D01*
X0035076Y0008334D02*
X0029984D01*
X0035238Y0008244D02*
X0029894D01*
X0035345Y0008154D02*
X0029804D01*
X0035425Y0008064D02*
X0029714D01*
X0035485Y0007974D02*
X0029624D01*
X0035531Y0007884D02*
X0029534D01*
X0035565Y0007794D02*
X0029444D01*
X0035588Y0007704D02*
X0029354D01*
X0035601Y0007614D02*
X0029264D01*
X0035604Y0007524D02*
X0029174D01*
X0035600Y0007434D02*
X0029084D01*
X0035600Y0007344D02*
X0028994D01*
X0035600Y0007254D02*
X0028904D01*
X0035600Y0007164D02*
X0028814D01*
X0035600Y0007074D02*
X0028724D01*
X0035600Y0006984D02*
X0028634D01*
X0035600Y0006894D02*
X0028544D01*
X0035600Y0006804D02*
X0028454D01*
X0035600Y0006714D02*
X0028364D01*
X0035600Y0006624D02*
X0028274D01*
X0035600Y0006534D02*
X0028184D01*
X0035600Y0006444D02*
X0028094D01*
X0035600Y0006354D02*
X0028004D01*
X0035601Y0006264D02*
X0027914D01*
X0035598Y0006174D02*
X0027824D01*
X0035585Y0006084D02*
X0027734D01*
X0035562Y0005994D02*
X0027644D01*
X0035528Y0005904D02*
X0027554D01*
X0035482Y0005814D02*
X0027464D01*
X0035420Y0005724D02*
X0027374D01*
X0035338Y0005634D02*
X0027284D01*
X0035227Y0005544D02*
X0027194D01*
X0035054Y0005454D02*
X0027104D01*
X0033214Y0005364D02*
X0027014D01*
X0033124Y0005274D02*
X0026924D01*
X0033034Y0005184D02*
X0026834D01*
X0032944Y0005094D02*
X0026744D01*
X0032854Y0005004D02*
X0026654D01*
X0032764Y0004914D02*
X0026564D01*
X0032674Y0004824D02*
X0026474D01*
X0032584Y0004734D02*
X0026384D01*
X0032494Y0004644D02*
X0026294D01*
X0032404Y0004554D02*
X0026204D01*
X0032314Y0004464D02*
X0026114D01*
X0032224Y0004374D02*
X0026024D01*
X0032134Y0004284D02*
X0025934D01*
X0032044Y0004194D02*
X0025844D01*
X0031954Y0004104D02*
X0025754D01*
X0031864Y0004014D02*
X0025664D01*
X0031774Y0003924D02*
X0025574D01*
X0031684Y0003834D02*
X0025484D01*
X0031594Y0003744D02*
X0025394D01*
X0031504Y0003654D02*
X0025304D01*
X0031414Y0003564D02*
X0025214D01*
X0031324Y0003474D02*
X0025124D01*
X0031144Y0003294D02*
X0024944D01*
X0031054Y0003204D02*
X0024854D01*
X0030964Y0003114D02*
X0024764D01*
X0030874Y0003024D02*
X0024674D01*
X0030784Y0002934D02*
X0024584D01*
X0030694Y0002844D02*
X0024494D01*
X0030604Y0002754D02*
X0024404D01*
X0030514Y0002664D02*
X0024314D01*
X0030424Y0002574D02*
X0024300D01*
X0030334Y0002484D02*
X0024300D01*
X0030244Y0002394D02*
X0024300D01*
X0030154Y0002304D02*
X0024300D01*
X0030064Y0002214D02*
X0024300D01*
X0029974Y0002124D02*
X0024300D01*
X0029884Y0002034D02*
X0024300D01*
X0029794Y0001944D02*
X0024300D01*
X0029704Y0001854D02*
X0024300D01*
X0029614Y0001764D02*
X0024300D01*
X0029524Y0001674D02*
X0024300D01*
X0029434Y0001584D02*
X0024300D01*
X0029344Y0001494D02*
X0024300D01*
X0029254Y0001404D02*
X0024300D01*
X0029164Y0001314D02*
X0024300D01*
X0029074Y0001224D02*
X0024300D01*
X0028984Y0001134D02*
X0024300D01*
X0028894Y0001044D02*
X0024300D01*
X0028804Y0000954D02*
X0024300D01*
X0028714Y0000864D02*
X0024300D01*
X0028624Y0000774D02*
X0024300D01*
X0028534Y0000684D02*
X0024300D01*
X0028444Y0000594D02*
X0024300D01*
X0028354Y0000504D02*
X0024300D01*
X0028264Y0000414D02*
X0024300D01*
X0028200Y0000324D02*
X0024300D01*
X0028200Y0000234D02*
X0024300D01*
X0033390Y0008400D02*
Y0005400D01*
X0028200Y0000144D02*
X0024300D01*
X0028200Y0000054D02*
X0024300D01*
X0028200Y-0000035D02*
X0024300D01*
X0028200Y-0000125D02*
X0024300D01*
X0028200Y-0000395D02*
X0024300D01*
X0035010Y0008360D02*
Y0005439D01*
X0028200Y-0000485D02*
X0024300D01*
X0028200Y-0000575D02*
X0024300D01*
X0028200Y-0000665D02*
X0024300D01*
X0028200Y-0000755D02*
X0024306D01*
X0028204Y-0000845D02*
X0024322D01*
X0028192Y-0001025D02*
X0024380D01*
X0028170Y-0001115D02*
X0024424D01*
X0028136Y-0001205D02*
X0024479D01*
X0028088Y-0001295D02*
X0024549D01*
X0028022Y-0001385D02*
X0024637D01*
X0027931Y-0001475D02*
X0024752D01*
X0027798Y-0001565D02*
X0024914D01*
X-0000470Y0070150D02*
Y0004450D01*
X-0000560Y0070150D02*
Y0004450D01*
X-0000650Y0070150D02*
Y0004450D01*
X-0000740Y0070150D02*
Y0004450D01*
X-0000830Y0070150D02*
Y0004456D01*
X-0000920Y0070150D02*
Y0004473D01*
X-0001010Y0070149D02*
Y0004502D01*
X-0001100Y0070137D02*
Y0004543D01*
X-0001190Y0070108D02*
Y0004601D01*
X-0001280Y0070063D02*
Y0004679D01*
X-0001370Y0069993D02*
Y0004790D01*
X-0001460Y0069884D02*
Y0004973D01*
X0007500Y0070150D02*
X-0000950D01*
X0005050Y0044140D02*
X-0001530D01*
X0001059Y0070150D02*
Y0067500D01*
X0007500Y0070060D02*
X-0001285D01*
X0007500Y0069970D02*
X-0001393D01*
X0007500Y0069880D02*
X-0001463D01*
X0007500Y0069790D02*
X-0001509D01*
X0007500Y0069700D02*
X-0001537D01*
X0007500Y0069610D02*
X-0001549D01*
X0007500Y0069520D02*
X-0001550D01*
X0007500Y0069430D02*
X-0001550D01*
X0007500Y0069340D02*
X-0001550D01*
X0007500Y0069250D02*
X-0001550D01*
X0007500Y0069160D02*
X-0001550D01*
X0007500Y0069070D02*
X-0001549D01*
X0007500Y0068980D02*
X-0001549D01*
X0007500Y0068890D02*
X-0001549D01*
X0007500Y0068800D02*
X-0001549D01*
X0007500Y0068710D02*
X-0001549D01*
X0013900Y0044230D02*
X0008500D01*
X0007500Y0068620D02*
X-0001549D01*
X0007500Y0068530D02*
X-0001549D01*
X0007500Y0068440D02*
X-0001549D01*
X0007500Y0068350D02*
X-0001549D01*
X0007500Y0068260D02*
X-0001549D01*
X0007500Y0068170D02*
X-0001549D01*
X0007500Y0068080D02*
X-0001549D01*
X0007500Y0067990D02*
X-0001549D01*
X0007500Y0067900D02*
X-0001549D01*
X0007500Y0067810D02*
X-0001548D01*
X0015320Y0067630D02*
X0012350D01*
X0007500D02*
X-0001548D01*
X0003039Y0061450D02*
Y0052600D01*
X0007500Y0067540D02*
X-0001548D01*
X0001050Y0067450D02*
X-0001548D01*
X0001050Y0067360D02*
X-0001548D01*
X0001050Y0067270D02*
X-0001548D01*
X0001050Y0067180D02*
X-0001548D01*
X0001050Y0067090D02*
X-0001548D01*
X0001050Y0067000D02*
X-0001548D01*
X0001050Y0066910D02*
X-0001548D01*
X0013900Y0054940D02*
X0012600D01*
X0001050Y0064480D02*
X-0001546D01*
X0001050Y0066550D02*
X-0001548D01*
X0001050Y0066460D02*
X-0001547D01*
X0003129Y0061450D02*
Y0052600D01*
X0001050Y0066280D02*
X-0001547D01*
X0001050Y0066190D02*
X-0001547D01*
X0001050Y0066100D02*
X-0001547D01*
X0001050Y0066010D02*
X-0001547D01*
X0001050Y0065920D02*
X-0001547D01*
X0001050Y0065830D02*
X-0001547D01*
X0001050Y0065740D02*
X-0001547D01*
X0001050Y0065650D02*
X-0001547D01*
X0001050Y0065560D02*
X-0001547D01*
X0003309Y0061450D02*
Y0052600D01*
X0001050Y0065380D02*
X-0001547D01*
X0001050Y0065290D02*
X-0001547D01*
X0001050Y0065200D02*
X-0001546D01*
X0001050Y0065110D02*
X-0001546D01*
X0001050Y0065020D02*
X-0001546D01*
X0001050Y0064930D02*
X-0001546D01*
X0001050Y0064840D02*
X-0001546D01*
X0001050Y0064750D02*
X-0001546D01*
X0001050Y0064660D02*
X-0001546D01*
X0001050Y0064570D02*
X-0001546D01*
X0003219Y0061450D02*
Y0052600D01*
X0001050Y0064390D02*
X-0001546D01*
X0001050Y0064300D02*
X-0001546D01*
X0001050Y0064210D02*
X-0001546D01*
X0001050Y0064120D02*
X-0001546D01*
X0001050Y0064030D02*
X-0001546D01*
X0001050Y0063940D02*
X-0001545D01*
X0001050Y0063850D02*
X-0001545D01*
X0001050Y0063760D02*
X-0001545D01*
X0001050Y0063670D02*
X-0001545D01*
X0001050Y0063580D02*
X-0001545D01*
X0001050Y0063400D02*
X-0001545D01*
X0001050Y0063310D02*
X-0001545D01*
X0001050Y0063220D02*
X-0001545D01*
X0001050Y0063130D02*
X-0001545D01*
X0001050Y0063040D02*
X-0001545D01*
X0001050Y0062950D02*
X-0001545D01*
X0001050Y0062860D02*
X-0001545D01*
X0001050Y0062770D02*
X-0001545D01*
X0001050Y0062680D02*
X-0001544D01*
X0001050Y0062590D02*
X-0001544D01*
X0001050Y0062500D02*
X-0001544D01*
X0001050Y0062410D02*
X-0001544D01*
X0001050Y0062320D02*
X-0001544D01*
X0001050Y0062230D02*
X-0001544D01*
X0001239Y0016250D02*
Y0004450D01*
X0001050Y0062050D02*
X-0001544D01*
X0001050Y0061960D02*
X-0001544D01*
X0001050Y0061870D02*
X-0001544D01*
X0001050Y0061780D02*
X-0001544D01*
X0001050Y0061690D02*
X-0001544D01*
X0001050Y0061510D02*
X-0001544D01*
X0015870Y0061420D02*
X-0001544D01*
X0015780Y0061330D02*
X-0001543D01*
X0015690Y0061240D02*
X-0001543D01*
X0015600Y0061150D02*
X-0001543D01*
X0015510Y0061060D02*
X-0001543D01*
X0015420Y0060970D02*
X-0001543D01*
X0015330Y0060880D02*
X-0001543D01*
X0015240Y0060790D02*
X-0001543D01*
X0015150Y0060700D02*
X-0001543D01*
X0015060Y0060610D02*
X-0001543D01*
X0014970Y0060520D02*
X-0001543D01*
X0014880Y0060430D02*
X-0001543D01*
X0014790Y0060340D02*
X-0001543D01*
X0014700Y0060250D02*
X-0001543D01*
X0014610Y0060160D02*
X-0001543D01*
X0014520Y0060070D02*
X-0001542D01*
X0014430Y0059980D02*
X-0001542D01*
X0014340Y0059890D02*
X-0001542D01*
X0014250Y0059800D02*
X-0001542D01*
X0014160Y0059710D02*
X-0001542D01*
X0014070Y0059620D02*
X-0001542D01*
X0013980Y0059530D02*
X-0001542D01*
X0013900Y0059440D02*
X-0001542D01*
X0013900Y0059350D02*
X-0001542D01*
X0013900Y0059260D02*
X-0001542D01*
X0013900Y0059170D02*
X-0001542D01*
X0013900Y0059080D02*
X-0001542D01*
X0013900Y0058990D02*
X-0001542D01*
X0013900Y0058900D02*
X-0001542D01*
X0013900Y0058810D02*
X-0001541D01*
X0013900Y0058720D02*
X-0001541D01*
X0013900Y0058630D02*
X-0001541D01*
X0013900Y0058540D02*
X-0001541D01*
X0013900Y0058450D02*
X-0001541D01*
X0013900Y0058360D02*
X-0001541D01*
X0013900Y0058270D02*
X-0001541D01*
X0013900Y0058180D02*
X-0001541D01*
X0013900Y0058090D02*
X-0001541D01*
X0013900Y0058000D02*
X-0001541D01*
X0013900Y0057910D02*
X-0001541D01*
X0013900Y0057820D02*
X-0001541D01*
X0013900Y0057730D02*
X-0001541D01*
X0013900Y0057640D02*
X-0001541D01*
X0013900Y0057550D02*
X-0001541D01*
X0013900Y0057460D02*
X-0001540D01*
X0013900Y0057370D02*
X-0001540D01*
X0013900Y0057280D02*
X-0001540D01*
X0013900Y0057190D02*
X-0001540D01*
X0013900Y0057100D02*
X-0001540D01*
X0013900Y0057010D02*
X-0001540D01*
X0013900Y0056920D02*
X-0001540D01*
X0013900Y0056830D02*
X-0001540D01*
X0013900Y0056740D02*
X-0001540D01*
X0013900Y0056650D02*
X-0001540D01*
X0013900Y0056560D02*
X-0001540D01*
X0013900Y0056470D02*
X-0001540D01*
X0013900Y0056380D02*
X-0001540D01*
X0013900Y0056290D02*
X-0001540D01*
X0013900Y0056200D02*
X-0001539D01*
X0013900Y0056110D02*
X-0001539D01*
X0013900Y0056020D02*
X-0001539D01*
X0013900Y0055930D02*
X-0001539D01*
X0013900Y0055840D02*
X-0001539D01*
X0013900Y0055750D02*
X-0001539D01*
X0013900Y0055660D02*
X-0001539D01*
X0013900Y0055570D02*
X-0001539D01*
X0013900Y0055480D02*
X-0001539D01*
X0007750Y0055390D02*
X-0001539D01*
X0007750Y0055300D02*
X-0001539D01*
X0007750Y0055210D02*
X-0001539D01*
X0007750Y0055120D02*
X-0001539D01*
X0007750Y0055030D02*
X-0001539D01*
X0007750Y0054940D02*
X-0001538D01*
X0007750Y0054850D02*
X-0001538D01*
X0007750Y0054760D02*
X-0001538D01*
X0007750Y0054670D02*
X-0001538D01*
X0007750Y0054580D02*
X-0001538D01*
X0007750Y0054490D02*
X-0001538D01*
X0007750Y0054400D02*
X-0001538D01*
X0007750Y0054310D02*
X-0001538D01*
X0007750Y0054220D02*
X-0001538D01*
X0007750Y0054130D02*
X-0001538D01*
X0007750Y0054040D02*
X-0001538D01*
X0009699Y0049400D02*
Y0041000D01*
X0000969Y0070150D02*
Y0052600D01*
X0007750Y0053770D02*
X-0001538D01*
X0010779Y0064250D02*
Y0055450D01*
X0007750Y0053680D02*
X-0001537D01*
X0007750Y0053590D02*
X-0001537D01*
X0007750Y0053500D02*
X-0001537D01*
X0007750Y0053410D02*
X-0001537D01*
X0007750Y0053320D02*
X-0001537D01*
X0007750Y0053230D02*
X-0001537D01*
X0007750Y0053140D02*
X-0001537D01*
X0007750Y0053050D02*
X-0001537D01*
X0007750Y0052960D02*
X-0001537D01*
X0007750Y0052780D02*
X-0001537D01*
X0013900Y0052960D02*
X0012600D01*
X0008079Y0064250D02*
Y0055450D01*
X0007750Y0052600D02*
X-0001537D01*
X0000900Y0052510D02*
X-0001537D01*
X0000900Y0052420D02*
X-0001537D01*
X0000900Y0052330D02*
X-0001536D01*
X0000900Y0052240D02*
X-0001536D01*
X0000900Y0052150D02*
X-0001536D01*
X0000900Y0052060D02*
X-0001536D01*
X0000900Y0051970D02*
X-0001536D01*
X0000900Y0051790D02*
X-0001536D01*
X0003129Y0046550D02*
Y0038000D01*
X0000900Y0051700D02*
X-0001536D01*
X0000900Y0051610D02*
X-0001536D01*
X0000900Y0051520D02*
X-0001536D01*
X0000900Y0051430D02*
X-0001536D01*
X0000900Y0051340D02*
X-0001536D01*
X0000900Y0051250D02*
X-0001536D01*
X0000900Y0051160D02*
X-0001536D01*
X0000900Y0051070D02*
X-0001535D01*
X0000900Y0050980D02*
X-0001535D01*
X0000900Y0050890D02*
X-0001535D01*
X0000900Y0050800D02*
X-0001535D01*
X0000900Y0050710D02*
X-0001535D01*
X0003219Y0046550D02*
Y0038000D01*
X0000900Y0050530D02*
X-0001535D01*
X0000900Y0050440D02*
X-0001535D01*
X0000900Y0050350D02*
X-0001535D01*
X0000900Y0050260D02*
X-0001535D01*
X0000900Y0050170D02*
X-0001535D01*
X0000900Y0050080D02*
X-0001535D01*
X0000900Y0049990D02*
X-0001535D01*
X0001050Y0033340D02*
X-0001522D01*
X0001059Y0031950D02*
Y0004450D01*
X0000900Y0049720D02*
X-0001534D01*
X0001200Y0016960D02*
X-0001509D01*
X0000900Y0049540D02*
X-0001534D01*
X0000900Y0049450D02*
X-0001534D01*
X0000900Y0049360D02*
X-0001534D01*
X0000900Y0049270D02*
X-0001534D01*
X0000900Y0049180D02*
X-0001534D01*
X0000900Y0049090D02*
X-0001534D01*
X0000900Y0049000D02*
X-0001534D01*
X0000900Y0048910D02*
X-0001534D01*
X0000900Y0048820D02*
X-0001534D01*
X0000900Y0048730D02*
X-0001534D01*
X0000900Y0048550D02*
X-0001534D01*
X0000900Y0048460D02*
X-0001533D01*
X0000900Y0048370D02*
X-0001533D01*
X0000900Y0048280D02*
X-0001533D01*
X0000900Y0048190D02*
X-0001533D01*
X0000900Y0048100D02*
X-0001533D01*
X0000900Y0048010D02*
X-0001533D01*
X0000900Y0047920D02*
X-0001533D01*
X0000900Y0047830D02*
X-0001533D01*
X0000900Y0047740D02*
X-0001533D01*
X0000900Y0047650D02*
X-0001533D01*
X0000900Y0047560D02*
X-0001533D01*
X0000900Y0047470D02*
X-0001533D01*
X0000900Y0047380D02*
X-0001533D01*
X0000900Y0047290D02*
X-0001533D01*
X0000900Y0047200D02*
X-0001532D01*
X0000900Y0047110D02*
X-0001532D01*
X0000900Y0047020D02*
X-0001532D01*
X0000900Y0046930D02*
X-0001532D01*
X0000900Y0046840D02*
X-0001532D01*
X0000900Y0046750D02*
X-0001532D01*
X0005750Y0046550D02*
X0005050D01*
X0000900Y0046570D02*
X-0001532D01*
X0005050Y0046480D02*
X-0001532D01*
X0005050Y0046390D02*
X-0001532D01*
X0007809Y0009709D02*
Y0007509D01*
X0005050Y0046300D02*
X-0001532D01*
X0005050Y0046210D02*
X-0001532D01*
X0005050Y0046120D02*
X-0001532D01*
X0005050Y0046030D02*
X-0001532D01*
X0005050Y0045940D02*
X-0001531D01*
X0005050Y0045850D02*
X-0001531D01*
X0005919Y0016250D02*
Y0015700D01*
X0005050Y0045580D02*
X-0001531D01*
X0005050Y0045490D02*
X-0001531D01*
X0005050Y0045400D02*
X-0001531D01*
X0005050Y0045310D02*
X-0001531D01*
X0005050Y0045220D02*
X-0001531D01*
X0005050Y0045130D02*
X-0001531D01*
X0005050Y0045040D02*
X-0001531D01*
X0005050Y0044950D02*
X-0001531D01*
X0005050Y0044860D02*
X-0001531D01*
X0005050Y0044770D02*
X-0001531D01*
X0005050Y0044680D02*
X-0001530D01*
X0005050Y0044590D02*
X-0001530D01*
X0005050Y0044500D02*
X-0001530D01*
X0005050Y0044410D02*
X-0001530D01*
X0005050Y0044320D02*
X-0001530D01*
X0005050Y0044230D02*
X-0001530D01*
X0005050Y0044050D02*
X-0001530D01*
X0005050Y0043960D02*
X-0001530D01*
X0005050Y0043870D02*
X-0001530D01*
X0005050Y0043780D02*
X-0001530D01*
X0005050Y0043690D02*
X-0001530D01*
X0005050Y0043600D02*
X-0001530D01*
X0007719Y0009619D02*
Y0007419D01*
X0005050Y0043510D02*
X-0001530D01*
X0005050Y0043420D02*
X-0001530D01*
X0005050Y0043330D02*
X-0001529D01*
X0005050Y0043240D02*
X-0001529D01*
X0005050Y0043150D02*
X-0001529D01*
X0005050Y0043060D02*
X-0001529D01*
X0005050Y0042970D02*
X-0001529D01*
X0005050Y0042880D02*
X-0001529D01*
X0005050Y0042790D02*
X-0001529D01*
X0005050Y0042700D02*
X-0001529D01*
X0005050Y0042610D02*
X-0001529D01*
X0005050Y0042520D02*
X-0001529D01*
X0005050Y0042430D02*
X-0001529D01*
X0005050Y0042340D02*
X-0001529D01*
X0005050Y0042250D02*
X-0001529D01*
X0005050Y0042160D02*
X-0001529D01*
X0005050Y0042070D02*
X-0001528D01*
X0005050Y0041980D02*
X-0001528D01*
X0005050Y0041890D02*
X-0001528D01*
X0005050Y0041800D02*
X-0001528D01*
X0006099Y0007999D02*
Y0005799D01*
X0005050Y0041620D02*
X-0001528D01*
X0005050Y0041530D02*
X-0001528D01*
X0005050Y0041350D02*
X-0001528D01*
X0005050Y0041260D02*
X-0001528D01*
X0007700Y0040700D02*
X0005050D01*
Y0041170D02*
X-0001528D01*
X0005050Y0041080D02*
X-0001528D01*
X0005050Y0040990D02*
X-0001528D01*
X0005050Y0040900D02*
X-0001528D01*
X0005050Y0040720D02*
X-0001527D01*
X0007700Y0040630D02*
X-0001527D01*
X0007700Y0040540D02*
X-0001527D01*
X0007700Y0040450D02*
X-0001527D01*
X0007700Y0040360D02*
X-0001527D01*
X0007700Y0040270D02*
X-0001527D01*
X0007700Y0040180D02*
X-0001527D01*
X0007700Y0040090D02*
X-0001527D01*
X0007700Y0040000D02*
X-0001527D01*
X0007700Y0039910D02*
X-0001527D01*
X0007700Y0039820D02*
X-0001527D01*
X0007700Y0039730D02*
X-0001527D01*
X0007700Y0039640D02*
X-0001527D01*
X0007700Y0039550D02*
X-0001527D01*
X0007700Y0039460D02*
X-0001526D01*
X0007700Y0039370D02*
X-0001526D01*
X0007700Y0039280D02*
X-0001526D01*
X0006910Y0006610D02*
X0004710D01*
X0007700Y0039190D02*
X-0001526D01*
X0007700Y0039100D02*
X-0001526D01*
X0007700Y0039010D02*
X-0001526D01*
X0007700Y0038920D02*
X-0001526D01*
X0007700Y0038830D02*
X-0001526D01*
X0007700Y0038740D02*
X-0001526D01*
X0007700Y0038650D02*
X-0001526D01*
X0007700Y0038560D02*
X-0001526D01*
X0007700Y0038470D02*
X-0001526D01*
X0007700Y0038290D02*
X-0001526D01*
X0009879Y0049400D02*
Y0041000D01*
X0007700Y0038200D02*
X-0001525D01*
X0007700Y0038110D02*
X-0001525D01*
X0007750Y0019300D02*
X0006050D01*
X0007700Y0038020D02*
X-0001525D01*
X0001050Y0037930D02*
X-0001525D01*
X0001050Y0037840D02*
X-0001525D01*
X0001050Y0037750D02*
X-0001525D01*
X0010869Y0049400D02*
Y0041000D01*
X0007809Y0019200D02*
Y0015700D01*
X0007750Y0019570D02*
X0006050D01*
X0003129Y0031950D02*
Y0022300D01*
X0001050Y0037210D02*
X-0001525D01*
X0001050Y0037120D02*
X-0001525D01*
X0001050Y0037030D02*
X-0001525D01*
X0001050Y0036940D02*
X-0001524D01*
X0001050Y0036850D02*
X-0001524D01*
X0001050Y0036760D02*
X-0001524D01*
X0001050Y0036670D02*
X-0001524D01*
X0001050Y0036580D02*
X-0001524D01*
X0001050Y0036490D02*
X-0001524D01*
X0001050Y0036400D02*
X-0001524D01*
X0001050Y0036310D02*
X-0001524D01*
X0001050Y0036220D02*
X-0001524D01*
X0003309Y0031950D02*
Y0022300D01*
X0001050Y0036040D02*
X-0001524D01*
X0001050Y0035950D02*
X-0001524D01*
X0001050Y0035860D02*
X-0001524D01*
X0001050Y0035770D02*
X-0001524D01*
X0001050Y0035680D02*
X-0001523D01*
X0001050Y0035590D02*
X-0001523D01*
X0001050Y0035500D02*
X-0001523D01*
X0001050Y0035410D02*
X-0001523D01*
X0001050Y0035320D02*
X-0001523D01*
X0001050Y0035230D02*
X-0001523D01*
X0003219Y0031950D02*
Y0022300D01*
X0001050Y0035050D02*
X-0001523D01*
X0001050Y0034960D02*
X-0001523D01*
X0001050Y0034870D02*
X-0001523D01*
X0001050Y0034780D02*
X-0001523D01*
X0001050Y0034690D02*
X-0001523D01*
X0001050Y0034600D02*
X-0001523D01*
X0001050Y0034510D02*
X-0001523D01*
X0001050Y0034420D02*
X-0001523D01*
X0001050Y0034330D02*
X-0001522D01*
X0001050Y0034240D02*
X-0001522D01*
X0001050Y0034060D02*
X-0001522D01*
X0001050Y0033970D02*
X-0001522D01*
X0001050Y0033880D02*
X-0001522D01*
X0001050Y0033790D02*
X-0001522D01*
X0001050Y0033700D02*
X-0001522D01*
X0001050Y0033610D02*
X-0001522D01*
X0001050Y0033520D02*
X-0001522D01*
X0001050Y0033430D02*
X-0001522D01*
X0001149Y0031950D02*
Y0004450D01*
X0001050Y0033250D02*
X-0001522D01*
X0001050Y0033160D02*
X-0001522D01*
X0001050Y0033070D02*
X-0001521D01*
X0001050Y0032980D02*
X-0001521D01*
X0001050Y0032890D02*
X-0001521D01*
X0001050Y0032800D02*
X-0001521D01*
X0001050Y0032710D02*
X-0001521D01*
X0001050Y0032620D02*
X-0001521D01*
X0001050Y0032530D02*
X-0001521D01*
X0001050Y0032440D02*
X-0001521D01*
X0001050Y0032350D02*
X-0001521D01*
X0001050Y0032260D02*
X-0001521D01*
X0001050Y0032170D02*
X-0001521D01*
X0001050Y0031990D02*
X-0001521D01*
X0013171Y0031900D02*
X-0001521D01*
X0012955Y0031810D02*
X-0001520D01*
X0010900Y0017230D02*
X0006050D01*
X0010900Y0031720D02*
X-0001520D01*
X0007750Y0031630D02*
X-0001520D01*
X0007750Y0031540D02*
X-0001520D01*
X0007750Y0031450D02*
X-0001520D01*
X0007750Y0031360D02*
X-0001520D01*
X0007750Y0031270D02*
X-0001520D01*
X0007750Y0031180D02*
X-0001520D01*
X0007750Y0031090D02*
X-0001520D01*
X0007750Y0031000D02*
X-0001520D01*
X0007750Y0030910D02*
X-0001520D01*
X0007750Y0030820D02*
X-0001520D01*
X0007750Y0030730D02*
X-0001520D01*
X0007750Y0030640D02*
X-0001520D01*
X0007750Y0030550D02*
X-0001520D01*
X0007750Y0030460D02*
X-0001519D01*
X0001779Y0031950D02*
Y0022300D01*
X0007750Y0030370D02*
X-0001519D01*
X0007750Y0030280D02*
X-0001519D01*
X0007750Y0030190D02*
X-0001519D01*
X0007750Y0030100D02*
X-0001519D01*
X0007750Y0030010D02*
X-0001519D01*
X0007750Y0029920D02*
X-0001519D01*
X0009879Y0034950D02*
Y0031700D01*
X0007750Y0029830D02*
X-0001519D01*
X0007750Y0029650D02*
X-0001519D01*
X0007750Y0029560D02*
X-0001519D01*
X0007750Y0029470D02*
X-0001519D01*
X0010900Y0016600D02*
X0006050D01*
X0007750Y0029200D02*
X-0001518D01*
X0007750Y0029110D02*
X-0001518D01*
X0007750Y0028930D02*
X-0001518D01*
X0007750Y0028840D02*
X-0001518D01*
X0007750Y0028750D02*
X-0001518D01*
X0007750Y0028660D02*
X-0001518D01*
X0007750Y0028570D02*
X-0001518D01*
X0007750Y0028480D02*
X-0001518D01*
X0007750Y0028300D02*
X-0001518D01*
X0007750Y0028210D02*
X-0001518D01*
X0007750Y0028120D02*
X-0001518D01*
X0007750Y0028030D02*
X-0001518D01*
X0007750Y0027940D02*
X-0001517D01*
X0007750Y0027850D02*
X-0001517D01*
X0007750Y0027670D02*
X-0001517D01*
X0007750Y0027580D02*
X-0001517D01*
X0007750Y0027490D02*
X-0001517D01*
X0007750Y0027400D02*
X-0001517D01*
X0007750Y0027310D02*
X-0001517D01*
X0007750Y0027220D02*
X-0001517D01*
X0007750Y0027130D02*
X-0001517D01*
X0007750Y0027040D02*
X-0001517D01*
X0007750Y0026860D02*
X-0001517D01*
X0007750Y0026770D02*
X-0001517D01*
X0007750Y0026680D02*
X-0001516D01*
X0007750Y0026590D02*
X-0001516D01*
X0007750Y0026500D02*
X-0001516D01*
X0007750Y0026410D02*
X-0001516D01*
X0007750Y0026320D02*
X-0001516D01*
X0007750Y0026230D02*
X-0001516D01*
X0007750Y0026140D02*
X-0001516D01*
X0007750Y0026050D02*
X-0001516D01*
X0007750Y0025960D02*
X-0001516D01*
X0007750Y0025870D02*
X-0001516D01*
X0007750Y0025780D02*
X-0001516D01*
X0007750Y0025690D02*
X-0001516D01*
X0001509Y0061450D02*
Y0052600D01*
X0007750Y0025510D02*
X-0001516D01*
X0007750Y0025420D02*
X-0001516D01*
X0007750Y0025330D02*
X-0001515D01*
X0007750Y0025240D02*
X-0001515D01*
X0007750Y0025060D02*
X-0001515D01*
X0007750Y0024970D02*
X-0001515D01*
X0007750Y0024880D02*
X-0001515D01*
X0007750Y0024790D02*
X-0001515D01*
X0007750Y0024700D02*
X-0001515D01*
X0007750Y0024610D02*
X-0001515D01*
X0007750Y0024520D02*
X-0001515D01*
X0007750Y0024430D02*
X-0001515D01*
X0007750Y0024340D02*
X-0001515D01*
X0007750Y0024250D02*
X-0001515D01*
X0007750Y0024160D02*
X-0001515D01*
X0007750Y0024070D02*
X-0001514D01*
X0007750Y0023980D02*
X-0001514D01*
X0007750Y0023890D02*
X-0001514D01*
X0007750Y0023800D02*
X-0001514D01*
X0007750Y0023710D02*
X-0001514D01*
X0007750Y0023620D02*
X-0001514D01*
X0007750Y0023530D02*
X-0001514D01*
X0007750Y0029290D02*
X-0001519D01*
X0007750Y0023440D02*
X-0001514D01*
X0007750Y0023350D02*
X-0001514D01*
X0007750Y0023260D02*
X-0001514D01*
X0007750Y0023170D02*
X-0001514D01*
X0007750Y0023080D02*
X-0001514D01*
X0007750Y0022990D02*
X-0001514D01*
X0007750Y0022900D02*
X-0001514D01*
X0007750Y0022810D02*
X-0001513D01*
X0007750Y0022720D02*
X-0001513D01*
X0007750Y0022540D02*
X-0001513D01*
X0007750Y0022450D02*
X-0001513D01*
X0003039Y0031950D02*
Y0022300D01*
X0007750Y0022360D02*
X-0001513D01*
X0001200Y0022270D02*
X-0001513D01*
X0001200Y0022180D02*
X-0001513D01*
X0001200Y0022090D02*
X-0001513D01*
X0001200Y0022000D02*
X-0001513D01*
X0001200Y0021910D02*
X-0001513D01*
X0001200Y0021820D02*
X-0001513D01*
X0001200Y0021730D02*
X-0001513D01*
X0001200Y0019390D02*
X-0001511D01*
X0001200Y0021460D02*
X-0001512D01*
X0001200Y0021370D02*
X-0001512D01*
X0001200Y0021280D02*
X-0001512D01*
X0001200Y0021190D02*
X-0001512D01*
X0003129Y0016250D02*
Y0012979D01*
X0003039Y0016250D02*
Y0012889D01*
X0002949Y0006200D02*
Y0004450D01*
X0001200Y0020830D02*
X-0001512D01*
X0001200Y0020740D02*
X-0001512D01*
X0001200Y0020650D02*
X-0001512D01*
X0001200Y0020560D02*
X-0001512D01*
X0001200Y0020470D02*
X-0001512D01*
X0003309Y0016250D02*
Y0013159D01*
X0001200Y0020290D02*
X-0001512D01*
X0001200Y0020200D02*
X-0001511D01*
X0001200Y0020110D02*
X-0001511D01*
X0001200Y0020020D02*
X-0001511D01*
X0001200Y0019930D02*
X-0001511D01*
X0001200Y0019840D02*
X-0001511D01*
X0001200Y0019750D02*
X-0001511D01*
X0001200Y0019660D02*
X-0001511D01*
X0001200Y0019570D02*
X-0001511D01*
X0001200Y0019480D02*
X-0001511D01*
X0003219Y0016250D02*
Y0013069D01*
X0001200Y0019300D02*
X-0001511D01*
X0001200Y0019210D02*
X-0001511D01*
X0001200Y0019120D02*
X-0001511D01*
X0001200Y0019030D02*
X-0001511D01*
X0001200Y0018940D02*
X-0001510D01*
X0001200Y0018850D02*
X-0001510D01*
X0001200Y0018760D02*
X-0001510D01*
X0001200Y0018670D02*
X-0001510D01*
X0001200Y0018580D02*
X-0001510D01*
X0001200Y0018490D02*
X-0001510D01*
X0001200Y0018310D02*
X-0001510D01*
X0001200Y0018220D02*
X-0001510D01*
X0001200Y0018130D02*
X-0001510D01*
X0001200Y0018040D02*
X-0001510D01*
X0001200Y0017950D02*
X-0001510D01*
X0001200Y0017860D02*
X-0001510D01*
X0001200Y0017770D02*
X-0001510D01*
X0001200Y0017680D02*
X-0001509D01*
X0001200Y0017590D02*
X-0001509D01*
X0001200Y0017500D02*
X-0001509D01*
X0001200Y0017410D02*
X-0001509D01*
X0001200Y0017320D02*
X-0001509D01*
X0001200Y0017230D02*
X-0001509D01*
X0001200Y0017140D02*
X-0001509D01*
X0001200Y0017050D02*
X-0001509D01*
X0001329Y0016250D02*
Y0004450D01*
X0001200Y0016870D02*
X-0001509D01*
X0001200Y0016780D02*
X-0001509D01*
X0001200Y0016690D02*
X-0001509D01*
X0001200Y0016600D02*
X-0001509D01*
X0001200Y0016510D02*
X-0001509D01*
X0010900Y0016420D02*
X0006050D01*
X0001200Y0016330D02*
X-0001508D01*
X0010900Y0016240D02*
X-0001508D01*
X0010900Y0016150D02*
X-0001508D01*
X0010900Y0016060D02*
X-0001508D01*
X0010900Y0015970D02*
X-0001508D01*
X0010900Y0015880D02*
X-0001508D01*
X0010900Y0015790D02*
X-0001508D01*
X0003039Y0006200D02*
Y0004450D01*
X0006009Y0007909D02*
Y0005709D01*
X0005760Y0015610D02*
X-0001508D01*
X0005670Y0015520D02*
X-0001508D01*
X0005580Y0015430D02*
X-0001508D01*
X0005490Y0015340D02*
X-0001508D01*
X0005400Y0015250D02*
X-0001508D01*
X0005310Y0015160D02*
X-0001508D01*
X0005220Y0015070D02*
X-0001507D01*
X0005130Y0014980D02*
X-0001507D01*
X0005040Y0014890D02*
X-0001507D01*
X0004950Y0014800D02*
X-0001507D01*
X0004860Y0014710D02*
X-0001507D01*
X0004770Y0014620D02*
X-0001507D01*
X0004680Y0014530D02*
X-0001507D01*
X0004590Y0014440D02*
X-0001507D01*
X0004500Y0014350D02*
X-0001507D01*
X0004410Y0014260D02*
X-0001507D01*
X0004320Y0014170D02*
X-0001507D01*
X0004230Y0014080D02*
X-0001507D01*
X0004140Y0013990D02*
X-0001507D01*
X0004050Y0013900D02*
X-0001507D01*
X0003960Y0013810D02*
X-0001506D01*
X0003870Y0013720D02*
X-0001506D01*
X0003780Y0013630D02*
X-0001506D01*
X0003690Y0013540D02*
X-0001506D01*
X0006369Y0040700D02*
Y0015700D01*
X0003510Y0013360D02*
X-0001506D01*
X0003420Y0013270D02*
X-0001506D01*
X0003330Y0013180D02*
X-0001506D01*
X0003240Y0013090D02*
X-0001506D01*
X0007539Y0009439D02*
Y0007239D01*
X0005919Y0007819D02*
Y0005619D01*
X0010900Y0013000D02*
X0008950D01*
X0000699Y0070150D02*
Y0004450D01*
X0002790Y0012640D02*
X-0001506D01*
X0002700Y0012550D02*
X-0001506D01*
X0002610Y0012460D02*
X-0001505D01*
X0002520Y0012370D02*
X-0001505D01*
X0002430Y0012280D02*
X-0001505D01*
X0002340Y0012190D02*
X-0001505D01*
X0002250Y0012100D02*
X-0001505D01*
X0002160Y0012010D02*
X-0001505D01*
X0002070Y0011920D02*
X-0001505D01*
X0001980Y0011830D02*
X-0001505D01*
X0001890Y0011740D02*
X-0001505D01*
X0001800Y0011650D02*
X-0001505D01*
X0001710Y0011560D02*
X-0001505D01*
X0001620Y0011470D02*
X-0001505D01*
X0001550Y0011380D02*
X-0001505D01*
X0001550Y0011290D02*
X-0001505D01*
X0001550Y0011200D02*
X-0001504D01*
X0001550Y0011110D02*
X-0001504D01*
X0001550Y0011020D02*
X-0001504D01*
X0001550Y0010930D02*
X-0001504D01*
X0002880Y0012730D02*
X-0001506D01*
X0001550Y0010750D02*
X-0001504D01*
X0001550Y0010660D02*
X-0001504D01*
X0001550Y0010570D02*
X-0001504D01*
X0001550Y0010480D02*
X-0001504D01*
X0001550Y0010390D02*
X-0001504D01*
X0001550Y0010300D02*
X-0001504D01*
X0001550Y0010210D02*
X-0001504D01*
X0001550Y0010120D02*
X-0001504D01*
X0001550Y0010030D02*
X-0001504D01*
X0001550Y0009940D02*
X-0001503D01*
X0001550Y0009850D02*
X-0001503D01*
X0001550Y0009760D02*
X-0001503D01*
X0001550Y0009670D02*
X-0001503D01*
X0001550Y0009580D02*
X-0001503D01*
X0001550Y0009490D02*
X-0001503D01*
X0001550Y0009400D02*
X-0001503D01*
X0001550Y0009310D02*
X-0001503D01*
X0001550Y0009130D02*
X-0001503D01*
X0010900Y0010390D02*
X0008490D01*
X0001550Y0008950D02*
X-0001503D01*
X0001550Y0008860D02*
X-0001503D01*
X0001550Y0008770D02*
X-0001503D01*
X0001869Y0006200D02*
Y0004450D01*
X0001550Y0008500D02*
X-0001502D01*
X0001550Y0008410D02*
X-0001502D01*
X0001550Y0008320D02*
X-0001502D01*
X0001550Y0008230D02*
X-0001502D01*
X0001550Y0008140D02*
X-0001502D01*
X0001550Y0008050D02*
X-0001502D01*
X0001550Y0007960D02*
X-0001502D01*
X0001550Y0007870D02*
X-0001502D01*
X0001550Y0007780D02*
X-0001502D01*
X0001550Y0007690D02*
X-0001502D01*
X0001550Y0007600D02*
X-0001502D01*
X0001550Y0007510D02*
X-0001502D01*
X0001550Y0007420D02*
X-0001502D01*
X0001550Y0007330D02*
X-0001501D01*
X0001550Y0007240D02*
X-0001501D01*
X0001550Y0007150D02*
X-0001501D01*
X0001550Y0007060D02*
X-0001501D01*
X0001550Y0006970D02*
X-0001501D01*
X0001550Y0006880D02*
X-0001501D01*
X0001550Y0006790D02*
X-0001501D01*
X0001550Y0006700D02*
X-0001501D01*
X0001550Y0006610D02*
X-0001501D01*
X0009609Y0019200D02*
Y0008950D01*
X0001550Y0006430D02*
X-0001501D01*
X0001550Y0006250D02*
X-0001501D01*
X0006460Y0006160D02*
X-0001501D01*
X0006370Y0006070D02*
X-0001500D01*
X0006280Y0005980D02*
X-0001500D01*
X0006190Y0005890D02*
X-0001500D01*
X0006100Y0005800D02*
X-0001500D01*
X0006010Y0005710D02*
X-0001500D01*
X0005920Y0005620D02*
X-0001500D01*
X0005830Y0005530D02*
X-0001500D01*
X0005740Y0005440D02*
X-0001500D01*
X0005650Y0005350D02*
X-0001500D01*
X0005560Y0005260D02*
X-0001500D01*
X0005470Y0005170D02*
X-0001499D01*
X0005380Y0005080D02*
X-0001488D01*
X0005290Y0004990D02*
X-0001466D01*
X0005200Y0004900D02*
X-0001432D01*
X0005110Y0004810D02*
X-0001383D01*
X0006639Y0008539D02*
Y0006339D01*
X0001550Y0009220D02*
X-0001503D01*
X0010900Y0018670D02*
X0006050D01*
X0010900Y0018580D02*
X0006050D01*
X0010900Y0018490D02*
X0006050D01*
X0010900Y0018400D02*
X0006050D01*
X0007750Y0021370D02*
X0006050D01*
X0007750Y0021460D02*
X0006050D01*
X0007750Y0021550D02*
X0006050D01*
X0007750Y0021640D02*
X0006050D01*
X0007750Y0021730D02*
X0006050D01*
X0007750Y0021820D02*
X0006050D01*
X0007750Y0021910D02*
X0006050D01*
X0007750Y0022000D02*
X0006050D01*
X0007750Y0022090D02*
X0006050D01*
X0007750Y0022180D02*
X0006050D01*
X0007750Y0020290D02*
X0006050D01*
X0007750Y0020200D02*
X0006050D01*
X0007750Y0020110D02*
X0006050D01*
X0007750Y0020020D02*
X0006050D01*
X0007750Y0019930D02*
X0006050D01*
X0007750Y0019840D02*
X0006050D01*
X0007750Y0019750D02*
X0006050D01*
X0007750Y0019660D02*
X0006050D01*
X0002949Y0031950D02*
Y0022300D01*
X0007750Y0019480D02*
X0006050D01*
X0007750Y0019390D02*
X0006050D01*
X0013900Y0048280D02*
X0005750D01*
X0001200Y0021550D02*
X-0001513D01*
X0004029Y0031950D02*
Y0022300D01*
X0007750Y0021280D02*
X0006050D01*
X0007750Y0021190D02*
X0006050D01*
X0001050Y0035140D02*
X-0001523D01*
X0004299Y0016250D02*
Y0014149D01*
X0001050Y0034150D02*
X-0001522D01*
X0007750Y0020380D02*
X0006050D01*
X0007750Y0020920D02*
X0006050D01*
X0007750Y0021100D02*
X0006050D01*
X0003939Y0031950D02*
Y0022300D01*
X0003849Y0031950D02*
Y0022300D01*
X0003759Y0031950D02*
Y0022300D01*
X0003669Y0031950D02*
Y0022300D01*
X0003579Y0031950D02*
Y0022300D01*
X0003489Y0031950D02*
Y0022300D01*
X0003399Y0031950D02*
Y0022300D01*
X0007899Y0019200D02*
Y0015700D01*
X0005829Y0016250D02*
Y0015679D01*
X0007750Y0020830D02*
X0006050D01*
X0007750Y0020740D02*
X0006050D01*
X0007750Y0020650D02*
X0006050D01*
X0007750Y0022270D02*
X0006050D01*
X0007750Y0020470D02*
X0006050D01*
X0004839Y0006739D02*
Y0004539D01*
X0004749Y0006649D02*
Y0004450D01*
X0004659Y0006559D02*
Y0004450D01*
X0005199Y0007099D02*
Y0004899D01*
X0001200Y0021100D02*
X-0001512D01*
X0004209Y0016250D02*
Y0014059D01*
X0001200Y0018400D02*
X-0001510D01*
X0001050Y0036130D02*
X-0001524D01*
X0004119Y0016250D02*
Y0013969D01*
X0010678Y0009040D02*
X0007140D01*
X0003939Y0016250D02*
Y0013789D01*
X0003849Y0016250D02*
Y0013699D01*
X0003759Y0016250D02*
Y0013609D01*
X0003669Y0016250D02*
Y0013519D01*
X0003579Y0016250D02*
Y0013429D01*
X0003489Y0016250D02*
Y0013339D01*
X0003399Y0016250D02*
Y0013249D01*
X0003309Y0046550D02*
Y0038000D01*
X0000900Y0049900D02*
X-0001535D01*
X0002949Y0016250D02*
Y0012799D01*
X0004029Y0016250D02*
Y0013879D01*
X0010900Y0010660D02*
X0008760D01*
X0010900Y0010480D02*
X0008580D01*
X0010900Y0010570D02*
X0008670D01*
X0010900Y0010300D02*
X0008400D01*
X0010900Y0010210D02*
X0008310D01*
X0010900Y0010120D02*
X0008220D01*
X0010900Y0010030D02*
X0008130D01*
X0010900Y0009940D02*
X0008040D01*
X0010900Y0009850D02*
X0007950D01*
X0010900Y0009760D02*
X0007860D01*
X0010900Y0009670D02*
X0007770D01*
X0010900Y0009580D02*
X0007680D01*
X0010900Y0009490D02*
X0007590D01*
X0010896Y0009400D02*
X0007500D01*
X0010877Y0009310D02*
X0007410D01*
X0010778Y0009130D02*
X0007230D01*
X0010900Y0012820D02*
X0008950D01*
X0000900Y0046660D02*
X-0001532D01*
X0010869Y0019200D02*
Y0009287D01*
X0013900Y0054670D02*
X0012600D01*
X0001550Y0006520D02*
X-0001501D01*
X0010689Y0019200D02*
Y0009048D01*
X0007500Y0066370D02*
X0005900D01*
X0012309Y0049400D02*
Y0041000D01*
X0011229Y0034950D02*
Y0031750D01*
X0010839Y0009220D02*
X0007320D01*
X0005020Y0004720D02*
X-0001317D01*
X0010900Y0013450D02*
X0008950D01*
X0013900Y0041260D02*
X0008500D01*
X0013900Y0043510D02*
X0008500D01*
X0013900Y0043600D02*
X0008500D01*
X0013900Y0043690D02*
X0008500D01*
X0013900Y0043780D02*
X0008500D01*
X0005050Y0040810D02*
X-0001527D01*
X0003150Y0013000D02*
X-0001506D01*
X0010900Y0013360D02*
X0008950D01*
X0007989Y0019200D02*
Y0015700D01*
X0008079Y0019200D02*
Y0015700D01*
X0008169Y0019200D02*
Y0015700D01*
X0008259Y0019200D02*
Y0015700D01*
X0008349Y0019200D02*
Y0015700D01*
X0008439Y0019200D02*
Y0015700D01*
X0008529Y0019200D02*
Y0015700D01*
X0008619Y0019200D02*
Y0015700D01*
X0008709Y0019200D02*
Y0015700D01*
X0008799Y0019200D02*
Y0015700D01*
X0014919Y0068030D02*
Y0060469D01*
X0013900Y0043870D02*
X0008500D01*
X0010900Y0012640D02*
X0008950D01*
X0010900Y0012550D02*
X0008950D01*
X0010900Y0012460D02*
X0008950D01*
X0010900Y0012370D02*
X0008950D01*
X0010900Y0012280D02*
X0008950D01*
X0010900Y0012190D02*
X0008950D01*
X0010900Y0012100D02*
X0008950D01*
X0010900Y0012010D02*
X0008950D01*
X0010900Y0011920D02*
X0008950D01*
X0010900Y0011830D02*
X0008950D01*
X0010900Y0011740D02*
X0008950D01*
X0010900Y0011650D02*
X0008950D01*
X0010900Y0011560D02*
X0008950D01*
X0010900Y0011470D02*
X0008950D01*
X0010900Y0011380D02*
X0008950D01*
X0010900Y0011290D02*
X0008950D01*
X0010900Y0011200D02*
X0008950D01*
X0010900Y0011110D02*
X0008950D01*
X0010900Y0011020D02*
X0008950D01*
X0010900Y0010930D02*
X0008950D01*
X0008259Y0010159D02*
Y0007959D01*
X0008169Y0010069D02*
Y0007869D01*
X0013900Y0041170D02*
X0008500D01*
X0007719Y0034950D02*
Y0015700D01*
X0007700Y0040700D02*
Y0034950D01*
X0007629Y0040700D02*
Y0015700D01*
X0007539Y0040700D02*
Y0015700D01*
X0008889Y0019200D02*
Y0015700D01*
X0007269Y0040700D02*
Y0015700D01*
X0007179Y0040700D02*
Y0015700D01*
X0007089Y0040700D02*
Y0015700D01*
X0006999Y0040700D02*
Y0015700D01*
X0006909Y0040700D02*
Y0015700D01*
X0006819Y0040700D02*
Y0015700D01*
X0006729Y0040700D02*
Y0015700D01*
X0006639Y0040700D02*
Y0015700D01*
X0006549Y0040700D02*
Y0015700D01*
X0006459Y0040700D02*
Y0015700D01*
X0005739Y0016250D02*
Y0015589D01*
X0005289Y0007189D02*
Y0004989D01*
X0001050Y0037480D02*
X-0001525D01*
X0006009Y0016250D02*
Y0015700D01*
X0010900D02*
X-0001508D01*
X0007449Y0009349D02*
Y0007149D01*
Y0040700D02*
Y0015700D01*
X0010900Y0019200D02*
X0009150D01*
X0010900Y0015340D02*
X0008950D01*
X0010900Y0015250D02*
X0008950D01*
X0010900Y0015160D02*
X0008950D01*
X0010900Y0015070D02*
X0008950D01*
X0010900Y0014980D02*
X0008950D01*
X0010900Y0014890D02*
X0008950D01*
X0010900Y0014800D02*
X0008950D01*
X0010900Y0014710D02*
X0008950D01*
X0010900Y0014620D02*
X0008950D01*
X0010900Y0014530D02*
X0008950D01*
X0010900Y0014440D02*
X0008950D01*
X0010900Y0014350D02*
X0008950D01*
X0010900Y0014260D02*
X0008950D01*
X0010900Y0014170D02*
X0008950D01*
X0010900Y0014080D02*
X0008950D01*
X0010900Y0013990D02*
X0008950D01*
X0010900Y0013900D02*
X0008950D01*
X0010900Y0013810D02*
X0008950D01*
X0010900Y0013720D02*
X0008950D01*
X0010900Y0013630D02*
X0008950D01*
X0010900Y0013540D02*
X0008950D01*
X0008349Y0010249D02*
Y0008049D01*
X0007899Y0049400D02*
Y0046550D01*
X0005050Y0045670D02*
X-0001531D01*
X0007359Y0070150D02*
Y0046550D01*
X0013900Y0043240D02*
X0008500D01*
X0013900Y0043150D02*
X0008500D01*
X0013900Y0043060D02*
X0008500D01*
X0013900Y0042970D02*
X0008500D01*
X0013900Y0042880D02*
X0008500D01*
X0013900Y0042790D02*
X0008500D01*
X0013900Y0042700D02*
X0008500D01*
X0013900Y0042610D02*
X0008500D01*
X0013900Y0042520D02*
X0008500D01*
X0013900Y0042430D02*
X0008500D01*
X0013900Y0042340D02*
X0008500D01*
X0013900Y0042250D02*
X0008500D01*
X0013900Y0042160D02*
X0008500D01*
X0013900Y0042070D02*
X0008500D01*
X0013900Y0041980D02*
X0008500D01*
X0013900Y0041890D02*
X0008500D01*
X0013900Y0041800D02*
X0008500D01*
X0013900Y0041710D02*
X0008500D01*
X0013900Y0044140D02*
X0008500D01*
X0013900Y0046300D02*
X0008500D01*
X0013900Y0046390D02*
X0008500D01*
X0013900Y0046480D02*
X0008500D01*
X0013900Y0046030D02*
X0008500D01*
X0005050Y0046550D02*
X0000900D01*
X0013900Y0043420D02*
X0008500D01*
X0006279Y0040700D02*
Y0015700D01*
X0008079Y0049400D02*
Y0046550D01*
X0013900Y0045670D02*
X0008500D01*
X0007719Y0064250D02*
Y0046550D01*
X0007539Y0064250D02*
Y0046550D01*
X0013900Y0046210D02*
X0008500D01*
X0012550Y0041000D02*
X0008500D01*
X0013900Y0045580D02*
X0008500D01*
X0007449Y0070150D02*
Y0046550D01*
X0013900Y0038110D02*
X0012550D01*
X0013900Y0045940D02*
X0008500D01*
X0013900Y0045850D02*
X0008500D01*
X0013900Y0045760D02*
X0008500D01*
X0013900Y0046120D02*
X0008500D01*
X0007750Y0053860D02*
X-0001538D01*
X0007269Y0070150D02*
Y0046550D01*
X0007179Y0070150D02*
Y0046550D01*
X0007089Y0070150D02*
Y0046550D01*
X0006999Y0070150D02*
Y0046550D01*
X0006909Y0070150D02*
Y0046550D01*
X0006819Y0070150D02*
Y0046550D01*
X0006729Y0070150D02*
Y0046550D01*
X0006639Y0070150D02*
Y0046550D01*
X0006549Y0070150D02*
Y0046550D01*
X0006459Y0070150D02*
Y0046550D01*
X0006369Y0070150D02*
Y0046550D01*
X0013900Y0046570D02*
X0005750D01*
X0006189Y0070150D02*
Y0046550D01*
X0006099Y0070150D02*
Y0046550D01*
X0002859D02*
Y0038000D01*
X0006009Y0070150D02*
Y0046550D01*
X0007750Y0049450D02*
X0005750D01*
X0007809Y0049400D02*
Y0046550D01*
X0013900Y0041530D02*
X0008500D01*
X0013900Y0045490D02*
X0008500D01*
X0013900Y0045400D02*
X0008500D01*
X0013900Y0045310D02*
X0008500D01*
X0013900Y0045220D02*
X0008500D01*
X0013900Y0045130D02*
X0008500D01*
X0013900Y0045040D02*
X0008500D01*
X0013900Y0044950D02*
X0008500D01*
X0013900Y0044860D02*
X0008500D01*
X0013900Y0044770D02*
X0008500D01*
X0013900Y0044680D02*
X0008500D01*
X0013900Y0044590D02*
X0008500D01*
X0013900Y0044500D02*
X0008500D01*
X0013900Y0044410D02*
X0008500D01*
X0013900Y0044320D02*
X0008500D01*
X0013900Y0043330D02*
X0008500D01*
X0014420Y0068530D02*
X0012350D01*
X0010900Y0016330D02*
X0006050D01*
X0004930Y0004630D02*
X-0001227D01*
X0004840Y0004540D02*
X-0001094D01*
X0007809Y0064250D02*
Y0055450D01*
X0004119Y0046550D02*
Y0038000D01*
X0002049Y0070150D02*
Y0067500D01*
X0008500Y0046550D02*
Y0041000D01*
X0001550Y0011250D02*
Y0006200D01*
X0004300D02*
X0001550D01*
X0008950Y0010850D02*
X0004300Y0006200D01*
X0008950Y0015700D02*
Y0010850D01*
Y0015700D02*
X0005850D01*
X0001550Y0011400D01*
Y0011250D01*
X0014829Y0068120D02*
Y0060379D01*
X0012600Y0049400D02*
X0007750D01*
X0012600Y0055450D02*
Y0049400D01*
Y0055450D02*
X0007750D01*
Y0049400D01*
X0000900Y0052600D02*
Y0046550D01*
X0005750Y0052600D02*
X0000900D01*
X0005829Y0061450D02*
Y0046550D01*
X0005750Y0052600D02*
Y0046550D01*
X0001200Y0022300D02*
Y0016250D01*
X0006050Y0022300D02*
X0001200D01*
X0006050D02*
Y0016250D01*
X0001200D01*
X0007750Y0025150D02*
X-0001515D01*
X0007750Y0031700D02*
Y0025450D01*
X0010959Y0034950D02*
Y0031750D01*
X0009150Y0019200D02*
X0007750D01*
X0008439Y0034950D02*
Y0031700D01*
X0007809Y0034950D02*
Y0031700D01*
X0001050Y0038000D02*
Y0031950D01*
X0005900Y0038000D02*
X0001050D01*
X0005900D02*
Y0031950D01*
X0001050D01*
Y0067500D02*
Y0061450D01*
X0005900Y0067500D02*
X0001050D01*
X0005900D02*
Y0061450D01*
X0001050D01*
X0012550Y0034950D02*
X0007700D01*
X0012550Y0041000D02*
Y0034950D01*
X0013900Y0041440D02*
X0008500D01*
X0008439Y0049400D02*
Y0046550D01*
X0012350Y0064250D02*
X0007500D01*
X0016100Y0064300D02*
X0012350D01*
X0012399Y0070150D02*
Y0055450D01*
X0010900Y0016870D02*
X0006050D01*
X0010900Y0016960D02*
X0006050D01*
X0001239Y0031950D02*
Y0022300D01*
X0010059Y0034950D02*
Y0031700D01*
X0007750Y0029380D02*
X-0001519D01*
X0002589Y0031950D02*
Y0022300D01*
X0009789Y0034950D02*
Y0031700D01*
X0002859Y0031950D02*
Y0022300D01*
X0009699Y0034950D02*
Y0031700D01*
X0010419Y0034950D02*
Y0031700D01*
X0010900Y0017860D02*
X0006050D01*
X0010900Y0017140D02*
X0006050D01*
X0002499Y0031950D02*
Y0022300D01*
X0010329Y0034950D02*
Y0031700D01*
X0004389Y0031950D02*
Y0022300D01*
X0004749Y0031950D02*
Y0022300D01*
X0010900Y0018310D02*
X0006050D01*
X0010149Y0034950D02*
Y0031700D01*
X0007750Y0026950D02*
X-0001517D01*
X0004119Y0031950D02*
Y0022300D01*
X0004299Y0031950D02*
Y0022300D01*
X0004479Y0031950D02*
Y0022300D01*
X0004569Y0031950D02*
Y0022300D01*
X0004659Y0031950D02*
Y0022300D01*
X0004839Y0031950D02*
Y0022300D01*
X0013900Y0039460D02*
X0012550D01*
X0016100Y0066280D02*
X0012350D01*
X0007750Y0051610D02*
X0005750D01*
X0013900Y0039550D02*
X0012550D01*
X0013900Y0039640D02*
X0012550D01*
X0012399Y0049400D02*
Y0041000D01*
X0012489Y0049400D02*
Y0041000D01*
X0013900Y0039730D02*
X0012550D01*
X0008799Y0010699D02*
Y0008499D01*
X0016100Y0065470D02*
X0012350D01*
X0013900Y0039100D02*
X0012550D01*
X0014330Y0068620D02*
X0012350D01*
X0013900Y0050530D02*
X0012600D01*
X0013900Y0055030D02*
X0012600D01*
X0013900Y0055120D02*
X0012600D01*
X0013900Y0055210D02*
X0012600D01*
X0013900Y0055300D02*
X0012600D01*
X0013900Y0055390D02*
X0012600D01*
X0012350Y0070150D02*
Y0064250D01*
X0001599Y0016250D02*
Y0011449D01*
X0001689Y0016250D02*
Y0011539D01*
X0006640Y0006340D02*
X0004440D01*
X0006730Y0006430D02*
X0004530D01*
X0006820Y0006520D02*
X0004620D01*
X0007500Y0064300D02*
X0005900D01*
X0001869Y0046550D02*
Y0038000D01*
X0001959Y0046550D02*
Y0038000D01*
X0002049Y0046550D02*
Y0038000D01*
X0002139Y0046550D02*
Y0038000D01*
X0002229Y0046550D02*
Y0038000D01*
X0002319Y0046550D02*
Y0038000D01*
X0002409Y0046550D02*
Y0038000D01*
X0002499Y0046550D02*
Y0038000D01*
X0002589Y0046550D02*
Y0038000D01*
X0002679Y0046550D02*
Y0038000D01*
X0002769Y0046550D02*
Y0038000D01*
X0001869Y0061450D02*
Y0052600D01*
X0007750Y0049540D02*
X0005750D01*
X0004749Y0061450D02*
Y0052600D01*
X0001959Y0061450D02*
Y0052600D01*
X0002049Y0061450D02*
Y0052600D01*
X0004839Y0061450D02*
Y0052600D01*
X0007750Y0050530D02*
X0005750D01*
X0002769Y0061450D02*
Y0052600D01*
X0007899Y0064250D02*
Y0055450D01*
X0013900Y0049630D02*
X0012600D01*
X0013900Y0051610D02*
X0012600D01*
X0007989Y0064250D02*
Y0055450D01*
X0001509Y0070150D02*
Y0067500D01*
X0001599Y0070150D02*
Y0067500D01*
X0001689Y0070150D02*
Y0067500D01*
X0001779Y0070150D02*
Y0067500D01*
X0013900Y0036040D02*
X0012550D01*
X0011859Y0049400D02*
Y0041000D01*
X0001869Y0070150D02*
Y0067500D01*
X0001959Y0070150D02*
Y0067500D01*
X0011949Y0049400D02*
Y0041000D01*
X0012039Y0049400D02*
Y0041000D01*
X0012129Y0049400D02*
Y0041000D01*
X0012219Y0049400D02*
Y0041000D01*
X0013900Y0048370D02*
X0005750D01*
X0013900Y0048460D02*
X0005750D01*
X0005919Y0070150D02*
Y0046550D01*
X0001059Y0061450D02*
Y0052600D01*
X0001149Y0061450D02*
Y0052600D01*
X0001239Y0061450D02*
Y0052600D01*
X0001329Y0061450D02*
Y0052600D01*
X0001419Y0061450D02*
Y0052600D01*
X0010900Y0018130D02*
X0006050D01*
X0011049Y0034950D02*
Y0031750D01*
X0011139Y0034950D02*
Y0031750D01*
X0007700Y0034960D02*
X0005900D01*
X0007899Y0034950D02*
Y0031700D01*
X0007989Y0034950D02*
Y0031700D01*
X0008079Y0034950D02*
Y0031700D01*
X0008169Y0034950D02*
Y0031700D01*
X0008259Y0034950D02*
Y0031700D01*
X0008349Y0034950D02*
Y0031700D01*
X0007750Y0019210D02*
X0006050D01*
X0013900Y0046660D02*
X0005750D01*
X0013900Y0046750D02*
X0005750D01*
X0013900Y0046840D02*
X0005750D01*
X0013900Y0046930D02*
X0005750D01*
X0013900Y0047020D02*
X0005750D01*
X0013900Y0047110D02*
X0005750D01*
X0013900Y0047200D02*
X0005750D01*
X0013900Y0047290D02*
X0005750D01*
X0013900Y0047380D02*
X0005750D01*
X0013900Y0047470D02*
X0005750D01*
X0013900Y0047560D02*
X0005750D01*
X0002769Y0016250D02*
Y0012619D01*
X0005109Y0016250D02*
Y0014959D01*
X0010900Y0012910D02*
X0008950D01*
X0006729Y0008629D02*
Y0006429D01*
X0009250Y0008950D02*
X0007050D01*
X0010900Y0010750D02*
X0008850D01*
X0006189Y0040700D02*
Y0015700D01*
X0010900Y0013270D02*
X0008950D01*
X0013900Y0043960D02*
X0008500D01*
X0005109Y0040700D02*
Y0038000D01*
X0013900Y0041350D02*
X0008500D01*
X0013900Y0044050D02*
X0008500D01*
X-0001500Y0005250D02*
Y0005200D01*
X0004750Y0004450D02*
X-0000750D01*
X0009250Y0008950D02*
X0004750Y0004450D01*
X0010400Y0008950D02*
X0009250D01*
X0012650Y0031750D02*
X0010900D01*
X0013900Y0059450D02*
Y0033000D01*
X0016100Y0061650D02*
X0013900Y0059450D01*
X0016100Y0066850D02*
Y0061650D01*
X0012800Y0070150D02*
X0016100Y0066850D01*
X0013900Y0039820D02*
X0012550D01*
X-0001550Y0069550D02*
X-0001500Y0005250D01*
X0010900Y0015430D02*
X0008950D01*
X0011769Y0034950D02*
Y0031750D01*
X0016089Y0066860D02*
Y0061639D01*
X0015999Y0066950D02*
Y0061549D01*
X0015909Y0067040D02*
Y0061459D01*
X0015819Y0067130D02*
Y0061369D01*
X0015729Y0067220D02*
Y0061279D01*
X0015639Y0067310D02*
Y0061189D01*
X0015549Y0067400D02*
Y0061099D01*
X0015459Y0067490D02*
Y0061009D01*
X0015369Y0067580D02*
Y0060919D01*
X0015279Y0067670D02*
Y0060829D01*
X0015189Y0067760D02*
Y0060739D01*
X0015099Y0067850D02*
Y0060649D01*
X0015009Y0067940D02*
Y0060559D01*
X0014739Y0068210D02*
Y0060289D01*
X0014649Y0068300D02*
Y0060199D01*
X0014559Y0068390D02*
Y0060109D01*
X0014469Y0068480D02*
Y0060019D01*
X0014379Y0068570D02*
Y0059929D01*
X0014289Y0068660D02*
Y0059839D01*
X0014199Y0068750D02*
Y0059749D01*
X0014109Y0068840D02*
Y0059659D01*
X0014019Y0068930D02*
Y0059569D01*
X0013929Y0069020D02*
Y0059479D01*
X0013839Y0069110D02*
Y0032693D01*
X0013749Y0069200D02*
Y0032477D01*
X0013659Y0069290D02*
Y0032329D01*
X0013569Y0069380D02*
Y0032213D01*
X0013479Y0069470D02*
Y0032120D01*
X0013389Y0069560D02*
Y0032041D01*
X0013299Y0069650D02*
Y0031976D01*
X0013209Y0069740D02*
Y0031920D01*
X0007750Y0021010D02*
X0006050D01*
X0013119Y0069830D02*
Y0031874D01*
X0007500Y0064390D02*
X0005900D01*
X0012489Y0034950D02*
Y0031750D01*
X0012399Y0034950D02*
Y0031750D01*
X0012669Y0070150D02*
Y0031752D01*
X0010900Y0019200D02*
Y0009450D01*
X0001550Y0009040D02*
X-0001503D01*
X0010409Y0008950D02*
X0010400D01*
X0010599Y0019200D02*
Y0008995D01*
X0010509Y0019200D02*
Y0008964D01*
X0010419Y0019200D02*
Y0008950D01*
X0010329Y0019200D02*
Y0008950D01*
X0010239Y0019200D02*
Y0008950D01*
X0010149Y0019200D02*
Y0008950D01*
X0010059Y0019200D02*
Y0008950D01*
X0009969Y0019200D02*
Y0008950D01*
X0009879Y0019200D02*
Y0008950D01*
X0009789Y0019200D02*
Y0008950D01*
X0009699Y0019200D02*
Y0008950D01*
X0008620Y0008320D02*
X0006420D01*
X0009519Y0019200D02*
Y0008950D01*
X0009429Y0019200D02*
Y0008950D01*
X0009339Y0019200D02*
Y0008950D01*
X0009159Y0019200D02*
Y0008859D01*
X0009069Y0019200D02*
Y0008769D01*
X0010900Y0010840D02*
X0008940D01*
X0008979Y0019200D02*
Y0008679D01*
X0008889Y0010789D02*
Y0008589D01*
X0014240Y0068710D02*
X0012350D01*
X0008709Y0010609D02*
Y0008409D01*
X0008619Y0010519D02*
Y0008319D01*
X0008529Y0010429D02*
Y0008229D01*
X0008439Y0010339D02*
Y0008139D01*
X0003600Y0013450D02*
X-0001506D01*
X0005050Y0041440D02*
X-0001528D01*
X0001550Y0010840D02*
X-0001504D01*
X0004299Y0006200D02*
Y0004450D01*
X0008079Y0009979D02*
Y0007779D01*
X0007989Y0009889D02*
Y0007689D01*
X0007899Y0009799D02*
Y0007599D01*
X0005050Y0045760D02*
X-0001531D01*
X0005050Y0041710D02*
X-0001528D01*
X0007629Y0009529D02*
Y0007329D01*
X0003060Y0012910D02*
X-0001506D01*
X0009249Y0019200D02*
Y0008950D01*
X0008890Y0008590D02*
X0006690D01*
X0007269Y0009169D02*
Y0006969D01*
X0007179Y0009079D02*
Y0006879D01*
X0007089Y0008989D02*
Y0006789D01*
X0006999Y0008899D02*
Y0006699D01*
X0006909Y0008809D02*
Y0006609D01*
X0006819Y0008719D02*
Y0006519D01*
X0006549Y0008449D02*
Y0006249D01*
X0006459Y0008359D02*
Y0006159D01*
X0006369Y0008269D02*
Y0006069D01*
X0008440Y0008140D02*
X0006240D01*
X0006189Y0008089D02*
Y0005889D01*
X0001200Y0021010D02*
X-0001512D01*
X0005829Y0007729D02*
Y0005529D01*
X0005739Y0007639D02*
Y0005439D01*
X0005649Y0007549D02*
Y0005349D01*
X0005559Y0007459D02*
Y0005259D01*
X0005469Y0007369D02*
Y0005169D01*
X0007750Y0025600D02*
X-0001516D01*
X0013900Y0047650D02*
X0005750D01*
X0005199Y0016250D02*
Y0015049D01*
X0007360Y0007060D02*
X0005160D01*
X0005019Y0006919D02*
Y0004719D01*
X0004929Y0006829D02*
Y0004629D01*
X0001200Y0020380D02*
X-0001512D01*
X0004569Y0006469D02*
Y0004450D01*
X0004479Y0006379D02*
Y0004450D01*
X0004389Y0006289D02*
Y0004450D01*
X0004209Y0006200D02*
Y0004450D01*
X0004119Y0006200D02*
Y0004450D01*
X0006550Y0006250D02*
X0004350D01*
X0003939Y0006200D02*
Y0004450D01*
X0003849Y0006200D02*
Y0004450D01*
X0003759Y0006200D02*
Y0004450D01*
X0003669Y0006200D02*
Y0004450D01*
X0003579Y0006200D02*
Y0004450D01*
X0003489Y0006200D02*
Y0004450D01*
X0003399Y0006200D02*
Y0004450D01*
X0003309Y0006200D02*
Y0004450D01*
X0003219Y0006200D02*
Y0004450D01*
X0003129Y0006200D02*
Y0004450D01*
X0001550Y0008680D02*
X-0001503D01*
X0002859Y0061450D02*
Y0052600D01*
X0002970Y0012820D02*
X-0001506D01*
X0002859Y0016250D02*
Y0012709D01*
Y0006200D02*
Y0004450D01*
X0002769Y0006200D02*
Y0004450D01*
X0002679Y0006200D02*
Y0004450D01*
X0002589Y0006200D02*
Y0004450D01*
X0002499Y0006200D02*
Y0004450D01*
X0002409Y0006200D02*
Y0004450D01*
X0002319Y0006200D02*
Y0004450D01*
X0002229Y0006200D02*
Y0004450D01*
X0002139Y0006200D02*
Y0004450D01*
X0002049Y0006200D02*
Y0004450D01*
X0001959Y0006200D02*
Y0004450D01*
X0001550Y0006340D02*
X-0001501D01*
X0001779Y0006200D02*
Y0004450D01*
X0001599Y0006200D02*
Y0004450D01*
X0001509Y0016250D02*
Y0004450D01*
X0001419Y0016250D02*
Y0004450D01*
X0001059Y0046550D02*
Y0038000D01*
X0000969Y0046550D02*
Y0004450D01*
X0000879Y0070150D02*
Y0004450D01*
X0000789Y0070150D02*
Y0004450D01*
X0001550Y0008590D02*
X-0001502D01*
X0000609Y0070150D02*
Y0004450D01*
X0000519Y0070150D02*
Y0004450D01*
X0000429Y0070150D02*
Y0004450D01*
X0000339Y0070150D02*
Y0004450D01*
X0000249Y0070150D02*
Y0004450D01*
X0000159Y0070150D02*
Y0004450D01*
X0000069Y0070150D02*
Y0004450D01*
X-0000020Y0070150D02*
Y0004450D01*
X-0000110Y0070150D02*
Y0004450D01*
X-0000200Y0070150D02*
Y0004450D01*
X-0000290Y0070150D02*
Y0004450D01*
X-0000380Y0070150D02*
Y0004450D01*
X0010900Y0016510D02*
X0006050D01*
X0013029Y0069920D02*
Y0031836D01*
X0012219Y0034950D02*
Y0031750D01*
X0012849Y0070100D02*
Y0031781D01*
X0001200Y0016420D02*
X-0001509D01*
X0001329Y0031950D02*
Y0022300D01*
X0001419Y0031950D02*
Y0022300D01*
X0001509Y0031950D02*
Y0022300D01*
X0001599Y0031950D02*
Y0022300D01*
X0001689Y0031950D02*
Y0022300D01*
X0012759Y0070150D02*
Y0031763D01*
X0012129Y0034950D02*
Y0031750D01*
X0012039Y0034950D02*
Y0031750D01*
X0011949Y0034950D02*
Y0031750D01*
X0010900D02*
Y0031700D01*
X0011679Y0034950D02*
Y0031750D01*
X0011589Y0034950D02*
Y0031750D01*
X0011499Y0034950D02*
Y0031750D01*
X0011409Y0034950D02*
Y0031750D01*
X0011319Y0034950D02*
Y0031750D01*
X0004929Y0031950D02*
Y0022300D01*
X0009519Y0034950D02*
Y0031700D01*
X0009429Y0034950D02*
Y0031700D01*
X0009339Y0034950D02*
Y0031700D01*
X0009249Y0034950D02*
Y0031700D01*
X0009159Y0034950D02*
Y0031700D01*
X0009069Y0034950D02*
Y0031700D01*
X0008979Y0034950D02*
Y0031700D01*
X0008889Y0034950D02*
Y0031700D01*
X0008799Y0034950D02*
Y0031700D01*
X0008709Y0034950D02*
Y0031700D01*
X0008619Y0034950D02*
Y0031700D01*
X0008529Y0034950D02*
Y0031700D01*
X0004029Y0046550D02*
Y0038000D01*
X0005019Y0046550D02*
Y0038000D01*
X0004929Y0046550D02*
Y0038000D01*
X0004839Y0046550D02*
Y0038000D01*
X0004749Y0046550D02*
Y0038000D01*
X0004659Y0046550D02*
Y0038000D01*
X0004569Y0046550D02*
Y0038000D01*
X0004479Y0046550D02*
Y0038000D01*
X0004389Y0046550D02*
Y0038000D01*
X0004299Y0046550D02*
Y0038000D01*
X0004209Y0046550D02*
Y0038000D01*
X0007700Y0037300D02*
X0005900D01*
X0007700Y0037210D02*
X0005900D01*
X0007700Y0037120D02*
X0005900D01*
X0013900Y0033970D02*
X0005900D01*
X0013900Y0033880D02*
X0005900D01*
X0013900Y0033790D02*
X0005900D01*
X0013900Y0033700D02*
X0005900D01*
X0013900Y0033610D02*
X0005900D01*
X0013900Y0033520D02*
X0005900D01*
X0013900Y0033430D02*
X0005900D01*
X0013900Y0033340D02*
X0005900D01*
X0000900Y0049810D02*
X-0001534D01*
X0013900Y0041080D02*
X0008500D01*
X0005829Y0070150D02*
Y0067500D01*
X0005739Y0070150D02*
Y0067500D01*
X0005649Y0070150D02*
Y0067500D01*
X0005559Y0070150D02*
Y0067500D01*
X0005469Y0070150D02*
Y0067500D01*
X0005379Y0070150D02*
Y0067500D01*
X0005289Y0070150D02*
Y0067500D01*
X0005199Y0070150D02*
Y0067500D01*
X0004029Y0070150D02*
Y0067500D01*
X0005019Y0070150D02*
Y0067500D01*
X0004929Y0070150D02*
Y0067500D01*
X0004839Y0070150D02*
Y0067500D01*
X0004749Y0070150D02*
Y0067500D01*
X0004659Y0070150D02*
Y0067500D01*
X0004569Y0070150D02*
Y0067500D01*
X0004479Y0070150D02*
Y0067500D01*
X0004389Y0070150D02*
Y0067500D01*
X0004299Y0070150D02*
Y0067500D01*
X0004209Y0070150D02*
Y0067500D01*
X0007500Y0067450D02*
X0005900D01*
X0007500Y0067360D02*
X0005900D01*
X0007500Y0067270D02*
X0005900D01*
X0007500Y0067180D02*
X0005900D01*
X0007500Y0067090D02*
X0005900D01*
X0007500Y0067000D02*
X0005900D01*
X0007500Y0066910D02*
X0005900D01*
X0007500Y0066820D02*
X0005900D01*
X0007500Y0066730D02*
X0005900D01*
X0007500Y0066640D02*
X0005900D01*
X0007500Y0066550D02*
X0005900D01*
X0007500Y0066460D02*
X0005900D01*
X0016100Y0063310D02*
X0005900D01*
X0016100Y0063220D02*
X0005900D01*
X0016100Y0063130D02*
X0005900D01*
X0016100Y0063040D02*
X0005900D01*
X0016100Y0062950D02*
X0005900D01*
X0016100Y0062860D02*
X0005900D01*
X0016100Y0062770D02*
X0005900D01*
X0016100Y0062680D02*
X0005900D01*
X0016100Y0062590D02*
X0005900D01*
X0016100Y0062500D02*
X0005900D01*
X0016100Y0062410D02*
X0005900D01*
X0016100Y0062320D02*
X0005900D01*
X0016100Y0062230D02*
X0005900D01*
X0016100Y0062140D02*
X0005900D01*
X0015960Y0061510D02*
X0005900D01*
X0002859Y0070150D02*
Y0067500D01*
X0002769Y0070150D02*
Y0067500D01*
X0002679Y0070150D02*
Y0067500D01*
X0002589Y0070150D02*
Y0067500D01*
X0002499Y0070150D02*
Y0067500D01*
X0002409Y0070150D02*
Y0067500D01*
X0002319Y0070150D02*
Y0067500D01*
X0002229Y0070150D02*
Y0067500D01*
X0002139Y0070150D02*
Y0067500D01*
X0013900Y0037930D02*
X0012550D01*
X0013900Y0040990D02*
X0012550D01*
X0013900Y0040900D02*
X0012550D01*
X0013900Y0040810D02*
X0012550D01*
X0013900Y0040720D02*
X0012550D01*
X0013900Y0040630D02*
X0012550D01*
X0013900Y0040540D02*
X0012550D01*
X0013900Y0040450D02*
X0012550D01*
X0013900Y0040360D02*
X0012550D01*
X0013900Y0040270D02*
X0012550D01*
X0013900Y0040180D02*
X0012550D01*
X0013900Y0040090D02*
X0012550D01*
X0013900Y0040000D02*
X0012550D01*
X0013900Y0039910D02*
X0012550D01*
X0012800Y0070150D02*
X0012350D01*
X0016100Y0066190D02*
X0012350D01*
X0012890Y0070060D02*
X0012350D01*
X0012980Y0069970D02*
X0012350D01*
X0013070Y0069880D02*
X0012350D01*
X0013160Y0069790D02*
X0012350D01*
X0013250Y0069700D02*
X0012350D01*
X0013340Y0069610D02*
X0012350D01*
X0013430Y0069520D02*
X0012350D01*
X0013520Y0069430D02*
X0012350D01*
X0013610Y0069340D02*
X0012350D01*
X0013700Y0069250D02*
X0012350D01*
X0013790Y0069160D02*
X0012350D01*
X0013880Y0069070D02*
X0012350D01*
X0013970Y0068980D02*
X0012350D01*
X0014060Y0068890D02*
X0012350D01*
X0014150Y0068800D02*
X0012350D01*
X0016100Y0065380D02*
X0012350D01*
X0016100Y0065290D02*
X0012350D01*
X0016100Y0065200D02*
X0012350D01*
X0016100Y0065110D02*
X0012350D01*
X0016100Y0065020D02*
X0012350D01*
X0016100Y0064930D02*
X0012350D01*
X0016100Y0064840D02*
X0012350D01*
X0016100Y0064750D02*
X0012350D01*
X0016100Y0064660D02*
X0012350D01*
X0016100Y0064570D02*
X0012350D01*
X0016100Y0064480D02*
X0012350D01*
X0016100Y0064390D02*
X0012350D01*
X0010900Y0016780D02*
X0006050D01*
X0001050Y0037570D02*
X-0001525D01*
X0007750Y0053950D02*
X-0001538D01*
X0007700Y0035050D02*
X0005900D01*
X0012579Y0049400D02*
Y0031750D01*
X0012309Y0034950D02*
Y0031750D01*
X0013900Y0034960D02*
X0012550D01*
X-0000950Y0070150D02*
X-0001000D01*
X0011859Y0034950D02*
Y0031750D01*
X0010689Y0034950D02*
Y0031700D01*
X0012939Y0070010D02*
Y0031805D01*
X0001959Y0031950D02*
Y0022300D01*
X0002049Y0031950D02*
Y0022300D01*
X0002139Y0031950D02*
Y0022300D01*
X0007750Y0029740D02*
X-0001519D01*
X0002229Y0031950D02*
Y0022300D01*
X0002409Y0031950D02*
Y0022300D01*
X0010869Y0034950D02*
Y0031700D01*
X0009969Y0034950D02*
Y0031700D01*
X0010779Y0034950D02*
Y0031700D01*
X0004209Y0031950D02*
Y0022300D01*
X0002769Y0031950D02*
Y0022300D01*
X0007750Y0027760D02*
X-0001517D01*
X0007750Y0028390D02*
X-0001518D01*
X0007750Y0029020D02*
X-0001518D01*
X0002319Y0031950D02*
Y0022300D01*
X0013900Y0036220D02*
X0012550D01*
X0002679Y0031950D02*
Y0022300D01*
X0010599Y0034950D02*
Y0031700D01*
X0010509Y0034950D02*
Y0031700D01*
X0010900Y0018220D02*
X0006050D01*
X0010239Y0034950D02*
Y0031700D01*
X0013900Y0035140D02*
X0012550D01*
X0013900Y0035320D02*
X0012550D01*
X0013900Y0035500D02*
X0012550D01*
X0013900Y0035680D02*
X0012550D01*
X0013900Y0035860D02*
X0012550D01*
X0007989Y0049400D02*
Y0046550D01*
X0008259Y0049400D02*
Y0046550D01*
X0007359Y0040700D02*
Y0015700D01*
X0008529Y0049400D02*
Y0041000D01*
X0008619Y0049400D02*
Y0041000D01*
X0008709Y0049400D02*
Y0041000D01*
X0008799Y0049400D02*
Y0041000D01*
X0008889Y0049400D02*
Y0041000D01*
X0008979Y0049400D02*
Y0041000D01*
X0009069Y0049400D02*
Y0041000D01*
X0009159Y0049400D02*
Y0041000D01*
X0009249Y0049400D02*
Y0041000D01*
X0009339Y0049400D02*
Y0041000D01*
X0013900Y0039190D02*
X0012550D01*
X0013900Y0035050D02*
X0012550D01*
X0013900Y0035230D02*
X0012550D01*
X0013900Y0035410D02*
X0012550D01*
X0013900Y0035590D02*
X0012550D01*
X0013900Y0035770D02*
X0012550D01*
X0013900Y0035950D02*
X0012550D01*
X0008169Y0049400D02*
Y0046550D01*
X0008349Y0049400D02*
Y0046550D01*
X0009429Y0049400D02*
Y0041000D01*
X0009519Y0049400D02*
Y0041000D01*
X0015500Y0067450D02*
X0012350D01*
X0015590Y0067360D02*
X0012350D01*
X0015680Y0067270D02*
X0012350D01*
X0015770Y0067180D02*
X0012350D01*
X0015860Y0067090D02*
X0012350D01*
X0015950Y0067000D02*
X0012350D01*
X0016040Y0066910D02*
X0012350D01*
X0016100Y0066820D02*
X0012350D01*
X0016100Y0066730D02*
X0012350D01*
X0007500Y0067720D02*
X-0001548D01*
X0015410Y0067540D02*
X0012350D01*
X0013900Y0039280D02*
X0012550D01*
X0014510Y0068440D02*
X0012350D01*
X0014600Y0068350D02*
X0012350D01*
X0014690Y0068260D02*
X0012350D01*
X0014780Y0068170D02*
X0012350D01*
X0014870Y0068080D02*
X0012350D01*
X0014960Y0067990D02*
X0012350D01*
X0015050Y0067900D02*
X0012350D01*
X0015140Y0067810D02*
X0012350D01*
X0015230Y0067720D02*
X0012350D01*
X0016100Y0066640D02*
X0012350D01*
X0016100Y0066550D02*
X0012350D01*
X0016100Y0066460D02*
X0012350D01*
X0016100Y0066370D02*
X0012350D01*
X0001050Y0066820D02*
X-0001548D01*
X0010900Y0017050D02*
X0006050D01*
X0016100Y0066100D02*
X0012350D01*
X0016100Y0066010D02*
X0012350D01*
X0016100Y0065920D02*
X0012350D01*
X0016100Y0065830D02*
X0012350D01*
X0016100Y0065740D02*
X0012350D01*
X0016100Y0065650D02*
X0012350D01*
X0016100Y0065560D02*
X0012350D01*
X0011769Y0049400D02*
Y0041000D01*
X0013900Y0050710D02*
X0012600D01*
X0013900Y0050620D02*
X0012600D01*
X0011769Y0064250D02*
Y0055450D01*
X0007500Y0070150D02*
Y0064250D01*
X0013900Y0053320D02*
X0012600D01*
X0013900Y0053230D02*
X0012600D01*
X0013900Y0053140D02*
X0012600D01*
X0013900Y0053050D02*
X0012600D01*
X0013900Y0053500D02*
X0012600D01*
X0013900Y0053410D02*
X0012600D01*
X0013900Y0052060D02*
X0012600D01*
X0013900Y0039370D02*
X0012550D01*
X0013900Y0052780D02*
X0012600D01*
X0011949Y0064250D02*
Y0055450D01*
X0012039Y0064250D02*
Y0055450D01*
X0012129Y0064250D02*
Y0055450D01*
X0012219Y0064250D02*
Y0055450D01*
X0013900Y0051790D02*
X0012600D01*
X0013900Y0053860D02*
X0012600D01*
X0013900Y0054130D02*
X0012600D01*
X0007500Y0065560D02*
X0005900D01*
X0012309Y0064250D02*
Y0055450D01*
X0013900Y0052690D02*
X0012600D01*
X0011859Y0064250D02*
Y0055450D01*
X0013900Y0052870D02*
X0012600D01*
X0013900Y0052330D02*
X0012600D01*
X0013900Y0052240D02*
X0012600D01*
X0013900Y0052150D02*
X0012600D01*
X0010689Y0064250D02*
Y0055450D01*
X0013900Y0052510D02*
X0012600D01*
X0013900Y0052420D02*
X0012600D01*
X0007750Y0052870D02*
X-0001537D01*
X0010599Y0064250D02*
Y0055450D01*
X0010509Y0064250D02*
Y0055450D01*
X0010419Y0064250D02*
Y0055450D01*
X0010329Y0064250D02*
Y0055450D01*
X0010239Y0064250D02*
Y0055450D01*
X0012489Y0070150D02*
Y0055450D01*
X0013900Y0053950D02*
X0012600D01*
X0013900Y0054220D02*
X0012600D01*
X0013900Y0054490D02*
X0012600D01*
X0013900Y0054760D02*
X0012600D01*
X0000900Y0051880D02*
X-0001536D01*
X0010149Y0064250D02*
Y0055450D01*
X0012579Y0070150D02*
Y0055450D01*
X0010059Y0064250D02*
Y0055450D01*
X0013900Y0054040D02*
X0012600D01*
X0009969Y0064250D02*
Y0055450D01*
X0013900Y0054310D02*
X0012600D01*
X0009879Y0064250D02*
Y0055450D01*
X0013900Y0054580D02*
X0012600D01*
X0009789Y0064250D02*
Y0055450D01*
X0013900Y0054400D02*
X0012600D01*
X0009699Y0064250D02*
Y0055450D01*
X0013900Y0051700D02*
X0012600D01*
X0013900Y0051970D02*
X0012600D01*
X0013900Y0051880D02*
X0012600D01*
X0013900Y0051340D02*
X0012600D01*
X0013900Y0051250D02*
X0012600D01*
X0013900Y0051160D02*
X0012600D01*
X0013900Y0051070D02*
X0012600D01*
X0013900Y0050980D02*
X0012600D01*
X0013900Y0050890D02*
X0012600D01*
X0013900Y0050800D02*
X0012600D01*
X0013900Y0051520D02*
X0012600D01*
X0013900Y0051430D02*
X0012600D01*
X0007500Y0065650D02*
X0005900D01*
X0013436Y0032080D02*
X0005900D01*
X0013530Y0032170D02*
X0005900D01*
X0013608Y0032260D02*
X0005900D01*
X0013674Y0032350D02*
X0005900D01*
X0013729Y0032440D02*
X0005900D01*
X0013775Y0032530D02*
X0005900D01*
X0013814Y0032620D02*
X0005900D01*
X0013845Y0032710D02*
X0005900D01*
X0013869Y0032800D02*
X0005900D01*
X0013887Y0032890D02*
X0005900D01*
X0013898Y0032980D02*
X0005900D01*
X0005109Y0070150D02*
Y0067500D01*
X0016100Y0064210D02*
X0005900D01*
X0016100Y0064120D02*
X0005900D01*
X0016100Y0064030D02*
X0005900D01*
X0016100Y0063940D02*
X0005900D01*
X0016100Y0063850D02*
X0005900D01*
X0016100Y0063760D02*
X0005900D01*
X0016100Y0063670D02*
X0005900D01*
X0016100Y0063580D02*
X0005900D01*
X0016100Y0063490D02*
X0005900D01*
X0016100Y0063400D02*
X0005900D01*
X0013900Y0033070D02*
X0005900D01*
X0013900Y0033160D02*
X0005900D01*
X0013900Y0033250D02*
X0005900D01*
X0001149Y0046550D02*
Y0038000D01*
X0001239Y0046550D02*
Y0038000D01*
X0001329Y0046550D02*
Y0038000D01*
X0001419Y0046550D02*
Y0038000D01*
X0001509Y0046550D02*
Y0038000D01*
X0001599Y0046550D02*
Y0038000D01*
X0001689Y0046550D02*
Y0038000D01*
X0007500Y0065380D02*
X0005900D01*
X0007500Y0065290D02*
X0005900D01*
X0007500Y0065200D02*
X0005900D01*
X0007500Y0065110D02*
X0005900D01*
X0007500Y0065020D02*
X0005900D01*
X0007500Y0064930D02*
X0005900D01*
X0007500Y0064840D02*
X0005900D01*
X0007500Y0064750D02*
X0005900D01*
X0003039Y0070150D02*
Y0067500D01*
X0007500Y0064570D02*
X0005900D01*
X0007500Y0064480D02*
X0005900D01*
X0001050Y0066730D02*
X-0001548D01*
X0001050Y0066640D02*
X-0001548D01*
X0001050Y0032080D02*
X-0001521D01*
X0003129Y0070150D02*
Y0067500D01*
X0007500Y0066190D02*
X0005900D01*
X0004119Y0070150D02*
Y0067500D01*
X0003939Y0070150D02*
Y0067500D01*
X0003849Y0070150D02*
Y0067500D01*
X0003759Y0070150D02*
Y0067500D01*
X0003669Y0070150D02*
Y0067500D01*
X0003579Y0070150D02*
Y0067500D01*
X0003489Y0070150D02*
Y0067500D01*
X0003399Y0070150D02*
Y0067500D01*
X0003309Y0070150D02*
Y0067500D01*
X0003219Y0070150D02*
Y0067500D01*
X0007500Y0064660D02*
X0005900D01*
X0007500Y0066280D02*
X0005900D01*
X0007629Y0064250D02*
Y0046550D01*
X0016100Y0062050D02*
X0005900D01*
X0007500Y0066100D02*
X0005900D01*
X0007500Y0066010D02*
X0005900D01*
X0007500Y0065920D02*
X0005900D01*
X0007500Y0065830D02*
X0005900D01*
X0007500Y0065740D02*
X0005900D01*
X0002139Y0061450D02*
Y0052600D01*
X0007500Y0065470D02*
X0005900D01*
X0002949Y0046550D02*
Y0038000D01*
X0003849Y0061450D02*
Y0052600D01*
X0003939Y0061450D02*
Y0052600D01*
X0004119Y0061450D02*
Y0052600D01*
X0004209Y0061450D02*
Y0052600D01*
X0004299Y0061450D02*
Y0052600D01*
X0004389Y0061450D02*
Y0052600D01*
X0004479Y0061450D02*
Y0052600D01*
X0004569Y0061450D02*
Y0052600D01*
X0001779Y0046550D02*
Y0038000D01*
Y0061450D02*
Y0052600D01*
X0004659Y0061450D02*
Y0052600D01*
X0006279Y0070150D02*
Y0046550D01*
X0013900Y0049360D02*
X0005750D01*
X0013900Y0049270D02*
X0005750D01*
X0013900Y0049180D02*
X0005750D01*
X0013900Y0049090D02*
X0005750D01*
X0013900Y0049000D02*
X0005750D01*
X0013900Y0048910D02*
X0005750D01*
X0013900Y0048820D02*
X0005750D01*
X0013900Y0048730D02*
X0005750D01*
X0013900Y0048640D02*
X0005750D01*
X0005199Y0040700D02*
Y0038000D01*
X0005109Y0061450D02*
Y0052600D01*
X0005199Y0061450D02*
Y0052600D01*
X0005289Y0061450D02*
Y0052600D01*
X0005379Y0061450D02*
Y0052600D01*
X0005469Y0061450D02*
Y0052600D01*
X0005559Y0061450D02*
Y0052600D01*
X0005649Y0061450D02*
Y0052600D01*
X0005739Y0061450D02*
Y0052600D01*
X0013900Y0049540D02*
X0012600D01*
X0007750Y0052690D02*
X-0001537D01*
X0007750Y0050350D02*
X0005750D01*
X0007750Y0050260D02*
X0005750D01*
X0007750Y0050170D02*
X0005750D01*
X0007750Y0050080D02*
X0005750D01*
X0007750Y0049990D02*
X0005750D01*
X0007750Y0049900D02*
X0005750D01*
X0004929Y0061450D02*
Y0052600D01*
X0005019Y0061450D02*
Y0052600D01*
X0013900Y0048550D02*
X0005750D01*
X0013900Y0041620D02*
X0008500D01*
X0007750Y0049630D02*
X0005750D01*
X0007750Y0050620D02*
X0005750D01*
X0005379Y0007279D02*
Y0005079D01*
X0007700Y0035590D02*
X0005900D01*
X0008500Y0046550D02*
X0005750D01*
X0007750Y0049810D02*
X0005750D01*
X0003759Y0061450D02*
Y0052600D01*
X0003669Y0061450D02*
Y0052600D01*
X0003579Y0061450D02*
Y0052600D01*
X0003489Y0061450D02*
Y0052600D01*
X0003399Y0061450D02*
Y0052600D01*
X0001050Y0062140D02*
X-0001544D01*
X0004029Y0061450D02*
Y0052600D01*
X0010689Y0049400D02*
Y0041000D01*
X0002949Y0061450D02*
Y0052600D01*
X0007750Y0049720D02*
X0005750D01*
X0007750Y0051520D02*
X0005750D01*
X0007750Y0051430D02*
X0005750D01*
X0007750Y0051340D02*
X0005750D01*
X0007750Y0051250D02*
X0005750D01*
X0007750Y0051160D02*
X0005750D01*
X0007750Y0051070D02*
X0005750D01*
X0007750Y0050980D02*
X0005750D01*
X0007750Y0050890D02*
X0005750D01*
X0007750Y0050800D02*
X0005750D01*
X0007750Y0050710D02*
X0005750D01*
X0001869Y0031950D02*
Y0022300D01*
X0013900Y0037390D02*
X0012550D01*
X0013900Y0038380D02*
X0012550D01*
X0016050Y0061600D02*
X0005900D01*
X0013900Y0049450D02*
X0012600D01*
X0013900Y0038830D02*
X0012550D01*
X0013900Y0038740D02*
X0012550D01*
X0013900Y0038650D02*
X0012550D01*
X0013900Y0037480D02*
X0012550D01*
X0013900Y0039010D02*
X0012550D01*
X0013900Y0038920D02*
X0012550D01*
X0001050Y0061600D02*
X-0001544D01*
X0013900Y0038290D02*
X0012550D01*
X0016100Y0061690D02*
X0005900D01*
X0016100Y0061780D02*
X0005900D01*
X0016100Y0061870D02*
X0005900D01*
X0016100Y0061960D02*
X0005900D01*
X0013900Y0038020D02*
X0012550D01*
X0001149Y0070150D02*
Y0067500D01*
X0001239Y0070150D02*
Y0067500D01*
X0001329Y0070150D02*
Y0067500D01*
X0002949Y0070150D02*
Y0067500D01*
X0013900Y0038200D02*
X0012550D01*
X0013900Y0038560D02*
X0012550D01*
X0013900Y0038470D02*
X0012550D01*
X0013900Y0037840D02*
X0012550D01*
X0013900Y0037750D02*
X0012550D01*
X0013900Y0037660D02*
X0012550D01*
X0013900Y0037570D02*
X0012550D01*
X0000900Y0050620D02*
X-0001535D01*
X0013900Y0036130D02*
X0012550D01*
X0013900Y0037300D02*
X0012550D01*
X0007700Y0038380D02*
X-0001526D01*
X0010779Y0049400D02*
Y0041000D01*
X0010599Y0049400D02*
Y0041000D01*
X0010509Y0049400D02*
Y0041000D01*
X0010419Y0049400D02*
Y0041000D01*
X0010329Y0049400D02*
Y0041000D01*
X0010239Y0049400D02*
Y0041000D01*
X0010149Y0049400D02*
Y0041000D01*
X0010059Y0049400D02*
Y0041000D01*
X0009969Y0049400D02*
Y0041000D01*
X0013900Y0054850D02*
X0012600D01*
X0001050Y0037660D02*
X-0001525D01*
X0013320Y0031990D02*
X0005900D01*
X0013900Y0037210D02*
X0012550D01*
X0009789Y0049400D02*
Y0041000D01*
X0011049Y0049400D02*
Y0041000D01*
X0011139Y0049400D02*
Y0041000D01*
X0011229Y0049400D02*
Y0041000D01*
X0011319Y0049400D02*
Y0041000D01*
X0011409Y0049400D02*
Y0041000D01*
X0011499Y0049400D02*
Y0041000D01*
X0011589Y0049400D02*
Y0041000D01*
X0001419Y0070150D02*
Y0067500D01*
X0009609Y0049400D02*
Y0041000D01*
X0013900Y0037120D02*
X0012550D01*
X0010959Y0049400D02*
Y0041000D01*
X0001050Y0037390D02*
X-0001525D01*
X0013900Y0036850D02*
X0012550D01*
X0013900Y0036760D02*
X0012550D01*
X0013900Y0036670D02*
X0012550D01*
X0013900Y0036580D02*
X0012550D01*
X0013900Y0036490D02*
X0012550D01*
X0013900Y0036400D02*
X0012550D01*
X0013900Y0036310D02*
X0012550D01*
X0013900Y0037030D02*
X0012550D01*
X0013900Y0036940D02*
X0012550D01*
X0010900Y0016690D02*
X0006050D01*
X0007750Y0025450D02*
Y0019200D01*
X0007700Y0036130D02*
X0005900D01*
X0007750Y0022630D02*
X-0001513D01*
X0010900Y0017320D02*
X0006050D01*
X0010900Y0017410D02*
X0006050D01*
X0010900Y0017500D02*
X0006050D01*
X0001689Y0006200D02*
Y0004450D01*
X0013900Y0047920D02*
X0005750D01*
X0005019Y0031950D02*
Y0022300D01*
X0011679Y0049400D02*
Y0041000D01*
X0013900Y0048190D02*
X0005750D01*
X0001200Y0021640D02*
X-0001513D01*
X0010900Y0017590D02*
X0006050D01*
X0010900Y0017680D02*
X0006050D01*
X0010900Y0017770D02*
X0006050D01*
X0013900Y0047740D02*
X0005750D01*
X0010900Y0017950D02*
X0006050D01*
X0013900Y0048010D02*
X0005750D01*
X0010900Y0018040D02*
X0006050D01*
X0013900Y0047830D02*
X0005750D01*
X0010779Y0019200D02*
Y0009132D01*
X0010900Y0025450D02*
X0007750D01*
X0009609Y0034950D02*
Y0031700D01*
X0007700Y0036310D02*
X0005900D01*
X0005289Y0040700D02*
Y0038000D01*
X0005379Y0040700D02*
Y0038000D01*
X0005469Y0040700D02*
Y0038000D01*
X0005559Y0040700D02*
Y0038000D01*
X0005649Y0040700D02*
Y0038000D01*
X0005739Y0040700D02*
Y0038000D01*
X0005829Y0040700D02*
Y0038000D01*
X0005919Y0040700D02*
Y0022300D01*
X0007700Y0037390D02*
X0005900D01*
X0007700Y0037480D02*
X0005900D01*
X0007359Y0009259D02*
Y0007059D01*
X0013900Y0034870D02*
X0005900D01*
X0013900Y0034780D02*
X0005900D01*
X0013900Y0034690D02*
X0005900D01*
X0013900Y0034600D02*
X0005900D01*
X0013900Y0034510D02*
X0005900D01*
X0013900Y0034420D02*
X0005900D01*
X0013900Y0034330D02*
X0005900D01*
X0013900Y0034240D02*
X0005900D01*
X0013900Y0034150D02*
X0005900D01*
X0013900Y0034060D02*
X0005900D01*
X0007700Y0037570D02*
X0005900D01*
X0007700Y0037660D02*
X0005900D01*
X0007700Y0037750D02*
X0005900D01*
X0007700Y0037840D02*
X0005900D01*
X0007700Y0037930D02*
X0005900D01*
X0007700Y0036040D02*
X0005900D01*
X0007700Y0035950D02*
X0005900D01*
X0007700Y0035860D02*
X0005900D01*
X0007700Y0035770D02*
X0005900D01*
X0007700Y0035680D02*
X0005900D01*
X0003039Y0046550D02*
Y0038000D01*
X0007700Y0035500D02*
X0005900D01*
X0007700Y0035410D02*
X0005900D01*
X0007700Y0035320D02*
X0005900D01*
X0007700Y0035230D02*
X0005900D01*
X0007700Y0035140D02*
X0005900D01*
X0001050Y0066370D02*
X-0001547D01*
X0004389Y0016250D02*
Y0014239D01*
X0001050Y0063490D02*
X-0001545D01*
X0000900Y0049630D02*
X-0001534D01*
X0003939Y0046550D02*
Y0038000D01*
X0000900Y0048640D02*
X-0001534D01*
X0001050Y0065470D02*
X-0001547D01*
X0003849Y0046550D02*
Y0038000D01*
X0003759Y0046550D02*
Y0038000D01*
X0003669Y0046550D02*
Y0038000D01*
X0003579Y0046550D02*
Y0038000D01*
X0003489Y0046550D02*
Y0038000D01*
X0003399Y0046550D02*
Y0038000D01*
X0013900Y0048100D02*
X0005750D01*
X0001050Y0037300D02*
X-0001525D01*
X0007700Y0037030D02*
X0005900D01*
X0007700Y0036940D02*
X0005900D01*
X0005050Y0046550D02*
Y0040700D01*
X0007700Y0036760D02*
X0005900D01*
X0007700Y0036670D02*
X0005900D01*
X0007700Y0036580D02*
X0005900D01*
X0007700Y0036490D02*
X0005900D01*
X0007700Y0036400D02*
X0005900D01*
X0007700Y0036850D02*
X0005900D01*
X0007700Y0036220D02*
X0005900D01*
X0007750Y0020560D02*
X0006050D01*
X0005739Y0031950D02*
Y0022300D01*
X0005829Y0031950D02*
Y0022300D01*
X0006009Y0040700D02*
Y0022300D01*
X0006099Y0040700D02*
Y0015700D01*
X0005109Y0031950D02*
Y0022300D01*
X0005199Y0031950D02*
Y0022300D01*
X0005289Y0031950D02*
Y0022300D01*
X0005379Y0031950D02*
Y0022300D01*
X0005469Y0031950D02*
Y0022300D01*
X0005559Y0031950D02*
Y0022300D01*
X0005649Y0031950D02*
Y0022300D01*
X0001200Y0020920D02*
X-0001512D01*
X0010900Y0019120D02*
X0006050D01*
X0010900Y0019030D02*
X0006050D01*
X0010900Y0018940D02*
X0006050D01*
X0010900Y0018850D02*
X0006050D01*
X0010900Y0018760D02*
X0006050D01*
X0005649Y0016250D02*
Y0015499D01*
X0005559Y0016250D02*
Y0015409D01*
X0005469Y0016250D02*
Y0015319D01*
X0005379Y0016250D02*
Y0015229D01*
X0005289Y0016250D02*
Y0015139D01*
X0005019Y0016250D02*
Y0014869D01*
X0004929Y0016250D02*
Y0014779D01*
X0004839Y0016250D02*
Y0014689D01*
X0004749Y0016250D02*
Y0014599D01*
X0004659Y0016250D02*
Y0014509D01*
X0004569Y0016250D02*
Y0014419D01*
X0004479Y0016250D02*
Y0014329D01*
X0010900Y0012730D02*
X0008950D01*
X0010900Y0015610D02*
X0008950D01*
X0010900Y0015520D02*
X0008950D01*
X0010900Y0013180D02*
X0008950D01*
X0010900Y0013090D02*
X0008950D01*
X0009160Y0008860D02*
X0006960D01*
X0009070Y0008770D02*
X0006870D01*
X0008980Y0008680D02*
X0006780D01*
X0002679Y0016250D02*
Y0012529D01*
X0002589Y0016250D02*
Y0012439D01*
X0002499Y0016250D02*
Y0012349D01*
X0002409Y0016250D02*
Y0012259D01*
X0002319Y0016250D02*
Y0012169D01*
X0002229Y0016250D02*
Y0012079D01*
X0002139Y0016250D02*
Y0011989D01*
X0002049Y0016250D02*
Y0011899D01*
X0001959Y0016250D02*
Y0011809D01*
X0001869Y0016250D02*
Y0011719D01*
X0001779Y0016250D02*
Y0011629D01*
X0006279Y0008179D02*
Y0005979D01*
X0008800Y0008500D02*
X0006600D01*
X0008710Y0008410D02*
X0006510D01*
X0008530Y0008230D02*
X0006330D01*
X0005109Y0007009D02*
Y0004809D01*
X0008350Y0008050D02*
X0006150D01*
X0008260Y0007960D02*
X0006060D01*
X0008170Y0007870D02*
X0005970D01*
X0008080Y0007780D02*
X0005880D01*
X0007990Y0007690D02*
X0005790D01*
X0007900Y0007600D02*
X0005700D01*
X0007810Y0007510D02*
X0005610D01*
X0007720Y0007420D02*
X0005520D01*
X0007630Y0007330D02*
X0005430D01*
X0007540Y0007240D02*
X0005340D01*
X0007450Y0007150D02*
X0005250D01*
X0004029Y0006200D02*
Y0004450D01*
X0007270Y0006970D02*
X0005070D01*
X0007180Y0006880D02*
X0004980D01*
X0007090Y0006790D02*
X0004890D01*
X0007000Y0006700D02*
X0004800D01*
X0011679Y0064250D02*
Y0055450D01*
X0011589Y0064250D02*
Y0055450D01*
X0011499Y0064250D02*
Y0055450D01*
X0011409Y0064250D02*
Y0055450D01*
X0011319Y0064250D02*
Y0055450D01*
X0011229Y0064250D02*
Y0055450D01*
X0011139Y0064250D02*
Y0055450D01*
X0011049Y0064250D02*
Y0055450D01*
X0010959Y0064250D02*
Y0055450D01*
X0010869Y0064250D02*
Y0055450D01*
X0009609Y0064250D02*
Y0055450D01*
X0013900Y0050440D02*
X0012600D01*
X0013900Y0053770D02*
X0012600D01*
X0013900Y0053680D02*
X0012600D01*
X0013900Y0053590D02*
X0012600D01*
X0013900Y0052600D02*
X0012600D01*
X0013900Y0050350D02*
X0012600D01*
X0013900Y0050260D02*
X0012600D01*
X0013900Y0050170D02*
X0012600D01*
X0013900Y0050080D02*
X0012600D01*
X0013900Y0049990D02*
X0012600D01*
X0013900Y0049900D02*
X0012600D01*
X0013900Y0049810D02*
X0012600D01*
X0013900Y0049720D02*
X0012600D01*
X0009519Y0064250D02*
Y0055450D01*
X0009429Y0064250D02*
Y0055450D01*
X0009339Y0064250D02*
Y0055450D01*
X0009249Y0064250D02*
Y0055450D01*
X0009159Y0064250D02*
Y0055450D01*
X0009069Y0064250D02*
Y0055450D01*
X0008979Y0064250D02*
Y0055450D01*
X0008889Y0064250D02*
Y0055450D01*
X0008799Y0064250D02*
Y0055450D01*
X0008709Y0064250D02*
Y0055450D01*
X0008619Y0064250D02*
Y0055450D01*
X0008529Y0064250D02*
Y0055450D01*
X0008439Y0064250D02*
Y0055450D01*
X0008349Y0064250D02*
Y0055450D01*
X0008259Y0064250D02*
Y0055450D01*
X0008169Y0064250D02*
Y0055450D01*
X0007750Y0050440D02*
X0005750D01*
X0007750Y0052510D02*
X0005750D01*
X0007750Y0052420D02*
X0005750D01*
X0007750Y0052330D02*
X0005750D01*
X0007750Y0052240D02*
X0005750D01*
X0007750Y0052150D02*
X0005750D01*
X0007750Y0052060D02*
X0005750D01*
X0007750Y0051970D02*
X0005750D01*
X0007750Y0051880D02*
X0005750D01*
X0007750Y0051790D02*
X0005750D01*
X0007750Y0051700D02*
X0005750D01*
X0002679Y0061450D02*
Y0052600D01*
X0002589Y0061450D02*
Y0052600D01*
X0002499Y0061450D02*
Y0052600D01*
X0002409Y0061450D02*
Y0052600D01*
X0002319Y0061450D02*
Y0052600D01*
X0002229Y0061450D02*
Y0052600D01*
X0001689Y0061450D02*
Y0052600D01*
X0001599Y0061450D02*
Y0052600D01*
X0010900Y0031700D02*
X0007750D01*
X0008790Y0084250D02*
Y0079101D01*
X0012350Y0078190D02*
X0009701D01*
X0012350Y0078100D02*
X0009700D01*
X0008700Y0084250D02*
Y0079100D01*
X0012350Y0084250D02*
X0008700D01*
X0012350D02*
Y0078100D01*
X0012300Y0084250D02*
Y0078100D01*
X0012210Y0084250D02*
Y0078100D01*
X0012120Y0084250D02*
Y0078100D01*
X0012030Y0084250D02*
Y0078100D01*
X0011940Y0084250D02*
Y0078100D01*
X0011850Y0084250D02*
Y0078100D01*
X0011760Y0084250D02*
Y0078100D01*
X0011670Y0084250D02*
Y0078100D01*
X0011580Y0084250D02*
Y0078100D01*
X0011490Y0084250D02*
Y0078100D01*
X0011400Y0084250D02*
Y0078100D01*
X0011310Y0084250D02*
Y0078100D01*
X0011220Y0084250D02*
Y0078100D01*
X0011130Y0084250D02*
Y0078100D01*
X0011040Y0084250D02*
Y0078100D01*
X0010950Y0084250D02*
Y0078100D01*
X0010860Y0084250D02*
Y0078100D01*
X0010770Y0084250D02*
Y0078100D01*
X0010680Y0084250D02*
Y0078100D01*
X0010590Y0084250D02*
Y0078100D01*
X0010500Y0084250D02*
Y0078100D01*
X0010410Y0084250D02*
Y0078100D01*
X0010320Y0084250D02*
Y0078100D01*
X0010230Y0084250D02*
Y0078100D01*
X0010140Y0084250D02*
Y0078100D01*
X0010050Y0084250D02*
Y0078100D01*
X0009960Y0084250D02*
Y0078100D01*
X0009870Y0084250D02*
Y0078100D01*
X0009780Y0084250D02*
Y0078100D01*
X0009690Y0084250D02*
Y0078307D01*
X0009600Y0084250D02*
Y0078584D01*
X0009510Y0084250D02*
Y0078728D01*
X0009420Y0084250D02*
Y0078831D01*
X0009330Y0084250D02*
Y0078909D01*
X0009240Y0084250D02*
Y0078969D01*
X0009150Y0084250D02*
Y0079016D01*
X0009060Y0084250D02*
Y0079052D01*
X0008970Y0084250D02*
Y0079078D01*
X0008880Y0084250D02*
Y0079094D01*
X0012350Y0084220D02*
X0008700D01*
X0012350Y0084130D02*
X0008700D01*
X0012350Y0084040D02*
X0008700D01*
X0012350Y0083950D02*
X0008700D01*
X0012350Y0083860D02*
X0008700D01*
X0012350Y0083770D02*
X0008700D01*
X0012350Y0083680D02*
X0008700D01*
X0012350Y0083590D02*
X0008700D01*
X0012350Y0083500D02*
X0008700D01*
X0012350Y0083410D02*
X0008700D01*
X0012350Y0083320D02*
X0008700D01*
X0012350Y0083230D02*
X0008700D01*
X0012350Y0083140D02*
X0008700D01*
X0012350Y0083050D02*
X0008700D01*
X0012350Y0082960D02*
X0008700D01*
X0012350Y0082870D02*
X0008700D01*
X0012350Y0082780D02*
X0008700D01*
X0012350Y0082690D02*
X0008700D01*
X0012350Y0082600D02*
X0008700D01*
X0012350Y0082510D02*
X0008700D01*
X0012350Y0082420D02*
X0008700D01*
X0012350Y0082330D02*
X0008700D01*
X0012350Y0082240D02*
X0008700D01*
X0012350Y0082150D02*
X0008700D01*
X0012350Y0082060D02*
X0008700D01*
X0012350Y0081970D02*
X0008700D01*
X0012350Y0081880D02*
X0008700D01*
X0012350Y0081790D02*
X0008700D01*
X0012350Y0081700D02*
X0008700D01*
X0012350Y0081610D02*
X0008700D01*
X0012350Y0081520D02*
X0008700D01*
X0012350Y0081430D02*
X0008700D01*
X0012350Y0081340D02*
X0008700D01*
X0012350Y0081250D02*
X0008700D01*
X0012350Y0081160D02*
X0008700D01*
X0012350Y0081070D02*
X0008700D01*
X0012350Y0080980D02*
X0008700D01*
X0012350Y0080890D02*
X0008700D01*
X0012350Y0080800D02*
X0008700D01*
X0012350Y0080710D02*
X0008700D01*
X0012350Y0080620D02*
X0008700D01*
X0012350Y0080530D02*
X0008700D01*
X0012350Y0080440D02*
X0008700D01*
X0012350Y0080350D02*
X0008700D01*
X0012350Y0080260D02*
X0008700D01*
X0012350Y0080170D02*
X0008700D01*
X0012350Y0080080D02*
X0008700D01*
X0012350Y0079990D02*
X0008700D01*
X0012350Y0079900D02*
X0008700D01*
X0012350Y0079810D02*
X0008700D01*
X0012350Y0079720D02*
X0008700D01*
X0012350Y0079630D02*
X0008700D01*
X0012350Y0079540D02*
X0008700D01*
X0012350Y0079450D02*
X0008700D01*
X0012350Y0079360D02*
X0008700D01*
X0012350Y0079270D02*
X0008700D01*
X0012350Y0079180D02*
X0008700D01*
X0012350Y0079090D02*
X0008907D01*
X0012350Y0079000D02*
X0009184D01*
X0012350Y0078910D02*
X0009328D01*
X0012350Y0078820D02*
X0009431D01*
X0012350Y0078730D02*
X0009509D01*
X0012350Y0078640D02*
X0009569D01*
X0012350Y0078550D02*
X0009616D01*
X0012350Y0078460D02*
X0009652D01*
X0012350Y0078370D02*
X0009678D01*
X0012350Y0078280D02*
X0009694D01*
X0010690Y0077850D02*
Y0074450D01*
X0010600Y0077850D02*
Y0074450D01*
X0010510Y0077850D02*
Y0074450D01*
X0010420Y0077850D02*
Y0074450D01*
X0010330Y0077850D02*
Y0074450D01*
X0010240Y0077850D02*
Y0074450D01*
X0010150Y0077850D02*
Y0074450D01*
X0010060Y0077850D02*
Y0074450D01*
X0009970Y0077850D02*
Y0074450D01*
X0009880Y0077850D02*
Y0074450D01*
X0012300Y0077780D02*
X0009700D01*
X0012300Y0077690D02*
X0009700D01*
X0012300Y0077600D02*
X0009700D01*
X0012300Y0077510D02*
X0009700D01*
X0012300Y0077420D02*
X0009700D01*
X0012300Y0077330D02*
X0009700D01*
X0012300Y0077240D02*
X0009700D01*
X0012300Y0077150D02*
X0009700D01*
X0012300Y0077060D02*
X0009700D01*
X0012300Y0076970D02*
X0009700D01*
X0012300Y0076880D02*
X0009700D01*
X0012300Y0076790D02*
X0009700D01*
X0012300Y0076700D02*
X0009700D01*
X0012300Y0076610D02*
X0009700D01*
X0012300Y0076520D02*
X0009700D01*
X0012300Y0076430D02*
X0009700D01*
X0012300Y0076340D02*
X0009700D01*
X0012300Y0076250D02*
X0009700D01*
X0012300Y0076160D02*
X0009700D01*
X0012300Y0076070D02*
X0009700D01*
X0012300Y0075980D02*
X0009700D01*
X0012300Y0075890D02*
X0009700D01*
X0012300Y0075800D02*
X0009700D01*
X0012300Y0075710D02*
X0009700D01*
X0012300Y0075620D02*
X0009700D01*
X0012300Y0075530D02*
X0009700D01*
X0012300Y0075440D02*
X0009700D01*
X0012300Y0075350D02*
X0009700D01*
X0012300Y0075260D02*
X0009700D01*
X0012300Y0075170D02*
X0009700D01*
X0012300Y0075080D02*
X0009700D01*
X0012300Y0074990D02*
X0009700D01*
X0012300Y0074900D02*
X0009700D01*
X0012300Y0074810D02*
X0009700D01*
X0012300Y0074720D02*
X0009700D01*
X0012300Y0074630D02*
X0009700D01*
X0009790Y0077850D02*
Y0074470D01*
X0012300Y0074540D02*
X0009720D01*
X0012300Y0074450D02*
X0009850D01*
X0012300Y0077850D02*
Y0074450D01*
Y0077850D02*
X0009700D01*
Y0074600D01*
X0012220Y0077850D02*
Y0074450D01*
X0012130Y0077850D02*
Y0074450D01*
X0012040Y0077850D02*
Y0074450D01*
X0011950Y0077850D02*
Y0074450D01*
X0011860Y0077850D02*
Y0074450D01*
X0011770Y0077850D02*
Y0074450D01*
X0011680Y0077850D02*
Y0074450D01*
X0011590Y0077850D02*
Y0074450D01*
X0011500Y0077850D02*
Y0074450D01*
X0011410Y0077850D02*
Y0074450D01*
X0011320Y0077850D02*
Y0074450D01*
X0011230Y0077850D02*
Y0074450D01*
X0011140Y0077850D02*
Y0074450D01*
X0011050Y0077850D02*
Y0074450D01*
X0010960Y0077850D02*
Y0074450D01*
X0010870Y0077850D02*
Y0074450D01*
X0010780Y0077850D02*
Y0074450D01*
G01X0019150Y-0001450D02*
G03X0019220Y-0001452I0000070J0001080D01*
G03X0020302Y-0000370I0000000J0001082D01*
G03X0020300Y-0000300I0001082J0000000D01*
Y0003600D02*
G03X0022150Y0005450I0000214J0002063D01*
Y0007450D02*
G03X0019900Y0009700I0002306J0000056D01*
G01X0019898Y0016800D02*
G03X0019900Y0016700I0002702J0000000D01*
G01X0022600Y0019502D02*
G03X0019898Y0016800I0000000J0002702D01*
G01X0022700Y0019500D02*
G03X0022600Y0019502I0000100J0002700D01*
G01X0033698Y0019612D02*
G03X0033700Y0019500I0002990J0000000D01*
G01X0036688Y0022602D02*
G03X0033698Y0019612I0000000J0002990D01*
G01X0036800Y0022600D02*
G03X0036688Y0022602I0000112J0002988D01*
G01X0042600Y0019500D02*
G03X0039500Y0022600I0003233J0000133D01*
G01X0052850Y0019500D02*
G03X0053950Y0020600I0000081J0001181D01*
Y0025400D02*
G03X0053951Y0025446I0000754J0000046D01*
G03X0053196Y0026201I0000755J0000000D01*
G03X0053150Y0026200I0000000J0000755D01*
G01X0027750Y0028650D02*
G03X0030200Y0026200I0002501J0000051D01*
G01X0027750Y0032550D02*
G03X0027450Y0032850I0000325J0000025D01*
G01X0026750D02*
G03X0026450Y0032550I0000025J0000325D01*
G01X0023980Y0026199D02*
G03X0026451Y0028670I0000000J0002471D01*
G01X0023950Y0026200D02*
G03X0023980Y0026200I0000030J0002470D01*
G01X0016300D02*
G03X0016204Y0026204I0000096J0001204D01*
G03X0014996Y0024996I0000000J0001208D01*
G03X0015000Y0024900I0001208J0000000D01*
G01X0012450Y0000000D02*
G03X0012159Y-0000750I0000820J0000750D01*
G03X0012450Y-0001500I0001111J0000000D01*
G01X0034736Y0008404D02*
G03X0034650Y0008400I0000000J0000868D01*
G01X0035604Y0007536D02*
G03X0034736Y0008404I0000868J0000000D01*
G01X0035600Y0007450D02*
G03X0035604Y0007536I0000864J0000086D01*
G01X0035601Y0006250D02*
G03X0035600Y0006300I0000851J0000000D01*
G01X0034750Y0005398D02*
G03X0035602Y0006250I0000000J0000852D01*
G01X0034700Y0005400D02*
G03X0034750Y0005399I0000050J0000850D01*
G01X0028205Y-0000888D02*
G03X0028200Y-0000800I0000768J0000000D01*
G01X0027437Y-0001655D02*
G03X0028204Y-0000888I0000000J0000767D01*
G01X0027350Y-0001650D02*
G03X0027437Y-0001655I0000087J0000762D01*
G01X0024300Y-0000700D02*
G03X0025250Y-0001650I0001032J0000082D01*
G01X-0001500Y0005200D02*
G03X-0000750Y0004450I0000767J0000017D01*
G01X0010400Y0008950D02*
G03X0010900Y0009450I0000013J0000512D01*
G01X0012650Y0031750D02*
G03X0013900Y0033000I0000108J0001358D01*
G01X-0000950Y0070150D02*
G03X-0000975Y0070151I0000025J0000575D01*
Y0070150D02*
G03X-0001550Y0069575I0000000J0000575D01*
G03X-0001550Y0069550I0000575J0000000D01*
G01X0009700Y0078100D02*
G03X0009702Y0078158I0000942J0000058D01*
G03X0008758Y0079102I0000944J0000000D01*
G03X0008700Y0079100I0000000J0000944D01*
G01X0009700Y0074600D02*
G03X0009850Y0074450I0000175J0000025D01*
G54D74*
G01X0042820Y0052030D02*
Y0059280D01*
X0018520Y0044720D02*
Y0044730D01*
X0018300Y0044950D01*
Y0048800D01*
X0018750Y0049250D01*
X0042820Y0059280D02*
Y0048520D01*
X0056250Y0044500D02*
X0060200Y0040550D01*
Y0005700D01*
X0053850Y-0000650D01*
Y-0001500D01*
X0018750Y0049250D02*
Y0055950D01*
X0018300Y0056400D01*
Y0058400D01*
X0018750Y0058850D01*
X0019400Y0059500D01*
Y0071850D01*
X0019550Y0072000D01*
X0030750Y0067550D02*
Y0071200D01*
X0031500Y0071950D01*
X0052000Y0074250D02*
X0051950D01*
X0044150Y0066450D01*
Y0056700D01*
X0044250Y0056600D01*
X0037210Y0083410D02*
Y0063980D01*
X0023000Y0039350D02*
X0023050D01*
X0023500Y0039800D01*
Y0054900D01*
X0023150Y0055250D01*
X0023000Y0039350D02*
X0023050D01*
X0023500Y0038900D01*
Y0035450D01*
X0023800Y0062050D02*
X0023150Y0061400D01*
Y0055250D01*
G54D10*
X-0004134Y0003425D03*
Y0011693D03*
Y0014331D03*
Y0042283D03*
Y0045039D03*
Y0072992D03*
X0059055Y0000000D03*
X0000000D03*
X0059055Y0082677D03*
X0000000D03*
G54D11*
X0006844Y0011698D03*
Y0003430D03*
Y0042290D03*
Y0014337D03*
X0006750Y0072976D03*
Y0045024D03*
G54D16*
X0045750Y0081750D03*
Y0082750D03*
X0051500Y0037000D03*
X0027087Y0032250D03*
X0037913D03*
G54D17*
X0026000Y0013380D03*
Y0022120D03*
X0050250Y0013380D03*
Y0022120D03*
G54D18*
X0051500Y0035000D03*
G54D21*
X0051250Y0031500D03*
X0041250D03*
X0038250Y0019250D03*
Y0009250D03*
X0003594Y0005404D03*
Y0009724D03*
X0010094D03*
Y0005404D03*
G54D26*
X0024980Y0075858D03*
X0040138D03*
Y0079008D03*
X0010250Y0077000D03*
X0015500Y0064000D03*
G54D27*
X0025750Y0000880D03*
X0015750D03*
X0020750Y0006000D03*
X0030750D03*
X0011000Y0081370D03*
X0006000Y0076250D03*
G54D28*
X0020750Y0083000D03*
G54D29*
Y0081000D03*
G54D30*
X0058583Y0076250D03*
G54D31*
X0056417D03*
G54D32*
X0057480Y0060000D03*
X0057508Y0066500D03*
X0055527Y0081500D03*
G54D33*
X0023000Y0072750D03*
X0021000Y0066500D03*
X0018250Y0070500D03*
X0015500Y0066500D03*
X0040750Y0001250D03*
X0027500Y0066000D03*
X0047500Y0080000D03*
X0052250Y0083750D03*
X0010000Y0063901D03*
Y0065901D03*
X0010250Y0049000D03*
Y0051000D03*
X0003500Y0067848D03*
Y0065848D03*
X0003250Y0053000D03*
Y0051000D03*
X0010250Y0034500D03*
Y0036500D03*
Y0018750D03*
Y0020750D03*
X0003500Y0038500D03*
Y0036500D03*
Y0022750D03*
Y0020750D03*
X0055000Y0080153D03*
Y0082846D03*
G54D34*
Y0081992D03*
G54D35*
Y0081008D03*
G54D36*
X0052000Y0074250D03*
X0053000D03*
X0056000D03*
X0059000D03*
X0058992Y0061476D03*
Y0060492D03*
Y0059508D03*
Y0058524D03*
X0058008Y0061476D03*
Y0060492D03*
Y0059508D03*
X0059020Y0067976D03*
Y0066992D03*
Y0066008D03*
Y0065024D03*
X0058035Y0067976D03*
Y0066992D03*
Y0066008D03*
X0032250Y0047000D03*
X0033250D03*
Y0046000D03*
X0032250D03*
X0031250D03*
G54D37*
X0045750Y0080750D03*
X0058008Y0058524D03*
X0058035Y0065024D03*
X0031250Y0047000D03*
G54D38*
X0058750Y0053750D03*
G54D39*
Y0052963D03*
G54D44*
X0010000Y0067000D03*
Y0068000D03*
X0010250Y0052098D03*
Y0053098D03*
X0003500Y0064750D03*
Y0063750D03*
X0003250Y0049901D03*
Y0048901D03*
X0010250Y0037598D03*
Y0038598D03*
Y0021848D03*
Y0022848D03*
X0003500Y0035401D03*
Y0034401D03*
Y0019651D03*
Y0018651D03*
G54D51*
X0024980Y0080090D03*
G54D63*
X0010250Y0027185D03*
Y0027842D03*
Y0028500D03*
Y0029157D03*
Y0029815D03*
G54D69*
X0011000Y0077500D03*
X0010500Y0075500D03*
X0011500D03*
X0012000Y0075000D03*
X0011000D03*
Y0076000D03*
X0010000D03*
Y0075000D03*
X0009500Y0083500D03*
X0011500D03*
X0010500D03*
Y0079500D03*
X0009500D03*
X0010000Y0078500D03*
X0011000D03*
Y0079000D03*
X0010000Y0080000D03*
Y0079000D03*
X0009000D03*
Y0080000D03*
Y0081000D03*
Y0082000D03*
X0010000Y0083000D03*
X0011000D03*
X0012000D03*
Y0084000D03*
X0011000D03*
X0010000D03*
X0009000D03*
X0030000Y0013000D03*
X0031000D03*
Y0014000D03*
X0030000D03*
X0029000Y0013000D03*
Y0014000D03*
Y0015000D03*
X0030000D03*
X0031000D03*
X0032000Y0013000D03*
Y0014000D03*
Y0015000D03*
X0033000Y0013000D03*
Y0014000D03*
Y0015000D03*
X0034000D03*
Y0014000D03*
Y0013000D03*
X0035000D03*
Y0014000D03*
Y0015000D03*
X0036000D03*
Y0014000D03*
Y0013000D03*
X0037000D03*
Y0014000D03*
Y0015000D03*
X0043000Y0013000D03*
Y0014000D03*
X0042000Y0013000D03*
Y0014000D03*
X0041000Y0013000D03*
Y0014000D03*
X0040000Y0013000D03*
Y0014000D03*
X0039000Y0013000D03*
Y0014000D03*
X0038000Y0013000D03*
Y0014000D03*
Y0015000D03*
X0039000D03*
X0040000D03*
X0041000D03*
X0042000D03*
X0043000D03*
X0044000Y0013000D03*
Y0014000D03*
X0045000Y0013000D03*
Y0014000D03*
X0044000Y0015000D03*
X0045000D03*
X0046000D03*
X0047000D03*
X0046000Y0013000D03*
Y0014000D03*
X0047000D03*
Y0013000D03*
Y0012000D03*
X0046000D03*
X0045000D03*
X0044000D03*
X0043000D03*
X0042000D03*
X0041000D03*
X0040000D03*
X0039000D03*
X0038000D03*
X0037000D03*
X0036000D03*
X0035000D03*
X0034000D03*
X0032000D03*
X0033000D03*
X0031000D03*
X0030000D03*
X0029000D03*
X0026000Y0010000D03*
X0028000Y0011000D03*
X0029000D03*
X0030000D03*
X0031000D03*
X0032000D03*
X0033000D03*
X0034000D03*
X0035000D03*
X0036000D03*
X0037000D03*
X0038000D03*
X0039000D03*
X0040000D03*
X0041000D03*
X0042000D03*
X0043000D03*
X0044000D03*
X0045000D03*
X0046000D03*
X0047000D03*
Y0010000D03*
X0046000D03*
X0045000D03*
X0044000D03*
X0043000D03*
X0042000D03*
X0041000D03*
X0040000D03*
X0039000D03*
X0037000D03*
X0036000D03*
X0035000D03*
X0034000D03*
X0033000D03*
X0032000D03*
X0031000D03*
X0030000D03*
X0029000D03*
X0028000D03*
X0027000D03*
Y0009000D03*
X0028000D03*
X0029000D03*
X0030000D03*
X0031000D03*
X0032000D03*
X0033000D03*
X0034000D03*
X0035000D03*
X0036000D03*
X0037000D03*
X0039000Y0006000D03*
Y0007000D03*
X0038000Y0006000D03*
Y0007000D03*
X0037000D03*
X0036000D03*
Y0008000D03*
X0037000D03*
X0038000D03*
X0039000D03*
X0040000Y0006000D03*
Y0007000D03*
X0041000Y0006000D03*
Y0007000D03*
Y0008000D03*
X0042000Y0006000D03*
Y0007000D03*
Y0008000D03*
X0043000Y0006000D03*
Y0007000D03*
Y0008000D03*
X0040000D03*
Y0009000D03*
X0041000D03*
X0042000D03*
X0043000D03*
X0044000Y0006000D03*
Y0007000D03*
Y0008000D03*
Y0009000D03*
X0046000Y0007000D03*
X0045000Y0006000D03*
Y0007000D03*
X0047000Y0008000D03*
X0046000D03*
X0045000D03*
Y0009000D03*
X0046000D03*
X0047000D03*
X0048000Y0011000D03*
X0052000D03*
X0048000Y0010000D03*
X0049000D03*
X0050000D03*
X0051000D03*
X0052000D03*
X0051000Y0009000D03*
X0050000D03*
X0049000D03*
X0048000D03*
X0025000Y0025000D03*
X0024000D03*
X0023000Y0024000D03*
Y0023000D03*
Y0022000D03*
Y0021000D03*
Y0020000D03*
X0024000D03*
X0028000D03*
X0027000Y0025000D03*
X0026000D03*
Y0026000D03*
X0027000D03*
X0028000Y0025000D03*
Y0026000D03*
X0045000Y0020000D03*
Y0021000D03*
Y0022000D03*
Y0023000D03*
Y0024000D03*
Y0025000D03*
Y0026000D03*
X0053000Y0020000D03*
Y0021000D03*
X0048000Y0024000D03*
X0047000D03*
Y0023000D03*
Y0022000D03*
Y0021000D03*
X0048000Y0020000D03*
X0047000D03*
X0046000D03*
Y0021000D03*
Y0022000D03*
Y0023000D03*
Y0024000D03*
X0052000Y0025000D03*
X0051000D03*
X0050000D03*
X0049000D03*
X0048000D03*
X0047000D03*
X0046000D03*
Y0026000D03*
X0047000D03*
X0048000D03*
X0049000D03*
X0050000D03*
X0051000D03*
X0052000D03*
X0053000Y0023000D03*
Y0024000D03*
Y0025000D03*
Y0026000D03*
X0000000Y0015000D03*
X0001000D03*
Y0014000D03*
X0000000D03*
X-0001000D03*
Y0013000D03*
X0000000D03*
X0001000D03*
Y0012000D03*
Y0011000D03*
Y0010000D03*
Y0009000D03*
Y0008000D03*
X0000000D03*
Y0009000D03*
Y0010000D03*
Y0011000D03*
Y0012000D03*
X-0001000D03*
Y0011000D03*
Y0010000D03*
Y0009000D03*
Y0008000D03*
X0002000Y0005000D03*
Y0006000D03*
X0001000D03*
Y0007000D03*
X0000000Y0006000D03*
Y0007000D03*
X-0001000D03*
Y0006000D03*
Y0005000D03*
X0000000D03*
X0001000D03*
X0032000D03*
X0033000Y0006000D03*
X0032000Y0007000D03*
X0033000D03*
X0034000D03*
X0035000D03*
Y0008000D03*
X0034000D03*
X0033000D03*
X0032000D03*
X0031000D03*
X0030000D03*
X0029000Y0007000D03*
X0028000Y0006000D03*
X0029000D03*
X0031000Y0004000D03*
X0030000D03*
Y0003000D03*
X0029000Y0002000D03*
Y0003000D03*
Y0004000D03*
Y0005000D03*
X0027000D03*
X0028000D03*
Y0004000D03*
X0027000D03*
X0026000D03*
X0027000Y0002000D03*
X0025000Y0003000D03*
X0026000D03*
X0027000D03*
X0028000D03*
Y0002000D03*
Y0001000D03*
Y0000000D03*
Y-0001000D03*
X0027000D03*
X0026000D03*
X0025000D03*
X0019000Y0006000D03*
Y0005000D03*
X0018000D03*
X0020000Y0004000D03*
X0019000D03*
X0018000D03*
X0017000D03*
Y0002000D03*
Y0003000D03*
X0018000D03*
X0019000D03*
X0020000D03*
Y0002000D03*
X0019000D03*
X0018000D03*
Y0001000D03*
X0019000D03*
X0020000D03*
Y0000000D03*
X0019000D03*
X0018000D03*
X0014000D03*
X0013000D03*
X0020000Y-0001000D03*
X0019000D03*
X0018000D03*
X0017000D03*
X0016000D03*
X0015000D03*
X0014000D03*
X0013000D03*
X0041250Y0034750D03*
X0042000D03*
X0042700D03*
X0043450D03*
Y0035350D03*
X0042700D03*
X0042000D03*
X0041250D03*
Y0036050D03*
X0042000D03*
X0042700D03*
X0043450D03*
Y0036850D03*
X0042700D03*
X0042000D03*
X0041250D03*
X0043450Y0037550D03*
X0042700D03*
X0042000D03*
X0041250D03*
X0053300Y0051750D03*
X0052700D03*
X0053300Y0052400D03*
X0052700D03*
Y0053050D03*
X0053300D03*
Y0054450D03*
X0052650D03*
X0053300Y0053750D03*
X0052650D03*
X0047750Y0076700D03*
Y0077350D03*
X0048350Y0076050D03*
X0047750D03*
X0047150D03*
X0046600D03*
X0047150Y0076700D03*
X0046600D03*
X0047700Y0078600D03*
X0047150D03*
X0046600D03*
X0047150Y0077350D03*
X0046600D03*
X0047750Y0078000D03*
X0047150D03*
X0046600D03*
X0040750Y0045750D03*
X0047750D03*
X0023000Y0037500D03*
Y0033250D03*
G54D72*
X0021500Y0044800D03*
X0020000D03*
X0021500Y0056800D03*
X0020000D03*
X0021500Y0059200D03*
X0020000D03*
X0022550Y0068500D03*
X0016700Y0074500D03*
X0018200D03*
X0035000Y0049000D03*
X0033590Y-0000770D03*
X0059000Y0045600D03*
X0041300Y0055200D03*
X0034000Y0055000D03*
X0030200Y0055550D03*
X0036200D03*
X0034600Y0058350D03*
X0025800D03*
X0022550Y0035950D03*
X0019010D03*
X0019450Y0055200D03*
X0020950D03*
X0038031Y0056068D03*
X0024731D03*
X0002050Y0079750D03*
X0004650Y0080400D03*
X0031100Y0056450D03*
X0040300Y0054750D03*
X0038000D03*
X0054500Y0001500D03*
X0059300Y0045300D03*
X0042050Y0057000D03*
X0035800Y0056450D03*
X0028100Y0068500D03*
X0027450Y0070900D03*
X0021600Y0075950D03*
X0017950D03*
X0041900Y0053350D03*
X0033901Y0053351D03*
X0019300Y0072400D03*
X0016160D03*
X0025548Y0053901D03*
X0036451D03*
X0019790Y0050280D03*
X0020570D03*
X0054750Y0042000D03*
Y0040750D03*
X0020000Y0034000D03*
X0020900Y0053150D03*
X0040500Y0056500D03*
X0018500Y0036000D03*
X0022850Y0036250D03*
X0025800Y0058800D03*
X0034250D03*
X0021000Y0033950D03*
X0019250Y0052400D03*
X0020950D03*
X0021000Y0038450D03*
X0020100Y0053450D03*
X0044800Y0070250D03*
X0035050D03*
X0020500Y0043400D03*
X0022250D03*
X0019217Y0046733D03*
X0020067D03*
X0021000Y0062300D03*
X0022450Y0059500D03*
X0020550D03*
X0019750Y0040750D03*
X0021000D03*
X0034500Y0055250D03*
X0039050Y0055500D03*
X0024130Y0057550D03*
X0020550D03*
X0020323Y0045473D03*
X0022023D03*
X0020000Y0038800D03*
Y0061900D03*
X0049700Y0059500D03*
Y0057950D03*
X0031170Y0053470D03*
G54D75*
X0054000Y0006500D03*
X0035250Y-0000200D03*
X0049820Y-0000120D03*
X0038250Y0001550D03*
X0004000Y0078950D03*
X0005250Y0079000D03*
X0017250Y0077500D03*
X0017970Y0079530D03*
X0020000Y0077050D03*
X0019150Y0073950D03*
X0020250D03*
X0053750Y0040600D03*
X0018750Y0047750D03*
X0019000Y0045850D03*
X0021650Y0046750D03*
X0018750Y0057250D03*
X0022500Y0056750D03*
X0049500Y0045750D03*
X0022500Y0042500D03*
X0046000Y0045750D03*
X0036750Y0044750D03*
X0038250D03*
X0042500Y0045750D03*
X0044250D03*
X0056250Y0046100D03*
X0042820Y0052030D03*
X0060600Y0005100D03*
Y0041000D03*
X0018520Y0044720D03*
X0047500Y0081750D03*
X0042820Y0059280D03*
Y0048520D03*
X0012480Y0029780D03*
X0044750Y0058700D03*
X0044500Y0057500D03*
X0042300Y0053400D03*
X0040250Y0057550D03*
Y0054200D03*
X0035477Y0056600D03*
X0036350Y0054600D03*
X0031750Y0054500D03*
Y0057250D03*
X0034950Y0054304D03*
X0035250Y0051400D03*
X0034300Y0051800D03*
X0018750Y0049250D03*
X0023500Y0066500D03*
X0018750Y0058850D03*
X0019550Y0072000D03*
X0030750Y0067550D03*
X0031500Y0071950D03*
X0044250Y0056600D03*
X0050500Y0079050D03*
X0037210Y0083410D03*
Y0063980D03*
X0032000Y0067400D03*
X0033250Y0050250D03*
X0023000Y0039350D03*
X0050500Y0052500D03*
Y0056500D03*
X0036050Y0042100D03*
X0023500Y0035450D03*
G54D78*
X0055000Y0063964D03*
Y0060900D03*
X0056250Y0044500D03*
X0053850Y-0001500D03*
X0040220Y0067400D03*
X0042820D03*
X0033000D03*
X0037250Y0048750D03*
X0035750D03*
X0023800Y0062050D03*
X0023150Y0055250D03*
X0021750Y0072500D03*
X0020650Y0070450D03*
X0021750Y0070250D03*
X0026900Y0069650D03*
X0030250Y0070000D03*
X0031600Y0068450D03*
X0031500Y0069500D03*
X0023027Y0048023D03*
X0020323D03*
X0023880Y0061470D03*
X0022900Y0069650D03*
X0022000Y0054600D03*
X0020600Y0054850D03*
X0037250Y0050250D03*
X0039000Y0045750D03*
X0052500Y0076050D03*
X0050000Y0076800D03*
X0053500Y0077450D03*
X0052750Y0081000D03*
X0048750Y0073250D03*
X0045000D03*
X0042500D03*
X0043750Y0075000D03*
X0033000Y0069250D03*
X0022000Y0040050D03*
X0020350Y0040100D03*
X0020500Y0035600D03*
X0022050D03*
X0023000Y0052250D03*
X0029750Y0050250D03*
X0035674Y0057924D03*
X0033992Y0050107D03*
X0031242D03*
X0022350Y0073550D03*
X0022150Y0070450D03*
X0022000Y0068150D03*
X0042950D03*
X0035950Y0058450D03*
X0040800Y0057620D03*
X0059600Y0045000D03*
X0038670Y-0000820D03*
X0019750Y0064470D03*
Y0068500D03*
M02*
