*
G04 Mass Parameters ***
*
G04 Image ***
*
%IND:\00.LAVORI IN CORSO\METALTRONICA\25-334-0 (PFC )\25-334-0.DRD*%
%ICAS*%
%MOIN*%
%IPPOS*%
%ASAXBY*%
G74*%FSLAN2X34Y34*%
*
G04 Aperture Definitions ***
*
%ADD10C,0.1378*%
%ADD11C,0.1968*%
%ADD12C,0.0394*%
%ADD13R,0.1024X0.0510*%
%ADD14R,0.0380X0.0320*%
%ADD15R,0.0886X0.0905*%
%ADD16C,0.0800*%
%ADD17C,0.5118*%
%ADD18R,0.0800X0.0800*%
%ADD19R,0.0710X0.0400*%
%ADD20R,0.0501X0.0404*%
%ADD21C,0.1500*%
%ADD22R,0.0197X0.0315*%
%ADD23R,0.0500X0.0400*%
%ADD24R,0.0472X0.0472*%
%ADD25R,0.0404X0.0501*%
%ADD26C,0.0984*%
%ADD27C,0.2756*%
%ADD28C,0.1181*%
%ADD29R,0.1181X0.1181*%
%ADD30C,0.1200*%
%ADD31R,0.1200X0.1200*%
%ADD32C,0.0512*%
%ADD33C,0.0866*%
%ADD34R,0.0669X0.0669*%
%ADD35C,0.0669*%
%ADD36C,0.0787*%
%ADD37R,0.0787X0.0787*%
%ADD38R,0.0630X0.0630*%
%ADD39C,0.0630*%
%ADD40C,0.0187*%
%ADD41R,0.0270X0.0500*%
%ADD42R,0.1000X0.0600*%
%ADD43R,0.2760X0.2760*%
%ADD44C,0.0709*%
%ADD45R,0.0400X0.0500*%
%ADD46R,0.0680X0.1580*%
%ADD47R,0.0680X0.0550*%
%ADD48R,0.0510X0.1024*%
%ADD49R,0.0320X0.0380*%
%ADD50R,0.1080X0.0850*%
%ADD51R,0.0984X0.0984*%
%ADD52R,0.0236X0.0512*%
%ADD53R,0.1736X0.0787*%
%ADD54R,0.0236X0.0787*%
%ADD55O,0.0256X0.0650*%
%ADD56R,0.0787X0.1736*%
%ADD57R,0.0787X0.0236*%
%ADD58O,0.0118X0.0590*%
%ADD59O,0.0110X0.0700*%
%ADD60R,0.0110X0.0700*%
%ADD61O,0.0700X0.0110*%
%ADD62R,0.0700X0.0110*%
%ADD63O,0.0984X0.0590*%
%ADD64O,0.0630X0.0236*%
%ADD65R,0.0630X0.0236*%
%ADD66O,0.0650X0.0256*%
%ADD67R,0.0320X0.0640*%
%ADD68R,0.0600X0.0700*%
%ADD69C,0.0276*%
%ADD70C,0.0100*%
%ADD71C,0.0050*%
%ADD72C,0.0276*%
%ADD73C,0.0080*%
%ADD74C,0.0250*%
%ADD75C,0.0276*%
%ADD76C,0.0500*%
%ADD77C,0.0120*%
%ADD78C,0.0276*%
%ADD79C,0.0060*%
%ADD80C,0.1000*%
%ADD81C,0.0590*%
%ADD82C,0.0787*%
%ADD83R,0.0433X0.0433*%
%ADD84C,0.0079*%
%ADD85C,0.0157*%
%ADD86C,0.0010*%
%ADD87C,0.0394*%
*
G04 Plot Data ***
*
G54D70*
G01X0017042Y-0034917D02*
X0017208Y-0035083D01*
X0017542D01*
X0017708Y-0034917D01*
Y-0034750D01*
X0017375Y-0034417D01*
X0017708Y-0034083D01*
X0017042D01*
X0016758Y-0034750D02*
X0016092D01*
X0016425Y-0034083D01*
X0016592D01*
Y-0035083D01*
X0015308D02*
X0015808Y-0034083D01*
X0015142D01*
X0005312Y-0035083D02*
X0004729D01*
Y-0034083D01*
X0004446Y-0034750D02*
X0003779D01*
X0004446Y-0035083D02*
Y-0034583D01*
X0004196Y-0034083D01*
X0004029D01*
X0003779Y-0034583D01*
Y-0035083D01*
X0003162D02*
Y-0034083D01*
X0003496D02*
X0002829D01*
X0001962Y-0035083D02*
X0001879Y-0034917D01*
Y-0034250D01*
X0001962Y-0034083D01*
X0002462D01*
X0002546Y-0034250D01*
Y-0034917D01*
X0002462Y-0035083D01*
X0001962D01*
X0001262D02*
Y-0034083D01*
X0001596D02*
X0000929D01*
X0017708Y-0033000D02*
X0017264D01*
X0017486Y-0032556D01*
X0017597D01*
Y-0033222D01*
X0003869D02*
Y-0032889D01*
X0004092Y-0033222D02*
Y-0032889D01*
X0004036Y-0032778D01*
X0003925D01*
X0003869Y-0032889D01*
X0003814Y-0032778D01*
X0003703D01*
X0003647Y-0032889D01*
Y-0033222D01*
X0003169D02*
Y-0032889D01*
X0003392Y-0033222D02*
Y-0032889D01*
X0003336Y-0032778D01*
X0003225D01*
X0003169Y-0032889D01*
X0003114Y-0032778D01*
X0003003D01*
X0002947Y-0032889D01*
Y-0033222D01*
X0001686Y-0032889D02*
X0001353D01*
X0001297Y-0032778D01*
Y-0032667D01*
X0001353Y-0032556D01*
X0001686D01*
X0001742Y-0032667D01*
Y-0032778D01*
X0001519Y-0033222D01*
X0000986Y-0032889D02*
X0000653D01*
X0000597Y-0032778D01*
Y-0032667D01*
X0000653Y-0032556D01*
X0000986D01*
X0001042Y-0032667D01*
Y-0032778D01*
X0000819Y-0033222D01*
X0000286Y-0032889D02*
X-0000047D01*
X-0000103Y-0032778D01*
Y-0032667D01*
X-0000047Y-0032556D01*
X0000286D01*
X0000342Y-0032667D01*
Y-0032778D01*
X0000119Y-0033222D01*
X-0000469D02*
X-0000358D01*
Y-0033111D01*
X-0000469D01*
Y-0033222D01*
X-0001280Y-0033111D02*
X-0001225Y-0033222D01*
X-0000892D01*
X-0000836Y-0033111D01*
Y-0032889D01*
X-0000947Y-0032778D01*
X-0001280D01*
Y-0032556D01*
X-0000836D01*
X0017319Y-0031389D02*
X0017653D01*
X0017708Y-0031500D01*
Y-0031611D01*
X0017653Y-0031722D01*
X0017319D01*
X0017264Y-0031611D01*
Y-0031500D01*
X0017486Y-0031056D01*
X0003869Y-0031722D02*
Y-0031389D01*
X0004092Y-0031722D02*
Y-0031389D01*
X0004036Y-0031278D01*
X0003925D01*
X0003869Y-0031389D01*
X0003814Y-0031278D01*
X0003703D01*
X0003647Y-0031389D01*
Y-0031722D01*
X0003169D02*
Y-0031389D01*
X0003392Y-0031722D02*
Y-0031389D01*
X0003336Y-0031278D01*
X0003225D01*
X0003169Y-0031389D01*
X0003114Y-0031278D01*
X0003003D01*
X0002947Y-0031389D01*
Y-0031722D01*
X0001464D02*
X0001353Y-0031611D01*
X0001297Y-0031500D01*
Y-0031278D01*
X0001353Y-0031167D01*
X0001464Y-0031056D01*
X0001575D01*
X0001686Y-0031167D01*
X0001742Y-0031278D01*
Y-0031500D01*
X0001686Y-0031611D01*
X0001575Y-0031722D01*
X0001464D01*
X0000764D02*
X0000653Y-0031611D01*
X0000597Y-0031500D01*
Y-0031278D01*
X0000653Y-0031167D01*
X0000764Y-0031056D01*
X0000875D01*
X0000986Y-0031167D01*
X0001042Y-0031278D01*
Y-0031500D01*
X0000986Y-0031611D01*
X0000875Y-0031722D01*
X0000764D01*
X0000064D02*
X-0000047Y-0031611D01*
X-0000103Y-0031500D01*
Y-0031278D01*
X-0000047Y-0031167D01*
X0000064Y-0031056D01*
X0000175D01*
X0000286Y-0031167D01*
X0000342Y-0031278D01*
Y-0031500D01*
X0000286Y-0031611D01*
X0000175Y-0031722D01*
X0000064D01*
X-0000469D02*
X-0000358D01*
Y-0031611D01*
X-0000469D01*
Y-0031722D01*
X-0000836Y-0031500D02*
X-0001280D01*
X-0001058Y-0031056D01*
X-0000947D01*
Y-0031722D01*
X0025564Y-0030222D02*
Y-0029556D01*
X0025508Y-0030222D02*
X0025841D01*
X0025953Y-0030000D01*
Y-0029778D01*
X0025841Y-0029556D01*
X0025508D01*
X0025141Y-0029889D02*
X0024808D01*
X0025253Y-0030222D02*
X0024808D01*
Y-0029556D01*
X0025253D01*
X0024330Y-0030222D02*
Y-0029556D01*
X0024553D02*
X0024108D01*
X0023853Y-0030000D02*
X0023408D01*
X0023853Y-0030222D02*
Y-0029889D01*
X0023686Y-0029556D01*
X0023575D01*
X0023408Y-0029889D01*
Y-0030222D01*
X0023153D02*
X0022764D01*
Y-0029556D01*
X0022064Y-0029889D02*
X0022397D01*
X0022508Y-0029778D01*
Y-0029667D01*
X0022397Y-0029556D01*
X0022064D01*
Y-0030222D01*
X0021808Y-0029889D02*
X0021364D01*
X0021108Y-0029556D02*
Y-0030222D01*
X0020997Y-0030111D01*
X0020775Y-0029667D01*
X0020664Y-0029556D01*
Y-0030222D01*
X0020019D02*
X0019964Y-0030111D01*
Y-0029667D01*
X0020019Y-0029556D01*
X0020353D01*
X0020408Y-0029667D01*
Y-0030111D01*
X0020353Y-0030222D01*
X0020019D01*
X0019708Y-0029556D02*
Y-0030222D01*
X0019597Y-0030111D01*
X0019375Y-0029667D01*
X0019264Y-0029556D01*
Y-0030222D01*
X0017430D02*
X0017319Y-0030111D01*
X0017264Y-0030000D01*
Y-0029778D01*
X0017319Y-0029667D01*
X0017430Y-0029556D01*
X0017542D01*
X0017653Y-0029667D01*
X0017708Y-0029778D01*
Y-0030000D01*
X0017653Y-0030111D01*
X0017542Y-0030222D01*
X0017430D01*
X0017008D02*
X0016786D01*
X0016897D02*
Y-0029556D01*
X0016786Y-0029667D01*
X0003869Y-0030222D02*
Y-0029889D01*
X0004092Y-0030222D02*
Y-0029889D01*
X0004036Y-0029778D01*
X0003925D01*
X0003869Y-0029889D01*
X0003814Y-0029778D01*
X0003703D01*
X0003647Y-0029889D01*
Y-0030222D01*
X0003169D02*
Y-0029889D01*
X0003392Y-0030222D02*
Y-0029889D01*
X0003336Y-0029778D01*
X0003225D01*
X0003169Y-0029889D01*
X0003114Y-0029778D01*
X0003003D01*
X0002947Y-0029889D01*
Y-0030222D01*
X0001686Y-0029889D02*
X0001353D01*
X0001297Y-0029778D01*
Y-0029667D01*
X0001353Y-0029556D01*
X0001686D01*
X0001742Y-0029667D01*
Y-0029778D01*
X0001519Y-0030222D01*
X0000986Y-0029889D02*
X0000653D01*
X0000597Y-0029778D01*
Y-0029667D01*
X0000653Y-0029556D01*
X0000986D01*
X0001042Y-0029667D01*
Y-0029778D01*
X0000819Y-0030222D01*
X0000342Y-0030000D02*
X-0000103D01*
X0000119Y-0029556D01*
X0000230D01*
Y-0030222D01*
X-0000469D02*
X-0000358D01*
Y-0030111D01*
X-0000469D01*
Y-0030222D01*
X-0001280Y-0030111D02*
X-0001169Y-0030222D01*
X-0000947D01*
X-0000836Y-0030111D01*
Y-0030000D01*
X-0001058Y-0029778D01*
X-0000836Y-0029556D01*
X-0001280D01*
X0017319Y-0028389D02*
X0017653D01*
X0017708Y-0028500D01*
Y-0028611D01*
X0017653Y-0028722D01*
X0017319D01*
X0017264Y-0028611D01*
Y-0028500D01*
X0017486Y-0028056D01*
X0003869Y-0028722D02*
Y-0028389D01*
X0004092Y-0028722D02*
Y-0028389D01*
X0004036Y-0028278D01*
X0003925D01*
X0003869Y-0028389D01*
X0003814Y-0028278D01*
X0003703D01*
X0003647Y-0028389D01*
Y-0028722D01*
X0003169D02*
Y-0028389D01*
X0003392Y-0028722D02*
Y-0028389D01*
X0003336Y-0028278D01*
X0003225D01*
X0003169Y-0028389D01*
X0003114Y-0028278D01*
X0003003D01*
X0002947Y-0028389D01*
Y-0028722D01*
X0001464D02*
X0001353Y-0028611D01*
X0001297Y-0028500D01*
Y-0028278D01*
X0001353Y-0028167D01*
X0001464Y-0028056D01*
X0001575D01*
X0001686Y-0028167D01*
X0001742Y-0028278D01*
Y-0028500D01*
X0001686Y-0028611D01*
X0001575Y-0028722D01*
X0001464D01*
X0000764D02*
X0000653Y-0028611D01*
X0000597Y-0028500D01*
Y-0028278D01*
X0000653Y-0028167D01*
X0000764Y-0028056D01*
X0000875D01*
X0000986Y-0028167D01*
X0001042Y-0028278D01*
Y-0028500D01*
X0000986Y-0028611D01*
X0000875Y-0028722D01*
X0000764D01*
X0000008D02*
X0000342Y-0028056D01*
X-0000103D01*
X-0000469Y-0028722D02*
X-0000358D01*
Y-0028611D01*
X-0000469D01*
Y-0028722D01*
X-0000836D02*
X-0001280D01*
X-0000836Y-0028278D01*
Y-0028167D01*
X-0000892Y-0028056D01*
X-0001225D01*
X-0001280Y-0028167D01*
X0017708Y-0027222D02*
X0017264D01*
X0017708Y-0026778D01*
Y-0026667D01*
X0017653Y-0026556D01*
X0017319D01*
X0017264Y-0026667D01*
X0003869Y-0027222D02*
Y-0026889D01*
X0004092Y-0027222D02*
Y-0026889D01*
X0004036Y-0026778D01*
X0003925D01*
X0003869Y-0026889D01*
X0003814Y-0026778D01*
X0003703D01*
X0003647Y-0026889D01*
Y-0027222D01*
X0003169D02*
Y-0026889D01*
X0003392Y-0027222D02*
Y-0026889D01*
X0003336Y-0026778D01*
X0003225D01*
X0003169Y-0026889D01*
X0003114Y-0026778D01*
X0003003D01*
X0002947Y-0026889D01*
Y-0027222D01*
X0001464D02*
X0001353Y-0027111D01*
X0001297Y-0027000D01*
Y-0026778D01*
X0001353Y-0026667D01*
X0001464Y-0026556D01*
X0001575D01*
X0001686Y-0026667D01*
X0001742Y-0026778D01*
Y-0027000D01*
X0001686Y-0027111D01*
X0001575Y-0027222D01*
X0001464D01*
X0000764D02*
X0000653Y-0027111D01*
X0000597Y-0027000D01*
Y-0026778D01*
X0000653Y-0026667D01*
X0000764Y-0026556D01*
X0000875D01*
X0000986Y-0026667D01*
X0001042Y-0026778D01*
Y-0027000D01*
X0000986Y-0027111D01*
X0000875Y-0027222D01*
X0000764D01*
X0000286Y-0026889D02*
X0000342Y-0026778D01*
Y-0026667D01*
X0000286Y-0026556D01*
X-0000047D01*
X-0000103Y-0026667D01*
Y-0026778D01*
X-0000047Y-0026889D01*
X0000286D01*
X0000342Y-0027000D01*
Y-0027111D01*
X0000286Y-0027222D01*
X-0000047D01*
X-0000103Y-0027111D01*
Y-0027000D01*
X-0000047Y-0026889D01*
X-0000469Y-0027222D02*
X-0000358D01*
Y-0027111D01*
X-0000469D01*
Y-0027222D01*
X-0000836D02*
X-0001058D01*
X-0000947D02*
Y-0026556D01*
X-0001058Y-0026667D01*
X0017708Y-0025500D02*
X0017264D01*
X0017486Y-0025056D01*
X0017597D01*
Y-0025722D01*
X0003869D02*
Y-0025389D01*
X0004092Y-0025722D02*
Y-0025389D01*
X0004036Y-0025278D01*
X0003925D01*
X0003869Y-0025389D01*
X0003814Y-0025278D01*
X0003703D01*
X0003647Y-0025389D01*
Y-0025722D01*
X0003169D02*
Y-0025389D01*
X0003392Y-0025722D02*
Y-0025389D01*
X0003336Y-0025278D01*
X0003225D01*
X0003169Y-0025389D01*
X0003114Y-0025278D01*
X0003003D01*
X0002947Y-0025389D01*
Y-0025722D01*
X0001464D02*
X0001353Y-0025611D01*
X0001297Y-0025500D01*
Y-0025278D01*
X0001353Y-0025167D01*
X0001464Y-0025056D01*
X0001575D01*
X0001686Y-0025167D01*
X0001742Y-0025278D01*
Y-0025500D01*
X0001686Y-0025611D01*
X0001575Y-0025722D01*
X0001464D01*
X0000764D02*
X0000653Y-0025611D01*
X0000597Y-0025500D01*
Y-0025278D01*
X0000653Y-0025167D01*
X0000764Y-0025056D01*
X0000875D01*
X0000986Y-0025167D01*
X0001042Y-0025278D01*
Y-0025500D01*
X0000986Y-0025611D01*
X0000875Y-0025722D01*
X0000764D01*
X0000008D02*
X0000342Y-0025056D01*
X-0000103D01*
X-0000469Y-0025722D02*
X-0000358D01*
Y-0025611D01*
X-0000469D01*
Y-0025722D01*
X-0000836D02*
X-0001058D01*
X-0000947D02*
Y-0025056D01*
X-0001058Y-0025167D01*
X0017708Y-0024222D02*
X0017264D01*
X0017708Y-0023778D01*
Y-0023667D01*
X0017653Y-0023556D01*
X0017319D01*
X0017264Y-0023667D01*
X0003869Y-0024222D02*
Y-0023889D01*
X0004092Y-0024222D02*
Y-0023889D01*
X0004036Y-0023778D01*
X0003925D01*
X0003869Y-0023889D01*
X0003814Y-0023778D01*
X0003703D01*
X0003647Y-0023889D01*
Y-0024222D01*
X0003169D02*
Y-0023889D01*
X0003392Y-0024222D02*
Y-0023889D01*
X0003336Y-0023778D01*
X0003225D01*
X0003169Y-0023889D01*
X0003114Y-0023778D01*
X0003003D01*
X0002947Y-0023889D01*
Y-0024222D01*
X0001464D02*
X0001353Y-0024111D01*
X0001297Y-0024000D01*
Y-0023778D01*
X0001353Y-0023667D01*
X0001464Y-0023556D01*
X0001575D01*
X0001686Y-0023667D01*
X0001742Y-0023778D01*
Y-0024000D01*
X0001686Y-0024111D01*
X0001575Y-0024222D01*
X0001464D01*
X0000764D02*
X0000653Y-0024111D01*
X0000597Y-0024000D01*
Y-0023778D01*
X0000653Y-0023667D01*
X0000764Y-0023556D01*
X0000875D01*
X0000986Y-0023667D01*
X0001042Y-0023778D01*
Y-0024000D01*
X0000986Y-0024111D01*
X0000875Y-0024222D01*
X0000764D01*
X-0000047Y-0023889D02*
X0000286D01*
X0000342Y-0024000D01*
Y-0024111D01*
X0000286Y-0024222D01*
X-0000047D01*
X-0000103Y-0024111D01*
Y-0024000D01*
X0000119Y-0023556D01*
X-0000469Y-0024222D02*
X-0000358D01*
Y-0024111D01*
X-0000469D01*
Y-0024222D01*
X-0000836D02*
X-0001058D01*
X-0000947D02*
Y-0023556D01*
X-0001058Y-0023667D01*
X0017708Y-0022500D02*
X0017264D01*
X0017486Y-0022056D01*
X0017597D01*
Y-0022722D01*
X0017008D02*
X0016564D01*
X0017008Y-0022278D01*
Y-0022167D01*
X0016953Y-0022056D01*
X0016619D01*
X0016564Y-0022167D01*
X0003869Y-0022722D02*
Y-0022389D01*
X0004092Y-0022722D02*
Y-0022389D01*
X0004036Y-0022278D01*
X0003925D01*
X0003869Y-0022389D01*
X0003814Y-0022278D01*
X0003703D01*
X0003647Y-0022389D01*
Y-0022722D01*
X0003169D02*
Y-0022389D01*
X0003392Y-0022722D02*
Y-0022389D01*
X0003336Y-0022278D01*
X0003225D01*
X0003169Y-0022389D01*
X0003114Y-0022278D01*
X0003003D01*
X0002947Y-0022389D01*
Y-0022722D01*
X0001686Y-0022389D02*
X0001353D01*
X0001297Y-0022278D01*
Y-0022167D01*
X0001353Y-0022056D01*
X0001686D01*
X0001742Y-0022167D01*
Y-0022278D01*
X0001519Y-0022722D01*
X0000986Y-0022389D02*
X0000653D01*
X0000597Y-0022278D01*
Y-0022167D01*
X0000653Y-0022056D01*
X0000986D01*
X0001042Y-0022167D01*
Y-0022278D01*
X0000819Y-0022722D01*
X0000342Y-0022500D02*
X-0000103D01*
X0000119Y-0022056D01*
X0000230D01*
Y-0022722D01*
X-0000469D02*
X-0000358D01*
Y-0022611D01*
X-0000469D01*
Y-0022722D01*
X-0000836D02*
X-0001058D01*
X-0000947D02*
Y-0022056D01*
X-0001058Y-0022167D01*
X0017319Y-0020889D02*
X0017653D01*
X0017708Y-0021000D01*
Y-0021111D01*
X0017653Y-0021222D01*
X0017319D01*
X0017264Y-0021111D01*
Y-0021000D01*
X0017486Y-0020556D01*
X0017008Y-0021222D02*
X0016786D01*
X0016897D02*
Y-0020556D01*
X0016786Y-0020667D01*
X0003869Y-0021222D02*
Y-0020889D01*
X0004092Y-0021222D02*
Y-0020889D01*
X0004036Y-0020778D01*
X0003925D01*
X0003869Y-0020889D01*
X0003814Y-0020778D01*
X0003703D01*
X0003647Y-0020889D01*
Y-0021222D01*
X0003169D02*
Y-0020889D01*
X0003392Y-0021222D02*
Y-0020889D01*
X0003336Y-0020778D01*
X0003225D01*
X0003169Y-0020889D01*
X0003114Y-0020778D01*
X0003003D01*
X0002947Y-0020889D01*
Y-0021222D01*
X0001464D02*
X0001353Y-0021111D01*
X0001297Y-0021000D01*
Y-0020778D01*
X0001353Y-0020667D01*
X0001464Y-0020556D01*
X0001575D01*
X0001686Y-0020667D01*
X0001742Y-0020778D01*
Y-0021000D01*
X0001686Y-0021111D01*
X0001575Y-0021222D01*
X0001464D01*
X0000764D02*
X0000653Y-0021111D01*
X0000597Y-0021000D01*
Y-0020778D01*
X0000653Y-0020667D01*
X0000764Y-0020556D01*
X0000875D01*
X0000986Y-0020667D01*
X0001042Y-0020778D01*
Y-0021000D01*
X0000986Y-0021111D01*
X0000875Y-0021222D01*
X0000764D01*
X-0000103Y-0021111D02*
X0000008Y-0021222D01*
X0000230D01*
X0000342Y-0021111D01*
Y-0021000D01*
X0000119Y-0020778D01*
X0000342Y-0020556D01*
X-0000103D01*
X-0000469Y-0021222D02*
X-0000358D01*
Y-0021111D01*
X-0000469D01*
Y-0021222D01*
X-0000836D02*
X-0001058D01*
X-0000947D02*
Y-0020556D01*
X-0001058Y-0020667D01*
X0025564Y-0019722D02*
Y-0019056D01*
X0025508Y-0019722D02*
X0025841D01*
X0025953Y-0019500D01*
Y-0019278D01*
X0025841Y-0019056D01*
X0025508D01*
X0025141Y-0019389D02*
X0024808D01*
X0025253Y-0019722D02*
X0024808D01*
Y-0019056D01*
X0025253D01*
X0024330Y-0019722D02*
Y-0019056D01*
X0024553D02*
X0024108D01*
X0023853Y-0019500D02*
X0023408D01*
X0023853Y-0019722D02*
Y-0019389D01*
X0023686Y-0019056D01*
X0023575D01*
X0023408Y-0019389D01*
Y-0019722D01*
X0023153D02*
X0022764D01*
Y-0019056D01*
X0022064Y-0019389D02*
X0022397D01*
X0022508Y-0019278D01*
Y-0019167D01*
X0022397Y-0019056D01*
X0022064D01*
Y-0019722D01*
X0021808Y-0019389D02*
X0021364D01*
X0021108Y-0019056D02*
Y-0019722D01*
X0020997Y-0019611D01*
X0020775Y-0019167D01*
X0020664Y-0019056D01*
Y-0019722D01*
X0020019D02*
X0019964Y-0019611D01*
Y-0019167D01*
X0020019Y-0019056D01*
X0020353D01*
X0020408Y-0019167D01*
Y-0019611D01*
X0020353Y-0019722D01*
X0020019D01*
X0019708Y-0019056D02*
Y-0019722D01*
X0019597Y-0019611D01*
X0019375Y-0019167D01*
X0019264Y-0019056D01*
Y-0019722D01*
X0017264Y-0019611D02*
X0017375Y-0019722D01*
X0017597D01*
X0017708Y-0019611D01*
Y-0019500D01*
X0017486Y-0019278D01*
X0017708Y-0019056D01*
X0017264D01*
X0003869Y-0019722D02*
Y-0019389D01*
X0004092Y-0019722D02*
Y-0019389D01*
X0004036Y-0019278D01*
X0003925D01*
X0003869Y-0019389D01*
X0003814Y-0019278D01*
X0003703D01*
X0003647Y-0019389D01*
Y-0019722D01*
X0003169D02*
Y-0019389D01*
X0003392Y-0019722D02*
Y-0019389D01*
X0003336Y-0019278D01*
X0003225D01*
X0003169Y-0019389D01*
X0003114Y-0019278D01*
X0003003D01*
X0002947Y-0019389D01*
Y-0019722D01*
X0001464D02*
X0001353Y-0019611D01*
X0001297Y-0019500D01*
Y-0019278D01*
X0001353Y-0019167D01*
X0001464Y-0019056D01*
X0001575D01*
X0001686Y-0019167D01*
X0001742Y-0019278D01*
Y-0019500D01*
X0001686Y-0019611D01*
X0001575Y-0019722D01*
X0001464D01*
X0000764D02*
X0000653Y-0019611D01*
X0000597Y-0019500D01*
Y-0019278D01*
X0000653Y-0019167D01*
X0000764Y-0019056D01*
X0000875D01*
X0000986Y-0019167D01*
X0001042Y-0019278D01*
Y-0019500D01*
X0000986Y-0019611D01*
X0000875Y-0019722D01*
X0000764D01*
X-0000103Y-0019611D02*
X0000008Y-0019722D01*
X0000230D01*
X0000342Y-0019611D01*
Y-0019500D01*
X0000119Y-0019278D01*
X0000342Y-0019056D01*
X-0000103D01*
X-0000469Y-0019722D02*
X-0000358D01*
Y-0019611D01*
X-0000469D01*
Y-0019722D01*
X-0000836D02*
X-0001058D01*
X-0000947D02*
Y-0019056D01*
X-0001058Y-0019167D01*
X0017708Y-0018222D02*
X0017264D01*
X0017708Y-0017778D01*
Y-0017667D01*
X0017653Y-0017556D01*
X0017319D01*
X0017264Y-0017667D01*
X0003869Y-0018222D02*
Y-0017889D01*
X0004092Y-0018222D02*
Y-0017889D01*
X0004036Y-0017778D01*
X0003925D01*
X0003869Y-0017889D01*
X0003814Y-0017778D01*
X0003703D01*
X0003647Y-0017889D01*
Y-0018222D01*
X0003169D02*
Y-0017889D01*
X0003392Y-0018222D02*
Y-0017889D01*
X0003336Y-0017778D01*
X0003225D01*
X0003169Y-0017889D01*
X0003114Y-0017778D01*
X0003003D01*
X0002947Y-0017889D01*
Y-0018222D01*
X0001464D02*
X0001353Y-0018111D01*
X0001297Y-0018000D01*
Y-0017778D01*
X0001353Y-0017667D01*
X0001464Y-0017556D01*
X0001575D01*
X0001686Y-0017667D01*
X0001742Y-0017778D01*
Y-0018000D01*
X0001686Y-0018111D01*
X0001575Y-0018222D01*
X0001464D01*
X0000764D02*
X0000653Y-0018111D01*
X0000597Y-0018000D01*
Y-0017778D01*
X0000653Y-0017667D01*
X0000764Y-0017556D01*
X0000875D01*
X0000986Y-0017667D01*
X0001042Y-0017778D01*
Y-0018000D01*
X0000986Y-0018111D01*
X0000875Y-0018222D01*
X0000764D01*
X0000342D02*
X-0000103D01*
X0000342Y-0017778D01*
Y-0017667D01*
X0000286Y-0017556D01*
X-0000047D01*
X-0000103Y-0017667D01*
X-0000469Y-0018222D02*
X-0000358D01*
Y-0018111D01*
X-0000469D01*
Y-0018222D01*
X-0000836D02*
X-0001058D01*
X-0000947D02*
Y-0017556D01*
X-0001058Y-0017667D01*
X0017708Y-0016722D02*
X0017264D01*
X0017708Y-0016278D01*
Y-0016167D01*
X0017653Y-0016056D01*
X0017319D01*
X0017264Y-0016167D01*
X0017008Y-0016500D02*
X0016564D01*
X0016786Y-0016056D01*
X0016897D01*
Y-0016722D01*
X0003869D02*
Y-0016389D01*
X0004092Y-0016722D02*
Y-0016389D01*
X0004036Y-0016278D01*
X0003925D01*
X0003869Y-0016389D01*
X0003814Y-0016278D01*
X0003703D01*
X0003647Y-0016389D01*
Y-0016722D01*
X0003169D02*
Y-0016389D01*
X0003392Y-0016722D02*
Y-0016389D01*
X0003336Y-0016278D01*
X0003225D01*
X0003169Y-0016389D01*
X0003114Y-0016278D01*
X0003003D01*
X0002947Y-0016389D01*
Y-0016722D01*
X0001464D02*
X0001353Y-0016611D01*
X0001297Y-0016500D01*
Y-0016278D01*
X0001353Y-0016167D01*
X0001464Y-0016056D01*
X0001575D01*
X0001686Y-0016167D01*
X0001742Y-0016278D01*
Y-0016500D01*
X0001686Y-0016611D01*
X0001575Y-0016722D01*
X0001464D01*
X0000764D02*
X0000653Y-0016611D01*
X0000597Y-0016500D01*
Y-0016278D01*
X0000653Y-0016167D01*
X0000764Y-0016056D01*
X0000875D01*
X0000986Y-0016167D01*
X0001042Y-0016278D01*
Y-0016500D01*
X0000986Y-0016611D01*
X0000875Y-0016722D01*
X0000764D01*
X0000342D02*
X0000119D01*
X0000230D02*
Y-0016056D01*
X0000119Y-0016167D01*
X-0000358Y-0016722D02*
X-0000247D01*
Y-0016611D01*
X-0000358D01*
Y-0016722D01*
X-0000725D02*
X-0000947D01*
X-0000836D02*
Y-0016056D01*
X-0000947Y-0016167D01*
X0017430Y-0015222D02*
X0017319Y-0015111D01*
X0017264Y-0015000D01*
Y-0014778D01*
X0017319Y-0014667D01*
X0017430Y-0014556D01*
X0017542D01*
X0017653Y-0014667D01*
X0017708Y-0014778D01*
Y-0015000D01*
X0017653Y-0015111D01*
X0017542Y-0015222D01*
X0017430D01*
X0017008D02*
X0016786D01*
X0016897D02*
Y-0014556D01*
X0016786Y-0014667D01*
X0003869Y-0015222D02*
Y-0014889D01*
X0004092Y-0015222D02*
Y-0014889D01*
X0004036Y-0014778D01*
X0003925D01*
X0003869Y-0014889D01*
X0003814Y-0014778D01*
X0003703D01*
X0003647Y-0014889D01*
Y-0015222D01*
X0003169D02*
Y-0014889D01*
X0003392Y-0015222D02*
Y-0014889D01*
X0003336Y-0014778D01*
X0003225D01*
X0003169Y-0014889D01*
X0003114Y-0014778D01*
X0003003D01*
X0002947Y-0014889D01*
Y-0015222D01*
X0001464D02*
X0001353Y-0015111D01*
X0001297Y-0015000D01*
Y-0014778D01*
X0001353Y-0014667D01*
X0001464Y-0014556D01*
X0001575D01*
X0001686Y-0014667D01*
X0001742Y-0014778D01*
Y-0015000D01*
X0001686Y-0015111D01*
X0001575Y-0015222D01*
X0001464D01*
X0000764D02*
X0000653Y-0015111D01*
X0000597Y-0015000D01*
Y-0014778D01*
X0000653Y-0014667D01*
X0000764Y-0014556D01*
X0000875D01*
X0000986Y-0014667D01*
X0001042Y-0014778D01*
Y-0015000D01*
X0000986Y-0015111D01*
X0000875Y-0015222D01*
X0000764D01*
X0000064D02*
X-0000047Y-0015111D01*
X-0000103Y-0015000D01*
Y-0014778D01*
X-0000047Y-0014667D01*
X0000064Y-0014556D01*
X0000175D01*
X0000286Y-0014667D01*
X0000342Y-0014778D01*
Y-0015000D01*
X0000286Y-0015111D01*
X0000175Y-0015222D01*
X0000064D01*
X-0000469D02*
X-0000358D01*
Y-0015111D01*
X-0000469D01*
Y-0015222D01*
X-0000836D02*
X-0001058D01*
X-0000947D02*
Y-0014556D01*
X-0001058Y-0014667D01*
X0017708Y-0013722D02*
X0017264D01*
X0017708Y-0013278D01*
Y-0013167D01*
X0017653Y-0013056D01*
X0017319D01*
X0017264Y-0013167D01*
X0017008Y-0013722D02*
X0016786D01*
X0016897D02*
Y-0013056D01*
X0016786Y-0013167D01*
X0016030Y-0013389D02*
X0016364D01*
X0016419Y-0013500D01*
Y-0013611D01*
X0016364Y-0013722D01*
X0016030D01*
X0015975Y-0013611D01*
Y-0013500D01*
X0016197Y-0013056D01*
X0003869Y-0013722D02*
Y-0013389D01*
X0004092Y-0013722D02*
Y-0013389D01*
X0004036Y-0013278D01*
X0003925D01*
X0003869Y-0013389D01*
X0003814Y-0013278D01*
X0003703D01*
X0003647Y-0013389D01*
Y-0013722D01*
X0003169D02*
Y-0013389D01*
X0003392Y-0013722D02*
Y-0013389D01*
X0003336Y-0013278D01*
X0003225D01*
X0003169Y-0013389D01*
X0003114Y-0013278D01*
X0003003D01*
X0002947Y-0013389D01*
Y-0013722D01*
X0001464D02*
X0001353Y-0013611D01*
X0001297Y-0013500D01*
Y-0013278D01*
X0001353Y-0013167D01*
X0001464Y-0013056D01*
X0001575D01*
X0001686Y-0013167D01*
X0001742Y-0013278D01*
Y-0013500D01*
X0001686Y-0013611D01*
X0001575Y-0013722D01*
X0001464D01*
X0000764D02*
X0000653Y-0013611D01*
X0000597Y-0013500D01*
Y-0013278D01*
X0000653Y-0013167D01*
X0000764Y-0013056D01*
X0000875D01*
X0000986Y-0013167D01*
X0001042Y-0013278D01*
Y-0013500D01*
X0000986Y-0013611D01*
X0000875Y-0013722D01*
X0000764D01*
X0000342D02*
X-0000103D01*
X0000342Y-0013278D01*
Y-0013167D01*
X0000286Y-0013056D01*
X-0000047D01*
X-0000103Y-0013167D01*
X-0000469Y-0013722D02*
X-0000358D01*
Y-0013611D01*
X-0000469D01*
Y-0013722D01*
X-0001114D02*
X-0001225Y-0013611D01*
X-0001280Y-0013500D01*
Y-0013278D01*
X-0001225Y-0013167D01*
X-0001114Y-0013056D01*
X-0001003D01*
X-0000892Y-0013167D01*
X-0000836Y-0013278D01*
Y-0013500D01*
X-0000892Y-0013611D01*
X-0001003Y-0013722D01*
X-0001114D01*
X0026112Y-0011583D02*
X0025612D01*
X0026279Y-0012083D02*
X0025612D01*
Y-0011083D01*
X0026279D01*
X0024996Y-0012083D02*
Y-0011083D01*
X0025329D02*
X0024662D01*
X0023796Y-0012083D02*
X0023712Y-0011917D01*
Y-0011250D01*
X0023796Y-0011083D01*
X0024296D01*
X0024379Y-0011250D01*
Y-0011917D01*
X0024296Y-0012083D01*
X0023796D01*
X0023429Y-0011083D02*
Y-0012083D01*
X0023262Y-0011917D01*
X0022929Y-0011250D01*
X0022762Y-0011083D01*
Y-0012083D01*
X0016925D02*
Y-0011583D01*
X0017258Y-0011083D02*
X0017008Y-0011583D01*
X0016842D01*
X0016592Y-0011083D01*
X0015975Y-0012083D02*
Y-0011083D01*
X0016308D02*
X0015642D01*
X0015025Y-0011750D02*
X0015358Y-0012083D01*
X0014692Y-0011917D02*
X0014775Y-0012083D01*
X0015108D01*
X0015192Y-0011917D01*
X0015358Y-0011750D01*
Y-0011250D01*
X0015275Y-0011083D01*
X0014775D01*
X0014692Y-0011250D01*
Y-0011917D01*
X0010408Y-0012083D02*
X0009825D01*
Y-0011083D01*
X0008958Y-0012083D02*
X0008875Y-0011917D01*
Y-0011250D01*
X0008958Y-0011083D01*
X0009458D01*
X0009542Y-0011250D01*
Y-0011917D01*
X0009458Y-0012083D01*
X0008958D01*
X0008258D02*
Y-0011083D01*
X0008592D02*
X0007925D01*
X0002587Y-0012083D02*
Y-0011083D01*
X0002421Y-0011250D01*
X0002254Y-0011583D01*
X0002087Y-0011250D01*
X0001921Y-0011083D01*
Y-0012083D01*
X0001637Y-0011750D02*
X0000971D01*
X0001637Y-0012083D02*
Y-0011583D01*
X0001387Y-0011083D01*
X0001221D01*
X0000971Y-0011583D01*
Y-0012083D01*
X0000687D02*
X0000354D01*
X0000521D02*
Y-0011083D01*
X0000687D02*
X0000354D01*
X-0000679Y-0012083D02*
Y-0011083D01*
X-0000762Y-0012083D02*
X-0000262D01*
X-0000096Y-0011750D01*
Y-0011417D01*
X-0000262Y-0011083D01*
X-0000762D01*
X-0003850Y-0012083D02*
Y-0011083D01*
X-0004017Y-0011250D01*
X-0004183Y-0011583D01*
X-0004350Y-0011250D01*
X-0004517Y-0011083D01*
Y-0012083D01*
X-0005133D02*
Y-0011583D01*
X-0004800Y-0011083D02*
X-0005050Y-0011583D01*
X-0005217D01*
X-0005467Y-0011083D01*
X-0005750Y-0011250D02*
X-0005833Y-0011083D01*
X-0006333D01*
X-0006417Y-0011250D01*
Y-0011417D01*
X-0006333Y-0011583D01*
X-0005833D01*
X-0005750Y-0011750D01*
Y-0011917D01*
X-0005833Y-0012083D01*
X-0006333D01*
X-0006417Y-0011917D01*
X0016437Y-0010083D02*
Y-0009083D01*
X0016771D02*
X0016104D01*
X0015571Y-0009583D02*
X0015821Y-0010083D01*
X0015154Y-0009583D02*
X0015654D01*
X0015821Y-0009417D01*
Y-0009250D01*
X0015654Y-0009083D01*
X0015154D01*
Y-0010083D01*
X0014871Y-0009750D02*
X0014204D01*
X0014871Y-0010083D02*
Y-0009583D01*
X0014621Y-0009083D01*
X0014454D01*
X0014204Y-0009583D01*
Y-0010083D01*
X0013921Y-0009583D02*
X0013254D01*
X0013921Y-0010083D02*
Y-0009083D01*
X0013254Y-0010083D02*
Y-0009083D01*
X0012971Y-0009917D02*
X0012887Y-0010083D01*
X0012387D01*
X0012304Y-0009917D01*
Y-0009250D01*
X0012387Y-0009083D01*
X0012887D01*
X0012971Y-0009250D01*
X0010696Y-0010083D02*
X0010112D01*
Y-0009083D01*
X0009829Y-0010083D02*
X0009246D01*
Y-0009083D01*
X0008962Y-0010083D02*
X0008629D01*
X0008796D02*
Y-0009083D01*
X0008962D02*
X0008629D01*
X0007929Y-0009583D02*
X0008179Y-0010083D01*
X0007512Y-0009583D02*
X0008012D01*
X0008179Y-0009417D01*
Y-0009250D01*
X0008012Y-0009083D01*
X0007512D01*
Y-0010083D01*
X0006646D02*
Y-0009083D01*
X0006562Y-0010083D02*
X0007062D01*
X0007229Y-0009750D01*
Y-0009417D01*
X0007062Y-0009083D01*
X0006562D01*
X-0007108Y0032525D02*
X-0007192Y0032483D01*
X-0007525D01*
X-0007608Y0032525D01*
Y0032775D01*
X-0007525Y0032817D01*
X-0007192D01*
X-0007108Y0032775D01*
Y0032525D01*
X-0007192Y0032242D02*
X-0007108Y0032200D01*
Y0031950D01*
X-0007192Y0031908D01*
X-0007525D01*
X-0007608Y0031950D01*
Y0032200D01*
X-0007525Y0032242D01*
X-0007192Y0031667D02*
X-0007108Y0031625D01*
Y0031375D01*
X-0007192Y0031333D01*
X-0007525D01*
X-0007608Y0031375D01*
Y0031625D01*
X-0007525Y0031667D01*
X-0007275Y0031092D02*
Y0030758D01*
X-0007108Y0031092D02*
X-0007358D01*
X-0007608Y0030967D01*
Y0030883D01*
X-0007358Y0030758D01*
X-0007108D01*
Y0030350D02*
X-0007608D01*
Y0030517D02*
Y0030183D01*
X-0007525Y0029942D02*
X-0007608Y0029900D01*
Y0029650D01*
X-0007525Y0029608D01*
X-0007442D01*
X-0007358Y0029650D01*
Y0029900D01*
X-0007275Y0029942D01*
X-0007192D01*
X-0007108Y0029900D01*
Y0029650D01*
X-0007192Y0029608D01*
X-0007108Y0029367D02*
Y0029200D01*
Y0029283D02*
X-0007608D01*
Y0029367D02*
Y0029200D01*
X-0007108Y0028583D02*
X-0007608D01*
X-0007108Y0028542D02*
Y0028792D01*
X-0007275Y0028875D01*
X-0007442D01*
X-0007608Y0028792D01*
Y0028542D01*
X-0007108Y0027246D02*
X-0007192Y0027204D01*
X-0007525D01*
X-0007608Y0027246D01*
Y0027496D01*
X-0007525Y0027537D01*
X-0007192D01*
X-0007108Y0027496D01*
Y0027246D01*
X-0007358Y0026629D02*
Y0026879D01*
X-0007442Y0026962D01*
X-0007525D01*
X-0007608Y0026879D01*
Y0026629D01*
X-0007108D01*
Y0026096D02*
X-0007192Y0026054D01*
X-0007525D01*
X-0007608Y0026096D01*
Y0026346D01*
X-0007525Y0026387D01*
X-0007192D01*
X-0007108Y0026346D01*
Y0026096D01*
Y0025521D02*
X-0007608D01*
X-0007108Y0025479D02*
Y0025729D01*
X-0007275Y0025812D01*
X-0007442D01*
X-0007608Y0025729D01*
Y0025479D01*
X-0007358Y0024392D02*
Y0024142D01*
X-0007108Y0024475D02*
Y0024142D01*
X-0007608D01*
Y0024475D01*
X-0007358Y0023775D02*
X-0007108Y0023900D01*
X-0007358Y0023567D02*
Y0023817D01*
X-0007442Y0023900D01*
X-0007525D01*
X-0007608Y0023817D01*
Y0023567D01*
X-0007108D01*
Y0023033D02*
X-0007192Y0022992D01*
X-0007525D01*
X-0007608Y0023033D01*
Y0023283D01*
X-0007525Y0023325D01*
X-0007192D01*
X-0007108Y0023283D01*
Y0023033D01*
Y0022583D02*
X-0007608D01*
Y0022750D02*
Y0022417D01*
X-0007275Y0022175D02*
Y0021842D01*
X-0007108Y0022175D02*
X-0007358D01*
X-0007608Y0022050D01*
Y0021967D01*
X-0007358Y0021842D01*
X-0007108D01*
X-0007358Y0021267D02*
Y0021517D01*
X-0007442Y0021600D01*
X-0007525D01*
X-0007608Y0021517D01*
Y0021267D01*
X-0007108D01*
Y0021025D02*
Y0020858D01*
Y0020942D02*
X-0007608D01*
Y0021025D02*
Y0020858D01*
X-0007525Y0020533D02*
X-0007608Y0020492D01*
Y0020242D01*
X-0007525Y0020200D01*
X-0007442D01*
X-0007358Y0020242D01*
Y0020492D01*
X-0007275Y0020533D01*
X-0007192D01*
X-0007108Y0020492D01*
Y0020242D01*
X-0007192Y0020200D01*
X-0007525Y0019958D02*
X-0007608Y0019917D01*
Y0019667D01*
X-0007525Y0019625D01*
X-0007442D01*
X-0007358Y0019667D01*
Y0019917D01*
X-0007275Y0019958D01*
X-0007192D01*
X-0007108Y0019917D01*
Y0019667D01*
X-0007192Y0019625D01*
X-0007108Y0019383D02*
Y0019217D01*
Y0019300D02*
X-0007608D01*
Y0019383D02*
Y0019217D01*
X-0007108Y0018600D02*
X-0007608D01*
X-0007108Y0018558D02*
Y0018808D01*
X-0007275Y0018892D01*
X-0007442D01*
X-0007608Y0018808D01*
Y0018558D01*
X-0007108Y0017554D02*
Y0017262D01*
X-0007608D01*
X-0007108Y0017021D02*
Y0016854D01*
Y0016937D02*
X-0007608D01*
Y0017021D02*
Y0016854D01*
X-0007108Y0015475D02*
X-0007192Y0015433D01*
X-0007525D01*
X-0007608Y0015475D01*
Y0015725D01*
X-0007525Y0015767D01*
X-0007192D01*
X-0007108Y0015725D01*
Y0015475D01*
Y0015025D02*
X-0007608D01*
Y0015192D02*
Y0014858D01*
X-0007108Y0014450D02*
X-0007608D01*
Y0014617D02*
Y0014283D01*
X-0007108Y0013750D02*
X-0007192Y0013708D01*
X-0007525D01*
X-0007608Y0013750D01*
Y0014000D01*
X-0007525Y0014042D01*
X-0007192D01*
X-0007108Y0014000D01*
Y0013750D01*
X-0007525Y0013467D02*
X-0007608Y0013425D01*
Y0013175D01*
X-0007525Y0013133D01*
X-0007442D01*
X-0007358Y0013175D01*
Y0013425D01*
X-0007275Y0013467D01*
X-0007192D01*
X-0007108Y0013425D01*
Y0013175D01*
X-0007192Y0013133D01*
X-0007358Y0012046D02*
Y0011796D01*
X-0007108Y0012129D02*
Y0011796D01*
X-0007608D01*
Y0012129D01*
X-0007108Y0011387D02*
X-0007608D01*
Y0011554D02*
Y0011221D01*
Y0010979D02*
X-0007108D01*
X-0007192Y0010896D01*
X-0007525Y0010729D01*
X-0007608Y0010646D01*
X-0007108D01*
X-0007275Y0010404D02*
Y0010071D01*
X-0007108Y0010404D02*
X-0007358D01*
X-0007608Y0010279D01*
Y0010196D01*
X-0007358Y0010071D01*
X-0007108D01*
Y0009829D02*
Y0009537D01*
X-0007608D01*
X-0007108Y0009004D02*
X-0007192Y0008962D01*
X-0007525D01*
X-0007608Y0009004D01*
Y0009254D01*
X-0007525Y0009296D01*
X-0007192D01*
X-0007108Y0009254D01*
Y0009004D01*
X-0007525Y0008721D02*
X-0007608Y0008679D01*
Y0008429D01*
X-0007525Y0008387D01*
X-0007442D01*
X-0007358Y0008429D01*
Y0008679D01*
X-0007275Y0008721D01*
X-0007192D01*
X-0007108Y0008679D01*
Y0008429D01*
X-0007192Y0008387D01*
X-0007108Y0008146D02*
Y0007979D01*
Y0008062D02*
X-0007608D01*
Y0008146D02*
Y0007979D01*
X-0007358Y0006808D02*
Y0006558D01*
X-0007108Y0006892D02*
Y0006558D01*
X-0007608D01*
Y0006892D01*
X-0007108Y0006317D02*
X-0007608D01*
X-0007525Y0006233D01*
X-0007358Y0006150D01*
X-0007525Y0006067D01*
X-0007608Y0005983D01*
X-0007108D01*
Y0005450D02*
X-0007192Y0005408D01*
X-0007525D01*
X-0007608Y0005450D01*
Y0005700D01*
X-0007525Y0005742D01*
X-0007192D01*
X-0007108Y0005700D01*
Y0005450D01*
X-0007192Y0005167D02*
X-0007108Y0005125D01*
Y0004875D01*
X-0007192Y0004833D01*
X-0007525D01*
X-0007608Y0004875D01*
Y0005125D01*
X-0007525Y0005167D01*
X-0007108Y0003537D02*
X-0007192Y0003496D01*
X-0007525D01*
X-0007608Y0003537D01*
Y0003787D01*
X-0007525Y0003829D01*
X-0007192D01*
X-0007108Y0003787D01*
Y0003537D01*
Y0003087D02*
X-0007608D01*
Y0003254D02*
Y0002921D01*
X-0007275Y0002679D02*
Y0002346D01*
X-0007108Y0002679D02*
X-0007358D01*
X-0007608Y0002554D01*
Y0002471D01*
X-0007358Y0002346D01*
X-0007108D01*
X-0007525Y0002104D02*
X-0007608Y0002062D01*
Y0001812D01*
X-0007525Y0001771D01*
X-0007442D01*
X-0007358Y0001812D01*
Y0002062D01*
X-0007275Y0002104D01*
X-0007192D01*
X-0007108Y0002062D01*
Y0001812D01*
X-0007192Y0001771D01*
X-0007608Y0001529D02*
X-0007192D01*
X-0007108Y0001487D01*
Y0001237D01*
X-0007192Y0001196D01*
X-0007608D01*
X-0007108Y-0000100D02*
X-0007608D01*
X-0007108Y-0000142D02*
Y0000108D01*
X-0007192Y0000192D01*
X-0007275D01*
X-0007358Y0000150D01*
Y-0000100D02*
Y0000150D01*
X-0007442Y0000192D01*
X-0007525D01*
X-0007608Y0000108D01*
Y-0000142D01*
X-0007192Y-0000383D02*
X-0007108Y-0000425D01*
Y-0000675D01*
X-0007192Y-0000717D01*
X-0007525D01*
X-0007608Y-0000675D01*
Y-0000425D01*
X-0007525Y-0000383D01*
X-0007358Y-0001292D02*
Y-0001042D01*
X-0007442Y-0000958D01*
X-0007525D01*
X-0007608Y-0001042D01*
Y-0001292D01*
X-0007108D01*
X0029858Y-0007258D02*
Y-0007592D01*
X0029900D02*
X0029608D01*
X0029567Y-0007508D01*
Y-0007258D01*
X0029117Y-0007592D02*
X0029033Y-0007508D01*
X0028992Y-0007425D01*
Y-0007258D01*
X0029033Y-0007175D01*
X0029117Y-0007092D01*
X0029200D01*
X0029283Y-0007175D01*
X0029325Y-0007258D01*
Y-0007425D01*
X0029283Y-0007508D01*
X0029200Y-0007592D01*
X0029117D01*
X0028500D02*
X0028750Y-0007092D01*
X0028417D01*
X0027412Y-0007592D02*
X0027246D01*
X0027329D02*
Y-0007092D01*
X0027412D02*
X0027246D01*
X0026921D02*
Y-0007592D01*
X0026837Y-0007508D01*
X0026671Y-0007175D01*
X0026587Y-0007092D01*
Y-0007592D01*
X0026221Y-0007342D02*
X0026346Y-0007592D01*
X0026012Y-0007342D02*
X0026262D01*
X0026346Y-0007258D01*
Y-0007175D01*
X0026262Y-0007092D01*
X0026012D01*
Y-0007592D01*
X0025687Y-0007342D02*
X0025437D01*
X0025771Y-0007592D02*
X0025437D01*
Y-0007092D01*
X0025771D01*
X0025029Y-0007592D02*
Y-0007092D01*
X0025196D02*
X0024862D01*
X0024621Y-0007175D02*
X0024579Y-0007092D01*
X0024329D01*
X0024287Y-0007175D01*
Y-0007258D01*
X0024329Y-0007342D01*
X0024579D01*
X0024621Y-0007425D01*
Y-0007508D01*
X0024579Y-0007592D01*
X0024329D01*
X0024287Y-0007508D01*
X0023962Y-0007342D02*
X0023712D01*
X0024046Y-0007592D02*
X0023712D01*
Y-0007092D01*
X0024046D01*
X0022583Y-0007342D02*
X0022708Y-0007592D01*
X0022375Y-0007342D02*
X0022625D01*
X0022708Y-0007258D01*
Y-0007175D01*
X0022625Y-0007092D01*
X0022375D01*
Y-0007592D01*
X0022050Y-0007342D02*
X0021800D01*
X0022133Y-0007592D02*
X0021800D01*
Y-0007092D01*
X0022133D01*
X0021392Y-0007592D02*
Y-0007342D01*
X0021558Y-0007092D02*
X0021433Y-0007342D01*
X0021350D01*
X0021225Y-0007092D01*
X0020983Y-0007425D02*
X0020650D01*
X0020983Y-0007592D02*
Y-0007342D01*
X0020858Y-0007092D01*
X0020775D01*
X0020650Y-0007342D01*
Y-0007592D01*
X0020408D02*
X0020117D01*
Y-0007092D01*
X0019029Y-0007342D02*
X0018779D01*
X0019112Y-0007592D02*
X0018779D01*
Y-0007092D01*
X0019112D01*
X0018537Y-0007592D02*
Y-0007092D01*
X0018454Y-0007175D01*
X0018371Y-0007342D01*
X0018287Y-0007175D01*
X0018204Y-0007092D01*
Y-0007592D01*
X0017962Y-0007425D02*
X0017629D01*
X0017962Y-0007592D02*
Y-0007342D01*
X0017837Y-0007092D01*
X0017754D01*
X0017629Y-0007342D01*
Y-0007592D01*
X0017262Y-0007342D02*
X0017387Y-0007592D01*
X0017054Y-0007342D02*
X0017304D01*
X0017387Y-0007258D01*
Y-0007175D01*
X0017304Y-0007092D01*
X0017054D01*
Y-0007592D01*
X0015967Y-0007342D02*
X0015717D01*
X0016050Y-0007592D02*
X0015717D01*
Y-0007092D01*
X0016050D01*
X0015350Y-0007342D02*
X0015475Y-0007592D01*
X0015142Y-0007342D02*
X0015392D01*
X0015475Y-0007258D01*
Y-0007175D01*
X0015392Y-0007092D01*
X0015142D01*
Y-0007592D01*
X0014608D02*
X0014567Y-0007508D01*
Y-0007175D01*
X0014608Y-0007092D01*
X0014858D01*
X0014900Y-0007175D01*
Y-0007508D01*
X0014858Y-0007592D01*
X0014608D01*
X0014325Y-0007175D02*
X0014283Y-0007092D01*
X0014033D01*
X0013992Y-0007175D01*
Y-0007258D01*
X0014033Y-0007342D01*
X0014283D01*
X0014325Y-0007425D01*
Y-0007508D01*
X0014283Y-0007592D01*
X0014033D01*
X0013992Y-0007508D01*
X0013750Y-0007175D02*
X0013708Y-0007092D01*
X0013458D01*
X0013417Y-0007175D01*
Y-0007258D01*
X0013458Y-0007342D01*
X0013708D01*
X0013750Y-0007425D01*
Y-0007508D01*
X0013708Y-0007592D01*
X0013458D01*
X0013417Y-0007508D01*
X0013092Y-0007342D02*
X0012842D01*
X0013175Y-0007592D02*
X0012842D01*
Y-0007092D01*
X0013175D01*
X0012267Y-0007342D02*
X0012517D01*
X0012600Y-0007258D01*
Y-0007175D01*
X0012517Y-0007092D01*
X0012267D01*
Y-0007592D01*
X0012025Y-0007175D02*
X0011983Y-0007092D01*
X0011733D01*
X0011692Y-0007175D01*
Y-0007258D01*
X0011733Y-0007342D01*
X0011983D01*
X0012025Y-0007425D01*
Y-0007508D01*
X0011983Y-0007592D01*
X0011733D01*
X0011692Y-0007508D01*
X0021925Y-0006692D02*
Y-0006192D01*
X0021842Y-0006275D01*
X0021758Y-0006442D01*
X0021675Y-0006275D01*
X0021592Y-0006192D01*
Y-0006692D01*
X0021350D02*
Y-0006192D01*
X0021267Y-0006275D01*
X0021183Y-0006442D01*
X0021100Y-0006275D01*
X0021017Y-0006192D01*
Y-0006692D01*
X0020483Y-0006442D02*
X0020733D01*
X0020775Y-0006525D01*
Y-0006608D01*
X0020733Y-0006692D01*
X0020483D01*
X0020442Y-0006608D01*
Y-0006525D01*
X0020608Y-0006192D01*
X0020117Y-0006692D02*
X0020200D01*
Y-0006608D01*
X0020117D01*
Y-0006692D01*
X0019792D02*
X0019625D01*
X0019708D02*
Y-0006192D01*
X0019625Y-0006275D01*
X0018246Y-0006692D02*
Y-0006192D01*
X0018204Y-0006692D02*
X0018454D01*
X0018537Y-0006608D01*
Y-0006525D01*
X0018496Y-0006442D01*
X0018246D02*
X0018496D01*
X0018537Y-0006358D01*
Y-0006275D01*
X0018454Y-0006192D01*
X0018204D01*
X0017962Y-0006608D02*
X0017921Y-0006692D01*
X0017671D01*
X0017629Y-0006608D01*
Y-0006275D01*
X0017671Y-0006192D01*
X0017921D01*
X0017962Y-0006275D01*
X0017054Y-0006442D02*
X0017304D01*
X0017387Y-0006358D01*
Y-0006275D01*
X0017304Y-0006192D01*
X0017054D01*
Y-0006692D01*
X0015967Y-0006442D02*
X0015717D01*
X0016050Y-0006692D02*
X0015717D01*
Y-0006192D01*
X0016050D01*
X0015350Y-0006442D02*
X0015475Y-0006692D01*
X0015142Y-0006442D02*
X0015392D01*
X0015475Y-0006358D01*
Y-0006275D01*
X0015392Y-0006192D01*
X0015142D01*
Y-0006692D01*
X0014608D02*
X0014567Y-0006608D01*
Y-0006275D01*
X0014608Y-0006192D01*
X0014858D01*
X0014900Y-0006275D01*
Y-0006608D01*
X0014858Y-0006692D01*
X0014608D01*
X0014325Y-0006275D02*
X0014283Y-0006192D01*
X0014033D01*
X0013992Y-0006275D01*
Y-0006358D01*
X0014033Y-0006442D01*
X0014283D01*
X0014325Y-0006525D01*
Y-0006608D01*
X0014283Y-0006692D01*
X0014033D01*
X0013992Y-0006608D01*
X0013750Y-0006275D02*
X0013708Y-0006192D01*
X0013458D01*
X0013417Y-0006275D01*
Y-0006358D01*
X0013458Y-0006442D01*
X0013708D01*
X0013750Y-0006525D01*
Y-0006608D01*
X0013708Y-0006692D01*
X0013458D01*
X0013417Y-0006608D01*
X0013092Y-0006442D02*
X0012842D01*
X0013175Y-0006692D02*
X0012842D01*
Y-0006192D01*
X0013175D01*
X0012267Y-0006442D02*
X0012517D01*
X0012600Y-0006358D01*
Y-0006275D01*
X0012517Y-0006192D01*
X0012267D01*
Y-0006692D01*
X0012025Y-0006275D02*
X0011983Y-0006192D01*
X0011733D01*
X0011692Y-0006275D01*
Y-0006358D01*
X0011733Y-0006442D01*
X0011983D01*
X0012025Y-0006525D01*
Y-0006608D01*
X0011983Y-0006692D01*
X0011733D01*
X0011692Y-0006608D01*
X0055250Y0064214D02*
X0054750Y0063714D01*
X0055250D02*
X0054750Y0064214D01*
X0055250Y0061150D02*
X0054750Y0060650D01*
X0055250D02*
X0054750Y0061150D01*
X0054250Y0006750D02*
X0053750Y0006250D01*
X0054250D02*
X0053750Y0006750D01*
X0054000Y0040850D02*
X0053500Y0040350D01*
X0054000D02*
X0053500Y0040850D01*
X0050070Y0000130D02*
X0049570Y-0000370D01*
X0050070D02*
X0049570Y0000130D01*
X0023250Y0052500D02*
X0022750Y0052000D01*
X0023250D02*
X0022750Y0052500D01*
X0035500Y0000050D02*
X0035000Y-0000450D01*
X0035500D02*
X0035000Y0000050D01*
X0019000Y0048000D02*
X0018500Y0047500D01*
X0019000D02*
X0018500Y0048000D01*
X0050070Y0000130D02*
X0049570Y-0000370D01*
X0050070D02*
X0049570Y0000130D01*
X0038500Y0001800D02*
X0038000Y0001300D01*
X0038500D02*
X0038000Y0001800D01*
X0004250Y0079200D02*
X0003750Y0078700D01*
X0004250D02*
X0003750Y0079200D01*
X0005500Y0079250D02*
X0005000Y0078750D01*
X0005500D02*
X0005000Y0079250D01*
X0017500Y0077750D02*
X0017000Y0077250D01*
X0017500D02*
X0017000Y0077750D01*
X0018220Y0079780D02*
X0017720Y0079280D01*
X0018220D02*
X0017720Y0079780D01*
X0022000Y0070500D02*
X0021500Y0070000D01*
X0022000D02*
X0021500Y0070500D01*
X0023150Y0069900D02*
X0022650Y0069400D01*
X0023150D02*
X0022650Y0069900D01*
X0019000Y0057500D02*
X0018500Y0057000D01*
X0019000D02*
X0018500Y0057500D01*
X0020250Y0077300D02*
X0019750Y0076800D01*
X0020250D02*
X0019750Y0077300D01*
X0019400Y0074200D02*
X0018900Y0073700D01*
X0019400D02*
X0018900Y0074200D01*
X0020500D02*
X0020000Y0073700D01*
X0020500D02*
X0020000Y0074200D01*
X0019400D02*
X0018900Y0073700D01*
X0019400D02*
X0018900Y0074200D01*
X0022000Y0072750D02*
X0021500Y0072250D01*
X0022000D02*
X0021500Y0072750D01*
X0020500Y0074200D02*
X0020000Y0073700D01*
X0020500D02*
X0020000Y0074200D01*
X0054000Y0040850D02*
X0053500Y0040350D01*
X0054000D02*
X0053500Y0040850D01*
X0019250Y0046100D02*
X0018750Y0045600D01*
X0019250D02*
X0018750Y0046100D01*
X0019000Y0048000D02*
X0018500Y0047500D01*
X0019000D02*
X0018500Y0048000D01*
X0030000Y0050500D02*
X0029500Y0050000D01*
X0030000D02*
X0029500Y0050500D01*
X0021900Y0047000D02*
X0021400Y0046500D01*
X0021900D02*
X0021400Y0047000D01*
X0022750Y0042750D02*
X0022250Y0042250D01*
X0022750D02*
X0022250Y0042750D01*
X0019250Y0046100D02*
X0018750Y0045600D01*
X0019250D02*
X0018750Y0046100D01*
X0021900Y0047000D02*
X0021400Y0046500D01*
X0021900D02*
X0021400Y0047000D01*
X0022750Y0057000D02*
X0022250Y0056500D01*
X0022750D02*
X0022250Y0057000D01*
X0019000Y0057500D02*
X0018500Y0057000D01*
X0019000D02*
X0018500Y0057500D01*
X0022750Y0057000D02*
X0022250Y0056500D01*
X0022750D02*
X0022250Y0057000D01*
X0049750Y0046000D02*
X0049250Y0045500D01*
X0049750D02*
X0049250Y0046000D01*
X0022750Y0042750D02*
X0022250Y0042250D01*
X0022750D02*
X0022250Y0042750D01*
X0046250Y0046000D02*
X0045750Y0045500D01*
X0046250D02*
X0045750Y0046000D01*
X0039250D02*
X0038750Y0045500D01*
X0039250D02*
X0038750Y0046000D01*
X0038500Y0045000D02*
X0038000Y0044500D01*
X0038500D02*
X0038000Y0045000D01*
X0037000D02*
X0036500Y0044500D01*
X0037000D02*
X0036500Y0045000D01*
X0038500D02*
X0038000Y0044500D01*
X0038500D02*
X0038000Y0045000D01*
X0042750Y0046000D02*
X0042250Y0045500D01*
X0042750D02*
X0042250Y0046000D01*
X0044500D02*
X0044000Y0045500D01*
X0044500D02*
X0044000Y0046000D01*
X0042750Y0073500D02*
X0042250Y0073000D01*
X0042750D02*
X0042250Y0073500D01*
X0056500Y0044750D02*
X0056000Y0044250D01*
X0056500D02*
X0056000Y0044750D01*
X0056500Y0046350D02*
X0056000Y0045850D01*
X0056500D02*
X0056000Y0046350D01*
X0043070Y0052280D02*
X0042570Y0051780D01*
X0043070D02*
X0042570Y0052280D01*
X0043070Y0059530D02*
X0042570Y0059030D01*
X0043070D02*
X0042570Y0059530D01*
X0031750Y0069750D02*
X0031250Y0069250D01*
X0031750D02*
X0031250Y0069750D01*
X0033250Y0069500D02*
X0032750Y0069000D01*
X0033250D02*
X0032750Y0069500D01*
X0060850Y0005350D02*
X0060350Y0004850D01*
X0060850D02*
X0060350Y0005350D01*
X0060850Y0041250D02*
X0060350Y0040750D01*
X0060850D02*
X0060350Y0041250D01*
X0018770Y0044970D02*
X0018270Y0044470D01*
X0018770D02*
X0018270Y0044970D01*
X0019000Y0049500D02*
X0018500Y0049000D01*
X0019000D02*
X0018500Y0049500D01*
X0047750Y0082000D02*
X0047250Y0081500D01*
X0047750D02*
X0047250Y0082000D01*
X0043070Y0059530D02*
X0042570Y0059030D01*
X0043070D02*
X0042570Y0059530D01*
X0043070Y0048770D02*
X0042570Y0048270D01*
X0043070D02*
X0042570Y0048770D01*
X0036000Y0049000D02*
X0035500Y0048500D01*
X0036000D02*
X0035500Y0049000D01*
X0012730Y0030030D02*
X0012230Y0029530D01*
X0012730D02*
X0012230Y0030030D01*
X0056500Y0044750D02*
X0056000Y0044250D01*
X0056500D02*
X0056000Y0044750D01*
X0054100Y-0001250D02*
X0053600Y-0001750D01*
X0054100D02*
X0053600Y-0001250D01*
X0033250Y0067650D02*
X0032750Y0067150D01*
X0033250D02*
X0032750Y0067650D01*
X0040470D02*
X0039970Y0067150D01*
X0040470D02*
X0039970Y0067650D01*
X0043070D02*
X0042570Y0067150D01*
X0043070D02*
X0042570Y0067650D01*
X0033250D02*
X0032750Y0067150D01*
X0033250D02*
X0032750Y0067650D01*
X0037500Y0049000D02*
X0037000Y0048500D01*
X0037500D02*
X0037000Y0049000D01*
X0036000D02*
X0035500Y0048500D01*
X0036000D02*
X0035500Y0049000D01*
X0053000Y0081250D02*
X0052500Y0080750D01*
X0053000D02*
X0052500Y0081250D01*
X0052750Y0076300D02*
X0052250Y0075800D01*
X0052750D02*
X0052250Y0076300D01*
X0053750Y0077700D02*
X0053250Y0077200D01*
X0053750D02*
X0053250Y0077700D01*
X0035500Y0051650D02*
X0035000Y0051150D01*
X0035500D02*
X0035000Y0051650D01*
X0037500Y0050500D02*
X0037000Y0050000D01*
X0037500D02*
X0037000Y0050500D01*
X0045000Y0058950D02*
X0044500Y0058450D01*
X0045000D02*
X0044500Y0058950D01*
X0044750Y0057750D02*
X0044250Y0057250D01*
X0044750D02*
X0044250Y0057750D01*
X0044750D02*
X0044250Y0057250D01*
X0044750D02*
X0044250Y0057750D01*
X0040500Y0054450D02*
X0040000Y0053950D01*
X0040500D02*
X0040000Y0054450D01*
X0042550Y0053650D02*
X0042050Y0053150D01*
X0042550D02*
X0042050Y0053650D01*
X0040500Y0057800D02*
X0040000Y0057300D01*
X0040500D02*
X0040000Y0057800D01*
X0040500Y0054450D02*
X0040000Y0053950D01*
X0040500D02*
X0040000Y0054450D01*
X0036600Y0054850D02*
X0036100Y0054350D01*
X0036600D02*
X0036100Y0054850D01*
X0040500Y0054450D02*
X0040000Y0053950D01*
X0040500D02*
X0040000Y0054450D01*
X0035200Y0054554D02*
X0034700Y0054054D01*
X0035200D02*
X0034700Y0054554D01*
X0036600Y0054850D02*
X0036100Y0054350D01*
X0036600D02*
X0036100Y0054850D01*
X0035727Y0056850D02*
X0035227Y0056350D01*
X0035727D02*
X0035227Y0056850D01*
X0036600Y0054850D02*
X0036100Y0054350D01*
X0036600D02*
X0036100Y0054850D01*
X0032000Y0054750D02*
X0031500Y0054250D01*
X0032000D02*
X0031500Y0054750D01*
X0032000Y0057500D02*
X0031500Y0057000D01*
X0032000D02*
X0031500Y0057500D01*
X0034550Y0052050D02*
X0034050Y0051550D01*
X0034550D02*
X0034050Y0052050D01*
X0035200Y0054554D02*
X0034700Y0054054D01*
X0035200D02*
X0034700Y0054554D01*
X0035500Y0051650D02*
X0035000Y0051150D01*
X0035500D02*
X0035000Y0051650D01*
X0034550Y0052050D02*
X0034050Y0051550D01*
X0034550D02*
X0034050Y0052050D01*
X0019000Y0049500D02*
X0018500Y0049000D01*
X0019000D02*
X0018500Y0049500D01*
X0019000Y0059100D02*
X0018500Y0058600D01*
X0019000D02*
X0018500Y0059100D01*
X0033250Y0067650D02*
X0032750Y0067150D01*
X0033250D02*
X0032750Y0067650D01*
X0023750Y0066750D02*
X0023250Y0066250D01*
X0023750D02*
X0023250Y0066750D01*
X0019000Y0059100D02*
X0018500Y0058600D01*
X0019000D02*
X0018500Y0059100D01*
X0019800Y0072250D02*
X0019300Y0071750D01*
X0019800D02*
X0019300Y0072250D01*
X0031750Y0072200D02*
X0031250Y0071700D01*
X0031750D02*
X0031250Y0072200D01*
X0019800Y0072250D02*
X0019300Y0071750D01*
X0019800D02*
X0019300Y0072250D01*
X0031000Y0067800D02*
X0030500Y0067300D01*
X0031000D02*
X0030500Y0067800D01*
X0031750Y0072200D02*
X0031250Y0071700D01*
X0031750D02*
X0031250Y0072200D01*
X0044500Y0056850D02*
X0044000Y0056350D01*
X0044500D02*
X0044000Y0056850D01*
X0050750Y0079300D02*
X0050250Y0078800D01*
X0050750D02*
X0050250Y0079300D01*
X0037460Y0083660D02*
X0036960Y0083160D01*
X0037460D02*
X0036960Y0083660D01*
X0037460Y0064230D02*
X0036960Y0063730D01*
X0037460D02*
X0036960Y0064230D01*
X0024050Y0062300D02*
X0023550Y0061800D01*
X0024050D02*
X0023550Y0062300D01*
X0023250Y0039600D02*
X0022750Y0039100D01*
X0023250D02*
X0022750Y0039600D01*
X0023400Y0055500D02*
X0022900Y0055000D01*
X0023400D02*
X0022900Y0055500D01*
X0033250Y0067650D02*
X0032750Y0067150D01*
X0033250D02*
X0032750Y0067650D01*
X0032250D02*
X0031750Y0067150D01*
X0032250D02*
X0031750Y0067650D01*
X0033500Y0050500D02*
X0033000Y0050000D01*
X0033500D02*
X0033000Y0050500D01*
X0023250Y0039600D02*
X0022750Y0039100D01*
X0023250D02*
X0022750Y0039600D01*
X0023750Y0035700D02*
X0023250Y0035200D01*
X0023750D02*
X0023250Y0035700D01*
X0050750Y0052750D02*
X0050250Y0052250D01*
X0050750D02*
X0050250Y0052750D01*
X0050750Y0056750D02*
X0050250Y0056250D01*
X0050750D02*
X0050250Y0056750D01*
X0036300Y0042350D02*
X0035800Y0041850D01*
X0036300D02*
X0035800Y0042350D01*
X0023750Y0035700D02*
X0023250Y0035200D01*
X0023750D02*
X0023250Y0035700D01*
X0024050Y0062300D02*
X0023550Y0061800D01*
X0024050D02*
X0023550Y0062300D01*
X0023400Y0055500D02*
X0022900Y0055000D01*
X0023400D02*
X0022900Y0055500D01*
X0022000Y0070500D02*
X0021500Y0070000D01*
X0022000D02*
X0021500Y0070500D01*
X0022000Y0072750D02*
X0021500Y0072250D01*
X0022000D02*
X0021500Y0072750D01*
X0020900Y0070700D02*
X0020400Y0070200D01*
X0020900D02*
X0020400Y0070700D01*
X0022000Y0070500D02*
X0021500Y0070000D01*
X0022000D02*
X0021500Y0070500D01*
X0027150Y0069900D02*
X0026650Y0069400D01*
X0027150D02*
X0026650Y0069900D01*
X0023150D02*
X0022650Y0069400D01*
X0023150D02*
X0022650Y0069900D01*
X0031750Y0069750D02*
X0031250Y0069250D01*
X0031750D02*
X0031250Y0069750D01*
X0030500Y0070250D02*
X0030000Y0069750D01*
X0030500D02*
X0030000Y0070250D01*
X0031850Y0068700D02*
X0031350Y0068200D01*
X0031850D02*
X0031350Y0068700D01*
X0031750Y0069750D02*
X0031250Y0069250D01*
X0031750D02*
X0031250Y0069750D01*
X0035924Y0058174D02*
X0035424Y0057674D01*
X0035924D02*
X0035424Y0058174D01*
X0023277Y0048273D02*
X0022777Y0047773D01*
X0023277D02*
X0022777Y0048273D01*
X0020573D02*
X0020073Y0047773D01*
X0020573D02*
X0020073Y0048273D01*
X0024130Y0061720D02*
X0023630Y0061220D01*
X0024130D02*
X0023630Y0061720D01*
X0023150Y0069900D02*
X0022650Y0069400D01*
X0023150D02*
X0022650Y0069900D01*
X0022250Y0054850D02*
X0021750Y0054350D01*
X0022250D02*
X0021750Y0054850D01*
X0020850Y0055100D02*
X0020350Y0054600D01*
X0020850D02*
X0020350Y0055100D01*
X0037500Y0050500D02*
X0037000Y0050000D01*
X0037500D02*
X0037000Y0050500D01*
X0039250Y0046000D02*
X0038750Y0045500D01*
X0039250D02*
X0038750Y0046000D01*
X0052750Y0076300D02*
X0052250Y0075800D01*
X0052750D02*
X0052250Y0076300D01*
X0050250Y0077050D02*
X0049750Y0076550D01*
X0050250D02*
X0049750Y0077050D01*
X0050250D02*
X0049750Y0076550D01*
X0050250D02*
X0049750Y0077050D01*
X0053750Y0077700D02*
X0053250Y0077200D01*
X0053750D02*
X0053250Y0077700D01*
X0053000Y0081250D02*
X0052500Y0080750D01*
X0053000D02*
X0052500Y0081250D01*
X0053000D02*
X0052500Y0080750D01*
X0053000D02*
X0052500Y0081250D01*
X0045250Y0073500D02*
X0044750Y0073000D01*
X0045250D02*
X0044750Y0073500D01*
X0049000D02*
X0048500Y0073000D01*
X0049000D02*
X0048500Y0073500D01*
X0044000Y0075250D02*
X0043500Y0074750D01*
X0044000D02*
X0043500Y0075250D01*
X0045250Y0073500D02*
X0044750Y0073000D01*
X0045250D02*
X0044750Y0073500D01*
X0042750D02*
X0042250Y0073000D01*
X0042750D02*
X0042250Y0073500D01*
X0044000Y0075250D02*
X0043500Y0074750D01*
X0044000D02*
X0043500Y0075250D01*
X0033250Y0069500D02*
X0032750Y0069000D01*
X0033250D02*
X0032750Y0069500D01*
X0022250Y0040300D02*
X0021750Y0039800D01*
X0022250D02*
X0021750Y0040300D01*
X0020600Y0040350D02*
X0020100Y0039850D01*
X0020600D02*
X0020100Y0040350D01*
X0020750Y0035850D02*
X0020250Y0035350D01*
X0020750D02*
X0020250Y0035850D01*
X0022300D02*
X0021800Y0035350D01*
X0022300D02*
X0021800Y0035850D01*
X0023250Y0052500D02*
X0022750Y0052000D01*
X0023250D02*
X0022750Y0052500D01*
X0030000Y0050500D02*
X0029500Y0050000D01*
X0030000D02*
X0029500Y0050500D01*
X0035924Y0058174D02*
X0035424Y0057674D01*
X0035924D02*
X0035424Y0058174D01*
X0034242Y0050357D02*
X0033742Y0049857D01*
X0034242D02*
X0033742Y0050357D01*
X0031492D02*
X0030992Y0049857D01*
X0031492D02*
X0030992Y0050357D01*
X0022600Y0073800D02*
X0022100Y0073300D01*
X0022600D02*
X0022100Y0073800D01*
X0022400Y0070700D02*
X0021900Y0070200D01*
X0022400D02*
X0021900Y0070700D01*
X0022250Y0068400D02*
X0021750Y0067900D01*
X0022250D02*
X0021750Y0068400D01*
X0043200D02*
X0042700Y0067900D01*
X0043200D02*
X0042700Y0068400D01*
X0036200Y0058700D02*
X0035700Y0058200D01*
X0036200D02*
X0035700Y0058700D01*
X0041050Y0057870D02*
X0040550Y0057370D01*
X0041050D02*
X0040550Y0057870D01*
X0059850Y0045250D02*
X0059350Y0044750D01*
X0059850D02*
X0059350Y0045250D01*
X0038920Y-0000570D02*
X0038420Y-0001070D01*
X0038920D02*
X0038420Y-0000570D01*
X0020000Y0064720D02*
X0019500Y0064220D01*
X0020000D02*
X0019500Y0064720D01*
X0020000Y0068750D02*
X0019500Y0068250D01*
X0020000D02*
X0019500Y0068750D01*
X0021750Y0045050D02*
X0021250Y0044550D01*
X0021750D02*
X0021250Y0045050D01*
X0020250D02*
X0019750Y0044550D01*
X0020250D02*
X0019750Y0045050D01*
X0021750Y0057050D02*
X0021250Y0056550D01*
X0021750D02*
X0021250Y0057050D01*
X0020250D02*
X0019750Y0056550D01*
X0020250D02*
X0019750Y0057050D01*
X0021750Y0059450D02*
X0021250Y0058950D01*
X0021750D02*
X0021250Y0059450D01*
X0020250D02*
X0019750Y0058950D01*
X0020250D02*
X0019750Y0059450D01*
X0022800Y0068750D02*
X0022300Y0068250D01*
X0022800D02*
X0022300Y0068750D01*
X0020000D02*
X0019500Y0068250D01*
X0020000D02*
X0019500Y0068750D01*
X0016950Y0074750D02*
X0016450Y0074250D01*
X0016950D02*
X0016450Y0074750D01*
X0018450D02*
X0017950Y0074250D01*
X0018450D02*
X0017950Y0074750D01*
X0034242Y0050357D02*
X0033742Y0049857D01*
X0034242D02*
X0033742Y0050357D01*
X0035250Y0049250D02*
X0034750Y0048750D01*
X0035250D02*
X0034750Y0049250D01*
X0033840Y-0000520D02*
X0033340Y-0001020D01*
X0033840D02*
X0033340Y-0000520D01*
X0059250Y0045850D02*
X0058750Y0045350D01*
X0059250D02*
X0058750Y0045850D01*
X0041550Y0055450D02*
X0041050Y0054950D01*
X0041550D02*
X0041050Y0055450D01*
X0034250Y0055250D02*
X0033750Y0054750D01*
X0034250D02*
X0033750Y0055250D01*
X0030450Y0055800D02*
X0029950Y0055300D01*
X0030450D02*
X0029950Y0055800D01*
X0036450D02*
X0035950Y0055300D01*
X0036450D02*
X0035950Y0055800D01*
X0034850Y0058600D02*
X0034350Y0058100D01*
X0034850D02*
X0034350Y0058600D01*
X0026050D02*
X0025550Y0058100D01*
X0026050D02*
X0025550Y0058600D01*
X0022800Y0036200D02*
X0022300Y0035700D01*
X0022800D02*
X0022300Y0036200D01*
X0019260D02*
X0018760Y0035700D01*
X0019260D02*
X0018760Y0036200D01*
X0005500Y0079250D02*
X0005000Y0078750D01*
X0005500D02*
X0005000Y0079250D01*
X0019700Y0055450D02*
X0019200Y0054950D01*
X0019700D02*
X0019200Y0055450D01*
X0021200D02*
X0020700Y0054950D01*
X0021200D02*
X0020700Y0055450D01*
X0038281Y0056318D02*
X0037781Y0055818D01*
X0038281D02*
X0037781Y0056318D01*
X0024981D02*
X0024481Y0055818D01*
X0024981D02*
X0024481Y0056318D01*
X0002300Y0080000D02*
X0001800Y0079500D01*
X0002300D02*
X0001800Y0080000D01*
X0004900Y0080650D02*
X0004400Y0080150D01*
X0004900D02*
X0004400Y0080650D01*
X0031350Y0056700D02*
X0030850Y0056200D01*
X0031350D02*
X0030850Y0056700D01*
X0033250Y0067650D02*
X0032750Y0067150D01*
X0033250D02*
X0032750Y0067650D01*
X0040470D02*
X0039970Y0067150D01*
X0040470D02*
X0039970Y0067650D01*
X0040550Y0055000D02*
X0040050Y0054500D01*
X0040550D02*
X0040050Y0055000D01*
X0038250D02*
X0037750Y0054500D01*
X0038250D02*
X0037750Y0055000D01*
X0054750Y0001750D02*
X0054250Y0001250D01*
X0054750D02*
X0054250Y0001750D01*
X0059550Y0045550D02*
X0059050Y0045050D01*
X0059550D02*
X0059050Y0045550D01*
X0042300Y0057250D02*
X0041800Y0056750D01*
X0042300D02*
X0041800Y0057250D01*
X0036050Y0056700D02*
X0035550Y0056200D01*
X0036050D02*
X0035550Y0056700D01*
X0028350Y0068750D02*
X0027850Y0068250D01*
X0028350D02*
X0027850Y0068750D01*
X0027700Y0071150D02*
X0027200Y0070650D01*
X0027700D02*
X0027200Y0071150D01*
X0021850Y0076200D02*
X0021350Y0075700D01*
X0021850D02*
X0021350Y0076200D01*
X0018200D02*
X0017700Y0075700D01*
X0018200D02*
X0017700Y0076200D01*
X0042150Y0053600D02*
X0041650Y0053100D01*
X0042150D02*
X0041650Y0053600D01*
X0034151Y0053601D02*
X0033651Y0053101D01*
X0034151D02*
X0033651Y0053601D01*
X0019550Y0072650D02*
X0019050Y0072150D01*
X0019550D02*
X0019050Y0072650D01*
X0016410D02*
X0015910Y0072150D01*
X0016410D02*
X0015910Y0072650D01*
X0025798Y0054151D02*
X0025298Y0053651D01*
X0025798D02*
X0025298Y0054151D01*
X0036701D02*
X0036201Y0053651D01*
X0036701D02*
X0036201Y0054151D01*
X0020040Y0050530D02*
X0019540Y0050030D01*
X0020040D02*
X0019540Y0050530D01*
X0020820D02*
X0020320Y0050030D01*
X0020820D02*
X0020320Y0050530D01*
X0055000Y0042250D02*
X0054500Y0041750D01*
X0055000D02*
X0054500Y0042250D01*
X0055000Y0041000D02*
X0054500Y0040500D01*
X0055000D02*
X0054500Y0041000D01*
X0020250Y0034250D02*
X0019750Y0033750D01*
X0020250D02*
X0019750Y0034250D01*
X0021150Y0053400D02*
X0020650Y0052900D01*
X0021150D02*
X0020650Y0053400D01*
X0040750Y0056750D02*
X0040250Y0056250D01*
X0040750D02*
X0040250Y0056750D01*
X0018750Y0036250D02*
X0018250Y0035750D01*
X0018750D02*
X0018250Y0036250D01*
X0023100Y0036500D02*
X0022600Y0036000D01*
X0023100D02*
X0022600Y0036500D01*
X0026050Y0059050D02*
X0025550Y0058550D01*
X0026050D02*
X0025550Y0059050D01*
X0034500D02*
X0034000Y0058550D01*
X0034500D02*
X0034000Y0059050D01*
X0021250Y0034200D02*
X0020750Y0033700D01*
X0021250D02*
X0020750Y0034200D01*
X0035500Y0000050D02*
X0035000Y-0000450D01*
X0035500D02*
X0035000Y0000050D01*
X0019500Y0052650D02*
X0019000Y0052150D01*
X0019500D02*
X0019000Y0052650D01*
X0021200D02*
X0020700Y0052150D01*
X0021200D02*
X0020700Y0052650D01*
X0021250Y0038700D02*
X0020750Y0038200D01*
X0021250D02*
X0020750Y0038700D01*
X0020350Y0053700D02*
X0019850Y0053200D01*
X0020350D02*
X0019850Y0053700D01*
X0045050Y0070500D02*
X0044550Y0070000D01*
X0045050D02*
X0044550Y0070500D01*
X0035300D02*
X0034800Y0070000D01*
X0035300D02*
X0034800Y0070500D01*
X0019800Y0072250D02*
X0019300Y0071750D01*
X0019800D02*
X0019300Y0072250D01*
X0031750Y0072200D02*
X0031250Y0071700D01*
X0031750D02*
X0031250Y0072200D01*
X0037500Y0049000D02*
X0037000Y0048500D01*
X0037500D02*
X0037000Y0049000D01*
X0020750Y0043650D02*
X0020250Y0043150D01*
X0020750D02*
X0020250Y0043650D01*
X0022500D02*
X0022000Y0043150D01*
X0022500D02*
X0022000Y0043650D01*
X0019467Y0046983D02*
X0018967Y0046483D01*
X0019467D02*
X0018967Y0046983D01*
X0020317D02*
X0019817Y0046483D01*
X0020317D02*
X0019817Y0046983D01*
X0021250Y0062550D02*
X0020750Y0062050D01*
X0021250D02*
X0020750Y0062550D01*
X0022700Y0059750D02*
X0022200Y0059250D01*
X0022700D02*
X0022200Y0059750D01*
X0020800D02*
X0020300Y0059250D01*
X0020800D02*
X0020300Y0059750D01*
X0020000Y0041000D02*
X0019500Y0040500D01*
X0020000D02*
X0019500Y0041000D01*
X0021250D02*
X0020750Y0040500D01*
X0021250D02*
X0020750Y0041000D01*
X0034750Y0055500D02*
X0034250Y0055000D01*
X0034750D02*
X0034250Y0055500D01*
X0039300Y0055750D02*
X0038800Y0055250D01*
X0039300D02*
X0038800Y0055750D01*
X0024380Y0057800D02*
X0023880Y0057300D01*
X0024380D02*
X0023880Y0057800D01*
X0020800D02*
X0020300Y0057300D01*
X0020800D02*
X0020300Y0057800D01*
X0020573Y0045723D02*
X0020073Y0045223D01*
X0020573D02*
X0020073Y0045723D01*
X0022273D02*
X0021773Y0045223D01*
X0022273D02*
X0021773Y0045723D01*
X0020250Y0039050D02*
X0019750Y0038550D01*
X0020250D02*
X0019750Y0039050D01*
X0020250Y0062150D02*
X0019750Y0061650D01*
X0020250D02*
X0019750Y0062150D01*
X0049950Y0059750D02*
X0049450Y0059250D01*
X0049950D02*
X0049450Y0059750D01*
X0049950Y0058200D02*
X0049450Y0057700D01*
X0049950D02*
X0049450Y0058200D01*
X0031420Y0053720D02*
X0030920Y0053220D01*
X0031420D02*
X0030920Y0053720D01*
X-0005675Y-0032500D02*
Y-0033000D01*
X-0005175Y-0032500D02*
X-0005675D01*
X-0005175Y-0033500D02*
Y-0032500D01*
X-0004675Y-0033500D02*
X-0005175D01*
X-0004675Y-0033000D02*
Y-0033500D01*
X-0005675Y-0033000D02*
X-0004675D01*
X-0005675Y-0031000D02*
Y-0032000D01*
X-0004675Y-0031000D02*
X-0005675D01*
X-0004675Y-0032000D02*
Y-0031000D01*
X-0005675Y-0032000D02*
X-0004675D01*
Y-0031500D02*
X-0005675D01*
X-0005175Y-0031000D02*
Y-0032000D01*
X-0005675Y-0029500D02*
Y-0030500D01*
X-0004675Y-0029500D02*
X-0005675D01*
X-0004675Y-0030500D02*
Y-0029500D01*
X-0005675Y-0030500D02*
X-0004675D01*
Y-0029500D02*
X-0005675Y-0030500D01*
X-0004675D02*
X-0005675Y-0029500D01*
X-0005175Y-0028000D02*
X-0005675Y-0028500D01*
X-0004675D02*
X-0005175Y-0028000D01*
Y-0029000D02*
X-0004675Y-0028500D01*
X-0005675D02*
X-0005175Y-0029000D01*
X-0005075Y-0028500D02*
X-0005275D01*
X-0005175Y-0028400D02*
Y-0028600D01*
X-0004675Y-0027000D02*
X-0005675D01*
X-0005175Y-0026500D02*
Y-0027500D01*
X-0004675Y-0025000D02*
X-0005675Y-0026000D01*
X-0004675D02*
X-0005675Y-0025000D01*
X-0005425Y-0023900D02*
Y-0024100D01*
X-0005275Y-0023750D02*
X-0005425Y-0023900D01*
X-0005075Y-0023750D02*
X-0005275D01*
X-0004925Y-0023900D02*
X-0005075Y-0023750D01*
X-0004925Y-0024100D02*
Y-0023900D01*
X-0005075Y-0024250D02*
X-0004925Y-0024100D01*
X-0005275Y-0024250D02*
X-0005075D01*
X-0005425Y-0024100D02*
X-0005275Y-0024250D01*
X-0005225Y-0023900D02*
Y-0023850D01*
X-0005275Y-0023900D02*
X-0005225D01*
X-0005275Y-0023850D02*
Y-0023900D01*
X-0005225Y-0023850D02*
X-0005275D01*
X-0005125D02*
Y-0023900D01*
X-0005075Y-0023850D02*
X-0005125D01*
X-0005075Y-0023900D02*
Y-0023850D01*
X-0005125Y-0023900D02*
X-0005075D01*
X-0005225Y-0024150D02*
X-0005325Y-0024050D01*
X-0005125Y-0024150D02*
X-0005225D01*
X-0005025Y-0024050D02*
X-0005125Y-0024150D01*
X-0005425Y-0022400D02*
Y-0022600D01*
X-0005175Y-0022650D02*
X-0005425Y-0022400D01*
X-0004925D02*
X-0005175Y-0022650D01*
X-0004925Y-0022600D02*
Y-0022400D01*
X-0005175Y-0022350D02*
X-0004925Y-0022600D01*
X-0005425D02*
X-0005175Y-0022350D01*
X-0005425Y-0020750D02*
Y-0021250D01*
X-0004925Y-0020750D02*
X-0005425D01*
X-0004925Y-0021250D02*
Y-0020750D01*
X-0005425Y-0021250D02*
X-0004925D01*
Y-0020750D02*
X-0005425Y-0021250D01*
X-0004925D02*
X-0005425Y-0020750D01*
Y-0019400D02*
Y-0019600D01*
X-0005275Y-0019250D02*
X-0005425Y-0019400D01*
X-0005075Y-0019250D02*
X-0005275D01*
X-0004925Y-0019400D02*
X-0005075Y-0019250D01*
X-0004925Y-0019600D02*
Y-0019400D01*
X-0005075Y-0019750D02*
X-0004925Y-0019600D01*
X-0005275Y-0019750D02*
X-0005075D01*
X-0005425Y-0019600D02*
X-0005275Y-0019750D01*
X-0004925Y-0018000D02*
X-0005425D01*
X-0005175Y-0017750D02*
Y-0018250D01*
X-0005425Y-0016250D02*
Y-0016750D01*
X-0004925Y-0016250D02*
X-0005425D01*
X-0004925Y-0016750D02*
Y-0016250D01*
X-0005425Y-0016750D02*
X-0004925D01*
Y-0016500D02*
X-0005425D01*
X-0005175Y-0016250D02*
Y-0016750D01*
Y-0014750D02*
X-0005425Y-0015000D01*
X-0004925D02*
X-0005175Y-0014750D01*
Y-0015250D02*
X-0004925Y-0015000D01*
X-0005425D02*
X-0005175Y-0015250D01*
X-0004925Y-0013250D02*
X-0005425Y-0013750D01*
X-0004925D02*
X-0005425Y-0013250D01*
X0030300Y-0035800D02*
X-0007050D01*
X0030250Y-0035750D02*
X-0007000D01*
X0030250Y-0033750D02*
X-0007000D01*
X0030250Y-0032250D02*
X-0007000D01*
X0030250Y-0030750D02*
X-0007000D01*
X0030250Y-0029250D02*
X-0007000D01*
X0030250Y-0027750D02*
X-0007000D01*
X0030250Y-0026250D02*
X-0007000D01*
X0030250Y-0024750D02*
X-0007000D01*
X0030250Y-0023250D02*
X-0007000D01*
X0030250Y-0021750D02*
X-0007000D01*
X0030250Y-0020250D02*
X-0007000D01*
X0030250Y-0018750D02*
X-0007000D01*
X0030250Y-0017250D02*
X-0007000D01*
X0030250Y-0015750D02*
X-0007000D01*
X0030250Y-0014250D02*
X-0007000D01*
X0030250Y-0012750D02*
X-0007000D01*
X0030250Y-0012700D02*
X-0007000D01*
X0030250Y-0010750D02*
X-0007000D01*
X0030250Y-0010700D02*
X-0007000D01*
X0030250Y-0008750D02*
X-0007000D01*
X0030300Y-0008700D02*
X-0007050D01*
X0030300Y-0035750D02*
Y-0008750D01*
X0030250Y-0035750D02*
Y-0008750D01*
X0018708Y-0035750D02*
Y-0010750D01*
X0013158Y-0035750D02*
Y-0010750D01*
X0005092Y-0033750D02*
Y-0010750D01*
X-0003300Y-0033750D02*
Y-0010750D01*
X-0003350Y-0033750D02*
Y-0010750D01*
X-0007050Y-0035750D02*
Y-0008750D01*
X-0007000Y-0035750D02*
Y-0008750D01*
X-0006299Y-0001968D02*
X0061024D01*
Y0084646D01*
X-0001968D01*
Y0074551D01*
X-0006299D01*
Y-0001968D01*
X0011250Y0077750D02*
X0010750Y0077250D01*
X0011250D02*
X0010750Y0077750D01*
Y0075750D02*
X0010250Y0075250D01*
X0010750D02*
X0010250Y0075750D01*
X0011750D02*
X0011250Y0075250D01*
X0011750D02*
X0011250Y0075750D01*
X0012250Y0075250D02*
X0011750Y0074750D01*
X0012250D02*
X0011750Y0075250D01*
X0011250D02*
X0010750Y0074750D01*
X0011250D02*
X0010750Y0075250D01*
X0011250Y0076250D02*
X0010750Y0075750D01*
X0011250D02*
X0010750Y0076250D01*
X0010250D02*
X0009750Y0075750D01*
X0010250D02*
X0009750Y0076250D01*
X0010250Y0075250D02*
X0009750Y0074750D01*
X0010250D02*
X0009750Y0075250D01*
Y0083750D02*
X0009250Y0083250D01*
X0009750D02*
X0009250Y0083750D01*
X0011750D02*
X0011250Y0083250D01*
X0011750D02*
X0011250Y0083750D01*
X0010750D02*
X0010250Y0083250D01*
X0010750D02*
X0010250Y0083750D01*
X0010750Y0079750D02*
X0010250Y0079250D01*
X0010750D02*
X0010250Y0079750D01*
X0009750D02*
X0009250Y0079250D01*
X0009750D02*
X0009250Y0079750D01*
X0010250Y0078750D02*
X0009750Y0078250D01*
X0010250D02*
X0009750Y0078750D01*
X0011250D02*
X0010750Y0078250D01*
X0011250D02*
X0010750Y0078750D01*
X0011250Y0079250D02*
X0010750Y0078750D01*
X0011250D02*
X0010750Y0079250D01*
X0010250Y0080250D02*
X0009750Y0079750D01*
X0010250D02*
X0009750Y0080250D01*
X0010250Y0079250D02*
X0009750Y0078750D01*
X0010250D02*
X0009750Y0079250D01*
X0009250D02*
X0008750Y0078750D01*
X0009250D02*
X0008750Y0079250D01*
X0009250Y0080250D02*
X0008750Y0079750D01*
X0009250D02*
X0008750Y0080250D01*
X0009250Y0081250D02*
X0008750Y0080750D01*
X0009250D02*
X0008750Y0081250D01*
X0009250Y0082250D02*
X0008750Y0081750D01*
X0009250D02*
X0008750Y0082250D01*
X0010250Y0083250D02*
X0009750Y0082750D01*
X0010250D02*
X0009750Y0083250D01*
X0011250D02*
X0010750Y0082750D01*
X0011250D02*
X0010750Y0083250D01*
X0012250D02*
X0011750Y0082750D01*
X0012250D02*
X0011750Y0083250D01*
X0012250Y0084250D02*
X0011750Y0083750D01*
X0012250D02*
X0011750Y0084250D01*
X0011250D02*
X0010750Y0083750D01*
X0011250D02*
X0010750Y0084250D01*
X0010250D02*
X0009750Y0083750D01*
X0010250D02*
X0009750Y0084250D01*
X0009250D02*
X0008750Y0083750D01*
X0009250D02*
X0008750Y0084250D01*
X0030250Y0013250D02*
X0029750Y0012750D01*
X0030250D02*
X0029750Y0013250D01*
X0031250D02*
X0030750Y0012750D01*
X0031250D02*
X0030750Y0013250D01*
X0031250Y0014250D02*
X0030750Y0013750D01*
X0031250D02*
X0030750Y0014250D01*
X0030250D02*
X0029750Y0013750D01*
X0030250D02*
X0029750Y0014250D01*
X0029250Y0013250D02*
X0028750Y0012750D01*
X0029250D02*
X0028750Y0013250D01*
X0029250Y0014250D02*
X0028750Y0013750D01*
X0029250D02*
X0028750Y0014250D01*
X0029250Y0015250D02*
X0028750Y0014750D01*
X0029250D02*
X0028750Y0015250D01*
X0030250D02*
X0029750Y0014750D01*
X0030250D02*
X0029750Y0015250D01*
X0031250D02*
X0030750Y0014750D01*
X0031250D02*
X0030750Y0015250D01*
X0032250Y0013250D02*
X0031750Y0012750D01*
X0032250D02*
X0031750Y0013250D01*
X0032250Y0014250D02*
X0031750Y0013750D01*
X0032250D02*
X0031750Y0014250D01*
X0032250Y0015250D02*
X0031750Y0014750D01*
X0032250D02*
X0031750Y0015250D01*
X0033250Y0013250D02*
X0032750Y0012750D01*
X0033250D02*
X0032750Y0013250D01*
X0033250Y0014250D02*
X0032750Y0013750D01*
X0033250D02*
X0032750Y0014250D01*
X0033250Y0015250D02*
X0032750Y0014750D01*
X0033250D02*
X0032750Y0015250D01*
X0034250D02*
X0033750Y0014750D01*
X0034250D02*
X0033750Y0015250D01*
X0034250Y0014250D02*
X0033750Y0013750D01*
X0034250D02*
X0033750Y0014250D01*
X0034250Y0013250D02*
X0033750Y0012750D01*
X0034250D02*
X0033750Y0013250D01*
X0035250D02*
X0034750Y0012750D01*
X0035250D02*
X0034750Y0013250D01*
X0035250Y0014250D02*
X0034750Y0013750D01*
X0035250D02*
X0034750Y0014250D01*
X0035250Y0015250D02*
X0034750Y0014750D01*
X0035250D02*
X0034750Y0015250D01*
X0036250D02*
X0035750Y0014750D01*
X0036250D02*
X0035750Y0015250D01*
X0036250Y0014250D02*
X0035750Y0013750D01*
X0036250D02*
X0035750Y0014250D01*
X0036250Y0013250D02*
X0035750Y0012750D01*
X0036250D02*
X0035750Y0013250D01*
X0037250D02*
X0036750Y0012750D01*
X0037250D02*
X0036750Y0013250D01*
X0037250Y0014250D02*
X0036750Y0013750D01*
X0037250D02*
X0036750Y0014250D01*
X0037250Y0015250D02*
X0036750Y0014750D01*
X0037250D02*
X0036750Y0015250D01*
X0043250Y0013250D02*
X0042750Y0012750D01*
X0043250D02*
X0042750Y0013250D01*
X0043250Y0014250D02*
X0042750Y0013750D01*
X0043250D02*
X0042750Y0014250D01*
X0042250Y0013250D02*
X0041750Y0012750D01*
X0042250D02*
X0041750Y0013250D01*
X0042250Y0014250D02*
X0041750Y0013750D01*
X0042250D02*
X0041750Y0014250D01*
X0041250Y0013250D02*
X0040750Y0012750D01*
X0041250D02*
X0040750Y0013250D01*
X0041250Y0014250D02*
X0040750Y0013750D01*
X0041250D02*
X0040750Y0014250D01*
X0040250Y0013250D02*
X0039750Y0012750D01*
X0040250D02*
X0039750Y0013250D01*
X0040250Y0014250D02*
X0039750Y0013750D01*
X0040250D02*
X0039750Y0014250D01*
X0039250Y0013250D02*
X0038750Y0012750D01*
X0039250D02*
X0038750Y0013250D01*
X0039250Y0014250D02*
X0038750Y0013750D01*
X0039250D02*
X0038750Y0014250D01*
X0038250Y0013250D02*
X0037750Y0012750D01*
X0038250D02*
X0037750Y0013250D01*
X0038250Y0014250D02*
X0037750Y0013750D01*
X0038250D02*
X0037750Y0014250D01*
X0038250Y0015250D02*
X0037750Y0014750D01*
X0038250D02*
X0037750Y0015250D01*
X0039250D02*
X0038750Y0014750D01*
X0039250D02*
X0038750Y0015250D01*
X0040250D02*
X0039750Y0014750D01*
X0040250D02*
X0039750Y0015250D01*
X0041250D02*
X0040750Y0014750D01*
X0041250D02*
X0040750Y0015250D01*
X0042250D02*
X0041750Y0014750D01*
X0042250D02*
X0041750Y0015250D01*
X0043250D02*
X0042750Y0014750D01*
X0043250D02*
X0042750Y0015250D01*
X0044250Y0013250D02*
X0043750Y0012750D01*
X0044250D02*
X0043750Y0013250D01*
X0044250Y0014250D02*
X0043750Y0013750D01*
X0044250D02*
X0043750Y0014250D01*
X0045250Y0013250D02*
X0044750Y0012750D01*
X0045250D02*
X0044750Y0013250D01*
X0045250Y0014250D02*
X0044750Y0013750D01*
X0045250D02*
X0044750Y0014250D01*
X0044250Y0015250D02*
X0043750Y0014750D01*
X0044250D02*
X0043750Y0015250D01*
X0045250D02*
X0044750Y0014750D01*
X0045250D02*
X0044750Y0015250D01*
X0046250D02*
X0045750Y0014750D01*
X0046250D02*
X0045750Y0015250D01*
X0047250D02*
X0046750Y0014750D01*
X0047250D02*
X0046750Y0015250D01*
X0046250Y0013250D02*
X0045750Y0012750D01*
X0046250D02*
X0045750Y0013250D01*
X0046250Y0014250D02*
X0045750Y0013750D01*
X0046250D02*
X0045750Y0014250D01*
X0047250D02*
X0046750Y0013750D01*
X0047250D02*
X0046750Y0014250D01*
X0047250Y0013250D02*
X0046750Y0012750D01*
X0047250D02*
X0046750Y0013250D01*
X0047250Y0012250D02*
X0046750Y0011750D01*
X0047250D02*
X0046750Y0012250D01*
X0046250D02*
X0045750Y0011750D01*
X0046250D02*
X0045750Y0012250D01*
X0045250D02*
X0044750Y0011750D01*
X0045250D02*
X0044750Y0012250D01*
X0044250D02*
X0043750Y0011750D01*
X0044250D02*
X0043750Y0012250D01*
X0043250D02*
X0042750Y0011750D01*
X0043250D02*
X0042750Y0012250D01*
X0042250D02*
X0041750Y0011750D01*
X0042250D02*
X0041750Y0012250D01*
X0041250D02*
X0040750Y0011750D01*
X0041250D02*
X0040750Y0012250D01*
X0040250D02*
X0039750Y0011750D01*
X0040250D02*
X0039750Y0012250D01*
X0039250D02*
X0038750Y0011750D01*
X0039250D02*
X0038750Y0012250D01*
X0038250D02*
X0037750Y0011750D01*
X0038250D02*
X0037750Y0012250D01*
X0037250D02*
X0036750Y0011750D01*
X0037250D02*
X0036750Y0012250D01*
X0036250D02*
X0035750Y0011750D01*
X0036250D02*
X0035750Y0012250D01*
X0035250D02*
X0034750Y0011750D01*
X0035250D02*
X0034750Y0012250D01*
X0034250D02*
X0033750Y0011750D01*
X0034250D02*
X0033750Y0012250D01*
X0032250D02*
X0031750Y0011750D01*
X0032250D02*
X0031750Y0012250D01*
X0033250D02*
X0032750Y0011750D01*
X0033250D02*
X0032750Y0012250D01*
X0031250D02*
X0030750Y0011750D01*
X0031250D02*
X0030750Y0012250D01*
X0030250D02*
X0029750Y0011750D01*
X0030250D02*
X0029750Y0012250D01*
X0029250D02*
X0028750Y0011750D01*
X0029250D02*
X0028750Y0012250D01*
X0026250Y0010250D02*
X0025750Y0009750D01*
X0026250D02*
X0025750Y0010250D01*
X0028250Y0011250D02*
X0027750Y0010750D01*
X0028250D02*
X0027750Y0011250D01*
X0029250D02*
X0028750Y0010750D01*
X0029250D02*
X0028750Y0011250D01*
X0030250D02*
X0029750Y0010750D01*
X0030250D02*
X0029750Y0011250D01*
X0031250D02*
X0030750Y0010750D01*
X0031250D02*
X0030750Y0011250D01*
X0032250D02*
X0031750Y0010750D01*
X0032250D02*
X0031750Y0011250D01*
X0033250D02*
X0032750Y0010750D01*
X0033250D02*
X0032750Y0011250D01*
X0034250D02*
X0033750Y0010750D01*
X0034250D02*
X0033750Y0011250D01*
X0035250D02*
X0034750Y0010750D01*
X0035250D02*
X0034750Y0011250D01*
X0036250D02*
X0035750Y0010750D01*
X0036250D02*
X0035750Y0011250D01*
X0037250D02*
X0036750Y0010750D01*
X0037250D02*
X0036750Y0011250D01*
X0038250D02*
X0037750Y0010750D01*
X0038250D02*
X0037750Y0011250D01*
X0039250D02*
X0038750Y0010750D01*
X0039250D02*
X0038750Y0011250D01*
X0040250D02*
X0039750Y0010750D01*
X0040250D02*
X0039750Y0011250D01*
X0041250D02*
X0040750Y0010750D01*
X0041250D02*
X0040750Y0011250D01*
X0042250D02*
X0041750Y0010750D01*
X0042250D02*
X0041750Y0011250D01*
X0043250D02*
X0042750Y0010750D01*
X0043250D02*
X0042750Y0011250D01*
X0044250D02*
X0043750Y0010750D01*
X0044250D02*
X0043750Y0011250D01*
X0045250D02*
X0044750Y0010750D01*
X0045250D02*
X0044750Y0011250D01*
X0046250D02*
X0045750Y0010750D01*
X0046250D02*
X0045750Y0011250D01*
X0047250D02*
X0046750Y0010750D01*
X0047250D02*
X0046750Y0011250D01*
X0047250Y0010250D02*
X0046750Y0009750D01*
X0047250D02*
X0046750Y0010250D01*
X0046250D02*
X0045750Y0009750D01*
X0046250D02*
X0045750Y0010250D01*
X0045250D02*
X0044750Y0009750D01*
X0045250D02*
X0044750Y0010250D01*
X0044250D02*
X0043750Y0009750D01*
X0044250D02*
X0043750Y0010250D01*
X0043250D02*
X0042750Y0009750D01*
X0043250D02*
X0042750Y0010250D01*
X0042250D02*
X0041750Y0009750D01*
X0042250D02*
X0041750Y0010250D01*
X0041250D02*
X0040750Y0009750D01*
X0041250D02*
X0040750Y0010250D01*
X0040250D02*
X0039750Y0009750D01*
X0040250D02*
X0039750Y0010250D01*
X0039250D02*
X0038750Y0009750D01*
X0039250D02*
X0038750Y0010250D01*
X0037250D02*
X0036750Y0009750D01*
X0037250D02*
X0036750Y0010250D01*
X0036250D02*
X0035750Y0009750D01*
X0036250D02*
X0035750Y0010250D01*
X0035250D02*
X0034750Y0009750D01*
X0035250D02*
X0034750Y0010250D01*
X0034250D02*
X0033750Y0009750D01*
X0034250D02*
X0033750Y0010250D01*
X0033250D02*
X0032750Y0009750D01*
X0033250D02*
X0032750Y0010250D01*
X0032250D02*
X0031750Y0009750D01*
X0032250D02*
X0031750Y0010250D01*
X0031250D02*
X0030750Y0009750D01*
X0031250D02*
X0030750Y0010250D01*
X0030250D02*
X0029750Y0009750D01*
X0030250D02*
X0029750Y0010250D01*
X0029250D02*
X0028750Y0009750D01*
X0029250D02*
X0028750Y0010250D01*
X0028250D02*
X0027750Y0009750D01*
X0028250D02*
X0027750Y0010250D01*
X0027250D02*
X0026750Y0009750D01*
X0027250D02*
X0026750Y0010250D01*
X0027250Y0009250D02*
X0026750Y0008750D01*
X0027250D02*
X0026750Y0009250D01*
X0028250D02*
X0027750Y0008750D01*
X0028250D02*
X0027750Y0009250D01*
X0029250D02*
X0028750Y0008750D01*
X0029250D02*
X0028750Y0009250D01*
X0030250D02*
X0029750Y0008750D01*
X0030250D02*
X0029750Y0009250D01*
X0031250D02*
X0030750Y0008750D01*
X0031250D02*
X0030750Y0009250D01*
X0032250D02*
X0031750Y0008750D01*
X0032250D02*
X0031750Y0009250D01*
X0033250D02*
X0032750Y0008750D01*
X0033250D02*
X0032750Y0009250D01*
X0034250D02*
X0033750Y0008750D01*
X0034250D02*
X0033750Y0009250D01*
X0035250D02*
X0034750Y0008750D01*
X0035250D02*
X0034750Y0009250D01*
X0036250D02*
X0035750Y0008750D01*
X0036250D02*
X0035750Y0009250D01*
X0037250D02*
X0036750Y0008750D01*
X0037250D02*
X0036750Y0009250D01*
X0039250Y0006250D02*
X0038750Y0005750D01*
X0039250D02*
X0038750Y0006250D01*
X0039250Y0007250D02*
X0038750Y0006750D01*
X0039250D02*
X0038750Y0007250D01*
X0038250Y0006250D02*
X0037750Y0005750D01*
X0038250D02*
X0037750Y0006250D01*
X0038250Y0007250D02*
X0037750Y0006750D01*
X0038250D02*
X0037750Y0007250D01*
X0037250D02*
X0036750Y0006750D01*
X0037250D02*
X0036750Y0007250D01*
X0036250D02*
X0035750Y0006750D01*
X0036250D02*
X0035750Y0007250D01*
X0036250Y0008250D02*
X0035750Y0007750D01*
X0036250D02*
X0035750Y0008250D01*
X0037250D02*
X0036750Y0007750D01*
X0037250D02*
X0036750Y0008250D01*
X0038250D02*
X0037750Y0007750D01*
X0038250D02*
X0037750Y0008250D01*
X0039250D02*
X0038750Y0007750D01*
X0039250D02*
X0038750Y0008250D01*
X0040250Y0006250D02*
X0039750Y0005750D01*
X0040250D02*
X0039750Y0006250D01*
X0040250Y0007250D02*
X0039750Y0006750D01*
X0040250D02*
X0039750Y0007250D01*
X0041250Y0006250D02*
X0040750Y0005750D01*
X0041250D02*
X0040750Y0006250D01*
X0041250Y0007250D02*
X0040750Y0006750D01*
X0041250D02*
X0040750Y0007250D01*
X0041250Y0008250D02*
X0040750Y0007750D01*
X0041250D02*
X0040750Y0008250D01*
X0042250Y0006250D02*
X0041750Y0005750D01*
X0042250D02*
X0041750Y0006250D01*
X0042250Y0007250D02*
X0041750Y0006750D01*
X0042250D02*
X0041750Y0007250D01*
X0042250Y0008250D02*
X0041750Y0007750D01*
X0042250D02*
X0041750Y0008250D01*
X0043250Y0006250D02*
X0042750Y0005750D01*
X0043250D02*
X0042750Y0006250D01*
X0043250Y0007250D02*
X0042750Y0006750D01*
X0043250D02*
X0042750Y0007250D01*
X0043250Y0008250D02*
X0042750Y0007750D01*
X0043250D02*
X0042750Y0008250D01*
X0040250D02*
X0039750Y0007750D01*
X0040250D02*
X0039750Y0008250D01*
X0040250Y0009250D02*
X0039750Y0008750D01*
X0040250D02*
X0039750Y0009250D01*
X0041250D02*
X0040750Y0008750D01*
X0041250D02*
X0040750Y0009250D01*
X0042250D02*
X0041750Y0008750D01*
X0042250D02*
X0041750Y0009250D01*
X0043250D02*
X0042750Y0008750D01*
X0043250D02*
X0042750Y0009250D01*
X0044250Y0006250D02*
X0043750Y0005750D01*
X0044250D02*
X0043750Y0006250D01*
X0044250Y0007250D02*
X0043750Y0006750D01*
X0044250D02*
X0043750Y0007250D01*
X0044250Y0008250D02*
X0043750Y0007750D01*
X0044250D02*
X0043750Y0008250D01*
X0044250Y0009250D02*
X0043750Y0008750D01*
X0044250D02*
X0043750Y0009250D01*
X0046250Y0007250D02*
X0045750Y0006750D01*
X0046250D02*
X0045750Y0007250D01*
X0045250Y0006250D02*
X0044750Y0005750D01*
X0045250D02*
X0044750Y0006250D01*
X0045250Y0007250D02*
X0044750Y0006750D01*
X0045250D02*
X0044750Y0007250D01*
X0047250Y0008250D02*
X0046750Y0007750D01*
X0047250D02*
X0046750Y0008250D01*
X0046250D02*
X0045750Y0007750D01*
X0046250D02*
X0045750Y0008250D01*
X0045250D02*
X0044750Y0007750D01*
X0045250D02*
X0044750Y0008250D01*
X0045250Y0009250D02*
X0044750Y0008750D01*
X0045250D02*
X0044750Y0009250D01*
X0046250D02*
X0045750Y0008750D01*
X0046250D02*
X0045750Y0009250D01*
X0047250D02*
X0046750Y0008750D01*
X0047250D02*
X0046750Y0009250D01*
X0048250Y0011250D02*
X0047750Y0010750D01*
X0048250D02*
X0047750Y0011250D01*
X0052250D02*
X0051750Y0010750D01*
X0052250D02*
X0051750Y0011250D01*
X0048250Y0010250D02*
X0047750Y0009750D01*
X0048250D02*
X0047750Y0010250D01*
X0049250D02*
X0048750Y0009750D01*
X0049250D02*
X0048750Y0010250D01*
X0050250D02*
X0049750Y0009750D01*
X0050250D02*
X0049750Y0010250D01*
X0051250D02*
X0050750Y0009750D01*
X0051250D02*
X0050750Y0010250D01*
X0052250D02*
X0051750Y0009750D01*
X0052250D02*
X0051750Y0010250D01*
X0051250Y0009250D02*
X0050750Y0008750D01*
X0051250D02*
X0050750Y0009250D01*
X0050250D02*
X0049750Y0008750D01*
X0050250D02*
X0049750Y0009250D01*
X0049250D02*
X0048750Y0008750D01*
X0049250D02*
X0048750Y0009250D01*
X0048250D02*
X0047750Y0008750D01*
X0048250D02*
X0047750Y0009250D01*
X0025250Y0025250D02*
X0024750Y0024750D01*
X0025250D02*
X0024750Y0025250D01*
X0024250D02*
X0023750Y0024750D01*
X0024250D02*
X0023750Y0025250D01*
X0023250Y0024250D02*
X0022750Y0023750D01*
X0023250D02*
X0022750Y0024250D01*
X0023250Y0023250D02*
X0022750Y0022750D01*
X0023250D02*
X0022750Y0023250D01*
X0023250Y0022250D02*
X0022750Y0021750D01*
X0023250D02*
X0022750Y0022250D01*
X0023250Y0021250D02*
X0022750Y0020750D01*
X0023250D02*
X0022750Y0021250D01*
X0023250Y0020250D02*
X0022750Y0019750D01*
X0023250D02*
X0022750Y0020250D01*
X0024250D02*
X0023750Y0019750D01*
X0024250D02*
X0023750Y0020250D01*
X0028250D02*
X0027750Y0019750D01*
X0028250D02*
X0027750Y0020250D01*
X0027250Y0025250D02*
X0026750Y0024750D01*
X0027250D02*
X0026750Y0025250D01*
X0026250D02*
X0025750Y0024750D01*
X0026250D02*
X0025750Y0025250D01*
X0026250Y0026250D02*
X0025750Y0025750D01*
X0026250D02*
X0025750Y0026250D01*
X0027250D02*
X0026750Y0025750D01*
X0027250D02*
X0026750Y0026250D01*
X0028250Y0025250D02*
X0027750Y0024750D01*
X0028250D02*
X0027750Y0025250D01*
X0028250Y0026250D02*
X0027750Y0025750D01*
X0028250D02*
X0027750Y0026250D01*
X0045250Y0020250D02*
X0044750Y0019750D01*
X0045250D02*
X0044750Y0020250D01*
X0045250Y0021250D02*
X0044750Y0020750D01*
X0045250D02*
X0044750Y0021250D01*
X0045250Y0022250D02*
X0044750Y0021750D01*
X0045250D02*
X0044750Y0022250D01*
X0045250Y0023250D02*
X0044750Y0022750D01*
X0045250D02*
X0044750Y0023250D01*
X0045250Y0024250D02*
X0044750Y0023750D01*
X0045250D02*
X0044750Y0024250D01*
X0045250Y0025250D02*
X0044750Y0024750D01*
X0045250D02*
X0044750Y0025250D01*
X0045250Y0026250D02*
X0044750Y0025750D01*
X0045250D02*
X0044750Y0026250D01*
X0053250Y0020250D02*
X0052750Y0019750D01*
X0053250D02*
X0052750Y0020250D01*
X0053250Y0021250D02*
X0052750Y0020750D01*
X0053250D02*
X0052750Y0021250D01*
X0048250Y0024250D02*
X0047750Y0023750D01*
X0048250D02*
X0047750Y0024250D01*
X0047250D02*
X0046750Y0023750D01*
X0047250D02*
X0046750Y0024250D01*
X0047250Y0023250D02*
X0046750Y0022750D01*
X0047250D02*
X0046750Y0023250D01*
X0047250Y0022250D02*
X0046750Y0021750D01*
X0047250D02*
X0046750Y0022250D01*
X0047250Y0021250D02*
X0046750Y0020750D01*
X0047250D02*
X0046750Y0021250D01*
X0048250Y0020250D02*
X0047750Y0019750D01*
X0048250D02*
X0047750Y0020250D01*
X0047250D02*
X0046750Y0019750D01*
X0047250D02*
X0046750Y0020250D01*
X0046250D02*
X0045750Y0019750D01*
X0046250D02*
X0045750Y0020250D01*
X0046250Y0021250D02*
X0045750Y0020750D01*
X0046250D02*
X0045750Y0021250D01*
X0046250Y0022250D02*
X0045750Y0021750D01*
X0046250D02*
X0045750Y0022250D01*
X0046250Y0023250D02*
X0045750Y0022750D01*
X0046250D02*
X0045750Y0023250D01*
X0046250Y0024250D02*
X0045750Y0023750D01*
X0046250D02*
X0045750Y0024250D01*
X0052250Y0025250D02*
X0051750Y0024750D01*
X0052250D02*
X0051750Y0025250D01*
X0051250D02*
X0050750Y0024750D01*
X0051250D02*
X0050750Y0025250D01*
X0050250D02*
X0049750Y0024750D01*
X0050250D02*
X0049750Y0025250D01*
X0049250D02*
X0048750Y0024750D01*
X0049250D02*
X0048750Y0025250D01*
X0048250D02*
X0047750Y0024750D01*
X0048250D02*
X0047750Y0025250D01*
X0047250D02*
X0046750Y0024750D01*
X0047250D02*
X0046750Y0025250D01*
X0046250D02*
X0045750Y0024750D01*
X0046250D02*
X0045750Y0025250D01*
X0046250Y0026250D02*
X0045750Y0025750D01*
X0046250D02*
X0045750Y0026250D01*
X0047250D02*
X0046750Y0025750D01*
X0047250D02*
X0046750Y0026250D01*
X0048250D02*
X0047750Y0025750D01*
X0048250D02*
X0047750Y0026250D01*
X0049250D02*
X0048750Y0025750D01*
X0049250D02*
X0048750Y0026250D01*
X0050250D02*
X0049750Y0025750D01*
X0050250D02*
X0049750Y0026250D01*
X0051250D02*
X0050750Y0025750D01*
X0051250D02*
X0050750Y0026250D01*
X0052250D02*
X0051750Y0025750D01*
X0052250D02*
X0051750Y0026250D01*
X0053250Y0023250D02*
X0052750Y0022750D01*
X0053250D02*
X0052750Y0023250D01*
X0053250Y0024250D02*
X0052750Y0023750D01*
X0053250D02*
X0052750Y0024250D01*
X0053250Y0025250D02*
X0052750Y0024750D01*
X0053250D02*
X0052750Y0025250D01*
X0053250Y0026250D02*
X0052750Y0025750D01*
X0053250D02*
X0052750Y0026250D01*
X0000250Y0015250D02*
X-0000250Y0014750D01*
X0000250D02*
X-0000250Y0015250D01*
X0001250D02*
X0000750Y0014750D01*
X0001250D02*
X0000750Y0015250D01*
X0001250Y0014250D02*
X0000750Y0013750D01*
X0001250D02*
X0000750Y0014250D01*
X0000250D02*
X-0000250Y0013750D01*
X0000250D02*
X-0000250Y0014250D01*
X-0000750D02*
X-0001250Y0013750D01*
X-0000750D02*
X-0001250Y0014250D01*
X-0000750Y0013250D02*
X-0001250Y0012750D01*
X-0000750D02*
X-0001250Y0013250D01*
X0000250D02*
X-0000250Y0012750D01*
X0000250D02*
X-0000250Y0013250D01*
X0001250D02*
X0000750Y0012750D01*
X0001250D02*
X0000750Y0013250D01*
X0001250Y0012250D02*
X0000750Y0011750D01*
X0001250D02*
X0000750Y0012250D01*
X0001250Y0011250D02*
X0000750Y0010750D01*
X0001250D02*
X0000750Y0011250D01*
X0001250Y0010250D02*
X0000750Y0009750D01*
X0001250D02*
X0000750Y0010250D01*
X0001250Y0009250D02*
X0000750Y0008750D01*
X0001250D02*
X0000750Y0009250D01*
X0001250Y0008250D02*
X0000750Y0007750D01*
X0001250D02*
X0000750Y0008250D01*
X0000250D02*
X-0000250Y0007750D01*
X0000250D02*
X-0000250Y0008250D01*
X0000250Y0009250D02*
X-0000250Y0008750D01*
X0000250D02*
X-0000250Y0009250D01*
X0000250Y0010250D02*
X-0000250Y0009750D01*
X0000250D02*
X-0000250Y0010250D01*
X0000250Y0011250D02*
X-0000250Y0010750D01*
X0000250D02*
X-0000250Y0011250D01*
X0000250Y0012250D02*
X-0000250Y0011750D01*
X0000250D02*
X-0000250Y0012250D01*
X-0000750D02*
X-0001250Y0011750D01*
X-0000750D02*
X-0001250Y0012250D01*
X-0000750Y0011250D02*
X-0001250Y0010750D01*
X-0000750D02*
X-0001250Y0011250D01*
X-0000750Y0010250D02*
X-0001250Y0009750D01*
X-0000750D02*
X-0001250Y0010250D01*
X-0000750Y0009250D02*
X-0001250Y0008750D01*
X-0000750D02*
X-0001250Y0009250D01*
X-0000750Y0008250D02*
X-0001250Y0007750D01*
X-0000750D02*
X-0001250Y0008250D01*
X0002250Y0005250D02*
X0001750Y0004750D01*
X0002250D02*
X0001750Y0005250D01*
X0002250Y0006250D02*
X0001750Y0005750D01*
X0002250D02*
X0001750Y0006250D01*
X0001250D02*
X0000750Y0005750D01*
X0001250D02*
X0000750Y0006250D01*
X0001250Y0007250D02*
X0000750Y0006750D01*
X0001250D02*
X0000750Y0007250D01*
X0000250Y0006250D02*
X-0000250Y0005750D01*
X0000250D02*
X-0000250Y0006250D01*
X0000250Y0007250D02*
X-0000250Y0006750D01*
X0000250D02*
X-0000250Y0007250D01*
X-0000750D02*
X-0001250Y0006750D01*
X-0000750D02*
X-0001250Y0007250D01*
X-0000750Y0006250D02*
X-0001250Y0005750D01*
X-0000750D02*
X-0001250Y0006250D01*
X-0000750Y0005250D02*
X-0001250Y0004750D01*
X-0000750D02*
X-0001250Y0005250D01*
X0000250D02*
X-0000250Y0004750D01*
X0000250D02*
X-0000250Y0005250D01*
X0001250D02*
X0000750Y0004750D01*
X0001250D02*
X0000750Y0005250D01*
X0032250D02*
X0031750Y0004750D01*
X0032250D02*
X0031750Y0005250D01*
X0033250Y0006250D02*
X0032750Y0005750D01*
X0033250D02*
X0032750Y0006250D01*
X0032250Y0007250D02*
X0031750Y0006750D01*
X0032250D02*
X0031750Y0007250D01*
X0033250D02*
X0032750Y0006750D01*
X0033250D02*
X0032750Y0007250D01*
X0034250D02*
X0033750Y0006750D01*
X0034250D02*
X0033750Y0007250D01*
X0035250D02*
X0034750Y0006750D01*
X0035250D02*
X0034750Y0007250D01*
X0035250Y0008250D02*
X0034750Y0007750D01*
X0035250D02*
X0034750Y0008250D01*
X0034250D02*
X0033750Y0007750D01*
X0034250D02*
X0033750Y0008250D01*
X0033250D02*
X0032750Y0007750D01*
X0033250D02*
X0032750Y0008250D01*
X0032250D02*
X0031750Y0007750D01*
X0032250D02*
X0031750Y0008250D01*
X0031250D02*
X0030750Y0007750D01*
X0031250D02*
X0030750Y0008250D01*
X0030250D02*
X0029750Y0007750D01*
X0030250D02*
X0029750Y0008250D01*
X0029250Y0007250D02*
X0028750Y0006750D01*
X0029250D02*
X0028750Y0007250D01*
X0028250Y0006250D02*
X0027750Y0005750D01*
X0028250D02*
X0027750Y0006250D01*
X0029250D02*
X0028750Y0005750D01*
X0029250D02*
X0028750Y0006250D01*
X0031250Y0004250D02*
X0030750Y0003750D01*
X0031250D02*
X0030750Y0004250D01*
X0030250D02*
X0029750Y0003750D01*
X0030250D02*
X0029750Y0004250D01*
X0030250Y0003250D02*
X0029750Y0002750D01*
X0030250D02*
X0029750Y0003250D01*
X0029250Y0002250D02*
X0028750Y0001750D01*
X0029250D02*
X0028750Y0002250D01*
X0029250Y0003250D02*
X0028750Y0002750D01*
X0029250D02*
X0028750Y0003250D01*
X0029250Y0004250D02*
X0028750Y0003750D01*
X0029250D02*
X0028750Y0004250D01*
X0029250Y0005250D02*
X0028750Y0004750D01*
X0029250D02*
X0028750Y0005250D01*
X0027250D02*
X0026750Y0004750D01*
X0027250D02*
X0026750Y0005250D01*
X0028250D02*
X0027750Y0004750D01*
X0028250D02*
X0027750Y0005250D01*
X0028250Y0004250D02*
X0027750Y0003750D01*
X0028250D02*
X0027750Y0004250D01*
X0027250D02*
X0026750Y0003750D01*
X0027250D02*
X0026750Y0004250D01*
X0026250D02*
X0025750Y0003750D01*
X0026250D02*
X0025750Y0004250D01*
X0027250Y0002250D02*
X0026750Y0001750D01*
X0027250D02*
X0026750Y0002250D01*
X0025250Y0003250D02*
X0024750Y0002750D01*
X0025250D02*
X0024750Y0003250D01*
X0026250D02*
X0025750Y0002750D01*
X0026250D02*
X0025750Y0003250D01*
X0027250D02*
X0026750Y0002750D01*
X0027250D02*
X0026750Y0003250D01*
X0028250D02*
X0027750Y0002750D01*
X0028250D02*
X0027750Y0003250D01*
X0028250Y0002250D02*
X0027750Y0001750D01*
X0028250D02*
X0027750Y0002250D01*
X0028250Y0001250D02*
X0027750Y0000750D01*
X0028250D02*
X0027750Y0001250D01*
X0028250Y0000250D02*
X0027750Y-0000250D01*
X0028250D02*
X0027750Y0000250D01*
X0028250Y-0000750D02*
X0027750Y-0001250D01*
X0028250D02*
X0027750Y-0000750D01*
X0027250D02*
X0026750Y-0001250D01*
X0027250D02*
X0026750Y-0000750D01*
X0026250D02*
X0025750Y-0001250D01*
X0026250D02*
X0025750Y-0000750D01*
X0025250D02*
X0024750Y-0001250D01*
X0025250D02*
X0024750Y-0000750D01*
X0019250Y0006250D02*
X0018750Y0005750D01*
X0019250D02*
X0018750Y0006250D01*
X0019250Y0005250D02*
X0018750Y0004750D01*
X0019250D02*
X0018750Y0005250D01*
X0018250D02*
X0017750Y0004750D01*
X0018250D02*
X0017750Y0005250D01*
X0020250Y0004250D02*
X0019750Y0003750D01*
X0020250D02*
X0019750Y0004250D01*
X0019250D02*
X0018750Y0003750D01*
X0019250D02*
X0018750Y0004250D01*
X0018250D02*
X0017750Y0003750D01*
X0018250D02*
X0017750Y0004250D01*
X0017250D02*
X0016750Y0003750D01*
X0017250D02*
X0016750Y0004250D01*
X0017250Y0002250D02*
X0016750Y0001750D01*
X0017250D02*
X0016750Y0002250D01*
X0017250Y0003250D02*
X0016750Y0002750D01*
X0017250D02*
X0016750Y0003250D01*
X0018250D02*
X0017750Y0002750D01*
X0018250D02*
X0017750Y0003250D01*
X0019250D02*
X0018750Y0002750D01*
X0019250D02*
X0018750Y0003250D01*
X0020250D02*
X0019750Y0002750D01*
X0020250D02*
X0019750Y0003250D01*
X0020250Y0002250D02*
X0019750Y0001750D01*
X0020250D02*
X0019750Y0002250D01*
X0019250D02*
X0018750Y0001750D01*
X0019250D02*
X0018750Y0002250D01*
X0018250D02*
X0017750Y0001750D01*
X0018250D02*
X0017750Y0002250D01*
X0018250Y0001250D02*
X0017750Y0000750D01*
X0018250D02*
X0017750Y0001250D01*
X0019250D02*
X0018750Y0000750D01*
X0019250D02*
X0018750Y0001250D01*
X0020250D02*
X0019750Y0000750D01*
X0020250D02*
X0019750Y0001250D01*
X0020250Y0000250D02*
X0019750Y-0000250D01*
X0020250D02*
X0019750Y0000250D01*
X0019250D02*
X0018750Y-0000250D01*
X0019250D02*
X0018750Y0000250D01*
X0018250D02*
X0017750Y-0000250D01*
X0018250D02*
X0017750Y0000250D01*
X0014250D02*
X0013750Y-0000250D01*
X0014250D02*
X0013750Y0000250D01*
X0013250D02*
X0012750Y-0000250D01*
X0013250D02*
X0012750Y0000250D01*
X0020250Y-0000750D02*
X0019750Y-0001250D01*
X0020250D02*
X0019750Y-0000750D01*
X0019250D02*
X0018750Y-0001250D01*
X0019250D02*
X0018750Y-0000750D01*
X0018250D02*
X0017750Y-0001250D01*
X0018250D02*
X0017750Y-0000750D01*
X0017250D02*
X0016750Y-0001250D01*
X0017250D02*
X0016750Y-0000750D01*
X0016250D02*
X0015750Y-0001250D01*
X0016250D02*
X0015750Y-0000750D01*
X0015250D02*
X0014750Y-0001250D01*
X0015250D02*
X0014750Y-0000750D01*
X0014250D02*
X0013750Y-0001250D01*
X0014250D02*
X0013750Y-0000750D01*
X0013250D02*
X0012750Y-0001250D01*
X0013250D02*
X0012750Y-0000750D01*
X0041500Y0035000D02*
X0041000Y0034500D01*
X0041500D02*
X0041000Y0035000D01*
X0042250D02*
X0041750Y0034500D01*
X0042250D02*
X0041750Y0035000D01*
X0042950D02*
X0042450Y0034500D01*
X0042950D02*
X0042450Y0035000D01*
X0043700D02*
X0043200Y0034500D01*
X0043700D02*
X0043200Y0035000D01*
X0043700Y0035600D02*
X0043200Y0035100D01*
X0043700D02*
X0043200Y0035600D01*
X0042950D02*
X0042450Y0035100D01*
X0042950D02*
X0042450Y0035600D01*
X0042250D02*
X0041750Y0035100D01*
X0042250D02*
X0041750Y0035600D01*
X0041500D02*
X0041000Y0035100D01*
X0041500D02*
X0041000Y0035600D01*
X0041500Y0036300D02*
X0041000Y0035800D01*
X0041500D02*
X0041000Y0036300D01*
X0042250D02*
X0041750Y0035800D01*
X0042250D02*
X0041750Y0036300D01*
X0042950D02*
X0042450Y0035800D01*
X0042950D02*
X0042450Y0036300D01*
X0043700D02*
X0043200Y0035800D01*
X0043700D02*
X0043200Y0036300D01*
X0043700Y0037100D02*
X0043200Y0036600D01*
X0043700D02*
X0043200Y0037100D01*
X0042950D02*
X0042450Y0036600D01*
X0042950D02*
X0042450Y0037100D01*
X0042250D02*
X0041750Y0036600D01*
X0042250D02*
X0041750Y0037100D01*
X0041500D02*
X0041000Y0036600D01*
X0041500D02*
X0041000Y0037100D01*
X0043700Y0037800D02*
X0043200Y0037300D01*
X0043700D02*
X0043200Y0037800D01*
X0042950D02*
X0042450Y0037300D01*
X0042950D02*
X0042450Y0037800D01*
X0042250D02*
X0041750Y0037300D01*
X0042250D02*
X0041750Y0037800D01*
X0041500D02*
X0041000Y0037300D01*
X0041500D02*
X0041000Y0037800D01*
X0053550Y0052000D02*
X0053050Y0051500D01*
X0053550D02*
X0053050Y0052000D01*
X0052950D02*
X0052450Y0051500D01*
X0052950D02*
X0052450Y0052000D01*
X0053550Y0052650D02*
X0053050Y0052150D01*
X0053550D02*
X0053050Y0052650D01*
X0052950D02*
X0052450Y0052150D01*
X0052950D02*
X0052450Y0052650D01*
X0052950Y0053300D02*
X0052450Y0052800D01*
X0052950D02*
X0052450Y0053300D01*
X0053550D02*
X0053050Y0052800D01*
X0053550D02*
X0053050Y0053300D01*
X0053550Y0054700D02*
X0053050Y0054200D01*
X0053550D02*
X0053050Y0054700D01*
X0052900D02*
X0052400Y0054200D01*
X0052900D02*
X0052400Y0054700D01*
X0053550Y0054000D02*
X0053050Y0053500D01*
X0053550D02*
X0053050Y0054000D01*
X0052900D02*
X0052400Y0053500D01*
X0052900D02*
X0052400Y0054000D01*
X0048000Y0076950D02*
X0047500Y0076450D01*
X0048000D02*
X0047500Y0076950D01*
X0048000Y0077600D02*
X0047500Y0077100D01*
X0048000D02*
X0047500Y0077600D01*
X0048600Y0076300D02*
X0048100Y0075800D01*
X0048600D02*
X0048100Y0076300D01*
X0048000D02*
X0047500Y0075800D01*
X0048000D02*
X0047500Y0076300D01*
X0047400D02*
X0046900Y0075800D01*
X0047400D02*
X0046900Y0076300D01*
X0046850D02*
X0046350Y0075800D01*
X0046850D02*
X0046350Y0076300D01*
X0047400Y0076950D02*
X0046900Y0076450D01*
X0047400D02*
X0046900Y0076950D01*
X0046850D02*
X0046350Y0076450D01*
X0046850D02*
X0046350Y0076950D01*
X0047950Y0078850D02*
X0047450Y0078350D01*
X0047950D02*
X0047450Y0078850D01*
X0047400D02*
X0046900Y0078350D01*
X0047400D02*
X0046900Y0078850D01*
X0046850D02*
X0046350Y0078350D01*
X0046850D02*
X0046350Y0078850D01*
X0047400Y0077600D02*
X0046900Y0077100D01*
X0047400D02*
X0046900Y0077600D01*
X0046850D02*
X0046350Y0077100D01*
X0046850D02*
X0046350Y0077600D01*
X0048000Y0078250D02*
X0047500Y0077750D01*
X0048000D02*
X0047500Y0078250D01*
X0047400D02*
X0046900Y0077750D01*
X0047400D02*
X0046900Y0078250D01*
X0046850D02*
X0046350Y0077750D01*
X0046850D02*
X0046350Y0078250D01*
X0041000Y0046000D02*
X0040500Y0045500D01*
X0041000D02*
X0040500Y0046000D01*
X0048000D02*
X0047500Y0045500D01*
X0048000D02*
X0047500Y0046000D01*
X0023250Y0037750D02*
X0022750Y0037250D01*
X0023250D02*
X0022750Y0037750D01*
X0023250Y0033500D02*
X0022750Y0033000D01*
X0023250D02*
X0022750Y0033500D01*
X0010000Y0027435D02*
Y0026935D01*
X0010500Y0027435D02*
X0010000D01*
X0010500Y0026935D02*
Y0027435D01*
X0010000Y0026935D02*
X0010500D01*
Y0027185D02*
X0010000D01*
X0010250Y0027435D02*
Y0026935D01*
X0010000Y0028092D02*
Y0027592D01*
X0010500Y0028092D02*
X0010000D01*
X0010500Y0027592D02*
Y0028092D01*
X0010000Y0027592D02*
X0010500D01*
Y0027842D02*
X0010000D01*
X0010250Y0028092D02*
Y0027592D01*
X0010000Y0028750D02*
Y0028250D01*
X0010500Y0028750D02*
X0010000D01*
X0010500Y0028250D02*
Y0028750D01*
X0010000Y0028250D02*
X0010500D01*
Y0028500D02*
X0010000D01*
X0010250Y0028750D02*
Y0028250D01*
X0010000Y0029407D02*
Y0028907D01*
X0010500Y0029407D02*
X0010000D01*
X0010500Y0028907D02*
Y0029407D01*
X0010000Y0028907D02*
X0010500D01*
Y0029157D02*
X0010000D01*
X0010250Y0029407D02*
Y0028907D01*
X0010000Y0030065D02*
Y0029565D01*
X0010500Y0030065D02*
X0010000D01*
X0010500Y0029565D02*
Y0030065D01*
X0010000Y0029565D02*
X0010500D01*
Y0029815D02*
X0010000D01*
X0010250Y0030065D02*
Y0029565D01*
X0045500Y0081000D02*
Y0080500D01*
X0046000Y0081000D02*
X0045500D01*
X0046000Y0080500D02*
Y0081000D01*
X0045500Y0080500D02*
X0046000D01*
Y0080750D02*
X0045500D01*
X0045750Y0081000D02*
Y0080500D01*
X0045500Y0082000D02*
Y0081500D01*
X0046000Y0082000D02*
X0045500D01*
X0046000Y0081500D02*
Y0082000D01*
X0045500Y0081500D02*
X0046000D01*
Y0081750D02*
X0045500D01*
X0045750Y0082000D02*
Y0081500D01*
X0045500Y0083000D02*
Y0082500D01*
X0046000Y0083000D02*
X0045500D01*
X0046000Y0082500D02*
Y0083000D01*
X0045500Y0082500D02*
X0046000D01*
Y0082750D02*
X0045500D01*
X0045750Y0083000D02*
Y0082500D01*
X0024730Y0075958D02*
Y0075758D01*
X0024980Y0075708D02*
X0024730Y0075958D01*
X0025230D02*
X0024980Y0075708D01*
X0025230Y0075758D02*
Y0075958D01*
X0024980Y0076008D02*
X0025230Y0075758D01*
X0024730D02*
X0024980Y0076008D01*
X0039888Y0075958D02*
Y0075758D01*
X0040138Y0075708D02*
X0039888Y0075958D01*
X0040388D02*
X0040138Y0075708D01*
X0040388Y0075758D02*
Y0075958D01*
X0040138Y0076008D02*
X0040388Y0075758D01*
X0039888D02*
X0040138Y0076008D01*
X0039888Y0079108D02*
Y0078908D01*
X0040138Y0078858D02*
X0039888Y0079108D01*
X0040388D02*
X0040138Y0078858D01*
X0040388Y0078908D02*
Y0079108D01*
X0040138Y0079158D02*
X0040388Y0078908D01*
X0039888D02*
X0040138Y0079158D01*
X0024730Y0080190D02*
Y0079990D01*
X0024980Y0079940D02*
X0024730Y0080190D01*
X0025230D02*
X0024980Y0079940D01*
X0025230Y0079990D02*
Y0080190D01*
X0024980Y0080240D02*
X0025230Y0079990D01*
X0024730D02*
X0024980Y0080240D01*
X0023000Y0073000D02*
X0022750Y0072750D01*
X0023250D02*
X0023000Y0073000D01*
Y0072500D02*
X0023250Y0072750D01*
X0022750D02*
X0023000Y0072500D01*
X0021000Y0066750D02*
X0020750Y0066500D01*
X0021250D02*
X0021000Y0066750D01*
Y0066250D02*
X0021250Y0066500D01*
X0020750D02*
X0021000Y0066250D01*
X0018250Y0070750D02*
X0018000Y0070500D01*
X0018500D02*
X0018250Y0070750D01*
Y0070250D02*
X0018500Y0070500D01*
X0018000D02*
X0018250Y0070250D01*
X0015500Y0066750D02*
X0015250Y0066500D01*
X0015750D02*
X0015500Y0066750D01*
Y0066250D02*
X0015750Y0066500D01*
X0015250D02*
X0015500Y0066250D01*
X0040750Y0001500D02*
X0040500Y0001250D01*
X0041000D02*
X0040750Y0001500D01*
Y0001000D02*
X0041000Y0001250D01*
X0040500D02*
X0040750Y0001000D01*
X0027500Y0066250D02*
X0027250Y0066000D01*
X0027750D02*
X0027500Y0066250D01*
Y0065750D02*
X0027750Y0066000D01*
X0027250D02*
X0027500Y0065750D01*
X0047500Y0080250D02*
X0047250Y0080000D01*
X0047750D02*
X0047500Y0080250D01*
Y0079750D02*
X0047750Y0080000D01*
X0047250D02*
X0047500Y0079750D01*
X0052250Y0084000D02*
X0052000Y0083750D01*
X0052500D02*
X0052250Y0084000D01*
Y0083500D02*
X0052500Y0083750D01*
X0052000D02*
X0052250Y0083500D01*
X0051750Y0074500D02*
Y0074000D01*
X0052250Y0074500D02*
X0051750D01*
X0052250Y0074000D02*
Y0074500D01*
X0051750Y0074000D02*
X0052250D01*
Y0074250D02*
X0051750D01*
X0052000Y0074500D02*
Y0074000D01*
X0052750Y0074500D02*
Y0074000D01*
X0053250Y0074500D02*
X0052750D01*
X0053250Y0074000D02*
Y0074500D01*
X0052750Y0074000D02*
X0053250D01*
Y0074250D02*
X0052750D01*
X0053000Y0074500D02*
Y0074000D01*
X0055750Y0074500D02*
Y0074000D01*
X0056250Y0074500D02*
X0055750D01*
X0056250Y0074000D02*
Y0074500D01*
X0055750Y0074000D02*
X0056250D01*
Y0074250D02*
X0055750D01*
X0056000Y0074500D02*
Y0074000D01*
X0058750Y0074500D02*
Y0074000D01*
X0059250Y0074500D02*
X0058750D01*
X0059250Y0074000D02*
Y0074500D01*
X0058750Y0074000D02*
X0059250D01*
Y0074250D02*
X0058750D01*
X0059000Y0074500D02*
Y0074000D01*
X0051000Y0031750D02*
Y0031250D01*
X0051500Y0031750D02*
X0051000D01*
X0051500Y0031250D02*
Y0031750D01*
X0051000Y0031250D02*
X0051500D01*
Y0031500D02*
X0051000D01*
X0051250Y0031750D02*
Y0031250D01*
X0041000Y0031750D02*
Y0031250D01*
X0041500Y0031750D02*
X0041000D01*
X0041500Y0031250D02*
Y0031750D01*
X0041000Y0031250D02*
X0041500D01*
Y0031500D02*
X0041000D01*
X0041250Y0031750D02*
Y0031250D01*
X0038000Y0019500D02*
Y0019000D01*
X0038500Y0019500D02*
X0038000D01*
X0038500Y0019000D02*
Y0019500D01*
X0038000Y0019000D02*
X0038500D01*
Y0019250D02*
X0038000D01*
X0038250Y0019500D02*
Y0019000D01*
X0038000Y0009500D02*
Y0009000D01*
X0038500Y0009500D02*
X0038000D01*
X0038500Y0009000D02*
Y0009500D01*
X0038000Y0009000D02*
X0038500D01*
Y0009250D02*
X0038000D01*
X0038250Y0009500D02*
Y0009000D01*
X0009750Y0064001D02*
Y0063801D01*
X0010000Y0063751D02*
X0009750Y0064001D01*
X0010250D02*
X0010000Y0063751D01*
X0010250Y0063801D02*
Y0064001D01*
X0010000Y0064051D02*
X0010250Y0063801D01*
X0009750D02*
X0010000Y0064051D01*
X0009750Y0066001D02*
Y0065801D01*
X0010000Y0065751D02*
X0009750Y0066001D01*
X0010250D02*
X0010000Y0065751D01*
X0010250Y0065801D02*
Y0066001D01*
X0010000Y0066051D02*
X0010250Y0065801D01*
X0009750D02*
X0010000Y0066051D01*
X0009750Y0067250D02*
Y0066750D01*
X0010250Y0067250D02*
X0009750D01*
X0010250Y0066750D02*
Y0067250D01*
X0009750Y0066750D02*
X0010250D01*
Y0067000D02*
X0009750D01*
X0010000Y0067250D02*
Y0066750D01*
X0009750Y0068250D02*
Y0067750D01*
X0010250Y0068250D02*
X0009750D01*
X0010250Y0067750D02*
Y0068250D01*
X0009750Y0067750D02*
X0010250D01*
Y0068000D02*
X0009750D01*
X0010000Y0068250D02*
Y0067750D01*
Y0049100D02*
Y0048900D01*
X0010250Y0048850D02*
X0010000Y0049100D01*
X0010500D02*
X0010250Y0048850D01*
X0010500Y0048900D02*
Y0049100D01*
X0010250Y0049150D02*
X0010500Y0048900D01*
X0010000D02*
X0010250Y0049150D01*
X0010000Y0051100D02*
Y0050900D01*
X0010250Y0050850D02*
X0010000Y0051100D01*
X0010500D02*
X0010250Y0050850D01*
X0010500Y0050900D02*
Y0051100D01*
X0010250Y0051150D02*
X0010500Y0050900D01*
X0010000D02*
X0010250Y0051150D01*
X0010000Y0052348D02*
Y0051848D01*
X0010500Y0052348D02*
X0010000D01*
X0010500Y0051848D02*
Y0052348D01*
X0010000Y0051848D02*
X0010500D01*
Y0052098D02*
X0010000D01*
X0010250Y0052348D02*
Y0051848D01*
X0010000Y0053348D02*
Y0052848D01*
X0010500Y0053348D02*
X0010000D01*
X0010500Y0052848D02*
Y0053348D01*
X0010000Y0052848D02*
X0010500D01*
Y0053098D02*
X0010000D01*
X0010250Y0053348D02*
Y0052848D01*
X0003250Y0067948D02*
Y0067748D01*
X0003500Y0067698D02*
X0003250Y0067948D01*
X0003750D02*
X0003500Y0067698D01*
X0003750Y0067748D02*
Y0067948D01*
X0003500Y0067998D02*
X0003750Y0067748D01*
X0003250D02*
X0003500Y0067998D01*
X0003250Y0065948D02*
Y0065748D01*
X0003500Y0065698D02*
X0003250Y0065948D01*
X0003750D02*
X0003500Y0065698D01*
X0003750Y0065748D02*
Y0065948D01*
X0003500Y0065998D02*
X0003750Y0065748D01*
X0003250D02*
X0003500Y0065998D01*
X0003250Y0065000D02*
Y0064500D01*
X0003750Y0065000D02*
X0003250D01*
X0003750Y0064500D02*
Y0065000D01*
X0003250Y0064500D02*
X0003750D01*
Y0064750D02*
X0003250D01*
X0003500Y0065000D02*
Y0064500D01*
X0003250Y0064000D02*
Y0063500D01*
X0003750Y0064000D02*
X0003250D01*
X0003750Y0063500D02*
Y0064000D01*
X0003250Y0063500D02*
X0003750D01*
Y0063750D02*
X0003250D01*
X0003500Y0064000D02*
Y0063500D01*
X0003000Y0053100D02*
Y0052900D01*
X0003250Y0052850D02*
X0003000Y0053100D01*
X0003500D02*
X0003250Y0052850D01*
X0003500Y0052900D02*
Y0053100D01*
X0003250Y0053150D02*
X0003500Y0052900D01*
X0003000D02*
X0003250Y0053150D01*
X0003000Y0051100D02*
Y0050900D01*
X0003250Y0050850D02*
X0003000Y0051100D01*
X0003500D02*
X0003250Y0050850D01*
X0003500Y0050900D02*
Y0051100D01*
X0003250Y0051150D02*
X0003500Y0050900D01*
X0003000D02*
X0003250Y0051150D01*
X0003000Y0050151D02*
Y0049651D01*
X0003500Y0050151D02*
X0003000D01*
X0003500Y0049651D02*
Y0050151D01*
X0003000Y0049651D02*
X0003500D01*
Y0049901D02*
X0003000D01*
X0003250Y0050151D02*
Y0049651D01*
X0003000Y0049151D02*
Y0048651D01*
X0003500Y0049151D02*
X0003000D01*
X0003500Y0048651D02*
Y0049151D01*
X0003000Y0048651D02*
X0003500D01*
Y0048901D02*
X0003000D01*
X0003250Y0049151D02*
Y0048651D01*
X0010000Y0034600D02*
Y0034400D01*
X0010250Y0034350D02*
X0010000Y0034600D01*
X0010500D02*
X0010250Y0034350D01*
X0010500Y0034400D02*
Y0034600D01*
X0010250Y0034650D02*
X0010500Y0034400D01*
X0010000D02*
X0010250Y0034650D01*
X0010000Y0036600D02*
Y0036400D01*
X0010250Y0036350D02*
X0010000Y0036600D01*
X0010500D02*
X0010250Y0036350D01*
X0010500Y0036400D02*
Y0036600D01*
X0010250Y0036650D02*
X0010500Y0036400D01*
X0010000D02*
X0010250Y0036650D01*
X0010000Y0037848D02*
Y0037348D01*
X0010500Y0037848D02*
X0010000D01*
X0010500Y0037348D02*
Y0037848D01*
X0010000Y0037348D02*
X0010500D01*
Y0037598D02*
X0010000D01*
X0010250Y0037848D02*
Y0037348D01*
X0010000Y0038848D02*
Y0038348D01*
X0010500Y0038848D02*
X0010000D01*
X0010500Y0038348D02*
Y0038848D01*
X0010000Y0038348D02*
X0010500D01*
Y0038598D02*
X0010000D01*
X0010250Y0038848D02*
Y0038348D01*
X0010000Y0018850D02*
Y0018650D01*
X0010250Y0018600D02*
X0010000Y0018850D01*
X0010500D02*
X0010250Y0018600D01*
X0010500Y0018650D02*
Y0018850D01*
X0010250Y0018900D02*
X0010500Y0018650D01*
X0010000D02*
X0010250Y0018900D01*
X0010000Y0020850D02*
Y0020650D01*
X0010250Y0020600D02*
X0010000Y0020850D01*
X0010500D02*
X0010250Y0020600D01*
X0010500Y0020650D02*
Y0020850D01*
X0010250Y0020900D02*
X0010500Y0020650D01*
X0010000D02*
X0010250Y0020900D01*
X0010000Y0022098D02*
Y0021598D01*
X0010500Y0022098D02*
X0010000D01*
X0010500Y0021598D02*
Y0022098D01*
X0010000Y0021598D02*
X0010500D01*
Y0021848D02*
X0010000D01*
X0010250Y0022098D02*
Y0021598D01*
X0010000Y0023098D02*
Y0022598D01*
X0010500Y0023098D02*
X0010000D01*
X0010500Y0022598D02*
Y0023098D01*
X0010000Y0022598D02*
X0010500D01*
Y0022848D02*
X0010000D01*
X0010250Y0023098D02*
Y0022598D01*
X0003250Y0038600D02*
Y0038400D01*
X0003500Y0038350D02*
X0003250Y0038600D01*
X0003750D02*
X0003500Y0038350D01*
X0003750Y0038400D02*
Y0038600D01*
X0003500Y0038650D02*
X0003750Y0038400D01*
X0003250D02*
X0003500Y0038650D01*
X0003250Y0036600D02*
Y0036400D01*
X0003500Y0036350D02*
X0003250Y0036600D01*
X0003750D02*
X0003500Y0036350D01*
X0003750Y0036400D02*
Y0036600D01*
X0003500Y0036650D02*
X0003750Y0036400D01*
X0003250D02*
X0003500Y0036650D01*
X0003250Y0035651D02*
Y0035151D01*
X0003750Y0035651D02*
X0003250D01*
X0003750Y0035151D02*
Y0035651D01*
X0003250Y0035151D02*
X0003750D01*
Y0035401D02*
X0003250D01*
X0003500Y0035651D02*
Y0035151D01*
X0003250Y0034651D02*
Y0034151D01*
X0003750Y0034651D02*
X0003250D01*
X0003750Y0034151D02*
Y0034651D01*
X0003250Y0034151D02*
X0003750D01*
Y0034401D02*
X0003250D01*
X0003500Y0034651D02*
Y0034151D01*
X0003250Y0022850D02*
Y0022650D01*
X0003500Y0022600D02*
X0003250Y0022850D01*
X0003750D02*
X0003500Y0022600D01*
X0003750Y0022650D02*
Y0022850D01*
X0003500Y0022900D02*
X0003750Y0022650D01*
X0003250D02*
X0003500Y0022900D01*
X0003250Y0020850D02*
Y0020650D01*
X0003500Y0020600D02*
X0003250Y0020850D01*
X0003750D02*
X0003500Y0020600D01*
X0003750Y0020650D02*
Y0020850D01*
X0003500Y0020900D02*
X0003750Y0020650D01*
X0003250D02*
X0003500Y0020900D01*
X0003250Y0019901D02*
Y0019401D01*
X0003750Y0019901D02*
X0003250D01*
X0003750Y0019401D02*
Y0019901D01*
X0003250Y0019401D02*
X0003750D01*
Y0019651D02*
X0003250D01*
X0003500Y0019901D02*
Y0019401D01*
X0003250Y0018901D02*
Y0018401D01*
X0003750Y0018901D02*
X0003250D01*
X0003750Y0018401D02*
Y0018901D01*
X0003250Y0018401D02*
X0003750D01*
Y0018651D02*
X0003250D01*
X0003500Y0018901D02*
Y0018401D01*
X0058750Y0053213D02*
X0058500Y0052963D01*
X0059000D02*
X0058750Y0053213D01*
Y0052713D02*
X0059000Y0052963D01*
X0058500D02*
X0058750Y0052713D01*
Y0054000D02*
X0058500Y0053750D01*
X0059000D02*
X0058750Y0054000D01*
Y0053500D02*
X0059000Y0053750D01*
X0058500D02*
X0058750Y0053500D01*
X0058742Y0061726D02*
Y0061226D01*
X0059242Y0061726D02*
X0058742D01*
X0059242Y0061226D02*
Y0061726D01*
X0058742Y0061226D02*
X0059242D01*
Y0061726D02*
X0058742Y0061226D01*
X0059242D02*
X0058742Y0061726D01*
Y0060742D02*
Y0060242D01*
X0059242Y0060742D02*
X0058742D01*
X0059242Y0060242D02*
Y0060742D01*
X0058742Y0060242D02*
X0059242D01*
Y0060742D02*
X0058742Y0060242D01*
X0059242D02*
X0058742Y0060742D01*
Y0059758D02*
Y0059258D01*
X0059242Y0059758D02*
X0058742D01*
X0059242Y0059258D02*
Y0059758D01*
X0058742Y0059258D02*
X0059242D01*
Y0059758D02*
X0058742Y0059258D01*
X0059242D02*
X0058742Y0059758D01*
Y0058774D02*
Y0058274D01*
X0059242Y0058774D02*
X0058742D01*
X0059242Y0058274D02*
Y0058774D01*
X0058742Y0058274D02*
X0059242D01*
Y0058774D02*
X0058742Y0058274D01*
X0059242D02*
X0058742Y0058774D01*
X0057758D02*
Y0058274D01*
X0058258Y0058774D02*
X0057758D01*
X0058258Y0058274D02*
Y0058774D01*
X0057758Y0058274D02*
X0058258D01*
Y0058774D02*
X0057758Y0058274D01*
X0058258D02*
X0057758Y0058774D01*
X0057230Y0060100D02*
Y0059900D01*
X0057380Y0060250D02*
X0057230Y0060100D01*
X0057580Y0060250D02*
X0057380D01*
X0057730Y0060100D02*
X0057580Y0060250D01*
X0057730Y0059900D02*
Y0060100D01*
X0057580Y0059750D02*
X0057730Y0059900D01*
X0057380Y0059750D02*
X0057580D01*
X0057230Y0059900D02*
X0057380Y0059750D01*
X0057758Y0061726D02*
Y0061226D01*
X0058258Y0061726D02*
X0057758D01*
X0058258Y0061226D02*
Y0061726D01*
X0057758Y0061226D02*
X0058258D01*
Y0061726D02*
X0057758Y0061226D01*
X0058258D02*
X0057758Y0061726D01*
Y0060742D02*
Y0060242D01*
X0058258Y0060742D02*
X0057758D01*
X0058258Y0060242D02*
Y0060742D01*
X0057758Y0060242D02*
X0058258D01*
Y0060742D02*
X0057758Y0060242D01*
X0058258D02*
X0057758Y0060742D01*
Y0059758D02*
Y0059258D01*
X0058258Y0059758D02*
X0057758D01*
X0058258Y0059258D02*
Y0059758D01*
X0057758Y0059258D02*
X0058258D01*
Y0059758D02*
X0057758Y0059258D01*
X0058258D02*
X0057758Y0059758D01*
X0058770Y0068226D02*
Y0067726D01*
X0059270Y0068226D02*
X0058770D01*
X0059270Y0067726D02*
Y0068226D01*
X0058770Y0067726D02*
X0059270D01*
Y0068226D02*
X0058770Y0067726D01*
X0059270D02*
X0058770Y0068226D01*
Y0067242D02*
Y0066742D01*
X0059270Y0067242D02*
X0058770D01*
X0059270Y0066742D02*
Y0067242D01*
X0058770Y0066742D02*
X0059270D01*
Y0067242D02*
X0058770Y0066742D01*
X0059270D02*
X0058770Y0067242D01*
Y0066258D02*
Y0065758D01*
X0059270Y0066258D02*
X0058770D01*
X0059270Y0065758D02*
Y0066258D01*
X0058770Y0065758D02*
X0059270D01*
Y0066258D02*
X0058770Y0065758D01*
X0059270D02*
X0058770Y0066258D01*
Y0065274D02*
Y0064774D01*
X0059270Y0065274D02*
X0058770D01*
X0059270Y0064774D02*
Y0065274D01*
X0058770Y0064774D02*
X0059270D01*
Y0065274D02*
X0058770Y0064774D01*
X0059270D02*
X0058770Y0065274D01*
X0057785D02*
Y0064774D01*
X0058285Y0065274D02*
X0057785D01*
X0058285Y0064774D02*
Y0065274D01*
X0057785Y0064774D02*
X0058285D01*
Y0065274D02*
X0057785Y0064774D01*
X0058285D02*
X0057785Y0065274D01*
X0057258Y0066600D02*
Y0066400D01*
X0057408Y0066750D02*
X0057258Y0066600D01*
X0057608Y0066750D02*
X0057408D01*
X0057758Y0066600D02*
X0057608Y0066750D01*
X0057758Y0066400D02*
Y0066600D01*
X0057608Y0066250D02*
X0057758Y0066400D01*
X0057408Y0066250D02*
X0057608D01*
X0057258Y0066400D02*
X0057408Y0066250D01*
X0057785Y0068226D02*
Y0067726D01*
X0058285Y0068226D02*
X0057785D01*
X0058285Y0067726D02*
Y0068226D01*
X0057785Y0067726D02*
X0058285D01*
Y0068226D02*
X0057785Y0067726D01*
X0058285D02*
X0057785Y0068226D01*
Y0067242D02*
Y0066742D01*
X0058285Y0067242D02*
X0057785D01*
X0058285Y0066742D02*
Y0067242D01*
X0057785Y0066742D02*
X0058285D01*
Y0067242D02*
X0057785Y0066742D01*
X0058285D02*
X0057785Y0067242D01*
Y0066258D02*
Y0065758D01*
X0058285Y0066258D02*
X0057785D01*
X0058285Y0065758D02*
Y0066258D01*
X0057785Y0065758D02*
X0058285D01*
Y0066258D02*
X0057785Y0065758D01*
X0058285D02*
X0057785Y0066258D01*
X0031000Y0047250D02*
Y0046750D01*
X0031500Y0047250D02*
X0031000D01*
X0031500Y0046750D02*
Y0047250D01*
X0031000Y0046750D02*
X0031500D01*
Y0047000D02*
X0031000D01*
X0031250Y0047250D02*
Y0046750D01*
X0032000Y0047250D02*
Y0046750D01*
X0032500Y0047250D02*
X0032000D01*
X0032500Y0046750D02*
Y0047250D01*
X0032000Y0046750D02*
X0032500D01*
Y0047000D02*
X0032000D01*
X0032250Y0047250D02*
Y0046750D01*
X0033000Y0047250D02*
Y0046750D01*
X0033500Y0047250D02*
X0033000D01*
X0033500Y0046750D02*
Y0047250D01*
X0033000Y0046750D02*
X0033500D01*
Y0047000D02*
X0033000D01*
X0033250Y0047250D02*
Y0046750D01*
X0033000Y0046250D02*
Y0045750D01*
X0033500Y0046250D02*
X0033000D01*
X0033500Y0045750D02*
Y0046250D01*
X0033000Y0045750D02*
X0033500D01*
Y0046000D02*
X0033000D01*
X0033250Y0046250D02*
Y0045750D01*
X0032000Y0046250D02*
Y0045750D01*
X0032500Y0046250D02*
X0032000D01*
X0032500Y0045750D02*
Y0046250D01*
X0032000Y0045750D02*
X0032500D01*
Y0046000D02*
X0032000D01*
X0032250Y0046250D02*
Y0045750D01*
X0031000Y0046250D02*
Y0045750D01*
X0031500Y0046250D02*
X0031000D01*
X0031500Y0045750D02*
Y0046250D01*
X0031000Y0045750D02*
X0031500D01*
Y0046000D02*
X0031000D01*
X0031250Y0046250D02*
Y0045750D01*
X0025250Y0001380D02*
Y0000380D01*
X0026250Y0001380D02*
X0025250D01*
X0026250Y0000380D02*
Y0001380D01*
X0025250Y0000380D02*
X0026250D01*
Y0000880D02*
X0025250D01*
X0025750Y0001380D02*
Y0000380D01*
X0015250Y0001380D02*
Y0000380D01*
X0016250Y0001380D02*
X0015250D01*
X0016250Y0000380D02*
Y0001380D01*
X0015250Y0000380D02*
X0016250D01*
Y0000880D02*
X0015250D01*
X0015750Y0001380D02*
Y0000380D01*
X0020250Y0006500D02*
Y0005500D01*
X0021250Y0006500D02*
X0020250D01*
X0021250Y0005500D02*
Y0006500D01*
X0020250Y0005500D02*
X0021250D01*
Y0006000D02*
X0020250D01*
X0020750Y0006500D02*
Y0005500D01*
X0030250Y0006500D02*
Y0005500D01*
X0031250Y0006500D02*
X0030250D01*
X0031250Y0005500D02*
Y0006500D01*
X0030250Y0005500D02*
X0031250D01*
Y0006000D02*
X0030250D01*
X0030750Y0006500D02*
Y0005500D01*
X0054750Y0080253D02*
Y0080053D01*
X0054900Y0080403D02*
X0054750Y0080253D01*
X0055100Y0080403D02*
X0054900D01*
X0055250Y0080253D02*
X0055100Y0080403D01*
X0055250Y0080053D02*
Y0080253D01*
X0055100Y0079903D02*
X0055250Y0080053D01*
X0054900Y0079903D02*
X0055100D01*
X0054750Y0080053D02*
X0054900Y0079903D01*
X0054950Y0080253D02*
Y0080303D01*
X0054900Y0080253D02*
X0054950D01*
X0054900Y0080303D02*
Y0080253D01*
X0054950Y0080303D02*
X0054900D01*
X0055050D02*
Y0080253D01*
X0055100Y0080303D02*
X0055050D01*
X0055100Y0080253D02*
Y0080303D01*
X0055050Y0080253D02*
X0055100D01*
X0054950Y0080003D02*
X0054850Y0080103D01*
X0055050Y0080003D02*
X0054950D01*
X0055150Y0080103D02*
X0055050Y0080003D01*
X0055250Y0081008D02*
X0054750D01*
X0055000Y0081258D02*
Y0080758D01*
X0055250Y0081992D02*
X0054750D01*
X0055000Y0082242D02*
Y0081742D01*
X0054750Y0082946D02*
Y0082746D01*
X0054900Y0083096D02*
X0054750Y0082946D01*
X0055100Y0083096D02*
X0054900D01*
X0055250Y0082946D02*
X0055100Y0083096D01*
X0055250Y0082746D02*
Y0082946D01*
X0055100Y0082596D02*
X0055250Y0082746D01*
X0054900Y0082596D02*
X0055100D01*
X0054750Y0082746D02*
X0054900Y0082596D01*
X0054950Y0082946D02*
Y0082996D01*
X0054900Y0082946D02*
X0054950D01*
X0054900Y0082996D02*
Y0082946D01*
X0054950Y0082996D02*
X0054900D01*
X0055050D02*
Y0082946D01*
X0055100Y0082996D02*
X0055050D01*
X0055100Y0082946D02*
Y0082996D01*
X0055050Y0082946D02*
X0055100D01*
X0054950Y0082696D02*
X0054850Y0082796D01*
X0055050Y0082696D02*
X0054950D01*
X0055150Y0082796D02*
X0055050Y0082696D01*
X0055277Y0081600D02*
Y0081400D01*
X0055427Y0081750D02*
X0055277Y0081600D01*
X0055627Y0081750D02*
X0055427D01*
X0055777Y0081600D02*
X0055627Y0081750D01*
X0055777Y0081400D02*
Y0081600D01*
X0055627Y0081250D02*
X0055777Y0081400D01*
X0055427Y0081250D02*
X0055627D01*
X0055277Y0081400D02*
X0055427Y0081250D01*
X0056167Y0076350D02*
Y0076150D01*
X0056417Y0076100D02*
X0056167Y0076350D01*
X0056667D02*
X0056417Y0076100D01*
X0056667Y0076150D02*
Y0076350D01*
X0056417Y0076400D02*
X0056667Y0076150D01*
X0056167D02*
X0056417Y0076400D01*
X0058333Y0076350D02*
Y0076150D01*
X0058583Y0076100D02*
X0058333Y0076350D01*
X0058833D02*
X0058583Y0076100D01*
X0058833Y0076150D02*
Y0076350D01*
X0058583Y0076400D02*
X0058833Y0076150D01*
X0058333D02*
X0058583Y0076400D01*
X0021250Y0081000D02*
X0020250D01*
X0020750Y0081500D02*
Y0080500D01*
X0021250Y0083000D02*
X0020250D01*
X0020750Y0083500D02*
Y0082500D01*
X0010500Y0081870D02*
Y0080870D01*
X0011500Y0081870D02*
X0010500D01*
X0011500Y0080870D02*
Y0081870D01*
X0010500Y0080870D02*
X0011500D01*
Y0081370D02*
X0010500D01*
X0011000Y0081870D02*
Y0080870D01*
X0005500Y0076750D02*
Y0075750D01*
X0006500Y0076750D02*
X0005500D01*
X0006500Y0075750D02*
Y0076750D01*
X0005500Y0075750D02*
X0006500D01*
Y0076250D02*
X0005500D01*
X0006000Y0076750D02*
Y0075750D01*
X0010000Y0077100D02*
Y0076900D01*
X0010250Y0076850D02*
X0010000Y0077100D01*
X0010500D02*
X0010250Y0076850D01*
X0010500Y0076900D02*
Y0077100D01*
X0010250Y0077150D02*
X0010500Y0076900D01*
X0010000D02*
X0010250Y0077150D01*
X0015250Y0064100D02*
Y0063900D01*
X0015500Y0063850D02*
X0015250Y0064100D01*
X0015750D02*
X0015500Y0063850D01*
X0015750Y0063900D02*
Y0064100D01*
X0015500Y0064150D02*
X0015750Y0063900D01*
X0015250D02*
X0015500Y0064150D01*
X0004094Y0005904D02*
X0003094Y0004904D01*
X0004094D02*
X0003094Y0005904D01*
X0004094Y0010224D02*
X0003094Y0009224D01*
X0004094D02*
X0003094Y0010224D01*
X0010594D02*
X0009594Y0009224D01*
X0010594D02*
X0009594Y0010224D01*
X0010594Y0005904D02*
X0009594Y0004904D01*
X0010594D02*
X0009594Y0005904D01*
X0051250Y0035250D02*
Y0034750D01*
X0051750Y0035250D02*
X0051250D01*
X0051750Y0034750D02*
Y0035250D01*
X0051250Y0034750D02*
X0051750D01*
Y0035000D02*
X0051250D01*
X0051500Y0035250D02*
Y0034750D01*
X0051250Y0037250D02*
Y0036750D01*
X0051750Y0037250D02*
X0051250D01*
X0051750Y0036750D02*
Y0037250D01*
X0051250Y0036750D02*
X0051750D01*
Y0037000D02*
X0051250D01*
X0051500Y0037250D02*
Y0036750D01*
X0025500Y0013880D02*
Y0013380D01*
X0026000Y0013880D02*
X0025500D01*
X0026000Y0012880D02*
Y0013880D01*
X0026500Y0012880D02*
X0026000D01*
X0026500Y0013380D02*
Y0012880D01*
X0025500Y0013380D02*
X0026500D01*
X0025500Y0022620D02*
Y0022120D01*
X0026000Y0022620D02*
X0025500D01*
X0026000Y0021620D02*
Y0022620D01*
X0026500Y0021620D02*
X0026000D01*
X0026500Y0022120D02*
Y0021620D01*
X0025500Y0022120D02*
X0026500D01*
X0049750Y0013880D02*
Y0013380D01*
X0050250Y0013880D02*
X0049750D01*
X0050250Y0012880D02*
Y0013880D01*
X0050750Y0012880D02*
X0050250D01*
X0050750Y0013380D02*
Y0012880D01*
X0049750Y0013380D02*
X0050750D01*
X0049750Y0022620D02*
Y0022120D01*
X0050250Y0022620D02*
X0049750D01*
X0050250Y0021620D02*
Y0022620D01*
X0050750Y0021620D02*
X0050250D01*
X0050750Y0022120D02*
Y0021620D01*
X0049750Y0022120D02*
X0050750D01*
X0026837Y0032500D02*
Y0032000D01*
X0027337Y0032500D02*
X0026837D01*
X0027337Y0032000D02*
Y0032500D01*
X0026837Y0032000D02*
X0027337D01*
Y0032250D02*
X0026837D01*
X0027087Y0032500D02*
Y0032000D01*
X0037663Y0032500D02*
Y0032000D01*
X0038163Y0032500D02*
X0037663D01*
X0038163Y0032000D02*
Y0032500D01*
X0037663Y0032000D02*
X0038163D01*
Y0032250D02*
X0037663D01*
X0037913Y0032500D02*
Y0032000D01*
X-0004634Y0003925D02*
Y0002925D01*
X-0003634Y0003925D02*
X-0004634D01*
X-0003634Y0002925D02*
Y0003925D01*
X-0004634Y0002925D02*
X-0003634D01*
Y0003925D02*
X-0004634Y0002925D01*
X-0003634D02*
X-0004634Y0003925D01*
Y0012193D02*
Y0011193D01*
X-0003634Y0012193D02*
X-0004634D01*
X-0003634Y0011193D02*
Y0012193D01*
X-0004634Y0011193D02*
X-0003634D01*
Y0012193D02*
X-0004634Y0011193D01*
X-0003634D02*
X-0004634Y0012193D01*
Y0014831D02*
Y0013831D01*
X-0003634Y0014831D02*
X-0004634D01*
X-0003634Y0013831D02*
Y0014831D01*
X-0004634Y0013831D02*
X-0003634D01*
Y0014831D02*
X-0004634Y0013831D01*
X-0003634D02*
X-0004634Y0014831D01*
Y0042783D02*
Y0041783D01*
X-0003634Y0042783D02*
X-0004634D01*
X-0003634Y0041783D02*
Y0042783D01*
X-0004634Y0041783D02*
X-0003634D01*
Y0042783D02*
X-0004634Y0041783D01*
X-0003634D02*
X-0004634Y0042783D01*
Y0045539D02*
Y0044539D01*
X-0003634Y0045539D02*
X-0004634D01*
X-0003634Y0044539D02*
Y0045539D01*
X-0004634Y0044539D02*
X-0003634D01*
Y0045539D02*
X-0004634Y0044539D01*
X-0003634D02*
X-0004634Y0045539D01*
Y0073492D02*
Y0072492D01*
X-0003634Y0073492D02*
X-0004634D01*
X-0003634Y0072492D02*
Y0073492D01*
X-0004634Y0072492D02*
X-0003634D01*
Y0073492D02*
X-0004634Y0072492D01*
X-0003634D02*
X-0004634Y0073492D01*
X0006844Y0012198D02*
X0006344Y0011698D01*
X0007344D02*
X0006844Y0012198D01*
Y0011198D02*
X0007344Y0011698D01*
X0006344D02*
X0006844Y0011198D01*
X0006944Y0011698D02*
X0006744D01*
X0006844Y0011798D02*
Y0011598D01*
Y0003930D02*
X0006344Y0003430D01*
X0007344D02*
X0006844Y0003930D01*
Y0002930D02*
X0007344Y0003430D01*
X0006344D02*
X0006844Y0002930D01*
X0006944Y0003430D02*
X0006744D01*
X0006844Y0003530D02*
Y0003330D01*
Y0042790D02*
X0006344Y0042290D01*
X0007344D02*
X0006844Y0042790D01*
Y0041790D02*
X0007344Y0042290D01*
X0006344D02*
X0006844Y0041790D01*
X0006944Y0042290D02*
X0006744D01*
X0006844Y0042390D02*
Y0042190D01*
Y0014837D02*
X0006344Y0014337D01*
X0007344D02*
X0006844Y0014837D01*
Y0013837D02*
X0007344Y0014337D01*
X0006344D02*
X0006844Y0013837D01*
X0006944Y0014337D02*
X0006744D01*
X0006844Y0014437D02*
Y0014237D01*
X0006750Y0073476D02*
X0006250Y0072976D01*
X0007250D02*
X0006750Y0073476D01*
Y0072476D02*
X0007250Y0072976D01*
X0006250D02*
X0006750Y0072476D01*
X0006850Y0072976D02*
X0006650D01*
X0006750Y0073076D02*
Y0072876D01*
Y0045524D02*
X0006250Y0045024D01*
X0007250D02*
X0006750Y0045524D01*
Y0044524D02*
X0007250Y0045024D01*
X0006250D02*
X0006750Y0044524D01*
X0006850Y0045024D02*
X0006650D01*
X0006750Y0045124D02*
Y0044924D01*
X0058555Y0000500D02*
Y-0000500D01*
X0059555Y0000500D02*
X0058555D01*
X0059555Y-0000500D02*
Y0000500D01*
X0058555Y-0000500D02*
X0059555D01*
Y0000500D02*
X0058555Y-0000500D01*
X0059555D02*
X0058555Y0000500D01*
X-0000500D02*
Y-0000500D01*
X0000500Y0000500D02*
X-0000500D01*
X0000500Y-0000500D02*
Y0000500D01*
X-0000500Y-0000500D02*
X0000500D01*
Y0000500D02*
X-0000500Y-0000500D01*
X0000500D02*
X-0000500Y0000500D01*
X0058555Y0083177D02*
Y0082177D01*
X0059555Y0083177D02*
X0058555D01*
X0059555Y0082177D02*
Y0083177D01*
X0058555Y0082177D02*
X0059555D01*
Y0083177D02*
X0058555Y0082177D01*
X0059555D02*
X0058555Y0083177D01*
X-0000500D02*
Y0082177D01*
X0000500Y0083177D02*
X-0000500D01*
X0000500Y0082177D02*
Y0083177D01*
X-0000500Y0082177D02*
X0000500D01*
Y0083177D02*
X-0000500Y0082177D01*
X0000500D02*
X-0000500Y0083177D01*
M02*
