%
T1C0.0079F200S100
X-001000Y005000
X-001000Y006000
X-001000Y007000
X-001000Y008000
X-001000Y009000
X-001000Y010000
X-001000Y011000
X-001000Y012000
X-001000Y013000
X-001000Y014000
X000000Y005000
X000000Y006000
X000000Y007000
X000000Y008000
X000000Y009000
X000000Y010000
X000000Y011000
X000000Y012000
X000000Y013000
X000000Y014000
X000000Y015000
X001000Y005000
X001000Y006000
X001000Y007000
X001000Y008000
X001000Y009000
X001000Y010000
X001000Y011000
X001000Y012000
X001000Y013000
X001000Y014000
X001000Y015000
X002000Y005000
X002000Y006000
X002050Y079750
X004000Y078950
X004650Y080400
X005250Y079000
X009000Y079000
X009500Y079500
X009000Y080000
X009000Y081000
X009000Y082000
X009500Y083500
X009000Y084000
X010000Y075000
X010500Y075500
X010000Y076000
X010000Y078500
X010000Y079000
X010500Y079500
X010000Y080000
X010000Y083000
X010500Y083500
X010000Y084000
X011000Y075000
X011500Y075500
X011000Y076000
X011000Y077500
X011000Y078500
X011000Y079000
X011000Y083000
X011500Y083500
X011000Y084000
X012000Y075000
X012000Y083000
X012000Y084000
X012480Y029780
X013000Y-001000
X013000Y000000
X014000Y-001000
X014000Y000000
X015000Y-001000
X016000Y-001000
X016160Y072400
X016700Y074500
X017000Y-001000
X017000Y002000
X017000Y003000
X017000Y004000
X017250Y077500
X017950Y075950
X017970Y079530
X018000Y-001000
X018000Y000000
X018000Y001000
X018000Y002000
X018000Y003000
X018000Y004000
X018000Y005000
X018200Y074500
X018500Y036000
X018520Y044720
X018750Y047750
X018750Y049250
X018750Y057250
X018750Y058850
X019000Y-001000
X019000Y000000
X019000Y001000
X019000Y002000
X019000Y003000
X019000Y004000
X019000Y005000
X019000Y006000
X019000Y045850
X019010Y035950
X019150Y073950
X019217Y046733
X019250Y052400
X019300Y072400
X019450Y055200
X019550Y072000
X019750Y040750
X019750Y064470
X019750Y068500
X019790Y050280
X020000Y-001000
X020000Y000000
X020000Y001000
X020000Y002000
X020000Y003000
X020000Y004000
X020000Y034000
X020000Y038800
X020000Y044800
X020000Y056800
X020000Y059200
X020000Y061900
X020000Y077050
X020067Y046733
X020100Y053450
X020250Y073950
X020323Y045473
X020323Y048023
X020350Y040100
X020500Y035600
X020500Y043400
X020550Y057550
X020550Y059500
X020570Y050280
X020600Y054850
X020650Y070450
X020900Y053150
X020950Y052400
X020950Y055200
X021000Y033950
X021000Y038450
X021000Y040750
X021500Y044800
X021500Y056800
X021500Y059200
X021000Y062300
X021600Y075950
X021650Y046750
X021750Y070250
X021750Y072500
X022000Y040050
X022000Y054600
X022000Y068150
X022023Y045473
X022050Y035600
X022150Y070450
X022250Y043400
X022350Y073550
X022450Y059500
X022500Y042500
X022550Y035950
X022500Y056750
X022550Y068500
X022850Y036250
X022900Y069650
X023000Y020000
X023000Y021000
X023000Y022000
X023000Y023000
X023000Y024000
X023000Y033250
X023000Y037500
X023000Y039350
X023027Y048023
X023000Y052250
X023150Y055250
X023500Y035450
X023500Y066500
X023800Y062050
X023880Y061470
X024000Y020000
X024000Y025000
X024130Y057550
X024731Y056068
X025000Y-001000
X025000Y003000
X025000Y025000
X025548Y053901
X025800Y058350
X025800Y058800
X026000Y-001000
X026000Y003000
X026000Y004000
X026000Y010000
X026000Y025000
X026000Y026000
X026900Y069650
X027000Y-001000
X027000Y002000
X027000Y003000
X027000Y004000
X027000Y005000
X027000Y009000
X027000Y010000
X027000Y025000
X027000Y026000
X027450Y070900
X028000Y-001000
X028000Y000000
X028000Y001000
X028000Y002000
X028000Y003000
X028000Y004000
X028000Y005000
X028000Y006000
X028000Y009000
X028000Y010000
X028000Y011000
X028000Y020000
X028000Y025000
X028000Y026000
X028100Y068500
X029000Y002000
X029000Y003000
X029000Y004000
X029000Y005000
X029000Y006000
X029000Y007000
X029000Y009000
X029000Y010000
X029000Y011000
X029000Y012000
X029000Y013000
X029000Y014000
X029000Y015000
X029750Y050250
X030000Y003000
X030000Y004000
X030000Y008000
X030000Y009000
X030000Y010000
X030000Y011000
X030000Y012000
X030000Y013000
X030000Y014000
X030000Y015000
X030200Y055550
X030250Y070000
X030750Y067550
X031000Y004000
X031000Y008000
X031000Y009000
X031000Y010000
X031000Y011000
X031000Y012000
X031000Y013000
X031000Y014000
X031000Y015000
X031100Y056450
X031170Y053470
X031242Y050107
X031500Y069500
X031600Y068450
X031500Y071950
X031750Y054500
X031750Y057250
X032000Y005000
X032000Y007000
X032000Y008000
X032000Y009000
X032000Y010000
X032000Y011000
X032000Y012000
X032000Y013000
X032000Y014000
X032000Y015000
X032000Y067400
X033000Y006000
X033000Y007000
X033000Y008000
X033000Y009000
X033000Y010000
X033000Y011000
X033000Y012000
X033000Y013000
X033000Y014000
X033000Y015000
X033250Y050250
X033000Y067400
X033000Y069250
X033590Y-000770
X033901Y053351
X033992Y050107
X034000Y007000
X034000Y008000
X034000Y009000
X034000Y010000
X034000Y011000
X034000Y012000
X034000Y013000
X034000Y014000
X034000Y015000
X034000Y055000
X034250Y058800
X034300Y051800
X034500Y055250
X034600Y058350
X034950Y054304
X035000Y007000
X035000Y008000
X035000Y009000
X035000Y010000
X035000Y011000
X035000Y012000
X035000Y013000
X035000Y014000
X035000Y015000
X035000Y049000
X035050Y070250
X035250Y-000200
X035250Y051400
X035477Y056600
X035674Y057924
X035750Y048750
X035800Y056450
X035950Y058450
X036000Y007000
X036000Y008000
X036000Y009000
X036000Y010000
X036000Y011000
X036000Y012000
X036000Y013000
X036000Y014000
X036000Y015000
X036050Y042100
X036200Y055550
X036350Y054600
X036451Y053901
X036750Y044750
X037000Y007000
X037000Y008000
X037000Y009000
X037000Y010000
X037000Y011000
X037000Y012000
X037000Y013000
X037000Y014000
X037000Y015000
X037210Y063980
X037250Y048750
X037250Y050250
X037210Y083410
X038000Y006000
X038000Y007000
X038000Y008000
X038000Y011000
X038000Y012000
X038000Y013000
X038000Y014000
X038000Y015000
X038000Y054750
X038031Y056068
X038250Y001550
X038670Y-000820
X038250Y044750
X039000Y006000
X039000Y007000
X039000Y008000
X039000Y010000
X039000Y011000
X039000Y012000
X039000Y013000
X039000Y014000
X039000Y015000
X039000Y045750
X039050Y055500
X040000Y006000
X040000Y007000
X040000Y008000
X040000Y009000
X040000Y010000
X040000Y011000
X040000Y012000
X040000Y013000
X040000Y014000
X040000Y015000
X040220Y067400
X040250Y054200
X040300Y054750
X040250Y057550
X040500Y056500
X040750Y045750
X040800Y057620
X041000Y006000
X041000Y007000
X041000Y008000
X041000Y009000
X041000Y010000
X041000Y011000
X041000Y012000
X041000Y013000
X041000Y014000
X041000Y015000
X041250Y034750
X041250Y035350
X041250Y036050
X041250Y036850
X041250Y037550
X041300Y055200
X041900Y053350
X042000Y006000
X042000Y007000
X042000Y008000
X042000Y009000
X042000Y010000
X042000Y011000
X042000Y012000
X042000Y013000
X042000Y014000
X042000Y015000
X042000Y034750
X042000Y035350
X042000Y036050
X042000Y036850
X042000Y037550
X042050Y057000
X042300Y053400
X042500Y045750
X042700Y034750
X042700Y035350
X042700Y036050
X042700Y036850
X042700Y037550
X042500Y073250
X042820Y048520
X042820Y052030
X042820Y059280
X042820Y067400
X042950Y068150
X043000Y006000
X043000Y007000
X043000Y008000
X043000Y009000
X043000Y010000
X043000Y011000
X043000Y012000
X043000Y013000
X043000Y014000
X043000Y015000
X043450Y034750
X043450Y035350
X043450Y036050
X043450Y036850
X043450Y037550
X043750Y075000
X044000Y006000
X044000Y007000
X044000Y008000
X044000Y009000
X044000Y010000
X044000Y011000
X044000Y012000
X044000Y013000
X044000Y014000
X044000Y015000
X044250Y045750
X044250Y056600
X044500Y057500
X044750Y058700
X044800Y070250
X045000Y006000
X045000Y007000
X045000Y008000
X045000Y009000
X045000Y010000
X045000Y011000
X045000Y012000
X045000Y013000
X045000Y014000
X045000Y015000
X045000Y020000
X045000Y021000
X045000Y022000
X045000Y023000
X045000Y024000
X045000Y025000
X045000Y026000
X046000Y007000
X046000Y008000
X046000Y009000
X046000Y010000
X046000Y011000
X046000Y012000
X046000Y013000
X046000Y014000
X046000Y015000
X046000Y020000
X046000Y021000
X046000Y022000
X046000Y023000
X046000Y024000
X046000Y025000
X046000Y026000
X046000Y045750
X045000Y073250
X046600Y076050
X046600Y076700
X046600Y077350
X046600Y078000
X046600Y078600
X047000Y008000
X047000Y009000
X047000Y010000
X047000Y011000
X047000Y012000
X047000Y013000
X047000Y014000
X047000Y015000
X047000Y020000
X047000Y021000
X047000Y022000
X047000Y023000
X047000Y024000
X047000Y025000
X047000Y026000
X047150Y076050
X047150Y076700
X047150Y077350
X047150Y078000
X047150Y078600
X047500Y081750
X047700Y078600
X047750Y045750
X047750Y076050
X047750Y076700
X047750Y077350
X047750Y078000
X048000Y009000
X048000Y010000
X048000Y011000
X048000Y020000
X048000Y024000
X048000Y025000
X048000Y026000
X048350Y076050
X048750Y073250
X049000Y009000
X049000Y010000
X049000Y025000
X049000Y026000
X049500Y045750
X049700Y057950
X049700Y059500
X049820Y-000120
X050000Y009000
X050000Y010000
X050000Y025000
X050000Y026000
X050000Y076800
X050500Y052500
X050500Y056500
X050500Y079050
X051000Y009000
X051000Y010000
X051000Y025000
X051000Y026000
X052000Y010000
X052000Y011000
X052000Y025000
X052000Y026000
X052500Y076050
X052650Y053750
X052650Y054450
X052700Y051750
X052700Y052400
X052700Y053050
X052750Y081000
X053000Y020000
X053000Y021000
X053000Y023000
X053000Y024000
X053000Y025000
X053000Y026000
X053300Y051750
X053300Y052400
X053300Y053050
X053300Y053750
X053300Y054450
X053500Y077450
X053750Y040600
X053850Y-001500
X054000Y006500
X054500Y001500
X054750Y040750
X054750Y042000
X055000Y060900
X055000Y063964
X056250Y044500
X056250Y046100
X059000Y045600
X059300Y045300
X059600Y045000
X060600Y005100
X060600Y041000
T5C0.0512F200S100
X058008Y058524
X058008Y059508
X058008Y060492
X058008Y061476
X058035Y065024
X058035Y066008
X058035Y066992
X058035Y067976
X058992Y058524
X058992Y059508
X058992Y060492
X058992Y061476
X059020Y065024
X059020Y066008
X059020Y066992
X059020Y067976
T13C0.2362F200S100
X026000Y013380
X026000Y022120
X050250Y013380
X050250Y022120
T2C0.0394F200S100
X015500Y066500
X018250Y070500
X021000Y066500
X023000Y072750
X027500Y066000
X040750Y001250
X047500Y080000
X052250Y083750
X058750Y052963
X058750Y053750
T6C0.0590F200S100
X003250Y051000
X003250Y053000
X003500Y020750
X003500Y022750
X003500Y036500
X003500Y038500
X003500Y065848
X003500Y067848
X010000Y063901
X010000Y065901
X010250Y018750
X010250Y020750
X010250Y034500
X010250Y036500
X010250Y049000
X010250Y051000
X010250Y077000
X015500Y064000
X024980Y075858
X024980Y080090
X040138Y075858
X040138Y079008
X056417Y076250
X058583Y076250
T12C0.1575F200S100
X006000Y076250
X011000Y081370
X015750Y000880
X020750Y006000
X025750Y000880
X030750Y006000
T3C0.0433F200S100
X003250Y048901
X003250Y049901
X003500Y018651
X003500Y019651
X003500Y034401
X003500Y035401
X003500Y063750
X003500Y064750
X010000Y067000
X010000Y068000
X010250Y021848
X010250Y022848
X010250Y027185
X010250Y027842
X010250Y028500
X010250Y029157
X010250Y029815
X010250Y037598
X010250Y038598
X010250Y052098
X010250Y053098
X027087Y032250
X031250Y046000
X031250Y047000
X032250Y046000
X032250Y047000
X033250Y046000
X033250Y047000
X037913Y032250
X038250Y009250
X038250Y019250
X041250Y031500
X045750Y080750
X045750Y081750
X045750Y082750
X051250Y031500
X051500Y035000
X051500Y037000
X052000Y074250
X053000Y074250
X056000Y074250
X059000Y074250
T8C0.0669F200S100
X003594Y005404
X003594Y009724
X010094Y005404
X010094Y009724
T7C0.0630F200S100
X055000Y080153
X055000Y082846
T4C0.0472F200S100
X055000Y081008
X055000Y081992
T10C0.1063F200S100
X006750Y045024
X006750Y072976
X006844Y003430
X006844Y011698
X006844Y014337
X006844Y042290
T9C0.0709F200S100
X020750Y081000
X020750Y083000
M30
