*
G04 Mass Parameters ***
*
G04 Image ***
*
%IND:\00.LAVORI IN CORSO\METALTRONICA\25-334-0 (PFC )\25-334-0.SSB*%
%ICAS*%
%MOIN*%
%IPPOS*%
%ASAXBY*%
G74*%FSLAN2X34Y34*%
*
G04 Aperture Definitions ***
*
%ADD10C,0.1378*%
%ADD11C,0.1968*%
%ADD12C,0.0394*%
%ADD13R,0.1024X0.0510*%
%ADD14R,0.0380X0.0320*%
%ADD15R,0.0886X0.0905*%
%ADD16C,0.0800*%
%ADD17C,0.5118*%
%ADD18R,0.0800X0.0800*%
%ADD19R,0.0710X0.0400*%
%ADD20R,0.0501X0.0404*%
%ADD21R,0.1500X0.1500*%
%ADD22R,0.0197X0.0315*%
%ADD23R,0.0500X0.0400*%
%ADD24R,0.0472X0.0472*%
%ADD25R,0.0404X0.0501*%
%ADD26C,0.0984*%
%ADD27R,0.2756X0.2756*%
%ADD28C,0.2756*%
%ADD29C,0.1181*%
%ADD30R,0.1181X0.1181*%
%ADD31C,0.1200*%
%ADD32R,0.1200X0.1200*%
%ADD33C,0.0512*%
%ADD34C,0.0866*%
%ADD35R,0.0669X0.0669*%
%ADD36C,0.0669*%
%ADD37C,0.0787*%
%ADD38R,0.0787X0.0787*%
%ADD39R,0.0630X0.0630*%
%ADD40C,0.0630*%
%ADD41C,0.0187*%
%ADD42R,0.0270X0.0500*%
%ADD43R,0.1000X0.0600*%
%ADD44R,0.2760X0.2760*%
%ADD45C,0.0709*%
%ADD46R,0.0400X0.0500*%
%ADD47R,0.0680X0.1580*%
%ADD48R,0.0680X0.0550*%
%ADD49R,0.0510X0.1024*%
%ADD50C,0.1500*%
%ADD51R,0.0320X0.0380*%
%ADD52R,0.1080X0.0850*%
%ADD53R,0.0984X0.0984*%
%ADD54R,0.0236X0.0512*%
%ADD55R,0.1736X0.0787*%
%ADD56R,0.0236X0.0787*%
%ADD57O,0.0256X0.0650*%
%ADD58R,0.0787X0.1736*%
%ADD59R,0.0787X0.0236*%
%ADD60O,0.0118X0.0590*%
%ADD61O,0.0110X0.0700*%
%ADD62R,0.0110X0.0700*%
%ADD63O,0.0700X0.0110*%
%ADD64R,0.0700X0.0110*%
%ADD65O,0.0984X0.0590*%
%ADD66O,0.0630X0.0236*%
%ADD67R,0.0630X0.0236*%
%ADD68O,0.0650X0.0256*%
%ADD69R,0.0320X0.0640*%
%ADD70R,0.0600X0.0700*%
%ADD71C,0.0276*%
%ADD72C,0.0100*%
%ADD73C,0.0050*%
%ADD74C,0.0250*%
%ADD75C,0.0080*%
%ADD76C,0.0276*%
%ADD77C,0.0500*%
%ADD78C,0.0120*%
%ADD79C,0.0276*%
%ADD80C,0.0060*%
%ADD81C,0.0276*%
%ADD82C,0.1000*%
%ADD83C,0.0590*%
%ADD84C,0.0787*%
%ADD85R,0.0433X0.0433*%
%ADD86C,0.0079*%
%ADD87C,0.0157*%
%ADD88C,0.0010*%
%ADD89C,0.0394*%
*
G04 Plot Data ***
*
G54D72*
G01X0003542Y0083242D02*
X0003375D01*
X0003458D02*
Y0082742D01*
X0003375Y0082825D01*
G54D80*
G01X0017767Y0082767D02*
Y0082580D01*
X0018033Y0082767D01*
X0018100D01*
X0018167Y0082743D01*
Y0082603D01*
X0018100Y0082580D01*
X0017900Y0082273D02*
X0017833D01*
X0017767Y0082297D01*
Y0082390D01*
X0017833Y0082413D01*
X0018167D01*
Y0082437D02*
Y0082343D01*
X0056533Y0077487D02*
Y0077580D01*
Y0077533D02*
X0056133D01*
X0056200Y0077580D01*
X0057628Y0077740D02*
X0057694Y0077693D01*
Y0077600D01*
X0057628Y0077553D01*
X0057561D01*
X0057428Y0077646D01*
X0057294Y0077553D01*
Y0077740D01*
X0057561Y0078046D02*
X0057628D01*
X0057694Y0078023D01*
Y0077930D01*
X0057628Y0077906D01*
X0057294D01*
Y0077883D02*
Y0077976D01*
X0010620Y0076533D02*
X0010527D01*
X0010573D02*
Y0076133D01*
X0010527Y0076200D01*
X0010173Y0076400D02*
Y0076467D01*
X0010197Y0076533D01*
X0010290D01*
X0010313Y0076467D01*
Y0076133D01*
X0010337D02*
X0010243D01*
X0028617Y0046903D02*
Y0047043D01*
X0028550Y0047067D01*
X0028483D01*
X0028417Y0047043D01*
Y0046903D01*
X0028483Y0046880D01*
X0028550D01*
X0028817Y0046973D01*
X0028550Y0046573D02*
X0028483D01*
X0028417Y0046597D01*
Y0046690D01*
X0028483Y0046713D01*
X0028817D01*
Y0046737D02*
Y0046643D01*
X0055767Y0082113D02*
Y0082020D01*
Y0082067D02*
X0056167D01*
X0056100Y0082020D01*
X0056350Y0079783D02*
Y0079970D01*
X0056083Y0079877D01*
Y0079830D01*
X0056483D01*
X0056350Y0080277D02*
X0056417D01*
X0056483Y0080253D01*
Y0080160D01*
X0056417Y0080137D01*
X0056083D01*
Y0080113D02*
Y0080207D01*
X0012117Y0002320D02*
X0012183Y0002297D01*
Y0002157D01*
X0012117Y0002133D01*
X0011983D01*
X0011917Y0002180D01*
Y0002320D01*
X0011783D01*
Y0002133D01*
X0012050Y0002627D02*
X0012117D01*
X0012183Y0002603D01*
Y0002510D01*
X0012117Y0002487D01*
X0011783D01*
Y0002463D02*
Y0002557D01*
X0033287Y-0000983D02*
X0033380D01*
X0033333D02*
Y-0000583D01*
X0033380Y-0000650D01*
X0020860Y0080890D02*
X0020640D01*
X0020526Y0081224D02*
Y0080776D01*
X0020120Y0080213D02*
Y0083787D01*
X0020290D02*
Y0080213D01*
X0022955D01*
Y0081508D01*
X0022718D01*
Y0082492D01*
X0022955D01*
Y0083787D01*
X0020290D01*
X0020120D01*
X0019876D01*
Y0080213D01*
X0018738D01*
X0018466D01*
Y0083787D01*
X0018738D01*
Y0080213D01*
X0019876D02*
X0020120D01*
X0020290D01*
X0019876Y0083787D02*
X0018738D01*
X0020974Y0083224D02*
Y0082776D01*
X0020860Y0082890D01*
Y0083110D01*
X0020640D01*
X0020526Y0083224D01*
X0020974D01*
X0020860Y0083110D01*
X0020640D02*
Y0082890D01*
X0020526Y0082776D01*
X0020974D01*
X0020860Y0082890D02*
X0020640D01*
X0020526Y0083224D02*
Y0082776D01*
X0020974Y0081224D02*
Y0080776D01*
X0020860Y0080890D01*
Y0081110D01*
X0020640D01*
X0020526Y0081224D01*
X0020974D01*
X0020860Y0081110D01*
X0020640D02*
Y0080890D01*
X0020526Y0080776D01*
X0020974D01*
X0004130Y0080680D02*
X0007870D01*
Y0076940D01*
X0004130D01*
Y0080680D01*
X0009522Y0079060D02*
X0010032D01*
X0010600D01*
X0012478D02*
X0011968D01*
X0011400D01*
X0012478Y0078560D02*
X0011968D01*
X0011400D01*
X0009522D02*
X0010032D01*
X0010600D01*
X0009130Y0080680D02*
Y0076940D01*
X0012870D01*
Y0080680D01*
X0009130D01*
X0014000Y0082370D02*
X0013010D01*
Y0083570D01*
X0014000D01*
Y0082370D01*
Y0075070D01*
X0003000D01*
Y0082370D01*
X0003990D01*
Y0083570D01*
X0003000D01*
Y0082370D01*
X0003990D02*
Y0075870D01*
X0008010D01*
Y0082370D01*
X0008990D01*
Y0083570D01*
X0008010D01*
Y0082370D01*
X0005032Y0078560D02*
X0004522D01*
Y0079060D02*
X0005032D01*
X0006968D02*
X0007478D01*
Y0078560D02*
X0006968D01*
X0006000Y0077810D02*
Y0077310D01*
X0013010Y0082770D02*
X0008990D01*
X0006000Y0079810D02*
Y0080310D01*
X0012478Y0079060D02*
X0012479D01*
X0009521D02*
X0009522D01*
Y0078560D02*
X0009521D01*
X0006968Y0079060D02*
X0006400D01*
X0006968D01*
X0011900Y0078560D02*
Y0079060D01*
X0010100D02*
Y0078560D01*
X0010750Y0079210D02*
Y0079710D01*
X0011250D01*
Y0079210D01*
Y0078410D02*
Y0077910D01*
X0010750D01*
Y0078410D01*
X0011000Y0080310D02*
Y0079810D01*
Y0077310D02*
Y0077810D01*
X0005032Y0078560D02*
X0005600D01*
X0005750Y0078410D02*
Y0077910D01*
X0006250D01*
Y0078410D01*
X0006400Y0078560D02*
X0006968D01*
X0003990Y0082770D02*
X0008010D01*
X0013010Y0082370D02*
Y0075870D01*
X0008990D01*
Y0082370D01*
X0006250Y0079210D02*
Y0079710D01*
X0005750D01*
Y0079210D01*
X0005600Y0079060D02*
X0005032D01*
X0005600D01*
X0006900Y0078560D02*
Y0079060D01*
X0005100D02*
Y0078560D01*
X0029655Y0045250D02*
X0034844D01*
X0035081Y0045014D01*
X0029419D01*
X0029655Y0045250D01*
Y0047750D01*
X0029419Y0047986D01*
Y0045014D01*
X0033136Y0048242D02*
X0031364D01*
X0029242D01*
Y0044758D01*
X0030088D01*
X0030344D02*
X0032122D01*
X0032378D02*
X0034155D01*
X0034411D02*
X0035258D01*
Y0048242D01*
X0033136D01*
Y0047986D01*
X0035081D01*
X0034844Y0047750D01*
Y0045250D01*
X0029655Y0047750D02*
X0031364D01*
Y0047986D01*
X0029419D01*
X0034844Y0047750D02*
X0033136D01*
Y0047986D01*
X0035081D02*
Y0045014D01*
X0031364Y0048242D02*
Y0047986D01*
X0032203Y0045953D02*
X0032124Y0045874D01*
Y0046126D01*
X0032203Y0046047D01*
Y0045953D01*
X0032297D01*
X0032376Y0045874D01*
X0032124D01*
X0032297Y0045953D02*
Y0046047D01*
X0032376Y0046126D01*
X0032124D01*
X0032376Y0045874D02*
Y0046126D01*
X0032203Y0046047D02*
X0032297D01*
X0031203Y0046953D02*
X0031124Y0046874D01*
Y0047126D01*
X0031203Y0047047D01*
Y0046953D01*
X0031297D01*
X0031376Y0046874D01*
X0031124D01*
X0031297Y0046953D02*
Y0047047D01*
X0031376Y0047126D01*
X0031124D01*
X0031376Y0046874D02*
Y0047126D01*
X0031203Y0047047D02*
X0031297D01*
X0032203Y0046953D02*
X0032124Y0046874D01*
Y0047126D01*
X0032203Y0047047D01*
Y0046953D01*
X0032297D01*
X0032376Y0046874D01*
X0032124D01*
X0032297Y0046953D02*
Y0047047D01*
X0032376Y0047126D01*
X0032124D01*
X0032376Y0046874D02*
Y0047126D01*
X0032203Y0047047D02*
X0032297D01*
X0033203Y0046953D02*
X0033124Y0046874D01*
Y0047126D01*
X0033203Y0047047D01*
Y0046953D01*
X0033297D01*
X0033376Y0046874D01*
X0033124D01*
X0033297Y0046953D02*
Y0047047D01*
X0033376Y0047126D01*
X0033124D01*
X0033376Y0046874D02*
Y0047126D01*
X0033203Y0047047D02*
X0033297D01*
X0033203Y0045953D02*
X0033124Y0045874D01*
Y0046126D01*
X0033203Y0046047D01*
Y0045953D01*
X0033297D01*
X0033376Y0045874D01*
X0033124D01*
X0033297Y0045953D02*
Y0046047D01*
X0033376Y0046126D01*
X0033124D01*
X0033376Y0045874D02*
Y0046126D01*
X0033203Y0046047D02*
X0033297D01*
X0031203Y0045953D02*
X0031124Y0045874D01*
Y0046126D01*
X0031203Y0046047D01*
Y0045953D01*
X0031297D01*
X0031376Y0045874D01*
X0031124D01*
X0031297Y0045953D02*
Y0046047D01*
X0031376Y0046126D01*
X0031124D01*
X0031376Y0045874D02*
Y0046126D01*
X0031203Y0046047D02*
X0031297D01*
X0054474Y0080331D02*
Y0079795D01*
X0054315D01*
Y0080331D01*
X0055685D01*
Y0080476D01*
X0056008D01*
Y0080634D01*
X0056476D01*
Y0082366D01*
X0056008D01*
Y0082524D01*
X0056583D01*
Y0080476D01*
X0056008D01*
X0054474Y0082669D02*
Y0083205D01*
X0055526D01*
X0055685D01*
Y0082669D01*
X0054315D01*
Y0083205D01*
X0054474D01*
X0056008Y0082366D02*
X0055431D01*
Y0082429D01*
X0054569D01*
Y0080571D01*
X0055431D01*
Y0080634D01*
Y0080976D01*
Y0081445D01*
X0055085D01*
X0054848D01*
Y0081555D01*
X0055085D01*
Y0081445D01*
X0055431Y0082366D02*
Y0082024D01*
Y0081555D01*
X0055085D01*
X0055431Y0080976D02*
X0055541D01*
Y0082024D01*
X0055431D01*
X0056583Y0080476D02*
X0056811D01*
Y0082524D01*
X0056583D01*
X0056008Y0080634D02*
X0055431D01*
X0055526Y0080331D02*
Y0079795D01*
X0055685D01*
Y0080331D01*
X0055125Y0082117D02*
Y0081867D01*
X0054875D01*
X0054934Y0081926D01*
Y0082058D01*
X0054875Y0082117D01*
X0055125D01*
X0055066Y0082058D01*
X0054934D01*
X0054875Y0081867D02*
Y0082117D01*
X0055066Y0080942D02*
X0055125Y0080883D01*
Y0081133D01*
X0055066Y0081074D01*
Y0080942D01*
X0054934D01*
X0054875Y0080883D01*
Y0081133D01*
X0054934Y0081074D01*
Y0080942D01*
X0054875Y0081133D02*
X0055125D01*
X0055066Y0081074D02*
X0054934D01*
X0054875Y0080883D02*
X0055125D01*
X0055526Y0082669D02*
Y0083205D01*
X0056008Y0082524D02*
X0055685D01*
Y0082669D01*
X0054848Y0081445D02*
X0054569D01*
X0054848Y0081555D02*
X0054569D01*
X0055125Y0081867D02*
X0055066Y0081926D01*
Y0082058D01*
Y0081926D02*
X0054934D01*
X0055526Y0079795D02*
X0054474D01*
X0054315Y0082669D02*
Y0080331D01*
X0032620Y0001570D02*
X0028880D01*
Y0005310D01*
X0032620D01*
Y0001570D01*
X0017229Y0003190D02*
X0017228D01*
Y0003690D02*
X0017229Y0003689D01*
X0014271Y0003690D02*
X0014272D01*
X0027620Y0001570D02*
Y0005310D01*
X0023880D01*
Y0001570D01*
X0027620D01*
X0017228Y0003190D02*
X0016718D01*
X0016150D01*
X0014272D02*
X0014782D01*
X0015350D01*
X0014272Y0003690D02*
X0014782D01*
X0015350D01*
X0017228D02*
X0016718D01*
X0016150D01*
X0027229D02*
X0027228D01*
Y0003190D02*
X0027229D01*
X0024271D02*
X0024272D01*
X0017620Y0001570D02*
Y0005310D01*
X0013880D01*
Y0001570D01*
X0017620D01*
X0019271Y0003690D02*
X0019272D01*
Y0003190D02*
X0019271D01*
X0022229D02*
X0022228D01*
X0022620Y0001570D02*
X0018880D01*
Y0005310D01*
X0022620D01*
Y0001570D01*
X0012750Y-0000120D02*
X0013740D01*
Y-0001320D01*
X0012750D01*
Y-0000120D01*
Y0007180D01*
X0033750D01*
Y-0000120D01*
X0032760D01*
Y-0001320D01*
X0033750D01*
Y-0000120D01*
X0032760D02*
Y0006380D01*
X0028740D01*
Y-0000120D01*
X0027760D01*
Y-0001320D01*
X0028740D01*
Y-0000120D01*
X0023740Y-0001320D02*
Y-0000120D01*
X0022760D01*
Y-0001320D01*
X0023740D01*
X0018740D02*
Y-0000120D01*
X0017760D01*
Y-0001320D01*
X0018740D01*
Y-0000120D02*
Y0006380D01*
X0022760D01*
Y-0000120D01*
X0013740Y-0000520D02*
X0017760D01*
X0031718Y0003690D02*
X0032228D01*
Y0003190D02*
X0031718D01*
X0029782D02*
X0029272D01*
Y0003690D02*
X0029782D01*
X0030350D01*
X0030500Y0003840D02*
Y0004340D01*
X0031000D01*
Y0003840D01*
X0031150Y0003690D02*
X0031718D01*
X0030750Y0004440D02*
Y0004940D01*
Y0002440D02*
Y0001940D01*
X0029782Y0003190D02*
X0030350D01*
X0029782D01*
X0024272Y0003690D02*
X0024782D01*
X0025350D01*
X0026150D02*
X0026718D01*
X0027228D01*
X0026718Y0003190D02*
X0026150D01*
X0026718D01*
X0027228D01*
X0024782D02*
X0025350D01*
X0024782D01*
X0024272D01*
X0025750Y0001940D02*
Y0002440D01*
Y0004940D02*
Y0004440D01*
X0023740Y-0000520D02*
X0027760D01*
X0014850Y0003690D02*
Y0003190D01*
X0016650D02*
Y0003690D01*
X0016000Y0003040D02*
Y0002540D01*
X0015500D01*
Y0003040D01*
Y0003840D02*
Y0004340D01*
X0016000D01*
Y0003840D01*
X0015750Y0001940D02*
Y0002440D01*
Y0004940D02*
Y0004440D01*
X0019272Y0003690D02*
X0019782D01*
X0020350D01*
X0021150D02*
X0021718D01*
X0022228D01*
X0021718Y0003190D02*
X0021150D01*
X0021718D01*
X0022228D01*
X0019782D02*
X0020350D01*
X0019782D01*
X0019272D01*
X0020750Y0001940D02*
Y0002440D01*
Y0004940D02*
Y0004440D01*
X0018740Y-0000520D02*
X0022760D01*
X0032760D02*
X0028740D01*
X0023740Y-0000120D02*
Y0006380D01*
X0027760D01*
Y-0000120D01*
X0013740D02*
Y0006380D01*
X0017760D01*
Y-0000120D01*
X0019850Y0003690D02*
Y0003190D01*
X0021650D02*
Y0003690D01*
X0021000Y0003040D02*
Y0002540D01*
X0020500D01*
Y0003040D01*
Y0003840D02*
Y0004340D01*
X0021000D01*
Y0003840D01*
X0024850Y0003690D02*
Y0003190D01*
X0026650D02*
Y0003690D01*
X0026000Y0003040D02*
Y0002540D01*
X0025500D01*
Y0003040D01*
Y0003840D02*
Y0004340D01*
X0026000D01*
Y0003840D01*
X0030500Y0003040D02*
Y0002540D01*
X0031000D01*
Y0003040D01*
X0031150Y0003190D02*
X0031718D01*
X0031150D01*
X0029850Y0003690D02*
Y0003190D01*
X0031650D02*
Y0003690D01*
G01X0005032Y0078560D02*
G03X0006000Y0077810I0000968J0000250D01*
G01X0004501Y0078810D02*
G03X0004522Y0078560I0001499J0000000D01*
Y0079060D02*
G03X0004501Y0078810I0001478J0000250D01*
G01X0006000Y0079810D02*
G03X0005032Y0079060I0000000J0001000D01*
G01X0006968D02*
G03X0006000Y0079810I0000968J0000250D01*
G01X0007499Y0078810D02*
G03X0007478Y0079060I0001499J0000000D01*
Y0078560D02*
G03X0007499Y0078810I0001478J0000250D01*
G01X0006000Y0077810D02*
G03X0006968Y0078560I0000000J0001000D01*
G01X0004521D02*
G03X0006000Y0077310I0001479J0000250D01*
G03X0007479Y0078560I0000000J0001500D01*
G01X0006000Y0080310D02*
G03X0004521Y0079060I0000000J0001500D01*
G01X0012478Y0078560D02*
G03X0012499Y0078810I0001478J0000250D01*
G03X0012478Y0079060I0001499J0000000D01*
G01X0012479D02*
G03X0011000Y0080310I0001479J0000250D01*
G03X0009521Y0079060I0000000J0001500D01*
G01X0009522D02*
G03X0009501Y0078810I0001478J0000250D01*
G03X0009522Y0078560I0001499J0000000D01*
G01X0009521D02*
G03X0011000Y0077310I0001479J0000250D01*
G03X0012479Y0078560I0000000J0001500D01*
G01X0007479Y0079060D02*
G03X0006000Y0080310I0001479J0000250D01*
G01X0011968Y0079060D02*
G03X0011000Y0079810I0000968J0000250D01*
G03X0010032Y0079060I0000000J0001000D01*
G01X0011000Y0077810D02*
G03X0011968Y0078560I0000000J0001000D01*
G01X0010032D02*
G03X0011000Y0077810I0000968J0000250D01*
G01X0011250Y0079210D02*
G03X0011400Y0079060I0000150J0000000D01*
G01X0010600D02*
G03X0010750Y0079210I0000000J0000150D01*
Y0078410D02*
G03X0010600Y0078560I0000150J0000000D01*
G01X0011400D02*
G03X0011250Y0078410I0000000J0000150D01*
G01X0005750D02*
G03X0005600Y0078560I0000150J0000000D01*
G01X0006400D02*
G03X0006250Y0078410I0000000J0000150D01*
Y0079210D02*
G03X0006400Y0079060I0000150J0000000D01*
G01X0005600D02*
G03X0005750Y0079210I0000000J0000150D01*
G01X0030088Y0044758D02*
G03X0030216Y0044660I0000128J0000034D01*
Y0044659D02*
G03X0030344Y0044758I0000000J0000133D01*
G01X0032122D02*
G03X0032250Y0044630I0000128J0000000D01*
G03X0032378Y0044758I0000000J0000128D01*
G01X0034155D02*
G03X0034283Y0044660I0000128J0000034D01*
Y0044659D02*
G03X0034411Y0044758I0000000J0000133D01*
G01X0014271Y0003188D02*
G03X0015750Y0001940I0001479J0000252D01*
G03X0017229Y0003190I0000000J0001500D01*
G01X0017228D02*
G03X0017249Y0003440I0001478J0000250D01*
G03X0017228Y0003690I0001499J0000000D01*
G01X0017229Y0003689D02*
G03X0015750Y0004940I0001479J0000249D01*
G03X0014271Y0003690I0000000J0001500D01*
G01X0014272D02*
G03X0014251Y0003440I0001478J0000250D01*
G03X0014272Y0003190I0001499J0000000D01*
G01X0025750Y0004940D02*
G03X0024271Y0003691I0000000J0001500D01*
G01X0027229Y0003690D02*
G03X0025750Y0004940I0001479J0000250D01*
G01X0027249Y0003440D02*
G03X0027228Y0003690I0001499J0000000D01*
Y0003190D02*
G03X0027249Y0003440I0001478J0000250D01*
G01X0025750Y0001940D02*
G03X0027229Y0003190I0000000J0001500D01*
G01X0024271D02*
G03X0025750Y0001940I0001479J0000250D01*
G01X0024251Y0003440D02*
G03X0024272Y0003190I0001499J0000000D01*
Y0003690D02*
G03X0024251Y0003440I0001478J0000250D01*
G01X0022229Y0003689D02*
G03X0020750Y0004940I0001479J0000249D01*
G03X0019271Y0003690I0000000J0001500D01*
G01X0019272D02*
G03X0019251Y0003440I0001478J0000250D01*
G03X0019272Y0003190I0001499J0000000D01*
G01X0019271D02*
G03X0020750Y0001940I0001479J0000250D01*
G03X0022229Y0003190I0000000J0001500D01*
G01X0022228D02*
G03X0022249Y0003440I0001478J0000250D01*
G03X0022228Y0003690I0001499J0000000D01*
G01X0032249Y0003440D02*
G03X0032228Y0003690I0001499J0000000D01*
Y0003190D02*
G03X0032249Y0003440I0001478J0000250D01*
G01X0030750Y0002440D02*
G03X0031718Y0003190I0000000J0001000D01*
G01X0029782D02*
G03X0030750Y0002440I0000968J0000250D01*
G01X0029251Y0003440D02*
G03X0029272Y0003190I0001499J0000000D01*
Y0003690D02*
G03X0029251Y0003440I0001478J0000250D01*
G01X0030350Y0003690D02*
G03X0030500Y0003840I0000000J0000150D01*
G01X0031000D02*
G03X0031150Y0003690I0000150J0000000D01*
G01X0031718D02*
G03X0030750Y0004440I0000968J0000250D01*
Y0004940D02*
G03X0029271Y0003690I0000000J0001500D01*
G01X0030750Y0001940D02*
G03X0032229Y0003190I0000000J0001500D01*
G01X0030750Y0004440D02*
G03X0029782Y0003690I0000000J0001000D01*
G01X0029271Y0003190D02*
G03X0030750Y0001940I0001479J0000250D01*
G01X0032229Y0003689D02*
G03X0030750Y0004940I0001479J0000249D01*
G01X0014782Y0003190D02*
G03X0015750Y0002440I0000968J0000250D01*
G03X0016718Y0003190I0000000J0001000D01*
G01X0015750Y0004440D02*
G03X0014782Y0003690I0000000J0001000D01*
G01X0016718D02*
G03X0015750Y0004440I0000968J0000250D01*
G01X0024782Y0003190D02*
G03X0025750Y0002440I0000968J0000250D01*
G03X0026718Y0003190I0000000J0001000D01*
G01X0025750Y0004440D02*
G03X0024782Y0003690I0000000J0001000D01*
G01X0026718D02*
G03X0025750Y0004440I0000968J0000250D01*
G01X0025500Y0003040D02*
G03X0025350Y0003190I0000150J0000000D01*
G01X0026150D02*
G03X0026000Y0003040I0000000J0000150D01*
Y0003840D02*
G03X0026150Y0003690I0000150J0000000D01*
G01X0025350D02*
G03X0025500Y0003840I0000000J0000150D01*
G01X0019782Y0003190D02*
G03X0020750Y0002440I0000968J0000250D01*
G03X0021718Y0003190I0000000J0001000D01*
G01X0020750Y0004440D02*
G03X0019782Y0003690I0000000J0001000D01*
G01X0021718D02*
G03X0020750Y0004440I0000968J0000250D01*
G01X0020500Y0003040D02*
G03X0020350Y0003190I0000150J0000000D01*
G01X0021150D02*
G03X0021000Y0003040I0000000J0000150D01*
Y0003840D02*
G03X0021150Y0003690I0000150J0000000D01*
G01X0020350D02*
G03X0020500Y0003840I0000000J0000150D01*
G01X0015500Y0003040D02*
G03X0015350Y0003190I0000150J0000000D01*
G01X0016150D02*
G03X0016000Y0003040I0000000J0000150D01*
Y0003840D02*
G03X0016150Y0003690I0000150J0000000D01*
G01X0015350D02*
G03X0015500Y0003840I0000000J0000150D01*
G01X0030500Y0003040D02*
G03X0030350Y0003190I0000150J0000000D01*
G01X0031150D02*
G03X0031000Y0003040I0000000J0000150D01*
G54D86*
G01X0059311Y0076998D02*
Y0075502D01*
X0058208D01*
X0057854Y0075856D01*
Y0076683D01*
X0058169Y0076998D01*
X0059311D01*
X0059390Y0077313D02*
Y0075187D01*
X0055610D01*
Y0077313D01*
X0059390D01*
X0059941Y0076426D02*
X0059390D01*
X0059941Y0076355D02*
X0059390D01*
X0059941Y0076284D02*
X0059390D01*
X0059941Y0076213D02*
X0059390D01*
X0059941Y0076142D02*
X0059390D01*
X0059941Y0076072D02*
X0059390D01*
X0059941Y0076001D02*
X0059390D01*
X0059941Y0075930D02*
X0059390D01*
X0059941Y0075859D02*
X0059390D01*
X0059941Y0075788D02*
X0059390D01*
X0059941Y0075718D02*
X0059390D01*
X0059668Y0076919D02*
Y0075581D01*
X0059597Y0076919D02*
Y0075581D01*
X0059527Y0076919D02*
Y0075581D01*
X0059456Y0076919D02*
Y0075581D01*
X0059941Y0076850D02*
X0059390D01*
X0059941Y0076780D02*
X0059390D01*
X0059941Y0076709D02*
X0059390D01*
X0059941Y0076638D02*
X0059390D01*
X0059941Y0076567D02*
X0059390D01*
X0059941Y0076496D02*
X0059390D01*
X0059941Y0075647D02*
X0059390D01*
Y0076919D02*
Y0075581D01*
X0059941D02*
X0059390D01*
X0059941Y0076919D02*
Y0075581D01*
Y0076919D02*
X0059390D01*
X0059881D02*
Y0075581D01*
X0059810Y0076919D02*
Y0075581D01*
X0059739Y0076919D02*
Y0075581D01*
X0057146Y0076998D02*
Y0075502D01*
X0055689D01*
Y0076998D01*
X0057146D01*
M02*
