*
G04 Mass Parameters ***
*
G04 Image ***
*
%IND:\00.LAVORI IN CORSO\METALTRONICA\25-334-0 (PFC )\25-334-0.IN2*%
%ICAS*%
%MOIN*%
%IPPOS*%
%ASAXBY*%
G74*%FSLAN2X34Y34*%
*
G04 Aperture Definitions ***
*
%ADD10C,0.1378*%
%ADD11C,0.1968*%
%ADD12C,0.0394*%
%ADD13R,0.1024X0.0510*%
%ADD14R,0.0380X0.0320*%
%ADD15R,0.0886X0.0905*%
%ADD16C,0.0800*%
%ADD17C,0.5118*%
%ADD18R,0.0800X0.0800*%
%ADD19R,0.0710X0.0400*%
%ADD20R,0.0501X0.0404*%
%ADD21R,0.1500X0.1500*%
%ADD22R,0.0197X0.0315*%
%ADD23R,0.0500X0.0400*%
%ADD24R,0.0472X0.0472*%
%ADD25R,0.0404X0.0501*%
%ADD26C,0.0984*%
%ADD27R,0.2756X0.2756*%
%ADD28C,0.2756*%
%ADD29C,0.1181*%
%ADD30R,0.1181X0.1181*%
%ADD31C,0.1200*%
%ADD32R,0.1200X0.1200*%
%ADD33C,0.0512*%
%ADD34C,0.0866*%
%ADD35R,0.0669X0.0669*%
%ADD36C,0.0669*%
%ADD37C,0.0787*%
%ADD38R,0.0787X0.0787*%
%ADD39R,0.0630X0.0630*%
%ADD40C,0.0630*%
%ADD41C,0.0187*%
%ADD42R,0.0270X0.0500*%
%ADD43R,0.1000X0.0600*%
%ADD44R,0.2760X0.2760*%
%ADD45C,0.0709*%
%ADD46R,0.0400X0.0500*%
%ADD47R,0.0680X0.1580*%
%ADD48R,0.0680X0.0550*%
%ADD49R,0.0510X0.1024*%
%ADD50C,0.1500*%
%ADD51R,0.0320X0.0380*%
%ADD52R,0.1080X0.0850*%
%ADD53R,0.0984X0.0984*%
%ADD54R,0.0236X0.0512*%
%ADD55R,0.1736X0.0787*%
%ADD56R,0.0236X0.0787*%
%ADD57O,0.0256X0.0650*%
%ADD58R,0.0787X0.1736*%
%ADD59R,0.0787X0.0236*%
%ADD60O,0.0118X0.0590*%
%ADD61O,0.0110X0.0700*%
%ADD62R,0.0110X0.0700*%
%ADD63O,0.0700X0.0110*%
%ADD64R,0.0700X0.0110*%
%ADD65O,0.0984X0.0590*%
%ADD66O,0.0630X0.0236*%
%ADD67R,0.0630X0.0236*%
%ADD68O,0.0650X0.0256*%
%ADD69R,0.0320X0.0640*%
%ADD70R,0.0600X0.0700*%
%ADD71C,0.0276*%
%ADD72C,0.0100*%
%ADD73C,0.0050*%
%ADD74C,0.0250*%
%ADD75C,0.0080*%
%ADD76C,0.0276*%
%ADD77C,0.0500*%
%ADD78C,0.0120*%
%ADD79C,0.0276*%
%ADD80C,0.0060*%
%ADD81C,0.0276*%
%ADD82C,0.1000*%
*
G04 Plot Data ***
*
G54D72*
G01X0059108Y0001908D02*
X0059442D01*
X0059108Y0002242D01*
Y0002325D01*
X0059150Y0002408D01*
X0059400D01*
X0059442Y0002325D01*
X0059683Y0002408D02*
Y0001908D01*
X0059767Y0001992D01*
X0059933Y0002325D01*
X0060017Y0002408D01*
Y0001908D01*
X0060258D02*
X0060425D01*
X0060342D02*
Y0002408D01*
X0060258D02*
X0060425D01*
X0043990Y0026200D02*
Y0019500D01*
X0043900Y0026200D02*
Y0019500D01*
X0043810Y0026200D02*
Y0019500D01*
X0043720Y0026200D02*
Y0019500D01*
X0043630Y0026200D02*
Y0019500D01*
X0043540Y0026200D02*
Y0019500D01*
X0043450Y0026200D02*
Y0019500D01*
X0043270Y0026200D02*
Y0019500D01*
X0043180Y0026200D02*
Y0019500D01*
X0043090Y0026200D02*
Y0019500D01*
X0043000Y0026200D02*
Y0019500D01*
X0042910Y0026200D02*
Y0019500D01*
X0042820Y0026200D02*
Y0019500D01*
X0042730Y0026200D02*
Y0019500D01*
X0042640Y0026200D02*
Y0019500D01*
X0042550Y0026200D02*
Y0019550D01*
X0042460Y0026200D02*
Y0019640D01*
X0042370Y0026200D02*
Y0019730D01*
X0042280Y0026200D02*
Y0019820D01*
X0040210Y0026200D02*
Y0021890D01*
X0042190Y0026200D02*
Y0019910D01*
X0042100Y0026200D02*
Y0020000D01*
X0042010Y0026200D02*
Y0020090D01*
X0041920Y0026200D02*
Y0020180D01*
X0041830Y0026200D02*
Y0020270D01*
X0041740Y0026200D02*
Y0020360D01*
X0041650Y0026200D02*
Y0020450D01*
X0041560Y0026200D02*
Y0020540D01*
X0041470Y0026200D02*
Y0020630D01*
X0041290Y0026200D02*
Y0020810D01*
X0041200Y0026200D02*
Y0020900D01*
X0041110Y0026200D02*
Y0020990D01*
X0041020Y0026200D02*
Y0021080D01*
X0040930Y0026200D02*
Y0021170D01*
X0040840Y0026200D02*
Y0021260D01*
X0041380Y0026200D02*
Y0020720D01*
X0040660Y0026200D02*
Y0021440D01*
X0040570Y0026200D02*
Y0021530D01*
X0040390Y0026200D02*
Y0021710D01*
X0040300Y0026200D02*
Y0021800D01*
X0040120Y0026200D02*
Y0021980D01*
X0040030Y0026200D02*
Y0022070D01*
X0039940Y0026200D02*
Y0022160D01*
X0039850Y0026200D02*
Y0022250D01*
X0039760Y0026200D02*
Y0022340D01*
X0039670Y0026200D02*
Y0022430D01*
X0039580Y0026200D02*
Y0022520D01*
X0039490Y0026200D02*
Y0022600D01*
X0039400Y0026200D02*
Y0022600D01*
X0039310Y0026200D02*
Y0022600D01*
X0039220Y0026200D02*
Y0022600D01*
X0034390Y0020190D02*
X0015000D01*
X0027750Y0030900D02*
X0026550D01*
X0039130Y0026200D02*
Y0022600D01*
X0020300Y-0000870D02*
X0011500D01*
X0019900Y0011010D02*
X0015000D01*
X0037330Y0026200D02*
Y0022600D01*
X0037240Y0026200D02*
Y0022600D01*
X0037150Y0026200D02*
Y0022600D01*
X0037060Y0026200D02*
Y0022600D01*
X0036970Y0026200D02*
Y0022600D01*
X0036880Y0026200D02*
Y0022600D01*
X0036790Y0026200D02*
Y0022590D01*
X0036700Y0026200D02*
Y0022500D01*
X0036610Y0026200D02*
Y0022410D01*
X0036520Y0026200D02*
Y0022320D01*
X0036430Y0026200D02*
Y0022230D01*
X0036340Y0026200D02*
Y0022140D01*
X0036250Y0026200D02*
Y0022050D01*
X0036160Y0026200D02*
Y0021960D01*
X0036070Y0026200D02*
Y0021870D01*
X0035980Y0026200D02*
Y0021780D01*
X0035890Y0026200D02*
Y0021690D01*
X0035800Y0026200D02*
Y0021600D01*
X0020300Y-0000780D02*
X0011500D01*
X0020300Y0002910D02*
X0013710D01*
X0021730Y0007320D02*
X0015000D01*
X0019900Y0011640D02*
X0015000D01*
X0029050Y0027350D02*
Y0019500D01*
X0020300Y-0000420D02*
X0011500D01*
X0023290Y0026200D02*
Y0019500D01*
X0023200Y0026200D02*
Y0019500D01*
X0023110Y0026200D02*
Y0019500D01*
X0023020Y0026200D02*
Y0019500D01*
X0022930Y0026200D02*
Y0019500D01*
X0022840Y0026200D02*
Y0019500D01*
X0022750Y0026200D02*
Y0019500D01*
X0022660Y0026200D02*
Y0019500D01*
X0022570Y0026200D02*
Y0019500D01*
X0022480Y0026200D02*
Y0019500D01*
X0022390Y0026200D02*
Y0019500D01*
X0022300Y0026200D02*
Y0019500D01*
X0022210Y0026200D02*
Y0019500D01*
X0022030Y0007020D02*
Y0005330D01*
X0021940Y0007110D02*
Y0005240D01*
X0021850Y0007200D02*
Y0005150D01*
X0021760Y0007290D02*
Y0005060D01*
X0021670Y0007380D02*
Y0004970D01*
X0021580Y0007470D02*
Y0004880D01*
X0021490Y0007560D02*
Y0004790D01*
X0021400Y0007650D02*
Y0004700D01*
X0021310Y0007740D02*
Y0004610D01*
X0021220Y0007830D02*
Y0004520D01*
X0021130Y0007920D02*
Y0004430D01*
X0021040Y0008010D02*
Y0004340D01*
X0020950Y0008100D02*
Y0004250D01*
X0020860Y0008190D02*
Y0004160D01*
X0020770Y0008280D02*
Y0004070D01*
X0020680Y0008370D02*
Y0003980D01*
X0020590Y0008460D02*
Y0003890D01*
X0020500Y0008550D02*
Y0003800D01*
X0020410Y0008640D02*
Y0003710D01*
X0020320Y0008730D02*
Y0003620D01*
X0020230Y0008820D02*
Y-0001500D01*
X0020140Y0008910D02*
Y-0001500D01*
X0020050Y0009000D02*
Y-0001500D01*
X0019960Y0009090D02*
Y-0001500D01*
X0019870Y0026200D02*
Y-0001500D01*
X0019780Y0026200D02*
Y-0001500D01*
X0019690Y0026200D02*
Y-0001500D01*
X0019600Y0026200D02*
Y-0001500D01*
X0019510Y0026200D02*
Y-0001500D01*
X0019420Y0026200D02*
Y-0001500D01*
X0019330Y0026200D02*
Y-0001500D01*
X0019240Y0026200D02*
Y-0001500D01*
X0019150Y0026200D02*
Y-0001500D01*
X0019060Y0026200D02*
Y-0001500D01*
X0018970Y0026200D02*
Y-0001500D01*
X0018880Y0026200D02*
Y-0001500D01*
X0018790Y0026200D02*
Y-0001500D01*
X0018700Y0026200D02*
Y-0001500D01*
X0018610Y0026200D02*
Y-0001500D01*
X0018520Y0026200D02*
Y-0001500D01*
X0018430Y0026200D02*
Y-0001500D01*
X0018340Y0026200D02*
Y-0001500D01*
X0018250Y0026200D02*
Y-0001500D01*
X0018160Y0026200D02*
Y-0001500D01*
X0018070Y0026200D02*
Y-0001500D01*
X0017980Y0026200D02*
Y-0001500D01*
X0017890Y0026200D02*
Y-0001500D01*
X0017800Y0026200D02*
Y-0001500D01*
X0017710Y0026200D02*
Y-0001500D01*
X0017620Y0026200D02*
Y-0001500D01*
X0017530Y0026200D02*
Y-0001500D01*
X0017440Y0026200D02*
Y-0001500D01*
X0017350Y0026200D02*
Y-0001500D01*
X0017260Y0026200D02*
Y-0001500D01*
X0017170Y0026200D02*
Y-0001500D01*
X0017080Y0026200D02*
Y-0001500D01*
X0016990Y0026200D02*
Y-0001500D01*
X0016900Y0026200D02*
Y-0001500D01*
X0016810Y0026200D02*
Y-0001500D01*
X0016720Y0026200D02*
Y-0001500D01*
X0016630Y0026200D02*
Y-0001500D01*
X0016540Y0026200D02*
Y-0001500D01*
X0016450Y0026200D02*
Y-0001500D01*
X0016360Y0026200D02*
Y-0001500D01*
X0016270Y0026200D02*
Y-0001500D01*
X0016180Y0026200D02*
Y-0001500D01*
X0016090Y0026200D02*
Y-0001500D01*
X0016000Y0026200D02*
Y-0001500D01*
X0015910Y0026200D02*
Y-0001500D01*
X0015820Y0026200D02*
Y-0001500D01*
X0015730Y0026200D02*
Y-0001500D01*
X0015640Y0026200D02*
Y-0001500D01*
X0015550Y0026200D02*
Y-0001500D01*
X0015460Y0026200D02*
Y-0001500D01*
X0015370Y0026200D02*
Y-0001500D01*
X0015280Y0026180D02*
Y-0001500D01*
X0015190Y0026090D02*
Y-0001500D01*
X0015100Y0026000D02*
Y-0001500D01*
X0015010Y0025910D02*
Y-0001500D01*
X0014920Y0004120D02*
Y-0001500D01*
X0014830Y0004030D02*
Y-0001500D01*
X0014740Y0003940D02*
Y-0001500D01*
X0014650Y0003850D02*
Y-0001500D01*
X0014560Y0003760D02*
Y-0001500D01*
X0014470Y0003670D02*
Y-0001500D01*
X0014380Y0003580D02*
Y-0001500D01*
X0014290Y0003490D02*
Y-0001500D01*
X0014200Y0003400D02*
Y-0001500D01*
X0014110Y0003310D02*
Y-0001500D01*
X0014020Y0003220D02*
Y-0001500D01*
X0013930Y0003130D02*
Y-0001500D01*
X0013840Y0003040D02*
Y-0001500D01*
X0013750Y0002950D02*
Y-0001500D01*
X0013660Y0002860D02*
Y-0001500D01*
X0013570Y0002770D02*
Y-0001500D01*
X0013480Y0002680D02*
Y-0001500D01*
X0013390Y0002590D02*
Y-0001500D01*
X0013300Y0002500D02*
Y-0001500D01*
X0013210Y0002410D02*
Y-0001500D01*
X0020380Y0008670D02*
X0015000D01*
X0013120Y0002320D02*
Y-0001500D01*
X0013030Y0002230D02*
Y-0001500D01*
X0012940Y0002140D02*
Y-0001500D01*
X0012760Y0001960D02*
Y-0001500D01*
X0012670Y0001870D02*
Y-0001500D01*
X0012580Y0001780D02*
Y-0001500D01*
X0012490Y0001690D02*
Y-0001500D01*
X0012400Y0001600D02*
Y-0001500D01*
X0012850Y0002050D02*
Y-0001500D01*
X0012310Y0001510D02*
Y-0001500D01*
X0012130Y0001330D02*
Y-0001500D01*
X0012040Y0001240D02*
Y-0001500D01*
X0011950Y0001150D02*
Y-0001500D01*
X0011860Y0001060D02*
Y-0001500D01*
X0011770Y0000970D02*
Y-0001500D01*
X0027750Y0029820D02*
X0026550D01*
X0027750Y0032790D02*
X0026550D01*
X0027750Y0032700D02*
X0026550D01*
X0027750Y0032610D02*
X0026550D01*
X0027750Y0032520D02*
X0026550D01*
X0027750Y0032430D02*
X0026550D01*
X0027750Y0032340D02*
X0026550D01*
X0027750Y0032250D02*
X0026550D01*
X0027750Y0032160D02*
X0026550D01*
X0027750Y0032070D02*
X0026550D01*
X0040480Y0026200D02*
Y0021620D01*
X0027750Y0031890D02*
X0026550D01*
X0027750Y0031800D02*
X0026550D01*
X0027750Y0031710D02*
X0026550D01*
X0027750Y0031620D02*
X0026550D01*
X0027750Y0031530D02*
X0026550D01*
X0027750Y0031440D02*
X0026550D01*
X0027750Y0031350D02*
X0026550D01*
X0027750Y0031260D02*
X0026550D01*
X0027750Y0031170D02*
X0026550D01*
X0027750Y0031080D02*
X0026550D01*
X0027750Y0030990D02*
X0026550D01*
X0027750Y0030720D02*
X0026550D01*
X0027750Y0030630D02*
X0026550D01*
X0027750Y0030540D02*
X0026550D01*
X0027750Y0030450D02*
X0026550D01*
X0027750Y0030360D02*
X0026550D01*
X0027750Y0030270D02*
X0026550D01*
X0011590Y0000790D02*
Y-0001500D01*
X0027750Y0030000D02*
X0026550D01*
X0027750Y0029910D02*
X0026550D01*
X0027750Y0030180D02*
X0026550D01*
X0027750Y0029730D02*
X0026550D01*
X0027750Y0029550D02*
X0026550D01*
X0027750Y0029460D02*
X0026550D01*
X0027750Y0029370D02*
X0026550D01*
X0027750Y0029280D02*
X0026550D01*
X0027750Y0029190D02*
X0026550D01*
X0027750Y0029100D02*
X0026550D01*
X0027750Y0029010D02*
X0026550D01*
X0027750Y0028920D02*
X0026550D01*
X0027750Y0028830D02*
X0026550D01*
X0027750Y0028650D02*
X0026500D01*
X0027840Y0028560D02*
X0026410D01*
X0027930Y0028470D02*
X0026320D01*
X0028020Y0028380D02*
X0026230D01*
X0028110Y0028290D02*
X0026140D01*
X0028200Y0028200D02*
X0026050D01*
X0028290Y0028110D02*
X0025960D01*
X0028380Y0028020D02*
X0025870D01*
X0028470Y0027930D02*
X0025780D01*
X0028560Y0027840D02*
X0025690D01*
X0028650Y0027750D02*
X0025600D01*
X0028740Y0027660D02*
X0025510D01*
X0028830Y0027570D02*
X0025420D01*
X0028920Y0027480D02*
X0025330D01*
X0029010Y0027390D02*
X0025240D01*
X0029100Y0027300D02*
X0025150D01*
X0029190Y0027210D02*
X0025060D01*
X0029280Y0027120D02*
X0024970D01*
X0029370Y0027030D02*
X0024880D01*
X0029460Y0026940D02*
X0024790D01*
X0029550Y0026850D02*
X0024700D01*
X0029640Y0026760D02*
X0024610D01*
X0029730Y0026670D02*
X0024520D01*
X0029820Y0026580D02*
X0024430D01*
X0029910Y0026490D02*
X0024340D01*
X0030000Y0026400D02*
X0024250D01*
X0030090Y0026310D02*
X0024160D01*
X0030180Y0026220D02*
X0024070D01*
X0053720Y0026130D02*
X0015230D01*
X0053810Y0026040D02*
X0015140D01*
X0053900Y0025950D02*
X0015050D01*
X0053950Y0025860D02*
X0015000D01*
X0053950Y0025770D02*
X0015000D01*
X0053950Y0025680D02*
X0015000D01*
X0053950Y0025590D02*
X0015000D01*
X0053950Y0025500D02*
X0015000D01*
X0053950Y0025410D02*
X0015000D01*
X0053950Y0025320D02*
X0015000D01*
X0053950Y0025230D02*
X0015000D01*
X0053950Y0025140D02*
X0015000D01*
X0053950Y0025050D02*
X0015000D01*
X0053950Y0024960D02*
X0015000D01*
X0053950Y0024870D02*
X0015000D01*
X0053950Y0024780D02*
X0015000D01*
X0053950Y0024690D02*
X0015000D01*
X0053950Y0024600D02*
X0015000D01*
X0053950Y0024510D02*
X0015000D01*
X0053950Y0024420D02*
X0015000D01*
X0024640Y0026790D02*
Y0019500D01*
X0053950Y0024240D02*
X0015000D01*
X0053950Y0024150D02*
X0015000D01*
X0053950Y0024060D02*
X0015000D01*
X0053950Y0023970D02*
X0015000D01*
X0053950Y0023880D02*
X0015000D01*
X0053950Y0023790D02*
X0015000D01*
X0053950Y0023700D02*
X0015000D01*
X0053950Y0023610D02*
X0015000D01*
X0053950Y0023520D02*
X0015000D01*
X0053950Y0023430D02*
X0015000D01*
X0053950Y0023340D02*
X0015000D01*
X0053950Y0023250D02*
X0015000D01*
X0053950Y0023160D02*
X0015000D01*
X0053950Y0023070D02*
X0015000D01*
X0053950Y0022980D02*
X0015000D01*
X0053950Y0022890D02*
X0015000D01*
X0053950Y0022800D02*
X0015000D01*
X0053950Y0022710D02*
X0015000D01*
X0053950Y0022620D02*
X0015000D01*
X0036730Y0022530D02*
X0015000D01*
X0036640Y0022440D02*
X0015000D01*
X0036550Y0022350D02*
X0015000D01*
X0036460Y0022260D02*
X0015000D01*
X0036370Y0022170D02*
X0015000D01*
X0036280Y0022080D02*
X0015000D01*
X0036190Y0021990D02*
X0015000D01*
X0036100Y0021900D02*
X0015000D01*
X0036010Y0021810D02*
X0015000D01*
X0035920Y0021720D02*
X0015000D01*
X0035830Y0021630D02*
X0015000D01*
X0035740Y0021540D02*
X0015000D01*
X0035650Y0021450D02*
X0015000D01*
X0035560Y0021360D02*
X0015000D01*
X0035470Y0021270D02*
X0015000D01*
X0035380Y0021180D02*
X0015000D01*
X0035290Y0021090D02*
X0015000D01*
X0035200Y0021000D02*
X0015000D01*
X0035110Y0020910D02*
X0015000D01*
X0035020Y0020820D02*
X0015000D01*
X0034930Y0020730D02*
X0015000D01*
X0034840Y0020640D02*
X0015000D01*
X0034750Y0020550D02*
X0015000D01*
X0034660Y0020460D02*
X0015000D01*
X0034570Y0020370D02*
X0015000D01*
X0020470Y0008580D02*
X0015000D01*
X0034480Y0020280D02*
X0015000D01*
X0034300Y0020100D02*
X0015000D01*
X0034210Y0020010D02*
X0015000D01*
X0034120Y0019920D02*
X0015000D01*
X0034030Y0019830D02*
X0015000D01*
X0033940Y0019740D02*
X0015000D01*
X0033850Y0019650D02*
X0015000D01*
X0033760Y0019560D02*
X0015000D01*
X0019900Y0019470D02*
X0015000D01*
X0019900Y0019380D02*
X0015000D01*
X0019900Y0019290D02*
X0015000D01*
X0019900Y0019200D02*
X0015000D01*
X0019900Y0019110D02*
X0015000D01*
X0019900Y0019020D02*
X0015000D01*
X0019900Y0018930D02*
X0015000D01*
X0019900Y0018840D02*
X0015000D01*
X0019900Y0018750D02*
X0015000D01*
X0019900Y0018660D02*
X0015000D01*
X0019900Y0018480D02*
X0015000D01*
X0019900Y0018390D02*
X0015000D01*
X0019900Y0018300D02*
X0015000D01*
X0019900Y0018210D02*
X0015000D01*
X0019900Y0018120D02*
X0015000D01*
X0019900Y0018030D02*
X0015000D01*
X0019900Y0017940D02*
X0015000D01*
X0019900Y0017850D02*
X0015000D01*
X0019900Y0017760D02*
X0015000D01*
X0019900Y0017670D02*
X0015000D01*
X0019900Y0017580D02*
X0015000D01*
X0019900Y0017490D02*
X0015000D01*
X0019900Y0017400D02*
X0015000D01*
X0019900Y0017310D02*
X0015000D01*
X0019900Y0017220D02*
X0015000D01*
X0019900Y0017130D02*
X0015000D01*
X0019900Y0017040D02*
X0015000D01*
X0019900Y0016950D02*
X0015000D01*
X0019900Y0016860D02*
X0015000D01*
X0019900Y0016770D02*
X0015000D01*
X0019900Y0016680D02*
X0015000D01*
X0019900Y0016590D02*
X0015000D01*
X0019900Y0016500D02*
X0015000D01*
X0019900Y0016410D02*
X0015000D01*
X0019900Y0016320D02*
X0015000D01*
X0019900Y0010920D02*
X0015000D01*
X0019900Y0016230D02*
X0015000D01*
X0019900Y0016140D02*
X0015000D01*
X0019900Y0016050D02*
X0015000D01*
X0019900Y0015960D02*
X0015000D01*
X0019900Y0015870D02*
X0015000D01*
X0019900Y0015780D02*
X0015000D01*
X0019900Y0015600D02*
X0015000D01*
X0019900Y0015510D02*
X0015000D01*
X0019900Y0015420D02*
X0015000D01*
X0019900Y0015330D02*
X0015000D01*
X0019900Y0015240D02*
X0015000D01*
X0019900Y0015150D02*
X0015000D01*
X0019900Y0015060D02*
X0015000D01*
X0019900Y0014970D02*
X0015000D01*
X0019900Y0014880D02*
X0015000D01*
X0019900Y0014790D02*
X0015000D01*
X0019900Y0014700D02*
X0015000D01*
X0019900Y0014610D02*
X0015000D01*
X0019900Y0014520D02*
X0015000D01*
X0019900Y0014430D02*
X0015000D01*
X0019900Y0014340D02*
X0015000D01*
X0019900Y0014250D02*
X0015000D01*
X0019900Y0014160D02*
X0015000D01*
X0019900Y0014070D02*
X0015000D01*
X0019900Y0013980D02*
X0015000D01*
X0019900Y0013890D02*
X0015000D01*
X0019900Y0013800D02*
X0015000D01*
X0019900Y0013710D02*
X0015000D01*
X0019900Y0013620D02*
X0015000D01*
X0019900Y0013530D02*
X0015000D01*
X0019900Y0013440D02*
X0015000D01*
X0019900Y0013350D02*
X0015000D01*
X0019900Y0013260D02*
X0015000D01*
X0019900Y0013170D02*
X0015000D01*
X0019900Y0013080D02*
X0015000D01*
X0019900Y0012990D02*
X0015000D01*
X0019900Y0012900D02*
X0015000D01*
X0019900Y0012810D02*
X0015000D01*
X0019900Y0012720D02*
X0015000D01*
X0019900Y0012630D02*
X0015000D01*
X0019900Y0012540D02*
X0015000D01*
X0019900Y0012450D02*
X0015000D01*
X0019900Y0012360D02*
X0015000D01*
X0019900Y0012270D02*
X0015000D01*
X0019900Y0012180D02*
X0015000D01*
X0019900Y0012090D02*
X0015000D01*
X0019900Y0012000D02*
X0015000D01*
X0019900Y0011910D02*
X0015000D01*
X0019900Y0011820D02*
X0015000D01*
X0019900Y0011550D02*
X0015000D01*
X0019900Y0011370D02*
X0015000D01*
X0019900Y0011280D02*
X0015000D01*
X0019900Y0011190D02*
X0015000D01*
X0019900Y0011100D02*
X0015000D01*
X0019900Y0010830D02*
X0015000D01*
X0019900Y0010740D02*
X0015000D01*
X0019900Y0010650D02*
X0015000D01*
X0019900Y0010560D02*
X0015000D01*
X0019900Y0010470D02*
X0015000D01*
X0019900Y0010380D02*
X0015000D01*
X0019900Y0010290D02*
X0015000D01*
X0019900Y0010200D02*
X0015000D01*
X0019900Y0010110D02*
X0015000D01*
X0019900Y0010020D02*
X0015000D01*
X0019900Y0009930D02*
X0015000D01*
X0019900Y0009840D02*
X0015000D01*
X0019900Y0009750D02*
X0015000D01*
X0019900Y0009660D02*
X0015000D01*
X0019900Y0009570D02*
X0015000D01*
X0019900Y0009480D02*
X0015000D01*
X0019900Y0009390D02*
X0015000D01*
X0019900Y0009300D02*
X0015000D01*
X0019900Y0009210D02*
X0015000D01*
X0019930Y0009120D02*
X0015000D01*
X0020020Y0009030D02*
X0015000D01*
X0020110Y0008940D02*
X0015000D01*
X0020200Y0008850D02*
X0015000D01*
X0020290Y0008760D02*
X0015000D01*
X0032830Y0026200D02*
Y0019500D01*
X0020560Y0008490D02*
X0015000D01*
X0020650Y0008400D02*
X0015000D01*
X0020740Y0008310D02*
X0015000D01*
X0020830Y0008220D02*
X0015000D01*
X0020920Y0008130D02*
X0015000D01*
X0021010Y0008040D02*
X0015000D01*
X0021100Y0007950D02*
X0015000D01*
X0021190Y0007860D02*
X0015000D01*
X0021280Y0007770D02*
X0015000D01*
X0019900Y0018570D02*
X0015000D01*
X0021370Y0007680D02*
X0015000D01*
X0021460Y0007590D02*
X0015000D01*
X0021550Y0007500D02*
X0015000D01*
X0021640Y0007410D02*
X0015000D01*
X0022120Y0006930D02*
Y0005420D01*
X0022000Y0007050D02*
X0015000D01*
X0022090Y0006960D02*
X0015000D01*
X0022150Y0006870D02*
X0015000D01*
X0022150Y0006780D02*
X0015000D01*
X0022150Y0006690D02*
X0015000D01*
X0022150Y0006600D02*
X0015000D01*
X0022150Y0006510D02*
X0015000D01*
X0022150Y0006420D02*
X0015000D01*
X0022150Y0006330D02*
X0015000D01*
X0022150Y0006240D02*
X0015000D01*
X0022150Y0006150D02*
X0015000D01*
X0022150Y0006060D02*
X0015000D01*
X0022150Y0005970D02*
X0015000D01*
X0022150Y0005880D02*
X0015000D01*
X0022150Y0005790D02*
X0015000D01*
X0022150Y0005700D02*
X0015000D01*
X0022150Y0005610D02*
X0015000D01*
X0022150Y0005520D02*
X0015000D01*
X0022130Y0005430D02*
X0015000D01*
X0022040Y0005340D02*
X0015000D01*
X0021950Y0005250D02*
X0015000D01*
X0021860Y0005160D02*
X0015000D01*
X0021770Y0005070D02*
X0015000D01*
X0021680Y0004980D02*
X0015000D01*
X0021590Y0004890D02*
X0015000D01*
X0021500Y0004800D02*
X0015000D01*
X0021320Y0004620D02*
X0015000D01*
X0021230Y0004530D02*
X0015000D01*
X0021140Y0004440D02*
X0015000D01*
X0021050Y0004350D02*
X0015000D01*
X0020960Y0004260D02*
X0015000D01*
X0020870Y0004170D02*
X0014970D01*
X0020780Y0004080D02*
X0014880D01*
X0020690Y0003990D02*
X0014790D01*
X0020600Y0003900D02*
X0014700D01*
X0020510Y0003810D02*
X0014610D01*
X0020420Y0003720D02*
X0014520D01*
X0020330Y0003630D02*
X0014430D01*
X0020300Y0003540D02*
X0014340D01*
X0020300Y0003450D02*
X0014250D01*
X0020300Y0003360D02*
X0014160D01*
X0020300Y0003270D02*
X0014070D01*
X0020300Y0003180D02*
X0013980D01*
X0020300Y0003090D02*
X0013890D01*
X0020300Y0003000D02*
X0013800D01*
X0012220Y0001420D02*
Y-0001500D01*
X0020300Y0002730D02*
X0013530D01*
X0020300Y0002640D02*
X0013440D01*
X0021410Y0004710D02*
X0015000D01*
X0020300Y0002550D02*
X0013350D01*
X0020300Y0002460D02*
X0013260D01*
X0020300Y0002370D02*
X0013170D01*
X0020300Y0002280D02*
X0013080D01*
X0020300Y0002190D02*
X0012990D01*
X0020300Y0002100D02*
X0012900D01*
X0020300Y0002010D02*
X0012810D01*
X0020300Y0001920D02*
X0012720D01*
X0020300Y0001830D02*
X0012630D01*
X0020300Y0001740D02*
X0012540D01*
X0020300Y0001650D02*
X0012450D01*
X0020300Y0001560D02*
X0012360D01*
X0020300Y0001470D02*
X0012270D01*
X0020300Y0001380D02*
X0012180D01*
X0020300Y0001290D02*
X0012090D01*
X0020300Y0001200D02*
X0012000D01*
X0020300Y0001110D02*
X0011910D01*
X0020300Y0001020D02*
X0011820D01*
X0020300Y0000930D02*
X0011730D01*
X0020300Y0000840D02*
X0011640D01*
X0020300Y0000750D02*
X0011550D01*
X0020300Y0000660D02*
X0011500D01*
X0020300Y0000570D02*
X0011500D01*
X0020300Y0000480D02*
X0011500D01*
X0020300Y0000390D02*
X0011500D01*
X0020300Y0000300D02*
X0011500D01*
X0020300Y0000210D02*
X0011500D01*
X0020300Y0000120D02*
X0011500D01*
X0020300Y0000030D02*
X0011500D01*
X0020300Y-0000060D02*
X0011500D01*
X0020300Y-0000150D02*
X0011500D01*
X0020300Y-0000240D02*
X0011500D01*
X0020300Y-0000330D02*
X0011500D01*
X0020300Y-0000510D02*
X0011500D01*
X0020300Y-0000600D02*
X0011500D01*
X0020300Y-0000690D02*
X0011500D01*
X0020300Y-0000960D02*
X0011500D01*
X0053800Y0026050D02*
Y0019700D01*
X0020300Y-0001050D02*
X0011500D01*
X0020300Y-0001140D02*
X0011500D01*
X0048940Y0026200D02*
Y0019500D01*
X0053950Y0020100D02*
X0042000D01*
X0037780Y0026200D02*
Y0022600D01*
X0039040Y0026200D02*
Y0022600D01*
X0038950Y0026200D02*
Y0022600D01*
X0038860Y0026200D02*
Y0022600D01*
X0053950Y0020010D02*
X0042090D01*
X0038680Y0026200D02*
Y0022600D01*
X0038590Y0026200D02*
Y0022600D01*
X0038500Y0026200D02*
Y0022600D01*
X0038410Y0026200D02*
Y0022600D01*
X0038320Y0026200D02*
Y0022600D01*
X0038230Y0026200D02*
Y0022600D01*
X0038140Y0026200D02*
Y0022600D01*
X0038050Y0026200D02*
Y0022600D01*
X0037960Y0026200D02*
Y0022600D01*
X0037870Y0026200D02*
Y0022600D01*
X0037690Y0026200D02*
Y0022600D01*
X0037600Y0026200D02*
Y0022600D01*
X0037510Y0026200D02*
Y0022600D01*
X0038770Y0026200D02*
Y0022600D01*
X0053950Y0019920D02*
X0042180D01*
X0053930Y0019830D02*
X0042270D01*
X0053840Y0019740D02*
X0042360D01*
X0053750Y0019650D02*
X0042450D01*
X0053660Y0019560D02*
X0042540D01*
X0032740Y0026200D02*
Y0019500D01*
X0032200Y0026200D02*
Y0019500D01*
X0032110Y0026200D02*
Y0019500D01*
X0032020Y0026200D02*
Y0019500D01*
X0031930Y0026200D02*
Y0019500D01*
X0031840Y0026200D02*
Y0019500D01*
X0031750Y0026200D02*
Y0019500D01*
X0031660Y0026200D02*
Y0019500D01*
X0031570Y0026200D02*
Y0019500D01*
X0031480Y0026200D02*
Y0019500D01*
X0031390Y0026200D02*
Y0019500D01*
X0031300Y0026200D02*
Y0019500D01*
X0031210Y0026200D02*
Y0019500D01*
X0031120Y0026200D02*
Y0019500D01*
X0031030Y0026200D02*
Y0019500D01*
X0030940Y0026200D02*
Y0019500D01*
X0030850Y0026200D02*
Y0019500D01*
X0030760Y0026200D02*
Y0019500D01*
X0030670Y0026200D02*
Y0019500D01*
X0030580Y0026200D02*
Y0019500D01*
X0030490Y0026200D02*
Y0019500D01*
X0030400Y0026200D02*
Y0019500D01*
X0030310Y0026200D02*
Y0019500D01*
X0030220Y0026200D02*
Y0019500D01*
X0030130Y0026270D02*
Y0019500D01*
X0030040Y0026360D02*
Y0019500D01*
X0029950Y0026450D02*
Y0019500D01*
X0029860Y0026540D02*
Y0019500D01*
X0029770Y0026630D02*
Y0019500D01*
X0029680Y0026720D02*
Y0019500D01*
X0029590Y0026810D02*
Y0019500D01*
X0029500Y0026900D02*
Y0019500D01*
X0021820Y0007230D02*
X0015000D01*
X0043360Y0026200D02*
Y0019500D01*
X0021910Y0007140D02*
X0015000D01*
X0020300Y0002820D02*
X0013620D01*
X0053620Y0026200D02*
Y0019520D01*
X0053890Y0025960D02*
Y0019790D01*
X0029140Y0027260D02*
Y0019500D01*
X0029230Y0027170D02*
Y0019500D01*
X0032290Y0026200D02*
Y0019500D01*
X0032380Y0026200D02*
Y0019500D01*
X0032470Y0026200D02*
Y0019500D01*
X0032560Y0026200D02*
Y0019500D01*
X0032650Y0026200D02*
Y0019500D01*
X0029320Y0027080D02*
Y0019500D01*
X0053950Y0024330D02*
X0015000D01*
X0028600Y0027800D02*
Y0019500D01*
X0028510Y0027890D02*
Y0019500D01*
X0028420Y0027980D02*
Y0019500D01*
X0028330Y0028070D02*
Y0019500D01*
X0028240Y0028160D02*
Y0019500D01*
X0028150Y0028250D02*
Y0019500D01*
X0028060Y0028340D02*
Y0019500D01*
X0027970Y0028430D02*
Y0019500D01*
X0027880Y0028520D02*
Y0019500D01*
X0027790Y0028610D02*
Y0019500D01*
X0027700Y0032850D02*
Y0019500D01*
X0027610Y0032850D02*
Y0019500D01*
X0027520Y0032850D02*
Y0019500D01*
X0027340Y0032850D02*
Y0019500D01*
X0027250Y0032850D02*
Y0019500D01*
X0027160Y0032850D02*
Y0019500D01*
X0027070Y0032850D02*
Y0019500D01*
X0026980Y0032850D02*
Y0019500D01*
X0026890Y0032850D02*
Y0019500D01*
X0026800Y0032850D02*
Y0019500D01*
X0026710Y0032850D02*
Y0019500D01*
X0026620Y0032850D02*
Y0019500D01*
X0026530Y0028680D02*
Y0019500D01*
X0026440Y0028590D02*
Y0019500D01*
X0026350Y0028500D02*
Y0019500D01*
X0026260Y0028410D02*
Y0019500D01*
X0026170Y0028320D02*
Y0019500D01*
X0026080Y0028230D02*
Y0019500D01*
X0025990Y0028140D02*
Y0019500D01*
X0025900Y0028050D02*
Y0019500D01*
X0025810Y0027960D02*
Y0019500D01*
X0025720Y0027870D02*
Y0019500D01*
X0025630Y0027780D02*
Y0019500D01*
X0025540Y0027690D02*
Y0019500D01*
X0025450Y0027600D02*
Y0019500D01*
X0025360Y0027510D02*
Y0019500D01*
X0025270Y0027420D02*
Y0019500D01*
X0025180Y0027330D02*
Y0019500D01*
X0025090Y0027240D02*
Y0019500D01*
X0025000Y0027150D02*
Y0019500D01*
X0024910Y0027060D02*
Y0019500D01*
X0024820Y0026970D02*
Y0019500D01*
X0024730Y0026880D02*
Y0019500D01*
X0027430Y0032850D02*
Y0019500D01*
X0024550Y0026700D02*
Y0019500D01*
X0024460Y0026610D02*
Y0019500D01*
X0024370Y0026520D02*
Y0019500D01*
X0024280Y0026430D02*
Y0019500D01*
X0024190Y0026340D02*
Y0019500D01*
X0024100Y0026250D02*
Y0019500D01*
X0024010Y0026200D02*
Y0019500D01*
X0023920Y0026200D02*
Y0019500D01*
X0023830Y0026200D02*
Y0019500D01*
X0023740Y0026200D02*
Y0019500D01*
X0023650Y0026200D02*
Y0019500D01*
X0023560Y0026200D02*
Y0019500D01*
X0023470Y0026200D02*
Y0019500D01*
X0019900Y0015690D02*
X0015000D01*
X0053950Y0020190D02*
X0041910D01*
X0053950Y0020280D02*
X0041820D01*
X0053950Y0020370D02*
X0041730D01*
X0053950Y0020460D02*
X0041640D01*
X0053950Y0020550D02*
X0041550D01*
X0053950Y0020640D02*
X0041460D01*
X0053950Y0020730D02*
X0041370D01*
X0053950Y0020820D02*
X0041280D01*
X0053950Y0020910D02*
X0041190D01*
X0053950Y0021000D02*
X0041100D01*
X0053950Y0021090D02*
X0041010D01*
X0053950Y0021180D02*
X0040920D01*
X0053950Y0021270D02*
X0040830D01*
X0053950Y0021360D02*
X0040740D01*
X0053950Y0021450D02*
X0040650D01*
X0053950Y0021540D02*
X0040560D01*
X0053950Y0021630D02*
X0040470D01*
X0053950Y0021720D02*
X0040380D01*
X0053950Y0021810D02*
X0040290D01*
X0053950Y0021900D02*
X0040200D01*
X0053950Y0021990D02*
X0040110D01*
X0053950Y0022080D02*
X0040020D01*
X0053950Y0022170D02*
X0039930D01*
X0053950Y0022260D02*
X0039840D01*
X0053950Y0022350D02*
X0039750D01*
X0053950Y0022440D02*
X0039660D01*
X0053950Y0022530D02*
X0039570D01*
X0052900Y0026200D02*
Y0019500D01*
X0052810Y0026200D02*
Y0019500D01*
X0052720Y0026200D02*
Y0019500D01*
X0052630Y0026200D02*
Y0019500D01*
X0052540Y0026200D02*
Y0019500D01*
X0052450Y0026200D02*
Y0019500D01*
X0052360Y0026200D02*
Y0019500D01*
X0052270Y0026200D02*
Y0019500D01*
X0052180Y0026200D02*
Y0019500D01*
X0052090Y0026200D02*
Y0019500D01*
X0052000Y0026200D02*
Y0019500D01*
X0051910Y0026200D02*
Y0019500D01*
X0051820Y0026200D02*
Y0019500D01*
X0051730Y0026200D02*
Y0019500D01*
X0051550Y0026200D02*
Y0019500D01*
X0051460Y0026200D02*
Y0019500D01*
X0051370Y0026200D02*
Y0019500D01*
X0051280Y0026200D02*
Y0019500D01*
X0051190Y0026200D02*
Y0019500D01*
X0051100Y0026200D02*
Y0019500D01*
X0051010Y0026200D02*
Y0019500D01*
X0050920Y0026200D02*
Y0019500D01*
X0050830Y0026200D02*
Y0019500D01*
X0050740Y0026200D02*
Y0019500D01*
X0050650Y0026200D02*
Y0019500D01*
X0050560Y0026200D02*
Y0019500D01*
X0050380Y0026200D02*
Y0019500D01*
X0050290Y0026200D02*
Y0019500D01*
X0050200Y0026200D02*
Y0019500D01*
X0050110Y0026200D02*
Y0019500D01*
X0050020Y0026200D02*
Y0019500D01*
X0049930Y0026200D02*
Y0019500D01*
X0049840Y0026200D02*
Y0019500D01*
X0049750Y0026200D02*
Y0019500D01*
X0049660Y0026200D02*
Y0019500D01*
X0049570Y0026200D02*
Y0019500D01*
X0049480Y0026200D02*
Y0019500D01*
X0049390Y0026200D02*
Y0019500D01*
X0049300Y0026200D02*
Y0019500D01*
X0049210Y0026200D02*
Y0019500D01*
X0049120Y0026200D02*
Y0019500D01*
X0049030Y0026200D02*
Y0019500D01*
X0051640Y0026200D02*
Y0019500D01*
X0048850Y0026200D02*
Y0019500D01*
X0048760Y0026200D02*
Y0019500D01*
X0048580Y0026200D02*
Y0019500D01*
X0048490Y0026200D02*
Y0019500D01*
X0048400Y0026200D02*
Y0019500D01*
X0048310Y0026200D02*
Y0019500D01*
X0048220Y0026200D02*
Y0019500D01*
X0048130Y0026200D02*
Y0019500D01*
X0048040Y0026200D02*
Y0019500D01*
X0047950Y0026200D02*
Y0019500D01*
X0047860Y0026200D02*
Y0019500D01*
X0047770Y0026200D02*
Y0019500D01*
X0047680Y0026200D02*
Y0019500D01*
X0050470Y0026200D02*
Y0019500D01*
X0027750Y0030810D02*
X0026550D01*
X0011680Y0000880D02*
Y-0001500D01*
X0027750Y0031980D02*
X0026550D01*
X0027750Y0028740D02*
X0026550D01*
X0019900Y0011460D02*
X0015000D01*
X0040750Y0026200D02*
Y0021350D01*
X0020300Y-0001230D02*
X0011500D01*
X0053710Y0026140D02*
Y0019610D01*
X0027750Y0030090D02*
X0026550D01*
X0020300Y-0001320D02*
X0011500D01*
X0037420Y0026200D02*
Y0022600D01*
X0029410Y0026990D02*
Y0019500D01*
X0028690Y0027710D02*
Y0019500D01*
X0028780Y0027620D02*
Y0019500D01*
X0028870Y0027530D02*
Y0019500D01*
X0028960Y0027440D02*
Y0019500D01*
X0023380Y0026200D02*
Y0019500D01*
X0048670Y0026200D02*
Y0019500D01*
X0047590Y0026200D02*
Y0019500D01*
X0020300Y-0001500D02*
X0011600D01*
X0020300Y0003600D02*
Y-0001500D01*
X0022150Y0005450D02*
X0020300Y0003600D01*
X0022150Y0006900D02*
Y0005450D01*
X0019900Y0009150D02*
X0022150Y0006900D01*
X0019900Y0019500D02*
Y0009150D01*
X0033700Y0019500D02*
X0019900D01*
X0036800Y0022600D02*
X0033700Y0019500D01*
X0039500Y0022600D02*
X0036800D01*
X0039500D02*
X0042600Y0019500D01*
X0053600D02*
X0042600D01*
X0053950Y0019850D02*
X0053600Y0019500D01*
X0053950Y0025900D02*
Y0019850D01*
X0053650Y0026200D02*
X0053950Y0025900D01*
X0053650Y0026200D02*
X0030200D01*
X0027750Y0028650D02*
X0030200Y0026200D01*
X0027750Y0032850D02*
Y0028650D01*
Y0032850D02*
X0026550D01*
Y0028700D01*
X0024050Y0026200D01*
X0015300D01*
X0015000Y0025900D01*
Y0004200D01*
X0011500Y0000700D01*
Y-0001500D01*
X0011600D02*
X0011500D01*
X0053530Y0026200D02*
Y0019500D01*
X0053440Y0026200D02*
Y0019500D01*
X0053350Y0026200D02*
Y0019500D01*
X0053260Y0026200D02*
Y0019500D01*
X0053170Y0026200D02*
Y0019500D01*
X0053080Y0026200D02*
Y0019500D01*
X0019900Y0011730D02*
X0015000D01*
X0052990Y0026200D02*
Y0019500D01*
X0047500Y0026200D02*
Y0019500D01*
X0047410Y0026200D02*
Y0019500D01*
X0047320Y0026200D02*
Y0019500D01*
X0047230Y0026200D02*
Y0019500D01*
X0047140Y0026200D02*
Y0019500D01*
X0047050Y0026200D02*
Y0019500D01*
X0046960Y0026200D02*
Y0019500D01*
X0046870Y0026200D02*
Y0019500D01*
X0046780Y0026200D02*
Y0019500D01*
X0046690Y0026200D02*
Y0019500D01*
X0046600Y0026200D02*
Y0019500D01*
X0046510Y0026200D02*
Y0019500D01*
X0046420Y0026200D02*
Y0019500D01*
X0046330Y0026200D02*
Y0019500D01*
X0046240Y0026200D02*
Y0019500D01*
X0046150Y0026200D02*
Y0019500D01*
X0046060Y0026200D02*
Y0019500D01*
X0045970Y0026200D02*
Y0019500D01*
X0045880Y0026200D02*
Y0019500D01*
X0045790Y0026200D02*
Y0019500D01*
X0045700Y0026200D02*
Y0019500D01*
X0045610Y0026200D02*
Y0019500D01*
X0045520Y0026200D02*
Y0019500D01*
X0045430Y0026200D02*
Y0019500D01*
X0045340Y0026200D02*
Y0019500D01*
X0045250Y0026200D02*
Y0019500D01*
X0045160Y0026200D02*
Y0019500D01*
X0045070Y0026200D02*
Y0019500D01*
X0044980Y0026200D02*
Y0019500D01*
X0044890Y0026200D02*
Y0019500D01*
X0044800Y0026200D02*
Y0019500D01*
X0044710Y0026200D02*
Y0019500D01*
X0044620Y0026200D02*
Y0019500D01*
X0044530Y0026200D02*
Y0019500D01*
X0044440Y0026200D02*
Y0019500D01*
X0044350Y0026200D02*
Y0019500D01*
X0044260Y0026200D02*
Y0019500D01*
X0044170Y0026200D02*
Y0019500D01*
X0044080Y0026200D02*
Y0019500D01*
X0022120Y0026200D02*
Y0019500D01*
X0022030Y0026200D02*
Y0019500D01*
X0021940Y0026200D02*
Y0019500D01*
X0021850Y0026200D02*
Y0019500D01*
X0021760Y0026200D02*
Y0019500D01*
X0021670Y0026200D02*
Y0019500D01*
X0021580Y0026200D02*
Y0019500D01*
X0021490Y0026200D02*
Y0019500D01*
X0021400Y0026200D02*
Y0019500D01*
X0021310Y0026200D02*
Y0019500D01*
X0021220Y0026200D02*
Y0019500D01*
X0021130Y0026200D02*
Y0019500D01*
X0021040Y0026200D02*
Y0019500D01*
X0020950Y0026200D02*
Y0019500D01*
X0020860Y0026200D02*
Y0019500D01*
X0020770Y0026200D02*
Y0019500D01*
X0020680Y0026200D02*
Y0019500D01*
X0020590Y0026200D02*
Y0019500D01*
X0020500Y0026200D02*
Y0019500D01*
X0020410Y0026200D02*
Y0019500D01*
X0020320Y0026200D02*
Y0019500D01*
X0020230Y0026200D02*
Y0019500D01*
X0020140Y0026200D02*
Y0019500D01*
X0020050Y0026200D02*
Y0019500D01*
X0019960Y0026200D02*
Y0019500D01*
X0033820Y0026200D02*
Y0019620D01*
X0033730Y0026200D02*
Y0019530D01*
X0033640Y0026200D02*
Y0019500D01*
X0035440Y0026200D02*
Y0021240D01*
X0035350Y0026200D02*
Y0021150D01*
X0035260Y0026200D02*
Y0021060D01*
X0035710Y0026200D02*
Y0021510D01*
X0035620Y0026200D02*
Y0021420D01*
X0035530Y0026200D02*
Y0021330D01*
X0035170Y0026200D02*
Y0020970D01*
X0035080Y0026200D02*
Y0020880D01*
X0034990Y0026200D02*
Y0020790D01*
X0034900Y0026200D02*
Y0020700D01*
X0034810Y0026200D02*
Y0020610D01*
X0034720Y0026200D02*
Y0020520D01*
X0034630Y0026200D02*
Y0020430D01*
X0034540Y0026200D02*
Y0020340D01*
X0034450Y0026200D02*
Y0020250D01*
X0034360Y0026200D02*
Y0020160D01*
X0034270Y0026200D02*
Y0020070D01*
X0034180Y0026200D02*
Y0019980D01*
X0034090Y0026200D02*
Y0019890D01*
X0034000Y0026200D02*
Y0019800D01*
X0033910Y0026200D02*
Y0019710D01*
X0033550Y0026200D02*
Y0019500D01*
X0033460Y0026200D02*
Y0019500D01*
X0033370Y0026200D02*
Y0019500D01*
X0033280Y0026200D02*
Y0019500D01*
X0033190Y0026200D02*
Y0019500D01*
X0033100Y0026200D02*
Y0019500D01*
X0033010Y0026200D02*
Y0019500D01*
X0032920Y0026200D02*
Y0019500D01*
X0020300Y-0001410D02*
X0011500D01*
X0027750Y0029640D02*
X0026550D01*
X0031240Y0003390D02*
X0025040D01*
X0033930Y0008400D02*
Y0005400D01*
X0028200Y-0000300D02*
X0024300D01*
X0035460Y0008400D02*
Y0005400D01*
X0035370Y0008400D02*
Y0005400D01*
X0035280Y0008400D02*
Y0005400D01*
X0035190Y0008400D02*
Y0005400D01*
X0024390Y0002740D02*
Y-0001650D01*
X0028200D02*
X0024400D01*
X0028200Y0000350D02*
Y-0001650D01*
X0033250Y0005400D02*
X0028200Y0000350D01*
X0035600Y0005400D02*
X0033250D01*
X0035600Y0008400D02*
Y0005400D01*
Y0008400D02*
X0030050D01*
X0024300Y0002650D01*
Y-0001650D01*
X0024400D02*
X0024300D01*
X0028200Y-0000210D02*
X0024300D01*
X0035550Y0008400D02*
Y0005400D01*
X0034920Y0008400D02*
Y0005400D01*
X0034830Y0008400D02*
Y0005400D01*
X0034740Y0008400D02*
Y0005400D01*
X0034650Y0008400D02*
Y0005400D01*
X0034560Y0008400D02*
Y0005400D01*
X0034470Y0008400D02*
Y0005400D01*
X0034380Y0008400D02*
Y0005400D01*
X0034290Y0008400D02*
Y0005400D01*
X0034200Y0008400D02*
Y0005400D01*
X0034110Y0008400D02*
Y0005400D01*
X0034020Y0008400D02*
Y0005400D01*
X0028200Y-0000930D02*
X0024300D01*
X0033840Y0008400D02*
Y0005400D01*
X0033750Y0008400D02*
Y0005400D01*
X0033660Y0008400D02*
Y0005400D01*
X0033570Y0008400D02*
Y0005400D01*
X0033480Y0008400D02*
Y0005400D01*
X0033300Y0008400D02*
Y0005400D01*
X0033210Y0008400D02*
Y0005360D01*
X0033120Y0008400D02*
Y0005270D01*
X0033030Y0008400D02*
Y0005180D01*
X0032940Y0008400D02*
Y0005090D01*
X0032850Y0008400D02*
Y0005000D01*
X0032760Y0008400D02*
Y0004910D01*
X0032670Y0008400D02*
Y0004820D01*
X0032580Y0008400D02*
Y0004730D01*
X0032490Y0008400D02*
Y0004640D01*
X0032400Y0008400D02*
Y0004550D01*
X0032310Y0008400D02*
Y0004460D01*
X0032220Y0008400D02*
Y0004370D01*
X0032130Y0008400D02*
Y0004280D01*
X0032040Y0008400D02*
Y0004190D01*
X0031950Y0008400D02*
Y0004100D01*
X0031860Y0008400D02*
Y0004010D01*
X0031770Y0008400D02*
Y0003920D01*
X0031680Y0008400D02*
Y0003830D01*
X0031590Y0008400D02*
Y0003740D01*
X0031500Y0008400D02*
Y0003650D01*
X0031410Y0008400D02*
Y0003560D01*
X0031320Y0008400D02*
Y0003470D01*
X0031230Y0008400D02*
Y0003380D01*
X0031140Y0008400D02*
Y0003290D01*
X0031050Y0008400D02*
Y0003200D01*
X0030960Y0008400D02*
Y0003110D01*
X0030870Y0008400D02*
Y0003020D01*
X0030780Y0008400D02*
Y0002930D01*
X0030690Y0008400D02*
Y0002840D01*
X0030600Y0008400D02*
Y0002750D01*
X0030510Y0008400D02*
Y0002660D01*
X0030420Y0008400D02*
Y0002570D01*
X0030330Y0008400D02*
Y0002480D01*
X0030240Y0008400D02*
Y0002390D01*
X0030150Y0008400D02*
Y0002300D01*
X0030060Y0008400D02*
Y0002210D01*
X0029970Y0008320D02*
Y0002120D01*
X0029880Y0008230D02*
Y0002030D01*
X0029790Y0008140D02*
Y0001940D01*
X0029700Y0008050D02*
Y0001850D01*
X0029610Y0007960D02*
Y0001760D01*
X0029520Y0007870D02*
Y0001670D01*
X0029430Y0007780D02*
Y0001580D01*
X0029340Y0007690D02*
Y0001490D01*
X0029250Y0007600D02*
Y0001400D01*
X0029160Y0007510D02*
Y0001310D01*
X0029070Y0007420D02*
Y0001220D01*
X0028980Y0007330D02*
Y0001130D01*
X0028890Y0007240D02*
Y0001040D01*
X0028800Y0007150D02*
Y0000950D01*
X0028710Y0007060D02*
Y0000860D01*
X0028620Y0006970D02*
Y0000770D01*
X0028530Y0006880D02*
Y0000680D01*
X0028440Y0006790D02*
Y0000590D01*
X0028350Y0006700D02*
Y0000500D01*
X0028260Y0006610D02*
Y0000410D01*
X0028170Y0006520D02*
Y-0001650D01*
X0028080Y0006430D02*
Y-0001650D01*
X0027990Y0006340D02*
Y-0001650D01*
X0027900Y0006250D02*
Y-0001650D01*
X0027810Y0006160D02*
Y-0001650D01*
X0027720Y0006070D02*
Y-0001650D01*
X0027630Y0005980D02*
Y-0001650D01*
X0027540Y0005890D02*
Y-0001650D01*
X0027450Y0005800D02*
Y-0001650D01*
X0027360Y0005710D02*
Y-0001650D01*
X0027270Y0005620D02*
Y-0001650D01*
X0027180Y0005530D02*
Y-0001650D01*
X0027090Y0005440D02*
Y-0001650D01*
X0027000Y0005350D02*
Y-0001650D01*
X0026910Y0005260D02*
Y-0001650D01*
X0026820Y0005170D02*
Y-0001650D01*
X0026730Y0005080D02*
Y-0001650D01*
X0026640Y0004990D02*
Y-0001650D01*
X0026550Y0004900D02*
Y-0001650D01*
X0026460Y0004810D02*
Y-0001650D01*
X0026370Y0004720D02*
Y-0001650D01*
X0026280Y0004630D02*
Y-0001650D01*
X0026190Y0004540D02*
Y-0001650D01*
X0026100Y0004450D02*
Y-0001650D01*
X0026010Y0004360D02*
Y-0001650D01*
X0025920Y0004270D02*
Y-0001650D01*
X0025830Y0004180D02*
Y-0001650D01*
X0025740Y0004090D02*
Y-0001650D01*
X0025650Y0004000D02*
Y-0001650D01*
X0025560Y0003910D02*
Y-0001650D01*
X0025470Y0003820D02*
Y-0001650D01*
X0025380Y0003730D02*
Y-0001650D01*
X0025290Y0003640D02*
Y-0001650D01*
X0025200Y0003550D02*
Y-0001650D01*
X0025110Y0003460D02*
Y-0001650D01*
X0025020Y0003370D02*
Y-0001650D01*
X0024930Y0003280D02*
Y-0001650D01*
X0024840Y0003190D02*
Y-0001650D01*
X0024750Y0003100D02*
Y-0001650D01*
X0024660Y0003010D02*
Y-0001650D01*
X0024570Y0002920D02*
Y-0001650D01*
X0024480Y0002830D02*
Y-0001650D01*
X0035100Y0008400D02*
Y0005400D01*
X0035600Y0008340D02*
X0029990D01*
X0035600Y0008250D02*
X0029900D01*
X0035600Y0008160D02*
X0029810D01*
X0035600Y0008070D02*
X0029720D01*
X0035600Y0007980D02*
X0029630D01*
X0035600Y0007890D02*
X0029540D01*
X0035600Y0007800D02*
X0029450D01*
X0035600Y0007710D02*
X0029360D01*
X0035600Y0007620D02*
X0029270D01*
X0035600Y0007530D02*
X0029180D01*
X0035600Y0007440D02*
X0029090D01*
X0035600Y0007350D02*
X0029000D01*
X0035600Y0007260D02*
X0028910D01*
X0035600Y0007170D02*
X0028820D01*
X0035600Y0007080D02*
X0028730D01*
X0035600Y0006990D02*
X0028640D01*
X0035600Y0006900D02*
X0028550D01*
X0035600Y0006810D02*
X0028460D01*
X0035600Y0006720D02*
X0028370D01*
X0035600Y0006630D02*
X0028280D01*
X0035600Y0006540D02*
X0028190D01*
X0035600Y0006450D02*
X0028100D01*
X0035600Y0006360D02*
X0028010D01*
X0035600Y0006270D02*
X0027920D01*
X0035600Y0006180D02*
X0027830D01*
X0035600Y0006090D02*
X0027740D01*
X0035600Y0006000D02*
X0027650D01*
X0035600Y0005910D02*
X0027560D01*
X0035600Y0005820D02*
X0027470D01*
X0035600Y0005730D02*
X0027380D01*
X0035600Y0005640D02*
X0027290D01*
X0035600Y0005550D02*
X0027200D01*
X0035600Y0005460D02*
X0027110D01*
X0033220Y0005370D02*
X0027020D01*
X0033130Y0005280D02*
X0026930D01*
X0033040Y0005190D02*
X0026840D01*
X0032950Y0005100D02*
X0026750D01*
X0032860Y0005010D02*
X0026660D01*
X0032770Y0004920D02*
X0026570D01*
X0032680Y0004830D02*
X0026480D01*
X0032590Y0004740D02*
X0026390D01*
X0032500Y0004650D02*
X0026300D01*
X0032410Y0004560D02*
X0026210D01*
X0032320Y0004470D02*
X0026120D01*
X0032230Y0004380D02*
X0026030D01*
X0032140Y0004290D02*
X0025940D01*
X0032050Y0004200D02*
X0025850D01*
X0031960Y0004110D02*
X0025760D01*
X0031870Y0004020D02*
X0025670D01*
X0031780Y0003930D02*
X0025580D01*
X0031690Y0003840D02*
X0025490D01*
X0031600Y0003750D02*
X0025400D01*
X0031510Y0003660D02*
X0025310D01*
X0031420Y0003570D02*
X0025220D01*
X0031330Y0003480D02*
X0025130D01*
X0031150Y0003300D02*
X0024950D01*
X0031060Y0003210D02*
X0024860D01*
X0030970Y0003120D02*
X0024770D01*
X0030880Y0003030D02*
X0024680D01*
X0030790Y0002940D02*
X0024590D01*
X0030700Y0002850D02*
X0024500D01*
X0030610Y0002760D02*
X0024410D01*
X0030520Y0002670D02*
X0024320D01*
X0030430Y0002580D02*
X0024300D01*
X0030340Y0002490D02*
X0024300D01*
X0030250Y0002400D02*
X0024300D01*
X0030160Y0002310D02*
X0024300D01*
X0030070Y0002220D02*
X0024300D01*
X0029980Y0002130D02*
X0024300D01*
X0029890Y0002040D02*
X0024300D01*
X0029800Y0001950D02*
X0024300D01*
X0029710Y0001860D02*
X0024300D01*
X0029620Y0001770D02*
X0024300D01*
X0029530Y0001680D02*
X0024300D01*
X0029440Y0001590D02*
X0024300D01*
X0029350Y0001500D02*
X0024300D01*
X0029260Y0001410D02*
X0024300D01*
X0029170Y0001320D02*
X0024300D01*
X0029080Y0001230D02*
X0024300D01*
X0028990Y0001140D02*
X0024300D01*
X0028900Y0001050D02*
X0024300D01*
X0028810Y0000960D02*
X0024300D01*
X0028720Y0000870D02*
X0024300D01*
X0028630Y0000780D02*
X0024300D01*
X0028540Y0000690D02*
X0024300D01*
X0028450Y0000600D02*
X0024300D01*
X0028360Y0000510D02*
X0024300D01*
X0028270Y0000420D02*
X0024300D01*
X0028200Y0000330D02*
X0024300D01*
X0028200Y0000240D02*
X0024300D01*
X0033390Y0008400D02*
Y0005400D01*
X0028200Y0000150D02*
X0024300D01*
X0028200Y0000060D02*
X0024300D01*
X0028200Y-0000030D02*
X0024300D01*
X0028200Y-0000120D02*
X0024300D01*
X0028200Y-0000390D02*
X0024300D01*
X0035010Y0008400D02*
Y0005400D01*
X0028200Y-0000480D02*
X0024300D01*
X0028200Y-0000570D02*
X0024300D01*
X0028200Y-0000660D02*
X0024300D01*
X0028200Y-0000750D02*
X0024300D01*
X0028200Y-0000840D02*
X0024300D01*
X0028200Y-0001020D02*
X0024300D01*
X0028200Y-0001110D02*
X0024300D01*
X0028200Y-0001200D02*
X0024300D01*
X0028200Y-0001290D02*
X0024300D01*
X0028200Y-0001380D02*
X0024300D01*
X0028200Y-0001470D02*
X0024300D01*
X0028200Y-0001560D02*
X0024300D01*
X-0000200Y0070150D02*
Y0004700D01*
X-0000290Y0070150D02*
Y0004700D01*
X-0000380Y0070150D02*
Y0004700D01*
X-0000470Y0070150D02*
Y0004700D01*
X-0000560Y0070150D02*
Y0004700D01*
X-0000650Y0070150D02*
Y0004700D01*
X-0000740Y0070150D02*
Y0004700D01*
X-0000830Y0070150D02*
Y0004700D01*
X-0000920Y0070150D02*
Y0004700D01*
X-0001010Y0070150D02*
Y0004700D01*
X-0001100Y0070150D02*
Y0004700D01*
X-0001190Y0070150D02*
Y0004700D01*
X-0001280Y0070150D02*
Y0004700D01*
X-0001370Y0070150D02*
Y0004700D01*
X0011590Y0070150D02*
Y0031690D01*
X0012820Y0070130D02*
X-0001550D01*
X0012910Y0070040D02*
X-0001550D01*
X0013000Y0069950D02*
X-0001550D01*
X0013090Y0069860D02*
X-0001550D01*
X0013180Y0069770D02*
X-0001550D01*
X0013270Y0069680D02*
X-0001550D01*
X0013360Y0069590D02*
X-0001550D01*
X0013450Y0069500D02*
X-0001550D01*
X0013540Y0069410D02*
X-0001550D01*
X0013630Y0069320D02*
X-0001550D01*
X0010960Y0070150D02*
Y0069150D01*
X0013720Y0069230D02*
X-0001550D01*
X0008950Y0069140D02*
X-0001550D01*
X0008950Y0069050D02*
X-0001550D01*
X0008950Y0068960D02*
X-0001550D01*
X0008950Y0068870D02*
X-0001550D01*
X0008950Y0068780D02*
X-0001550D01*
X0008950Y0068690D02*
X-0001550D01*
X0009700Y0070150D02*
Y0069150D01*
X0008950Y0068600D02*
X-0001550D01*
X0008950Y0068510D02*
X-0001550D01*
X0008950Y0068420D02*
X-0001550D01*
X0008950Y0068330D02*
X-0001550D01*
X0008950Y0068240D02*
X-0001550D01*
X0008950Y0068150D02*
X-0001550D01*
X0008950Y0068060D02*
X-0001550D01*
X0008950Y0067970D02*
X-0001550D01*
X0008950Y0067880D02*
X-0001550D01*
X0008950Y0067790D02*
X-0001550D01*
X0015340Y0067610D02*
X0011150D01*
X0008950D02*
X-0001550D01*
X0008950Y0067430D02*
X-0001550D01*
X0002400Y0067340D02*
X-0001550D01*
X0002400Y0067250D02*
X-0001550D01*
X0002400Y0067160D02*
X-0001550D01*
X0002400Y0067070D02*
X-0001550D01*
X0002400Y0066980D02*
X-0001550D01*
X0002400Y0066890D02*
X-0001550D01*
X0002400Y0066800D02*
X-0001550D01*
X0013900Y0039440D02*
X0011350D01*
X0002400Y0064460D02*
X-0001550D01*
X0002400Y0066530D02*
X-0001550D01*
X0002400Y0066440D02*
X-0001550D01*
X0003130Y0062600D02*
Y0052550D01*
X0002590Y0017450D02*
Y0004700D01*
X0002400Y0066170D02*
X-0001550D01*
X0002400Y0066080D02*
X-0001550D01*
X0002400Y0065990D02*
X-0001550D01*
X0002400Y0065900D02*
X-0001550D01*
X0002400Y0065810D02*
X-0001550D01*
X0002400Y0065720D02*
X-0001550D01*
X0002400Y0065630D02*
X-0001550D01*
X0002400Y0065450D02*
X-0001550D01*
X0003310Y0062600D02*
Y0052550D01*
X0002400Y0065360D02*
X-0001550D01*
X0002400Y0065270D02*
X-0001550D01*
X0002400Y0065180D02*
X-0001550D01*
X0002400Y0065090D02*
X-0001550D01*
X0002400Y0065000D02*
X-0001550D01*
X0002400Y0064910D02*
X-0001550D01*
X0002400Y0064820D02*
X-0001550D01*
X0002400Y0064730D02*
X-0001550D01*
X0002400Y0064640D02*
X-0001550D01*
X0002400Y0064550D02*
X-0001550D01*
X0003220Y0062600D02*
Y0052550D01*
X0002400Y0064370D02*
X-0001550D01*
X0002400Y0064280D02*
X-0001550D01*
X0002400Y0064190D02*
X-0001550D01*
X0002400Y0064100D02*
X-0001550D01*
X0002400Y0064010D02*
X-0001550D01*
X0002400Y0063920D02*
X-0001550D01*
X0002400Y0063830D02*
X-0001550D01*
X0002400Y0063740D02*
X-0001550D01*
X0002400Y0063650D02*
X-0001550D01*
X0002400Y0063560D02*
X-0001550D01*
X0002400Y0063380D02*
X-0001550D01*
X0002400Y0063290D02*
X-0001550D01*
X0002400Y0063200D02*
X-0001550D01*
X0002400Y0063110D02*
X-0001550D01*
X0002400Y0063020D02*
X-0001550D01*
X0002400Y0062930D02*
X-0001550D01*
X0002400Y0062840D02*
X-0001550D01*
X0002400Y0062660D02*
X-0001550D01*
X0016100Y0062570D02*
X-0001550D01*
X0016100Y0062480D02*
X-0001550D01*
X0016100Y0062390D02*
X-0001550D01*
X0016100Y0062300D02*
X-0001550D01*
X0016100Y0062210D02*
X-0001550D01*
X0016100Y0062120D02*
X-0001550D01*
X0016100Y0062030D02*
X-0001550D01*
X0016100Y0061940D02*
X-0001550D01*
X0016100Y0061850D02*
X-0001550D01*
X0016100Y0061760D02*
X-0001550D01*
X0016100Y0061670D02*
X-0001550D01*
X0016030Y0061580D02*
X-0001550D01*
X0015940Y0061490D02*
X-0001550D01*
X0015850Y0061400D02*
X-0001550D01*
X0015760Y0061310D02*
X-0001550D01*
X0015670Y0061220D02*
X-0001550D01*
X0015580Y0061130D02*
X-0001550D01*
X0015490Y0061040D02*
X-0001550D01*
X0015400Y0060950D02*
X-0001550D01*
X0015310Y0060860D02*
X-0001550D01*
X0015220Y0060770D02*
X-0001550D01*
X0015130Y0060680D02*
X-0001550D01*
X0015040Y0060590D02*
X-0001550D01*
X0014950Y0060500D02*
X-0001550D01*
X0014860Y0060410D02*
X-0001550D01*
X0014770Y0060320D02*
X-0001550D01*
X0014680Y0060230D02*
X-0001550D01*
X0014590Y0060140D02*
X-0001550D01*
X0014500Y0060050D02*
X-0001550D01*
X0014410Y0059960D02*
X-0001550D01*
X0014320Y0059870D02*
X-0001550D01*
X0014230Y0059780D02*
X-0001550D01*
X0014140Y0059690D02*
X-0001550D01*
X0014050Y0059600D02*
X-0001550D01*
X0013960Y0059510D02*
X-0001550D01*
X0013900Y0059420D02*
X-0001550D01*
X0013900Y0059330D02*
X-0001550D01*
X0013900Y0059240D02*
X-0001550D01*
X0013900Y0059150D02*
X-0001550D01*
X0013900Y0059060D02*
X-0001550D01*
X0013900Y0058970D02*
X-0001550D01*
X0013900Y0058880D02*
X-0001550D01*
X0013900Y0058790D02*
X-0001550D01*
X0013900Y0058700D02*
X-0001550D01*
X0013900Y0058610D02*
X-0001550D01*
X0013900Y0058520D02*
X-0001550D01*
X0013900Y0058430D02*
X-0001550D01*
X0013900Y0058340D02*
X-0001550D01*
X0013900Y0058250D02*
X-0001550D01*
X0013900Y0058160D02*
X-0001550D01*
X0013900Y0058070D02*
X-0001550D01*
X0013900Y0057980D02*
X-0001550D01*
X0013900Y0057890D02*
X-0001550D01*
X0013900Y0057800D02*
X-0001550D01*
X0013900Y0057710D02*
X-0001550D01*
X0013900Y0057620D02*
X-0001550D01*
X0013900Y0057530D02*
X-0001550D01*
X0013900Y0057440D02*
X-0001550D01*
X0013900Y0057350D02*
X-0001550D01*
X0013900Y0057260D02*
X-0001550D01*
X0013900Y0057170D02*
X-0001550D01*
X0013900Y0057080D02*
X-0001550D01*
X0013900Y0056990D02*
X-0001550D01*
X0013900Y0056900D02*
X-0001550D01*
X0013900Y0056810D02*
X-0001550D01*
X0013900Y0056720D02*
X-0001550D01*
X0013900Y0056630D02*
X-0001550D01*
X0013900Y0056540D02*
X-0001550D01*
X0013900Y0056450D02*
X-0001550D01*
X0013900Y0056360D02*
X-0001550D01*
X0013900Y0056270D02*
X-0001550D01*
X0013900Y0056180D02*
X-0001550D01*
X0013900Y0056090D02*
X-0001550D01*
X0013900Y0056000D02*
X-0001550D01*
X0013900Y0055910D02*
X-0001550D01*
X0013900Y0055820D02*
X-0001550D01*
X0013900Y0055730D02*
X-0001550D01*
X0013900Y0055640D02*
X-0001550D01*
X0013900Y0055550D02*
X-0001550D01*
X0013900Y0055460D02*
X-0001550D01*
X0013900Y0055370D02*
X-0001550D01*
X0013900Y0055280D02*
X-0001550D01*
X0013900Y0055190D02*
X-0001550D01*
X0013900Y0055100D02*
X-0001550D01*
X0013900Y0055010D02*
X-0001550D01*
X0013900Y0054920D02*
X-0001550D01*
X0013900Y0054830D02*
X-0001550D01*
X0013900Y0054740D02*
X-0001550D01*
X0013900Y0054650D02*
X-0001550D01*
X0013900Y0054560D02*
X-0001550D01*
X0013900Y0054470D02*
X-0001550D01*
X0013900Y0054380D02*
X-0001550D01*
X0002400Y0062750D02*
X-0001550D01*
X0013900Y0054290D02*
X-0001550D01*
X0009150Y0054200D02*
X-0001550D01*
X0009150Y0054110D02*
X-0001550D01*
X0009150Y0054020D02*
X-0001550D01*
X0009790Y0019200D02*
Y0007090D01*
X0002230Y0070150D02*
Y0052550D01*
X0011500Y0021260D02*
X0011350D01*
X0009150Y0053750D02*
X-0001550D01*
X0009150Y0053660D02*
X-0001550D01*
X0009150Y0053570D02*
X-0001550D01*
X0009150Y0053480D02*
X-0001550D01*
X0009150Y0053390D02*
X-0001550D01*
X0009150Y0053300D02*
X-0001550D01*
X0009150Y0053210D02*
X-0001550D01*
X0009150Y0053120D02*
X-0001550D01*
X0009150Y0053030D02*
X-0001550D01*
X0009150Y0052940D02*
X-0001550D01*
X0013900D02*
X0011350D01*
X0009150Y0052760D02*
X-0001550D01*
X0009150Y0052670D02*
X-0001550D01*
X0009150Y0052580D02*
X-0001550D01*
X0002150Y0052490D02*
X-0001550D01*
X0002150Y0052400D02*
X-0001550D01*
X0002150Y0052310D02*
X-0001550D01*
X0002150Y0052220D02*
X-0001550D01*
X0002150Y0052130D02*
X-0001550D01*
X0002150Y0052040D02*
X-0001550D01*
X0002150Y0051860D02*
X-0001550D01*
X0003130Y0047750D02*
Y0038000D01*
X0002150Y0051680D02*
X-0001550D01*
X0002150Y0051590D02*
X-0001550D01*
X0002150Y0051500D02*
X-0001550D01*
X0002150Y0051410D02*
X-0001550D01*
X0002150Y0051320D02*
X-0001550D01*
X0002150Y0051230D02*
X-0001550D01*
X0002150Y0051140D02*
X-0001550D01*
X0002150Y0051050D02*
X-0001550D01*
X0002150Y0050960D02*
X-0001550D01*
X0002150Y0050870D02*
X-0001550D01*
X0002150Y0050780D02*
X-0001550D01*
X0009150Y0050600D02*
X0004350D01*
X0003220Y0047750D02*
Y0038000D01*
X0002150Y0050510D02*
X-0001550D01*
X0002150Y0050420D02*
X-0001550D01*
X0002150Y0050330D02*
X-0001550D01*
X0002150Y0050240D02*
X-0001550D01*
X0002150Y0050150D02*
X-0001550D01*
X0002150Y0050060D02*
X-0001550D01*
X0010690Y0026150D02*
Y0024000D01*
X0002320Y0047750D02*
Y0004700D01*
X0002150Y0049790D02*
X-0001550D01*
X0002150Y0049700D02*
X-0001550D01*
X0002860Y0017450D02*
Y0010604D01*
X0002150Y0049520D02*
X-0001550D01*
X0002150Y0049430D02*
X-0001550D01*
X0002150Y0049340D02*
X-0001550D01*
X0002150Y0049250D02*
X-0001550D01*
X0002150Y0049160D02*
X-0001550D01*
X0002150Y0049070D02*
X-0001550D01*
X0002150Y0048980D02*
X-0001550D01*
X0002150Y0048890D02*
X-0001550D01*
X0002150Y0048800D02*
X-0001550D01*
X0002150Y0048710D02*
X-0001550D01*
X0002150Y0048530D02*
X-0001550D01*
X0002150Y0048440D02*
X-0001550D01*
X0002150Y0048350D02*
X-0001550D01*
X0002150Y0048260D02*
X-0001550D01*
X0002150Y0048170D02*
X-0001550D01*
X0002150Y0048080D02*
X-0001550D01*
X0002150Y0047990D02*
X-0001550D01*
X0002150Y0047810D02*
X-0001550D01*
X0013900Y0047720D02*
X-0001550D01*
X0013900Y0047630D02*
X-0001550D01*
X0013900Y0047540D02*
X-0001550D01*
X0013900Y0047450D02*
X-0001550D01*
X0013900Y0047360D02*
X-0001550D01*
X0013900Y0047270D02*
X-0001550D01*
X0013900Y0047180D02*
X-0001550D01*
X0013900Y0047090D02*
X-0001550D01*
X0013900Y0047000D02*
X-0001550D01*
X0013900Y0046910D02*
X-0001550D01*
X0013900Y0046820D02*
X-0001550D01*
X0013900Y0046730D02*
X-0001550D01*
X0013900Y0046640D02*
X-0001550D01*
X0013900Y0046550D02*
X-0001550D01*
X0013900Y0046460D02*
X-0001550D01*
X0013900Y0046370D02*
X-0001550D01*
X0013900Y0046280D02*
X-0001550D01*
X0007720Y0011010D02*
Y0005020D01*
X0013900Y0046190D02*
X-0001550D01*
X0006463Y0046100D02*
X-0001550D01*
X0006232Y0046010D02*
X-0001550D01*
X0006088Y0045920D02*
X-0001550D01*
X0005981Y0045830D02*
X-0001550D01*
X0005740Y0011546D02*
Y0004700D01*
X0005829Y0045650D02*
X-0001550D01*
X0005773Y0045560D02*
X-0001550D01*
X0005729Y0045470D02*
X-0001550D01*
X0005694Y0045380D02*
X-0001550D01*
X0005668Y0045290D02*
X-0001550D01*
X0005650Y0045200D02*
X-0001550D01*
X0005639Y0045110D02*
X-0001550D01*
X0005636Y0045020D02*
X-0001550D01*
X0005640Y0044930D02*
X-0001550D01*
X0005651Y0044840D02*
X-0001550D01*
X0005670Y0044750D02*
X-0001550D01*
X0005697Y0044660D02*
X-0001550D01*
X0005732Y0044570D02*
X-0001550D01*
X0005778Y0044480D02*
X-0001550D01*
X0005834Y0044390D02*
X-0001550D01*
X0005903Y0044300D02*
X-0001550D01*
X0005989Y0044210D02*
X-0001550D01*
X0006098Y0044120D02*
X-0001550D01*
X0006492Y0043940D02*
X-0001550D01*
X0013900Y0043850D02*
X-0001550D01*
X0013900Y0043760D02*
X-0001550D01*
X0013900Y0043670D02*
X-0001550D01*
X0013900Y0043580D02*
X-0001550D01*
X0007630Y0010908D02*
Y0004930D01*
X0013900Y0043490D02*
X-0001550D01*
X0006749Y0043400D02*
X-0001550D01*
X0006396Y0043310D02*
X-0001550D01*
X0006230Y0043220D02*
X-0001550D01*
X0006112Y0043130D02*
X-0001550D01*
X0006020Y0043040D02*
X-0001550D01*
X0005946Y0042950D02*
X-0001550D01*
X0005886Y0042860D02*
X-0001550D01*
X0005838Y0042770D02*
X-0001550D01*
X0005800Y0042680D02*
X-0001550D01*
X0005771Y0042590D02*
X-0001550D01*
X0005749Y0042500D02*
X-0001550D01*
X0005736Y0042410D02*
X-0001550D01*
X0005730Y0042320D02*
X-0001550D01*
X0005731Y0042230D02*
X-0001550D01*
X0005740Y0042140D02*
X-0001550D01*
X0005756Y0042050D02*
X-0001550D01*
X0005780Y0041960D02*
X-0001550D01*
X0005812Y0041870D02*
X-0001550D01*
X0005853Y0041780D02*
X-0001550D01*
X0006010Y0010959D02*
Y0004700D01*
X0005969Y0041600D02*
X-0001550D01*
X0006048Y0041510D02*
X-0001550D01*
X0006148Y0041420D02*
X-0001550D01*
X0006471Y0041240D02*
X-0001550D01*
X0013900Y0041150D02*
X-0001550D01*
X0013900Y0041060D02*
X-0001550D01*
X0013900Y0040970D02*
X-0001550D01*
X0013900Y0040880D02*
X-0001550D01*
X0013900Y0040790D02*
X-0001550D01*
X0013900Y0040700D02*
X-0001550D01*
X0013900Y0040610D02*
X-0001550D01*
X0013900Y0040520D02*
X-0001550D01*
X0013900Y0040430D02*
X-0001550D01*
X0013900Y0040340D02*
X-0001550D01*
X0013900Y0040250D02*
X-0001550D01*
X0013900Y0040160D02*
X-0001550D01*
X0013900Y0040070D02*
X-0001550D01*
X0013900Y0039980D02*
X-0001550D01*
X0013900Y0039890D02*
X-0001550D01*
X0013900Y0039800D02*
X-0001550D01*
X0009150Y0039710D02*
X-0001550D01*
X0009150Y0039620D02*
X-0001550D01*
X0009150Y0039530D02*
X-0001550D01*
X0009150Y0039440D02*
X-0001550D01*
X0009150Y0039350D02*
X-0001550D01*
X0010690Y0049450D02*
Y0039750D01*
X0009150Y0039260D02*
X-0001550D01*
X0009150Y0039170D02*
X-0001550D01*
X0009150Y0039080D02*
X-0001550D01*
X0009150Y0038990D02*
X-0001550D01*
X0009150Y0038900D02*
X-0001550D01*
X0009150Y0038810D02*
X-0001550D01*
X0009150Y0038720D02*
X-0001550D01*
X0009150Y0038630D02*
X-0001550D01*
X0009150Y0038540D02*
X-0001550D01*
X0009150Y0038450D02*
X-0001550D01*
X0009150Y0038270D02*
X-0001550D01*
X0009880Y0049450D02*
Y0039750D01*
X0009150Y0038180D02*
X-0001550D01*
X0009150Y0035930D02*
X0004650D01*
X0009150Y0038000D02*
X-0001550D01*
X0002450Y0037910D02*
X-0001550D01*
X0002450Y0037820D02*
X-0001550D01*
X0002450Y0037730D02*
X-0001550D01*
X0010960Y0034950D02*
Y0030950D01*
X0002950Y0033200D02*
Y0022250D01*
X0013130Y0033230D02*
X0004650D01*
X0002450Y0037280D02*
X-0001550D01*
X0003130Y0033200D02*
Y0022250D01*
X0002450Y0037190D02*
X-0001550D01*
X0002450Y0037100D02*
X-0001550D01*
X0002450Y0037010D02*
X-0001550D01*
X0002450Y0036920D02*
X-0001550D01*
X0002450Y0036830D02*
X-0001550D01*
X0002450Y0036740D02*
X-0001550D01*
X0002450Y0036650D02*
X-0001550D01*
X0002450Y0036560D02*
X-0001550D01*
X0002450Y0036470D02*
X-0001550D01*
X0002450Y0036380D02*
X-0001550D01*
X0002450Y0036290D02*
X-0001550D01*
X0002450Y0036110D02*
X-0001550D01*
X0003310Y0033200D02*
Y0022250D01*
X0002450Y0036020D02*
X-0001550D01*
X0002450Y0035930D02*
X-0001550D01*
X0002450Y0035840D02*
X-0001550D01*
X0002450Y0035750D02*
X-0001550D01*
X0002450Y0035660D02*
X-0001550D01*
X0002450Y0035570D02*
X-0001550D01*
X0002450Y0035480D02*
X-0001550D01*
X0002450Y0035390D02*
X-0001550D01*
X0002450Y0035300D02*
X-0001550D01*
X0002450Y0035210D02*
X-0001550D01*
X0011500Y0018290D02*
X0004600D01*
X0002450Y0035030D02*
X-0001550D01*
X0002450Y0034940D02*
X-0001550D01*
X0002450Y0034850D02*
X-0001550D01*
X0002450Y0034760D02*
X-0001550D01*
X0002450Y0034670D02*
X-0001550D01*
X0002450Y0034580D02*
X-0001550D01*
X0002450Y0034490D02*
X-0001550D01*
X0002450Y0034400D02*
X-0001550D01*
X0002450Y0034310D02*
X-0001550D01*
X0002450Y0034220D02*
X-0001550D01*
X0002450Y0034040D02*
X-0001550D01*
X0002450Y0033950D02*
X-0001550D01*
X0002450Y0033860D02*
X-0001550D01*
X0002450Y0033770D02*
X-0001550D01*
X0002450Y0033680D02*
X-0001550D01*
X0002450Y0033590D02*
X-0001550D01*
X0002500Y0033200D02*
Y0022250D01*
X0002450Y0033410D02*
X-0001550D01*
X0002450Y0033230D02*
X-0001550D01*
X0013040Y0033140D02*
X-0001550D01*
X0012950Y0033050D02*
X-0001550D01*
X0012860Y0032960D02*
X-0001550D01*
X0012770Y0032870D02*
X-0001550D01*
X0012680Y0032780D02*
X-0001550D01*
X0012590Y0032690D02*
X-0001550D01*
X0012500Y0032600D02*
X-0001550D01*
X0012410Y0032510D02*
X-0001550D01*
X0012320Y0032420D02*
X-0001550D01*
X0012230Y0032330D02*
X-0001550D01*
X0012140Y0032240D02*
X-0001550D01*
X0012050Y0032150D02*
X-0001550D01*
X0011960Y0032060D02*
X-0001550D01*
X0011870Y0031970D02*
X-0001550D01*
X0011780Y0031880D02*
X-0001550D01*
X0011690Y0031790D02*
X-0001550D01*
X0011600Y0031700D02*
X-0001550D01*
X0011510Y0031610D02*
X-0001550D01*
X0011500Y0031520D02*
X-0001550D01*
X0011500Y0031430D02*
X-0001550D01*
X0011500Y0031340D02*
X-0001550D01*
X0011500Y0031250D02*
X-0001550D01*
X0011500Y0031160D02*
X-0001550D01*
X0011500Y0031070D02*
X-0001550D01*
X0009150Y0051860D02*
X0004350D01*
X0011500Y0030980D02*
X-0001550D01*
X0009100Y0030890D02*
X-0001550D01*
X0009100Y0030800D02*
X-0001550D01*
X0009100Y0030710D02*
X-0001550D01*
X0009100Y0030620D02*
X-0001550D01*
X0009100Y0030530D02*
X-0001550D01*
X0009100Y0030440D02*
X-0001550D01*
X0011050Y0034950D02*
Y0030950D01*
X0009100Y0030350D02*
X-0001550D01*
X0009100Y0030260D02*
X-0001550D01*
X0009100Y0030170D02*
X-0001550D01*
X0009100Y0030080D02*
X-0001550D01*
X0009100Y0029990D02*
X-0001550D01*
X0009100Y0029900D02*
X-0001550D01*
X0009970Y0034950D02*
Y0030950D01*
X0009100Y0029810D02*
X-0001550D01*
X0009100Y0029630D02*
X-0001550D01*
X0009100Y0029540D02*
X-0001550D01*
X0010870Y0034950D02*
Y0030950D01*
X0009160Y0026150D02*
Y0024000D01*
X0009100Y0029270D02*
X-0001550D01*
X0009100Y0029360D02*
X-0001550D01*
X0009100Y0029180D02*
X-0001550D01*
X0009100Y0029000D02*
X-0001550D01*
X0009100Y0028910D02*
X-0001550D01*
X0009100Y0028820D02*
X-0001550D01*
X0009100Y0028730D02*
X-0001550D01*
X0009100Y0028640D02*
X-0001550D01*
X0009100Y0028550D02*
X-0001550D01*
X0009100Y0028460D02*
X-0001550D01*
X0009100Y0028280D02*
X-0001550D01*
X0009100Y0028190D02*
X-0001550D01*
X0009100Y0028100D02*
X-0001550D01*
X0009100Y0028010D02*
X-0001550D01*
X0009100Y0027920D02*
X-0001550D01*
X0009880Y0026150D02*
Y0024000D01*
X0009100Y0027830D02*
X-0001550D01*
X0009100Y0027650D02*
X-0001550D01*
X0009100Y0027560D02*
X-0001550D01*
X0009100Y0027470D02*
X-0001550D01*
X0009100Y0027380D02*
X-0001550D01*
X0009100Y0027290D02*
X-0001550D01*
X0009100Y0027200D02*
X-0001550D01*
X0009100Y0027110D02*
X-0001550D01*
X0009100Y0026930D02*
X-0001550D01*
X0009100Y0026840D02*
X-0001550D01*
X0009100Y0026750D02*
X-0001550D01*
X0009100Y0026660D02*
X-0001550D01*
X0009100Y0026570D02*
X-0001550D01*
X0009100Y0026480D02*
X-0001550D01*
X0009100Y0026390D02*
X-0001550D01*
X0007490Y0004790D02*
X-0001550D01*
X0009100Y0026210D02*
X-0001550D01*
X0011500Y0026120D02*
X-0001550D01*
X0011500Y0026030D02*
X-0001550D01*
X0011500Y0025940D02*
X-0001550D01*
X0011500Y0025850D02*
X-0001550D01*
X0011500Y0025760D02*
X-0001550D01*
X0011500Y0025670D02*
X-0001550D01*
X0011500Y0025580D02*
X-0001550D01*
X0011500Y0025490D02*
X-0001550D01*
X0011500Y0025400D02*
X-0001550D01*
X0011500Y0025220D02*
X-0001550D01*
X0011500Y0025130D02*
X-0001550D01*
X0011500Y0025040D02*
X-0001550D01*
X0011500Y0024950D02*
X-0001550D01*
X0011500Y0024860D02*
X-0001550D01*
X0011500Y0024770D02*
X-0001550D01*
X0011500Y0024680D02*
X-0001550D01*
X0011500Y0024590D02*
X-0001550D01*
X0011500Y0024500D02*
X-0001550D01*
X0011500Y0024410D02*
X-0001550D01*
X0011500Y0024320D02*
X-0001550D01*
X0011500Y0024230D02*
X-0001550D01*
X0011500Y0024050D02*
X-0001550D01*
X0009150Y0023960D02*
X-0001550D01*
X0009150Y0023870D02*
X-0001550D01*
X0009150Y0023780D02*
X-0001550D01*
X0009150Y0023690D02*
X-0001550D01*
X0009150Y0023600D02*
X-0001550D01*
X0009150Y0023510D02*
X-0001550D01*
X0009150Y0023420D02*
X-0001550D01*
X0009150Y0023330D02*
X-0001550D01*
X0009150Y0023240D02*
X-0001550D01*
X0009150Y0023150D02*
X-0001550D01*
X0009150Y0023060D02*
X-0001550D01*
X0009150Y0022970D02*
X-0001550D01*
X0009150Y0022880D02*
X-0001550D01*
X0009150Y0022790D02*
X-0001550D01*
X0009150Y0022700D02*
X-0001550D01*
X0009150Y0022520D02*
X-0001550D01*
X0009700Y0019200D02*
Y0007000D01*
X0009150Y0022430D02*
X-0001550D01*
X0003220Y0033200D02*
Y0022250D01*
X0009150D02*
X-0001550D01*
X0002400Y0022160D02*
X-0001550D01*
X0002400Y0022070D02*
X-0001550D01*
X0002400Y0021980D02*
X-0001550D01*
X0002400Y0021890D02*
X-0001550D01*
X0002400Y0021800D02*
X-0001550D01*
X0002400Y0021710D02*
X-0001550D01*
X0002400Y0021530D02*
X-0001550D01*
X0002400Y0019370D02*
X-0001550D01*
X0002400Y0021440D02*
X-0001550D01*
X0002400Y0021350D02*
X-0001550D01*
X0003040Y0017450D02*
Y0010604D01*
X0002500Y0017450D02*
Y0004700D01*
X0002950Y0008844D02*
Y0004700D01*
X0002400Y0020990D02*
X-0001550D01*
X0002400Y0020900D02*
X-0001550D01*
X0002400Y0020810D02*
X-0001550D01*
X0002400Y0020720D02*
X-0001550D01*
X0002400Y0020630D02*
X-0001550D01*
X0002400Y0020540D02*
X-0001550D01*
X0002400Y0020360D02*
X-0001550D01*
X0003220Y0017450D02*
Y0010604D01*
X0002400Y0020270D02*
X-0001550D01*
X0002400Y0020180D02*
X-0001550D01*
X0002400Y0020090D02*
X-0001550D01*
X0002400Y0020000D02*
X-0001550D01*
X0002400Y0019910D02*
X-0001550D01*
X0002400Y0019820D02*
X-0001550D01*
X0002400Y0019730D02*
X-0001550D01*
X0002400Y0019640D02*
X-0001550D01*
X0002400Y0019550D02*
X-0001550D01*
X0002400Y0019460D02*
X-0001550D01*
X0003130Y0017450D02*
Y0010604D01*
X0002400Y0019280D02*
X-0001550D01*
X0002400Y0019190D02*
X-0001550D01*
X0002400Y0019100D02*
X-0001550D01*
X0002400Y0019010D02*
X-0001550D01*
X0002400Y0018920D02*
X-0001550D01*
X0002400Y0018830D02*
X-0001550D01*
X0002400Y0018740D02*
X-0001550D01*
X0002400Y0018650D02*
X-0001550D01*
X0002400Y0018560D02*
X-0001550D01*
X0002400Y0018470D02*
X-0001550D01*
X0002400Y0018290D02*
X-0001550D01*
X0002400Y0018200D02*
X-0001550D01*
X0002400Y0018110D02*
X-0001550D01*
X0002400Y0018020D02*
X-0001550D01*
X0002400Y0017930D02*
X-0001550D01*
X0002400Y0017840D02*
X-0001550D01*
X0002400Y0017750D02*
X-0001550D01*
X0002400Y0017660D02*
X-0001550D01*
X0011500Y0017570D02*
X0004600D01*
X0002400Y0017480D02*
X-0001550D01*
X0011500Y0017390D02*
X-0001550D01*
X0011500Y0017300D02*
X-0001550D01*
X0011500Y0017210D02*
X-0001550D01*
X0011500Y0019280D02*
X0011350D01*
X0011500Y0017030D02*
X-0001550D01*
X0011500Y0016940D02*
X-0001550D01*
X0011500Y0016850D02*
X-0001550D01*
X0011500Y0016760D02*
X-0001550D01*
X0011500Y0016670D02*
X-0001550D01*
X0011500Y0016580D02*
X-0001550D01*
X0011500Y0016490D02*
X-0001550D01*
X0011500Y0016400D02*
X-0001550D01*
X0011500Y0016310D02*
X-0001550D01*
X0011500Y0016220D02*
X-0001550D01*
X0011500Y0016130D02*
X-0001550D01*
X0011500Y0016040D02*
X-0001550D01*
X0011500Y0015950D02*
X-0001550D01*
X0011500Y0015860D02*
X-0001550D01*
X0011500Y0015770D02*
X-0001550D01*
X0011500Y0015680D02*
X-0001550D01*
X0005920Y0011075D02*
Y0004700D01*
X0011500Y0015500D02*
X-0001550D01*
X0006543Y0015410D02*
X-0001550D01*
X0006319Y0015320D02*
X-0001550D01*
X0006177Y0015230D02*
X-0001550D01*
X0006071Y0015140D02*
X-0001550D01*
X0005987Y0015050D02*
X-0001550D01*
X0005920Y0014960D02*
X-0001550D01*
X0005865Y0014870D02*
X-0001550D01*
X0005821Y0014780D02*
X-0001550D01*
X0005787Y0014690D02*
X-0001550D01*
X0005761Y0014600D02*
X-0001550D01*
X0005743Y0014510D02*
X-0001550D01*
X0005733Y0014420D02*
X-0001550D01*
X0005730Y0014330D02*
X-0001550D01*
X0005734Y0014240D02*
X-0001550D01*
X0005745Y0014150D02*
X-0001550D01*
X0005765Y0014060D02*
X-0001550D01*
X0005792Y0013970D02*
X-0001550D01*
X0005828Y0013880D02*
X-0001550D01*
X0005873Y0013790D02*
X-0001550D01*
X0005930Y0013700D02*
X-0001550D01*
X0006000Y0013610D02*
X-0001550D01*
X0006087Y0013520D02*
X-0001550D01*
X0006197Y0013430D02*
X-0001550D01*
X0011500Y0015410D02*
X0007144D01*
X0006601Y0013250D02*
X-0001550D01*
X0011500Y0013160D02*
X-0001550D01*
X0011500Y0013070D02*
X-0001550D01*
X0005830Y0011235D02*
Y0004700D01*
X0000700Y0070150D02*
Y0004700D01*
X0006683Y0012800D02*
X-0001550D01*
X0006379Y0012710D02*
X-0001550D01*
X0006219Y0012620D02*
X-0001550D01*
X0006103Y0012530D02*
X-0001550D01*
X0006013Y0012440D02*
X-0001550D01*
X0005940Y0012350D02*
X-0001550D01*
X0005882Y0012260D02*
X-0001550D01*
X0005835Y0012170D02*
X-0001550D01*
X0005797Y0012080D02*
X-0001550D01*
X0005769Y0011990D02*
X-0001550D01*
X0005748Y0011900D02*
X-0001550D01*
X0005735Y0011810D02*
X-0001550D01*
X0005730Y0011720D02*
X-0001550D01*
X0005732Y0011630D02*
X-0001550D01*
X0005741Y0011540D02*
X-0001550D01*
X0005757Y0011450D02*
X-0001550D01*
X0005782Y0011360D02*
X-0001550D01*
X0005815Y0011270D02*
X-0001550D01*
X0005857Y0011180D02*
X-0001550D01*
X0005910Y0011090D02*
X-0001550D01*
X0005975Y0011000D02*
X-0001550D01*
X0006056Y0010910D02*
X-0001550D01*
X0006157Y0010820D02*
X-0001550D01*
X0002860Y0008844D02*
Y0004700D01*
X0006494Y0010640D02*
X-0001550D01*
X0002714Y0010550D02*
X-0001550D01*
X0002714Y0010460D02*
X-0001550D01*
X0002714Y0010370D02*
X-0001550D01*
X0002714Y0010280D02*
X-0001550D01*
X0002714Y0010190D02*
X-0001550D01*
X0002714Y0010100D02*
X-0001550D01*
X0002714Y0010010D02*
X-0001550D01*
X0002714Y0009920D02*
X-0001550D01*
X0002714Y0009830D02*
X-0001550D01*
X0002714Y0009740D02*
X-0001550D01*
X0002714Y0009650D02*
X-0001550D01*
X0002714Y0009560D02*
X-0001550D01*
X0002714Y0009470D02*
X-0001550D01*
X0002714Y0009380D02*
X-0001550D01*
X0002714Y0009290D02*
X-0001550D01*
X0002714Y0009200D02*
X-0001550D01*
X0002714Y0009110D02*
X-0001550D01*
X0011500Y0009020D02*
X0004474D01*
X0002714Y0008930D02*
X-0001550D01*
X-0001460Y0070150D02*
Y0004700D01*
X0011450Y0008750D02*
X-0001550D01*
X0011360Y0008660D02*
X-0001550D01*
X0011270Y0008570D02*
X-0001550D01*
X0011180Y0008480D02*
X-0001550D01*
X0011090Y0008390D02*
X-0001550D01*
X0011000Y0008300D02*
X-0001550D01*
X0010910Y0008210D02*
X-0001550D01*
X0010820Y0008120D02*
X-0001550D01*
X0010730Y0008030D02*
X-0001550D01*
X0010640Y0007940D02*
X-0001550D01*
X0010550Y0007850D02*
X-0001550D01*
X0010460Y0007760D02*
X-0001550D01*
X0010370Y0007670D02*
X-0001550D01*
X0010280Y0007580D02*
X-0001550D01*
X0010190Y0007490D02*
X-0001550D01*
X0010100Y0007400D02*
X-0001550D01*
X0010010Y0007310D02*
X-0001550D01*
X0009920Y0007220D02*
X-0001550D01*
X0009830Y0007130D02*
X-0001550D01*
X0009740Y0007040D02*
X-0001550D01*
X0009650Y0006950D02*
X-0001550D01*
X0009560Y0006860D02*
X-0001550D01*
X0009470Y0006770D02*
X-0001550D01*
X0009380Y0006680D02*
X-0001550D01*
X0009290Y0006590D02*
X-0001550D01*
X0009200Y0006500D02*
X-0001550D01*
X0008950Y0066710D02*
X0004600D01*
X0009020Y0006320D02*
X-0001550D01*
X0008930Y0006230D02*
X-0001550D01*
X0008840Y0006140D02*
X-0001550D01*
X0008750Y0006050D02*
X-0001550D01*
X0008660Y0005960D02*
X-0001550D01*
X0008570Y0005870D02*
X-0001550D01*
X0008480Y0005780D02*
X-0001550D01*
X0008390Y0005690D02*
X-0001550D01*
X0008300Y0005600D02*
X-0001550D01*
X0008210Y0005510D02*
X-0001550D01*
X0008120Y0005420D02*
X-0001550D01*
X0008030Y0005330D02*
X-0001550D01*
X0007940Y0005240D02*
X-0001550D01*
X0007850Y0005150D02*
X-0001550D01*
X0007760Y0005060D02*
X-0001550D01*
X0007670Y0004970D02*
X-0001550D01*
X0007580Y0004880D02*
X-0001550D01*
X0009150Y0035390D02*
X0004650D01*
X0009150Y0035300D02*
X0004650D01*
X0009150Y0035210D02*
X0004650D01*
X0009150Y0035120D02*
X0004650D01*
X0002400Y0066350D02*
X-0001550D01*
X0004210Y0017450D02*
Y0010604D01*
X0002400Y0063470D02*
X-0001550D01*
X0002150Y0049610D02*
X-0001550D01*
X0003940Y0047750D02*
Y0038000D01*
X0002150Y0048620D02*
X-0001550D01*
X0002400Y0065540D02*
X-0001550D01*
X0003850Y0047750D02*
Y0038000D01*
X0003760Y0047750D02*
Y0038000D01*
X0003670Y0047750D02*
Y0038000D01*
X0003580Y0047750D02*
Y0038000D01*
X0003490Y0047750D02*
Y0038000D01*
X0003400Y0047750D02*
Y0038000D01*
X0004570Y0062600D02*
Y0038000D01*
X0003040Y0047750D02*
Y0038000D01*
X0009150Y0035030D02*
X0004650D01*
X0009150Y0037010D02*
X0004650D01*
X0009160Y0034950D02*
Y0030950D01*
X0009150Y0036740D02*
X0004650D01*
X0009150Y0036650D02*
X0004650D01*
X0009150Y0036560D02*
X0004650D01*
X0009150Y0036470D02*
X0004650D01*
X0009150Y0036920D02*
X0004650D01*
X0009150Y0036830D02*
X0004650D01*
X0002950Y0017450D02*
Y0010604D01*
X0004210Y0033200D02*
Y0022250D01*
X0004300Y0033200D02*
Y0022250D01*
X0004390Y0033200D02*
Y0022250D01*
X0004480Y0033200D02*
Y0022250D01*
X0004570Y0033200D02*
Y0022250D01*
X0009150Y0021440D02*
X0004600D01*
X0009150Y0021530D02*
X0004600D01*
X0009150Y0021620D02*
X0004600D01*
X0009150Y0021710D02*
X0004600D01*
X0009150Y0021800D02*
X0004600D01*
X0014920Y0068030D02*
Y0060470D01*
X0011500Y0013250D02*
X0007086D01*
X0011500Y0019100D02*
X0004600D01*
X0011500Y0019010D02*
X0004600D01*
X0011500Y0018920D02*
X0004600D01*
X0011500Y0018830D02*
X0004600D01*
X0011500Y0018740D02*
X0004600D01*
X0011500Y0018650D02*
X0004600D01*
X0011500Y0018560D02*
X0004600D01*
X0011500Y0018470D02*
X0004600D01*
X0011500Y0018380D02*
X0004600D01*
X0009150Y0021890D02*
X0004600D01*
X0009150Y0021980D02*
X0004600D01*
X0009150Y0022070D02*
X0004600D01*
X0009150Y0022160D02*
X0004600D01*
X0009150Y0021080D02*
X0004600D01*
X0011500Y0019370D02*
X0011350D01*
X0011500Y0019460D02*
X0011350D01*
X0011500Y0019550D02*
X0011350D01*
X0011500Y0019640D02*
X0011350D01*
X0011500Y0019730D02*
X0011350D01*
X0011500Y0019820D02*
X0011350D01*
X0009150Y0020540D02*
X0004600D01*
X0009150Y0020090D02*
X0004600D01*
X0009150Y0020000D02*
X0004600D01*
X0009150Y0019910D02*
X0004600D01*
X0009150Y0019820D02*
X0004600D01*
X0009150Y0019730D02*
X0004600D01*
X0009150Y0019640D02*
X0004600D01*
X0009150Y0019550D02*
X0004600D01*
X0009150Y0019460D02*
X0004600D01*
X0009150Y0019370D02*
X0004600D01*
X0009150Y0020180D02*
X0004600D01*
X0009150Y0022340D02*
X-0001550D01*
X0002450Y0035120D02*
X-0001550D01*
X0004030Y0017450D02*
Y0010604D01*
X0002450Y0034130D02*
X-0001550D01*
X0009150Y0020450D02*
X0004600D01*
X0009150Y0021170D02*
X0004600D01*
X0004030Y0033200D02*
Y0022250D01*
X0003940Y0033200D02*
Y0022250D01*
X0003850Y0033200D02*
Y0022250D01*
X0003760Y0033200D02*
Y0022250D01*
X0003670Y0033200D02*
Y0022250D01*
X0003580Y0033200D02*
Y0022250D01*
X0003490Y0033200D02*
Y0022250D01*
X0003400Y0033200D02*
Y0022250D01*
X0009880Y0019200D02*
Y0007180D01*
X0004120Y0033200D02*
Y0022250D01*
X0009250Y0019200D02*
Y0006550D01*
X0009150Y0020990D02*
X0004600D01*
X0009150Y0020900D02*
X0004600D01*
X0009150Y0020810D02*
X0004600D01*
X0009150Y0020720D02*
X0004600D01*
X0003040Y0033200D02*
Y0022250D01*
X0009150Y0019280D02*
X0004600D01*
X0004660Y0070150D02*
Y0004700D01*
X0004570Y0017450D02*
Y0004700D01*
X0004390Y0017450D02*
Y0010604D01*
X0004300Y0017450D02*
Y0010604D01*
X0002400Y0021260D02*
X-0001550D01*
X0004120Y0017450D02*
Y0010604D01*
X0002400Y0018380D02*
X-0001550D01*
X0002450Y0036200D02*
X-0001550D01*
X0009150Y0020630D02*
X0004600D01*
X0003940Y0017450D02*
Y0010604D01*
X0003850Y0017450D02*
Y0010604D01*
X0003760Y0017450D02*
Y0010604D01*
X0003670Y0017450D02*
Y0010604D01*
X0003580Y0017450D02*
Y0010604D01*
X0003490Y0017450D02*
Y0010604D01*
X0003400Y0017450D02*
Y0010604D01*
X0003310Y0017450D02*
Y0010604D01*
Y0047750D02*
Y0038000D01*
X0002150Y0049970D02*
X-0001550D01*
X0011500Y0012710D02*
X0007308D01*
X0005110Y0070150D02*
Y0004700D01*
X0011500Y0010550D02*
X0004474D01*
X0011500Y0010460D02*
X0004474D01*
X0011500Y0010370D02*
X0004474D01*
X0011500Y0010280D02*
X0004474D01*
X0011500Y0010190D02*
X0004474D01*
X0011500Y0010100D02*
X0004474D01*
X0011500Y0010010D02*
X0004474D01*
X0011500Y0009920D02*
X0004474D01*
X0011500Y0009830D02*
X0004474D01*
X0011500Y0009740D02*
X0004474D01*
X0011500Y0009650D02*
X0004474D01*
X0011500Y0009560D02*
X0004474D01*
X0011500Y0009470D02*
X0004474D01*
X0011500Y0009380D02*
X0004474D01*
X0011500Y0009290D02*
X0004474D01*
X0011500Y0009200D02*
X0004474D01*
X0011500Y0009110D02*
X0004474D01*
X0009110Y0006410D02*
X-0001550D01*
X0011050Y0019200D02*
Y0008350D01*
X0010690Y0019200D02*
Y0007990D01*
X0007900Y0013983D02*
Y0012051D01*
X0007810Y0013783D02*
Y0012252D01*
X0007720Y0013649D02*
Y0012385D01*
X0007630Y0013548D02*
Y0012487D01*
X0007540Y0013468D02*
Y0012567D01*
X0007450Y0013403D02*
Y0012632D01*
X0007360Y0013350D02*
Y0012685D01*
X0007270Y0013308D02*
Y0012727D01*
X0007180Y0013275D02*
Y0012760D01*
X0007090Y0013251D02*
Y0012784D01*
X0007000Y0013234D02*
Y0012800D01*
X0006910Y0013225D02*
Y0012810D01*
X0006820Y0013223D02*
Y0012811D01*
X0006730Y0013229D02*
Y0012806D01*
X0006640Y0013242D02*
Y0012793D01*
X0006550Y0013263D02*
Y0012772D01*
X0006460Y0013291D02*
Y0012743D01*
X0006370Y0013329D02*
Y0012706D01*
X0006280Y0013376D02*
Y0012658D01*
X0006190Y0013435D02*
Y0012600D01*
X0006100Y0013508D02*
Y0012527D01*
X0006010Y0013598D02*
Y0012436D01*
X0005920Y0013714D02*
Y0012320D01*
X0005830Y0013875D02*
Y0012160D01*
X0005740Y0014186D02*
Y0011849D01*
X0011500Y0012980D02*
X-0001550D01*
X0011500Y0017480D02*
X0004600D01*
X0011500Y0012800D02*
X0007004D01*
X0009610Y0019200D02*
Y0006910D01*
X0011500Y0012620D02*
X0007468D01*
X0011500Y0012530D02*
X0007584D01*
X0011500Y0012440D02*
X0007674D01*
X0011500Y0012350D02*
X0007747D01*
X0011500Y0012260D02*
X0007805D01*
X0011500Y0012170D02*
X0007852D01*
X0011500Y0012080D02*
X0007890D01*
X0011500Y0011990D02*
X0007918D01*
X0011500Y0011900D02*
X0007939D01*
X0011500Y0011810D02*
X0007952D01*
X0011500Y0011720D02*
X0007957D01*
X0011500Y0011630D02*
X0007955D01*
X0011500Y0011540D02*
X0007946D01*
X0011500Y0011450D02*
X0007930D01*
X0011500Y0011360D02*
X0007905D01*
X0011500Y0011270D02*
X0007872D01*
X0011500Y0011180D02*
X0007830D01*
X0011500Y0011090D02*
X0007777D01*
X0011500Y0011000D02*
X0007712D01*
X0011500Y0010910D02*
X0007631D01*
X0011500Y0010820D02*
X0007530D01*
X0007900Y0041936D02*
Y0014691D01*
X0007810Y0041736D02*
Y0014891D01*
X0007720Y0041602D02*
Y0015025D01*
X0007630Y0041501D02*
Y0015126D01*
X0007540Y0041420D02*
Y0015207D01*
X0007450Y0041355D02*
Y0015272D01*
X0007360Y0041303D02*
Y0015324D01*
X0007270Y0041261D02*
Y0015366D01*
X0007180Y0041228D02*
Y0015399D01*
X0007090Y0041203D02*
Y0015424D01*
X0007000Y0041187D02*
Y0015440D01*
X0006910Y0041178D02*
Y0015449D01*
X0006820Y0041176D02*
Y0015451D01*
X0006730Y0041182D02*
Y0015445D01*
X0006640Y0041195D02*
Y0015432D01*
X0006550Y0041215D02*
Y0015412D01*
X0006460Y0041244D02*
Y0015383D01*
X0006370Y0041282D02*
Y0015345D01*
X0006280Y0041329D02*
Y0015298D01*
X0006190Y0041388D02*
Y0015239D01*
X0006100Y0041460D02*
Y0015167D01*
X0006010Y0041551D02*
Y0015076D01*
X0005920Y0041667D02*
Y0014960D01*
X0005830Y0041828D02*
Y0014799D01*
X0005740Y0042138D02*
Y0014489D01*
X0011500Y0015590D02*
X-0001550D01*
X0002400Y0021080D02*
X-0001550D01*
X0011500Y0020180D02*
X0011350D01*
X0011500Y0015320D02*
X0007368D01*
X0011500Y0015230D02*
X0007510D01*
X0011500Y0015140D02*
X0007616D01*
X0011500Y0015050D02*
X0007700D01*
X0011500Y0014960D02*
X0007767D01*
X0011500Y0014870D02*
X0007822D01*
X0011500Y0014780D02*
X0007866D01*
X0011500Y0014690D02*
X0007900D01*
X0011500Y0014600D02*
X0007926D01*
X0011500Y0014510D02*
X0007944D01*
X0011500Y0014420D02*
X0007954D01*
X0011500Y0014330D02*
X0007957D01*
X0011500Y0014240D02*
X0007953D01*
X0011500Y0014150D02*
X0007942D01*
X0011500Y0014060D02*
X0007922D01*
X0011500Y0013970D02*
X0007895D01*
X0011500Y0013880D02*
X0007859D01*
X0011500Y0013790D02*
X0007814D01*
X0011500Y0013700D02*
X0007757D01*
X0011500Y0013610D02*
X0007687D01*
X0011500Y0013520D02*
X0007600D01*
X0011500Y0013430D02*
X0007490D01*
X0013900Y0038090D02*
X0011350D01*
X0007810Y0044681D02*
Y0042844D01*
X0007720Y0044476D02*
Y0042978D01*
X0007630Y0044340D02*
Y0043079D01*
X0007540Y0044238D02*
Y0043159D01*
X0007450Y0044157D02*
Y0043224D01*
X0007360Y0044091D02*
Y0043277D01*
X0013900Y0047810D02*
X0004350D01*
X0013900Y0043400D02*
X0006938D01*
X0007900Y0070150D02*
Y0042644D01*
X0013900Y0043220D02*
X0007457D01*
X0013900Y0043130D02*
X0007575D01*
X0013900Y0043040D02*
X0007667D01*
X0013900Y0042950D02*
X0007741D01*
X0013900Y0042860D02*
X0007801D01*
X0013900Y0042770D02*
X0007849D01*
X0013900Y0042680D02*
X0007887D01*
X0013900Y0042590D02*
X0007916D01*
X0013900Y0042500D02*
X0007938D01*
X0013900Y0042410D02*
X0007951D01*
X0013900Y0042320D02*
X0007957D01*
X0013900Y0042230D02*
X0007956D01*
X0013900Y0042140D02*
X0007947D01*
X0013900Y0042050D02*
X0007931D01*
X0013900Y0041960D02*
X0007908D01*
X0013900Y0041870D02*
X0007875D01*
X0013900Y0041780D02*
X0007834D01*
X0013900Y0041690D02*
X0007782D01*
X0007270Y0044038D02*
Y0043319D01*
X0007180Y0043996D02*
Y0043352D01*
X0007090Y0043963D02*
Y0043376D01*
X0007000Y0043938D02*
Y0043393D01*
X0006910Y0043921D02*
Y0043402D01*
X0006820Y0043912D02*
Y0043404D01*
X0006730Y0043910D02*
Y0043398D01*
X0006640Y0043915D02*
Y0043385D01*
X0006550Y0043928D02*
Y0043364D01*
X0006460Y0043948D02*
Y0043336D01*
X0006370Y0043976D02*
Y0043298D01*
X0006280Y0044014D02*
Y0043251D01*
X0006190Y0044060D02*
Y0043192D01*
X0006100Y0044119D02*
Y0043119D01*
X0006010Y0044191D02*
Y0043029D01*
X0005920Y0044280D02*
Y0042913D01*
X0005830Y0044395D02*
Y0042752D01*
X0005740Y0044554D02*
Y0042441D01*
X0013900Y0044120D02*
X0007401D01*
X0013900Y0041510D02*
X0007639D01*
X0013900Y0041420D02*
X0007539D01*
X0005650Y0070150D02*
Y0045200D01*
X0013900Y0041600D02*
X0007718D01*
X0007810Y0070150D02*
Y0045366D01*
X0013900Y0049520D02*
X0011350D01*
X0007630Y0070150D02*
Y0045707D01*
X0007540Y0070150D02*
Y0045809D01*
X0007450Y0070150D02*
Y0045890D01*
X0009150Y0053840D02*
X-0001550D01*
X0013900Y0046100D02*
X0007037D01*
X0007360Y0070150D02*
Y0045956D01*
X0013900Y0045920D02*
X0007411D01*
X0013900Y0045830D02*
X0007518D01*
X0013900Y0045740D02*
X0007603D01*
X0013900Y0046010D02*
X0007268D01*
X0007270Y0070150D02*
Y0046009D01*
X0007180Y0070150D02*
Y0046051D01*
X0007090Y0070150D02*
Y0046084D01*
X0007000Y0070150D02*
Y0046109D01*
X0006910Y0070150D02*
Y0046126D01*
X0006820Y0070150D02*
Y0046135D01*
X0006730Y0070150D02*
Y0046137D01*
X0006640Y0070150D02*
Y0046132D01*
X0006550Y0070150D02*
Y0046119D01*
X0006460Y0070150D02*
Y0046099D01*
X0006370Y0070150D02*
Y0046071D01*
X0006280Y0070150D02*
Y0046033D01*
X0006190Y0070150D02*
Y0045987D01*
X0006100Y0070150D02*
Y0045928D01*
X0006010Y0070150D02*
Y0045856D01*
X0005920Y0070150D02*
Y0045767D01*
X0013900Y0043940D02*
X0007008D01*
X0005740Y0070150D02*
Y0045493D01*
X0007720Y0070150D02*
Y0045571D01*
X0013900Y0045560D02*
X0007726D01*
X0013900Y0045470D02*
X0007771D01*
X0013900Y0045380D02*
X0007805D01*
X0013900Y0045290D02*
X0007832D01*
X0013900Y0045200D02*
X0007850D01*
X0013900Y0045110D02*
X0007860D01*
X0013900Y0045020D02*
X0007864D01*
X0013900Y0044930D02*
X0007860D01*
X0013900Y0044840D02*
X0007849D01*
X0013900Y0044750D02*
X0007830D01*
X0013900Y0044660D02*
X0007803D01*
X0013900Y0044570D02*
X0007767D01*
X0013900Y0044480D02*
X0007722D01*
X0013900Y0044390D02*
X0007666D01*
X0013900Y0044300D02*
X0007597D01*
X0013900Y0044210D02*
X0007511D01*
X0011410Y0070150D02*
Y0030950D01*
X0002410Y0070150D02*
Y0067400D01*
X0006246Y0044030D02*
X-0001550D01*
X0014830Y0068120D02*
Y0060380D01*
X0015100Y0067850D02*
Y0060650D01*
X0011500Y0026150D02*
X0009100D01*
X0002150Y0052550D02*
Y0047750D01*
X0004350Y0052550D02*
X0002150D01*
X0004350D02*
Y0047750D01*
X0002150D01*
X0009150Y0039750D02*
Y0034950D01*
X0011350Y0039750D02*
X0009150D01*
X0011350D02*
Y0034950D01*
X0009150D01*
X0002450Y0038000D02*
Y0033200D01*
X0004650Y0038000D02*
X0002450D01*
X0004650D02*
Y0033200D01*
X0002450D01*
X0011500Y0021350D02*
X0011350D01*
X0013900Y0044030D02*
X0007253D01*
X0009100Y0030950D02*
Y0026150D01*
X0009150Y0024000D02*
Y0019200D01*
X0011350Y0024000D02*
X0009150D01*
X0011350D02*
Y0019200D01*
X0009150D01*
X0002400Y0022250D02*
Y0017450D01*
X0004600Y0022250D02*
X0002400D01*
X0004600D02*
Y0017450D01*
X0002400D01*
X0008950Y0069150D02*
Y0064350D01*
X0011150Y0069150D02*
X0008950D01*
X0011150D02*
Y0064350D01*
X0008950D01*
X0004600Y0062600D02*
X0002400D01*
X0004600Y0067400D02*
Y0062600D01*
Y0067400D02*
X0002400D01*
Y0062600D01*
X0009150Y0054250D02*
Y0049450D01*
X0011350Y0054250D02*
X0009150D01*
X0011350D02*
Y0049450D01*
X0009150D01*
X0010150Y0034950D02*
Y0030950D01*
X0009100Y0029450D02*
X-0001550D01*
X0009880Y0034950D02*
Y0030950D01*
X0002770Y0047750D02*
Y0038000D01*
X0013220Y0033320D02*
X0004650D01*
X0010600Y0034950D02*
Y0030950D01*
X0009700Y0026150D02*
Y0024000D01*
Y0034950D02*
Y0030950D01*
X0002860Y0047750D02*
Y0038000D01*
X0010510Y0034950D02*
Y0030950D01*
X0010420Y0034950D02*
Y0030950D01*
X0010330Y0034950D02*
Y0030950D01*
X0011500Y0070150D02*
Y0031600D01*
X0009100Y0027020D02*
X-0001550D01*
X0013490Y0033590D02*
X0004650D01*
X0010240Y0034950D02*
Y0030950D01*
X0009150Y0037280D02*
X0004650D01*
X0013900Y0034940D02*
X0004650D01*
X0009150Y0037100D02*
X0004650D01*
X0009150Y0037190D02*
X0004650D01*
X0009150Y0037370D02*
X0004650D01*
X0014260Y0068690D02*
X0011150D01*
X0016100Y0066260D02*
X0011150D01*
X0011500Y0023870D02*
X0011350D01*
X0014170Y0068780D02*
X0011150D01*
X0014080Y0068870D02*
X0011150D01*
X0011500Y0023960D02*
X0011350D01*
X0011500Y0021170D02*
X0011350D01*
X0013990Y0068960D02*
X0011150D01*
X0008950Y0065270D02*
X0004600D01*
X0016100Y0065450D02*
X0011150D01*
X0010510Y0070150D02*
Y0069150D01*
X0016100Y0064370D02*
X0011150D01*
X0013900Y0051410D02*
X0011350D01*
X0008950Y0066800D02*
X0004600D01*
X0008950Y0066890D02*
X0004600D01*
X0008950Y0066980D02*
X0004600D01*
X0008950Y0067070D02*
X0004600D01*
X0008950Y0067160D02*
X0004600D01*
X0008950Y0067250D02*
X0004600D01*
X0008950Y0067340D02*
X0004600D01*
X0008950Y0066170D02*
X0004600D01*
X0008950Y0065450D02*
X0004600D01*
X0010870Y0070150D02*
Y0069150D01*
X0011050Y0070150D02*
Y0069150D01*
X0011140Y0070150D02*
Y0069150D01*
X0010780Y0070150D02*
Y0069150D01*
X0010690Y0070150D02*
Y0069150D01*
X0016100Y0066170D02*
X0011150D01*
X0013900Y0047990D02*
X0004350D01*
X0013900Y0048440D02*
X0004350D01*
X0013900Y0048080D02*
X0004350D01*
X0013900Y0048170D02*
X0004350D01*
X0009150Y0049790D02*
X0004350D01*
X0002770Y0062600D02*
Y0052550D01*
X0009150Y0051680D02*
X0004350D01*
X0009150Y0051770D02*
X0004350D01*
X0009150Y0052130D02*
X0004350D01*
X0009150Y0052220D02*
X0004350D01*
X0009150Y0052310D02*
X0004350D01*
X0009150Y0052400D02*
X0004350D01*
X0013900Y0036920D02*
X0011350D01*
X0013900Y0039530D02*
X0011350D01*
X0009150Y0052490D02*
X0004350D01*
X0013900Y0039620D02*
X0011350D01*
X0013900Y0039710D02*
X0011350D01*
X0013900Y0037910D02*
X0011350D01*
X0011500Y0020450D02*
X0011350D01*
X0010960Y0026150D02*
Y0024000D01*
X0011050Y0026150D02*
Y0024000D01*
X0011140Y0026150D02*
Y0024000D01*
X0009150Y0036110D02*
X0004650D01*
X0009520Y0049450D02*
Y0039750D01*
X0009150Y0020360D02*
X0004600D01*
X0011500Y0019910D02*
X0011350D01*
X0011500Y0020000D02*
X0011350D01*
X0011500Y0020090D02*
X0011350D01*
X0011500Y0020270D02*
X0011350D01*
X0011500Y0020360D02*
X0011350D01*
X0009250Y0026150D02*
Y0024000D01*
X0009340Y0026150D02*
Y0024000D01*
X0009430Y0026150D02*
Y0024000D01*
X0009520Y0026150D02*
Y0024000D01*
X0009150Y0036020D02*
X0004650D01*
X0011320Y0026150D02*
Y0024000D01*
X0002714Y0010604D02*
Y0008844D01*
X0004474D02*
X0002714D01*
X0004474Y0010604D02*
Y0008844D01*
Y0010604D02*
X0002714D01*
X0011500Y0010730D02*
X0007395D01*
X0007400Y0004700D02*
X0005350D01*
X0011500Y0008800D02*
X0007400Y0004700D01*
X0011500Y0031600D02*
Y0008800D01*
X0013900Y0034000D02*
X0011500Y0031600D01*
X0013900Y0059450D02*
Y0034000D01*
X0016100Y0061650D02*
X0013900Y0059450D01*
X0016100Y0066850D02*
Y0061650D01*
X0012800Y0070150D02*
X0016100Y0066850D01*
X0012800Y0070150D02*
X-0001550D01*
Y0004700D01*
X0005350D02*
X-0001550D01*
X0011500Y0022340D02*
X0011350D01*
X0016090Y0066860D02*
Y0061640D01*
X0016000Y0066950D02*
Y0061550D01*
X0015910Y0067040D02*
Y0061460D01*
X0015820Y0067130D02*
Y0061370D01*
X0015730Y0067220D02*
Y0061280D01*
X0015640Y0067310D02*
Y0061190D01*
X0015550Y0067400D02*
Y0061100D01*
X0015460Y0067490D02*
Y0061010D01*
X0015370Y0067580D02*
Y0060920D01*
X0015280Y0067670D02*
Y0060830D01*
X0015190Y0067760D02*
Y0060740D01*
X0015010Y0067940D02*
Y0060560D01*
X0014740Y0068210D02*
Y0060290D01*
X0014650Y0068300D02*
Y0060200D01*
X0014560Y0068390D02*
Y0060110D01*
X0014470Y0068480D02*
Y0060020D01*
X0014380Y0068570D02*
Y0059930D01*
X0014290Y0068660D02*
Y0059840D01*
X0014200Y0068750D02*
Y0059750D01*
X0014110Y0068840D02*
Y0059660D01*
X0014020Y0068930D02*
Y0059570D01*
X0013930Y0069020D02*
Y0059480D01*
X0013840Y0069110D02*
Y0033940D01*
X0013750Y0069200D02*
Y0033850D01*
X0013660Y0069290D02*
Y0033760D01*
X0013570Y0069380D02*
Y0033670D01*
X0013480Y0069470D02*
Y0033580D01*
X0013390Y0069560D02*
Y0033490D01*
X0013300Y0069650D02*
Y0033400D01*
X0013210Y0069740D02*
Y0033310D01*
X0013120Y0069830D02*
Y0033220D01*
X0013030Y0069920D02*
Y0033130D01*
X0012940Y0070010D02*
Y0033040D01*
X0012850Y0070100D02*
Y0032950D01*
X0009150Y0049610D02*
X0004350D01*
X0012760Y0070150D02*
Y0032860D01*
X0012130Y0070150D02*
Y0032230D01*
X0012040Y0070150D02*
Y0032140D01*
X0011950Y0070150D02*
Y0032050D01*
X0011860Y0070150D02*
Y0031960D01*
X0011680Y0070150D02*
Y0031780D01*
X0013900Y0043310D02*
X0007291D01*
X0011500Y0030950D02*
Y0026150D01*
X0009150Y0021350D02*
X0004600D01*
X0011500Y0013340D02*
X0007340D01*
X0011320Y0019200D02*
Y0008620D01*
X0002714Y0009020D02*
X-0001550D01*
X0011230Y0019200D02*
Y0008530D01*
X0009150Y0021260D02*
X0004600D01*
X0010960Y0019200D02*
Y0008260D01*
X0010870Y0019200D02*
Y0008170D01*
X0011500Y0020540D02*
X0011350D01*
X0010600Y0019200D02*
Y0007900D01*
X0010510Y0019200D02*
Y0007810D01*
X0010420Y0019200D02*
Y0007720D01*
X0010330Y0019200D02*
Y0007630D01*
X0010240Y0019200D02*
Y0007540D01*
X0010150Y0019200D02*
Y0007450D01*
X0010060Y0019200D02*
Y0007360D01*
X0009970Y0019200D02*
Y0007270D01*
X0008440Y0070150D02*
Y0005740D01*
X0008950Y0066350D02*
X0004600D01*
X0011230Y0026150D02*
Y0024000D01*
X0009430Y0019200D02*
Y0006730D01*
X0009160Y0064350D02*
Y0054250D01*
Y0019200D02*
Y0006460D01*
X0008980Y0064350D02*
Y0006280D01*
X0008890Y0070150D02*
Y0006190D01*
X0008800Y0070150D02*
Y0006100D01*
X0008710Y0070150D02*
Y0006010D01*
X0008620Y0070150D02*
Y0005920D01*
X0008530Y0070150D02*
Y0005830D01*
X0008350Y0070150D02*
Y0005650D01*
X0008260Y0070150D02*
Y0005560D01*
X0008170Y0070150D02*
Y0005470D01*
X0008080Y0070150D02*
Y0005380D01*
X0006347Y0013340D02*
X-0001550D01*
X0006278Y0041330D02*
X-0001550D01*
X0006292Y0010730D02*
X-0001550D01*
X0009520Y0019200D02*
Y0006820D01*
X0007990Y0070150D02*
Y0005290D01*
X0007900Y0011344D02*
Y0005200D01*
X0007810Y0011143D02*
Y0005110D01*
X0005897Y0045740D02*
X-0001550D01*
X0005905Y0041690D02*
X-0001550D01*
X0007540Y0010828D02*
Y0004840D01*
X0007450Y0010763D02*
Y0004750D01*
X0011500Y0010640D02*
X0007193D01*
X0007270Y0010668D02*
Y0004700D01*
X0007180Y0010635D02*
Y0004700D01*
X0007090Y0010611D02*
Y0004700D01*
X0007000Y0010595D02*
Y0004700D01*
X0006910Y0010585D02*
Y0004700D01*
X0006820Y0010584D02*
Y0004700D01*
X0006730Y0010589D02*
Y0004700D01*
X0006640Y0010602D02*
Y0004700D01*
X0006550Y0010623D02*
Y0004700D01*
X0006460Y0010652D02*
Y0004700D01*
X0006370Y0010689D02*
Y0004700D01*
X0006280Y0010737D02*
Y0004700D01*
X0006190Y0010795D02*
Y0004700D01*
X0006100Y0010868D02*
Y0004700D01*
X0005650Y0044847D02*
Y0004700D01*
X0005560Y0070150D02*
Y0004700D01*
X0005470Y0070150D02*
Y0004700D01*
X0005380Y0070150D02*
Y0004700D01*
X0005290Y0070150D02*
Y0004700D01*
X0005200Y0070150D02*
Y0004700D01*
X0011500Y0008930D02*
X0004474D01*
X0005020Y0070150D02*
Y0004700D01*
X0004930Y0070150D02*
Y0004700D01*
X0004840Y0070150D02*
Y0004700D01*
X0004750Y0070150D02*
Y0004700D01*
X0003130Y0070150D02*
Y0067400D01*
X0002400Y0021170D02*
X-0001550D01*
X0002400Y0020450D02*
X-0001550D01*
X0004480Y0017450D02*
Y0004700D01*
X0004390Y0008844D02*
Y0004700D01*
X0004300Y0008844D02*
Y0004700D01*
X0004210Y0008844D02*
Y0004700D01*
X0004120Y0008844D02*
Y0004700D01*
X0004030Y0008844D02*
Y0004700D01*
X0003940Y0008844D02*
Y0004700D01*
X0003850Y0008844D02*
Y0004700D01*
X0003760Y0008844D02*
Y0004700D01*
X0003670Y0008844D02*
Y0004700D01*
X0003580Y0008844D02*
Y0004700D01*
X0003490Y0008844D02*
Y0004700D01*
X0003400Y0008844D02*
Y0004700D01*
X0003310Y0008844D02*
Y0004700D01*
X0003220Y0008844D02*
Y0004700D01*
X0003130Y0008844D02*
Y0004700D01*
X0003040Y0008844D02*
Y0004700D01*
X0011500Y0012890D02*
X-0001550D01*
X0002860Y0062600D02*
Y0052550D01*
X0002770Y0017450D02*
Y0010604D01*
Y0008844D02*
Y0004700D01*
X0002680Y0017450D02*
Y0004700D01*
X0002410Y0047750D02*
Y0022250D01*
Y0017450D02*
Y0004700D01*
X0002230Y0047750D02*
Y0004700D01*
X0002140Y0070150D02*
Y0004700D01*
X0002050Y0070150D02*
Y0004700D01*
X0001960Y0070150D02*
Y0004700D01*
X0001870Y0070150D02*
Y0004700D01*
X0001780Y0070150D02*
Y0004700D01*
X0001690Y0070150D02*
Y0004700D01*
X0001600Y0070150D02*
Y0004700D01*
X0001510Y0070150D02*
Y0004700D01*
X0001420Y0070150D02*
Y0004700D01*
X0001330Y0070150D02*
Y0004700D01*
X0001240Y0070150D02*
Y0004700D01*
X0001150Y0070150D02*
Y0004700D01*
X0001060Y0070150D02*
Y0004700D01*
X0000970Y0070150D02*
Y0004700D01*
X0000880Y0070150D02*
Y0004700D01*
X0000790Y0070150D02*
Y0004700D01*
X0011500Y0008840D02*
X-0001550D01*
X0000610Y0070150D02*
Y0004700D01*
X0000520Y0070150D02*
Y0004700D01*
X0000430Y0070150D02*
Y0004700D01*
X0000340Y0070150D02*
Y0004700D01*
X0000250Y0070150D02*
Y0004700D01*
X0000160Y0070150D02*
Y0004700D01*
X0000070Y0070150D02*
Y0004700D01*
X-0000020Y0070150D02*
Y0004700D01*
X-0000110Y0070150D02*
Y0004700D01*
X0013900Y0053840D02*
X0011350D01*
X0011320Y0070150D02*
Y0054250D01*
X0010780Y0064350D02*
Y0054250D01*
X0011140Y0064350D02*
Y0054250D01*
X0011050Y0064350D02*
Y0054250D01*
X0010960Y0064350D02*
Y0054250D01*
X0009700Y0064350D02*
Y0054250D01*
X0013900Y0050510D02*
X0011350D01*
X0013900Y0053750D02*
X0011350D01*
X0013900Y0053660D02*
X0011350D01*
X0013900Y0051590D02*
X0011350D01*
X0013900Y0050420D02*
X0011350D01*
X0013900Y0050330D02*
X0011350D01*
X0013900Y0050240D02*
X0011350D01*
X0013900Y0050150D02*
X0011350D01*
X0013900Y0050060D02*
X0011350D01*
X0013900Y0049970D02*
X0011350D01*
X0013900Y0049880D02*
X0011350D01*
X0013900Y0069050D02*
X0011150D01*
X0009520Y0064350D02*
Y0054250D01*
X0009430Y0064350D02*
Y0054250D01*
X0009340Y0064350D02*
Y0054250D01*
X0009250Y0064350D02*
Y0054250D01*
X0013900Y0049790D02*
X0011350D01*
X0013900Y0049700D02*
X0011350D01*
X0013900Y0049610D02*
X0011350D01*
X0002450Y0037460D02*
X-0001550D01*
X0012670Y0070150D02*
Y0032770D01*
X0012580Y0070150D02*
Y0032680D01*
X0012490Y0070150D02*
Y0032590D01*
X0012400Y0070150D02*
Y0032500D01*
X0012310Y0070150D02*
Y0032410D01*
X0012220Y0070150D02*
Y0032320D01*
X0011140Y0019200D02*
Y0008440D01*
X0009150Y0037460D02*
X0004650D01*
X0010780Y0034950D02*
Y0030950D01*
X0013900Y0035930D02*
X0011350D01*
X0009100Y0029720D02*
X-0001550D01*
X0010780Y0026150D02*
Y0024000D01*
X0011320Y0034950D02*
Y0030950D01*
X0011500D02*
X0009100D01*
X0010060Y0034950D02*
Y0030950D01*
X0011140Y0034950D02*
Y0030950D01*
X0009100Y0029090D02*
X-0001550D01*
X0002680Y0047750D02*
Y0038000D01*
X0013670Y0033770D02*
X0004650D01*
X0011230Y0034950D02*
Y0030950D01*
X0013760Y0033860D02*
X0004650D01*
X0009100Y0027740D02*
X-0001550D01*
X0009100Y0028370D02*
X-0001550D01*
X0010690Y0034950D02*
Y0030950D01*
X0013310Y0033410D02*
X0004650D01*
X0002590Y0047750D02*
Y0038000D01*
X0013900Y0036200D02*
X0011350D01*
X0009790Y0034950D02*
Y0030950D01*
X0013580Y0033680D02*
X0004650D01*
X0013400Y0033500D02*
X0004650D01*
X0002400Y0017570D02*
X-0001550D01*
X0011500Y0017660D02*
X0004600D01*
X0011500Y0017750D02*
X0004600D01*
X0011500Y0017840D02*
X0004600D01*
X0011500Y0017930D02*
X0004600D01*
X0011500Y0018020D02*
X0004600D01*
X0011500Y0018110D02*
X0004600D01*
X0011500Y0019190D02*
X0004600D01*
X0011500Y0018200D02*
X0004600D01*
X0009150Y0020270D02*
X0004600D01*
X0002500Y0047750D02*
Y0038000D01*
X0002590Y0033200D02*
Y0022250D01*
X0002680Y0033200D02*
Y0022250D01*
X0002770Y0033200D02*
Y0022250D01*
X0002860Y0033200D02*
Y0022250D01*
X0002450Y0033500D02*
X-0001550D01*
X0011500Y0023420D02*
X0011350D01*
X0011500Y0023510D02*
X0011350D01*
X0011500Y0023600D02*
X0011350D01*
X0011500Y0023690D02*
X0011350D01*
X0008950Y0066440D02*
X0004600D01*
X0014440Y0068510D02*
X0011150D01*
X0009790Y0070150D02*
Y0069150D01*
X0010420Y0070150D02*
Y0069150D01*
X0010330Y0070150D02*
Y0069150D01*
X0010240Y0070150D02*
Y0069150D01*
X0010150Y0070150D02*
Y0069150D01*
X0010060Y0070150D02*
Y0069150D01*
X0009970Y0070150D02*
Y0069150D01*
X0009880Y0070150D02*
Y0069150D01*
X0011500Y0023780D02*
X0011350D01*
X0015430Y0067520D02*
X0011150D01*
X0009610Y0070150D02*
Y0069150D01*
X0015610Y0067340D02*
X0011150D01*
X0015700Y0067250D02*
X0011150D01*
X0015790Y0067160D02*
X0011150D01*
X0015880Y0067070D02*
X0011150D01*
X0015970Y0066980D02*
X0011150D01*
X0016060Y0066890D02*
X0011150D01*
X0016100Y0066800D02*
X0011150D01*
X0016100Y0066710D02*
X0011150D01*
X0008950Y0067700D02*
X-0001550D01*
X0016100Y0065270D02*
X0011150D01*
X0015520Y0067430D02*
X0011150D01*
X0014530Y0068420D02*
X0011150D01*
X0014620Y0068330D02*
X0011150D01*
X0014710Y0068240D02*
X0011150D01*
X0014800Y0068150D02*
X0011150D01*
X0014890Y0068060D02*
X0011150D01*
X0014980Y0067970D02*
X0011150D01*
X0015070Y0067880D02*
X0011150D01*
X0015160Y0067790D02*
X0011150D01*
X0015250Y0067700D02*
X0011150D01*
X0016100Y0066620D02*
X0011150D01*
X0016100Y0066530D02*
X0011150D01*
X0016100Y0066440D02*
X0011150D01*
X0016100Y0066350D02*
X0011150D01*
X0002400Y0066710D02*
X-0001550D01*
X0009610Y0064350D02*
Y0054250D01*
X0010600Y0070150D02*
Y0069150D01*
X0016100Y0066080D02*
X0011150D01*
X0016100Y0065990D02*
X0011150D01*
X0016100Y0065900D02*
X0011150D01*
X0016100Y0065810D02*
X0011150D01*
X0016100Y0065720D02*
X0011150D01*
X0016100Y0065630D02*
X0011150D01*
X0016100Y0065540D02*
X0011150D01*
X0009150Y0053930D02*
X-0001550D01*
X0013900Y0050690D02*
X0011350D01*
X0013900Y0050600D02*
X0011350D01*
X0013900Y0053570D02*
X0011350D01*
X0013900Y0053930D02*
X0011350D01*
X0011230Y0070150D02*
Y0054250D01*
X0013900Y0053300D02*
X0011350D01*
X0013900Y0053210D02*
X0011350D01*
X0013900Y0053120D02*
X0011350D01*
X0013900Y0053030D02*
X0011350D01*
X0013900Y0053480D02*
X0011350D01*
X0013900Y0053390D02*
X0011350D01*
X0014350Y0068600D02*
X0011150D01*
X0013900Y0054110D02*
X0011350D01*
X0013900Y0052760D02*
X0011350D01*
X0013900Y0054200D02*
X0011350D01*
X0008980Y0070150D02*
Y0069150D01*
X0016100Y0062750D02*
X0004600D01*
X0013900Y0051770D02*
X0011350D01*
X0016100Y0063110D02*
X0004600D01*
X0008950Y0065360D02*
X0004600D01*
X0002680Y0070150D02*
Y0067400D01*
X0008950Y0065540D02*
X0004600D01*
X0016100Y0062840D02*
X0004600D01*
X0013900Y0052670D02*
X0011350D01*
X0013900Y0052580D02*
X0011350D01*
X0013900Y0054020D02*
X0011350D01*
X0013900Y0052850D02*
X0011350D01*
X0013900Y0052310D02*
X0011350D01*
X0013900Y0052220D02*
X0011350D01*
X0013900Y0052130D02*
X0011350D01*
X0010690Y0064350D02*
Y0054250D01*
X0013900Y0052490D02*
X0011350D01*
X0013900Y0052400D02*
X0011350D01*
X0009150Y0052850D02*
X-0001550D01*
X0010870Y0064350D02*
Y0054250D01*
X0009790Y0064350D02*
Y0054250D01*
X0010600Y0064350D02*
Y0054250D01*
X0010510Y0064350D02*
Y0054250D01*
X0010420Y0064350D02*
Y0054250D01*
X0016100Y0062930D02*
X0004600D01*
X0016100Y0063200D02*
X0004600D01*
X0002500Y0070150D02*
Y0067400D01*
X0002770Y0070150D02*
Y0067400D01*
X0013900Y0052040D02*
X0011350D01*
X0008950Y0066530D02*
X0004600D01*
X0002150Y0051950D02*
X-0001550D01*
X0010330Y0064350D02*
Y0054250D01*
X0016100Y0063020D02*
X0004600D01*
X0010240Y0064350D02*
Y0054250D01*
X0016100Y0064280D02*
X0004600D01*
X0010150Y0064350D02*
Y0054250D01*
X0002590Y0070150D02*
Y0067400D01*
X0010060Y0064350D02*
Y0054250D01*
X0002860Y0070150D02*
Y0067400D01*
X0009970Y0064350D02*
Y0054250D01*
X0016100Y0062660D02*
X0004600D01*
X0009880Y0064350D02*
Y0054250D01*
X0013900Y0051680D02*
X0011350D01*
X0013900Y0051950D02*
X0011350D01*
X0013900Y0051860D02*
X0011350D01*
X0013900Y0051320D02*
X0011350D01*
X0013900Y0051230D02*
X0011350D01*
X0013900Y0051140D02*
X0011350D01*
X0013900Y0051050D02*
X0011350D01*
X0013900Y0050960D02*
X0011350D01*
X0013900Y0050870D02*
X0011350D01*
X0013900Y0050780D02*
X0011350D01*
X0013900Y0051500D02*
X0011350D01*
X0003040Y0062600D02*
Y0052550D01*
X0004210Y0070150D02*
Y0067400D01*
X0004300Y0070150D02*
Y0067400D01*
X0004390Y0070150D02*
Y0067400D01*
X0004480Y0070150D02*
Y0067400D01*
X0004570Y0070150D02*
Y0067400D01*
X0013900Y0041330D02*
X0007409D01*
X0016100Y0064550D02*
X0011150D01*
X0016100Y0064640D02*
X0011150D01*
X0016100Y0064730D02*
X0011150D01*
X0016100Y0064820D02*
X0011150D01*
X0016100Y0064910D02*
X0011150D01*
X0002950Y0070150D02*
Y0067400D01*
X0016100Y0064190D02*
X0004600D01*
X0016100Y0064100D02*
X0004600D01*
X0016100Y0064010D02*
X0004600D01*
X0016100Y0063920D02*
X0004600D01*
X0016100Y0063830D02*
X0004600D01*
X0016100Y0063740D02*
X0004600D01*
X0016100Y0063650D02*
X0004600D01*
X0016100Y0063560D02*
X0004600D01*
X0016100Y0063470D02*
X0004600D01*
X0016100Y0063380D02*
X0004600D01*
X0016100Y0065000D02*
X0011150D01*
X0016100Y0065090D02*
X0011150D01*
X0016100Y0065180D02*
X0011150D01*
X0016100Y0065360D02*
X0011150D01*
X0009070Y0070150D02*
Y0069150D01*
X0009160Y0070150D02*
Y0069150D01*
X0009250Y0070150D02*
Y0069150D01*
X0009340Y0070150D02*
Y0069150D01*
X0009430Y0070150D02*
Y0069150D01*
X0009520Y0070150D02*
Y0069150D01*
X0013810Y0069140D02*
X0011150D01*
X0008950Y0065630D02*
X0004600D01*
X0008950Y0065180D02*
X0004600D01*
X0008950Y0065090D02*
X0004600D01*
X0008950Y0065000D02*
X0004600D01*
X0008950Y0064910D02*
X0004600D01*
X0008950Y0064820D02*
X0004600D01*
X0008950Y0064730D02*
X0004600D01*
X0008950Y0064640D02*
X0004600D01*
X0008950Y0064550D02*
X0004600D01*
X0008950Y0064460D02*
X0004600D01*
X0002400Y0066620D02*
X-0001550D01*
X0016100Y0064460D02*
X0011150D01*
X0008950Y0067520D02*
X-0001550D01*
X0002450Y0037550D02*
X-0001550D01*
X0008950Y0066260D02*
X0004600D01*
X0004030Y0070150D02*
Y0067400D01*
X0003940Y0070150D02*
Y0067400D01*
X0003850Y0070150D02*
Y0067400D01*
X0003760Y0070150D02*
Y0067400D01*
X0003670Y0070150D02*
Y0067400D01*
X0003580Y0070150D02*
Y0067400D01*
X0003490Y0070150D02*
Y0067400D01*
X0003400Y0070150D02*
Y0067400D01*
X0003310Y0070150D02*
Y0067400D01*
X0003220Y0070150D02*
Y0067400D01*
X0016100Y0063290D02*
X0004600D01*
X0009150Y0049880D02*
X0004350D01*
X0004120Y0070150D02*
Y0067400D01*
X0009070Y0064350D02*
Y0006370D01*
X0008950Y0066080D02*
X0004600D01*
X0008950Y0065990D02*
X0004600D01*
X0008950Y0065900D02*
X0004600D01*
X0008950Y0065810D02*
X0004600D01*
X0003040Y0070150D02*
Y0067400D01*
X0008950Y0064370D02*
X0004600D01*
X0002950Y0047750D02*
Y0038000D01*
X0003850Y0062600D02*
Y0052550D01*
X0003940Y0062600D02*
Y0052550D01*
X0004120Y0062600D02*
Y0052550D01*
X0004210Y0062600D02*
Y0052550D01*
X0004300Y0062600D02*
Y0052550D01*
X0004030Y0062600D02*
Y0052550D01*
X0002150Y0047900D02*
X-0001550D01*
X0013900D02*
X0004350D01*
X0005830Y0070150D02*
Y0045652D01*
X0013900Y0049340D02*
X0004350D01*
X0013900Y0049250D02*
X0004350D01*
X0013900Y0049160D02*
X0004350D01*
X0013900Y0049070D02*
X0004350D01*
X0013900Y0048980D02*
X0004350D01*
X0013900Y0048890D02*
X0004350D01*
X0013900Y0048800D02*
X0004350D01*
X0013900Y0048710D02*
X0004350D01*
X0013900Y0048620D02*
X0004350D01*
X0002150Y0050600D02*
X-0001550D01*
X0009150Y0050510D02*
X0004350D01*
X0009150Y0050330D02*
X0004350D01*
X0009150Y0050240D02*
X0004350D01*
X0009150Y0050150D02*
X0004350D01*
X0009150Y0050060D02*
X0004350D01*
X0009150Y0049970D02*
X0004350D01*
X0002150Y0049880D02*
X-0001550D01*
X0009150Y0050420D02*
X0004350D01*
X0009340Y0019200D02*
Y0006640D01*
X0013900Y0048530D02*
X0004350D01*
X0009150Y0049700D02*
X0004350D01*
X0009150Y0049520D02*
X0004350D01*
X0009150Y0050690D02*
X0004350D01*
X0008950Y0065720D02*
X0004600D01*
X0013850Y0033950D02*
X0004650D01*
X0004120Y0047750D02*
Y0038000D01*
X0009150Y0050960D02*
X0004350D01*
X0003760Y0062600D02*
Y0052550D01*
X0003670Y0062600D02*
Y0052550D01*
X0003580Y0062600D02*
Y0052550D01*
X0003490Y0062600D02*
Y0052550D01*
X0003400Y0062600D02*
Y0052550D01*
X0002400Y0066260D02*
X-0001550D01*
X0009150Y0051590D02*
X0004350D01*
X0009150Y0052040D02*
X0004350D01*
X0002150Y0051770D02*
X-0001550D01*
X0009150Y0051500D02*
X0004350D01*
X0009150Y0051410D02*
X0004350D01*
X0009150Y0051320D02*
X0004350D01*
X0009150Y0051230D02*
X0004350D01*
X0009150Y0051140D02*
X0004350D01*
X0009150Y0051050D02*
X0004350D01*
X0002950Y0062600D02*
Y0052550D01*
X0009150Y0050870D02*
X0004350D01*
X0009150Y0050780D02*
X0004350D01*
X0002450Y0033320D02*
X-0001550D01*
X0013900Y0037460D02*
X0011350D01*
X0013900Y0038360D02*
X0011350D01*
X0013900Y0039080D02*
X0011350D01*
X0013900Y0048350D02*
X0004350D01*
X0013900Y0045650D02*
X0007671D01*
X0013900Y0038810D02*
X0011350D01*
X0013900Y0038720D02*
X0011350D01*
X0013900Y0038630D02*
X0011350D01*
X0013900Y0037550D02*
X0011350D01*
X0013900Y0038990D02*
X0011350D01*
X0013900Y0038900D02*
X0011350D01*
X0010960Y0049450D02*
Y0039750D01*
X0013900Y0048260D02*
X0004350D01*
X0013900Y0038270D02*
X0011350D01*
X0013900Y0049430D02*
X0004350D01*
X0002320Y0070150D02*
Y0052550D01*
X0013900Y0041240D02*
X0007216D01*
X0002410Y0062600D02*
Y0052550D01*
X0013900Y0038000D02*
X0011350D01*
X0002590Y0062600D02*
Y0052550D01*
X0002680Y0062600D02*
Y0052550D01*
X0002500Y0062600D02*
Y0052550D01*
X0013900Y0038180D02*
X0011350D01*
X0013900Y0038540D02*
X0011350D01*
X0013900Y0038450D02*
X0011350D01*
X0013900Y0037820D02*
X0011350D01*
X0013900Y0037730D02*
X0011350D01*
X0013900Y0037640D02*
X0011350D01*
X0002150Y0050690D02*
X-0001550D01*
X0010780Y0049450D02*
Y0039750D01*
X0009610Y0034950D02*
Y0030950D01*
X0013900Y0036110D02*
X0011350D01*
X0009150Y0038360D02*
X-0001550D01*
X0009790Y0049450D02*
Y0039750D01*
X0010600Y0049450D02*
Y0039750D01*
X0010510Y0049450D02*
Y0039750D01*
X0010420Y0049450D02*
Y0039750D01*
X0010330Y0049450D02*
Y0039750D01*
X0010240Y0049450D02*
Y0039750D01*
X0010150Y0049450D02*
Y0039750D01*
X0010060Y0049450D02*
Y0039750D01*
X0009970Y0049450D02*
Y0039750D01*
X0008950Y0066620D02*
X0004600D01*
X0002450Y0037640D02*
X-0001550D01*
X0002450Y0037370D02*
X-0001550D01*
X0013900Y0037280D02*
X0011350D01*
X0009610Y0049450D02*
Y0039750D01*
X0011050Y0049450D02*
Y0039750D01*
X0011140Y0049450D02*
Y0039750D01*
X0011230Y0049450D02*
Y0039750D01*
X0011320Y0049450D02*
Y0039750D01*
X0010870Y0049450D02*
Y0039750D01*
X0013900Y0039170D02*
X0011350D01*
X0013900Y0039260D02*
X0011350D01*
X0009150Y0051950D02*
X0004350D01*
X0009700Y0049450D02*
Y0039750D01*
X0013900Y0037190D02*
X0011350D01*
X0013900Y0037370D02*
X0011350D01*
X0013900Y0036830D02*
X0011350D01*
X0013900Y0036740D02*
X0011350D01*
X0013900Y0036650D02*
X0011350D01*
X0013900Y0036560D02*
X0011350D01*
X0013900Y0036470D02*
X0011350D01*
X0013900Y0036380D02*
X0011350D01*
X0013900Y0036290D02*
X0011350D01*
X0013900Y0037010D02*
X0011350D01*
X0011410Y0026150D02*
Y0008710D01*
X0011500Y0021710D02*
X0011350D01*
X0011500Y0021080D02*
X0011350D01*
X0011500Y0021620D02*
X0011350D01*
X0011500Y0024140D02*
X-0001550D01*
X0011500Y0023060D02*
X0011350D01*
X0011500Y0022970D02*
X0011350D01*
X0011500Y0022880D02*
X0011350D01*
X0011500Y0023330D02*
X0011350D01*
X0011500Y0023240D02*
X0011350D01*
X0010780Y0019200D02*
Y0008080D01*
X0009100Y0026300D02*
X-0001550D01*
X0011500Y0023150D02*
X0011350D01*
X0009340Y0034950D02*
Y0030950D01*
X0009150Y0036200D02*
X0004650D01*
X0009150Y0022610D02*
X-0001550D01*
X0010330Y0026150D02*
Y0024000D01*
X0011500Y0022520D02*
X0011350D01*
X0011500Y0025310D02*
X-0001550D01*
X0011500Y0022700D02*
X0011350D01*
X0011500Y0022610D02*
X0011350D01*
X0011500Y0022070D02*
X0011350D01*
X0011500Y0021980D02*
X0011350D01*
X0011500Y0021800D02*
X0011350D01*
X0011500Y0022430D02*
X0011350D01*
X0011500Y0022250D02*
X0011350D01*
X0009790Y0026150D02*
Y0024000D01*
X0010600Y0026150D02*
Y0024000D01*
X0010510Y0026150D02*
Y0024000D01*
X0010420Y0026150D02*
Y0024000D01*
X0011500Y0022160D02*
X0011350D01*
X0009430Y0034950D02*
Y0030950D01*
X0004210Y0047750D02*
Y0038000D01*
X0004390Y0062600D02*
Y0038000D01*
X0004300Y0047750D02*
Y0038000D01*
X0011500Y0021530D02*
X0011350D01*
X0011500Y0021890D02*
X0011350D01*
X0013900Y0039350D02*
X0011350D01*
X0002400Y0021620D02*
X-0001550D01*
X0009250Y0034950D02*
Y0030950D01*
X0010240Y0026150D02*
Y0024000D01*
X0009520Y0034950D02*
Y0030950D01*
X0010150Y0026150D02*
Y0024000D01*
X0011500Y0021440D02*
X0011350D01*
X0010060Y0026150D02*
Y0024000D01*
X0004480Y0062600D02*
Y0038000D01*
X0009970Y0026150D02*
Y0024000D01*
X0011500Y0022790D02*
X0011350D01*
X0004030Y0047750D02*
Y0038000D01*
X0010870Y0026150D02*
Y0024000D01*
X0011500Y0017120D02*
X-0001550D01*
X0011770Y0070150D02*
Y0031870D01*
X0011500Y0020990D02*
X0011350D01*
X0011500Y0020900D02*
X0011350D01*
X0011500Y0020810D02*
X0011350D01*
X0011500Y0020720D02*
X0011350D01*
X0011500Y0020630D02*
X0011350D01*
X0009610Y0026150D02*
Y0024000D01*
X0009150Y0036380D02*
X0004650D01*
X0009150Y0037550D02*
X0004650D01*
X0009150Y0037640D02*
X0004650D01*
X0009150Y0037730D02*
X0004650D01*
X0009150Y0037820D02*
X0004650D01*
X0009150Y0037910D02*
X0004650D01*
X0009150Y0038090D02*
X-0001550D01*
X0013900Y0037100D02*
X0011350D01*
X0013900Y0035030D02*
X0011350D01*
X0013900Y0035120D02*
X0011350D01*
X0013900Y0035210D02*
X0011350D01*
X0013900Y0035300D02*
X0011350D01*
X0007360Y0010710D02*
Y0004700D01*
X0013900Y0034850D02*
X0004650D01*
X0013900Y0034760D02*
X0004650D01*
X0013900Y0034670D02*
X0004650D01*
X0013900Y0034580D02*
X0004650D01*
X0013900Y0034490D02*
X0004650D01*
X0013900Y0034400D02*
X0004650D01*
X0013900Y0034310D02*
X0004650D01*
X0013900Y0034220D02*
X0004650D01*
X0013900Y0034130D02*
X0004650D01*
X0013900Y0034040D02*
X0004650D01*
X0013900Y0035390D02*
X0011350D01*
X0013900Y0035480D02*
X0011350D01*
X0013900Y0035570D02*
X0011350D01*
X0013900Y0035660D02*
X0011350D01*
X0013900Y0035750D02*
X0011350D01*
X0013900Y0035840D02*
X0011350D01*
X0013900Y0036020D02*
X0011350D01*
X0009160Y0049450D02*
Y0039750D01*
X0009250Y0049450D02*
Y0039750D01*
X0009340Y0049450D02*
Y0039750D01*
X0009430Y0049450D02*
Y0039750D01*
X0009150Y0036290D02*
X0004650D01*
X0009150Y0035840D02*
X0004650D01*
X0009150Y0035750D02*
X0004650D01*
X0009150Y0035660D02*
X0004650D01*
X0009150Y0035570D02*
X0004650D01*
X0009150Y0035480D02*
X0004650D01*
X0008790Y0084250D02*
Y0078910D01*
X0012350Y0078190D02*
X0009510D01*
X0012350Y0078100D02*
X0009600D01*
X0008700Y0079000D02*
X0009600Y0078100D01*
X0008700Y0084250D02*
Y0079000D01*
X0012350Y0084250D02*
X0008700D01*
X0012350D02*
Y0078100D01*
X0012300Y0084250D02*
Y0078100D01*
X0012210Y0084250D02*
Y0078100D01*
X0012120Y0084250D02*
Y0078100D01*
X0012030Y0084250D02*
Y0078100D01*
X0011940Y0084250D02*
Y0078100D01*
X0011850Y0084250D02*
Y0078100D01*
X0011760Y0084250D02*
Y0078100D01*
X0011670Y0084250D02*
Y0078100D01*
X0011580Y0084250D02*
Y0078100D01*
X0011490Y0084250D02*
Y0078100D01*
X0011400Y0084250D02*
Y0078100D01*
X0011310Y0084250D02*
Y0078100D01*
X0011220Y0084250D02*
Y0078100D01*
X0011130Y0084250D02*
Y0078100D01*
X0011040Y0084250D02*
Y0078100D01*
X0010950Y0084250D02*
Y0078100D01*
X0010860Y0084250D02*
Y0078100D01*
X0010770Y0084250D02*
Y0078100D01*
X0010680Y0084250D02*
Y0078100D01*
X0010590Y0084250D02*
Y0078100D01*
X0010500Y0084250D02*
Y0078100D01*
X0010410Y0084250D02*
Y0078100D01*
X0010320Y0084250D02*
Y0078100D01*
X0010230Y0084250D02*
Y0078100D01*
X0010140Y0084250D02*
Y0078100D01*
X0010050Y0084250D02*
Y0078100D01*
X0009960Y0084250D02*
Y0078100D01*
X0009870Y0084250D02*
Y0078100D01*
X0009780Y0084250D02*
Y0078100D01*
X0009690Y0084250D02*
Y0078100D01*
X0009600Y0084250D02*
Y0078100D01*
X0009510Y0084250D02*
Y0078190D01*
X0009420Y0084250D02*
Y0078280D01*
X0009330Y0084250D02*
Y0078370D01*
X0009240Y0084250D02*
Y0078460D01*
X0009150Y0084250D02*
Y0078550D01*
X0009060Y0084250D02*
Y0078640D01*
X0008970Y0084250D02*
Y0078730D01*
X0008880Y0084250D02*
Y0078820D01*
X0012350Y0084220D02*
X0008700D01*
X0012350Y0084130D02*
X0008700D01*
X0012350Y0084040D02*
X0008700D01*
X0012350Y0083950D02*
X0008700D01*
X0012350Y0083860D02*
X0008700D01*
X0012350Y0083770D02*
X0008700D01*
X0012350Y0083680D02*
X0008700D01*
X0012350Y0083590D02*
X0008700D01*
X0012350Y0083500D02*
X0008700D01*
X0012350Y0083410D02*
X0008700D01*
X0012350Y0083320D02*
X0008700D01*
X0012350Y0083230D02*
X0008700D01*
X0012350Y0083140D02*
X0008700D01*
X0012350Y0083050D02*
X0008700D01*
X0012350Y0082960D02*
X0008700D01*
X0012350Y0082870D02*
X0008700D01*
X0012350Y0082780D02*
X0008700D01*
X0012350Y0082690D02*
X0008700D01*
X0012350Y0082600D02*
X0008700D01*
X0012350Y0082510D02*
X0008700D01*
X0012350Y0082420D02*
X0008700D01*
X0012350Y0082330D02*
X0008700D01*
X0012350Y0082240D02*
X0008700D01*
X0012350Y0082150D02*
X0008700D01*
X0012350Y0082060D02*
X0008700D01*
X0012350Y0081970D02*
X0008700D01*
X0012350Y0081880D02*
X0008700D01*
X0012350Y0081790D02*
X0008700D01*
X0012350Y0081700D02*
X0008700D01*
X0012350Y0081610D02*
X0008700D01*
X0012350Y0081520D02*
X0008700D01*
X0012350Y0081430D02*
X0008700D01*
X0012350Y0081340D02*
X0008700D01*
X0012350Y0081250D02*
X0008700D01*
X0012350Y0081160D02*
X0008700D01*
X0012350Y0081070D02*
X0008700D01*
X0012350Y0080980D02*
X0008700D01*
X0012350Y0080890D02*
X0008700D01*
X0012350Y0080800D02*
X0008700D01*
X0012350Y0080710D02*
X0008700D01*
X0012350Y0080620D02*
X0008700D01*
X0012350Y0080530D02*
X0008700D01*
X0012350Y0080440D02*
X0008700D01*
X0012350Y0080350D02*
X0008700D01*
X0012350Y0080260D02*
X0008700D01*
X0012350Y0080170D02*
X0008700D01*
X0012350Y0080080D02*
X0008700D01*
X0012350Y0079990D02*
X0008700D01*
X0012350Y0079900D02*
X0008700D01*
X0012350Y0079810D02*
X0008700D01*
X0012350Y0079720D02*
X0008700D01*
X0012350Y0079630D02*
X0008700D01*
X0012350Y0079540D02*
X0008700D01*
X0012350Y0079450D02*
X0008700D01*
X0012350Y0079360D02*
X0008700D01*
X0012350Y0079270D02*
X0008700D01*
X0012350Y0079180D02*
X0008700D01*
X0012350Y0079090D02*
X0008700D01*
X0012350Y0079000D02*
X0008700D01*
X0012350Y0078910D02*
X0008790D01*
X0012350Y0078820D02*
X0008880D01*
X0012350Y0078730D02*
X0008970D01*
X0012350Y0078640D02*
X0009060D01*
X0012350Y0078550D02*
X0009150D01*
X0012350Y0078460D02*
X0009240D01*
X0012350Y0078370D02*
X0009330D01*
X0012350Y0078280D02*
X0009420D01*
X0010690Y0077850D02*
Y0074450D01*
X0010600Y0077850D02*
Y0074450D01*
X0010510Y0077850D02*
Y0074450D01*
X0010420Y0077850D02*
Y0074450D01*
X0010330Y0077850D02*
Y0074450D01*
X0010240Y0077850D02*
Y0074450D01*
X0010150Y0077850D02*
Y0074450D01*
X0010060Y0077850D02*
Y0074450D01*
X0009970Y0077850D02*
Y0074450D01*
X0009880Y0077850D02*
Y0074450D01*
X0012300Y0077780D02*
X0009700D01*
X0012300Y0077690D02*
X0009700D01*
X0012300Y0077600D02*
X0009700D01*
X0012300Y0077510D02*
X0009700D01*
X0012300Y0077420D02*
X0009700D01*
X0012300Y0077330D02*
X0009700D01*
X0012300Y0077240D02*
X0009700D01*
X0012300Y0077150D02*
X0009700D01*
X0012300Y0077060D02*
X0009700D01*
X0012300Y0076970D02*
X0009700D01*
X0012300Y0076880D02*
X0009700D01*
X0012300Y0076790D02*
X0009700D01*
X0012300Y0076700D02*
X0009700D01*
X0012300Y0076610D02*
X0009700D01*
X0012300Y0076520D02*
X0009700D01*
X0012300Y0076430D02*
X0009700D01*
X0012300Y0076340D02*
X0009700D01*
X0012300Y0076250D02*
X0009700D01*
X0012300Y0076160D02*
X0009700D01*
X0012300Y0076070D02*
X0009700D01*
X0012300Y0075980D02*
X0009700D01*
X0012300Y0075890D02*
X0009700D01*
X0012300Y0075800D02*
X0009700D01*
X0012300Y0075710D02*
X0009700D01*
X0012300Y0075620D02*
X0009700D01*
X0012300Y0075530D02*
X0009700D01*
X0012300Y0075440D02*
X0009700D01*
X0012300Y0075350D02*
X0009700D01*
X0012300Y0075260D02*
X0009700D01*
X0012300Y0075170D02*
X0009700D01*
X0012300Y0075080D02*
X0009700D01*
X0012300Y0074990D02*
X0009700D01*
X0012300Y0074900D02*
X0009700D01*
X0012300Y0074810D02*
X0009700D01*
X0012300Y0074720D02*
X0009700D01*
X0012300Y0074630D02*
X0009700D01*
X0012300Y0074540D02*
X0009700D01*
X0009790Y0077850D02*
Y0074450D01*
X0012300D02*
X0009850D01*
X0012300Y0077850D02*
Y0074450D01*
Y0077850D02*
X0009700D01*
Y0074450D01*
X0009850D02*
X0009700D01*
X0012220Y0077850D02*
Y0074450D01*
X0012130Y0077850D02*
Y0074450D01*
X0012040Y0077850D02*
Y0074450D01*
X0011950Y0077850D02*
Y0074450D01*
X0011860Y0077850D02*
Y0074450D01*
X0011770Y0077850D02*
Y0074450D01*
X0011680Y0077850D02*
Y0074450D01*
X0011590Y0077850D02*
Y0074450D01*
X0011500Y0077850D02*
Y0074450D01*
X0011410Y0077850D02*
Y0074450D01*
X0011320Y0077850D02*
Y0074450D01*
X0011230Y0077850D02*
Y0074450D01*
X0011140Y0077850D02*
Y0074450D01*
X0011050Y0077850D02*
Y0074450D01*
X0010960Y0077850D02*
Y0074450D01*
X0010870Y0077850D02*
Y0074450D01*
X0010780Y0077850D02*
Y0074450D01*
G01X0005730Y0011698D02*
G03X0006844Y0010584I0001114J0000000D01*
G03X0007958Y0011698I0000000J0001114D01*
G03X0006844Y0012812I0001114J0000000D01*
G03X0005730Y0011698I0000000J0001114D01*
Y0014337D02*
G03X0006844Y0013223I0001114J0000000D01*
G03X0007958Y0014337I0000000J0001114D01*
G03X0006844Y0015451I0001114J0000000D01*
G03X0005730Y0014337I0000000J0001114D01*
Y0042290D02*
G03X0006844Y0041176I0001114J0000000D01*
G03X0007958Y0042290I0000000J0001114D01*
G03X0006844Y0043404I0001114J0000000D01*
G03X0005730Y0042290I0000000J0001114D01*
G01X0005636Y0045024D02*
G03X0006750Y0043910I0001114J0000000D01*
G03X0007864Y0045024I0000000J0001114D01*
G03X0006750Y0046138I0001114J0000000D01*
G03X0005636Y0045024I0000000J0001114D01*
G54D74*
G01X0042820Y0052030D02*
Y0059280D01*
Y0052030D01*
Y0048520D01*
X0018750Y0049250D02*
X0018550D01*
X0018300Y0049000D01*
Y0046800D01*
X0018520Y0046580D01*
Y0044720D01*
X0018750Y0049250D02*
Y0055950D01*
X0018300Y0056400D01*
Y0058400D01*
X0018750Y0058850D01*
X0019400Y0059500D01*
Y0071850D01*
X0019550Y0072000D01*
X0030750Y0067550D02*
Y0071200D01*
X0031500Y0071950D01*
X0052000Y0074250D02*
Y0073850D01*
X0044150Y0066000D01*
Y0056700D01*
X0044250Y0056600D01*
X0056250Y0044500D02*
X0060200Y0040550D01*
Y0006650D01*
X0053850Y0000300D01*
Y-0001500D01*
X0037210Y0083410D02*
Y0063980D01*
X0023000Y0039350D02*
Y0039950D01*
X0023500Y0040450D01*
Y0054900D01*
X0023150Y0055250D01*
X0023000Y0039350D02*
X0023050D01*
X0023500Y0038900D01*
Y0035450D01*
X0023800Y0062050D02*
X0023150Y0061400D01*
Y0055250D01*
G54D10*
X-0004134Y0003425D03*
Y0011693D03*
Y0014331D03*
Y0042283D03*
Y0045039D03*
Y0072992D03*
X0059055Y0000000D03*
X0000000D03*
X0059055Y0082677D03*
X0000000D03*
G54D11*
X0006844Y0011698D03*
Y0003430D03*
Y0042290D03*
Y0014337D03*
X0006750Y0072976D03*
Y0045024D03*
G54D16*
X0045750Y0081750D03*
Y0082750D03*
X0051500Y0037000D03*
X0027087Y0032250D03*
X0037913D03*
G54D17*
X0026000Y0013380D03*
Y0022120D03*
X0050250Y0013380D03*
Y0022120D03*
G54D18*
X0051500Y0035000D03*
G54D21*
X0003594Y0005404D03*
Y0009724D03*
X0010094D03*
Y0005404D03*
G54D26*
X0024980Y0075858D03*
X0040138D03*
Y0079008D03*
X0010250Y0077000D03*
X0015500Y0064000D03*
G54D27*
X0030750Y0006000D03*
X0006000Y0076250D03*
G54D28*
X0025750Y0000880D03*
X0015750D03*
X0020750Y0006000D03*
X0011000Y0081370D03*
G54D29*
X0020750Y0083000D03*
G54D30*
Y0081000D03*
G54D31*
X0058583Y0076250D03*
G54D32*
X0056417D03*
G54D33*
X0058506Y0060486D03*
Y0066486D03*
X0055527Y0081500D03*
G54D34*
X0023000Y0072750D03*
X0021000Y0066500D03*
X0018250Y0070500D03*
X0015500Y0066500D03*
X0040750Y0001250D03*
X0027500Y0066000D03*
X0047500Y0080000D03*
X0052250Y0083750D03*
X0010000Y0063901D03*
Y0065901D03*
X0010250Y0049000D03*
Y0051000D03*
X0003500Y0067848D03*
Y0065848D03*
X0003250Y0053000D03*
Y0051000D03*
X0010250Y0034500D03*
Y0036500D03*
Y0018750D03*
Y0020750D03*
X0003500Y0038500D03*
Y0036500D03*
Y0022750D03*
Y0020750D03*
X0055000Y0080153D03*
Y0082846D03*
G54D35*
Y0081992D03*
G54D36*
Y0081008D03*
G54D37*
X0052000Y0074250D03*
X0053000D03*
X0056000D03*
X0059000D03*
X0056994Y0061962D03*
Y0060978D03*
Y0059994D03*
Y0059010D03*
X0057978Y0061962D03*
Y0060978D03*
Y0059994D03*
X0056994Y0067962D03*
Y0066978D03*
Y0065994D03*
Y0065010D03*
X0057978Y0067962D03*
Y0066978D03*
Y0065994D03*
X0032250Y0047000D03*
X0033250D03*
Y0046000D03*
X0032250D03*
X0031250D03*
G54D38*
X0045750Y0080750D03*
X0057978Y0059010D03*
Y0065010D03*
X0031250Y0047000D03*
G54D39*
X0058250Y0053000D03*
G54D40*
Y0052213D03*
G54D45*
X0010000Y0067000D03*
Y0068000D03*
X0010250Y0052098D03*
Y0053098D03*
X0003500Y0064750D03*
Y0063750D03*
X0003250Y0049901D03*
Y0048901D03*
X0010250Y0037598D03*
Y0038598D03*
Y0021848D03*
Y0022848D03*
X0003500Y0035401D03*
Y0034401D03*
Y0019651D03*
Y0018651D03*
G54D50*
X0051250Y0031500D03*
X0041250D03*
X0038250Y0019250D03*
Y0009250D03*
G54D53*
X0024980Y0080090D03*
G54D65*
X0010250Y0027185D03*
Y0027842D03*
Y0028500D03*
Y0029157D03*
Y0029815D03*
G54D71*
X0041250Y0034750D03*
X0042000D03*
X0042700D03*
X0043450D03*
Y0035350D03*
X0042700D03*
X0042000D03*
X0041250D03*
Y0036050D03*
X0042000D03*
X0042700D03*
X0043450D03*
Y0036850D03*
X0042700D03*
X0042000D03*
X0041250D03*
X0043450Y0037550D03*
X0042700D03*
X0042000D03*
X0041250D03*
X0053300Y0051750D03*
X0052700D03*
X0053300Y0052400D03*
X0052700D03*
Y0053050D03*
X0053300D03*
Y0054450D03*
X0052650D03*
X0053300Y0053750D03*
X0052650D03*
X0047750Y0076700D03*
Y0077350D03*
X0048350Y0076050D03*
X0047750D03*
X0047150D03*
X0046600D03*
X0047150Y0076700D03*
X0046600D03*
X0047700Y0078600D03*
X0047150D03*
X0046600D03*
X0047150Y0077350D03*
X0046600D03*
X0047750Y0078000D03*
X0047150D03*
X0046600D03*
X0040750Y0045750D03*
X0047750D03*
X0023000Y0037500D03*
Y0033250D03*
G54D76*
X0031600Y0068450D03*
X0030250Y0070000D03*
X0031500Y0069500D03*
X0042500Y0045750D03*
X0044250D03*
X0033250Y0050250D03*
X0034300Y0051800D03*
X0046000Y0045750D03*
X0026900Y0069650D03*
X0020650Y0070450D03*
X0021750Y0070250D03*
X0049500Y0045750D03*
X0035250Y0051400D03*
X0037250Y0050250D03*
X0021750Y0072500D03*
X0020250Y0073950D03*
X0031750Y0054500D03*
X0035477Y0056600D03*
X0031750Y0057250D03*
X0019150Y0073950D03*
X0020000Y0077050D03*
X0034950Y0054304D03*
X0038250Y0001550D03*
X0036350Y0054600D03*
X0040250Y0057550D03*
Y0054200D03*
X0042300Y0053400D03*
X0044750Y0058700D03*
X0044500Y0057500D03*
X0017250Y0077500D03*
X0017970Y0079530D03*
X0004000Y0078950D03*
X0053750Y0040600D03*
X0049820Y-0000120D03*
X0054000Y0006500D03*
X0056250Y0046100D03*
X0042820Y0052030D03*
Y0059280D03*
Y0048520D03*
X0012480Y0029780D03*
X0060600Y0005100D03*
Y0041000D03*
X0018520Y0044720D03*
X0018750Y0049250D03*
Y0058850D03*
X0019550Y0072000D03*
X0030750Y0067550D03*
X0031500Y0071950D03*
X0044250Y0056600D03*
X0056250Y0044500D03*
X0053850Y-0001500D03*
X0042820Y0067400D03*
X0035750Y0048750D03*
X0023500Y0066500D03*
X0032000Y0067400D03*
X0050500Y0079050D03*
X0037210Y0083410D03*
Y0063980D03*
X0050500Y0052500D03*
Y0056500D03*
X0055750Y0056650D03*
X0056150Y0058450D03*
X0021650Y0046750D03*
X0022500Y0042500D03*
X0018750Y0047750D03*
X0019000Y0045850D03*
X0018750Y0057250D03*
X0023027Y0048023D03*
X0020323D03*
X0023000Y0039350D03*
X0036050Y0042100D03*
X0023500Y0035450D03*
X0039000Y0045750D03*
X0022500Y0056750D03*
X0048750Y0073250D03*
X0023880Y0061470D03*
X0022900Y0069650D03*
X0045000Y0073250D03*
X0042500D03*
X0043750Y0075000D03*
X0029750Y0050250D03*
X0023000Y0052250D03*
X0038250Y0044750D03*
X0036750D03*
X0019750Y0064470D03*
X0021500Y0044800D03*
X0020000D03*
X0035674Y0057924D03*
X0031242Y0050107D03*
X0021500Y0056800D03*
X0020000D03*
X0021500Y0059200D03*
X0020000D03*
G54D79*
X0055000Y0063964D03*
Y0060900D03*
X0050000Y0076800D03*
X0047500Y0081750D03*
X0052750Y0081000D03*
X0052500Y0076050D03*
X0053500Y0077450D03*
X0023800Y0062050D03*
X0023150Y0055250D03*
X0022000Y0054600D03*
X0020600Y0054850D03*
X0022000Y0040050D03*
X0020350Y0040100D03*
X0020500Y0035600D03*
X0022050D03*
X0022550Y0068500D03*
X0019750D03*
G54D81*
X0033992Y0050107D03*
X0035000Y0049000D03*
X0033000Y0069250D03*
X0005250Y0079000D03*
X0034500Y0055250D03*
X0039050Y0055500D03*
X0038031Y0056068D03*
X0024731D03*
X0002050Y0079750D03*
X0004650Y0080400D03*
X0028100Y0068500D03*
X0027450Y0070900D03*
X0021600Y0075950D03*
X0017950D03*
X0031100Y0056450D03*
X0019790Y0050280D03*
X0020570D03*
X0016700Y0074500D03*
X0018200D03*
X0040500Y0056500D03*
X0041900Y0053350D03*
X0033901Y0053351D03*
X0033000Y0067400D03*
X0040220D03*
X0019217Y0046733D03*
X0020067D03*
X0030200Y0055550D03*
X0036200D03*
X0020323Y0045473D03*
X0022023D03*
X0042950Y0068150D03*
X0022000D03*
X0022150Y0070450D03*
X0022350Y0073550D03*
X0040300Y0054750D03*
X0038000D03*
X0019450Y0055200D03*
X0020950D03*
X0020100Y0053450D03*
X0033590Y-0000770D03*
X0059000Y0045600D03*
X0041300Y0055200D03*
X0034000Y0055000D03*
X0020000Y0038800D03*
X0024130Y0057550D03*
X0020550D03*
X0035950Y0058450D03*
X0040800Y0057620D03*
X0059600Y0045000D03*
X0038670Y-0000820D03*
X0020500Y0043400D03*
X0022250D03*
X0034600Y0058350D03*
X0025800D03*
X0022550Y0035950D03*
X0019010D03*
X0022450Y0059500D03*
X0020550D03*
X0020900Y0053150D03*
X0037250Y0048750D03*
X0054500Y0001500D03*
X0059300Y0045300D03*
X0042050Y0057000D03*
X0035800Y0056450D03*
X0020000Y0061900D03*
X0054750Y0042000D03*
Y0040750D03*
X0021000Y0038450D03*
X0019750Y0040750D03*
X0021000D03*
X0019250Y0052400D03*
X0020950D03*
X0035250Y-0000200D03*
X0049700Y0059500D03*
Y0057950D03*
X0019300Y0072400D03*
X0016160D03*
X0025548Y0053901D03*
X0036451D03*
X0021000Y0033950D03*
X0044800Y0070250D03*
X0035050D03*
X0021000Y0062300D03*
X0031170Y0053470D03*
X0020000Y0034000D03*
X0018500Y0036000D03*
X0022850Y0036250D03*
X0025800Y0058800D03*
X0034250D03*
M02*
