*
G04 Mass Parameters ***
*
G04 Image ***
*
%IND:\00.LAVORI IN CORSO\METALTRONICA\25-334-0 (PFC )\25-334-0.TOP*%
%ICAS*%
%MOIN*%
%IPPOS*%
%ASAXBY*%
G74*%FSLAN2X34Y34*%
*
G04 Aperture Definitions ***
*
%ADD10C,0.1378*%
%ADD11C,0.1968*%
%ADD12C,0.0394*%
%ADD13R,0.1024X0.0510*%
%ADD14R,0.0380X0.0320*%
%ADD15R,0.0886X0.0905*%
%ADD16C,0.0800*%
%ADD17C,0.5118*%
%ADD18R,0.0800X0.0800*%
%ADD19R,0.0710X0.0400*%
%ADD20R,0.0501X0.0404*%
%ADD21R,0.1500X0.1500*%
%ADD22R,0.0197X0.0315*%
%ADD23R,0.0500X0.0400*%
%ADD24R,0.0472X0.0472*%
%ADD25R,0.0404X0.0501*%
%ADD26C,0.0984*%
%ADD27R,0.2756X0.2756*%
%ADD28C,0.2756*%
%ADD29C,0.1181*%
%ADD30R,0.1181X0.1181*%
%ADD31C,0.1200*%
%ADD32R,0.1200X0.1200*%
%ADD33C,0.0512*%
%ADD34C,0.0866*%
%ADD35R,0.0669X0.0669*%
%ADD36C,0.0669*%
%ADD37C,0.0787*%
%ADD38R,0.0787X0.0787*%
%ADD39R,0.0630X0.0630*%
%ADD40C,0.0630*%
%ADD41C,0.0187*%
%ADD42R,0.0270X0.0500*%
%ADD43R,0.1000X0.0600*%
%ADD44R,0.2760X0.2760*%
%ADD45C,0.0709*%
%ADD46R,0.0400X0.0500*%
%ADD47R,0.0680X0.1580*%
%ADD48R,0.0680X0.0550*%
%ADD49R,0.0510X0.1024*%
%ADD50C,0.1500*%
%ADD51R,0.0320X0.0380*%
%ADD52R,0.1080X0.0850*%
%ADD53R,0.0984X0.0984*%
%ADD54R,0.0236X0.0512*%
%ADD55R,0.1736X0.0787*%
%ADD56R,0.0236X0.0787*%
%ADD57O,0.0256X0.0650*%
%ADD58R,0.0787X0.1736*%
%ADD59R,0.0787X0.0236*%
%ADD60O,0.0118X0.0590*%
%ADD61O,0.0110X0.0700*%
%ADD62R,0.0110X0.0700*%
%ADD63O,0.0700X0.0110*%
%ADD64R,0.0700X0.0110*%
%ADD65O,0.0984X0.0590*%
%ADD66O,0.0630X0.0236*%
%ADD67R,0.0630X0.0236*%
%ADD68O,0.0650X0.0256*%
%ADD69R,0.0320X0.0640*%
%ADD70R,0.0600X0.0700*%
%ADD71C,0.0276*%
%ADD72C,0.0100*%
%ADD73C,0.0050*%
%ADD74C,0.0250*%
%ADD75C,0.0080*%
%ADD76C,0.0276*%
%ADD77C,0.0500*%
%ADD78C,0.0120*%
%ADD79C,0.0276*%
%ADD80C,0.0060*%
*
G04 Plot Data ***
*
G54D72*
G01X0048642Y0002008D02*
X0048558Y0002092D01*
X0048517Y0002175D01*
Y0002342D01*
X0048558Y0002425D01*
X0048642Y0002508D01*
X0048725D01*
X0048808Y0002425D01*
X0048850Y0002342D01*
Y0002175D01*
X0048808Y0002092D01*
X0048725Y0002008D01*
X0048642D01*
X0048275Y0002258D02*
X0047942D01*
X0047700Y0002175D02*
X0047367D01*
X0047533Y0002508D01*
X0047617D01*
Y0002008D01*
X0046792Y0002092D02*
X0046875Y0002008D01*
X0047042D01*
X0047125Y0002092D01*
Y0002175D01*
X0046958Y0002342D01*
X0047125Y0002508D01*
X0046792D01*
X0046217Y0002092D02*
X0046300Y0002008D01*
X0046467D01*
X0046550Y0002092D01*
Y0002175D01*
X0046383Y0002342D01*
X0046550Y0002508D01*
X0046217D01*
X0045975Y0002258D02*
X0045642D01*
X0045067Y0002092D02*
X0045108Y0002008D01*
X0045358D01*
X0045400Y0002092D01*
Y0002258D01*
X0045317Y0002342D01*
X0045067D01*
Y0002508D01*
X0045400D01*
X0044825Y0002008D02*
X0044492D01*
X0044825Y0002342D01*
Y0002425D01*
X0044783Y0002508D01*
X0044533D01*
X0044492Y0002425D01*
X0049090Y0076775D02*
Y0076625D01*
X0048090D02*
Y0074679D01*
X0048310Y0074900D02*
X0045750D01*
X0048010Y0077240D02*
X0045750D01*
X0048360Y0076625D02*
Y0074949D01*
X0048010Y0078425D02*
Y0077575D01*
X0048450Y0076625D02*
Y0075039D01*
X0049250Y0078860D02*
X0049189D01*
X0049040Y0075290D02*
X0048800D01*
X0048010Y0077150D02*
X0045750D01*
X0047730Y0079000D02*
Y0074319D01*
X0047590Y0074180D02*
X0045750D01*
X0047640Y0079000D02*
Y0074229D01*
X0047460Y0079000D02*
Y0074049D01*
X0047370Y0079000D02*
Y0074000D01*
X0047280Y0079000D02*
Y0074000D01*
X0047190Y0079000D02*
Y0074000D01*
X0047100Y0079000D02*
Y0074000D01*
X0047010Y0079000D02*
Y0074000D01*
X0046920Y0079000D02*
Y0074000D01*
X0046830Y0079000D02*
Y0074000D01*
X0046740Y0079000D02*
Y0074000D01*
X0046650Y0079000D02*
Y0074000D01*
X0046560Y0079000D02*
Y0074000D01*
X0046470Y0079000D02*
Y0074000D01*
X0046380Y0079000D02*
Y0074000D01*
X0046290Y0079000D02*
Y0074000D01*
X0046200Y0079000D02*
Y0074000D01*
X0046110Y0079000D02*
Y0074000D01*
X0046020Y0079000D02*
Y0074000D01*
X0045930Y0079000D02*
Y0074000D01*
X0049250Y0077600D02*
X0049090D01*
X0048010Y0079000D02*
X0045750D01*
X0049250Y0078920D02*
X0049090Y0078760D01*
X0048010Y0077420D02*
X0045750D01*
X0049250Y0078680D02*
X0049090D01*
X0049250Y0078590D02*
X0049090D01*
X0047860Y0074450D02*
X0045750D01*
X0049250Y0078410D02*
X0049090D01*
X0049250Y0078320D02*
X0049090D01*
X0049250Y0078230D02*
X0049090D01*
X0048010Y0078860D02*
X0045750D01*
X0049250Y0078050D02*
X0049090D01*
X0049250Y0077960D02*
X0049090D01*
X0049250Y0077870D02*
X0049090D01*
X0049250Y0077780D02*
X0049090D01*
X0049250Y0077690D02*
X0049090D01*
X0049250Y0078140D02*
X0049090D01*
X0048010Y0077510D02*
X0045750D01*
X0049250Y0078770D02*
X0049099D01*
X0048000Y0079000D02*
Y0074589D01*
X0048010Y0077600D02*
X0045750D01*
X0049170Y0076770D02*
Y0075420D01*
X0048010Y0076970D02*
X0045750D01*
X0048010Y0076880D02*
X0045750D01*
X0048010Y0076700D02*
X0045750D01*
X0049250Y0076610D02*
X0045750D01*
X0049250Y0076520D02*
X0045750D01*
X0049250Y0076430D02*
X0045750D01*
X0049250Y0076340D02*
X0045750D01*
X0049250Y0076250D02*
X0045750D01*
X0049250Y0076160D02*
X0045750D01*
X0049250Y0076070D02*
X0045750D01*
X0049250Y0075980D02*
X0045750D01*
X0049250Y0075890D02*
X0045750D01*
X0049250Y0075800D02*
X0045750D01*
X0049250Y0075710D02*
X0045750D01*
X0049250Y0075620D02*
X0045750D01*
X0049250Y0075530D02*
X0045750D01*
X0049190Y0075440D02*
X0045750D01*
X0048220Y0074810D02*
X0045750D01*
X0048010Y0077330D02*
X0045750D01*
X0047550Y0079000D02*
Y0074139D01*
X0049100Y0075350D02*
X0045750D01*
X0048580Y0075170D02*
X0045750D01*
X0048490Y0075080D02*
X0045750D01*
X0048540Y0076625D02*
Y0075129D01*
X0048010Y0078050D02*
X0045750D01*
X0047410Y0074000D02*
X0045750D01*
X0045840Y0079000D02*
Y0074000D01*
X0049165Y0076775D02*
X0049090D01*
X0048810Y0076625D02*
Y0075290D01*
X0048130Y0074720D02*
X0045750D01*
X0048040Y0074630D02*
X0045750D01*
X0047500Y0074090D02*
X0045750D01*
X0049090Y0078000D02*
X0048550D01*
X0048010D02*
X0048550D01*
X0048010Y0078475D02*
Y0078425D01*
X0047910Y0079000D02*
Y0074499D01*
X0048010Y0077690D02*
X0045750D01*
X0049240Y0076700D02*
X0049090D01*
X0048010Y0077780D02*
X0045750D01*
X0048010Y0077870D02*
X0045750D01*
X0048010Y0077960D02*
X0045750D01*
X0049090Y0078475D02*
Y0078425D01*
Y0077575D01*
Y0078760D02*
Y0078475D01*
X0049080Y0076625D02*
Y0075330D01*
X0049250Y0076690D02*
Y0075500D01*
X0048010Y0076790D02*
X0045750D01*
X0048684Y0075260D02*
X0045750D01*
X0049170Y0078840D02*
Y0077425D01*
X0049165Y0076775D02*
X0049250Y0076690D01*
X0047770Y0074360D02*
X0045750D01*
X0047950Y0074540D02*
X0045750D01*
X0048630Y0075220D02*
X0047410Y0074000D01*
X0047680Y0074270D02*
X0045750D01*
X0049250Y0075500D02*
X0049040Y0075290D01*
X0048270Y0076625D02*
Y0074859D01*
X0048400Y0074990D02*
X0045750D01*
X0048010Y0078950D02*
X0045750D01*
X0049250Y0078920D02*
Y0077425D01*
X0048010Y0077060D02*
X0045750D01*
X0048010Y0078320D02*
X0045750D01*
X0048630Y0076625D02*
Y0075219D01*
X0049250Y0077425D02*
X0049090D01*
X0048010Y0078590D02*
X0045750D01*
X0048720Y0076625D02*
Y0075276D01*
X0049090Y0076625D02*
X0048010D01*
Y0077575D02*
Y0077525D01*
X0049090Y0077575D02*
Y0077525D01*
X0048180Y0076625D02*
Y0074769D01*
X0048010Y0078410D02*
X0045750D01*
Y0079000D02*
Y0074000D01*
X0048010Y0078770D02*
X0045750D01*
X0048010Y0078680D02*
X0045750D01*
X0048010Y0077525D02*
Y0076625D01*
Y0079000D02*
Y0078475D01*
X0049250Y0077510D02*
X0049090D01*
X0048010Y0078230D02*
X0045750D01*
X0048010Y0078140D02*
X0045750D01*
X0048010Y0078500D02*
X0045750D01*
X0049250D02*
X0049090D01*
X0047820Y0079000D02*
Y0074409D01*
X0048990Y0076625D02*
Y0075290D01*
X0048900Y0076625D02*
Y0075290D01*
X0049090Y0077525D02*
Y0077425D01*
X0020300Y0003090D02*
X0013940D01*
X0011500Y0000650D02*
Y-0001500D01*
X0018450Y0007600D02*
X0011500Y0000650D01*
X0021400Y0007600D02*
X0018450D01*
X0021400D02*
X0022150Y0006850D01*
Y0005400D01*
X0020300Y0003550D01*
Y-0001500D01*
X0011500D01*
X0022120Y0006880D02*
Y0005370D01*
X0022030Y0006970D02*
Y0005280D01*
X0021940Y0007060D02*
Y0005190D01*
X0021850Y0007150D02*
Y0005100D01*
X0021760Y0007240D02*
Y0005010D01*
X0021670Y0007330D02*
Y0004920D01*
X0021580Y0007420D02*
Y0004830D01*
X0021490Y0007510D02*
Y0004740D01*
X0021400Y0007600D02*
Y0004650D01*
X0021310Y0007600D02*
Y0004560D01*
X0021220Y0007600D02*
Y0004470D01*
X0021130Y0007600D02*
Y0004380D01*
X0021040Y0007600D02*
Y0004290D01*
X0020950Y0007600D02*
Y0004200D01*
X0020860Y0007600D02*
Y0004110D01*
X0020770Y0007600D02*
Y0004020D01*
X0020680Y0007600D02*
Y0003930D01*
X0020590Y0007600D02*
Y0003840D01*
X0020500Y0007600D02*
Y0003750D01*
X0020410Y0007600D02*
Y0003660D01*
X0020320Y0007600D02*
Y0003570D01*
X0020230Y0007600D02*
Y-0001500D01*
X0020140Y0007600D02*
Y-0001500D01*
X0020050Y0007600D02*
Y-0001500D01*
X0019960Y0007600D02*
Y-0001500D01*
X0019870Y0007600D02*
Y-0001500D01*
X0019780Y0007600D02*
Y-0001500D01*
X0019690Y0007600D02*
Y-0001500D01*
X0019600Y0007600D02*
Y-0001500D01*
X0019510Y0007600D02*
Y-0001500D01*
X0019420Y0007600D02*
Y-0001500D01*
X0019330Y0007600D02*
Y-0001500D01*
X0019240Y0007600D02*
Y-0001500D01*
X0019150Y0007600D02*
Y-0001500D01*
X0019060Y0007600D02*
Y-0001500D01*
X0018970Y0007600D02*
Y-0001500D01*
X0018880Y0007600D02*
Y-0001500D01*
X0018790Y0007600D02*
Y-0001500D01*
X0018700Y0007600D02*
Y-0001500D01*
X0018610Y0007600D02*
Y-0001500D01*
X0018520Y0007600D02*
Y-0001500D01*
X0018430Y0007580D02*
Y-0001500D01*
X0018340Y0007490D02*
Y-0001500D01*
X0018250Y0007400D02*
Y-0001500D01*
X0018160Y0007310D02*
Y-0001500D01*
X0018070Y0007220D02*
Y-0001500D01*
X0017980Y0007130D02*
Y-0001500D01*
X0017890Y0007040D02*
Y-0001500D01*
X0017800Y0006950D02*
Y-0001500D01*
X0017710Y0006860D02*
Y-0001500D01*
X0017620Y0006770D02*
Y-0001500D01*
X0017530Y0006680D02*
Y-0001500D01*
X0017440Y0006590D02*
Y-0001500D01*
X0017350Y0006500D02*
Y-0001500D01*
X0017260Y0006410D02*
Y-0001500D01*
X0017170Y0006320D02*
Y-0001500D01*
X0017080Y0006230D02*
Y-0001500D01*
X0016990Y0006140D02*
Y-0001500D01*
X0016900Y0006050D02*
Y-0001500D01*
X0016810Y0005960D02*
Y-0001500D01*
X0016720Y0005870D02*
Y-0001500D01*
X0016630Y0005780D02*
Y-0001500D01*
X0016540Y0005690D02*
Y-0001500D01*
X0016450Y0005600D02*
Y-0001500D01*
X0016360Y0005510D02*
Y-0001500D01*
X0016270Y0005420D02*
Y-0001500D01*
X0016180Y0005330D02*
Y-0001500D01*
X0016090Y0005240D02*
Y-0001500D01*
X0016000Y0005150D02*
Y-0001500D01*
X0015910Y0005060D02*
Y-0001500D01*
X0015820Y0004970D02*
Y-0001500D01*
X0015730Y0004880D02*
Y-0001500D01*
X0015640Y0004790D02*
Y-0001500D01*
X0015550Y0004700D02*
Y-0001500D01*
X0015460Y0004610D02*
Y-0001500D01*
X0015370Y0004520D02*
Y-0001500D01*
X0015280Y0004430D02*
Y-0001500D01*
X0015190Y0004340D02*
Y-0001500D01*
X0015100Y0004250D02*
Y-0001500D01*
X0015010Y0004160D02*
Y-0001500D01*
X0014920Y0004070D02*
Y-0001500D01*
X0014830Y0003980D02*
Y-0001500D01*
X0014740Y0003890D02*
Y-0001500D01*
X0014650Y0003800D02*
Y-0001500D01*
X0014560Y0003710D02*
Y-0001500D01*
X0014470Y0003620D02*
Y-0001500D01*
X0014380Y0003530D02*
Y-0001500D01*
X0014290Y0003440D02*
Y-0001500D01*
X0014200Y0003350D02*
Y-0001500D01*
X0014110Y0003260D02*
Y-0001500D01*
X0014020Y0003170D02*
Y-0001500D01*
X0013930Y0003080D02*
Y-0001500D01*
X0013840Y0002990D02*
Y-0001500D01*
X0013750Y0002900D02*
Y-0001500D01*
X0013660Y0002810D02*
Y-0001500D01*
X0013570Y0002720D02*
Y-0001500D01*
X0013480Y0002630D02*
Y-0001500D01*
X0013390Y0002540D02*
Y-0001500D01*
X0013300Y0002450D02*
Y-0001500D01*
X0013210Y0002360D02*
Y-0001500D01*
X0013120Y0002270D02*
Y-0001500D01*
X0013030Y0002180D02*
Y-0001500D01*
X0012940Y0002090D02*
Y-0001500D01*
X0012850Y0002000D02*
Y-0001500D01*
X0012760Y0001910D02*
Y-0001500D01*
X0012670Y0001820D02*
Y-0001500D01*
X0012580Y0001730D02*
Y-0001500D01*
X0012490Y0001640D02*
Y-0001500D01*
X0012400Y0001550D02*
Y-0001500D01*
X0012310Y0001460D02*
Y-0001500D01*
X0012220Y0001370D02*
Y-0001500D01*
X0012130Y0001280D02*
Y-0001500D01*
X0012040Y0001190D02*
Y-0001500D01*
X0011950Y0001100D02*
Y-0001500D01*
X0011860Y0001010D02*
Y-0001500D01*
X0011770Y0000920D02*
Y-0001500D01*
X0021820Y0005070D02*
X0015920D01*
X0020300Y-0001410D02*
X0011500D01*
X0021410Y0007590D02*
X0018440D01*
X0021500Y0007500D02*
X0018350D01*
X0021590Y0007410D02*
X0018260D01*
X0021680Y0007320D02*
X0018170D01*
X0021770Y0007230D02*
X0018080D01*
X0021860Y0007140D02*
X0017990D01*
X0021950Y0007050D02*
X0017900D01*
X0022040Y0006960D02*
X0017810D01*
X0022130Y0006870D02*
X0017720D01*
X0022150Y0006780D02*
X0017630D01*
X0022150Y0006690D02*
X0017540D01*
X0022150Y0006600D02*
X0017450D01*
X0022150Y0006510D02*
X0017360D01*
X0022150Y0006420D02*
X0017270D01*
X0022150Y0006330D02*
X0017180D01*
X0022150Y0006240D02*
X0017090D01*
X0022150Y0006150D02*
X0017000D01*
X0022150Y0006060D02*
X0016910D01*
X0022150Y0005970D02*
X0016820D01*
X0022150Y0005880D02*
X0016730D01*
X0022150Y0005790D02*
X0016640D01*
X0022150Y0005700D02*
X0016550D01*
X0022150Y0005610D02*
X0016460D01*
X0022150Y0005520D02*
X0016370D01*
X0022150Y0005430D02*
X0016280D01*
X0022090Y0005340D02*
X0016190D01*
X0022000Y0005250D02*
X0016100D01*
X0021910Y0005160D02*
X0016010D01*
X0021730Y0004980D02*
X0015830D01*
X0021640Y0004890D02*
X0015740D01*
X0021550Y0004800D02*
X0015650D01*
X0021460Y0004710D02*
X0015560D01*
X0021370Y0004620D02*
X0015470D01*
X0021280Y0004530D02*
X0015380D01*
X0021190Y0004440D02*
X0015290D01*
X0021100Y0004350D02*
X0015200D01*
X0021010Y0004260D02*
X0015110D01*
X0020920Y0004170D02*
X0015020D01*
X0020830Y0004080D02*
X0014930D01*
X0020740Y0003990D02*
X0014840D01*
X0020650Y0003900D02*
X0014750D01*
X0020560Y0003810D02*
X0014660D01*
X0020470Y0003720D02*
X0014570D01*
X0020380Y0003630D02*
X0014480D01*
X0020300Y0003540D02*
X0014390D01*
X0020300Y0003450D02*
X0014300D01*
X0020300Y0003360D02*
X0014210D01*
X0020300Y0003270D02*
X0014120D01*
X0020300Y0003180D02*
X0014030D01*
X0011590Y0000740D02*
Y-0001500D01*
X0020300Y0003000D02*
X0013850D01*
X0020300Y0002910D02*
X0013760D01*
X0020300Y0002820D02*
X0013670D01*
X0020300Y0002730D02*
X0013580D01*
X0020300Y0002640D02*
X0013490D01*
X0020300Y0002550D02*
X0013400D01*
X0020300Y0002460D02*
X0013310D01*
X0020300Y0002370D02*
X0013220D01*
X0020300Y0002280D02*
X0013130D01*
X0020300Y0002190D02*
X0013040D01*
X0020300Y0002100D02*
X0012950D01*
X0020300Y0002010D02*
X0012860D01*
X0020300Y0001920D02*
X0012770D01*
X0020300Y0001830D02*
X0012680D01*
X0020300Y0001740D02*
X0012590D01*
X0020300Y0001650D02*
X0012500D01*
X0020300Y0001560D02*
X0012410D01*
X0020300Y0001470D02*
X0012320D01*
X0020300Y0001380D02*
X0012230D01*
X0020300Y0001290D02*
X0012140D01*
X0020300Y0001200D02*
X0012050D01*
X0020300Y0001110D02*
X0011960D01*
X0020300Y0001020D02*
X0011870D01*
X0020300Y0000930D02*
X0011780D01*
X0020300Y0000840D02*
X0011690D01*
X0020300Y0000750D02*
X0011600D01*
X0020300Y0000660D02*
X0011510D01*
X0020300Y0000570D02*
X0011500D01*
X0020300Y0000480D02*
X0011500D01*
X0020300Y0000390D02*
X0011500D01*
X0020300Y0000300D02*
X0011500D01*
X0020300Y0000210D02*
X0011500D01*
X0020300Y0000120D02*
X0011500D01*
X0020300Y0000030D02*
X0011500D01*
X0020300Y-0000060D02*
X0011500D01*
X0020300Y-0000150D02*
X0011500D01*
X0020300Y-0000240D02*
X0011500D01*
X0020300Y-0000330D02*
X0011500D01*
X0020300Y-0000420D02*
X0011500D01*
X0020300Y-0000510D02*
X0011500D01*
X0020300Y-0000600D02*
X0011500D01*
X0020300Y-0000690D02*
X0011500D01*
X0020300Y-0000780D02*
X0011500D01*
X0020300Y-0000870D02*
X0011500D01*
X0020300Y-0000960D02*
X0011500D01*
X0020300Y-0001050D02*
X0011500D01*
X0020300Y-0001140D02*
X0011500D01*
X0020300Y-0001230D02*
X0011500D01*
X0020300Y-0001320D02*
X0011500D01*
X0011680Y0000830D02*
Y-0001500D01*
X0001420Y0068550D02*
Y0004650D01*
X0001330Y0068550D02*
Y0004650D01*
X0001240Y0068550D02*
Y0004650D01*
X0001150Y0068550D02*
Y0004650D01*
X0001060Y0068550D02*
Y0004650D01*
X0000970Y0068550D02*
Y0004650D01*
X0000880Y0068550D02*
Y0004650D01*
X0000790Y0068550D02*
Y0004650D01*
X0002400Y0008700D02*
X-0001550D01*
X0000610Y0068550D02*
Y0004650D01*
X0000520Y0068550D02*
Y0004650D01*
X0000430Y0068550D02*
Y0004650D01*
X0000340Y0068550D02*
Y0004650D01*
X0000250Y0068550D02*
Y0004650D01*
X0000160Y0068550D02*
Y0004650D01*
X0000070Y0068550D02*
Y0004650D01*
X-0000020Y0068550D02*
Y0004650D01*
X-0000110Y0068550D02*
Y0004650D01*
X-0000200Y0068550D02*
Y0004650D01*
X-0000290Y0068550D02*
Y0004650D01*
X-0000380Y0068550D02*
Y0004650D01*
X-0000470Y0068550D02*
Y0004650D01*
X-0000560Y0068550D02*
Y0004650D01*
X-0000650Y0068550D02*
Y0004650D01*
X-0000740Y0068550D02*
Y0004650D01*
X-0000830Y0068550D02*
Y0004650D01*
X-0000920Y0068550D02*
Y0004650D01*
X-0001010Y0068550D02*
Y0004650D01*
X-0001100Y0068550D02*
Y0004650D01*
X-0001190Y0068550D02*
Y0004650D01*
X-0001280Y0068550D02*
Y0004650D01*
X-0001370Y0068550D02*
Y0004650D01*
X0006174Y0044070D02*
X-0001550D01*
X0008950Y0066840D02*
X0004600D01*
X0008950Y0068550D02*
X-0001550D01*
X0002410D02*
Y0067400D01*
X0008950Y0068460D02*
X-0001550D01*
X0008950Y0068370D02*
X-0001550D01*
X0008950Y0068280D02*
X-0001550D01*
X0008950Y0068190D02*
X-0001550D01*
X0008950Y0068100D02*
X-0001550D01*
X0008950Y0068010D02*
X-0001550D01*
X0008950Y0067920D02*
X-0001550D01*
X0008950Y0067830D02*
X-0001550D01*
X0015300Y0067650D02*
X0011150D01*
X0008950D02*
X-0001550D01*
X0008950Y0067560D02*
X-0001550D01*
X0008950Y0067470D02*
X-0001550D01*
X0002400Y0067380D02*
X-0001550D01*
X0002400Y0067290D02*
X-0001550D01*
X0002400Y0067200D02*
X-0001550D01*
X0002400Y0067110D02*
X-0001550D01*
X0002400Y0067020D02*
X-0001550D01*
X0002400Y0066930D02*
X-0001550D01*
X0002400Y0066750D02*
X-0001550D01*
X0003130Y0062600D02*
Y0052550D01*
X0002400Y0066570D02*
X-0001550D01*
X0002400Y0066480D02*
X-0001550D01*
X0002400Y0066390D02*
X-0001550D01*
X0002400Y0066300D02*
X-0001550D01*
X0002400Y0066210D02*
X-0001550D01*
X0002400Y0066120D02*
X-0001550D01*
X0002400Y0066030D02*
X-0001550D01*
X0002400Y0065940D02*
X-0001550D01*
X0002400Y0065850D02*
X-0001550D01*
X0002400Y0065760D02*
X-0001550D01*
X0002400Y0065670D02*
X-0001550D01*
X0002400Y0065580D02*
X-0001550D01*
X0002400Y0063510D02*
X-0001550D01*
X0002400Y0065400D02*
X-0001550D01*
X0002400Y0065310D02*
X-0001550D01*
X0002400Y0065220D02*
X-0001550D01*
X0002400Y0065130D02*
X-0001550D01*
X0002400Y0065040D02*
X-0001550D01*
X0002400Y0064950D02*
X-0001550D01*
X0002400Y0064860D02*
X-0001550D01*
X0003310Y0062600D02*
Y0052550D01*
X0002410Y0062600D02*
Y0052550D01*
X0002400Y0064590D02*
X-0001550D01*
X0003220Y0062600D02*
Y0052550D01*
X0002400Y0064410D02*
X-0001550D01*
X0002400Y0064320D02*
X-0001550D01*
X0002400Y0064230D02*
X-0001550D01*
X0002400Y0064140D02*
X-0001550D01*
X0002400Y0064050D02*
X-0001550D01*
X0002400Y0063960D02*
X-0001550D01*
X0002400Y0063870D02*
X-0001550D01*
X0002400Y0063780D02*
X-0001550D01*
X0002400Y0063690D02*
X-0001550D01*
X0002400Y0063600D02*
X-0001550D01*
X0002400Y0063420D02*
X-0001550D01*
X0002400Y0063330D02*
X-0001550D01*
X0002400Y0063240D02*
X-0001550D01*
X0002400Y0063150D02*
X-0001550D01*
X0002400Y0063060D02*
X-0001550D01*
X0002400Y0062970D02*
X-0001550D01*
X0002400Y0062880D02*
X-0001550D01*
X0002400Y0062790D02*
X-0001550D01*
X0002400Y0062610D02*
X-0001550D01*
X0015920Y0062520D02*
X-0001550D01*
X0015830Y0062430D02*
X-0001550D01*
X0015740Y0062340D02*
X-0001550D01*
X0015650Y0062250D02*
X-0001550D01*
X0015560Y0062160D02*
X-0001550D01*
X0015470Y0062070D02*
X-0001550D01*
X0015380Y0061980D02*
X-0001550D01*
X0015290Y0061890D02*
X-0001550D01*
X0015200Y0061800D02*
X-0001550D01*
X0015110Y0061710D02*
X-0001550D01*
X0015020Y0061620D02*
X-0001550D01*
X0014930Y0061530D02*
X-0001550D01*
X0014840Y0061440D02*
X-0001550D01*
X0014750Y0061350D02*
X-0001550D01*
X0014660Y0061260D02*
X-0001550D01*
X0014570Y0061170D02*
X-0001550D01*
X0014550Y0061080D02*
X-0001550D01*
X0014550Y0060990D02*
X-0001550D01*
X0014550Y0060900D02*
X-0001550D01*
X0014550Y0060810D02*
X-0001550D01*
X0014550Y0060720D02*
X-0001550D01*
X0014550Y0060630D02*
X-0001550D01*
X0014550Y0060540D02*
X-0001550D01*
X0014550Y0060450D02*
X-0001550D01*
X0014550Y0060360D02*
X-0001550D01*
X0014550Y0060270D02*
X-0001550D01*
X0014550Y0060180D02*
X-0001550D01*
X0014550Y0060090D02*
X-0001550D01*
X0014550Y0060000D02*
X-0001550D01*
X0014550Y0059910D02*
X-0001550D01*
X0014550Y0059820D02*
X-0001550D01*
X0014550Y0059730D02*
X-0001550D01*
X0014550Y0059640D02*
X-0001550D01*
X0014550Y0059550D02*
X-0001550D01*
X0014550Y0059460D02*
X-0001550D01*
X0014550Y0059370D02*
X-0001550D01*
X0014550Y0059280D02*
X-0001550D01*
X0014550Y0059190D02*
X-0001550D01*
X0014550Y0059100D02*
X-0001550D01*
X0014550Y0059010D02*
X-0001550D01*
X0014550Y0058920D02*
X-0001550D01*
X0014550Y0058830D02*
X-0001550D01*
X0014550Y0058740D02*
X-0001550D01*
X0014550Y0058650D02*
X-0001550D01*
X0014550Y0058560D02*
X-0001550D01*
X0014550Y0058470D02*
X-0001550D01*
X0014550Y0058380D02*
X-0001550D01*
X0014550Y0058290D02*
X-0001550D01*
X0014550Y0058200D02*
X-0001550D01*
X0014550Y0058110D02*
X-0001550D01*
X0014550Y0058020D02*
X-0001550D01*
X0014550Y0057930D02*
X-0001550D01*
X0014550Y0057840D02*
X-0001550D01*
X0014550Y0057750D02*
X-0001550D01*
X0014550Y0057660D02*
X-0001550D01*
X0014550Y0057570D02*
X-0001550D01*
X0014550Y0057480D02*
X-0001550D01*
X0014550Y0057390D02*
X-0001550D01*
X0014550Y0057300D02*
X-0001550D01*
X0014550Y0057210D02*
X-0001550D01*
X0014550Y0057120D02*
X-0001550D01*
X0014550Y0057030D02*
X-0001550D01*
X0014550Y0056940D02*
X-0001550D01*
X0014550Y0056850D02*
X-0001550D01*
X0014550Y0056760D02*
X-0001550D01*
X0014550Y0056670D02*
X-0001550D01*
X0014550Y0056580D02*
X-0001550D01*
X0014550Y0056490D02*
X-0001550D01*
X0014550Y0056400D02*
X-0001550D01*
X0014550Y0056310D02*
X-0001550D01*
X0014550Y0056220D02*
X-0001550D01*
X0014550Y0056130D02*
X-0001550D01*
X0014550Y0056040D02*
X-0001550D01*
X0014550Y0055950D02*
X-0001550D01*
X0014550Y0055860D02*
X-0001550D01*
X0014550Y0055770D02*
X-0001550D01*
X0014550Y0055680D02*
X-0001550D01*
X0014550Y0055590D02*
X-0001550D01*
X0014550Y0055500D02*
X-0001550D01*
X0014550Y0055410D02*
X-0001550D01*
X0014550Y0055320D02*
X-0001550D01*
X0014550Y0055230D02*
X-0001550D01*
X0014550Y0055140D02*
X-0001550D01*
X0014550Y0055050D02*
X-0001550D01*
X0014550Y0054960D02*
X-0001550D01*
X0014550Y0054870D02*
X-0001550D01*
X0014550Y0054780D02*
X-0001550D01*
X0014550Y0054690D02*
X-0001550D01*
X0014550Y0054600D02*
X-0001550D01*
X0014550Y0054510D02*
X-0001550D01*
X0014550Y0054420D02*
X-0001550D01*
X0014550Y0054330D02*
X-0001550D01*
X0009150Y0054240D02*
X-0001550D01*
X0009150Y0054150D02*
X-0001550D01*
X0009150Y0054060D02*
X-0001550D01*
X0009150Y0053970D02*
X-0001550D01*
X0009150Y0053880D02*
X-0001550D01*
X0009150Y0053790D02*
X-0001550D01*
X0009150Y0053700D02*
X-0001550D01*
X0009150Y0053610D02*
X-0001550D01*
X0009150Y0053520D02*
X-0001550D01*
X0009150Y0053430D02*
X-0001550D01*
X0009150Y0053340D02*
X-0001550D01*
X0009150Y0053250D02*
X-0001550D01*
X0009150Y0053160D02*
X-0001550D01*
X0009150Y0053070D02*
X-0001550D01*
X0009150Y0052980D02*
X-0001550D01*
X0009150Y0052890D02*
X-0001550D01*
X0010870Y0064350D02*
Y0054250D01*
X0003940Y0062600D02*
Y0052550D01*
X0002230Y0068550D02*
Y0052550D01*
X0002150Y0052530D02*
X-0001550D01*
X0002150Y0052440D02*
X-0001550D01*
X0002150Y0052350D02*
X-0001550D01*
X0002150Y0052260D02*
X-0001550D01*
X0002150Y0052170D02*
X-0001550D01*
X0002150Y0052080D02*
X-0001550D01*
X0002150Y0051990D02*
X-0001550D01*
X0002150Y0051900D02*
X-0001550D01*
X0002150Y0048840D02*
X-0001550D01*
X0002150Y0051720D02*
X-0001550D01*
X0002150Y0051630D02*
X-0001550D01*
X0002150Y0051540D02*
X-0001550D01*
X0002150Y0051450D02*
X-0001550D01*
X0002150Y0051360D02*
X-0001550D01*
X0002150Y0051270D02*
X-0001550D01*
X0002150Y0051180D02*
X-0001550D01*
X0002150Y0051090D02*
X-0001550D01*
X0002150Y0051000D02*
X-0001550D01*
X0002150Y0050910D02*
X-0001550D01*
X0002150Y0050820D02*
X-0001550D01*
X0002150Y0050730D02*
X-0001550D01*
X0002400Y0008790D02*
X-0001550D01*
X0002150Y0050550D02*
X-0001550D01*
X0002150Y0050460D02*
X-0001550D01*
X0002150Y0050370D02*
X-0001550D01*
X0002150Y0050280D02*
X-0001550D01*
X0002150Y0050190D02*
X-0001550D01*
X0002150Y0050100D02*
X-0001550D01*
X0002150Y0050010D02*
X-0001550D01*
X0002150Y0049920D02*
X-0001550D01*
X0002150Y0049830D02*
X-0001550D01*
X0002150Y0049740D02*
X-0001550D01*
X0003130Y0047750D02*
Y0038000D01*
X0002150Y0049560D02*
X-0001550D01*
X0002150Y0049470D02*
X-0001550D01*
X0002150Y0049380D02*
X-0001550D01*
X0002150Y0049290D02*
X-0001550D01*
X0002150Y0049200D02*
X-0001550D01*
X0002150Y0049110D02*
X-0001550D01*
X0002150Y0049020D02*
X-0001550D01*
X0002150Y0048930D02*
X-0001550D01*
X0004210Y0062600D02*
Y0052550D01*
X0002320Y0047750D02*
Y0004650D01*
X0002150Y0048570D02*
X-0001550D01*
X0002150Y0048480D02*
X-0001550D01*
X0002150Y0048390D02*
X-0001550D01*
X0002150Y0048300D02*
X-0001550D01*
X0002150Y0048210D02*
X-0001550D01*
X0002150Y0048120D02*
X-0001550D01*
X0002150Y0048030D02*
X-0001550D01*
X0002150Y0047940D02*
X-0001550D01*
X0002150Y0047760D02*
X-0001550D01*
X0014550Y0047670D02*
X-0001550D01*
X0014550Y0047580D02*
X-0001550D01*
X0014550Y0047490D02*
X-0001550D01*
X0014550Y0047400D02*
X-0001550D01*
X0014550Y0047310D02*
X-0001550D01*
X0014550Y0047220D02*
X-0001550D01*
X0014550Y0047130D02*
X-0001550D01*
X0014550Y0047040D02*
X-0001550D01*
X0014550Y0046950D02*
X-0001550D01*
X0014550Y0046860D02*
X-0001550D01*
X0014550Y0046770D02*
X-0001550D01*
X0014550Y0046680D02*
X-0001550D01*
X0014550Y0046590D02*
X-0001550D01*
X0014550Y0046500D02*
X-0001550D01*
X0014550Y0046410D02*
X-0001550D01*
X0014550Y0046320D02*
X-0001550D01*
X0014550Y0046230D02*
X-0001550D01*
X0014550Y0019410D02*
X0011350D01*
X0014550Y0046140D02*
X-0001550D01*
X0006317Y0046050D02*
X-0001550D01*
X0006146Y0045960D02*
X-0001550D01*
X0006025Y0045870D02*
X-0001550D01*
X0005932Y0045780D02*
X-0001550D01*
X0005857Y0045690D02*
X-0001550D01*
X0005797Y0045600D02*
X-0001550D01*
X0005748Y0045510D02*
X-0001550D01*
X0005709Y0045420D02*
X-0001550D01*
X0005679Y0045330D02*
X-0001550D01*
X0005657Y0045240D02*
X-0001550D01*
X0005643Y0045150D02*
X-0001550D01*
X0005636Y0045060D02*
X-0001550D01*
X0005637Y0044970D02*
X-0001550D01*
X0005645Y0044880D02*
X-0001550D01*
X0005661Y0044790D02*
X-0001550D01*
X0005715Y0044610D02*
X-0001550D01*
X0005756Y0044520D02*
X-0001550D01*
X0005807Y0044430D02*
X-0001550D01*
X0005870Y0044340D02*
X-0001550D01*
X0005948Y0044250D02*
X-0001550D01*
X0006046Y0044160D02*
X-0001550D01*
X0006360Y0043980D02*
X-0001550D01*
X0014550Y0043890D02*
X-0001550D01*
X0014550Y0043800D02*
X-0001550D01*
X0014550Y0043710D02*
X-0001550D01*
X0014550Y0043620D02*
X-0001550D01*
X0014550Y0043530D02*
X-0001550D01*
X0014550Y0043440D02*
X-0001550D01*
X0006501Y0043350D02*
X-0001550D01*
X0006296Y0043260D02*
X-0001550D01*
X0006160Y0043170D02*
X-0001550D01*
X0006058Y0043080D02*
X-0001550D01*
X0005977Y0042990D02*
X-0001550D01*
X0005911Y0042900D02*
X-0001550D01*
X0005858Y0042810D02*
X-0001550D01*
X0005816Y0042720D02*
X-0001550D01*
X0005783Y0042630D02*
X-0001550D01*
X0005758Y0042540D02*
X-0001550D01*
X0005741Y0042450D02*
X-0001550D01*
X0005732Y0042360D02*
X-0001550D01*
X0005730Y0042270D02*
X-0001550D01*
X0005735Y0042180D02*
X-0001550D01*
X0005748Y0042090D02*
X-0001550D01*
X0005768Y0042000D02*
X-0001550D01*
X0005796Y0041910D02*
X-0001550D01*
X0005834Y0041820D02*
X-0001550D01*
X0005880Y0041730D02*
X-0001550D01*
X0005939Y0041640D02*
X-0001550D01*
X0006011Y0041550D02*
X-0001550D01*
X0006100Y0041460D02*
X-0001550D01*
X0006215Y0041370D02*
X-0001550D01*
X0006667Y0041190D02*
X-0001550D01*
X0014550Y0041100D02*
X-0001550D01*
X0014550Y0041010D02*
X-0001550D01*
X0014550Y0040920D02*
X-0001550D01*
X0014550Y0040830D02*
X-0001550D01*
X0014550Y0040740D02*
X-0001550D01*
X0014550Y0040650D02*
X-0001550D01*
X0014550Y0040560D02*
X-0001550D01*
X0014550Y0040470D02*
X-0001550D01*
X0014550Y0040380D02*
X-0001550D01*
X0014550Y0040290D02*
X-0001550D01*
X0014550Y0040200D02*
X-0001550D01*
X0014550Y0040110D02*
X-0001550D01*
X0014550Y0040020D02*
X-0001550D01*
X0014550Y0039930D02*
X-0001550D01*
X0014550Y0039840D02*
X-0001550D01*
X0014550Y0039750D02*
X-0001550D01*
X0009150Y0039660D02*
X-0001550D01*
X0009150Y0039570D02*
X-0001550D01*
X0009150Y0039480D02*
X-0001550D01*
X0009150Y0039390D02*
X-0001550D01*
X0009150Y0039300D02*
X-0001550D01*
X0009150Y0052710D02*
X-0001550D01*
X0009150Y0039210D02*
X-0001550D01*
X0009150Y0039120D02*
X-0001550D01*
X0009150Y0039030D02*
X-0001550D01*
X0009150Y0038940D02*
X-0001550D01*
X0009150Y0038850D02*
X-0001550D01*
X0009150Y0038760D02*
X-0001550D01*
X0009150Y0038670D02*
X-0001550D01*
X0009150Y0038580D02*
X-0001550D01*
X0009150Y0038490D02*
X-0001550D01*
X0009150Y0038400D02*
X-0001550D01*
X0014550Y0038490D02*
X0011350D01*
X0009150Y0038220D02*
X-0001550D01*
X0009150Y0038130D02*
X-0001550D01*
X0002950Y0047750D02*
Y0038000D01*
X0009150Y0038040D02*
X-0001550D01*
X0002450Y0037950D02*
X-0001550D01*
X0002450Y0037860D02*
X-0001550D01*
X0002450Y0037770D02*
X-0001550D01*
X0002450Y0037680D02*
X-0001550D01*
X0002450Y0037590D02*
X-0001550D01*
X0002450Y0037500D02*
X-0001550D01*
X0002450Y0035160D02*
X-0001550D01*
X0002450Y0037230D02*
X-0001550D01*
X0002450Y0037140D02*
X-0001550D01*
X0002450Y0037050D02*
X-0001550D01*
X0002450Y0036960D02*
X-0001550D01*
X0002450Y0036870D02*
X-0001550D01*
X0003130Y0033200D02*
Y0022250D01*
X0002500Y0033200D02*
Y0022250D01*
X0014550Y0033270D02*
X0004650D01*
X0002450Y0036510D02*
X-0001550D01*
X0002450Y0036420D02*
X-0001550D01*
X0002450Y0036330D02*
X-0001550D01*
X0002450Y0036240D02*
X-0001550D01*
X0003310Y0033200D02*
Y0022250D01*
X0002450Y0036060D02*
X-0001550D01*
X0002450Y0035970D02*
X-0001550D01*
X0002450Y0035880D02*
X-0001550D01*
X0002450Y0035790D02*
X-0001550D01*
X0002450Y0035700D02*
X-0001550D01*
X0002450Y0035610D02*
X-0001550D01*
X0002450Y0035520D02*
X-0001550D01*
X0002450Y0035430D02*
X-0001550D01*
X0002450Y0035340D02*
X-0001550D01*
X0002450Y0035250D02*
X-0001550D01*
X0002450Y0035070D02*
X-0001550D01*
X0003220Y0033200D02*
Y0022250D01*
X0002450Y0034980D02*
X-0001550D01*
X0002450Y0034890D02*
X-0001550D01*
X0002450Y0034800D02*
X-0001550D01*
X0002450Y0034710D02*
X-0001550D01*
X0002450Y0034620D02*
X-0001550D01*
X0002450Y0034530D02*
X-0001550D01*
X0002450Y0034440D02*
X-0001550D01*
X0002450Y0034350D02*
X-0001550D01*
X0002450Y0034260D02*
X-0001550D01*
X0002450Y0034080D02*
X-0001550D01*
X0002450Y0033990D02*
X-0001550D01*
X0002450Y0033900D02*
X-0001550D01*
X0002450Y0033810D02*
X-0001550D01*
X0002450Y0033720D02*
X-0001550D01*
X0002450Y0033630D02*
X-0001550D01*
X0002450Y0033540D02*
X-0001550D01*
X0002450Y0033450D02*
X-0001550D01*
X0002450Y0033270D02*
X-0001550D01*
X0014550Y0033180D02*
X-0001550D01*
X0014550Y0033090D02*
X-0001550D01*
X0014550Y0033000D02*
X-0001550D01*
X0014550Y0032910D02*
X-0001550D01*
X0014550Y0032820D02*
X-0001550D01*
X0014550Y0032730D02*
X-0001550D01*
X0014550Y0032640D02*
X-0001550D01*
X0014550Y0032550D02*
X-0001550D01*
X0014550Y0032460D02*
X-0001550D01*
X0014550Y0032370D02*
X-0001550D01*
X0014550Y0032280D02*
X-0001550D01*
X0014550Y0032190D02*
X-0001550D01*
X0014550Y0032100D02*
X-0001550D01*
X0014550Y0032010D02*
X-0001550D01*
X0014550Y0031920D02*
X-0001550D01*
X0014550Y0031830D02*
X-0001550D01*
X0014550Y0031740D02*
X-0001550D01*
X0014550Y0031650D02*
X-0001550D01*
X0014550Y0031560D02*
X-0001550D01*
X0014550Y0031470D02*
X-0001550D01*
X0014550Y0031380D02*
X-0001550D01*
X0014550Y0031290D02*
X-0001550D01*
X0014550Y0031200D02*
X-0001550D01*
X0014550Y0031110D02*
X-0001550D01*
X0014550Y0031020D02*
X-0001550D01*
X0009100Y0030930D02*
X-0001550D01*
X0009100Y0030840D02*
X-0001550D01*
X0009100Y0030750D02*
X-0001550D01*
X0009100Y0030660D02*
X-0001550D01*
X0009100Y0030570D02*
X-0001550D01*
X0009100Y0030480D02*
X-0001550D01*
X0010780Y0034950D02*
Y0030950D01*
X0009100Y0030390D02*
X-0001550D01*
X0009100Y0030300D02*
X-0001550D01*
X0009100Y0030210D02*
X-0001550D01*
X0009100Y0030120D02*
X-0001550D01*
X0009100Y0030030D02*
X-0001550D01*
X0009100Y0029940D02*
X-0001550D01*
X0012850Y0068550D02*
Y0030950D01*
X0009100Y0029850D02*
X-0001550D01*
X0009100Y0029760D02*
X-0001550D01*
X0009100Y0029580D02*
X-0001550D01*
X0009100Y0029490D02*
X-0001550D01*
X0009100Y0029400D02*
X-0001550D01*
X0009100Y0029310D02*
X-0001550D01*
X0009970Y0034950D02*
Y0030950D01*
X0009100Y0029130D02*
X-0001550D01*
X0009100Y0028950D02*
X-0001550D01*
X0009160Y0026150D02*
Y0024000D01*
X0009100Y0028680D02*
X-0001550D01*
X0009100Y0028590D02*
X-0001550D01*
X0010960Y0026150D02*
Y0024000D01*
X0009100Y0028500D02*
X-0001550D01*
X0009100Y0028320D02*
X-0001550D01*
X0009100Y0028230D02*
X-0001550D01*
X0009100Y0028140D02*
X-0001550D01*
X0009100Y0028050D02*
X-0001550D01*
X0009100Y0027960D02*
X-0001550D01*
X0009100Y0027870D02*
X-0001550D01*
X0009100Y0027690D02*
X-0001550D01*
X0009100Y0027600D02*
X-0001550D01*
X0009100Y0027510D02*
X-0001550D01*
X0009100Y0027420D02*
X-0001550D01*
X0009100Y0027330D02*
X-0001550D01*
X0009100Y0027240D02*
X-0001550D01*
X0009100Y0027150D02*
X-0001550D01*
X0009100Y0027060D02*
X-0001550D01*
X0009100Y0026880D02*
X-0001550D01*
X0009100Y0026790D02*
X-0001550D01*
X0009100Y0026700D02*
X-0001550D01*
X0009100Y0026610D02*
X-0001550D01*
X0009100Y0026520D02*
X-0001550D01*
X0009100Y0026430D02*
X-0001550D01*
X0009100Y0026340D02*
X-0001550D01*
X0009100Y0026160D02*
X-0001550D01*
X0014550Y0026070D02*
X-0001550D01*
X0014550Y0025980D02*
X-0001550D01*
X0014550Y0025890D02*
X-0001550D01*
X0014550Y0025800D02*
X-0001550D01*
X0014550Y0025710D02*
X-0001550D01*
X0014550Y0025620D02*
X-0001550D01*
X0014550Y0025530D02*
X-0001550D01*
X0014550Y0025440D02*
X-0001550D01*
X0014550Y0025350D02*
X-0001550D01*
X0014550Y0025260D02*
X-0001550D01*
X0014550Y0025170D02*
X-0001550D01*
X0014550Y0025080D02*
X-0001550D01*
X0014550Y0024990D02*
X-0001550D01*
X0014550Y0024900D02*
X-0001550D01*
X0014550Y0024810D02*
X-0001550D01*
X0014550Y0024720D02*
X-0001550D01*
X0014550Y0024630D02*
X-0001550D01*
X0014550Y0024540D02*
X-0001550D01*
X0014550Y0024450D02*
X-0001550D01*
X0014550Y0024360D02*
X-0001550D01*
X0014550Y0024270D02*
X-0001550D01*
X0014550Y0024180D02*
X-0001550D01*
X0014550Y0024090D02*
X-0001550D01*
X0014550Y0024000D02*
X-0001550D01*
X0009150Y0023910D02*
X-0001550D01*
X0009150Y0023820D02*
X-0001550D01*
X0009150Y0023730D02*
X-0001550D01*
X0009150Y0023640D02*
X-0001550D01*
X0009150Y0023550D02*
X-0001550D01*
X0014550Y0019230D02*
X0011350D01*
X0009150Y0023460D02*
X-0001550D01*
X0009150Y0023370D02*
X-0001550D01*
X0009150Y0023280D02*
X-0001550D01*
X0009150Y0023190D02*
X-0001550D01*
X0009150Y0023100D02*
X-0001550D01*
X0009150Y0023010D02*
X-0001550D01*
X0009150Y0022920D02*
X-0001550D01*
X0009150Y0022830D02*
X-0001550D01*
X0009150Y0022740D02*
X-0001550D01*
X0009150Y0022650D02*
X-0001550D01*
X0014550Y0022740D02*
X0011350D01*
X0009150Y0022470D02*
X-0001550D01*
X0009150Y0022380D02*
X-0001550D01*
X0014550Y0048030D02*
X0004350D01*
X0009150Y0022290D02*
X-0001550D01*
X0002400Y0022200D02*
X-0001550D01*
X0002400Y0022110D02*
X-0001550D01*
X0002400Y0022020D02*
X-0001550D01*
X0002400Y0021930D02*
X-0001550D01*
X0002400Y0021840D02*
X-0001550D01*
X0002400Y0021750D02*
X-0001550D01*
X0002400Y0019410D02*
X-0001550D01*
X0002400Y0021480D02*
X-0001550D01*
X0002400Y0021390D02*
X-0001550D01*
X0002400Y0021300D02*
X-0001550D01*
X0002400Y0021210D02*
X-0001550D01*
X0002400Y0021120D02*
X-0001550D01*
X0002400Y0021030D02*
X-0001550D01*
X0002400Y0020940D02*
X-0001550D01*
X0003220Y0017450D02*
Y0016400D01*
X0002500Y0008250D02*
Y0004650D01*
X0002400Y0020580D02*
X-0001550D01*
X0002400Y0020490D02*
X-0001550D01*
X0003400Y0017450D02*
Y0016400D01*
X0002400Y0020310D02*
X-0001550D01*
X0002400Y0020220D02*
X-0001550D01*
X0002400Y0020130D02*
X-0001550D01*
X0002400Y0020040D02*
X-0001550D01*
X0002400Y0019950D02*
X-0001550D01*
X0002400Y0019860D02*
X-0001550D01*
X0002400Y0019770D02*
X-0001550D01*
X0002400Y0019680D02*
X-0001550D01*
X0002400Y0019590D02*
X-0001550D01*
X0002400Y0019500D02*
X-0001550D01*
X0002400Y0019320D02*
X-0001550D01*
X0003310Y0017450D02*
Y0016400D01*
X0002400Y0019230D02*
X-0001550D01*
X0002400Y0019140D02*
X-0001550D01*
X0002400Y0019050D02*
X-0001550D01*
X0002400Y0018960D02*
X-0001550D01*
X0002400Y0018870D02*
X-0001550D01*
X0002400Y0018780D02*
X-0001550D01*
X0002400Y0018690D02*
X-0001550D01*
X0002400Y0018600D02*
X-0001550D01*
X0002400Y0018510D02*
X-0001550D01*
X0002400Y0018330D02*
X-0001550D01*
X0002400Y0018240D02*
X-0001550D01*
X0002400Y0018150D02*
X-0001550D01*
X0002400Y0018060D02*
X-0001550D01*
X0002400Y0017970D02*
X-0001550D01*
X0002400Y0017880D02*
X-0001550D01*
X0002400Y0017790D02*
X-0001550D01*
X0002400Y0017700D02*
X-0001550D01*
X0002400Y0017520D02*
X-0001550D01*
X0014550Y0017430D02*
X-0001550D01*
X0014550Y0017340D02*
X-0001550D01*
X0014550Y0017250D02*
X-0001550D01*
X0014550Y0017160D02*
X-0001550D01*
X0014550Y0017070D02*
X-0001550D01*
X0014550Y0016980D02*
X-0001550D01*
X0014550Y0016890D02*
X-0001550D01*
X0014550Y0016800D02*
X-0001550D01*
X0014550Y0016710D02*
X-0001550D01*
X0014550Y0016620D02*
X-0001550D01*
X0014550Y0016530D02*
X-0001550D01*
X0014550Y0016440D02*
X-0001550D01*
X0002400Y0016350D02*
X-0001550D01*
X0002400Y0016260D02*
X-0001550D01*
X0003040Y0008200D02*
Y0004650D01*
X0002400Y0016170D02*
X-0001550D01*
X0002400Y0016080D02*
X-0001550D01*
X0002400Y0015990D02*
X-0001550D01*
X0002400Y0015900D02*
X-0001550D01*
X0002400Y0015810D02*
X-0001550D01*
X0002400Y0015720D02*
X-0001550D01*
X0002400Y0015630D02*
X-0001550D01*
X0002400Y0015540D02*
X-0001550D01*
X0002400Y0015450D02*
X-0001550D01*
X0002400Y0015360D02*
X-0001550D01*
X0002400Y0015270D02*
X-0001550D01*
X0002400Y0015180D02*
X-0001550D01*
X0002400Y0015090D02*
X-0001550D01*
X0002400Y0015000D02*
X-0001550D01*
X0002400Y0014910D02*
X-0001550D01*
X0002400Y0014820D02*
X-0001550D01*
X0002400Y0014730D02*
X-0001550D01*
X0002400Y0014640D02*
X-0001550D01*
X0002400Y0014550D02*
X-0001550D01*
X0002400Y0014460D02*
X-0001550D01*
X0002400Y0014370D02*
X-0001550D01*
X0002400Y0014280D02*
X-0001550D01*
X0002400Y0014190D02*
X-0001550D01*
X0002400Y0014100D02*
X-0001550D01*
X0002400Y0014010D02*
X-0001550D01*
X0002400Y0013920D02*
X-0001550D01*
X0002400Y0013830D02*
X-0001550D01*
X0002400Y0013740D02*
X-0001550D01*
X0002400Y0013650D02*
X-0001550D01*
X0002400Y0013560D02*
X-0001550D01*
X0002400Y0013380D02*
X-0001550D01*
X0002400Y0013290D02*
X-0001550D01*
X0002400Y0013200D02*
X-0001550D01*
X0002400Y0013110D02*
X-0001550D01*
X0002400Y0013020D02*
X-0001550D01*
X0014550Y0019680D02*
X0011350D01*
X0002400Y0012930D02*
X-0001550D01*
X0002400Y0012750D02*
X-0001550D01*
X0000700Y0068550D02*
Y0004650D01*
X0002400Y0012570D02*
X-0001550D01*
X0002400Y0012480D02*
X-0001550D01*
X0002400Y0012390D02*
X-0001550D01*
X0002400Y0012300D02*
X-0001550D01*
X0002400Y0012210D02*
X-0001550D01*
X0002400Y0012120D02*
X-0001550D01*
X0002400Y0012030D02*
X-0001550D01*
X0002400Y0011940D02*
X-0001550D01*
X0002400Y0011850D02*
X-0001550D01*
X0002400Y0011760D02*
X-0001550D01*
X0002400Y0011670D02*
X-0001550D01*
X0002400Y0011580D02*
X-0001550D01*
X0002400Y0011490D02*
X-0001550D01*
X0002400Y0011400D02*
X-0001550D01*
X0002400Y0011310D02*
X-0001550D01*
X0002400Y0011220D02*
X-0001550D01*
X0002400Y0011130D02*
X-0001550D01*
X0002400Y0011040D02*
X-0001550D01*
X0002400Y0010950D02*
X-0001550D01*
X0002400Y0010860D02*
X-0001550D01*
X0002400Y0010770D02*
X-0001550D01*
X0002400Y0010680D02*
X-0001550D01*
X0002400Y0010590D02*
X-0001550D01*
X0002400Y0010500D02*
X-0001550D01*
X0002400Y0010410D02*
X-0001550D01*
X0002400Y0010320D02*
X-0001550D01*
X0002400Y0010230D02*
X-0001550D01*
X0002400Y0010140D02*
X-0001550D01*
X0002400Y0010050D02*
X-0001550D01*
X0002400Y0009960D02*
X-0001550D01*
X0002400Y0009870D02*
X-0001550D01*
X0002400Y0009780D02*
X-0001550D01*
X0002400Y0009690D02*
X-0001550D01*
X0002400Y0009600D02*
X-0001550D01*
X0002400Y0009510D02*
X-0001550D01*
X0002400Y0009420D02*
X-0001550D01*
X0002400Y0009330D02*
X-0001550D01*
X0002400Y0009240D02*
X-0001550D01*
X0002400Y0009150D02*
X-0001550D01*
X0002400Y0008970D02*
X-0001550D01*
X0002400Y0008880D02*
X-0001550D01*
X0004660Y0068550D02*
Y0016400D01*
X-0001460Y0068550D02*
Y0004650D01*
X0002400Y0008610D02*
X-0001550D01*
X0002400Y0008520D02*
X-0001550D01*
X0002400Y0008430D02*
X-0001550D01*
X0002410Y0008340D02*
X-0001550D01*
X0002500Y0008250D02*
X-0001550D01*
X0004990Y0008160D02*
X-0001550D01*
X0005080Y0008070D02*
X-0001550D01*
X0005150Y0007980D02*
X-0001550D01*
X0005150Y0007890D02*
X-0001550D01*
X0005150Y0007800D02*
X-0001550D01*
X0005150Y0007710D02*
X-0001550D01*
X0005150Y0007620D02*
X-0001550D01*
X0005150Y0007530D02*
X-0001550D01*
X0005150Y0007440D02*
X-0001550D01*
X0005150Y0007350D02*
X-0001550D01*
X0005150Y0007260D02*
X-0001550D01*
X0005150Y0007170D02*
X-0001550D01*
X0005150Y0007080D02*
X-0001550D01*
X0005150Y0006990D02*
X-0001550D01*
X0005150Y0006900D02*
X-0001550D01*
X0005150Y0006810D02*
X-0001550D01*
X0005150Y0006720D02*
X-0001550D01*
X0005150Y0006630D02*
X-0001550D01*
X0005150Y0006540D02*
X-0001550D01*
X0002410Y0017450D02*
Y0016400D01*
X0005150Y0006450D02*
X-0001550D01*
X0005150Y0006360D02*
X-0001550D01*
X0005150Y0006270D02*
X-0001550D01*
X0005150Y0006180D02*
X-0001550D01*
X0005150Y0006090D02*
X-0001550D01*
X0005150Y0006000D02*
X-0001550D01*
X0005150Y0005910D02*
X-0001550D01*
X0005150Y0005820D02*
X-0001550D01*
X0005150Y0005730D02*
X-0001550D01*
X0005150Y0005640D02*
X-0001550D01*
X0005150Y0005550D02*
X-0001550D01*
X0005150Y0005460D02*
X-0001550D01*
X0005150Y0005370D02*
X-0001550D01*
X0005150Y0005280D02*
X-0001550D01*
X0005150Y0005190D02*
X-0001550D01*
X0005150Y0005100D02*
X-0001550D01*
X0005150Y0005010D02*
X-0001550D01*
X0014550Y0041190D02*
X0007020D01*
X0014550Y0018870D02*
X0004600D01*
X0014550Y0018780D02*
X0004600D01*
X0014550Y0018690D02*
X0004600D01*
X0014550Y0018600D02*
X0004600D01*
X0014550Y0018510D02*
X0004600D01*
X0014550Y0018420D02*
X0004600D01*
X0014550Y0018330D02*
X0004600D01*
X0009150Y0021840D02*
X0004600D01*
X0009150Y0021930D02*
X0004600D01*
X0009150Y0022020D02*
X0004600D01*
X0009150Y0022110D02*
X0004600D01*
X0009150Y0022200D02*
X0004600D01*
X0014550Y0048120D02*
X0004350D01*
X0014550Y0048210D02*
X0004350D01*
X0014550Y0048300D02*
X0004350D01*
X0014550Y0048390D02*
X0004350D01*
X0014550Y0048480D02*
X0004350D01*
X0009150Y0020310D02*
X0004600D01*
X0009150Y0020220D02*
X0004600D01*
X0009150Y0020130D02*
X0004600D01*
X0009150Y0020040D02*
X0004600D01*
X0009150Y0019950D02*
X0004600D01*
X0009150Y0019860D02*
X0004600D01*
X0009150Y0019770D02*
X0004600D01*
X0009150Y0019680D02*
X0004600D01*
X0009150Y0019590D02*
X0004600D01*
X0009150Y0019500D02*
X0004600D01*
X0009150Y0019410D02*
X0004600D01*
X0002400Y0021570D02*
X-0001550D01*
X0002450Y0036690D02*
X-0001550D01*
X0009150Y0021300D02*
X0004600D01*
X0009150Y0021210D02*
X0004600D01*
X0009150Y0021120D02*
X0004600D01*
X0014550Y0047850D02*
X0004350D01*
X0009150Y0020940D02*
X0004600D01*
X0002450Y0036780D02*
X-0001550D01*
X0009150Y0020670D02*
X0004600D01*
X0002450Y0034170D02*
X-0001550D01*
X0009150Y0020400D02*
X0004600D01*
X0009150Y0021030D02*
X0004600D01*
X0009150Y0036240D02*
X0004650D01*
X0003940Y0033200D02*
Y0022250D01*
X0003850Y0033200D02*
Y0022250D01*
X0003760Y0033200D02*
Y0022250D01*
X0003670Y0033200D02*
Y0022250D01*
X0003580Y0033200D02*
Y0022250D01*
X0003490Y0033200D02*
Y0022250D01*
X0003400Y0033200D02*
Y0022250D01*
X0009970Y0019200D02*
Y0016400D01*
X0009250Y0019200D02*
Y0016400D01*
X0004570Y0017450D02*
Y0016400D01*
X0009150Y0020580D02*
X0004600D01*
X0002320Y0068550D02*
Y0052550D01*
X0002400Y0020760D02*
X-0001550D01*
X0014550Y0017520D02*
X0004600D01*
X0004390Y0017450D02*
Y0016400D01*
X0002400Y0020850D02*
X-0001550D01*
X0004300Y0017450D02*
Y0016400D01*
X0002400Y0018420D02*
X-0001550D01*
X0002450Y0036150D02*
X-0001550D01*
X0009150Y0020490D02*
X0004600D01*
X0004480Y0017450D02*
Y0016400D01*
X0003940Y0017450D02*
Y0016400D01*
X0003850Y0017450D02*
Y0016400D01*
X0003760Y0017450D02*
Y0016400D01*
X0003670Y0017450D02*
Y0016400D01*
X0003580Y0017450D02*
Y0016400D01*
X0003490Y0017450D02*
Y0016400D01*
X0003310Y0047750D02*
Y0038000D01*
X0003220Y0047750D02*
Y0038000D01*
X0004210Y0017450D02*
Y0016400D01*
X0005200Y0068550D02*
Y0016400D01*
X0005290Y0068550D02*
Y0016400D01*
X0005380Y0068550D02*
Y0016400D01*
X0011770Y0028000D02*
Y0016400D01*
X0010870Y0019200D02*
Y0016400D01*
X0011140Y0019200D02*
Y0016400D01*
X0014550Y0029850D02*
X0013050D01*
X0014550Y0018150D02*
X0004600D01*
X0014550Y0030030D02*
X0013050D01*
X0014550Y0029490D02*
X0013050D01*
X0014550Y0018240D02*
X0004600D01*
X0014550Y0029940D02*
X0013050D01*
X0014550Y0029220D02*
X0013050D01*
X0009790Y0019200D02*
Y0016400D01*
X0010780Y0019200D02*
Y0016400D01*
X0011590Y0028000D02*
Y0016400D01*
X0010690Y0019200D02*
Y0016400D01*
X0010780Y0026150D02*
Y0024000D01*
X0014020Y0068550D02*
Y0016400D01*
X0014550Y0019770D02*
X0011350D01*
X0011950Y0028000D02*
Y0016400D01*
X0014550Y0019860D02*
X0011350D01*
X0014550Y0019950D02*
X0011350D01*
X0014550Y0020040D02*
X0011350D01*
X0014550Y0020130D02*
X0011350D01*
X0014550Y0020220D02*
X0011350D01*
X0009250Y0026150D02*
Y0024000D01*
X0009340Y0026150D02*
Y0024000D01*
X0009430Y0026150D02*
Y0024000D01*
X0009520Y0026150D02*
Y0024000D01*
X0011140Y0026150D02*
Y0024000D01*
X0011230Y0026150D02*
Y0024000D01*
X0014110Y0068550D02*
Y0016400D01*
X0014200Y0068550D02*
Y0016400D01*
X0014290Y0068550D02*
Y0016400D01*
X0014380Y0068550D02*
Y0016400D01*
X0014470Y0068480D02*
Y0016400D01*
X0014560Y0068390D02*
Y0061160D01*
X0014650Y0068300D02*
Y0061250D01*
X0014740Y0068210D02*
Y0061340D01*
X0014830Y0068120D02*
Y0061430D01*
X0014920Y0068030D02*
Y0061520D01*
X0015010Y0067940D02*
Y0061610D01*
X0015100Y0067850D02*
Y0061700D01*
X0015190Y0067760D02*
Y0061790D01*
X0015280Y0067670D02*
Y0061880D01*
X0015370Y0067580D02*
Y0061970D01*
X0015460Y0067490D02*
Y0062060D01*
X0015550Y0067400D02*
Y0062150D01*
X0015640Y0067310D02*
Y0062240D01*
X0015730Y0067220D02*
Y0062330D01*
X0015820Y0067130D02*
Y0062420D01*
X0015910Y0067040D02*
Y0062510D01*
X0014550Y0023820D02*
X0011350D01*
X0014550Y0023910D02*
X0011350D01*
X0012040Y0028000D02*
Y0016400D01*
X0008440Y0068550D02*
Y0016400D01*
X0007900Y0041936D02*
Y0016400D01*
X0007810Y0041736D02*
Y0016400D01*
X0007720Y0041602D02*
Y0016400D01*
X0007630Y0041501D02*
Y0016400D01*
X0007540Y0041420D02*
Y0016400D01*
X0011320Y0028000D02*
Y0024000D01*
X0002400Y0020670D02*
X-0001550D01*
X0007270Y0041261D02*
Y0016400D01*
X0007180Y0041228D02*
Y0016400D01*
X0007090Y0041203D02*
Y0016400D01*
X0007000Y0041187D02*
Y0016400D01*
X0006910Y0041178D02*
Y0016400D01*
X0006820Y0041176D02*
Y0016400D01*
X0006730Y0041182D02*
Y0016400D01*
X0006640Y0041195D02*
Y0016400D01*
X0006550Y0041215D02*
Y0016400D01*
X0006460Y0041244D02*
Y0016400D01*
X0014550Y0023640D02*
X0011350D01*
X0006280Y0041329D02*
Y0016400D01*
X0006190Y0041388D02*
Y0016400D01*
X0006100Y0041460D02*
Y0016400D01*
X0006010Y0041551D02*
Y0016400D01*
X0005920Y0041667D02*
Y0016400D01*
X0006370Y0041282D02*
Y0016400D01*
X0010870Y0026150D02*
Y0024000D01*
X0007450Y0041355D02*
Y0016400D01*
X0012130Y0028000D02*
Y0016400D01*
X0012220Y0028000D02*
Y0016400D01*
X0012310Y0028000D02*
Y0016400D01*
X0012400Y0028000D02*
Y0016400D01*
X0012490Y0028000D02*
Y0016400D01*
X0012580Y0028000D02*
Y0016400D01*
X0012670Y0028000D02*
Y0016400D01*
X0012760Y0028000D02*
Y0016400D01*
X0012850Y0028000D02*
Y0016400D01*
X0012940Y0028000D02*
Y0016400D01*
X0013030Y0028000D02*
Y0016400D01*
X0013120Y0068550D02*
Y0016400D01*
X0014550Y0029580D02*
X0013050D01*
X0013210Y0068550D02*
Y0016400D01*
X0013300Y0068550D02*
Y0016400D01*
X0013390Y0068550D02*
Y0016400D01*
X0013480Y0068550D02*
Y0016400D01*
X0013570Y0068550D02*
Y0016400D01*
X0013660Y0068550D02*
Y0016400D01*
X0013750Y0068550D02*
Y0016400D01*
X0013840Y0068550D02*
Y0016400D01*
X0010690Y0026150D02*
Y0024000D01*
X0014550Y0039120D02*
X0011350D01*
X0007810Y0044681D02*
Y0042844D01*
X0007720Y0044476D02*
Y0042978D01*
X0007630Y0044340D02*
Y0043079D01*
X0007540Y0044238D02*
Y0043159D01*
X0007450Y0044157D02*
Y0043224D01*
X0007360Y0044091D02*
Y0043277D01*
X0007270Y0044038D02*
Y0043319D01*
X0007180Y0043996D02*
Y0043352D01*
X0007090Y0043963D02*
Y0043376D01*
X0007000Y0043938D02*
Y0043393D01*
X0006910Y0043921D02*
Y0043402D01*
X0006820Y0043912D02*
Y0043404D01*
X0006730Y0043910D02*
Y0043398D01*
X0006640Y0043915D02*
Y0043385D01*
X0006550Y0043928D02*
Y0043364D01*
X0006460Y0043948D02*
Y0043336D01*
X0006370Y0043976D02*
Y0043298D01*
X0006280Y0044014D02*
Y0043251D01*
X0006190Y0044060D02*
Y0043192D01*
X0006100Y0044119D02*
Y0043119D01*
X0006010Y0044191D02*
Y0043029D01*
X0005920Y0044280D02*
Y0042913D01*
X0005830Y0044395D02*
Y0042752D01*
X0005740Y0044554D02*
Y0042441D01*
X0014550Y0047760D02*
X0004350D01*
X0007900Y0068550D02*
Y0042644D01*
X0014550Y0043260D02*
X0007391D01*
X0014550Y0043170D02*
X0007527D01*
X0014550Y0043080D02*
X0007629D01*
X0014550Y0042990D02*
X0007710D01*
X0014550Y0042900D02*
X0007776D01*
X0014550Y0042810D02*
X0007829D01*
X0014550Y0042720D02*
X0007871D01*
X0014550Y0042630D02*
X0007904D01*
X0014550Y0042540D02*
X0007929D01*
X0014550Y0042450D02*
X0007946D01*
X0014550Y0042360D02*
X0007955D01*
X0014550Y0042270D02*
X0007957D01*
X0014550Y0042180D02*
X0007952D01*
X0014550Y0042090D02*
X0007939D01*
X0014550Y0042000D02*
X0007919D01*
X0014550Y0041910D02*
X0007891D01*
X0014550Y0041820D02*
X0007853D01*
X0014550Y0041730D02*
X0007807D01*
X0014550Y0041640D02*
X0007748D01*
X0014550Y0041550D02*
X0007676D01*
X0014550Y0041460D02*
X0007587D01*
X0014550Y0043350D02*
X0007186D01*
X0014550Y0041280D02*
X0007313D01*
X0014550Y0049470D02*
X0011350D01*
X0007810Y0068550D02*
Y0045366D01*
X0007720Y0068550D02*
Y0045571D01*
X0007630Y0068550D02*
Y0045707D01*
X0007540Y0068550D02*
Y0045809D01*
X0007450Y0068550D02*
Y0045890D01*
X0009150Y0052620D02*
X-0001550D01*
X0007360Y0068550D02*
Y0045956D01*
X0014550Y0045960D02*
X0007353D01*
X0014550Y0045870D02*
X0007474D01*
X0014550Y0045780D02*
X0007568D01*
X0014550Y0045690D02*
X0007643D01*
X0014550Y0045600D02*
X0007703D01*
X0014550Y0045510D02*
X0007752D01*
X0014550Y0045420D02*
X0007791D01*
X0014550Y0045330D02*
X0007821D01*
X0014550Y0045240D02*
X0007843D01*
X0014550Y0045150D02*
X0007857D01*
X0014550Y0045060D02*
X0007863D01*
X0014550Y0044970D02*
X0007863D01*
X0014550Y0044880D02*
X0007855D01*
X0014550Y0044790D02*
X0007839D01*
X0014550Y0044700D02*
X0007816D01*
X0014550Y0046050D02*
X0007183D01*
X0007270Y0068550D02*
Y0046009D01*
X0007180Y0068550D02*
Y0046051D01*
X0007090Y0068550D02*
Y0046084D01*
X0007000Y0068550D02*
Y0046109D01*
X0006910Y0068550D02*
Y0046126D01*
X0006820Y0068550D02*
Y0046135D01*
X0006730Y0068550D02*
Y0046137D01*
X0006640Y0068550D02*
Y0046132D01*
X0006550Y0068550D02*
Y0046119D01*
X0006460Y0068550D02*
Y0046099D01*
X0006370Y0068550D02*
Y0046071D01*
X0006280Y0068550D02*
Y0046033D01*
X0006190Y0068550D02*
Y0045987D01*
X0006100Y0068550D02*
Y0045928D01*
X0006010Y0068550D02*
Y0045856D01*
X0005920Y0068550D02*
Y0045767D01*
X0005830Y0068550D02*
Y0045652D01*
X0005740Y0068550D02*
Y0045493D01*
X0014550Y0041370D02*
X0007472D01*
X0014550Y0044520D02*
X0007743D01*
X0014550Y0044430D02*
X0007692D01*
X0014550Y0044340D02*
X0007629D01*
X0014550Y0044250D02*
X0007551D01*
X0014550Y0044160D02*
X0007453D01*
X0005150Y0004920D02*
X-0001550D01*
X0007990Y0068550D02*
Y0016400D01*
X0011350Y0049450D02*
X0009150D01*
X0011350Y0054250D02*
Y0049450D01*
Y0054250D02*
X0009150D01*
Y0049450D01*
X0002450Y0038000D02*
Y0033200D01*
X0004650Y0038000D02*
X0002450D01*
X0004650D02*
Y0033200D01*
X0002450D01*
X0011350Y0034950D02*
X0009150D01*
X0011350Y0039750D02*
Y0034950D01*
Y0039750D02*
X0009150D01*
Y0034950D01*
X0002400Y0067400D02*
Y0062600D01*
X0004600Y0067400D02*
X0002400D01*
X0004600D02*
Y0062600D01*
X0002400D01*
X0011150Y0068550D02*
Y0064350D01*
X0016100Y0064410D02*
X0011150D01*
Y0064350D02*
X0008950D01*
X0002150Y0052550D02*
Y0047750D01*
X0004350Y0052550D02*
X0002150D01*
X0004350D02*
Y0047750D01*
X0002150D01*
X0004600Y0017450D02*
X0002400D01*
X0004600Y0022250D02*
Y0017450D01*
Y0022250D02*
X0002400D01*
Y0017450D01*
X0011300Y0026150D02*
X0009100D01*
X0011300Y0028000D02*
Y0026150D01*
X0013050Y0028000D02*
X0011300D01*
X0013050Y0030950D02*
Y0028000D01*
Y0030950D02*
X0009100D01*
Y0026150D01*
X0009150Y0024000D02*
Y0019200D01*
X0011350Y0024000D02*
X0009150D01*
X0011350D02*
Y0019200D01*
X0009150D01*
X0002400Y0012660D02*
X-0001550D01*
X0002590Y0017450D02*
Y0016400D01*
X0004030Y0008200D02*
Y0004650D01*
X0002950Y0017450D02*
Y0016400D01*
X0009100Y0028860D02*
X-0001550D01*
X0010420Y0034950D02*
Y0030950D01*
X0014550Y0028950D02*
X0013050D01*
X0004300Y0062600D02*
Y0052550D01*
X0012760Y0068550D02*
Y0030950D01*
X0014550Y0017790D02*
X0004600D01*
X0009100Y0029220D02*
X-0001550D01*
X0012220Y0068550D02*
Y0030950D01*
X0014550Y0030390D02*
X0013050D01*
X0004030Y0033200D02*
Y0022250D01*
X0009150Y0052440D02*
X0004350D01*
X0014550Y0030210D02*
X0013050D01*
X0014550Y0017970D02*
X0004600D01*
X0014550Y0029670D02*
X0013050D01*
X0011230Y0019200D02*
Y0016400D01*
X0014550Y0028770D02*
X0013050D01*
X0014550Y0017700D02*
X0004600D01*
X0002590Y0033200D02*
Y0022250D01*
X0002680Y0033200D02*
Y0022250D01*
X0014550Y0029760D02*
X0013050D01*
X0014550Y0029310D02*
X0013050D01*
X0012310Y0068550D02*
Y0030950D01*
X0002400Y0017610D02*
X-0001550D01*
X0010240Y0034950D02*
Y0030950D01*
X0002770Y0033200D02*
Y0022250D01*
X0014550Y0028860D02*
X0013050D01*
X0011950Y0068550D02*
Y0030950D01*
X0012040Y0068550D02*
Y0030950D01*
X0014550Y0029040D02*
X0013050D01*
X0014550Y0017610D02*
X0004600D01*
X0010330Y0034950D02*
Y0030950D01*
X0012940Y0068550D02*
Y0030950D01*
X0010150Y0034950D02*
Y0030950D01*
X0014550Y0028590D02*
X0013050D01*
X0011860Y0028000D02*
Y0016400D01*
X0009790Y0034950D02*
Y0030950D01*
X0011230Y0034950D02*
Y0030950D01*
X0009610Y0026150D02*
Y0024000D01*
X0010060Y0034950D02*
Y0030950D01*
X0009100Y0026970D02*
X-0001550D01*
X0014550Y0026880D02*
X0011300D01*
X0014550Y0030660D02*
X0013050D01*
X0014550Y0027780D02*
X0011300D01*
X0014550Y0027690D02*
X0011300D01*
X0016100Y0064860D02*
X0011150D01*
X0016100Y0065490D02*
X0011150D01*
X0016100Y0064950D02*
X0011150D01*
X0016100Y0065040D02*
X0011150D01*
X0016100Y0065130D02*
X0011150D01*
X0016100Y0065220D02*
X0011150D01*
X0016100Y0065310D02*
X0011150D01*
X0002500Y0017450D02*
Y0016400D01*
X0014550Y0050550D02*
X0011350D01*
X0016100Y0063330D02*
X0004600D01*
X0014550Y0039480D02*
X0011350D01*
X0014550Y0039570D02*
X0011350D01*
X0014550Y0039660D02*
X0011350D01*
X0014550Y0036960D02*
X0011350D01*
X0008950Y0064590D02*
X0004600D01*
X0009250Y0049450D02*
Y0039750D01*
X0009340Y0049450D02*
Y0039750D01*
X0009430Y0049450D02*
Y0039750D01*
X0009520Y0049450D02*
Y0039750D01*
X0002150Y0047850D02*
X-0001550D01*
X0014550Y0048570D02*
X0004350D01*
X0009150Y0050550D02*
X0004350D01*
X0002860Y0062600D02*
Y0052550D01*
X0009150Y0052080D02*
X0004350D01*
X0009150Y0052170D02*
X0004350D01*
X0009150Y0052260D02*
X0004350D01*
X0009150Y0052350D02*
X0004350D01*
X0009790Y0049450D02*
Y0039750D01*
X0014550Y0036060D02*
X0011350D01*
X0009700Y0049450D02*
Y0039750D01*
X0010960Y0049450D02*
Y0039750D01*
X0011050Y0049450D02*
Y0039750D01*
X0009790Y0026150D02*
Y0024000D01*
X0014550Y0020310D02*
X0011350D01*
X0009700Y0026150D02*
Y0024000D01*
X0009150Y0034980D02*
X0004650D01*
X0014550Y0050100D02*
X0011350D01*
X0014550Y0050190D02*
X0011350D01*
X0014550Y0050280D02*
X0011350D01*
X0014550Y0050370D02*
X0011350D01*
X0014550Y0050460D02*
X0011350D01*
X0009160Y0064350D02*
Y0054250D01*
X0009250Y0064350D02*
Y0054250D01*
X0009340Y0064350D02*
Y0054250D01*
X0009430Y0064350D02*
Y0054250D01*
X0009520Y0064350D02*
Y0054250D01*
X0009150Y0019230D02*
X0004600D01*
X0014550Y0043980D02*
X0007139D01*
X0002500Y0062600D02*
Y0052550D01*
X0002590Y0062600D02*
Y0052550D01*
X0002680Y0062600D02*
Y0052550D01*
X0002770Y0062600D02*
Y0052550D01*
X0009150Y0052530D02*
X0004350D01*
X0009150Y0050460D02*
X0004350D01*
X0002950Y0062600D02*
Y0052550D01*
X0004570Y0033200D02*
Y0022250D01*
X0003040Y0033200D02*
Y0022250D01*
X0014550Y0047940D02*
X0004350D01*
X0002950Y0008200D02*
Y0004650D01*
X0016000Y0066950D02*
Y0062600D01*
X0016090Y0066860D02*
Y0062690D01*
X0014550Y0029400D02*
X0013050D01*
X0014550Y0028050D02*
X0013050D01*
X0012400Y0068550D02*
Y0030950D01*
X0011680Y0068550D02*
Y0030950D01*
X0014550Y0017880D02*
X0004600D01*
X0014550Y0021210D02*
X0011350D01*
X0005830Y0041828D02*
Y0016400D01*
X0014550Y0023460D02*
X0011350D01*
X0014550Y0023550D02*
X0011350D01*
X0014550Y0023730D02*
X0011350D01*
X0002400Y0008350D02*
X0002550Y0008200D01*
X0004950D02*
X0002550D01*
X0004950D02*
X0005150Y0008000D01*
Y0004650D01*
X-0001550D01*
Y0068550D02*
Y0004650D01*
X0009700Y0034950D02*
Y0030950D01*
X0014400Y0068550D02*
X0016100Y0066850D01*
Y0062700D01*
X0014550Y0061150D01*
Y0016400D01*
X0002400D01*
Y0008350D01*
X0009150Y0019320D02*
X0004600D01*
X0005150Y0004740D02*
X-0001550D01*
X0014550Y0019140D02*
X0004600D01*
X0009520Y0019200D02*
Y0016400D01*
X0011770Y0068550D02*
Y0030950D01*
X0014550Y0018060D02*
X0004600D01*
X0011410Y0068550D02*
Y0030950D01*
X0009100Y0028770D02*
X-0001550D01*
X0002680Y0008200D02*
Y0004650D01*
X0002400Y0009060D02*
X-0001550D01*
X0011410Y0028000D02*
Y0016400D01*
X0014550Y0027870D02*
X0011300D01*
X0009150Y0020850D02*
X0004600D01*
X0009150Y0020760D02*
X0004600D01*
X0011680Y0028000D02*
Y0016400D01*
X0014550Y0020490D02*
X0011350D01*
X0010960Y0019200D02*
Y0016400D01*
X0010600Y0019200D02*
Y0016400D01*
X0010510Y0019200D02*
Y0016400D01*
X0010420Y0019200D02*
Y0016400D01*
X0010330Y0019200D02*
Y0016400D01*
X0010240Y0019200D02*
Y0016400D01*
X0010150Y0019200D02*
Y0016400D01*
X0010060Y0019200D02*
Y0016400D01*
X0009880Y0019200D02*
Y0016400D01*
X0011050Y0026150D02*
Y0024000D01*
X0009610Y0019200D02*
Y0016400D01*
X0009430Y0019200D02*
Y0016400D01*
X0009340Y0019200D02*
Y0016400D01*
X0009250Y0034950D02*
Y0030950D01*
X0009160Y0019200D02*
Y0016400D01*
X0008980Y0064350D02*
Y0016400D01*
X0008890Y0068550D02*
Y0016400D01*
X0008800Y0068550D02*
Y0016400D01*
X0008710Y0068550D02*
Y0016400D01*
X0008620Y0068550D02*
Y0016400D01*
X0008530Y0068550D02*
Y0016400D01*
X0007360Y0041303D02*
Y0016400D01*
X0008350Y0068550D02*
Y0016400D01*
X0008260Y0068550D02*
Y0016400D01*
X0008170Y0068550D02*
Y0016400D01*
X0002400Y0013470D02*
X-0001550D01*
X0006374Y0041280D02*
X-0001550D01*
X0008080Y0068550D02*
Y0016400D01*
X0014550Y0023370D02*
X0011350D01*
X0014550Y0019320D02*
X0011350D01*
X0005684Y0044700D02*
X-0001550D01*
X0014550Y0019500D02*
X0011350D01*
X0014550Y0019590D02*
X0011350D01*
X0002400Y0012840D02*
X-0001550D01*
X0005740Y0042138D02*
Y0016400D01*
X0005650Y0044847D02*
Y0016400D01*
X0005560Y0068550D02*
Y0016400D01*
X0005470Y0068550D02*
Y0016400D01*
X0003130Y0017450D02*
Y0016400D01*
X0005110Y0008040D02*
Y0004650D01*
X0005020Y0008130D02*
Y0004650D01*
X0004930Y0008200D02*
Y0004650D01*
X0004840Y0008200D02*
Y0004650D01*
X0004750Y0008200D02*
Y0004650D01*
X0004660Y0008200D02*
Y0004650D01*
X0002400Y0020400D02*
X-0001550D01*
X0004570Y0008200D02*
Y0004650D01*
X0004480Y0008200D02*
Y0004650D01*
X0004390Y0008200D02*
Y0004650D01*
X0004300Y0008200D02*
Y0004650D01*
X0004210Y0008200D02*
Y0004650D01*
X0004120Y0008200D02*
Y0004650D01*
X0003940Y0008200D02*
Y0004650D01*
X0003850Y0008200D02*
Y0004650D01*
X0003760Y0008200D02*
Y0004650D01*
X0003670Y0008200D02*
Y0004650D01*
X0003580Y0008200D02*
Y0004650D01*
X0003490Y0008200D02*
Y0004650D01*
X0003400Y0008200D02*
Y0004650D01*
X0003310Y0008200D02*
Y0004650D01*
X0003220Y0008200D02*
Y0004650D01*
X0003130Y0008200D02*
Y0004650D01*
X0005150Y0004830D02*
X-0001550D01*
X0002860Y0008200D02*
Y0004650D01*
X0002770Y0008200D02*
Y0004650D01*
X0002680Y0017450D02*
Y0016400D01*
X0002590Y0008200D02*
Y0004650D01*
X0002410Y0047750D02*
Y0022250D01*
Y0008340D02*
Y0004650D01*
X0002230Y0047750D02*
Y0004650D01*
X0002140Y0068550D02*
Y0004650D01*
X0002050Y0068550D02*
Y0004650D01*
X0001960Y0068550D02*
Y0004650D01*
X0001870Y0068550D02*
Y0004650D01*
X0001780Y0068550D02*
Y0004650D01*
X0001690Y0068550D02*
Y0004650D01*
X0001600Y0068550D02*
Y0004650D01*
X0001510Y0068550D02*
Y0004650D01*
X0004030Y0017450D02*
Y0016400D01*
X0005020Y0068550D02*
Y0016400D01*
X0004930Y0068550D02*
Y0016400D01*
X0004840Y0068550D02*
Y0016400D01*
X0004750Y0068550D02*
Y0016400D01*
X0004120Y0017450D02*
Y0016400D01*
X0002860Y0017450D02*
Y0016400D01*
X0012490Y0068550D02*
Y0030950D01*
X0014550Y0028680D02*
X0013050D01*
X0002450Y0036600D02*
X-0001550D01*
X0014550Y0030300D02*
X0013050D01*
X0012670Y0068550D02*
Y0030950D01*
X0012580Y0068550D02*
Y0030950D01*
X0011860Y0068550D02*
Y0030950D01*
X0014550Y0029130D02*
X0013050D01*
X0012130Y0068550D02*
Y0030950D01*
X0002860Y0033200D02*
Y0022250D01*
X0011590Y0068550D02*
Y0030950D01*
X0011320Y0019200D02*
Y0016400D01*
Y0034950D02*
Y0030950D01*
X0011050Y0034950D02*
Y0030950D01*
X0010690Y0034950D02*
Y0030950D01*
X0011140Y0034950D02*
Y0030950D01*
X0009100Y0029670D02*
X-0001550D01*
X0002770Y0017450D02*
Y0016400D01*
X0009880Y0034950D02*
Y0030950D01*
X0013930Y0068550D02*
Y0016400D01*
X0014550Y0030930D02*
X0013050D01*
X0009100Y0028410D02*
X-0001550D01*
X0014550Y0030750D02*
X0013050D01*
X0014550Y0028230D02*
X0013050D01*
X0014550Y0028140D02*
X0013050D01*
X0011500Y0068550D02*
Y0030950D01*
X0014550Y0027960D02*
X0011300D01*
X0014550Y0028410D02*
X0013050D01*
X0014550Y0030570D02*
X0013050D01*
X0009100Y0027780D02*
X-0001550D01*
X0014550Y0028500D02*
X0013050D01*
X0009100Y0029040D02*
X-0001550D01*
X0014550Y0034980D02*
X0011350D01*
X0014550Y0030120D02*
X0013050D01*
X0014550Y0036240D02*
X0011350D01*
X0010600Y0034950D02*
Y0030950D01*
X0010510Y0034950D02*
Y0030950D01*
X0014550Y0030480D02*
X0013050D01*
X0009150Y0036690D02*
X0004650D01*
X0013030Y0068550D02*
Y0030950D01*
X0014550Y0030840D02*
X0013050D01*
X0014550Y0027600D02*
X0011300D01*
X0014550Y0027510D02*
X0011300D01*
X0014550Y0027420D02*
X0011300D01*
X0014550Y0027330D02*
X0011300D01*
X0014550Y0027240D02*
X0011300D01*
X0014550Y0027150D02*
X0011300D01*
X0014550Y0027060D02*
X0011300D01*
X0002400Y0062700D02*
X-0001550D01*
X0016100Y0062790D02*
X0004600D01*
X0016100Y0062970D02*
X0004600D01*
X0016100Y0063150D02*
X0004600D01*
X0016100Y0064320D02*
X0004600D01*
X0002590Y0068550D02*
Y0067400D01*
X0002770Y0068550D02*
Y0067400D01*
X0016010Y0062610D02*
X0004600D01*
X0008950Y0066570D02*
X0004600D01*
X0008950Y0066750D02*
X0004600D01*
X0008950Y0066930D02*
X0004600D01*
X0008950Y0067020D02*
X0004600D01*
X0008950Y0067110D02*
X0004600D01*
X0008950Y0067200D02*
X0004600D01*
X0008950Y0067290D02*
X0004600D01*
X0008950Y0067380D02*
X0004600D01*
X0008950Y0064680D02*
X0004600D01*
X0014550Y0026970D02*
X0011300D01*
X0016100Y0062700D02*
X0004600D01*
X0016100Y0062880D02*
X0004600D01*
X0016100Y0063060D02*
X0004600D01*
X0016100Y0063240D02*
X0004600D01*
X0002500Y0068550D02*
Y0067400D01*
X0002680Y0068550D02*
Y0067400D01*
X0002860Y0068550D02*
Y0067400D01*
X0008950Y0066480D02*
X0004600D01*
X0008950Y0066660D02*
X0004600D01*
X0015480Y0067470D02*
X0011150D01*
X0015570Y0067380D02*
X0011150D01*
X0015660Y0067290D02*
X0011150D01*
X0015750Y0067200D02*
X0011150D01*
X0015840Y0067110D02*
X0011150D01*
X0015930Y0067020D02*
X0011150D01*
X0016020Y0066930D02*
X0011150D01*
X0016100Y0066840D02*
X0011150D01*
X0016100Y0066750D02*
X0011150D01*
X0008950Y0067740D02*
X-0001550D01*
X0015390Y0067560D02*
X0011150D01*
X0016100Y0064680D02*
X0011150D01*
X0014490Y0068460D02*
X0011150D01*
X0014580Y0068370D02*
X0011150D01*
X0014670Y0068280D02*
X0011150D01*
X0014760Y0068190D02*
X0011150D01*
X0014850Y0068100D02*
X0011150D01*
X0014940Y0068010D02*
X0011150D01*
X0015030Y0067920D02*
X0011150D01*
X0015120Y0067830D02*
X0011150D01*
X0015210Y0067740D02*
X0011150D01*
X0002400Y0066840D02*
X-0001550D01*
X0016100Y0066660D02*
X0011150D01*
X0016100Y0066570D02*
X0011150D01*
X0016100Y0066390D02*
X0011150D01*
X0016100Y0066300D02*
X0011150D01*
X0016100Y0066210D02*
X0011150D01*
X0016100Y0066120D02*
X0011150D01*
X0016100Y0066030D02*
X0011150D01*
X0016100Y0065940D02*
X0011150D01*
X0016100Y0065850D02*
X0011150D01*
X0016100Y0065760D02*
X0011150D01*
X0016100Y0065670D02*
X0011150D01*
X0016100Y0065580D02*
X0011150D01*
X0014550Y0052080D02*
X0011350D01*
X0016100Y0064770D02*
X0011150D01*
X0014550Y0052980D02*
X0011350D01*
X0010600Y0064350D02*
Y0054250D01*
X0010510Y0064350D02*
Y0054250D01*
X0010420Y0064350D02*
Y0054250D01*
X0010150Y0064350D02*
Y0054250D01*
X0010060Y0064350D02*
Y0054250D01*
X0009790Y0064350D02*
Y0054250D01*
X0014550Y0052890D02*
X0011350D01*
X0010690Y0064350D02*
Y0054250D01*
X0008950Y0068550D02*
Y0064350D01*
X0014550Y0053340D02*
X0011350D01*
X0014550Y0053250D02*
X0011350D01*
X0014550Y0053160D02*
X0011350D01*
X0014550Y0053070D02*
X0011350D01*
X0014550Y0053520D02*
X0011350D01*
X0014550Y0053430D02*
X0011350D01*
X0014550Y0052800D02*
X0011350D01*
X0009970Y0064350D02*
Y0054250D01*
X0009880Y0064350D02*
Y0054250D01*
X0008950Y0066210D02*
X0004600D01*
X0009610Y0049450D02*
Y0039750D01*
X0014550Y0050640D02*
X0011350D01*
X0010960Y0064350D02*
Y0054250D01*
X0011230Y0068550D02*
Y0054250D01*
X0014550Y0052350D02*
X0011350D01*
X0014550Y0052260D02*
X0011350D01*
X0014550Y0052170D02*
X0011350D01*
X0010780Y0064350D02*
Y0054250D01*
X0014550Y0052530D02*
X0011350D01*
X0014550Y0052440D02*
X0011350D01*
X0014550Y0051810D02*
X0011350D01*
X0010870Y0049450D02*
Y0039750D01*
X0014550Y0051720D02*
X0011350D01*
X0011050Y0064350D02*
Y0054250D01*
X0009150Y0052800D02*
X-0001550D01*
X0010330Y0064350D02*
Y0054250D01*
X0011320Y0068550D02*
Y0054250D01*
X0014550Y0053880D02*
X0011350D01*
X0014550Y0054060D02*
X0011350D01*
X0014550Y0054240D02*
X0011350D01*
X0010960Y0034950D02*
Y0030950D01*
X0010240Y0064350D02*
Y0054250D01*
X0002150Y0051810D02*
X-0001550D01*
X0009610Y0064350D02*
Y0054250D01*
X0011140Y0064350D02*
Y0054250D01*
X0014550Y0053610D02*
X0011350D01*
X0014550Y0053700D02*
X0011350D01*
X0014550Y0053790D02*
X0011350D01*
X0014550Y0053970D02*
X0011350D01*
X0014550Y0054150D02*
X0011350D01*
X0014550Y0052620D02*
X0011350D01*
X0014550Y0052710D02*
X0011350D01*
X0009700Y0064350D02*
Y0054250D01*
X0014550Y0051630D02*
X0011350D01*
X0014550Y0051990D02*
X0011350D01*
X0014550Y0051900D02*
X0011350D01*
X0014550Y0051360D02*
X0011350D01*
X0014550Y0051270D02*
X0011350D01*
X0014550Y0051180D02*
X0011350D01*
X0014550Y0051090D02*
X0011350D01*
X0014550Y0051000D02*
X0011350D01*
X0014550Y0050910D02*
X0011350D01*
X0014550Y0050820D02*
X0011350D01*
X0014550Y0051540D02*
X0011350D01*
X0014550Y0051450D02*
X0011350D01*
X0003850Y0062600D02*
Y0052550D01*
X0004570Y0068550D02*
Y0067400D01*
X0004120Y0068550D02*
Y0067400D01*
X0004210Y0068550D02*
Y0067400D01*
X0004300Y0068550D02*
Y0067400D01*
X0004390Y0068550D02*
Y0067400D01*
X0004030Y0068550D02*
Y0067400D01*
X0011320Y0049450D02*
Y0039750D01*
X0010690Y0049450D02*
Y0039750D01*
X0014550Y0039210D02*
X0011350D01*
X0014550Y0039300D02*
X0011350D01*
X0014550Y0039390D02*
X0011350D01*
X0002950Y0068550D02*
Y0067400D01*
X0016100Y0064230D02*
X0004600D01*
X0016100Y0064140D02*
X0004600D01*
X0016100Y0064050D02*
X0004600D01*
X0016100Y0063960D02*
X0004600D01*
X0016100Y0063870D02*
X0004600D01*
X0016100Y0063780D02*
X0004600D01*
X0016100Y0063690D02*
X0004600D01*
X0016100Y0063600D02*
X0004600D01*
X0016100Y0063510D02*
X0004600D01*
X0008950Y0065400D02*
X0004600D01*
X0008950Y0065310D02*
X0004600D01*
X0008950Y0065220D02*
X0004600D01*
X0003040Y0068550D02*
Y0067400D01*
X0008950Y0065040D02*
X0004600D01*
X0008950Y0064950D02*
X0004600D01*
X0008950Y0064860D02*
X0004600D01*
X0008950Y0064770D02*
X0004600D01*
X0008950Y0065130D02*
X0004600D01*
X0014550Y0035070D02*
X0011350D01*
X0014550Y0035160D02*
X0011350D01*
X0014550Y0035250D02*
X0011350D01*
X0014550Y0035340D02*
X0011350D01*
X0014550Y0035430D02*
X0011350D01*
X0014550Y0035520D02*
X0011350D01*
X0014550Y0035610D02*
X0011350D01*
X0014550Y0035700D02*
X0011350D01*
X0014550Y0035790D02*
X0011350D01*
X0014550Y0035880D02*
X0011350D01*
X0009070Y0064350D02*
Y0016400D01*
X0016100Y0063420D02*
X0004600D01*
X0008950Y0064410D02*
X0004600D01*
X0009150Y0035070D02*
X0004650D01*
X0014550Y0035970D02*
X0011350D01*
X0004480Y0068550D02*
Y0067400D01*
X0003940Y0068550D02*
Y0067400D01*
X0003850Y0068550D02*
Y0067400D01*
X0003760Y0068550D02*
Y0067400D01*
X0003670Y0068550D02*
Y0067400D01*
X0003580Y0068550D02*
Y0067400D01*
X0003490Y0068550D02*
Y0067400D01*
X0003400Y0068550D02*
Y0067400D01*
X0003310Y0068550D02*
Y0067400D01*
X0003220Y0068550D02*
Y0067400D01*
X0003130Y0068550D02*
Y0067400D01*
X0002400Y0066660D02*
X-0001550D01*
X0008950Y0065580D02*
X0004600D01*
X0008950Y0066390D02*
X0004600D01*
X0008950Y0066300D02*
X0004600D01*
X0014550Y0044070D02*
X0007326D01*
X0008950Y0066120D02*
X0004600D01*
X0008950Y0066030D02*
X0004600D01*
X0008950Y0065940D02*
X0004600D01*
X0008950Y0065850D02*
X0004600D01*
X0008950Y0065760D02*
X0004600D01*
X0008950Y0065670D02*
X0004600D01*
X0008950Y0065490D02*
X0004600D01*
X0008950Y0064500D02*
X0004600D01*
X0016100D02*
X0011150D01*
X0016100Y0064590D02*
X0011150D01*
X0016100Y0065400D02*
X0011150D01*
X0014400Y0068550D02*
X0011150D01*
X0005650D02*
Y0045200D01*
X0014550Y0049380D02*
X0004350D01*
X0014550Y0049290D02*
X0004350D01*
X0014550Y0049200D02*
X0004350D01*
X0014550Y0049110D02*
X0004350D01*
X0014550Y0049020D02*
X0004350D01*
X0014550Y0048930D02*
X0004350D01*
X0014550Y0048840D02*
X0004350D01*
X0002150Y0048750D02*
X-0001550D01*
X0009150Y0051720D02*
X0004350D01*
X0003040Y0047750D02*
Y0038000D01*
X0014550Y0048660D02*
X0004350D01*
X0014550Y0048750D02*
X0004350D01*
X0009150Y0051810D02*
X0004350D01*
X0009150Y0051900D02*
X0004350D01*
X0009160Y0049450D02*
Y0039750D01*
X0009150Y0050370D02*
X0004350D01*
X0009150Y0050280D02*
X0004350D01*
X0009150Y0050190D02*
X0004350D01*
X0009150Y0050100D02*
X0004350D01*
X0009150Y0050010D02*
X0004350D01*
X0009150Y0049920D02*
X0004350D01*
X0009150Y0049830D02*
X0004350D01*
X0009150Y0049740D02*
X0004350D01*
X0009150Y0049650D02*
X0004350D01*
X0009150Y0050640D02*
X0004350D01*
X0009150Y0036600D02*
X0004650D01*
X0009150Y0036780D02*
X0004650D01*
X0009150Y0049560D02*
X0004350D01*
X0004030Y0062600D02*
Y0052550D01*
X0003760Y0062600D02*
Y0052550D01*
X0003670Y0062600D02*
Y0052550D01*
X0003580Y0062600D02*
Y0052550D01*
X0003490Y0062600D02*
Y0052550D01*
X0003400Y0062600D02*
Y0052550D01*
X0009150Y0051990D02*
X0004350D01*
X0002400Y0064680D02*
X-0001550D01*
X0003040Y0062600D02*
Y0052550D01*
X0009150Y0049470D02*
X0004350D01*
X0009150Y0051540D02*
X0004350D01*
X0009150Y0051450D02*
X0004350D01*
X0009150Y0051360D02*
X0004350D01*
X0009150Y0051270D02*
X0004350D01*
X0009150Y0051180D02*
X0004350D01*
X0009150Y0051090D02*
X0004350D01*
X0009150Y0051000D02*
X0004350D01*
X0009150Y0050910D02*
X0004350D01*
X0009150Y0050820D02*
X0004350D01*
X0009150Y0050730D02*
X0004350D01*
X0002450Y0033360D02*
X-0001550D01*
X0014550Y0036600D02*
X0011350D01*
X0014550Y0037320D02*
X0011350D01*
X0014550Y0033360D02*
X0004650D01*
X0014550Y0044610D02*
X0007784D01*
X0014550Y0038850D02*
X0011350D01*
X0014550Y0038760D02*
X0011350D01*
X0014550Y0038670D02*
X0011350D01*
X0014550Y0038580D02*
X0011350D01*
X0014550Y0039030D02*
X0011350D01*
X0014550Y0038940D02*
X0011350D01*
X0014550Y0038310D02*
X0011350D01*
X0014550Y0036690D02*
X0011350D01*
X0014550Y0038220D02*
X0011350D01*
X0014550Y0033540D02*
X0004650D01*
X0014550Y0033630D02*
X0004650D01*
X0014550Y0033720D02*
X0004650D01*
X0014550Y0033810D02*
X0004650D01*
X0014550Y0037230D02*
X0011350D01*
X0002500Y0047750D02*
Y0038000D01*
X0002770Y0047750D02*
Y0038000D01*
X0002150Y0050640D02*
X-0001550D01*
X0014550Y0033900D02*
X0004650D01*
X0014550Y0038130D02*
X0011350D01*
X0014550Y0033450D02*
X0004650D01*
X0014550Y0038400D02*
X0011350D01*
X0014550Y0037860D02*
X0011350D01*
X0014550Y0037770D02*
X0011350D01*
X0014550Y0037680D02*
X0011350D01*
X0014550Y0037590D02*
X0011350D01*
X0010780Y0049450D02*
Y0039750D01*
X0014550Y0038040D02*
X0011350D01*
X0014550Y0037950D02*
X0011350D01*
X0009150Y0038310D02*
X-0001550D01*
X0014550Y0050730D02*
X0011350D01*
X0010600Y0049450D02*
Y0039750D01*
X0010510Y0049450D02*
Y0039750D01*
X0010420Y0049450D02*
Y0039750D01*
X0010330Y0049450D02*
Y0039750D01*
X0014550Y0034890D02*
X0004650D01*
X0002590Y0047750D02*
Y0038000D01*
X0014550Y0037050D02*
X0011350D01*
X0002860Y0047750D02*
Y0038000D01*
X0014550Y0037140D02*
X0011350D01*
X0014550Y0037500D02*
X0011350D01*
X0014550Y0037410D02*
X0011350D01*
X0014550Y0036870D02*
X0011350D01*
X0014550Y0036780D02*
X0011350D01*
X0002450Y0037410D02*
X-0001550D01*
X0010240Y0049450D02*
Y0039750D01*
X0014550Y0033990D02*
X0004650D01*
X0010150Y0049450D02*
Y0039750D01*
X0002680Y0047750D02*
Y0038000D01*
X0010060Y0049450D02*
Y0039750D01*
X0009970Y0049450D02*
Y0039750D01*
X0009880Y0049450D02*
Y0039750D01*
X0010870Y0034950D02*
Y0030950D01*
X0014550Y0028320D02*
X0013050D01*
X0014550Y0036510D02*
X0011350D01*
X0014550Y0036420D02*
X0011350D01*
X0014550Y0036330D02*
X0011350D01*
X0009610Y0034950D02*
Y0030950D01*
X0014550Y0036150D02*
X0011350D01*
X0014550Y0020670D02*
X0011350D01*
X0014550Y0021570D02*
X0011350D01*
X0014550Y0026250D02*
X0011300D01*
X0014550Y0026160D02*
X0011300D01*
X0014550Y0023100D02*
X0011350D01*
X0014550Y0023010D02*
X0011350D01*
X0014550Y0022920D02*
X0011350D01*
X0014550Y0022830D02*
X0011350D01*
X0014550Y0023280D02*
X0011350D01*
X0014550Y0023190D02*
X0011350D01*
X0014550Y0022560D02*
X0011350D01*
X0009100Y0026250D02*
X-0001550D01*
X0014550Y0020760D02*
X0011350D01*
X0014550Y0022470D02*
X0011350D01*
X0014550Y0026430D02*
X0011300D01*
X0014550Y0026520D02*
X0011300D01*
X0014550Y0026610D02*
X0011300D01*
X0014550Y0026700D02*
X0011300D01*
X0014550Y0021480D02*
X0011350D01*
X0009520Y0034950D02*
Y0030950D01*
X0009150Y0036150D02*
X0004650D01*
X0014550Y0026790D02*
X0011300D01*
X0014550Y0022380D02*
X0011350D01*
X0014550Y0026340D02*
X0011300D01*
X0014550Y0022650D02*
X0011350D01*
X0014550Y0022110D02*
X0011350D01*
X0014550Y0022020D02*
X0011350D01*
X0014550Y0021930D02*
X0011350D01*
X0014550Y0021840D02*
X0011350D01*
X0011500Y0028000D02*
Y0016400D01*
X0014550Y0022290D02*
X0011350D01*
X0014550Y0022200D02*
X0011350D01*
X0009150Y0022560D02*
X-0001550D01*
X0010600Y0026150D02*
Y0024000D01*
X0010510Y0026150D02*
Y0024000D01*
X0010420Y0026150D02*
Y0024000D01*
X0010330Y0026150D02*
Y0024000D01*
X0009340Y0034950D02*
Y0030950D01*
X0011140Y0049450D02*
Y0039750D01*
X0014550Y0021300D02*
X0011350D01*
X0014550Y0021390D02*
X0011350D01*
X0014550Y0021750D02*
X0011350D01*
X0014550Y0021660D02*
X0011350D01*
X0014550Y0021120D02*
X0011350D01*
X0014550Y0021030D02*
X0011350D01*
X0014550Y0020940D02*
X0011350D01*
X0014550Y0020850D02*
X0011350D01*
X0009150Y0051630D02*
X0004350D01*
X0002400Y0021660D02*
X-0001550D01*
X0010240Y0026150D02*
Y0024000D01*
X0009430Y0034950D02*
Y0030950D01*
X0010150Y0026150D02*
Y0024000D01*
X0016100Y0066480D02*
X0011150D01*
X0010060Y0026150D02*
Y0024000D01*
X0009970Y0026150D02*
Y0024000D01*
X0009880Y0026150D02*
Y0024000D01*
X0011050Y0019200D02*
Y0016400D01*
X0014550Y0020580D02*
X0011350D01*
X0009700Y0019200D02*
Y0016400D01*
X0014550Y0020400D02*
X0011350D01*
X0002950Y0033200D02*
Y0022250D01*
X0004480Y0062600D02*
Y0038000D01*
X0004570Y0062600D02*
Y0038000D01*
X0004120Y0047750D02*
Y0038000D01*
X0004210Y0047750D02*
Y0038000D01*
X0004300Y0047750D02*
Y0038000D01*
X0004390Y0062600D02*
Y0038000D01*
X0009150Y0037140D02*
X0004650D01*
X0009150Y0037230D02*
X0004650D01*
X0009150Y0037320D02*
X0004650D01*
X0009150Y0037410D02*
X0004650D01*
X0009150Y0037500D02*
X0004650D01*
X0014550Y0034800D02*
X0004650D01*
X0014550Y0034710D02*
X0004650D01*
X0014550Y0034620D02*
X0004650D01*
X0014550Y0034530D02*
X0004650D01*
X0014550Y0034440D02*
X0004650D01*
X0014550Y0034350D02*
X0004650D01*
X0014550Y0034260D02*
X0004650D01*
X0014550Y0034170D02*
X0004650D01*
X0014550Y0034080D02*
X0004650D01*
X0009150Y0037590D02*
X0004650D01*
X0009150Y0037680D02*
X0004650D01*
X0009150Y0037770D02*
X0004650D01*
X0009150Y0037860D02*
X0004650D01*
X0009150Y0037950D02*
X0004650D01*
X0014550Y0049560D02*
X0011350D01*
X0014550Y0049650D02*
X0011350D01*
X0014550Y0049740D02*
X0011350D01*
X0014550Y0049830D02*
X0011350D01*
X0014550Y0049920D02*
X0011350D01*
X0009150Y0036060D02*
X0004650D01*
X0009150Y0035970D02*
X0004650D01*
X0009150Y0035880D02*
X0004650D01*
X0009150Y0035790D02*
X0004650D01*
X0009150Y0035700D02*
X0004650D01*
X0009150Y0035610D02*
X0004650D01*
X0009150Y0035520D02*
X0004650D01*
X0009150Y0035430D02*
X0004650D01*
X0009150Y0035340D02*
X0004650D01*
X0009150Y0035250D02*
X0004650D01*
X0009150Y0035160D02*
X0004650D01*
X0002450Y0037320D02*
X-0001550D01*
X0004030Y0047750D02*
Y0038000D01*
X0009150Y0037050D02*
X0004650D01*
X0009150Y0036960D02*
X0004650D01*
X0009150Y0036870D02*
X0004650D01*
X0002400Y0064500D02*
X-0001550D01*
X0004210Y0033200D02*
Y0022250D01*
X0002400Y0064770D02*
X-0001550D01*
X0002150Y0049650D02*
X-0001550D01*
X0003940Y0047750D02*
Y0038000D01*
X0002150Y0048660D02*
X-0001550D01*
X0002400Y0065490D02*
X-0001550D01*
X0003850Y0047750D02*
Y0038000D01*
X0003760Y0047750D02*
Y0038000D01*
X0003670Y0047750D02*
Y0038000D01*
X0003580Y0047750D02*
Y0038000D01*
X0003490Y0047750D02*
Y0038000D01*
X0003400Y0047750D02*
Y0038000D01*
X0009160Y0034950D02*
Y0030950D01*
X0004480Y0033200D02*
Y0022250D01*
X0009150Y0036510D02*
X0004650D01*
X0009150Y0036420D02*
X0004650D01*
X0009150Y0036330D02*
X0004650D01*
X0014550Y0050010D02*
X0011350D01*
X0003040Y0017450D02*
Y0016400D01*
X0004120Y0033200D02*
Y0022250D01*
Y0062600D02*
Y0052550D01*
X0004300Y0033200D02*
Y0022250D01*
X0004390Y0033200D02*
Y0022250D01*
X0011230Y0049450D02*
Y0039750D01*
X0009150Y0021390D02*
X0004600D01*
X0009150Y0021480D02*
X0004600D01*
X0009150Y0021570D02*
X0004600D01*
X0009150Y0021660D02*
X0004600D01*
X0009150Y0021750D02*
X0004600D01*
X0005110Y0068550D02*
Y0016400D01*
X0014550Y0019050D02*
X0004600D01*
X0014550Y0018960D02*
X0004600D01*
X0008790Y0084300D02*
Y0078910D01*
X0012350Y0078190D02*
X0009510D01*
X0012350Y0084300D02*
Y0078100D01*
Y0084300D02*
X0008700D01*
Y0079000D01*
X0009600Y0078100D01*
X0012350D02*
X0009600D01*
X0012300Y0084300D02*
Y0078100D01*
X0012210Y0084300D02*
Y0078100D01*
X0012120Y0084300D02*
Y0078100D01*
X0012030Y0084300D02*
Y0078100D01*
X0011940Y0084300D02*
Y0078100D01*
X0011850Y0084300D02*
Y0078100D01*
X0011760Y0084300D02*
Y0078100D01*
X0011670Y0084300D02*
Y0078100D01*
X0011580Y0084300D02*
Y0078100D01*
X0011490Y0084300D02*
Y0078100D01*
X0011400Y0084300D02*
Y0078100D01*
X0011310Y0084300D02*
Y0078100D01*
X0011220Y0084300D02*
Y0078100D01*
X0011130Y0084300D02*
Y0078100D01*
X0011040Y0084300D02*
Y0078100D01*
X0010950Y0084300D02*
Y0078100D01*
X0010860Y0084300D02*
Y0078100D01*
X0010770Y0084300D02*
Y0078100D01*
X0010680Y0084300D02*
Y0078100D01*
X0010590Y0084300D02*
Y0078100D01*
X0010500Y0084300D02*
Y0078100D01*
X0010410Y0084300D02*
Y0078100D01*
X0010320Y0084300D02*
Y0078100D01*
X0010230Y0084300D02*
Y0078100D01*
X0010140Y0084300D02*
Y0078100D01*
X0010050Y0084300D02*
Y0078100D01*
X0009960Y0084300D02*
Y0078100D01*
X0009870Y0084300D02*
Y0078100D01*
X0009780Y0084300D02*
Y0078100D01*
X0009690Y0084300D02*
Y0078100D01*
X0009600Y0084300D02*
Y0078100D01*
X0009510Y0084300D02*
Y0078190D01*
X0009420Y0084300D02*
Y0078280D01*
X0009330Y0084300D02*
Y0078370D01*
X0009240Y0084300D02*
Y0078460D01*
X0009150Y0084300D02*
Y0078550D01*
X0009060Y0084300D02*
Y0078640D01*
X0008970Y0084300D02*
Y0078730D01*
X0008880Y0084300D02*
Y0078820D01*
X0012350Y0084220D02*
X0008700D01*
X0012350Y0084130D02*
X0008700D01*
X0012350Y0084040D02*
X0008700D01*
X0012350Y0083950D02*
X0008700D01*
X0012350Y0083860D02*
X0008700D01*
X0012350Y0083770D02*
X0008700D01*
X0012350Y0083680D02*
X0008700D01*
X0012350Y0083590D02*
X0008700D01*
X0012350Y0083500D02*
X0008700D01*
X0012350Y0083410D02*
X0008700D01*
X0012350Y0083320D02*
X0008700D01*
X0012350Y0083230D02*
X0008700D01*
X0012350Y0083140D02*
X0008700D01*
X0012350Y0083050D02*
X0008700D01*
X0012350Y0082960D02*
X0008700D01*
X0012350Y0082870D02*
X0008700D01*
X0012350Y0082780D02*
X0008700D01*
X0012350Y0082690D02*
X0008700D01*
X0012350Y0082600D02*
X0008700D01*
X0012350Y0082510D02*
X0008700D01*
X0012350Y0082420D02*
X0008700D01*
X0012350Y0082330D02*
X0008700D01*
X0012350Y0082240D02*
X0008700D01*
X0012350Y0082150D02*
X0008700D01*
X0012350Y0082060D02*
X0008700D01*
X0012350Y0081970D02*
X0008700D01*
X0012350Y0081880D02*
X0008700D01*
X0012350Y0081790D02*
X0008700D01*
X0012350Y0081700D02*
X0008700D01*
X0012350Y0081610D02*
X0008700D01*
X0012350Y0081520D02*
X0008700D01*
X0012350Y0081430D02*
X0008700D01*
X0012350Y0081340D02*
X0008700D01*
X0012350Y0081250D02*
X0008700D01*
X0012350Y0081160D02*
X0008700D01*
X0012350Y0081070D02*
X0008700D01*
X0012350Y0080980D02*
X0008700D01*
X0012350Y0080890D02*
X0008700D01*
X0012350Y0080800D02*
X0008700D01*
X0012350Y0080710D02*
X0008700D01*
X0012350Y0080620D02*
X0008700D01*
X0012350Y0080530D02*
X0008700D01*
X0012350Y0080440D02*
X0008700D01*
X0012350Y0080350D02*
X0008700D01*
X0012350Y0080260D02*
X0008700D01*
X0012350Y0080170D02*
X0008700D01*
X0012350Y0080080D02*
X0008700D01*
X0012350Y0079990D02*
X0008700D01*
X0012350Y0079900D02*
X0008700D01*
X0012350Y0079810D02*
X0008700D01*
X0012350Y0079720D02*
X0008700D01*
X0012350Y0079630D02*
X0008700D01*
X0012350Y0079540D02*
X0008700D01*
X0012350Y0079450D02*
X0008700D01*
X0012350Y0079360D02*
X0008700D01*
X0012350Y0079270D02*
X0008700D01*
X0012350Y0079180D02*
X0008700D01*
X0012350Y0079090D02*
X0008700D01*
X0012350Y0079000D02*
X0008700D01*
X0012350Y0078910D02*
X0008790D01*
X0012350Y0078820D02*
X0008880D01*
X0012350Y0078730D02*
X0008970D01*
X0012350Y0078640D02*
X0009060D01*
X0012350Y0078550D02*
X0009150D01*
X0012350Y0078460D02*
X0009240D01*
X0012350Y0078370D02*
X0009330D01*
X0012350Y0078280D02*
X0009420D01*
X0010690Y0077850D02*
Y0074450D01*
X0010600Y0077850D02*
Y0074450D01*
X0010510Y0077850D02*
Y0074450D01*
X0010420Y0077850D02*
Y0074450D01*
X0010330Y0077850D02*
Y0074450D01*
X0010240Y0077850D02*
Y0074450D01*
X0010150Y0077850D02*
Y0074450D01*
X0010060Y0077850D02*
Y0074450D01*
X0009970Y0077850D02*
Y0074450D01*
X0009880Y0077850D02*
Y0074450D01*
X0012300Y0077780D02*
X0009700D01*
X0012300Y0077690D02*
X0009700D01*
X0012300Y0077600D02*
X0009700D01*
X0012300Y0077510D02*
X0009700D01*
X0012300Y0077420D02*
X0009700D01*
X0012300Y0077330D02*
X0009700D01*
X0012300Y0077240D02*
X0009700D01*
X0012300Y0077150D02*
X0009700D01*
X0012300Y0077060D02*
X0009700D01*
X0012300Y0076970D02*
X0009700D01*
X0012300Y0076880D02*
X0009700D01*
X0012300Y0076790D02*
X0009700D01*
X0012300Y0076700D02*
X0009700D01*
X0012300Y0076610D02*
X0009700D01*
X0012300Y0076520D02*
X0009700D01*
X0012300Y0076430D02*
X0009700D01*
X0012300Y0076340D02*
X0009700D01*
X0012300Y0076250D02*
X0009700D01*
X0012300Y0076160D02*
X0009700D01*
X0012300Y0076070D02*
X0009700D01*
X0012300Y0075980D02*
X0009700D01*
X0012300Y0075890D02*
X0009700D01*
X0012300Y0075800D02*
X0009700D01*
X0012300Y0075710D02*
X0009700D01*
X0012300Y0075620D02*
X0009700D01*
X0012300Y0075530D02*
X0009700D01*
X0012300Y0075440D02*
X0009700D01*
X0012300Y0075350D02*
X0009700D01*
X0012300Y0075260D02*
X0009700D01*
X0012300Y0075170D02*
X0009700D01*
X0012300Y0075080D02*
X0009700D01*
X0012300Y0074990D02*
X0009700D01*
X0012300Y0074900D02*
X0009700D01*
X0012300Y0074810D02*
X0009700D01*
X0012300Y0074720D02*
X0009700D01*
X0012300Y0074630D02*
X0009700D01*
X0012300Y0074540D02*
X0009700D01*
X0009790Y0077850D02*
Y0074450D01*
X0012300D02*
X0009850D01*
X0012300Y0077850D02*
Y0074450D01*
Y0077850D02*
X0009700D01*
Y0074450D01*
X0009850D02*
X0009700D01*
X0012220Y0077850D02*
Y0074450D01*
X0012130Y0077850D02*
Y0074450D01*
X0012040Y0077850D02*
Y0074450D01*
X0011950Y0077850D02*
Y0074450D01*
X0011860Y0077850D02*
Y0074450D01*
X0011770Y0077850D02*
Y0074450D01*
X0011680Y0077850D02*
Y0074450D01*
X0011590Y0077850D02*
Y0074450D01*
X0011500Y0077850D02*
Y0074450D01*
X0011410Y0077850D02*
Y0074450D01*
X0011320Y0077850D02*
Y0074450D01*
X0011230Y0077850D02*
Y0074450D01*
X0011140Y0077850D02*
Y0074450D01*
X0011050Y0077850D02*
Y0074450D01*
X0010960Y0077850D02*
Y0074450D01*
X0010870Y0077850D02*
Y0074450D01*
X0010780Y0077850D02*
Y0074450D01*
X0032310Y0015900D02*
Y0008700D01*
X0051060Y0009960D02*
X0025840D01*
X0034200Y0015900D02*
Y0008700D01*
X0044910Y0005460D02*
X0035850D01*
X0033930Y0015900D02*
Y0008700D01*
X0047070Y0007620D02*
X0035850D01*
X0029340Y0015900D02*
Y0008700D01*
X0002880Y0015900D02*
Y0008620D01*
X0003150Y0015900D02*
Y0008500D01*
X0009214Y0010604D02*
Y0008844D01*
X0010974D02*
X0009214D01*
X0010974Y0010604D02*
Y0008844D01*
Y0010604D02*
X0009214D01*
X0025600Y0010200D02*
X0021000D01*
X0025600D02*
X0027100Y0008700D01*
X0035850D02*
X0027100D01*
X0035850D02*
Y0005400D01*
X0044850D02*
X0035850D01*
X0047600Y0008150D02*
X0044850Y0005400D01*
X0049250Y0008150D02*
X0047600D01*
X0052800Y0011700D02*
X0049250Y0008150D01*
X0052800Y0015400D02*
Y0011700D01*
X0052300Y0015900D02*
X0052800Y0015400D01*
X0052300Y0015900D02*
X0002700D01*
Y0008800D01*
X0003000Y0008500D01*
X0005500D02*
X0003000D01*
X0005500D02*
Y0004650D01*
X0011000D02*
X0005500D01*
X0016550Y0010200D02*
X0011000Y0004650D01*
X0021000Y0010200D02*
X0016550D01*
X0052740Y0015460D02*
Y0011640D01*
X0052650Y0015550D02*
Y0011550D01*
X0052560Y0015640D02*
Y0011460D01*
X0052470Y0015730D02*
Y0011370D01*
X0052380Y0015820D02*
Y0011280D01*
X0052290Y0015900D02*
Y0011190D01*
X0052200Y0015900D02*
Y0011100D01*
X0052110Y0015900D02*
Y0011010D01*
X0052020Y0015900D02*
Y0010920D01*
X0051930Y0015900D02*
Y0010830D01*
X0051840Y0015900D02*
Y0010740D01*
X0051750Y0015900D02*
Y0010650D01*
X0051660Y0015900D02*
Y0010560D01*
X0051570Y0015900D02*
Y0010470D01*
X0050850Y0015900D02*
Y0009750D01*
X0051300Y0015900D02*
Y0010200D01*
X0051210Y0015900D02*
Y0010110D01*
X0051120Y0015900D02*
Y0010020D01*
X0051030Y0015900D02*
Y0009930D01*
X0050760Y0015900D02*
Y0009660D01*
X0051480Y0015900D02*
Y0010380D01*
X0050580Y0015900D02*
Y0009480D01*
X0050670Y0015900D02*
Y0009570D01*
X0050490Y0015900D02*
Y0009390D01*
X0050400Y0015900D02*
Y0009300D01*
X0050310Y0015900D02*
Y0009210D01*
X0050040Y0015900D02*
Y0008940D01*
X0049950Y0015900D02*
Y0008850D01*
X0049860Y0015900D02*
Y0008760D01*
X0049770Y0015900D02*
Y0008670D01*
X0049680Y0015900D02*
Y0008580D01*
X0049590Y0015900D02*
Y0008490D01*
X0049500Y0015900D02*
Y0008400D01*
X0049410Y0015900D02*
Y0008310D01*
X0049320Y0015900D02*
Y0008220D01*
X0049230Y0015900D02*
Y0008150D01*
X0049140Y0015900D02*
Y0008150D01*
X0049050Y0015900D02*
Y0008150D01*
X0048960Y0015900D02*
Y0008150D01*
X0048870Y0015900D02*
Y0008150D01*
X0048780Y0015900D02*
Y0008150D01*
X0048690Y0015900D02*
Y0008150D01*
X0048600Y0015900D02*
Y0008150D01*
X0048510Y0015900D02*
Y0008150D01*
X0048420Y0015900D02*
Y0008150D01*
X0048330Y0015900D02*
Y0008150D01*
X0048240Y0015900D02*
Y0008150D01*
X0048150Y0015900D02*
Y0008150D01*
X0048060Y0015900D02*
Y0008150D01*
X0047970Y0015900D02*
Y0008150D01*
X0047880Y0015900D02*
Y0008150D01*
X0047790Y0015900D02*
Y0008150D01*
X0047700Y0015900D02*
Y0008150D01*
X0047610Y0015900D02*
Y0008150D01*
X0047520Y0015900D02*
Y0008070D01*
X0047430Y0015900D02*
Y0007980D01*
X0047340Y0015900D02*
Y0007890D01*
X0047250Y0015900D02*
Y0007800D01*
X0047160Y0015900D02*
Y0007710D01*
X0047070Y0015900D02*
Y0007620D01*
X0046980Y0015900D02*
Y0007530D01*
X0046890Y0015900D02*
Y0007440D01*
X0046800Y0015900D02*
Y0007350D01*
X0046710Y0015900D02*
Y0007260D01*
X0046620Y0015900D02*
Y0007170D01*
X0046530Y0015900D02*
Y0007080D01*
X0046440Y0015900D02*
Y0006990D01*
X0046350Y0015900D02*
Y0006900D01*
X0046260Y0015900D02*
Y0006810D01*
X0046170Y0015900D02*
Y0006720D01*
X0046080Y0015900D02*
Y0006630D01*
X0045990Y0015900D02*
Y0006540D01*
X0045900Y0015900D02*
Y0006450D01*
X0045810Y0015900D02*
Y0006360D01*
X0045720Y0015900D02*
Y0006270D01*
X0045630Y0015900D02*
Y0006180D01*
X0045540Y0015900D02*
Y0006090D01*
X0045450Y0015900D02*
Y0006000D01*
X0045360Y0015900D02*
Y0005910D01*
X0045270Y0015900D02*
Y0005820D01*
X0045180Y0015900D02*
Y0005730D01*
X0045090Y0015900D02*
Y0005640D01*
X0045000Y0015900D02*
Y0005550D01*
X0044910Y0015900D02*
Y0005460D01*
X0044820Y0015900D02*
Y0005400D01*
X0044730Y0015900D02*
Y0005400D01*
X0044640Y0015900D02*
Y0005400D01*
X0044550Y0015900D02*
Y0005400D01*
X0044460Y0015900D02*
Y0005400D01*
X0044370Y0015900D02*
Y0005400D01*
X0044280Y0015900D02*
Y0005400D01*
X0044190Y0015900D02*
Y0005400D01*
X0044100Y0015900D02*
Y0005400D01*
X0044010Y0015900D02*
Y0005400D01*
X0043920Y0015900D02*
Y0005400D01*
X0043830Y0015900D02*
Y0005400D01*
X0043740Y0015900D02*
Y0005400D01*
X0043650Y0015900D02*
Y0005400D01*
X0043560Y0015900D02*
Y0005400D01*
X0043470Y0015900D02*
Y0005400D01*
X0043380Y0015900D02*
Y0005400D01*
X0043290Y0015900D02*
Y0005400D01*
X0043200Y0015900D02*
Y0005400D01*
X0043110Y0015900D02*
Y0005400D01*
X0043020Y0015900D02*
Y0005400D01*
X0042930Y0015900D02*
Y0005400D01*
X0042840Y0015900D02*
Y0005400D01*
X0042750Y0015900D02*
Y0005400D01*
X0042660Y0015900D02*
Y0005400D01*
X0042570Y0015900D02*
Y0005400D01*
X0042480Y0015900D02*
Y0005400D01*
X0042390Y0015900D02*
Y0005400D01*
X0042300Y0015900D02*
Y0005400D01*
X0042210Y0015900D02*
Y0005400D01*
X0042120Y0015900D02*
Y0005400D01*
X0042030Y0015900D02*
Y0005400D01*
X0041940Y0015900D02*
Y0005400D01*
X0041850Y0015900D02*
Y0005400D01*
X0041760Y0015900D02*
Y0005400D01*
X0041670Y0015900D02*
Y0005400D01*
X0041580Y0015900D02*
Y0005400D01*
X0041490Y0015900D02*
Y0005400D01*
X0041400Y0015900D02*
Y0005400D01*
X0041310Y0015900D02*
Y0005400D01*
X0041220Y0015900D02*
Y0005400D01*
X0041130Y0015900D02*
Y0005400D01*
X0041040Y0015900D02*
Y0005400D01*
X0040950Y0015900D02*
Y0005400D01*
X0040860Y0015900D02*
Y0005400D01*
X0040770Y0015900D02*
Y0005400D01*
X0040680Y0015900D02*
Y0005400D01*
X0040590Y0015900D02*
Y0005400D01*
X0040500Y0015900D02*
Y0005400D01*
X0040410Y0015900D02*
Y0005400D01*
X0040230Y0015900D02*
Y0005400D01*
X0040140Y0015900D02*
Y0005400D01*
X0040050Y0015900D02*
Y0005400D01*
X0039960Y0015900D02*
Y0005400D01*
X0039870Y0015900D02*
Y0005400D01*
X0039780Y0015900D02*
Y0005400D01*
X0039690Y0015900D02*
Y0005400D01*
X0039600Y0015900D02*
Y0005400D01*
X0039510Y0015900D02*
Y0005400D01*
X0039420Y0015900D02*
Y0005400D01*
X0039330Y0015900D02*
Y0005400D01*
X0039240Y0015900D02*
Y0005400D01*
X0039150Y0015900D02*
Y0005400D01*
X0039060Y0015900D02*
Y0005400D01*
X0038970Y0015900D02*
Y0005400D01*
X0038880Y0015900D02*
Y0005400D01*
X0038790Y0015900D02*
Y0005400D01*
X0038700Y0015900D02*
Y0005400D01*
X0038610Y0015900D02*
Y0005400D01*
X0038520Y0015900D02*
Y0005400D01*
X0038430Y0015900D02*
Y0005400D01*
X0038340Y0015900D02*
Y0005400D01*
X0038250Y0015900D02*
Y0005400D01*
X0038160Y0015900D02*
Y0005400D01*
X0038070Y0015900D02*
Y0005400D01*
X0037980Y0015900D02*
Y0005400D01*
X0037890Y0015900D02*
Y0005400D01*
X0037800Y0015900D02*
Y0005400D01*
X0037710Y0015900D02*
Y0005400D01*
X0037620Y0015900D02*
Y0005400D01*
X0037530Y0015900D02*
Y0005400D01*
X0037440Y0015900D02*
Y0005400D01*
X0037350Y0015900D02*
Y0005400D01*
X0037260Y0015900D02*
Y0005400D01*
X0037170Y0015900D02*
Y0005400D01*
X0037080Y0015900D02*
Y0005400D01*
X0036990Y0015900D02*
Y0005400D01*
X0036900Y0015900D02*
Y0005400D01*
X0036810Y0015900D02*
Y0005400D01*
X0036720Y0015900D02*
Y0005400D01*
X0036630Y0015900D02*
Y0005400D01*
X0036540Y0015900D02*
Y0005400D01*
X0036450Y0015900D02*
Y0005400D01*
X0036360Y0015900D02*
Y0005400D01*
X0036270Y0015900D02*
Y0005400D01*
X0036180Y0015900D02*
Y0005400D01*
X0036090Y0015900D02*
Y0005400D01*
X0036000Y0015900D02*
Y0005400D01*
X0035910Y0015900D02*
Y0005400D01*
X0027810Y0015900D02*
Y0008700D01*
X0035820Y0015900D02*
Y0008700D01*
X0032940Y0015900D02*
Y0008700D01*
X0032850Y0015900D02*
Y0008700D01*
X0032760Y0015900D02*
Y0008700D01*
X0032670Y0015900D02*
Y0008700D01*
X0032580Y0015900D02*
Y0008700D01*
X0032490Y0015900D02*
Y0008700D01*
X0033660Y0015900D02*
Y0008700D01*
X0049800D02*
X0035850D01*
X0032220Y0015900D02*
Y0008700D01*
X0032130Y0015900D02*
Y0008700D01*
X0032040Y0015900D02*
Y0008700D01*
X0031950Y0015900D02*
Y0008700D01*
X0031860Y0015900D02*
Y0008700D01*
X0031770Y0015900D02*
Y0008700D01*
X0031680Y0015900D02*
Y0008700D01*
X0031590Y0015900D02*
Y0008700D01*
X0031500Y0015900D02*
Y0008700D01*
X0031410Y0015900D02*
Y0008700D01*
X0031320Y0015900D02*
Y0008700D01*
X0031230Y0015900D02*
Y0008700D01*
X0031140Y0015900D02*
Y0008700D01*
X0031050Y0015900D02*
Y0008700D01*
X0030960Y0015900D02*
Y0008700D01*
X0030870Y0015900D02*
Y0008700D01*
X0030780Y0015900D02*
Y0008700D01*
X0030690Y0015900D02*
Y0008700D01*
X0030600Y0015900D02*
Y0008700D01*
X0030510Y0015900D02*
Y0008700D01*
X0030420Y0015900D02*
Y0008700D01*
X0030330Y0015900D02*
Y0008700D01*
X0030240Y0015900D02*
Y0008700D01*
X0030150Y0015900D02*
Y0008700D01*
X0030060Y0015900D02*
Y0008700D01*
X0029970Y0015900D02*
Y0008700D01*
X0029880Y0015900D02*
Y0008700D01*
X0029790Y0015900D02*
Y0008700D01*
X0029700Y0015900D02*
Y0008700D01*
X0029610Y0015900D02*
Y0008700D01*
X0029520Y0015900D02*
Y0008700D01*
X0032400Y0015900D02*
Y0008700D01*
X0029160Y0015900D02*
Y0008700D01*
X0029070Y0015900D02*
Y0008700D01*
X0045810Y0006360D02*
X0035850D01*
X0028800Y0015900D02*
Y0008700D01*
X0028710Y0015900D02*
Y0008700D01*
X0028620Y0015900D02*
Y0008700D01*
X0028530Y0015900D02*
Y0008700D01*
X0028440Y0015900D02*
Y0008700D01*
X0028350Y0015900D02*
Y0008700D01*
X0028260Y0015900D02*
Y0008700D01*
X0028170Y0015900D02*
Y0008700D01*
X0028080Y0015900D02*
Y0008700D01*
X0027990Y0015900D02*
Y0008700D01*
X0051240Y0010140D02*
X0025660D01*
X0027720Y0015900D02*
Y0008700D01*
X0027630Y0015900D02*
Y0008700D01*
X0027450Y0015900D02*
Y0008700D01*
X0027360Y0015900D02*
Y0008700D01*
X0027270Y0015900D02*
Y0008700D01*
X0027180Y0015900D02*
Y0008700D01*
X0027090Y0015900D02*
Y0008710D01*
X0027000Y0015900D02*
Y0008800D01*
X0026910Y0015900D02*
Y0008890D01*
X0026820Y0015900D02*
Y0008980D01*
X0026730Y0015900D02*
Y0009070D01*
X0026640Y0015900D02*
Y0009160D01*
X0026550Y0015900D02*
Y0009250D01*
X0026460Y0015900D02*
Y0009340D01*
X0026370Y0015900D02*
Y0009430D01*
X0026280Y0015900D02*
Y0009520D01*
X0026100Y0015900D02*
Y0009700D01*
X0026010Y0015900D02*
Y0009790D01*
X0025920Y0015900D02*
Y0009880D01*
X0025830Y0015900D02*
Y0009970D01*
X0025740Y0015900D02*
Y0010060D01*
X0025650Y0015900D02*
Y0010150D01*
X0025560Y0015900D02*
Y0010200D01*
X0025470Y0015900D02*
Y0010200D01*
X0025380Y0015900D02*
Y0010200D01*
X0025290Y0015900D02*
Y0010200D01*
X0025200Y0015900D02*
Y0010200D01*
X0025110Y0015900D02*
Y0010200D01*
X0025020Y0015900D02*
Y0010200D01*
X0024930Y0015900D02*
Y0010200D01*
X0024840Y0015900D02*
Y0010200D01*
X0024750Y0015900D02*
Y0010200D01*
X0024660Y0015900D02*
Y0010200D01*
X0024570Y0015900D02*
Y0010200D01*
X0024480Y0015900D02*
Y0010200D01*
X0024390Y0015900D02*
Y0010200D01*
X0024300Y0015900D02*
Y0010200D01*
X0024210Y0015900D02*
Y0010200D01*
X0024120Y0015900D02*
Y0010200D01*
X0024030Y0015900D02*
Y0010200D01*
X0023940Y0015900D02*
Y0010200D01*
X0023850Y0015900D02*
Y0010200D01*
X0023760Y0015900D02*
Y0010200D01*
X0023670Y0015900D02*
Y0010200D01*
X0023580Y0015900D02*
Y0010200D01*
X0023490Y0015900D02*
Y0010200D01*
X0023400Y0015900D02*
Y0010200D01*
X0023310Y0015900D02*
Y0010200D01*
X0023220Y0015900D02*
Y0010200D01*
X0023130Y0015900D02*
Y0010200D01*
X0023040Y0015900D02*
Y0010200D01*
X0022950Y0015900D02*
Y0010200D01*
X0022860Y0015900D02*
Y0010200D01*
X0022770Y0015900D02*
Y0010200D01*
X0022680Y0015900D02*
Y0010200D01*
X0022590Y0015900D02*
Y0010200D01*
X0022500Y0015900D02*
Y0010200D01*
X0012710Y0006360D02*
X0005500D01*
X0019350Y0015900D02*
Y0010200D01*
X0016740Y0015900D02*
Y0010200D01*
X0011180Y0004830D02*
X0005500D01*
X0020430Y0015900D02*
Y0010200D01*
X0021420Y0015900D02*
Y0010200D01*
X0021330Y0015900D02*
Y0010200D01*
X0021060Y0015900D02*
Y0010200D01*
X0020970Y0015900D02*
Y0010200D01*
X0020880Y0015900D02*
Y0010200D01*
X0020790Y0015900D02*
Y0010200D01*
X0020700Y0015900D02*
Y0010200D01*
X0020610Y0015900D02*
Y0010200D01*
X0021240Y0015900D02*
Y0010200D01*
X0021150Y0015900D02*
Y0010200D01*
X0020340Y0015900D02*
Y0010200D01*
X0020250Y0015900D02*
Y0010200D01*
X0019260Y0015900D02*
Y0010200D01*
X0019170Y0015900D02*
Y0010200D01*
X0019080Y0015900D02*
Y0010200D01*
X0018990Y0015900D02*
Y0010200D01*
X0018900Y0015900D02*
Y0010200D01*
X0018810Y0015900D02*
Y0010200D01*
X0018720Y0015900D02*
Y0010200D01*
X0018630Y0015900D02*
Y0010200D01*
X0018540Y0015900D02*
Y0010200D01*
X0018450Y0015900D02*
Y0010200D01*
X0018360Y0015900D02*
Y0010200D01*
X0018270Y0015900D02*
Y0010200D01*
X0018180Y0015900D02*
Y0010200D01*
X0018000Y0015900D02*
Y0010200D01*
X0017910Y0015900D02*
Y0010200D01*
X0017820Y0015900D02*
Y0010200D01*
X0017730Y0015900D02*
Y0010200D01*
X0017640Y0015900D02*
Y0010200D01*
X0017550Y0015900D02*
Y0010200D01*
X0017460Y0015900D02*
Y0010200D01*
X0017370Y0015900D02*
Y0010200D01*
X0017280Y0015900D02*
Y0010200D01*
X0017190Y0015900D02*
Y0010200D01*
X0017100Y0015900D02*
Y0010200D01*
X0017010Y0015900D02*
Y0010200D01*
X0016920Y0015900D02*
Y0010200D01*
X0016830Y0015900D02*
Y0010200D01*
X0016650Y0015900D02*
Y0010200D01*
X0016560Y0015900D02*
Y0010200D01*
X0016470Y0015900D02*
Y0010120D01*
X0016380Y0015900D02*
Y0010030D01*
X0016290Y0015900D02*
Y0009940D01*
X0016200Y0015900D02*
Y0009850D01*
X0016110Y0015900D02*
Y0009760D01*
X0016020Y0015900D02*
Y0009670D01*
X0015930Y0015900D02*
Y0009580D01*
X0015840Y0015900D02*
Y0009490D01*
X0015750Y0015900D02*
Y0009400D01*
X0015660Y0015900D02*
Y0009310D01*
X0015570Y0015900D02*
Y0009220D01*
X0015480Y0015900D02*
Y0009130D01*
X0015210Y0015900D02*
Y0008860D01*
X0015120Y0015900D02*
Y0008770D01*
X0015030Y0015900D02*
Y0008680D01*
X0014940Y0015900D02*
Y0008590D01*
X0014850Y0015900D02*
Y0008500D01*
X0014760Y0015900D02*
Y0008410D01*
X0014670Y0015900D02*
Y0008320D01*
X0014580Y0015900D02*
Y0008230D01*
X0014490Y0015900D02*
Y0008140D01*
X0014400Y0015900D02*
Y0008050D01*
X0014310Y0015900D02*
Y0007960D01*
X0014220Y0015900D02*
Y0007870D01*
X0014130Y0015900D02*
Y0007780D01*
X0014040Y0015900D02*
Y0007690D01*
X0013950Y0015900D02*
Y0007600D01*
X0013860Y0015900D02*
Y0007510D01*
X0013770Y0015900D02*
Y0007420D01*
X0013680Y0015900D02*
Y0007330D01*
X0013590Y0015900D02*
Y0007240D01*
X0013500Y0015900D02*
Y0007150D01*
X0013410Y0015900D02*
Y0007060D01*
X0013320Y0015900D02*
Y0006970D01*
X0013230Y0015900D02*
Y0006880D01*
X0013140Y0015900D02*
Y0006790D01*
X0013050Y0015900D02*
Y0006700D01*
X0012960Y0015900D02*
Y0006610D01*
X0012870Y0015900D02*
Y0006520D01*
X0012780Y0015900D02*
Y0006430D01*
X0012690Y0015900D02*
Y0006340D01*
X0012600Y0015900D02*
Y0006250D01*
X0012510Y0015900D02*
Y0006160D01*
X0012420Y0015900D02*
Y0006070D01*
X0012330Y0015900D02*
Y0005980D01*
X0012240Y0015900D02*
Y0005890D01*
X0012150Y0015900D02*
Y0005800D01*
X0012060Y0015900D02*
Y0005710D01*
X0011970Y0015900D02*
Y0005620D01*
X0011880Y0015900D02*
Y0005530D01*
X0011790Y0015900D02*
Y0005440D01*
X0011700Y0015900D02*
Y0005350D01*
X0011610Y0015900D02*
Y0005260D01*
X0011520Y0015900D02*
Y0005170D01*
X0011430Y0015900D02*
Y0005080D01*
X0011340Y0015900D02*
Y0004990D01*
X0011250Y0015900D02*
Y0004900D01*
X0011160Y0015900D02*
Y0004810D01*
X0011070Y0015900D02*
Y0004720D01*
X0009214Y0008970D02*
X0002700D01*
X0010980Y0015900D02*
Y0004650D01*
X0010890Y0008844D02*
Y0004650D01*
X0010800Y0008844D02*
Y0004650D01*
X0010710Y0008844D02*
Y0004650D01*
X0010620Y0008844D02*
Y0004650D01*
X0010530Y0008844D02*
Y0004650D01*
X0010440Y0008844D02*
Y0004650D01*
X0010350Y0008844D02*
Y0004650D01*
X0010260Y0008844D02*
Y0004650D01*
X0010170Y0008844D02*
Y0004650D01*
X0010080Y0008844D02*
Y0004650D01*
X0009990Y0008844D02*
Y0004650D01*
X0009900Y0008844D02*
Y0004650D01*
X0009810Y0008844D02*
Y0004650D01*
X0009720Y0008844D02*
Y0004650D01*
X0009630Y0008844D02*
Y0004650D01*
X0009540Y0008844D02*
Y0004650D01*
X0009450Y0008844D02*
Y0004650D01*
X0009270Y0008844D02*
Y0004650D01*
X0009180Y0015900D02*
Y0004650D01*
X0009090Y0015900D02*
Y0004650D01*
X0008910Y0015900D02*
Y0004650D01*
X0008820Y0015900D02*
Y0004650D01*
X0008730Y0015900D02*
Y0004650D01*
X0008640Y0015900D02*
Y0004650D01*
X0008550Y0015900D02*
Y0004650D01*
X0008460Y0015900D02*
Y0004650D01*
X0008370Y0015900D02*
Y0004650D01*
X0008280Y0015900D02*
Y0004650D01*
X0008190Y0015900D02*
Y0004650D01*
X0008100Y0015900D02*
Y0004650D01*
X0052800Y0014550D02*
X0007937D01*
X0052800Y0011760D02*
X0007956D01*
X0008010Y0015900D02*
Y0004650D01*
X0007920Y0011410D02*
Y0004650D01*
X0007830Y0011180D02*
Y0004650D01*
X0007740Y0011036D02*
Y0004650D01*
X0007650Y0010929D02*
Y0004650D01*
X0007560Y0010844D02*
Y0004650D01*
X0007470Y0010776D02*
Y0004650D01*
X0007380Y0010721D02*
Y0004650D01*
X0007290Y0010677D02*
Y0004650D01*
X0007200Y0010642D02*
Y0004650D01*
X0007110Y0010616D02*
Y0004650D01*
X0007020Y0010598D02*
Y0004650D01*
X0006930Y0010587D02*
Y0004650D01*
X0006840Y0010584D02*
Y0004650D01*
X0006750Y0010587D02*
Y0004650D01*
X0006660Y0010599D02*
Y0004650D01*
X0006570Y0010618D02*
Y0004650D01*
X0006480Y0010645D02*
Y0004650D01*
X0006390Y0010680D02*
Y0004650D01*
X0006300Y0010725D02*
Y0004650D01*
X0006210Y0010781D02*
Y0004650D01*
X0006120Y0010851D02*
Y0004650D01*
X0006030Y0010937D02*
Y0004650D01*
X0005760Y0011439D02*
Y0004650D01*
X0005670Y0015900D02*
Y0004650D01*
X0005580Y0015900D02*
Y0004650D01*
X0005490Y0015900D02*
Y0008500D01*
X0002790Y0015900D02*
Y0008710D01*
X0014780Y0008430D02*
X0005500D01*
X0005220Y0015900D02*
Y0008500D01*
X0005130Y0015900D02*
Y0008500D01*
X0005040Y0015900D02*
Y0008500D01*
X0004950Y0015900D02*
Y0008500D01*
X0004860Y0015900D02*
Y0008500D01*
X0004770Y0015900D02*
Y0008500D01*
X0004680Y0015900D02*
Y0008500D01*
X0013790Y0007440D02*
X0005500D01*
X0013880Y0007530D02*
X0005500D01*
X0004410Y0015900D02*
Y0008500D01*
X0004320Y0015900D02*
Y0008500D01*
X0004230Y0015900D02*
Y0008500D01*
X0004140Y0015900D02*
Y0008500D01*
X0004050Y0015900D02*
Y0008500D01*
X0003960Y0015900D02*
Y0008500D01*
X0003870Y0015900D02*
Y0008500D01*
X0003780Y0015900D02*
Y0008500D01*
X0003690Y0015900D02*
Y0008500D01*
X0003600Y0015900D02*
Y0008500D01*
X0003510Y0015900D02*
Y0008500D01*
X0003420Y0015900D02*
Y0008500D01*
X0003330Y0015900D02*
Y0008500D01*
X0003240Y0015900D02*
Y0008500D01*
X0012620Y0006270D02*
X0005500D01*
X0003060Y0015900D02*
Y0008500D01*
X0015140Y0008790D02*
X0002710D01*
X0052800Y0013290D02*
X0007223D01*
X0006750Y0015900D02*
Y0015447D01*
X0052390Y0015810D02*
X0002700D01*
X0052480Y0015720D02*
X0002700D01*
X0052570Y0015630D02*
X0002700D01*
X0006390Y0010680D02*
X0002700D01*
X0052750Y0015450D02*
X0006898D01*
X0052800Y0015360D02*
X0007285D01*
X0052800Y0015270D02*
X0007453D01*
X0052800Y0015180D02*
X0007572D01*
X0052800Y0015090D02*
X0007665D01*
X0052800Y0015000D02*
X0007739D01*
X0052800Y0014910D02*
X0007799D01*
X0052800Y0014820D02*
X0007848D01*
X0052800Y0014730D02*
X0007886D01*
X0052800Y0014640D02*
X0007916D01*
X0005940Y0011046D02*
Y0004650D01*
X0052800Y0014460D02*
X0007951D01*
X0052800Y0014370D02*
X0007957D01*
X0052800Y0014280D02*
X0007956D01*
X0052800Y0014190D02*
X0007948D01*
X0052800Y0014100D02*
X0007932D01*
X0052800Y0014010D02*
X0007908D01*
X0052800Y0013920D02*
X0007876D01*
X0052800Y0013830D02*
X0007835D01*
X0052800Y0013740D02*
X0007784D01*
X0052800Y0013650D02*
X0007720D01*
X0052800Y0013560D02*
X0007641D01*
X0052800Y0013470D02*
X0007543D01*
X0052800Y0013380D02*
X0007413D01*
X0006464Y0013290D02*
X0002700D01*
X0052800Y0013200D02*
X0002700D01*
X0005731Y0011760D02*
X0002700D01*
X0052800Y0013020D02*
X0002700D01*
X0052800Y0012930D02*
X0002700D01*
X0009360Y0008844D02*
Y0004650D01*
X0052800Y0012750D02*
X0007209D01*
X0052800Y0012660D02*
X0007405D01*
X0052800Y0012570D02*
X0007536D01*
X0052800Y0012480D02*
X0007637D01*
X0052800Y0012390D02*
X0007716D01*
X0052800Y0012300D02*
X0007781D01*
X0052800Y0012210D02*
X0007833D01*
X0052800Y0012120D02*
X0007874D01*
X0052800Y0012030D02*
X0007907D01*
X0052800Y0011940D02*
X0007931D01*
X0052800Y0011850D02*
X0007947D01*
X0005850Y0011194D02*
Y0004650D01*
X0052770Y0011670D02*
X0007957D01*
X0052680Y0011580D02*
X0007951D01*
X0052590Y0011490D02*
X0007938D01*
X0052500Y0011400D02*
X0007917D01*
X0052410Y0011310D02*
X0007888D01*
X0052320Y0011220D02*
X0007850D01*
X0052230Y0011130D02*
X0007802D01*
X0052140Y0011040D02*
X0007743D01*
X0052050Y0010950D02*
X0007669D01*
X0051960Y0010860D02*
X0007578D01*
X0051870Y0010770D02*
X0007460D01*
X0051780Y0010680D02*
X0007297D01*
X0009214Y0010590D02*
X0006962D01*
X0006725D02*
X0002700D01*
X0009214Y0010500D02*
X0002700D01*
X0009214Y0010410D02*
X0002700D01*
X0015230Y0008880D02*
X0010974D01*
X0009214Y0010230D02*
X0002700D01*
X0009214Y0010140D02*
X0002700D01*
X0009214Y0010050D02*
X0002700D01*
X0009214Y0009960D02*
X0002700D01*
X0009214Y0009870D02*
X0002700D01*
X0009214Y0009780D02*
X0002700D01*
X0009214Y0009690D02*
X0002700D01*
X0009214Y0009600D02*
X0002700D01*
X0009214Y0009510D02*
X0002700D01*
X0009214Y0009420D02*
X0002700D01*
X0009214Y0009330D02*
X0002700D01*
X0009214Y0009240D02*
X0002700D01*
X0009214Y0009150D02*
X0002700D01*
X0009214Y0009060D02*
X0002700D01*
X0050340Y0009240D02*
X0026560D01*
X0027900Y0015900D02*
Y0008700D01*
X0014960Y0008610D02*
X0002890D01*
X0014870Y0008520D02*
X0002980D01*
X0012440Y0006090D02*
X0005500D01*
X0009214Y0008880D02*
X0002700D01*
X0014690Y0008340D02*
X0005500D01*
X0014600Y0008250D02*
X0005500D01*
X0014510Y0008160D02*
X0005500D01*
X0014420Y0008070D02*
X0005500D01*
X0014330Y0007980D02*
X0005500D01*
X0014240Y0007890D02*
X0005500D01*
X0020520Y0015900D02*
Y0010200D01*
X0029430Y0015900D02*
Y0008700D01*
X0014060Y0007710D02*
X0005500D01*
X0013700Y0007350D02*
X0005500D01*
X0013610Y0007260D02*
X0005500D01*
X0013520Y0007170D02*
X0005500D01*
X0013430Y0007080D02*
X0005500D01*
X0013340Y0006990D02*
X0005500D01*
X0013250Y0006900D02*
X0005500D01*
X0013160Y0006810D02*
X0005500D01*
X0013070Y0006720D02*
X0005500D01*
X0015390Y0015900D02*
Y0009040D01*
X0015300Y0015900D02*
Y0008950D01*
X0002970Y0015900D02*
Y0008530D01*
X0012530Y0006180D02*
X0005500D01*
X0005400Y0015900D02*
Y0008500D01*
X0012350Y0006000D02*
X0005500D01*
X0012260Y0005910D02*
X0005500D01*
X0012170Y0005820D02*
X0005500D01*
X0012080Y0005730D02*
X0005500D01*
X0011990Y0005640D02*
X0005500D01*
X0011900Y0005550D02*
X0005500D01*
X0011810Y0005460D02*
X0005500D01*
X0011720Y0005370D02*
X0005500D01*
X0011630Y0005280D02*
X0005500D01*
X0011540Y0005190D02*
X0005500D01*
X0011450Y0005100D02*
X0005500D01*
X0011360Y0005010D02*
X0005500D01*
X0033840Y0015900D02*
Y0008700D01*
X0034110Y0015900D02*
Y0008700D01*
X0049620Y0008520D02*
X0035850D01*
X0049530Y0008430D02*
X0035850D01*
X0049440Y0008340D02*
X0035850D01*
X0049350Y0008250D02*
X0035850D01*
X0049260Y0008160D02*
X0035850D01*
X0047520Y0008070D02*
X0035850D01*
X0047430Y0007980D02*
X0035850D01*
X0047340Y0007890D02*
X0035850D01*
X0047250Y0007800D02*
X0035850D01*
X0047160Y0007710D02*
X0035850D01*
X0040320Y0015900D02*
Y0005400D01*
X0045720Y0006270D02*
X0035850D01*
X0045630Y0006180D02*
X0035850D01*
X0009214Y0010320D02*
X0002700D01*
X0035730Y0015900D02*
Y0008700D01*
X0035640Y0015900D02*
Y0008700D01*
X0035550Y0015900D02*
Y0008700D01*
X0035460Y0015900D02*
Y0008700D01*
X0035370Y0015900D02*
Y0008700D01*
X0035280Y0015900D02*
Y0008700D01*
X0035190Y0015900D02*
Y0008700D01*
X0035100Y0015900D02*
Y0008700D01*
X0035010Y0015900D02*
Y0008700D01*
X0034920Y0015900D02*
Y0008700D01*
X0034830Y0015900D02*
Y0008700D01*
X0034740Y0015900D02*
Y0008700D01*
X0034650Y0015900D02*
Y0008700D01*
X0034560Y0015900D02*
Y0008700D01*
X0034470Y0015900D02*
Y0008700D01*
X0034380Y0015900D02*
Y0008700D01*
X0034290Y0015900D02*
Y0008700D01*
X0045900Y0006450D02*
X0035850D01*
X0029250Y0015900D02*
Y0008700D01*
X0034020Y0015900D02*
Y0008700D01*
X0045450Y0006000D02*
X0035850D01*
X0045360Y0005910D02*
X0035850D01*
X0045270Y0005820D02*
X0035850D01*
X0045180Y0005730D02*
X0035850D01*
X0045090Y0005640D02*
X0035850D01*
X0045000Y0005550D02*
X0035850D01*
X0028890Y0015900D02*
Y0008700D01*
X0050940Y0015900D02*
Y0009840D01*
X0051390Y0015900D02*
Y0010290D01*
X0045540Y0006090D02*
X0035850D01*
X0046890Y0007440D02*
X0035850D01*
X0046800Y0007350D02*
X0035850D01*
X0046710Y0007260D02*
X0035850D01*
X0046620Y0007170D02*
X0035850D01*
X0046530Y0007080D02*
X0035850D01*
X0046440Y0006990D02*
X0035850D01*
X0046350Y0006900D02*
X0035850D01*
X0046260Y0006810D02*
X0035850D01*
X0046170Y0006720D02*
X0035850D01*
X0046080Y0006630D02*
X0035850D01*
X0045990Y0006540D02*
X0035850D01*
X0033030Y0015900D02*
Y0008700D01*
X0033120Y0015900D02*
Y0008700D01*
X0033210Y0015900D02*
Y0008700D01*
X0050130Y0015900D02*
Y0009030D01*
X0033300Y0015900D02*
Y0008700D01*
X0033390Y0015900D02*
Y0008700D01*
X0033480Y0015900D02*
Y0008700D01*
X0033570Y0015900D02*
Y0008700D01*
X0033750Y0015900D02*
Y0008700D01*
X0050220Y0015900D02*
Y0009120D01*
X0014150Y0007800D02*
X0005500D01*
X0021600Y0015900D02*
Y0010200D01*
X0021870Y0015900D02*
Y0010200D01*
X0013970Y0007620D02*
X0005500D01*
X0049710Y0008610D02*
X0035850D01*
X0015050Y0008700D02*
X0002800D01*
X0049890Y0008790D02*
X0027010D01*
X0050430Y0009330D02*
X0026470D01*
X0050520Y0009420D02*
X0026380D01*
X0050610Y0009510D02*
X0026290D01*
X0050700Y0009600D02*
X0026200D01*
X0050790Y0009690D02*
X0026110D01*
X0050880Y0009780D02*
X0026020D01*
X0050970Y0009870D02*
X0025930D01*
X0027540Y0015900D02*
Y0008700D01*
X0022230Y0015900D02*
Y0010200D01*
X0022140Y0015900D02*
Y0010200D01*
X0022050Y0015900D02*
Y0010200D01*
X0021960Y0015900D02*
Y0010200D01*
X0021780Y0015900D02*
Y0010200D01*
X0021690Y0015900D02*
Y0010200D01*
X0026190Y0015900D02*
Y0009610D01*
X0022410Y0015900D02*
Y0010200D01*
X0051150Y0010050D02*
X0025750D01*
X0020160Y0015900D02*
Y0010200D01*
X0020070Y0015900D02*
Y0010200D01*
X0019980Y0015900D02*
Y0010200D01*
X0019890Y0015900D02*
Y0010200D01*
X0019800Y0015900D02*
Y0010200D01*
X0019710Y0015900D02*
Y0010200D01*
X0019620Y0015900D02*
Y0010200D01*
X0019530Y0015900D02*
Y0010200D01*
X0019440Y0015900D02*
Y0010200D01*
X0012980Y0006630D02*
X0005500D01*
X0012890Y0006540D02*
X0005500D01*
X0012800Y0006450D02*
X0005500D01*
X0004590Y0015900D02*
Y0008500D01*
X0004500Y0015900D02*
Y0008500D01*
X0052800Y0012840D02*
X0002700D01*
X0051690Y0010590D02*
X0010974D01*
X0051600Y0010500D02*
X0010974D01*
X0051510Y0010410D02*
X0010974D01*
X0051330Y0010230D02*
X0010974D01*
X0016490Y0010140D02*
X0010974D01*
X0016400Y0010050D02*
X0010974D01*
X0016310Y0009960D02*
X0010974D01*
X0016220Y0009870D02*
X0010974D01*
X0016130Y0009780D02*
X0010974D01*
X0016040Y0009690D02*
X0010974D01*
X0015950Y0009600D02*
X0010974D01*
X0015860Y0009510D02*
X0010974D01*
X0015770Y0009420D02*
X0010974D01*
X0015680Y0009330D02*
X0010974D01*
X0015590Y0009240D02*
X0010974D01*
X0015500Y0009150D02*
X0010974D01*
X0015410Y0009060D02*
X0010974D01*
X0015320Y0008970D02*
X0010974D01*
X0051420Y0010320D02*
X0010974D01*
X0010890Y0015900D02*
Y0010604D01*
X0010800Y0015900D02*
Y0010604D01*
X0010710Y0015900D02*
Y0010604D01*
X0010620Y0015900D02*
Y0010604D01*
X0010530Y0015900D02*
Y0010604D01*
X0010440Y0015900D02*
Y0010604D01*
X0010350Y0015900D02*
Y0010604D01*
X0010260Y0015900D02*
Y0010604D01*
X0010170Y0015900D02*
Y0010604D01*
X0010080Y0015900D02*
Y0010604D01*
X0009990Y0015900D02*
Y0010604D01*
X0009900Y0015900D02*
Y0010604D01*
X0009810Y0015900D02*
Y0010604D01*
X0009720Y0015900D02*
Y0010604D01*
X0009630Y0015900D02*
Y0010604D01*
X0009540Y0015900D02*
Y0010604D01*
X0009450Y0015900D02*
Y0010604D01*
X0009360Y0015900D02*
Y0010604D01*
X0052800Y0013110D02*
X0002700D01*
X0006478Y0012750D02*
X0002700D01*
X0006282Y0012660D02*
X0002700D01*
X0006151Y0012570D02*
X0002700D01*
X0006050Y0012480D02*
X0002700D01*
X0005971Y0012390D02*
X0002700D01*
X0005906Y0012300D02*
X0002700D01*
X0005854Y0012210D02*
X0002700D01*
X0005813Y0012120D02*
X0002700D01*
X0005780Y0012030D02*
X0002700D01*
X0005756Y0011940D02*
X0002700D01*
X0005740Y0011850D02*
X0002700D01*
X0007920Y0014050D02*
Y0011985D01*
X0007830Y0013819D02*
Y0012215D01*
X0007740Y0013676D02*
Y0012359D01*
X0007650Y0013569D02*
Y0012466D01*
X0007560Y0013484D02*
Y0012551D01*
X0007470Y0013416D02*
Y0012619D01*
X0007380Y0013361D02*
Y0012674D01*
X0007290Y0013316D02*
Y0012718D01*
X0007200Y0013282D02*
Y0012753D01*
X0007110Y0013255D02*
Y0012779D01*
X0007020Y0013237D02*
Y0012797D01*
X0006930Y0013227D02*
Y0012808D01*
X0006840Y0013223D02*
Y0012811D01*
X0006750Y0013227D02*
Y0012808D01*
X0006660Y0013238D02*
Y0012796D01*
X0006570Y0013257D02*
Y0012777D01*
X0006480Y0013284D02*
Y0012750D01*
X0006390Y0013320D02*
Y0012715D01*
X0006300Y0013365D02*
Y0012670D01*
X0006210Y0013421D02*
Y0012614D01*
X0006120Y0013490D02*
Y0012544D01*
X0006030Y0013576D02*
Y0012458D01*
X0005940Y0013686D02*
Y0012349D01*
X0005850Y0013834D02*
Y0012201D01*
X0005760Y0014079D02*
Y0011956D01*
X0009270Y0015900D02*
Y0010604D01*
X0005730Y0011670D02*
X0002700D01*
X0005736Y0011580D02*
X0002700D01*
X0005749Y0011490D02*
X0002700D01*
X0005770Y0011400D02*
X0002700D01*
X0005799Y0011310D02*
X0002700D01*
X0005837Y0011220D02*
X0002700D01*
X0005885Y0011130D02*
X0002700D01*
X0005944Y0011040D02*
X0002700D01*
X0006018Y0010950D02*
X0002700D01*
X0006109Y0010860D02*
X0002700D01*
X0006227Y0010770D02*
X0002700D01*
X0011090Y0004740D02*
X0005500D01*
X0006789Y0015450D02*
X0002700D01*
X0006402Y0015360D02*
X0002700D01*
X0006234Y0015270D02*
X0002700D01*
X0006115Y0015180D02*
X0002700D01*
X0006022Y0015090D02*
X0002700D01*
X0005948Y0015000D02*
X0002700D01*
X0005888Y0014910D02*
X0002700D01*
X0005839Y0014820D02*
X0002700D01*
X0005801Y0014730D02*
X0002700D01*
X0005771Y0014640D02*
X0002700D01*
X0005750Y0014550D02*
X0002700D01*
X0007920Y0015900D02*
Y0014624D01*
X0007830Y0015900D02*
Y0014855D01*
X0007740Y0015900D02*
Y0014999D01*
X0007650Y0015900D02*
Y0015106D01*
X0007560Y0015900D02*
Y0015190D01*
X0007470Y0015900D02*
Y0015258D01*
X0007380Y0015900D02*
Y0015314D01*
X0007290Y0015900D02*
Y0015358D01*
X0007200Y0015900D02*
Y0015393D01*
X0007110Y0015900D02*
Y0015419D01*
X0007020Y0015900D02*
Y0015437D01*
X0006930Y0015900D02*
Y0015448D01*
X0006840Y0015900D02*
Y0015451D01*
X0052660Y0015540D02*
X0002700D01*
X0006660Y0015900D02*
Y0015436D01*
X0006570Y0015900D02*
Y0015417D01*
X0006480Y0015900D02*
Y0015390D01*
X0006390Y0015900D02*
Y0015355D01*
X0006300Y0015900D02*
Y0015309D01*
X0006210Y0015900D02*
Y0015253D01*
X0006120Y0015900D02*
Y0015184D01*
X0006030Y0015900D02*
Y0015098D01*
X0005940Y0015900D02*
Y0014989D01*
X0005850Y0015900D02*
Y0014841D01*
X0005760Y0015900D02*
Y0014595D01*
X0005736Y0014460D02*
X0002700D01*
X0005730Y0014370D02*
X0002700D01*
X0005731Y0014280D02*
X0002700D01*
X0005739Y0014190D02*
X0002700D01*
X0005755Y0014100D02*
X0002700D01*
X0005779Y0014010D02*
X0002700D01*
X0005811Y0013920D02*
X0002700D01*
X0005852Y0013830D02*
X0002700D01*
X0005903Y0013740D02*
X0002700D01*
X0005967Y0013650D02*
X0002700D01*
X0006046Y0013560D02*
X0002700D01*
X0006144Y0013470D02*
X0002700D01*
X0006274Y0013380D02*
X0002700D01*
X0046980Y0007530D02*
X0035850D01*
X0011270Y0004920D02*
X0005500D01*
X0021510Y0015900D02*
Y0010200D01*
X0018090Y0015900D02*
Y0010200D01*
X0022320Y0015900D02*
Y0010200D01*
X0005310Y0015900D02*
Y0008500D01*
X0049980Y0008880D02*
X0026920D01*
X0009000Y0015900D02*
Y0004650D01*
X0050070Y0008970D02*
X0026830D01*
X0050160Y0009060D02*
X0026740D01*
X0050250Y0009150D02*
X0026650D01*
X0028980Y0015900D02*
Y0008700D01*
X0035010Y0008400D02*
Y0005400D01*
X0028200Y-0001470D02*
X0024300D01*
X0034560Y0008400D02*
Y0005400D01*
X0028360Y0000510D02*
X0024300D01*
X0028200Y-0000300D02*
X0024300D01*
X0029710Y0001860D02*
X0024300D01*
X0034920Y0008400D02*
Y0005400D01*
X0031420Y0003570D02*
X0025220D01*
X0030700Y0002850D02*
X0024500D01*
X0035100Y0008400D02*
Y0005400D01*
X0035280Y0008400D02*
Y0005400D01*
X0031330Y0003480D02*
X0025130D01*
X0028200Y-0001560D02*
X0024300D01*
X0028270Y0000420D02*
X0024300D01*
X0033840Y0008400D02*
Y0005400D01*
X0034110Y0008400D02*
Y0005400D01*
X0028200Y-0000930D02*
X0024300D01*
X0028810Y0000960D02*
X0024300D01*
X0031060Y0003210D02*
X0024860D01*
X0031240Y0003390D02*
X0025040D01*
X0030880Y0003030D02*
X0024680D01*
X0033570Y0008400D02*
Y0005400D01*
X0034650Y0008400D02*
Y0005400D01*
X0034470Y0008400D02*
Y0005400D01*
X0030790Y0002940D02*
X0024590D01*
X0034290Y0008400D02*
Y0005400D01*
X0035190Y0008400D02*
Y0005400D01*
X0034740Y0008400D02*
Y0005400D01*
X0035550Y0008400D02*
Y0005400D01*
X0035370Y0008400D02*
Y0005400D01*
X0028200Y-0000390D02*
X0024300D01*
X0028200Y-0001290D02*
X0024300D01*
X0028720Y0000870D02*
X0024300D01*
X0028200Y-0000840D02*
X0024300D01*
X0034020Y0008400D02*
Y0005400D01*
X0033390Y0008400D02*
Y0005400D01*
X0034200Y0008400D02*
Y0005400D01*
X0029260Y0001410D02*
X0024300D01*
X0033660Y0008400D02*
Y0005400D01*
X0030000Y0008350D02*
X0024300Y0002650D01*
Y-0001650D01*
X0028200D02*
X0024300D01*
X0028200Y0000350D02*
Y-0001650D01*
X0033250Y0005400D02*
X0028200Y0000350D01*
X0035600Y0005400D02*
X0033250D01*
X0035600Y0008400D02*
Y0005400D01*
Y0008400D02*
X0030050D01*
X0030000Y0008350D01*
X0033750Y0008400D02*
Y0005400D01*
X0033300Y0008400D02*
Y0005400D01*
X0033210Y0008400D02*
Y0005360D01*
X0033120Y0008400D02*
Y0005270D01*
X0033030Y0008400D02*
Y0005180D01*
X0032940Y0008400D02*
Y0005090D01*
X0032850Y0008400D02*
Y0005000D01*
X0032760Y0008400D02*
Y0004910D01*
X0032670Y0008400D02*
Y0004820D01*
X0032580Y0008400D02*
Y0004730D01*
X0032490Y0008400D02*
Y0004640D01*
X0032400Y0008400D02*
Y0004550D01*
X0032310Y0008400D02*
Y0004460D01*
X0032220Y0008400D02*
Y0004370D01*
X0032130Y0008400D02*
Y0004280D01*
X0032040Y0008400D02*
Y0004190D01*
X0031950Y0008400D02*
Y0004100D01*
X0031860Y0008400D02*
Y0004010D01*
X0031770Y0008400D02*
Y0003920D01*
X0031680Y0008400D02*
Y0003830D01*
X0031590Y0008400D02*
Y0003740D01*
X0031500Y0008400D02*
Y0003650D01*
X0031410Y0008400D02*
Y0003560D01*
X0031320Y0008400D02*
Y0003470D01*
X0031230Y0008400D02*
Y0003380D01*
X0031140Y0008400D02*
Y0003290D01*
X0031050Y0008400D02*
Y0003200D01*
X0030960Y0008400D02*
Y0003110D01*
X0030870Y0008400D02*
Y0003020D01*
X0030780Y0008400D02*
Y0002930D01*
X0030690Y0008400D02*
Y0002840D01*
X0030600Y0008400D02*
Y0002750D01*
X0030510Y0008400D02*
Y0002660D01*
X0030420Y0008400D02*
Y0002570D01*
X0030330Y0008400D02*
Y0002480D01*
X0030240Y0008400D02*
Y0002390D01*
X0030150Y0008400D02*
Y0002300D01*
X0030060Y0008400D02*
Y0002210D01*
X0029970Y0008320D02*
Y0002120D01*
X0029880Y0008230D02*
Y0002030D01*
X0029790Y0008140D02*
Y0001940D01*
X0029700Y0008050D02*
Y0001850D01*
X0029610Y0007960D02*
Y0001760D01*
X0029520Y0007870D02*
Y0001670D01*
X0029430Y0007780D02*
Y0001580D01*
X0029340Y0007690D02*
Y0001490D01*
X0029250Y0007600D02*
Y0001400D01*
X0029160Y0007510D02*
Y0001310D01*
X0029070Y0007420D02*
Y0001220D01*
X0028980Y0007330D02*
Y0001130D01*
X0028890Y0007240D02*
Y0001040D01*
X0028800Y0007150D02*
Y0000950D01*
X0028710Y0007060D02*
Y0000860D01*
X0028620Y0006970D02*
Y0000770D01*
X0028530Y0006880D02*
Y0000680D01*
X0028440Y0006790D02*
Y0000590D01*
X0028350Y0006700D02*
Y0000500D01*
X0028260Y0006610D02*
Y0000410D01*
X0028170Y0006520D02*
Y-0001650D01*
X0028080Y0006430D02*
Y-0001650D01*
X0027990Y0006340D02*
Y-0001650D01*
X0027900Y0006250D02*
Y-0001650D01*
X0027810Y0006160D02*
Y-0001650D01*
X0027720Y0006070D02*
Y-0001650D01*
X0027630Y0005980D02*
Y-0001650D01*
X0027540Y0005890D02*
Y-0001650D01*
X0027450Y0005800D02*
Y-0001650D01*
X0027360Y0005710D02*
Y-0001650D01*
X0027270Y0005620D02*
Y-0001650D01*
X0027180Y0005530D02*
Y-0001650D01*
X0027090Y0005440D02*
Y-0001650D01*
X0027000Y0005350D02*
Y-0001650D01*
X0026910Y0005260D02*
Y-0001650D01*
X0026820Y0005170D02*
Y-0001650D01*
X0026730Y0005080D02*
Y-0001650D01*
X0026640Y0004990D02*
Y-0001650D01*
X0026550Y0004900D02*
Y-0001650D01*
X0026460Y0004810D02*
Y-0001650D01*
X0026370Y0004720D02*
Y-0001650D01*
X0026280Y0004630D02*
Y-0001650D01*
X0026190Y0004540D02*
Y-0001650D01*
X0026100Y0004450D02*
Y-0001650D01*
X0026010Y0004360D02*
Y-0001650D01*
X0025920Y0004270D02*
Y-0001650D01*
X0025830Y0004180D02*
Y-0001650D01*
X0025740Y0004090D02*
Y-0001650D01*
X0025650Y0004000D02*
Y-0001650D01*
X0025560Y0003910D02*
Y-0001650D01*
X0025470Y0003820D02*
Y-0001650D01*
X0025380Y0003730D02*
Y-0001650D01*
X0025290Y0003640D02*
Y-0001650D01*
X0025200Y0003550D02*
Y-0001650D01*
X0025110Y0003460D02*
Y-0001650D01*
X0025020Y0003370D02*
Y-0001650D01*
X0024930Y0003280D02*
Y-0001650D01*
X0024840Y0003190D02*
Y-0001650D01*
X0024750Y0003100D02*
Y-0001650D01*
X0024660Y0003010D02*
Y-0001650D01*
X0024570Y0002920D02*
Y-0001650D01*
X0024480Y0002830D02*
Y-0001650D01*
X0035600Y0008340D02*
X0029990D01*
X0035600Y0008250D02*
X0029900D01*
X0035600Y0008160D02*
X0029810D01*
X0035600Y0008070D02*
X0029720D01*
X0035600Y0007980D02*
X0029630D01*
X0035600Y0007890D02*
X0029540D01*
X0035600Y0007800D02*
X0029450D01*
X0035600Y0007710D02*
X0029360D01*
X0035600Y0007620D02*
X0029270D01*
X0035600Y0007530D02*
X0029180D01*
X0035600Y0007440D02*
X0029090D01*
X0035600Y0007350D02*
X0029000D01*
X0035600Y0007260D02*
X0028910D01*
X0035600Y0007170D02*
X0028820D01*
X0035600Y0007080D02*
X0028730D01*
X0035600Y0006990D02*
X0028640D01*
X0035600Y0006900D02*
X0028550D01*
X0035600Y0006810D02*
X0028460D01*
X0035600Y0006720D02*
X0028370D01*
X0035600Y0006630D02*
X0028280D01*
X0035600Y0006540D02*
X0028190D01*
X0035600Y0006450D02*
X0028100D01*
X0035600Y0006360D02*
X0028010D01*
X0035600Y0006270D02*
X0027920D01*
X0035600Y0006180D02*
X0027830D01*
X0035600Y0006090D02*
X0027740D01*
X0035600Y0006000D02*
X0027650D01*
X0035600Y0005910D02*
X0027560D01*
X0035600Y0005820D02*
X0027470D01*
X0035600Y0005730D02*
X0027380D01*
X0035600Y0005640D02*
X0027290D01*
X0035600Y0005550D02*
X0027200D01*
X0035600Y0005460D02*
X0027110D01*
X0033220Y0005370D02*
X0027020D01*
X0033130Y0005280D02*
X0026930D01*
X0033040Y0005190D02*
X0026840D01*
X0032950Y0005100D02*
X0026750D01*
X0032860Y0005010D02*
X0026660D01*
X0032770Y0004920D02*
X0026570D01*
X0032680Y0004830D02*
X0026480D01*
X0032590Y0004740D02*
X0026390D01*
X0032500Y0004650D02*
X0026300D01*
X0032410Y0004560D02*
X0026210D01*
X0032320Y0004470D02*
X0026120D01*
X0032230Y0004380D02*
X0026030D01*
X0032140Y0004290D02*
X0025940D01*
X0032050Y0004200D02*
X0025850D01*
X0031960Y0004110D02*
X0025760D01*
X0031870Y0004020D02*
X0025670D01*
X0031780Y0003930D02*
X0025580D01*
X0031690Y0003840D02*
X0025490D01*
X0031600Y0003750D02*
X0025400D01*
X0031510Y0003660D02*
X0025310D01*
X0034830Y0008400D02*
Y0005400D01*
X0031150Y0003300D02*
X0024950D01*
X0030970Y0003120D02*
X0024770D01*
X0030610Y0002760D02*
X0024410D01*
X0030520Y0002670D02*
X0024320D01*
X0030430Y0002580D02*
X0024300D01*
X0030340Y0002490D02*
X0024300D01*
X0030250Y0002400D02*
X0024300D01*
X0030160Y0002310D02*
X0024300D01*
X0030070Y0002220D02*
X0024300D01*
X0029980Y0002130D02*
X0024300D01*
X0029890Y0002040D02*
X0024300D01*
X0029800Y0001950D02*
X0024300D01*
X0029620Y0001770D02*
X0024300D01*
X0029530Y0001680D02*
X0024300D01*
X0029440Y0001590D02*
X0024300D01*
X0029350Y0001500D02*
X0024300D01*
X0035460Y0008400D02*
Y0005400D01*
X0029170Y0001320D02*
X0024300D01*
X0029080Y0001230D02*
X0024300D01*
X0028990Y0001140D02*
X0024300D01*
X0033480Y0008400D02*
Y0005400D01*
X0028900Y0001050D02*
X0024300D01*
X0028630Y0000780D02*
X0024300D01*
X0028540Y0000690D02*
X0024300D01*
X0028450Y0000600D02*
X0024300D01*
X0028200Y0000330D02*
X0024300D01*
X0028200Y0000240D02*
X0024300D01*
X0028200Y0000150D02*
X0024300D01*
X0028200Y0000060D02*
X0024300D01*
X0028200Y-0000030D02*
X0024300D01*
X0028200Y-0000120D02*
X0024300D01*
X0028200Y-0000210D02*
X0024300D01*
X0033930Y0008400D02*
Y0005400D01*
X0028200Y-0000480D02*
X0024300D01*
X0028200Y-0000570D02*
X0024300D01*
X0028200Y-0000660D02*
X0024300D01*
X0028200Y-0000750D02*
X0024300D01*
X0028200Y-0001020D02*
X0024300D01*
X0028200Y-0001110D02*
X0024300D01*
X0034380Y0008400D02*
Y0005400D01*
X0028200Y-0001200D02*
X0024300D01*
X0028200Y-0001380D02*
X0024300D01*
X0024390Y0002740D02*
Y-0001650D01*
X0046500Y0034590D02*
X0040750D01*
X0046500Y0034500D02*
X0040750D01*
X0046500Y0038000D02*
Y0034500D01*
Y0038000D02*
X0040750D01*
Y0034500D01*
X0046420Y0038000D02*
Y0034500D01*
X0046330Y0038000D02*
Y0034500D01*
X0046240Y0038000D02*
Y0034500D01*
X0046150Y0038000D02*
Y0034500D01*
X0046060Y0038000D02*
Y0034500D01*
X0045970Y0038000D02*
Y0034500D01*
X0045880Y0038000D02*
Y0034500D01*
X0045790Y0038000D02*
Y0034500D01*
X0045700Y0038000D02*
Y0034500D01*
X0045610Y0038000D02*
Y0034500D01*
X0045520Y0038000D02*
Y0034500D01*
X0045430Y0038000D02*
Y0034500D01*
X0045340Y0038000D02*
Y0034500D01*
X0045250Y0038000D02*
Y0034500D01*
X0045160Y0038000D02*
Y0034500D01*
X0045070Y0038000D02*
Y0034500D01*
X0044980Y0038000D02*
Y0034500D01*
X0044890Y0038000D02*
Y0034500D01*
X0044800Y0038000D02*
Y0034500D01*
X0044710Y0038000D02*
Y0034500D01*
X0044620Y0038000D02*
Y0034500D01*
X0044530Y0038000D02*
Y0034500D01*
X0044440Y0038000D02*
Y0034500D01*
X0044350Y0038000D02*
Y0034500D01*
X0044260Y0038000D02*
Y0034500D01*
X0044170Y0038000D02*
Y0034500D01*
X0044080Y0038000D02*
Y0034500D01*
X0043990Y0038000D02*
Y0034500D01*
X0043900Y0038000D02*
Y0034500D01*
X0043810Y0038000D02*
Y0034500D01*
X0043720Y0038000D02*
Y0034500D01*
X0043630Y0038000D02*
Y0034500D01*
X0043540Y0038000D02*
Y0034500D01*
X0043450Y0038000D02*
Y0034500D01*
X0043360Y0038000D02*
Y0034500D01*
X0043270Y0038000D02*
Y0034500D01*
X0043180Y0038000D02*
Y0034500D01*
X0043090Y0038000D02*
Y0034500D01*
X0043000Y0038000D02*
Y0034500D01*
X0042910Y0038000D02*
Y0034500D01*
X0042820Y0038000D02*
Y0034500D01*
X0042730Y0038000D02*
Y0034500D01*
X0042640Y0038000D02*
Y0034500D01*
X0042550Y0038000D02*
Y0034500D01*
X0042460Y0038000D02*
Y0034500D01*
X0042370Y0038000D02*
Y0034500D01*
X0042280Y0038000D02*
Y0034500D01*
X0042190Y0038000D02*
Y0034500D01*
X0042100Y0038000D02*
Y0034500D01*
X0042010Y0038000D02*
Y0034500D01*
X0041920Y0038000D02*
Y0034500D01*
X0041830Y0038000D02*
Y0034500D01*
X0041740Y0038000D02*
Y0034500D01*
X0041650Y0038000D02*
Y0034500D01*
X0041560Y0038000D02*
Y0034500D01*
X0041470Y0038000D02*
Y0034500D01*
X0041380Y0038000D02*
Y0034500D01*
X0041290Y0038000D02*
Y0034500D01*
X0041200Y0038000D02*
Y0034500D01*
X0041110Y0038000D02*
Y0034500D01*
X0041020Y0038000D02*
Y0034500D01*
X0040930Y0038000D02*
Y0034500D01*
X0046500Y0037920D02*
X0040750D01*
X0046500Y0037830D02*
X0040750D01*
X0046500Y0037740D02*
X0040750D01*
X0046500Y0037650D02*
X0040750D01*
X0046500Y0037560D02*
X0040750D01*
X0046500Y0037470D02*
X0040750D01*
X0046500Y0037380D02*
X0040750D01*
X0046500Y0037290D02*
X0040750D01*
X0046500Y0037200D02*
X0040750D01*
X0046500Y0037110D02*
X0040750D01*
X0046500Y0037020D02*
X0040750D01*
X0046500Y0036930D02*
X0040750D01*
X0046500Y0036840D02*
X0040750D01*
X0046500Y0036750D02*
X0040750D01*
X0046500Y0036660D02*
X0040750D01*
X0046500Y0036570D02*
X0040750D01*
X0046500Y0036480D02*
X0040750D01*
X0046500Y0036390D02*
X0040750D01*
X0046500Y0036300D02*
X0040750D01*
X0046500Y0036210D02*
X0040750D01*
X0046500Y0036120D02*
X0040750D01*
X0046500Y0036030D02*
X0040750D01*
X0046500Y0035940D02*
X0040750D01*
X0046500Y0035850D02*
X0040750D01*
X0046500Y0035760D02*
X0040750D01*
X0046500Y0035670D02*
X0040750D01*
X0046500Y0035580D02*
X0040750D01*
X0046500Y0035490D02*
X0040750D01*
X0046500Y0035400D02*
X0040750D01*
X0046500Y0035310D02*
X0040750D01*
X0046500Y0035220D02*
X0040750D01*
X0046500Y0035130D02*
X0040750D01*
X0046500Y0035040D02*
X0040750D01*
X0046500Y0034950D02*
X0040750D01*
X0046500Y0034860D02*
X0040750D01*
X0046500Y0034770D02*
X0040750D01*
X0046500Y0034680D02*
X0040750D01*
X0040840Y0038000D02*
Y0034500D01*
X0056750Y0052250D02*
Y0050500D01*
X0055384Y0051760D02*
X0052250D01*
X0055384Y0051670D02*
X0052250D01*
X0057815Y0052120D02*
X0052250D01*
X0057992Y0051850D02*
X0056116D01*
X0055384Y0052065D02*
Y0051333D01*
X0056116D02*
X0055384D01*
X0056116Y0052065D02*
Y0051333D01*
Y0052065D02*
X0055384D01*
X0054750Y0053650D02*
X0052250D01*
X0054750Y0054640D02*
X0052250D01*
X0055384Y0051940D02*
X0052250D01*
Y0054750D02*
Y0051250D01*
X0054739Y0054750D02*
X0052250D01*
X0059250Y0052250D02*
Y0050500D01*
X0053000D01*
X0052250Y0051250D02*
X0053000Y0050500D01*
X0058010Y0051838D02*
Y0050500D01*
X0059180Y0052250D02*
Y0050500D01*
X0059090Y0052250D02*
Y0050500D01*
X0059000Y0052250D02*
Y0050500D01*
X0058910Y0052250D02*
Y0050500D01*
X0058820Y0052250D02*
Y0050500D01*
X0057806Y0052250D02*
X0054750D01*
X0054860D02*
Y0050500D01*
X0056300Y0052250D02*
Y0050500D01*
X0057290Y0052250D02*
Y0050500D01*
X0055130Y0052250D02*
Y0050500D01*
X0054770Y0052250D02*
Y0050500D01*
X0054750Y0054730D02*
X0052250D01*
X0054750Y0054550D02*
X0052250D01*
X0054739Y0054750D02*
X0054750Y0054739D01*
X0055384Y0051580D02*
X0052250D01*
X0059250Y0052120D02*
X0058685D01*
X0056030Y0052250D02*
Y0052065D01*
X0055940Y0052250D02*
Y0052065D01*
X0055850Y0052250D02*
Y0052065D01*
X0055760Y0052250D02*
Y0052065D01*
X0055670Y0052250D02*
Y0052065D01*
X0055580Y0052250D02*
Y0052065D01*
X0055310Y0052250D02*
Y0050500D01*
X0055040Y0052250D02*
Y0050500D01*
X0054950Y0052250D02*
Y0050500D01*
X0054590Y0054750D02*
Y0050500D01*
X0054500Y0054750D02*
Y0050500D01*
X0054410Y0054750D02*
Y0050500D01*
X0054320Y0054750D02*
Y0050500D01*
X0054230Y0054750D02*
Y0050500D01*
X0054140Y0054750D02*
Y0050500D01*
X0054050Y0054750D02*
Y0050500D01*
X0053960Y0054750D02*
Y0050500D01*
X0053870Y0054750D02*
Y0050500D01*
X0053780Y0054750D02*
Y0050500D01*
X0053690Y0054750D02*
Y0050500D01*
X0053600Y0054750D02*
Y0050500D01*
X0053510Y0054750D02*
Y0050500D01*
X0053420Y0054750D02*
Y0050500D01*
X0053330Y0054750D02*
Y0050500D01*
X0053240Y0054750D02*
Y0050500D01*
X0053150Y0054750D02*
Y0050500D01*
X0053060Y0054750D02*
Y0050500D01*
X0052970Y0054750D02*
Y0050530D01*
X0052880Y0054750D02*
Y0050620D01*
X0052790Y0054750D02*
Y0050710D01*
X0052700Y0054750D02*
Y0050800D01*
X0052610Y0054750D02*
Y0050890D01*
X0052520Y0054750D02*
Y0050980D01*
X0052430Y0054750D02*
Y0051070D01*
X0055750Y0051333D02*
Y0051699D01*
X0054750Y0054739D02*
Y0052250D01*
X0056570D02*
Y0050500D01*
X0056480Y0052250D02*
Y0050500D01*
X0056390Y0052250D02*
Y0050500D01*
X0054750Y0053200D02*
X0052250D01*
X0054750Y0053020D02*
X0052250D01*
X0055490Y0052250D02*
Y0052065D01*
X0054750Y0052570D02*
X0052250D01*
X0059250Y0052210D02*
X0058695D01*
X0055400Y0052250D02*
Y0052065D01*
X0058190Y0051772D02*
Y0050500D01*
X0059250Y0051670D02*
X0056116D01*
X0059250Y0051580D02*
X0056116D01*
X0059250Y0051490D02*
X0056116D01*
X0055384Y0051400D02*
X0052250D01*
X0059250Y0051310D02*
X0052250D01*
X0059250Y0051220D02*
X0052280D01*
X0059250Y0051130D02*
X0052370D01*
X0059250Y0051040D02*
X0052460D01*
X0059250Y0050950D02*
X0052550D01*
X0059250Y0050860D02*
X0052640D01*
X0059250Y0050770D02*
X0052730D01*
X0059250Y0050680D02*
X0052820D01*
X0055384Y0051850D02*
X0052250D01*
X0054750Y0053110D02*
X0052250D01*
X0055220Y0052250D02*
Y0050500D01*
X0054750Y0054190D02*
X0052250D01*
X0054750Y0054010D02*
X0052250D01*
X0054750Y0054460D02*
X0052250D01*
X0057020Y0052250D02*
Y0050500D01*
X0057560Y0052250D02*
Y0050500D01*
X0057920Y0051914D02*
Y0050500D01*
X0057650Y0052250D02*
Y0050500D01*
X0054750Y0053380D02*
X0052250D01*
X0059250Y0052030D02*
X0058656D01*
X0059250Y0051940D02*
X0058602D01*
X0059250Y0051850D02*
X0058508D01*
X0059250Y0052250D02*
X0058693D01*
X0058640Y0051998D02*
Y0050500D01*
X0058550Y0051884D02*
Y0050500D01*
X0054750Y0052930D02*
X0052250D01*
X0054750Y0052660D02*
X0052250D01*
X0054750Y0052480D02*
X0052250D01*
X0057805Y0052210D02*
X0052250D01*
X0056030Y0051333D02*
Y0050500D01*
X0055940Y0051333D02*
Y0050500D01*
X0055850Y0051333D02*
Y0050500D01*
X0055760Y0051333D02*
Y0050500D01*
X0055670Y0051333D02*
Y0050500D01*
X0055580Y0051333D02*
Y0050500D01*
X0055490Y0051333D02*
Y0050500D01*
X0054750Y0052750D02*
X0052250D01*
X0057844Y0052030D02*
X0056116D01*
X0057898Y0051940D02*
X0056116D01*
X0056210Y0052250D02*
Y0050500D01*
X0056120Y0052250D02*
Y0050500D01*
X0057200Y0052250D02*
Y0050500D01*
X0056660Y0052250D02*
Y0050500D01*
X0059250Y0051760D02*
X0056116D01*
X0057110Y0052250D02*
Y0050500D01*
X0058100Y0051794D02*
Y0050500D01*
X0054750Y0054100D02*
X0052250D01*
X0054750Y0054370D02*
X0052250D01*
X0057830Y0052065D02*
Y0050500D01*
X0054750Y0052390D02*
X0052250D01*
X0057740Y0052250D02*
Y0050500D01*
X0057935Y0051898D02*
X0058250Y0052213D01*
X0058460Y0051820D02*
Y0050500D01*
X0058564Y0051898D02*
X0058250Y0052213D01*
X0056116Y0051699D02*
X0055750D01*
X0055384D02*
X0055750D01*
Y0052065D02*
Y0051699D01*
X0052340Y0054750D02*
Y0051160D01*
X0059250Y0050590D02*
X0052910D01*
X0055384Y0051490D02*
X0052250D01*
X0054750Y0053830D02*
X0052250D01*
X0059250Y0051400D02*
X0056116D01*
X0057380Y0052250D02*
Y0050500D01*
X0054750Y0053560D02*
X0052250D01*
X0054750Y0054280D02*
X0052250D01*
X0056930Y0052250D02*
Y0050500D01*
X0057470Y0052250D02*
Y0050500D01*
X0058730Y0052250D02*
Y0050500D01*
X0054750Y0053470D02*
X0052250D01*
X0054680Y0054750D02*
Y0050500D01*
X0054750Y0052840D02*
X0052250D01*
X0054750Y0052300D02*
X0052250D01*
X0054750Y0053920D02*
X0052250D01*
X0056840Y0052250D02*
Y0050500D01*
X0055400Y0051333D02*
Y0050500D01*
X0054750Y0053290D02*
X0052250D01*
X0054750Y0053740D02*
X0052250D01*
X0055384Y0052030D02*
X0052250D01*
X0058280Y0051769D02*
Y0050500D01*
X0058370Y0051784D02*
Y0050500D01*
G01X0048800Y0075290D02*
G03X0048630Y0075220I0000000J0000240D01*
G01X0048800Y0075290D02*
G03X0048630Y0075220I0000000J0000240D01*
G01X0005730Y0042290D02*
G03X0006844Y0041176I0001114J0000000D01*
G03X0007958Y0042290I0000000J0001114D01*
G03X0006844Y0043404I0001114J0000000D01*
G03X0005730Y0042290I0000000J0001114D01*
G01X0005636Y0045024D02*
G03X0006750Y0043910I0001114J0000000D01*
G03X0007864Y0045024I0000000J0001114D01*
G03X0006750Y0046138I0001114J0000000D01*
G03X0005636Y0045024I0000000J0001114D01*
G01X0005730Y0011698D02*
G03X0006844Y0010584I0001114J0000000D01*
G03X0007958Y0011698I0000000J0001114D01*
G03X0006844Y0012812I0001114J0000000D01*
G03X0005730Y0011698I0000000J0001114D01*
Y0014337D02*
G03X0006844Y0013223I0001114J0000000D01*
G03X0007958Y0014337I0000000J0001114D01*
G03X0006844Y0015451I0001114J0000000D01*
G03X0005730Y0014337I0000000J0001114D01*
G01X0057805Y0052213D02*
G03X0058250Y0051768I0000445J0000000D01*
G03X0058695Y0052213I0000000J0000445D01*
G01X0057806Y0052250D02*
G03X0057804Y0052213I0000444J0000037D01*
G01X0058695D02*
G03X0058693Y0052250I0000445J0000000D01*
G54D73*
G01X0044750Y0078235D02*
X0044050D01*
X0044750Y0078190D02*
X0044050D01*
X0044750Y0078145D02*
X0044050D01*
X0044750Y0078100D02*
X0044050D01*
X0044750Y0078055D02*
X0044050D01*
X0044750Y0078010D02*
X0044050D01*
X0044750Y0077965D02*
X0044050D01*
X0044750Y0077920D02*
X0044050D01*
X0044750Y0077875D02*
X0044050D01*
X0044750Y0077830D02*
X0044050D01*
X0044750Y0077785D02*
X0044050D01*
X0044750Y0077740D02*
X0044050D01*
X0044750Y0077695D02*
X0044050D01*
X0044750Y0077650D02*
X0044050D01*
X0044750Y0077605D02*
X0044050D01*
X0044750Y0077560D02*
X0044050D01*
X0044750Y0077515D02*
X0044050D01*
X0044750Y0077470D02*
X0044050D01*
X0044750Y0077425D02*
X0044050D01*
X0044750Y0077380D02*
X0044050D01*
X0044750Y0077335D02*
X0044050D01*
X0044750Y0077290D02*
X0044050D01*
X0044750Y0077245D02*
X0044050D01*
X0044750Y0077200D02*
X0044050D01*
X0044750Y0077155D02*
X0044050D01*
X0044750Y0077110D02*
X0044050D01*
X0044750Y0077065D02*
X0044050D01*
X0044750Y0077020D02*
X0044050D01*
X0044750Y0076975D02*
X0044050D01*
X0044750Y0076930D02*
X0044050D01*
X0044750Y0076885D02*
X0044050D01*
X0044750Y0076840D02*
X0044050D01*
X0044095Y0078750D02*
Y0076750D01*
X0044750Y0078750D02*
X0044050D01*
X0044750D02*
Y0076750D01*
X0044050D01*
X0044725Y0078750D02*
Y0076750D01*
X0044680Y0078750D02*
Y0076750D01*
X0044635Y0078750D02*
Y0076750D01*
X0044590Y0078750D02*
Y0076750D01*
X0044545Y0078750D02*
Y0076750D01*
X0044500Y0078750D02*
Y0076750D01*
X0044455Y0078750D02*
Y0076750D01*
X0044410Y0078750D02*
Y0076750D01*
X0044365Y0078750D02*
Y0076750D01*
X0044320Y0078750D02*
Y0076750D01*
X0044275Y0078750D02*
Y0076750D01*
X0044230Y0078750D02*
Y0076750D01*
X0044185Y0078750D02*
Y0076750D01*
X0044140Y0078750D02*
Y0076750D01*
X0044750Y0078730D02*
X0044050D01*
X0044750Y0078685D02*
X0044050D01*
X0044750Y0078640D02*
X0044050D01*
X0044750Y0078595D02*
X0044050D01*
X0044750Y0078550D02*
X0044050D01*
X0044750Y0078505D02*
X0044050D01*
X0044750Y0078460D02*
X0044050D01*
X0044750Y0078415D02*
X0044050D01*
X0044750Y0078370D02*
X0044050D01*
X0044750Y0078325D02*
X0044050D01*
X0044750Y0078280D02*
X0044050D01*
X0044750Y0076795D02*
X0044050D01*
Y0078750D02*
Y0076750D01*
X0043450Y0078235D02*
X0042750D01*
X0043450Y0078190D02*
X0042750D01*
X0043450Y0078145D02*
X0042750D01*
X0043450Y0078100D02*
X0042750D01*
X0043450Y0078055D02*
X0042750D01*
X0043450Y0078010D02*
X0042750D01*
X0043450Y0077965D02*
X0042750D01*
X0043450Y0077920D02*
X0042750D01*
X0043450Y0077875D02*
X0042750D01*
X0043450Y0077830D02*
X0042750D01*
X0043450Y0077785D02*
X0042750D01*
X0043450Y0077740D02*
X0042750D01*
X0043450Y0077695D02*
X0042750D01*
X0043450Y0077650D02*
X0042750D01*
X0043450Y0077605D02*
X0042750D01*
X0043450Y0077560D02*
X0042750D01*
X0043450Y0077515D02*
X0042750D01*
X0043450Y0077470D02*
X0042750D01*
X0043450Y0077425D02*
X0042750D01*
X0043450Y0077380D02*
X0042750D01*
X0043450Y0077335D02*
X0042750D01*
X0043450Y0077290D02*
X0042750D01*
X0043450Y0077245D02*
X0042750D01*
X0043450Y0077200D02*
X0042750D01*
X0043450Y0077155D02*
X0042750D01*
X0043450Y0077110D02*
X0042750D01*
X0043450Y0077065D02*
X0042750D01*
X0043450Y0077020D02*
X0042750D01*
X0043450Y0076975D02*
X0042750D01*
X0043450Y0076930D02*
X0042750D01*
X0043450Y0076885D02*
X0042750D01*
X0043450Y0076840D02*
X0042750D01*
X0042795Y0078750D02*
Y0076750D01*
X0043450Y0078750D02*
Y0076750D01*
Y0078750D02*
X0042750D01*
Y0076750D01*
X0043425Y0078750D02*
Y0076750D01*
X0043380Y0078750D02*
Y0076750D01*
X0043335Y0078750D02*
Y0076750D01*
X0043290Y0078750D02*
Y0076750D01*
X0043245Y0078750D02*
Y0076750D01*
X0043200Y0078750D02*
Y0076750D01*
X0043155Y0078750D02*
Y0076750D01*
X0043110Y0078750D02*
Y0076750D01*
X0043065Y0078750D02*
Y0076750D01*
X0043020Y0078750D02*
Y0076750D01*
X0042975Y0078750D02*
Y0076750D01*
X0042930Y0078750D02*
Y0076750D01*
X0042885Y0078750D02*
Y0076750D01*
X0042840Y0078750D02*
Y0076750D01*
X0043450Y0078730D02*
X0042750D01*
X0043450Y0078685D02*
X0042750D01*
X0043450Y0078640D02*
X0042750D01*
X0043450Y0078595D02*
X0042750D01*
X0043450Y0078550D02*
X0042750D01*
X0043450Y0078505D02*
X0042750D01*
X0043450Y0078460D02*
X0042750D01*
X0043450Y0078415D02*
X0042750D01*
X0043450Y0078370D02*
X0042750D01*
X0043450Y0078325D02*
X0042750D01*
X0043450Y0078280D02*
X0042750D01*
X0043450Y0076795D02*
X0042750D01*
X0043450Y0076750D02*
X0042750D01*
X0052400Y0064205D02*
X0051600D01*
X0052400Y0064160D02*
X0051600D01*
X0052400Y0064115D02*
X0051600D01*
X0052400Y0064070D02*
X0051600D01*
X0052400Y0064025D02*
X0051600D01*
X0052400Y0063980D02*
X0051600D01*
X0052400Y0063935D02*
X0051600D01*
X0052400Y0063890D02*
X0051600D01*
X0052400Y0063845D02*
X0051600D01*
X0052400Y0063800D02*
X0051600D01*
X0052400Y0063755D02*
X0051600D01*
X0052400Y0063710D02*
X0051600D01*
X0052400Y0063665D02*
X0051600D01*
X0052400Y0063620D02*
X0051600D01*
X0052400Y0063575D02*
X0051600D01*
X0052400Y0063530D02*
X0051600D01*
X0052400Y0063485D02*
X0051600D01*
X0052400Y0063440D02*
X0051600D01*
X0051870Y0064440D02*
Y0063420D01*
X0051690Y0064440D02*
Y0063420D01*
X0051645Y0064440D02*
Y0063420D01*
X0052130Y0063215D02*
X0051870D01*
X0052130Y0063170D02*
X0051870D01*
X0052130Y0063080D02*
X0051870D01*
X0052130Y0062990D02*
X0051870D01*
X0052130Y0063305D02*
X0051870D01*
X0052320Y0064440D02*
Y0063430D01*
X0052275Y0064440D02*
Y0063430D01*
X0052230Y0064440D02*
Y0063430D01*
X0052185Y0064440D02*
Y0063430D01*
X0052140Y0064440D02*
Y0063430D01*
X0052095Y0064440D02*
Y0062990D01*
X0052050Y0064440D02*
Y0062990D01*
X0052005Y0064440D02*
Y0062990D01*
X0051960Y0064440D02*
Y0062990D01*
X0052130Y0063035D02*
X0051870D01*
X0051825Y0064440D02*
Y0063420D01*
X0051780Y0064440D02*
Y0063420D01*
X0051735Y0064440D02*
Y0063420D01*
X0051915Y0064440D02*
Y0062990D01*
X0052400Y0064430D02*
X0051600D01*
X0052400Y0064385D02*
X0051600D01*
X0052400Y0064340D02*
X0051600D01*
X0052400Y0064295D02*
X0051600D01*
X0052400Y0064250D02*
X0051600D01*
X0052130Y0063125D02*
X0051870D01*
X0052130Y0063350D02*
X0051870D01*
X0052130Y0063260D02*
X0051870D01*
X0052130Y0063395D02*
X0051870D01*
X0052365Y0064440D02*
Y0063430D01*
X0051870Y0063420D02*
Y0062990D01*
Y0063420D02*
X0051600D01*
Y0064440D02*
Y0063420D01*
X0052400Y0064440D02*
X0051600D01*
X0052400D02*
Y0063430D01*
X0052130D01*
Y0062990D01*
G54D74*
G01X0040030Y0045750D02*
X0040150Y0045630D01*
Y0044700D01*
X0055750Y0053785D02*
Y0052801D01*
X0058250Y0053000D02*
X0057950D01*
X0057250Y0053700D01*
Y0054970D01*
X0055750Y0053785D02*
X0055840Y0053700D01*
X0057250D01*
Y0054970D01*
X0055750Y0053785D02*
Y0054100D01*
X0054600Y0055250D01*
X0049120D01*
X0054000Y0060900D02*
X0055000D01*
X0056916D01*
X0056994Y0060978D01*
X0052590Y0062820D02*
Y0063240D01*
X0053314Y0063964D01*
X0054000D01*
Y0065600D01*
X0055378Y0066978D01*
X0056994D01*
X0054000Y0063964D02*
X0055000D01*
Y0060900D02*
X0054000D01*
X0055000D01*
X0050000Y0076800D02*
Y0076035D01*
Y0076800D01*
X0052750Y0080398D02*
Y0081000D01*
Y0080398D01*
Y0081000D02*
Y0080398D01*
X0042500Y0074035D02*
Y0073250D01*
X0022900Y0069650D02*
X0023450D01*
X0022900D02*
X0023450D01*
X0038250Y0001550D02*
X0038270Y0001530D01*
Y0001030D01*
X0038250D01*
X0040250Y0054200D02*
X0040230Y0054220D01*
X0039750D01*
X0040250Y0054200D02*
X0040230Y0054220D01*
X0039750D01*
X0040230D01*
X0040250Y0054200D01*
X0042300Y0053400D02*
X0042250Y0053450D01*
Y0053970D01*
X0018750Y0048220D02*
Y0047750D01*
X0036750Y0001030D02*
Y0001050D01*
X0036700D01*
X0035250Y-0000200D02*
X0035230Y-0000220D01*
X0034750D01*
X0023000Y0037970D02*
Y0037500D01*
Y0033720D02*
Y0033250D01*
X0038250Y0001030D02*
X0037500D01*
X0034750Y0000470D02*
Y-0000220D01*
X0050750Y-0000120D02*
X0050910Y-0000280D01*
X0052000D01*
X0022000Y0033340D02*
X0022090Y0033250D01*
X0023000D01*
X0022000Y0052340D02*
X0022090Y0052250D01*
X0023000D01*
Y0052720D01*
X0043300Y0053850D02*
X0043250D01*
X0043130Y0053970D01*
X0042250D01*
X0020500Y0060500D02*
Y0061000D01*
X0020590Y0061090D01*
X0022250D01*
X0022340Y0061000D01*
X0023250D01*
Y0061470D01*
X0050000Y0076035D02*
Y0076800D01*
X0049600D01*
X0049300Y0077100D01*
X0048550D01*
X0022000Y0052340D02*
Y0051650D01*
X0021550Y0051200D01*
X0020650D01*
X0020500Y0051350D01*
Y0051750D01*
X0023000Y0037500D02*
X0022950Y0037550D01*
X0022050D01*
X0022010Y0037590D01*
X0022000D01*
Y0037100D01*
X0021350Y0036450D01*
X0020600D01*
X0020500Y0036550D01*
Y0037000D01*
X0022000Y0033340D02*
Y0032050D01*
X0021700Y0031750D01*
X0020700D01*
X0020500Y0031950D01*
Y0032500D01*
X0036750Y0001030D02*
Y0001050D01*
Y0001200D01*
X0037000Y0001450D01*
Y0002169D01*
X0036750Y0001030D02*
Y0001050D01*
X0036800D01*
X0036820Y0001030D01*
X0037500D01*
X0023000Y0052720D02*
Y0052250D01*
X0054000Y0004410D02*
Y0006500D01*
X0004000Y0077090D02*
X0003110D01*
X0003000Y0077200D01*
Y0077970D01*
X0051500Y0037000D02*
X0052900D01*
X0053750Y0037850D01*
Y0037898D01*
X0056250Y0043780D02*
Y0044500D01*
Y0046100D02*
X0052350D01*
X0050300Y0048150D01*
X0046700D01*
X0042820Y0052030D01*
Y0059280D02*
X0044250D01*
X0042820D01*
X0035750Y0048750D02*
Y0049220D01*
X0012480Y0029780D02*
X0011750D01*
X0034500Y0002169D02*
Y0002800D01*
X0034950Y0003250D01*
X0038350D01*
X0039600Y0002000D01*
X0041900D01*
X0045050Y-0001150D01*
X0052350D01*
X0058600Y0005100D01*
X0060600D01*
Y0041000D02*
Y0041250D01*
X0051700D01*
X0051170Y0040720D01*
X0050250D01*
X0044250Y0056030D02*
X0042630D01*
X0041500Y0054900D01*
Y0052850D01*
X0046550Y0047800D01*
X0050100D01*
X0052150Y0045750D01*
X0058650D01*
X0058850Y0045950D01*
X0059350D01*
X0060600Y0044700D01*
Y0041250D01*
X0051700D01*
X0051170Y0040720D01*
X0050250D01*
X0018750Y0048780D02*
Y0049250D01*
X0018520Y0044720D02*
X0019000D01*
X0018750Y0048780D02*
Y0049250D01*
Y0058850D02*
Y0058280D01*
X0031500Y0070530D02*
Y0071950D01*
Y0074400D01*
X0039850Y0082750D01*
X0043900D01*
X0044700Y0083550D01*
X0048450D01*
X0048750Y0083250D01*
Y0082650D01*
X0018750Y0075520D02*
X0018220D01*
X0017700Y0075000D01*
Y0072200D01*
X0017880Y0072020D01*
X0019570D01*
X0020250D01*
X0031500Y0070530D02*
Y0071950D01*
X0019550Y0072000D02*
X0020250Y0072020D01*
X0018750Y0058280D02*
Y0058850D01*
X0019550Y0072000D02*
X0020250Y0072020D01*
X0030250Y0067720D02*
X0030580D01*
X0030750Y0067550D01*
X0031500Y0071950D02*
Y0070530D01*
X0044250Y0056600D02*
Y0056030D01*
X0056250Y0043780D02*
Y0044500D01*
X0053850Y-0001500D02*
X0034250D01*
X0034000Y-0001250D01*
Y0000470D01*
X0033000Y0068220D02*
Y0067400D01*
X0040220D02*
X0040750D01*
X0046000Y0072650D01*
Y0077950D01*
X0045950Y0078000D01*
X0044250Y0059280D02*
X0042820D01*
Y0067400D01*
X0033000D02*
Y0068220D01*
X0031250Y0046000D02*
Y0045950D01*
X0032300Y0044900D01*
X0034200D01*
X0037250Y0047950D01*
Y0048750D01*
Y0049150D01*
Y0049220D01*
Y0049150D01*
Y0048750D01*
X0035750D02*
Y0049220D01*
X0045250Y0059000D02*
X0045050D01*
X0044750Y0059300D01*
X0044270D01*
X0044250Y0059280D01*
X0033000Y0068220D02*
Y0067400D01*
X0023500Y0066500D02*
Y0067470D01*
X0033000Y0068220D02*
Y0067400D01*
X0032000D02*
Y0067980D01*
X0051750Y0077964D02*
X0051890Y0078100D01*
X0052934D01*
X0053000Y0078030D01*
X0050500Y0079840D02*
Y0079050D01*
X0048750Y0082650D02*
X0049250D01*
X0049700Y0082200D01*
Y0079850D01*
X0048750Y0078900D01*
X0048550D01*
X0048750D01*
X0048770D01*
X0049710Y0079840D01*
X0050500D01*
X0047500Y0082780D02*
X0047470Y0082750D01*
X0045750D01*
X0047500Y0082780D02*
X0048620D01*
X0048750Y0082650D01*
X0048550Y0078900D02*
Y0079700D01*
X0048250Y0080000D01*
X0047500D01*
X0016500Y0076470D02*
X0016280D01*
X0016000Y0076750D01*
X0015581D01*
X0019500Y0058400D02*
X0019380Y0058280D01*
X0018750D01*
X0042750Y0083410D02*
X0037210D01*
X0023800Y0062050D02*
X0023270D01*
X0023250Y0062030D01*
X0023000Y0038530D02*
Y0038750D01*
Y0039350D01*
X0023150Y0055250D02*
X0023000Y0055100D01*
Y0053450D01*
Y0053280D01*
X0010250Y0029815D02*
X0011715D01*
X0011750Y0029780D01*
X0027500Y0067470D02*
Y0066000D01*
Y0067470D02*
X0025500D01*
X0056994Y0061962D02*
X0056200D01*
X0054070D01*
X0054000Y0062035D01*
X0051000Y0060600D02*
Y0060850D01*
X0051430Y0061280D01*
X0052250D01*
X0051700Y0052850D02*
X0050500D01*
Y0052500D01*
Y0056500D02*
Y0057500D01*
X0049069D01*
X0051000Y0060600D02*
X0051300Y0060300D01*
Y0059050D01*
Y0057700D01*
X0051100Y0057500D01*
X0050500D01*
X0049069D01*
X0055750Y0056650D02*
Y0055714D01*
X0056150Y0058450D02*
X0055850Y0058750D01*
X0055700D01*
X0050500Y0059000D02*
X0051250D01*
X0051300Y0059050D01*
Y0060300D01*
X0051000Y0060600D01*
X0056994Y0061962D02*
X0056200D01*
Y0065400D01*
X0056794Y0065994D01*
X0056994D01*
X0057978D02*
X0058794D01*
X0058987Y0066187D01*
Y0067962D01*
X0057978D01*
X0052250Y0061280D02*
Y0061950D01*
X0052000Y0062200D01*
Y0062820D01*
X0053000Y0061280D02*
Y0061550D01*
X0053485Y0062035D01*
X0054000D01*
X0019000Y0045280D02*
Y0045850D01*
X0018750Y0048220D02*
Y0047750D01*
X0019000Y0045850D02*
Y0045280D01*
X0051000Y0060600D02*
X0050450D01*
X0050000Y0061050D01*
Y0061220D01*
X0055750Y0055714D02*
X0057065D01*
X0057250Y0055530D01*
X0055750Y0051699D02*
X0054651D01*
X0054300Y0052050D01*
Y0053750D01*
X0050500Y0053720D02*
Y0052850D01*
X0051700D01*
X0019500Y0044150D02*
X0019250D01*
X0019000Y0044400D01*
Y0044720D01*
X0039750Y0040720D02*
X0038780D01*
X0038250Y0041250D01*
Y0042100D01*
X0023000Y0038530D02*
Y0038750D01*
Y0039350D01*
X0023500Y0035450D02*
Y0035150D01*
X0023000Y0034650D01*
Y0034280D01*
X0055750Y0051699D02*
X0056749D01*
X0057263Y0052213D01*
X0058250D01*
X0034750Y0001030D02*
Y0001200D01*
X0034500Y0001450D01*
Y0002169D01*
X0052650Y0053750D02*
X0051700D01*
X0023500Y0035450D02*
Y0035150D01*
X0023000Y0034650D01*
Y0034280D01*
X0053300Y0053750D02*
X0052650D01*
X0054300D02*
X0053300D01*
X0045000Y0074035D02*
Y0073250D01*
X0023250Y0061470D02*
X0023880D01*
X0022900Y0069650D02*
X0023450D01*
X0043750Y0075470D02*
Y0075000D01*
X0045000Y0073250D02*
Y0074035D01*
X0042500D02*
Y0073250D01*
X0043750Y0075000D02*
Y0075470D01*
X0023000Y0052250D02*
Y0052720D01*
X0041500Y0040720D02*
X0039750D01*
X0042750Y0082090D02*
Y0080050D01*
X0042050Y0079350D01*
Y0077000D01*
X0042500Y0076550D01*
Y0075964D01*
X0020000Y0058400D02*
Y0059200D01*
X0018950Y0060250D01*
Y0063670D01*
X0019750Y0064470D01*
Y0068500D02*
Y0069220D01*
X0020000Y0059200D02*
Y0058400D01*
X0043250Y0040720D02*
X0041500D01*
X0045000D02*
X0043250D01*
X0023250Y0062030D02*
X0023270Y0062050D01*
X0023800D01*
X0023150Y0055250D02*
X0023000Y0055100D01*
Y0053450D01*
Y0053280D01*
X0022000Y0053660D02*
Y0054600D01*
X0020600Y0054850D02*
X0020500Y0054750D01*
Y0054150D01*
X0022000Y0038910D02*
Y0040050D01*
X0020350Y0040100D02*
X0020500Y0039950D01*
Y0039400D01*
X0018750Y0076470D02*
Y0075520D01*
X0020500Y0034900D02*
Y0035600D01*
X0022050D02*
X0022000Y0035550D01*
Y0034660D01*
X0023000Y0038530D02*
Y0038750D01*
X0022550Y0069250D02*
Y0068500D01*
X0019750D02*
Y0069220D01*
X0046750Y0040720D02*
X0045000D01*
X0048500D02*
X0046750D01*
X0023000Y0053280D02*
Y0053450D01*
X0022800Y0053650D01*
X0022010D01*
X0022000Y0053660D01*
X0022550Y0069250D02*
Y0070150D01*
X0022750Y0070350D01*
X0024550D01*
Y0069250D01*
X0020500Y0062900D02*
Y0063400D01*
X0020650Y0063550D01*
X0021800D01*
X0022250Y0063100D01*
Y0062410D01*
X0050250Y0040720D02*
X0048500D01*
X0050500Y0083410D02*
Y0083450D01*
X0049900Y0084050D01*
X0043350D01*
X0042750Y0083450D01*
Y0083410D01*
X0020250Y0072970D02*
Y0072020D01*
X0051000Y0061900D02*
X0051370Y0062270D01*
Y0062820D01*
X0051410D01*
X0057978Y0059994D02*
X0056994D01*
X0018000Y0077720D02*
X0019980D01*
X0021100Y0076600D01*
Y0074350D01*
X0019500D01*
Y0073530D01*
X0050750Y0006650D02*
Y0009750D01*
X0050250Y0010250D01*
Y0013380D01*
X0016500Y0077030D02*
X0016220D01*
X0016000Y0077250D01*
X0015581D01*
X0021000Y0072020D02*
Y0071850D01*
X0020650Y0071500D01*
X0017700D01*
X0017200Y0072000D01*
Y0075050D01*
X0016750Y0075500D01*
X0015350D01*
X0014900Y0075950D01*
Y0077500D01*
X0015150Y0077750D01*
X0015581D01*
X0019750Y0069780D02*
Y0070150D01*
Y0070200D01*
X0018550D01*
X0018250Y0070500D01*
X0005250Y0081530D02*
Y0082050D01*
X0005350Y0082150D01*
Y0082750D01*
X0053000Y0061280D02*
X0052250D01*
X0057978Y0061962D02*
X0056994D01*
X0051000Y0061900D02*
X0050120D01*
X0050000Y0061780D01*
X0057978Y0067962D02*
X0056994D01*
X0017250Y0076470D02*
X0016500D01*
X0057978Y0065994D02*
X0056994D01*
X0057978Y0059010D02*
Y0058428D01*
X0057450Y0057900D01*
X0055200D01*
X0054800Y0058300D01*
Y0058350D01*
X0057978Y0059010D02*
X0058160D01*
X0059300Y0060150D01*
Y0063688D01*
X0057978Y0065010D01*
X0020500Y0069220D02*
X0020970D01*
X0021000Y0069250D01*
Y0071000D01*
X0052250Y0083750D02*
X0051910Y0083410D01*
X0050500D01*
X0024550Y0069250D02*
Y0070350D01*
X0028100D01*
X0028550Y0069900D01*
Y0069250D01*
X0016500Y0077720D02*
X0016970D01*
X0017350Y0078100D01*
Y0078870D01*
X0017250Y0078970D01*
X0054800Y0059150D02*
X0054950D01*
X0055300Y0059500D01*
X0056000D01*
X0056490Y0059010D01*
X0056994D01*
X0050750Y0003100D02*
X0053990D01*
X0054000Y0003090D01*
X0052000Y0000970D02*
Y0000280D01*
X0035000Y0002169D02*
Y0001650D01*
X0035350Y0001300D01*
Y0000800D01*
X0035680Y0000470D01*
X0036000D01*
X0018000Y0078280D02*
Y0078300D01*
X0018350Y0078650D01*
Y0079900D01*
X0017900Y0080350D01*
X0015100D01*
X0014850Y0080100D01*
Y0078550D01*
X0015150Y0078250D01*
X0015581D01*
X0019500Y0075520D02*
X0020010D01*
X0020250Y0075280D01*
X0027450Y0068850D02*
X0027750D01*
X0028100Y0068500D01*
X0027450Y0070900D02*
X0025850D01*
X0021600Y0075150D01*
Y0075950D01*
X0017950D02*
X0015800D01*
X0015581Y0076169D01*
Y0076250D01*
X0036750Y0000470D02*
X0036000D01*
X0049800Y0074400D02*
X0048870D01*
X0048750Y0074280D01*
X0008900Y0082750D02*
X0009620D01*
X0011000Y0081370D01*
X0020250Y0074720D02*
X0020130D01*
X0019850Y0075000D01*
X0018900D01*
X0018750Y0074850D01*
Y0074500D01*
X0050750Y0001620D02*
X0050840Y0001530D01*
X0052000D01*
X0020500Y0067970D02*
X0019780D01*
X0016700Y0071050D01*
Y0074500D01*
X0018200D02*
X0018750D01*
X0051750Y0082602D02*
X0051012D01*
X0050500Y0082090D01*
X0019500Y0074500D02*
Y0074350D01*
Y0073530D01*
X0056250Y0043220D02*
Y0042530D01*
X0035500Y0002169D02*
Y0002700D01*
X0035650Y0002850D01*
X0038250D01*
X0039000Y0002100D01*
Y0001030D01*
X0043750Y0076030D02*
X0042565D01*
X0054800Y0059150D02*
X0054680Y0059030D01*
X0053750D01*
X0033000Y0068220D02*
Y0067400D01*
X0040200D02*
X0040220D01*
X0040750D01*
X0046000Y0072650D01*
Y0077950D01*
X0045950Y0078000D01*
X0005250Y0081530D02*
X0004160D01*
X0004000Y0081370D01*
X0019750Y0069780D02*
Y0070150D01*
X0020250Y0070650D01*
Y0071000D01*
X0016500Y0077720D02*
Y0077030D01*
X0049069Y0059000D02*
Y0061319D01*
X0049530Y0061780D01*
X0050000D01*
X0021750Y0069220D02*
X0020970D01*
X0020500D01*
X0031250Y0067980D02*
X0030970D01*
X0030670Y0068280D01*
X0030250D01*
X0029450Y0068850D02*
Y0067250D01*
X0029650Y0067050D01*
X0030200D01*
X0050500Y0054280D02*
X0050780D01*
X0051150Y0054650D01*
X0051700D01*
X0030750Y0006000D02*
X0025750Y0001000D01*
Y0000880D01*
X0043300Y0054650D02*
X0043180Y0054530D01*
X0042250D01*
X0023000Y0072750D02*
X0022270Y0072020D01*
X0021000D01*
X0051300Y0060500D02*
Y0060300D01*
X0051000Y0060600D01*
X0023250Y0062030D02*
X0022620D01*
X0022250Y0062400D01*
Y0062410D01*
X0052900Y0058500D02*
X0053720D01*
X0053750Y0058470D01*
X0007600Y0082750D02*
X0006650D01*
X0011919Y0077000D02*
X0010250D01*
X0018750Y0076470D02*
X0017250D01*
X0054750Y0037898D02*
Y0036660D01*
X0057978Y0060978D02*
X0056994D01*
X0036750Y0043720D02*
Y0042900D01*
X0037500Y0000470D02*
X0036750D01*
X0043545Y0045765D02*
X0043665Y0045645D01*
Y0044715D01*
X0038250Y0000470D02*
Y-0000220D01*
X0048500Y0042100D02*
Y0041280D01*
X0050530Y0045750D02*
X0050650Y0045630D01*
Y0044700D01*
X0020250Y0072020D02*
X0019550Y0072000D01*
X0019570Y0072020D01*
X0017880D01*
X0017700Y0072200D01*
Y0075000D01*
X0018220Y0075520D01*
X0018750D01*
X0040750Y0001250D02*
X0040530Y0001030D01*
X0039000D01*
X0025450Y0068850D02*
X0026200D01*
X0026550Y0069200D01*
Y0069250D01*
X0025450Y0068850D02*
X0025500Y0068800D01*
Y0068030D01*
X0022000Y0034660D02*
X0022620D01*
X0023000Y0034280D01*
X0027450Y0068850D02*
Y0068080D01*
X0027500Y0068030D01*
X0038250Y-0000780D02*
X0034750D01*
X0050500Y0054280D02*
X0050470Y0054250D01*
X0049120D01*
X0030250Y0068970D02*
Y0068280D01*
X0056250Y0043220D02*
X0055250D01*
X0037250Y0049220D02*
Y0049150D01*
Y0048750D01*
Y0049150D02*
Y0049220D01*
X0011919Y0079000D02*
X0011450D01*
X0011000Y0079450D01*
Y0081370D01*
X0045380Y0054250D02*
X0044200D01*
X0004000Y0081370D02*
X0003000Y0080370D01*
Y0078530D01*
X0053000Y0074250D02*
Y0073600D01*
X0052700Y0073300D01*
X0051050D01*
X0050700Y0073650D01*
Y0074000D01*
X0053750Y0059030D02*
X0053720Y0059000D01*
X0052900D01*
X0056250Y0041970D02*
X0056220Y0042000D01*
X0054750D01*
Y0040750D02*
Y0040102D01*
X0053750Y0058470D02*
X0054680D01*
X0054800Y0058350D01*
X0039750Y0043800D02*
Y0042900D01*
X0043250Y0042100D02*
Y0041280D01*
X0039750Y0042100D02*
Y0041280D01*
X0053250Y0000970D02*
X0052000D01*
X0021000Y0072970D02*
Y0072020D01*
X0045000Y0075964D02*
X0045250Y0076214D01*
Y0079200D01*
X0045750Y0079700D01*
Y0080750D01*
X0050500Y0058500D02*
X0050300D01*
X0049800Y0059000D01*
X0049069D01*
X0056000Y0074250D02*
X0056050Y0074300D01*
Y0075883D02*
X0056417Y0076250D01*
X0021750Y0073530D02*
X0021000D01*
X0041500Y0042100D02*
Y0041280D01*
X0052900Y0059500D02*
X0052750D01*
X0052250Y0060000D01*
Y0060720D01*
X0043265Y0043815D02*
Y0042915D01*
X0043250Y0042900D01*
X0047950Y0036900D02*
X0047550D01*
X0047000Y0036350D01*
Y0034050D01*
X0047550Y0033500D01*
X0048100D01*
X0036000Y0002169D02*
Y0001030D01*
X0029450Y0068850D02*
Y0067250D01*
X0029650Y0067050D01*
X0030200D01*
X0032400D01*
X0032550Y0067200D01*
Y0068850D01*
X0032400Y0069000D01*
X0032000D01*
X0020500Y0067970D02*
Y0067000D01*
X0021000Y0066500D01*
X0044250Y0055470D02*
X0045160D01*
X0045380Y0055250D01*
X0034750Y-0000220D02*
X0035230D01*
X0035250Y-0000200D01*
X0047030Y0045750D02*
X0047150Y0045630D01*
Y0044700D01*
X0050500Y0058000D02*
X0050300D01*
X0049800Y0058500D01*
X0049069D01*
X0050500Y0059500D02*
X0049700D01*
Y0057950D02*
X0049650Y0058000D01*
X0049069D01*
X0005250Y0080970D02*
Y0080030D01*
X0018500Y0072970D02*
X0018720D01*
X0019280Y0073530D01*
X0019500D01*
X0057978Y0066978D02*
X0056994D01*
X0045000Y0042100D02*
Y0041280D01*
X0023450Y0068850D02*
X0023500Y0068800D01*
Y0068030D01*
X0034000Y0002169D02*
Y0001030D01*
X0055000Y0081992D02*
X0053708D01*
X0053098Y0082602D01*
X0052750D01*
X0046750Y0043800D02*
Y0042900D01*
X0019500Y0076470D02*
Y0075520D01*
X0020500Y0069780D02*
X0019750D01*
X0041500Y0043800D02*
Y0042900D01*
X0020500Y0069220D02*
Y0068530D01*
X0038250Y0043720D02*
Y0042900D01*
X0048780Y0045750D02*
X0048900Y0045630D01*
Y0044700D01*
X0051750Y0080398D02*
Y0079530D01*
X0039000Y0000470D02*
X0038250D01*
X0057978Y0062171D02*
Y0061962D01*
X0048500Y0043800D02*
Y0042900D01*
X0050500Y0082090D02*
Y0081160D01*
X0046750Y0042100D02*
Y0041280D01*
X0050750Y0005350D02*
Y0004400D01*
X0051250Y0031500D02*
X0049450D01*
X0048900Y0032050D01*
Y0033500D01*
X0016500Y0078280D02*
X0016470Y0078250D01*
X0015581D01*
X0041780Y0045750D02*
X0041900Y0045630D01*
Y0044700D01*
X0054000Y0060100D02*
X0053350D01*
X0053000Y0060450D01*
Y0060720D01*
X0045280Y0045750D02*
X0045400Y0045630D01*
Y0044700D01*
X0017250Y0078970D02*
X0016500D01*
X0042500Y0075950D02*
Y0075964D01*
X0045000Y0043800D02*
Y0042900D01*
X0050250Y0043800D02*
Y0042900D01*
X0050750Y0003100D02*
Y0001620D01*
X0050250Y0042100D02*
Y0041280D01*
G54D75*
G01X0035674Y0052727D02*
Y0052275D01*
X0035800Y0052150D01*
X0039250D01*
X0040030Y0051370D01*
Y0045750D01*
X0035750Y0050600D02*
Y0049850D01*
Y0049780D01*
X0032727Y0053507D02*
X0031787D01*
X0031750Y0053470D01*
X0032727Y0056265D02*
X0031795D01*
X0031750Y0056220D01*
X0034750Y0050720D02*
X0034680Y0050650D01*
X0034350D01*
X0034070D01*
X0033992Y0050727D01*
X0034886Y0052727D02*
Y0051936D01*
X0034350Y0051400D01*
Y0050650D01*
X0034070D01*
X0033992Y0050727D01*
X0020067Y0048695D02*
Y0048317D01*
X0019900Y0048150D01*
X0019650D01*
X0019550Y0048250D01*
Y0048690D01*
X0019555Y0048695D01*
X0021500Y0044150D02*
Y0044800D01*
Y0045600D01*
X0023027Y0047127D01*
Y0048023D01*
X0020323D02*
Y0048695D01*
X0018750Y0048780D02*
X0018835Y0048695D01*
X0019555D01*
X0039750Y0056970D02*
Y0056280D01*
X0036750Y0042100D02*
X0036050D01*
X0035674Y0057242D02*
Y0057924D01*
X0020323Y0048695D02*
Y0049177D01*
X0020050Y0049450D01*
Y0051150D01*
X0019750Y0051450D01*
Y0054950D01*
X0020000Y0055200D01*
Y0056000D01*
X0021500Y0044150D02*
Y0044800D01*
X0020000D02*
Y0044150D01*
X0035674Y0057924D02*
Y0057242D01*
X0033992Y0050727D02*
Y0050107D01*
X0031242D02*
Y0050727D01*
X0021500Y0056000D02*
Y0056800D01*
X0020000D02*
Y0056000D01*
X0021500Y0058400D02*
Y0059200D01*
X0023000Y0038750D02*
X0022800Y0038950D01*
X0022040D01*
X0022000Y0038910D01*
X0033992Y0050727D02*
Y0050107D01*
X0035000Y0049000D02*
Y0049100D01*
X0035750Y0049850D01*
Y0049780D01*
X0034098Y0052727D02*
Y0052248D01*
X0033450Y0051600D01*
X0031550D01*
X0031242Y0051292D01*
Y0051287D01*
X0032727Y0055280D02*
X0034500D01*
Y0055250D01*
X0039050Y0055500D02*
Y0055400D01*
X0039400Y0055050D01*
Y0053800D01*
X0046250Y0046950D01*
X0049850D01*
X0053020Y0043780D01*
X0055250D01*
X0037242Y0056068D02*
X0038031D01*
X0024731D02*
Y0064418D01*
X0023850Y0065300D01*
X0020850D01*
X0019800Y0066350D01*
Y0066850D01*
X0014950Y0071700D01*
X0004750D01*
X0001800Y0074650D01*
Y0079500D01*
X0002050Y0079750D01*
X0004650Y0080400D02*
X0005020Y0080030D01*
X0005250D01*
X0020000Y0044150D02*
Y0041750D01*
X0031100Y0056450D02*
X0031330Y0056220D01*
X0031750D01*
X0019811Y0048695D02*
X0019820Y0048704D01*
Y0050250D01*
X0019790Y0050280D01*
X0020570D02*
X0021000D01*
X0033242Y0051287D02*
X0033387D01*
X0034295Y0052195D01*
Y0052727D01*
X0035083Y0057242D02*
Y0061333D01*
X0048800Y0075050D01*
X0050650D01*
X0050850Y0075250D01*
Y0076550D01*
X0051200Y0076900D01*
X0053750D01*
X0054000Y0077150D01*
Y0078700D01*
X0053730Y0078970D01*
X0051750D01*
X0021500Y0058400D02*
Y0056800D01*
Y0056000D01*
X0040500Y0056500D02*
X0040030Y0056970D01*
X0039750D01*
X0042250Y0054530D02*
X0042230Y0054550D01*
X0042100D01*
X0041900Y0054350D01*
Y0053350D01*
X0033901Y0053351D02*
Y0052727D01*
X0047030Y0045750D02*
Y0045820D01*
X0046500Y0046350D01*
X0046100D01*
X0038800Y0053650D01*
Y0054650D01*
X0038169Y0055280D01*
X0037242D01*
Y0054295D02*
X0037895D01*
X0038200Y0053991D01*
Y0053450D01*
X0041750Y0049900D01*
Y0045780D01*
X0041780Y0045750D01*
X0037242Y0055083D02*
X0038116D01*
X0038600Y0054600D01*
Y0053600D01*
X0045280Y0046920D01*
Y0045750D01*
X0037242Y0054492D02*
X0037957D01*
X0038400Y0054050D01*
Y0053550D01*
X0043600Y0048350D01*
Y0045820D01*
X0043545Y0045765D01*
X0019500Y0041750D02*
X0019050D01*
X0018400Y0042400D01*
Y0043150D01*
X0018050Y0043500D01*
Y0045550D01*
X0019217Y0046717D01*
Y0046733D01*
X0020067D02*
Y0046096D01*
X0030492Y0051287D02*
X0029742D01*
X0035280Y0057242D02*
Y0061280D01*
X0048280Y0074280D01*
X0048750D01*
X0030200Y0067050D02*
Y0055550D01*
X0036200D02*
X0035871Y0055221D01*
Y0052727D01*
X0048780Y0045750D02*
Y0045820D01*
X0048050Y0046550D01*
X0046150D01*
X0039000Y0053700D01*
Y0054750D01*
X0038272Y0055477D01*
X0037242D01*
X0021000Y0049720D02*
X0021090Y0049629D01*
Y0048695D01*
X0031242Y0051287D02*
X0030492D01*
X0020323Y0046096D02*
Y0045473D01*
X0022023D02*
Y0044173D01*
X0022000Y0044150D01*
X0050530Y0045750D02*
Y0046020D01*
X0049800Y0046750D01*
X0046200D01*
X0039200Y0053750D01*
Y0054800D01*
X0038325Y0055674D01*
X0037242D01*
X0036462Y0057242D02*
Y0061962D01*
X0042650Y0068150D01*
X0042950D01*
X0022000D02*
Y0068850D01*
X0022150Y0069000D01*
Y0070450D01*
X0022350Y0073550D02*
X0021770D01*
X0021750Y0073530D01*
X0034750Y0051280D02*
X0034920D01*
X0035150Y0051050D01*
Y0049700D01*
X0033250Y0047800D01*
Y0047000D01*
X0020579Y0046096D02*
Y0046530D01*
X0023500Y0049450D01*
X0023950Y0049900D01*
Y0056000D01*
X0022000Y0057950D01*
Y0058400D01*
X0039750Y0054780D02*
X0039780Y0054750D01*
X0040300D01*
X0038000D02*
X0037863Y0054886D01*
X0037242D01*
X0019500Y0056000D02*
X0019450Y0055950D01*
Y0055200D01*
X0020950D02*
Y0054650D01*
X0020750Y0054450D01*
Y0053400D01*
X0020600Y0053250D01*
Y0052500D01*
X0020250Y0052150D01*
Y0050000D01*
X0020530Y0049720D01*
X0021000D01*
X0025500Y0068030D02*
X0025430D01*
X0025100Y0067700D01*
Y0066700D01*
X0026500Y0065300D01*
Y0054650D01*
X0029150Y0052000D01*
X0033100D01*
X0033507Y0052407D01*
Y0052727D01*
X0020100Y0053450D02*
X0020000Y0053550D01*
Y0054150D01*
X0034000Y0001030D02*
X0033880D01*
X0033600Y0000750D01*
Y-0000760D01*
X0033590Y-0000770D01*
X0059000Y0045600D02*
Y0045550D01*
X0058950Y0045500D01*
X0052050D01*
X0050000Y0047550D01*
X0046450D01*
X0041200Y0052800D01*
Y0055100D01*
X0041300Y0055200D01*
X0034000Y0055000D02*
X0033916Y0055083D01*
X0032727D01*
X0020000Y0038800D02*
Y0039400D01*
X0020835Y0046096D02*
Y0046485D01*
X0024130Y0049780D01*
Y0057550D01*
X0020550D02*
X0020500Y0057600D01*
Y0058400D01*
X0021000Y0060500D02*
Y0058400D01*
X0021500Y0044150D02*
Y0041750D01*
X0036068Y0057242D02*
Y0058300D01*
X0035950Y0058418D01*
Y0058450D01*
X0040800Y0057620D02*
Y0052650D01*
X0046300Y0047150D01*
X0049900D01*
X0051950Y0045100D01*
X0059100D01*
X0059200Y0045000D01*
X0059600D01*
X0038670Y-0000820D02*
X0038270D01*
Y-0000800D01*
X0038250Y-0000780D01*
X0020000Y0037000D02*
Y0037750D01*
X0020550Y0038300D01*
Y0038650D01*
X0020750Y0038850D01*
Y0040450D01*
X0020650Y0040550D01*
Y0040950D01*
X0020750Y0041050D01*
Y0043150D01*
X0020500Y0043400D01*
X0022250D02*
X0022500Y0043650D01*
Y0044150D01*
X0034886Y0057242D02*
Y0058063D01*
X0034600Y0058350D01*
X0025800D02*
X0025600Y0058150D01*
Y0054800D01*
X0026350Y0054050D01*
Y0039350D01*
X0022950Y0035950D01*
X0022550D01*
X0022500Y0058400D02*
X0022450Y0058450D01*
Y0059500D01*
X0020550D02*
X0020000Y0060050D01*
Y0060500D01*
X0021000Y0054150D02*
Y0053250D01*
X0020900Y0053150D01*
X0021750Y0050280D02*
X0021000D01*
X0039750Y0055720D02*
Y0054780D01*
X0022000Y0056000D02*
Y0055500D01*
X0021450Y0054950D01*
Y0052250D01*
X0021000Y0051800D01*
Y0051750D01*
X0037300Y0049200D02*
X0037250Y0049150D01*
X0020500Y0044150D02*
Y0044950D01*
X0021090Y0045540D01*
Y0046096D01*
X0032727Y0054492D02*
X0034442D01*
X0038050Y0058100D01*
X0045150D01*
X0045250Y0058000D01*
X0053250Y0001530D02*
X0053280Y0001500D01*
X0054500D01*
X0059300Y0045300D02*
X0052000D01*
X0049950Y0047350D01*
X0046350D01*
X0041000Y0052700D01*
Y0055950D01*
X0042050Y0057000D01*
X0035800Y0056450D02*
X0035950D01*
X0036265Y0056765D01*
Y0057242D01*
X0020000Y0061900D02*
Y0062900D01*
X0020500Y0041750D02*
Y0041450D01*
X0020050Y0041000D01*
Y0039950D01*
X0020250Y0039750D01*
Y0039000D01*
X0020350Y0038900D01*
Y0038400D01*
X0019750Y0037800D01*
Y0034200D01*
X0019700Y0034150D01*
Y0033750D01*
X0020000Y0033450D01*
Y0032500D01*
X0033242Y0051287D02*
X0032362D01*
X0032242Y0051167D01*
X0020000Y0051750D02*
Y0052150D01*
X0020400Y0052550D01*
Y0053550D01*
X0020250Y0053700D01*
Y0055200D01*
X0020500Y0055450D01*
Y0056000D01*
X0021000Y0038450D02*
X0020998Y0038451D01*
Y0039398D01*
X0021000Y0039400D01*
Y0037000D02*
Y0038050D01*
X0021300Y0038350D01*
Y0041350D01*
X0021250Y0041400D01*
Y0043300D01*
X0021000Y0043550D01*
Y0044150D01*
X0019811Y0046096D02*
Y0045461D01*
X0019700Y0045350D01*
Y0044650D01*
X0019750Y0044600D01*
Y0040750D01*
X0021000D02*
Y0041750D01*
X0033704Y0052727D02*
Y0052354D01*
X0033150Y0051800D01*
X0029050D01*
X0026300Y0054550D01*
Y0065250D01*
X0023520Y0068030D01*
X0023500D01*
X0019555Y0046096D02*
Y0046795D01*
X0019100Y0047250D01*
X0018750D01*
X0018400Y0047600D01*
Y0051600D01*
X0019200Y0052400D01*
X0019250D01*
X0020950D02*
X0021100D01*
X0021250Y0052550D01*
Y0055500D01*
X0021000Y0055750D01*
Y0056000D01*
X0037242Y0055871D02*
X0036700D01*
Y0056068D01*
X0037242D01*
X0021750Y0049720D02*
X0021346Y0049316D01*
Y0048695D01*
X0033250Y0046000D02*
X0033850D01*
X0036300Y0048450D01*
Y0051600D01*
X0036150Y0051750D01*
X0035700D01*
X0035280Y0052169D01*
Y0052727D01*
X0019500Y0072970D02*
Y0072600D01*
X0019300Y0072400D01*
X0016160D02*
Y0070790D01*
X0020000Y0066950D01*
Y0066450D01*
X0020950Y0065500D01*
X0023900D01*
X0025200Y0064200D01*
Y0054250D01*
X0025548Y0053901D01*
X0036451D02*
X0037242D01*
X0035477Y0052727D02*
Y0052222D01*
X0035750Y0051950D01*
X0036200D01*
X0036500Y0051650D01*
Y0048200D01*
X0033750Y0045450D01*
X0032650D01*
X0032250Y0045850D01*
Y0046000D01*
X0021000Y0033950D02*
Y0034900D01*
Y0032500D02*
Y0033300D01*
X0021500Y0033800D01*
Y0035550D01*
X0023450Y0037500D01*
Y0039700D01*
X0022000Y0041150D01*
Y0041750D01*
X0036265Y0057242D02*
X0036250Y0057300D01*
Y0062000D01*
X0044500Y0070250D01*
X0044800D01*
X0035050D02*
X0031250D01*
X0031000Y0070000D01*
Y0069550D01*
X0031250Y0069300D01*
Y0069000D01*
X0021000Y0062300D02*
Y0062900D01*
X0031170Y0053470D02*
X0031750D01*
X0020000Y0034000D02*
Y0034900D01*
X0045250Y0058500D02*
X0045500D01*
X0045800Y0058200D01*
Y0057400D01*
X0045550Y0057150D01*
X0043250D01*
X0042500Y0057900D01*
X0038100D01*
X0034495Y0054295D01*
X0032727D01*
X0022850Y0036250D02*
X0026150Y0039550D01*
Y0054000D01*
X0025400Y0054750D01*
Y0058400D01*
X0025800Y0058800D01*
X0034250D02*
Y0058200D01*
X0034689Y0057760D01*
Y0057242D01*
X0030492Y0050727D02*
Y0047757D01*
X0031250Y0047000D01*
X0035083Y0052727D02*
Y0051613D01*
X0034750Y0051280D01*
G54D77*
G01X0053750Y0040600D02*
Y0040102D01*
X0050750Y-0000120D02*
X0049820D01*
X0053750Y0040102D02*
Y0040600D01*
X0049820Y-0000120D02*
X0050750D01*
X0045250Y0036000D02*
Y0036800D01*
X0046350Y0037900D01*
X0050600D01*
X0051500Y0037000D01*
X0004000Y0077090D02*
X0005160D01*
X0006000Y0076250D01*
X0027087Y0032250D02*
Y0032287D01*
X0030800Y0036000D01*
X0045250D01*
X0050250Y0022120D02*
X0051170D01*
X0054000Y0024950D01*
Y0030840D01*
X0048550Y0078000D02*
X0049964D01*
X0050000Y0077964D01*
X0051750D02*
X0050000D01*
X0046600Y0078000D02*
X0045950D01*
X0047150D02*
X0046600D01*
X0047750D02*
X0047150D01*
X0048550D02*
X0047750D01*
X0057250Y0028100D02*
X0058300D01*
X0059900Y0026500D01*
Y0015200D01*
X0058080Y0013380D01*
X0050250D01*
X0042500Y0075964D02*
X0042464Y0076000D01*
X0042100D01*
X0040138Y0077962D01*
Y0079008D01*
X0042500Y0075964D02*
X0042565Y0076030D01*
X0042867Y0076331D01*
Y0077750D01*
X0054750Y0035340D02*
X0051840D01*
X0051500Y0035000D01*
X0047950Y0035100D02*
X0051400D01*
X0051500Y0035000D01*
X0054750Y0033606D02*
Y0032160D01*
X0054000D01*
X0042565Y0076030D02*
X0042500Y0075964D01*
X0044632Y0077750D02*
X0044600D01*
X0044400Y0077550D01*
Y0076100D01*
X0044535Y0075964D01*
X0045000D01*
X0020750Y0081000D02*
X0024980Y0076769D01*
Y0075858D01*
X0057250Y0032150D02*
X0057240Y0032160D01*
X0054750D01*
X0054000D01*
X0054750Y0035340D02*
Y0034394D01*
X0024980Y0080090D02*
Y0081469D01*
X0023450Y0083000D01*
X0020750D01*
X0056050Y0074300D02*
Y0075883D01*
X0058583Y0076250D02*
Y0074667D01*
X0059000Y0074250D01*
X0057250Y0030850D02*
Y0029400D01*
G54D78*
G01X0052500Y0076050D02*
X0052485Y0076035D01*
X0051750D01*
X0047500Y0081750D02*
Y0082220D01*
X0053000Y0077470D02*
X0053480D01*
X0053500Y0077450D01*
X0051750Y0076035D02*
X0052485D01*
X0052500Y0076050D01*
X0053500Y0077450D02*
X0053480Y0077470D01*
X0053000D01*
X0031620Y0069000D02*
Y0068470D01*
X0031600Y0068450D01*
X0031500Y0069500D02*
Y0069970D01*
Y0069500D01*
X0030250Y0070000D02*
Y0069530D01*
X0031500Y0069970D02*
Y0069500D01*
X0033000Y0069250D02*
Y0068780D01*
X0042500Y0045750D02*
X0042515Y0045765D01*
X0042985D01*
X0039470Y0045750D02*
X0039000D01*
X0037250Y0050250D02*
Y0049780D01*
X0044250Y0045750D02*
X0044720D01*
X0035750Y0051400D02*
X0035250D01*
X0034300Y0051800D02*
X0034492Y0051992D01*
Y0052727D01*
X0033250Y0050250D02*
X0033242Y0050257D01*
Y0050727D01*
X0034492Y0052727D02*
Y0051992D01*
X0034300Y0051800D01*
X0034950Y0054304D02*
X0034350Y0053704D01*
X0032727D01*
X0021346Y0046096D02*
Y0046446D01*
X0021650Y0046750D01*
X0022500Y0042500D02*
Y0041750D01*
X0046470Y0045750D02*
X0046000D01*
X0025450Y0069650D02*
X0026900D01*
X0020630Y0071000D02*
Y0070470D01*
X0020650Y0070450D01*
X0021750Y0070250D02*
Y0069780D01*
Y0070250D01*
Y0072500D02*
Y0072970D01*
X0018750Y0057720D02*
Y0057250D01*
X0021750Y0069780D02*
Y0070250D01*
X0049500Y0045750D02*
X0049970D01*
X0035750Y0051400D02*
X0035250D01*
X0037250Y0050250D02*
Y0049780D01*
X0038250Y0044280D02*
Y0044750D01*
X0021750Y0072970D02*
Y0072500D01*
X0020250Y0073950D02*
Y0073530D01*
Y0073950D01*
X0019150D02*
X0019130Y0073970D01*
Y0074500D01*
X0031750Y0054500D02*
Y0054030D01*
X0037242Y0054689D02*
X0036439D01*
X0036350Y0054600D01*
X0035477Y0056600D02*
Y0057242D01*
X0031750Y0057250D02*
Y0056780D01*
X0019130Y0074500D02*
Y0073970D01*
X0019150Y0073950D01*
X0019500Y0077030D02*
X0019980D01*
X0020000Y0077050D01*
X0032727Y0053704D02*
X0034350D01*
X0034950Y0054304D01*
X0036350Y0054600D02*
X0036439Y0054689D01*
X0037242D01*
X0036439D01*
X0036350Y0054600D01*
X0039750Y0057530D02*
X0040230D01*
X0040250Y0057550D01*
X0044500Y0057500D02*
X0045250D01*
X0044250Y0058720D02*
X0044730D01*
X0044750Y0058700D01*
X0044500Y0057500D02*
X0045250D01*
X0029750Y0050250D02*
X0029742Y0050257D01*
Y0050727D01*
X0017250Y0077030D02*
Y0077500D01*
X0017970Y0079530D02*
X0017250D01*
X0004000Y0078410D02*
Y0078950D01*
X0005250Y0079000D02*
Y0079470D01*
X0017250Y0079530D02*
X0016500D01*
X0048220Y0045750D02*
X0047750D01*
X0041220D02*
X0040750D01*
X0010250Y0028500D02*
X0011500D01*
X0011750Y0028750D01*
Y0029220D01*
X0040750Y0045750D02*
Y0045050D01*
X0041100Y0044700D01*
X0048100D02*
Y0044750D01*
X0047750Y0045100D01*
Y0045750D01*
X0027450Y0069650D02*
X0026900D01*
X0025450D01*
X0030250Y0069530D02*
Y0070000D01*
X0029900Y0069650D01*
X0029450D01*
X0004000Y0079630D02*
Y0078950D01*
Y0078410D01*
X0048750Y0081350D02*
X0047900D01*
X0047500Y0081750D01*
Y0082220D01*
X0015581Y0079250D02*
X0016000D01*
X0016300Y0079550D01*
X0016480D01*
X0016500Y0079530D01*
X0018750Y0077030D02*
X0018480D01*
X0018310Y0077200D01*
X0017550D01*
X0017250Y0077500D01*
Y0077030D01*
X0049800Y0073600D02*
X0049470D01*
X0049120Y0073250D01*
X0048750D01*
Y0073720D01*
X0019130Y0074500D02*
Y0073970D01*
X0019150Y0073950D01*
X0019190D01*
X0018770Y0073530D01*
X0018500D01*
X0035477Y0057242D02*
Y0056600D01*
X0034977Y0056100D01*
X0033520D01*
X0033157Y0056462D01*
X0032727D01*
X0033992Y0051287D02*
Y0051492D01*
X0034300Y0051800D01*
X0034492Y0051992D01*
Y0052727D01*
X0032242Y0049847D02*
X0032847D01*
X0033250Y0050250D01*
X0033242Y0050257D01*
Y0050727D01*
X0049850Y0044700D02*
Y0044750D01*
X0049500Y0045100D01*
Y0045750D01*
X0049970D01*
X0046350Y0044700D02*
Y0044750D01*
X0046000Y0045100D01*
Y0045750D01*
X0046470D01*
X0044600Y0044700D02*
Y0044800D01*
X0044250Y0045150D01*
Y0045750D01*
X0044720D01*
X0039350Y0044700D02*
Y0044750D01*
X0039000Y0045100D01*
Y0045750D01*
X0039470D01*
X0042985Y0045765D02*
X0042515D01*
X0042500Y0045750D01*
Y0045150D01*
X0042865Y0044785D01*
Y0044715D01*
X0021650Y0046750D02*
X0021346Y0046446D01*
Y0046096D01*
X0022500Y0041750D02*
Y0042500D01*
X0018750Y0057720D02*
Y0057250D01*
X0022500Y0056750D02*
Y0056000D01*
X0039470Y0045750D02*
X0039000D01*
X0022500Y0056000D02*
Y0056750D01*
X0048750Y0073250D02*
Y0073720D01*
X0029742Y0050727D02*
Y0050257D01*
X0029750Y0050250D01*
X0038250Y0044280D02*
Y0044750D01*
X0036750D02*
Y0044280D01*
X0033000Y0068780D02*
Y0069250D01*
X0005250Y0079000D02*
Y0079470D01*
X0034750Y-0000250D02*
Y-0000220D01*
G54D80*
G01X0060402Y0003408D02*
X0060485D01*
Y0003492D01*
X0060402D01*
Y0003408D01*
X0060157Y0003492D02*
X0060115Y0003408D01*
X0059865D01*
X0059823Y0003492D01*
Y0003825D01*
X0059865Y0003908D01*
X0060115D01*
X0060157Y0003825D01*
X0059578Y0003408D02*
X0059662D01*
Y0003492D01*
X0059578D01*
Y0003408D01*
X0059333D02*
X0059042D01*
Y0003908D01*
G54D10*
X-0004134Y0003425D03*
Y0011693D03*
Y0014331D03*
Y0042283D03*
Y0045039D03*
Y0072992D03*
X0059055Y0000000D03*
X0000000D03*
X0059055Y0082677D03*
X0000000D03*
G54D11*
X0006844Y0011698D03*
Y0003430D03*
Y0042290D03*
Y0014337D03*
X0006750Y0072976D03*
Y0045024D03*
G54D12*
X0059500Y0080500D03*
X0003000Y0000000D03*
X0056500Y-0000500D03*
G54D13*
X0050750Y0003100D03*
Y0004400D03*
X0057250Y0032150D03*
Y0030850D03*
X0050750Y0005350D03*
Y0006650D03*
X0057250Y0029400D03*
Y0028100D03*
X0051000Y0061900D03*
Y0060600D03*
X0048750Y0082650D03*
Y0081350D03*
G54D14*
X0050500Y0054280D03*
Y0053720D03*
X0042250Y0054530D03*
Y0053970D03*
X0044250Y0056030D03*
Y0055470D03*
X0053000Y0060720D03*
Y0061280D03*
X0053750Y0058470D03*
Y0059030D03*
X0052250Y0061280D03*
Y0060720D03*
X0030250Y0067720D03*
Y0068280D03*
Y0068970D03*
Y0069530D03*
X0027500Y0068030D03*
Y0067470D03*
X0025500Y0068030D03*
Y0067470D03*
X0019750Y0069780D03*
Y0069220D03*
X0046750Y0040720D03*
Y0041280D03*
X0045000Y0040720D03*
Y0041280D03*
X0043250Y0040720D03*
Y0041280D03*
X0041500Y0040720D03*
Y0041280D03*
X0050250Y0040720D03*
Y0041280D03*
X0048500Y0040720D03*
Y0041280D03*
X0039750Y0040720D03*
Y0041280D03*
X0030492Y0051287D03*
Y0050727D03*
X0031242D03*
Y0051287D03*
X0034750Y0050720D03*
Y0051280D03*
X0021000Y0049720D03*
Y0050280D03*
X0021750Y0049720D03*
Y0050280D03*
X0023500Y0068030D03*
Y0067470D03*
X0021750Y0072970D03*
Y0073530D03*
X0016500Y0079530D03*
Y0078970D03*
X0021000Y0073530D03*
Y0072970D03*
X0020500Y0068530D03*
Y0067970D03*
X0019500Y0073530D03*
Y0072970D03*
X0016500Y0077720D03*
Y0078280D03*
X0018000Y0077720D03*
Y0078280D03*
X0020500Y0069220D03*
Y0069780D03*
X0020250Y0074720D03*
Y0075280D03*
X0016500Y0076470D03*
Y0077030D03*
X0019500D03*
Y0076470D03*
X0055250Y0043780D03*
Y0043220D03*
X0056250Y0042530D03*
Y0041970D03*
Y0043780D03*
Y0043220D03*
X0053250Y0001530D03*
Y0000970D03*
X0052000D03*
Y0001530D03*
X0038250Y0001030D03*
Y0000470D03*
X0034000Y0001030D03*
Y0000470D03*
X0036750Y0001030D03*
Y0000470D03*
X0038250Y-0000780D03*
Y-0000220D03*
X0039000Y0000470D03*
Y0001030D03*
X0036000Y0000470D03*
Y0001030D03*
X0051750Y0078970D03*
Y0079530D03*
X0003000Y0078530D03*
Y0077970D03*
X0005250Y0080970D03*
Y0081530D03*
X0048750Y0074280D03*
Y0073720D03*
X0038250Y0043720D03*
Y0044280D03*
X0036750Y0043720D03*
Y0044280D03*
X0039750Y0056280D03*
Y0055720D03*
X0035750Y0049220D03*
Y0049780D03*
X0018500Y0073530D03*
Y0072970D03*
X0057250Y0054970D03*
Y0055530D03*
X0050000Y0061220D03*
Y0061780D03*
X0044250Y0059280D03*
Y0058720D03*
X0031500Y0069970D03*
Y0070530D03*
X0033000Y0068780D03*
Y0068220D03*
X0011750Y0029780D03*
Y0029220D03*
X0029742Y0051287D03*
Y0050727D03*
X0033242Y0051287D03*
Y0050727D03*
X0039750Y0054780D03*
Y0054220D03*
X0033992Y0050727D03*
Y0051287D03*
X0039750Y0056970D03*
Y0057530D03*
X0031750Y0056220D03*
Y0056780D03*
Y0053470D03*
Y0054030D03*
X0037250Y0049220D03*
Y0049780D03*
X0019000Y0045280D03*
Y0044720D03*
X0018750Y0057720D03*
Y0058280D03*
Y0048220D03*
Y0048780D03*
X0017250Y0079530D03*
Y0078970D03*
X0021750Y0069780D03*
Y0069220D03*
X0017250Y0077030D03*
Y0076470D03*
X0020250Y0073530D03*
Y0072970D03*
X0018750Y0077030D03*
Y0076470D03*
X0023250Y0061470D03*
Y0062030D03*
X0023000Y0052720D03*
Y0053280D03*
Y0037970D03*
Y0038530D03*
Y0033720D03*
Y0034280D03*
X0052000Y-0000280D03*
Y0000280D03*
X0037500Y0001030D03*
Y0000470D03*
X0034750Y-0000220D03*
Y-0000780D03*
Y0000470D03*
Y0001030D03*
X0005250Y0079470D03*
Y0080030D03*
X0053000Y0077470D03*
Y0078030D03*
X0043750Y0075470D03*
Y0076030D03*
X0047500Y0082220D03*
Y0082780D03*
G54D15*
X0055750Y0053785D03*
Y0055714D03*
X0054000Y0063964D03*
Y0062035D03*
X0050000Y0077964D03*
Y0076035D03*
X0051750Y0077964D03*
Y0076035D03*
X0045000Y0075964D03*
Y0074035D03*
X0042500Y0075964D03*
Y0074035D03*
G54D16*
X0045750Y0081750D03*
Y0082750D03*
X0051500Y0037000D03*
X0027087Y0032250D03*
X0037913D03*
G54D17*
X0026000Y0013380D03*
Y0022120D03*
X0050250Y0013380D03*
Y0022120D03*
G54D18*
X0051500Y0035000D03*
G54D19*
X0054750Y0036660D03*
Y0035340D03*
X0054000Y0030840D03*
Y0032160D03*
Y0004410D03*
Y0003090D03*
X0050500Y0082090D03*
Y0083410D03*
Y0081160D03*
Y0079840D03*
X0004000Y0077090D03*
Y0078410D03*
X0042750Y0083410D03*
Y0082090D03*
X0032242Y0051167D03*
Y0049847D03*
X0022250Y0061090D03*
Y0062410D03*
X0022000Y0052340D03*
Y0053660D03*
Y0037590D03*
Y0038910D03*
Y0033340D03*
Y0034660D03*
G54D20*
X0054000Y0060100D03*
Y0060900D03*
X0046750Y0042900D03*
Y0042100D03*
X0045000Y0042900D03*
Y0042100D03*
X0043250Y0042900D03*
Y0042100D03*
X0041500Y0042900D03*
Y0042100D03*
X0050250Y0042900D03*
Y0042100D03*
X0048500Y0042900D03*
Y0042100D03*
X0039750Y0042900D03*
Y0042100D03*
X0038250Y0042900D03*
Y0042100D03*
X0036750Y0042900D03*
Y0042100D03*
X0035750Y0050600D03*
Y0051400D03*
G54D21*
X0003594Y0005404D03*
Y0009724D03*
X0010094D03*
Y0005404D03*
G54D22*
X0054750Y0034394D03*
Y0033606D03*
G54D23*
X0044200Y0054250D03*
X0043300Y0054650D03*
Y0053850D03*
X0028550Y0069250D03*
X0029450Y0068850D03*
Y0069650D03*
X0026550Y0069250D03*
X0027450Y0068850D03*
Y0069650D03*
X0024550Y0069250D03*
X0025450Y0068850D03*
Y0069650D03*
X0022550Y0069250D03*
X0023450Y0068850D03*
Y0069650D03*
X0050700Y0074000D03*
X0049800Y0074400D03*
Y0073600D03*
X0055700Y0058750D03*
X0054800Y0059150D03*
Y0058350D03*
G54D24*
X0055750Y0052801D03*
Y0051699D03*
G54D25*
X0048100Y0033500D03*
X0048900D03*
G54D26*
X0024980Y0075858D03*
X0040138D03*
Y0079008D03*
X0010250Y0077000D03*
X0015500Y0064000D03*
G54D27*
X0030750Y0006000D03*
X0006000Y0076250D03*
G54D28*
X0025750Y0000880D03*
X0015750D03*
X0020750Y0006000D03*
X0011000Y0081370D03*
G54D29*
X0020750Y0083000D03*
G54D30*
Y0081000D03*
G54D31*
X0058583Y0076250D03*
G54D32*
X0056417D03*
G54D33*
X0058506Y0060486D03*
Y0066486D03*
X0055527Y0081500D03*
G54D34*
X0023000Y0072750D03*
X0021000Y0066500D03*
X0018250Y0070500D03*
X0015500Y0066500D03*
X0040750Y0001250D03*
X0027500Y0066000D03*
X0047500Y0080000D03*
X0052250Y0083750D03*
X0010000Y0063901D03*
Y0065901D03*
X0010250Y0049000D03*
Y0051000D03*
X0003500Y0067848D03*
Y0065848D03*
X0003250Y0053000D03*
Y0051000D03*
X0010250Y0034500D03*
Y0036500D03*
Y0018750D03*
Y0020750D03*
X0003500Y0038500D03*
Y0036500D03*
Y0022750D03*
Y0020750D03*
X0055000Y0080153D03*
Y0082846D03*
G54D35*
Y0081992D03*
G54D36*
Y0081008D03*
G54D37*
X0052000Y0074250D03*
X0053000D03*
X0056000D03*
X0059000D03*
X0056994Y0061962D03*
Y0060978D03*
Y0059994D03*
Y0059010D03*
X0057978Y0061962D03*
Y0060978D03*
Y0059994D03*
X0056994Y0067962D03*
Y0066978D03*
Y0065994D03*
Y0065010D03*
X0057978Y0067962D03*
Y0066978D03*
Y0065994D03*
X0032250Y0047000D03*
X0033250D03*
Y0046000D03*
X0032250D03*
X0031250D03*
G54D38*
X0045750Y0080750D03*
X0057978Y0059010D03*
Y0065010D03*
X0031250Y0047000D03*
G54D39*
X0058250Y0053000D03*
G54D40*
Y0052213D03*
G54D41*
X0042867Y0077750D03*
X0044632D03*
G54D42*
X0032000Y0069000D03*
X0031620D03*
X0031250D03*
Y0067980D03*
X0032000D03*
X0020250Y0071000D03*
X0020630D03*
X0021000D03*
Y0072020D03*
X0020250D03*
X0018750Y0074500D03*
X0019130D03*
X0019500D03*
Y0075520D03*
X0018750D03*
G54D43*
X0047950Y0035100D03*
Y0036900D03*
G54D44*
X0045250Y0036000D03*
G54D45*
X0010000Y0067000D03*
Y0068000D03*
X0010250Y0052098D03*
Y0053098D03*
X0003500Y0064750D03*
Y0063750D03*
X0003250Y0049901D03*
Y0048901D03*
X0010250Y0037598D03*
Y0038598D03*
Y0021848D03*
Y0022848D03*
X0003500Y0035401D03*
Y0034401D03*
Y0019651D03*
Y0018651D03*
G54D46*
X0046750Y0043800D03*
X0047150Y0044700D03*
X0046350D03*
X0045000Y0043800D03*
X0045400Y0044700D03*
X0044600D03*
X0043265Y0043815D03*
X0043665Y0044715D03*
X0042865D03*
X0041500Y0043800D03*
X0041900Y0044700D03*
X0041100D03*
X0050250Y0043800D03*
X0050650Y0044700D03*
X0049850D03*
X0048500Y0043800D03*
X0048900Y0044700D03*
X0048100D03*
X0039750Y0043800D03*
X0040150Y0044700D03*
X0039350D03*
G54D47*
X0045950Y0078000D03*
X0054300Y0053750D03*
G54D48*
X0048550Y0077100D03*
Y0078000D03*
Y0078900D03*
X0051700Y0054650D03*
Y0053750D03*
Y0052850D03*
G54D49*
X0005350Y0082750D03*
X0006650D03*
X0007600D03*
X0008900D03*
G54D50*
X0051250Y0031500D03*
X0041250D03*
X0038250Y0019250D03*
Y0009250D03*
G54D51*
X0047030Y0045750D03*
X0046470D03*
X0045280D03*
X0044720D03*
X0043545Y0045765D03*
X0042985D03*
X0041780Y0045750D03*
X0041220D03*
X0050530D03*
X0049970D03*
X0048780D03*
X0048220D03*
X0040030D03*
X0039470D03*
G54D52*
X0050750Y0001620D03*
Y-0000120D03*
X0004000Y0081370D03*
Y0079630D03*
G54D53*
X0024980Y0080090D03*
G54D54*
X0054750Y0040102D03*
X0053750D03*
Y0037898D03*
X0054750D03*
X0051750Y0080398D03*
X0052750D03*
Y0082602D03*
X0051750D03*
G54D55*
X0036750Y0005831D03*
X0034750D03*
G54D56*
X0034000Y0002169D03*
X0034500D03*
X0035000D03*
X0035500D03*
X0036000D03*
X0036500D03*
X0037000D03*
X0037500D03*
G54D57*
X0019500Y0056000D03*
X0020000D03*
X0020500D03*
X0021000D03*
X0021500D03*
X0022000D03*
X0022500D03*
Y0058400D03*
X0022000D03*
X0021500D03*
X0021000D03*
X0020500D03*
X0020000D03*
X0019500D03*
Y0041750D03*
X0020000D03*
X0020500D03*
X0021000D03*
X0021500D03*
X0022000D03*
X0022500D03*
Y0044150D03*
X0022000D03*
X0021500D03*
X0021000D03*
X0020500D03*
X0020000D03*
X0019500D03*
Y0060500D03*
X0020000D03*
X0020500D03*
X0021000D03*
Y0062900D03*
X0020500D03*
X0020000D03*
X0019500D03*
Y0051750D03*
X0020000D03*
X0020500D03*
X0021000D03*
Y0054150D03*
X0020500D03*
X0020000D03*
X0019500D03*
Y0037000D03*
X0020000D03*
X0020500D03*
X0021000D03*
Y0039400D03*
X0020500D03*
X0020000D03*
X0019500D03*
Y0032500D03*
X0020000D03*
X0020500D03*
X0021000D03*
Y0034900D03*
X0020500D03*
X0020000D03*
X0019500D03*
G54D58*
X0011919Y0079000D03*
Y0077000D03*
G54D59*
X0015581Y0076250D03*
Y0076750D03*
Y0077250D03*
Y0077750D03*
Y0078250D03*
Y0078750D03*
Y0079250D03*
Y0079750D03*
G54D60*
X0019555Y0046096D03*
X0019811D03*
X0020067D03*
X0020323D03*
X0020579D03*
X0020835D03*
X0021090D03*
X0021346D03*
Y0048695D03*
X0021090D03*
X0020835D03*
X0020579D03*
X0020323D03*
X0020067D03*
X0019811D03*
X0019555D03*
G54D61*
X0036462Y0057242D03*
X0036265D03*
X0036068D03*
X0035674D03*
X0035477D03*
X0035280D03*
X0035083D03*
X0034886D03*
X0034689D03*
X0034492D03*
X0034295D03*
X0034098D03*
X0033704D03*
X0033507D03*
Y0052727D03*
X0033901D03*
X0034098D03*
X0034295D03*
X0034492D03*
X0034689D03*
X0034886D03*
X0035083D03*
X0035280D03*
X0035477D03*
X0035871D03*
X0036068D03*
X0036265D03*
X0036462D03*
G54D62*
X0035871Y0057242D03*
X0033901D03*
X0033704Y0052727D03*
X0035674D03*
G54D63*
X0037242Y0053704D03*
Y0053901D03*
Y0054098D03*
Y0054295D03*
Y0054492D03*
Y0054689D03*
Y0054886D03*
Y0055083D03*
Y0055477D03*
Y0055674D03*
Y0055871D03*
Y0056068D03*
Y0056265D03*
Y0056462D03*
X0032727D03*
Y0056265D03*
Y0056068D03*
Y0055871D03*
Y0055674D03*
Y0055477D03*
Y0055280D03*
Y0054886D03*
Y0054689D03*
Y0054492D03*
Y0054295D03*
Y0054098D03*
Y0053901D03*
Y0053704D03*
Y0053507D03*
G54D64*
X0037242D03*
Y0055280D03*
X0032727Y0055083D03*
G54D65*
X0010250Y0027185D03*
Y0027842D03*
Y0028500D03*
Y0029157D03*
Y0029815D03*
G54D66*
X0045250Y0058500D03*
Y0058000D03*
Y0057500D03*
X0049069D03*
Y0058000D03*
Y0058500D03*
Y0059000D03*
G54D67*
X0045250D03*
G54D68*
X0050500Y0059500D03*
Y0059000D03*
Y0058500D03*
Y0058000D03*
X0052900D03*
Y0058500D03*
Y0059000D03*
Y0059500D03*
G54D69*
X0051410Y0062820D03*
X0052000D03*
X0052590D03*
X0052000Y0064000D03*
G54D70*
X0045380Y0055250D03*
Y0054250D03*
X0049120D03*
Y0055250D03*
G54D71*
X0041250Y0034750D03*
X0042000D03*
X0042700D03*
X0043450D03*
Y0035350D03*
X0042700D03*
X0042000D03*
X0041250D03*
Y0036050D03*
X0042000D03*
X0042700D03*
X0043450D03*
Y0036850D03*
X0042700D03*
X0042000D03*
X0041250D03*
X0043450Y0037550D03*
X0042700D03*
X0042000D03*
X0041250D03*
X0053300Y0051750D03*
X0052700D03*
X0053300Y0052400D03*
X0052700D03*
Y0053050D03*
X0053300D03*
Y0054450D03*
X0052650D03*
X0053300Y0053750D03*
X0052650D03*
X0047750Y0076700D03*
Y0077350D03*
X0048350Y0076050D03*
X0047750D03*
X0047150D03*
X0046600D03*
X0047150Y0076700D03*
X0046600D03*
X0047700Y0078600D03*
X0047150D03*
X0046600D03*
X0047150Y0077350D03*
X0046600D03*
X0047750Y0078000D03*
X0047150D03*
X0046600D03*
X0040750Y0045750D03*
X0047750D03*
X0023000Y0037500D03*
Y0033250D03*
G54D76*
X0055000Y0063964D03*
Y0060900D03*
X0050000Y0076800D03*
X0047500Y0081750D03*
X0052750Y0081000D03*
X0031600Y0068450D03*
X0030250Y0070000D03*
X0031500Y0069500D03*
X0042500Y0045750D03*
X0044250D03*
X0033250Y0050250D03*
X0034300Y0051800D03*
X0046000Y0045750D03*
X0026900Y0069650D03*
X0020650Y0070450D03*
X0021750Y0070250D03*
X0049500Y0045750D03*
X0035250Y0051400D03*
X0037250Y0050250D03*
X0021750Y0072500D03*
X0020250Y0073950D03*
X0031750Y0054500D03*
X0035477Y0056600D03*
X0031750Y0057250D03*
X0019150Y0073950D03*
X0020000Y0077050D03*
X0034950Y0054304D03*
X0038250Y0001550D03*
X0036350Y0054600D03*
X0040250Y0057550D03*
Y0054200D03*
X0042300Y0053400D03*
X0044750Y0058700D03*
X0044500Y0057500D03*
X0017250Y0077500D03*
X0017970Y0079530D03*
X0004000Y0078950D03*
X0053750Y0040600D03*
X0049820Y-0000120D03*
X0054000Y0006500D03*
X0056250Y0046100D03*
X0042820Y0052030D03*
Y0059280D03*
Y0048520D03*
X0012480Y0029780D03*
X0060600Y0005100D03*
Y0041000D03*
X0018520Y0044720D03*
X0018750Y0049250D03*
Y0058850D03*
X0019550Y0072000D03*
X0030750Y0067550D03*
X0031500Y0071950D03*
X0044250Y0056600D03*
X0056250Y0044500D03*
X0053850Y-0001500D03*
X0042820Y0067400D03*
X0035750Y0048750D03*
X0023500Y0066500D03*
X0032000Y0067400D03*
X0050500Y0079050D03*
X0037210Y0083410D03*
Y0063980D03*
X0050500Y0052500D03*
Y0056500D03*
X0055750Y0056650D03*
X0056150Y0058450D03*
X0021650Y0046750D03*
X0022500Y0042500D03*
X0018750Y0047750D03*
X0019000Y0045850D03*
X0018750Y0057250D03*
X0023027Y0048023D03*
X0020323D03*
X0023000Y0039350D03*
X0036050Y0042100D03*
X0023500Y0035450D03*
X0039000Y0045750D03*
X0022500Y0056750D03*
X0048750Y0073250D03*
X0023880Y0061470D03*
X0022900Y0069650D03*
X0045000Y0073250D03*
X0042500D03*
X0043750Y0075000D03*
X0029750Y0050250D03*
X0023000Y0052250D03*
X0038250Y0044750D03*
X0036750D03*
X0019750Y0064470D03*
X0021500Y0044800D03*
X0020000D03*
X0035674Y0057924D03*
X0031242Y0050107D03*
X0021500Y0056800D03*
X0020000D03*
X0021500Y0059200D03*
X0020000D03*
X0023800Y0062050D03*
X0023150Y0055250D03*
X0022000Y0054600D03*
X0020600Y0054850D03*
X0022000Y0040050D03*
X0020350Y0040100D03*
X0020500Y0035600D03*
X0022050D03*
X0022550Y0068500D03*
X0019750D03*
X0033992Y0050107D03*
X0035000Y0049000D03*
X0033000Y0069250D03*
X0005250Y0079000D03*
X0034500Y0055250D03*
X0039050Y0055500D03*
X0038031Y0056068D03*
X0024731D03*
X0002050Y0079750D03*
X0004650Y0080400D03*
X0028100Y0068500D03*
X0027450Y0070900D03*
X0021600Y0075950D03*
X0017950D03*
X0031100Y0056450D03*
X0019790Y0050280D03*
X0020570D03*
X0016700Y0074500D03*
X0018200D03*
X0040500Y0056500D03*
X0041900Y0053350D03*
X0033901Y0053351D03*
X0033000Y0067400D03*
X0040220D03*
X0019217Y0046733D03*
X0020067D03*
X0030200Y0055550D03*
X0036200D03*
X0020323Y0045473D03*
X0022023D03*
X0042950Y0068150D03*
X0022000D03*
X0022150Y0070450D03*
X0022350Y0073550D03*
X0040300Y0054750D03*
X0038000D03*
X0019450Y0055200D03*
X0020950D03*
X0020100Y0053450D03*
X0033590Y-0000770D03*
X0059000Y0045600D03*
X0041300Y0055200D03*
X0034000Y0055000D03*
X0020000Y0038800D03*
X0024130Y0057550D03*
X0020550D03*
X0035950Y0058450D03*
X0040800Y0057620D03*
X0059600Y0045000D03*
X0038670Y-0000820D03*
X0020500Y0043400D03*
X0022250D03*
X0034600Y0058350D03*
X0025800D03*
X0022550Y0035950D03*
X0019010D03*
X0022450Y0059500D03*
X0020550D03*
X0020900Y0053150D03*
X0037250Y0048750D03*
X0054500Y0001500D03*
X0059300Y0045300D03*
X0042050Y0057000D03*
X0035800Y0056450D03*
X0020000Y0061900D03*
X0054750Y0042000D03*
Y0040750D03*
X0021000Y0038450D03*
X0019750Y0040750D03*
X0021000D03*
X0019250Y0052400D03*
X0020950D03*
X0035250Y-0000200D03*
X0049700Y0059500D03*
Y0057950D03*
X0019300Y0072400D03*
X0016160D03*
X0025548Y0053901D03*
X0036451D03*
X0021000Y0033950D03*
X0044800Y0070250D03*
X0035050D03*
X0021000Y0062300D03*
X0031170Y0053470D03*
X0020000Y0034000D03*
X0018500Y0036000D03*
X0022850Y0036250D03*
X0025800Y0058800D03*
X0034250D03*
G54D79*
X0052500Y0076050D03*
X0053500Y0077450D03*
M02*
